M48
;Layer_Color=9474304
;FILE_FORMAT=4:4
METRIC,LZ
;TYPE=PLATED
T1F00S00C0.3000
T2F00S00C0.5000
T3F00S00C1.2000
T4F00S00C1.8000
T5F00S00C3.2000
%
T01
X0036Y0014
X00358656Y00233203
X00406687Y00208203
X00424384
X00442081
X00459777
X00477475
X00495171
X00512868
X00530565
X00548262
X00565959
X00583656
X00601353
X0061905
Y00188203
X00601353
X00583656
X00565959
X00548262
X00530565
X00512868
X00495171
X00477475
X00459777
X00442081
X00424384
X00406687
Y00168203
X00424384
X00442081
X00459777
X00477475
X00495171
X00512868
X00530565
X00548262
X00565959
X00583656
X00601353
X0061905
X00675Y0014
X00655Y0022
T02
X00138656Y00138203
X00131156Y00158203
X00138656Y00178203
X00158656Y00185703
X00178656Y00178203
X00186156Y00158203
X00178656Y00138203
X00158656Y00130703
X00818904Y0014135
X00838904Y0013385
X00858904Y0014135
X00866404Y0016135
X00858904Y0018135
X00838904Y0018885
X00818904Y0018135
X00811404Y0016135
T03
X00236495Y00212556
X00261495
X00286495
X00311495
T04
X00236565Y00142706
X00311495
T05
X00158656Y00158203
X00838904Y0016135
M30
