G04*
G04 #@! TF.GenerationSoftware,Altium Limited,Altium Designer,25.1.2 (22)*
G04*
G04 Layer_Color=128*
%FSLAX44Y44*%
%MOMM*%
G71*
G04*
G04 #@! TF.SameCoordinates,11D3371E-CB65-4904-97E3-BBD7DF8ED879*
G04*
G04*
G04 #@! TF.FilePolarity,Positive*
G04*
G01*
G75*
G04:AMPARAMS|DCode=11|XSize=1.3mm|YSize=3.45mm|CornerRadius=0.325mm|HoleSize=0mm|Usage=FLASHONLY|Rotation=0.000|XOffset=0mm|YOffset=0mm|HoleType=Round|Shape=RoundedRectangle|*
%AMROUNDEDRECTD11*
21,1,1.3000,2.8000,0,0,0.0*
21,1,0.6500,3.4500,0,0,0.0*
1,1,0.6500,0.3250,-1.4000*
1,1,0.6500,-0.3250,-1.4000*
1,1,0.6500,-0.3250,1.4000*
1,1,0.6500,0.3250,1.4000*
%
%ADD11ROUNDEDRECTD11*%
G04:AMPARAMS|DCode=12|XSize=0.65mm|YSize=3.45mm|CornerRadius=0.1625mm|HoleSize=0mm|Usage=FLASHONLY|Rotation=0.000|XOffset=0mm|YOffset=0mm|HoleType=Round|Shape=RoundedRectangle|*
%AMROUNDEDRECTD12*
21,1,0.6500,3.1250,0,0,0.0*
21,1,0.3250,3.4500,0,0,0.0*
1,1,0.3250,0.1625,-1.5625*
1,1,0.3250,-0.1625,-1.5625*
1,1,0.3250,-0.1625,1.5625*
1,1,0.3250,0.1625,1.5625*
%
%ADD12ROUNDEDRECTD12*%
G04:AMPARAMS|DCode=20|XSize=1.5mm|YSize=3mm|CornerRadius=0.375mm|HoleSize=0mm|Usage=FLASHONLY|Rotation=135.000|XOffset=0mm|YOffset=0mm|HoleType=Round|Shape=RoundedRectangle|*
%AMROUNDEDRECTD20*
21,1,1.5000,2.2500,0,0,135.0*
21,1,0.7500,3.0000,0,0,135.0*
1,1,0.7500,0.5303,1.0607*
1,1,0.7500,1.0607,0.5303*
1,1,0.7500,-0.5303,-1.0607*
1,1,0.7500,-1.0607,-0.5303*
%
%ADD20ROUNDEDRECTD20*%
G04:AMPARAMS|DCode=21|XSize=1.55mm|YSize=1.25mm|CornerRadius=0mm|HoleSize=0mm|Usage=FLASHONLY|Rotation=135.000|XOffset=0mm|YOffset=0mm|HoleType=Round|Shape=Rectangle|*
%AMROTATEDRECTD21*
4,1,4,0.9900,-0.1061,0.1061,-0.9900,-0.9900,0.1061,-0.1061,0.9900,0.9900,-0.1061,0.0*
%
%ADD21ROTATEDRECTD21*%

D11*
X-63500Y-75700D02*
D03*
X124100Y-42400D02*
D03*
X314800Y-75700D02*
D03*
X-167600Y-193700D02*
D03*
X221400Y-176500D02*
D03*
X-26900D02*
D03*
X415900Y-193700D02*
D03*
D12*
X-77470Y-75700D02*
D03*
X-49530D02*
D03*
X110130Y-42400D02*
D03*
X138070D02*
D03*
X300830Y-75700D02*
D03*
X328770D02*
D03*
X-181570Y-193700D02*
D03*
X-153630D02*
D03*
X207430Y-176500D02*
D03*
X235370D02*
D03*
X-40870D02*
D03*
X-12930D02*
D03*
X401930Y-193700D02*
D03*
X429870D02*
D03*
D20*
X-230000Y-230000D02*
D03*
Y-200000D02*
D03*
Y-170000D02*
D03*
D21*
X-160000Y-105000D02*
D03*
X-174849Y-119849D02*
D03*
M02*
