G04*
G04 #@! TF.GenerationSoftware,Altium Limited,Altium Designer,25.1.2 (22)*
G04*
G04 Layer_Color=16711935*
%FSLAX44Y44*%
%MOMM*%
G71*
G04*
G04 #@! TF.SameCoordinates,11D3371E-CB65-4904-97E3-BBD7DF8ED879*
G04*
G04*
G04 #@! TF.FilePolarity,Negative*
G04*
G01*
G75*
G04:AMPARAMS|DCode=13|XSize=1.5032mm|YSize=3.6532mm|CornerRadius=0.4266mm|HoleSize=0mm|Usage=FLASHONLY|Rotation=0.000|XOffset=0mm|YOffset=0mm|HoleType=Round|Shape=RoundedRectangle|*
%AMROUNDEDRECTD13*
21,1,1.5032,2.8000,0,0,0.0*
21,1,0.6500,3.6532,0,0,0.0*
1,1,0.8532,0.3250,-1.4000*
1,1,0.8532,-0.3250,-1.4000*
1,1,0.8532,-0.3250,1.4000*
1,1,0.8532,0.3250,1.4000*
%
%ADD13ROUNDEDRECTD13*%
G04:AMPARAMS|DCode=14|XSize=0.8532mm|YSize=3.6532mm|CornerRadius=0.2641mm|HoleSize=0mm|Usage=FLASHONLY|Rotation=0.000|XOffset=0mm|YOffset=0mm|HoleType=Round|Shape=RoundedRectangle|*
%AMROUNDEDRECTD14*
21,1,0.8532,3.1250,0,0,0.0*
21,1,0.3250,3.6532,0,0,0.0*
1,1,0.5282,0.1625,-1.5625*
1,1,0.5282,-0.1625,-1.5625*
1,1,0.5282,-0.1625,1.5625*
1,1,0.5282,0.1625,1.5625*
%
%ADD14ROUNDEDRECTD14*%
%ADD15C,5.2032*%
%ADD16C,4.2032*%
G04:AMPARAMS|DCode=23|XSize=1.7032mm|YSize=3.2032mm|CornerRadius=0.4766mm|HoleSize=0mm|Usage=FLASHONLY|Rotation=135.000|XOffset=0mm|YOffset=0mm|HoleType=Round|Shape=RoundedRectangle|*
%AMROUNDEDRECTD23*
21,1,1.7032,2.2500,0,0,135.0*
21,1,0.7500,3.2032,0,0,135.0*
1,1,0.9532,0.5303,1.0607*
1,1,0.9532,1.0607,0.5303*
1,1,0.9532,-0.5303,-1.0607*
1,1,0.9532,-1.0607,-0.5303*
%
%ADD23ROUNDEDRECTD23*%
G04:AMPARAMS|DCode=24|XSize=1.7532mm|YSize=1.4532mm|CornerRadius=0mm|HoleSize=0mm|Usage=FLASHONLY|Rotation=135.000|XOffset=0mm|YOffset=0mm|HoleType=Round|Shape=Rectangle|*
%AMROTATEDRECTD24*
4,1,4,1.1336,-0.1061,0.1061,-1.1336,-1.1336,0.1061,-0.1061,1.1336,1.1336,-0.1061,0.0*
%
%ADD24ROTATEDRECTD24*%

D13*
X-63500Y-75700D02*
D03*
X124100Y-42400D02*
D03*
X314800Y-75700D02*
D03*
X-167600Y-193700D02*
D03*
X221400Y-176500D02*
D03*
X-26900D02*
D03*
X415900Y-193700D02*
D03*
D14*
X-77470Y-75700D02*
D03*
X-49530D02*
D03*
X110130Y-42400D02*
D03*
X138070D02*
D03*
X300830Y-75700D02*
D03*
X328770D02*
D03*
X-181570Y-193700D02*
D03*
X-153630D02*
D03*
X207430Y-176500D02*
D03*
X235370D02*
D03*
X-40870D02*
D03*
X-12930D02*
D03*
X401930Y-193700D02*
D03*
X429870D02*
D03*
D15*
X124000Y-129000D02*
D03*
D16*
X0Y0D02*
D03*
X248291D02*
D03*
D23*
X-230000Y-230000D02*
D03*
Y-200000D02*
D03*
Y-170000D02*
D03*
D24*
X-160000Y-105000D02*
D03*
X-174849Y-119849D02*
D03*
M02*
