G04*
G04 #@! TF.GenerationSoftware,Altium Limited,Altium Designer,25.1.2 (22)*
G04*
G04 Layer_Color=0*
%FSLAX44Y44*%
%MOMM*%
G71*
G04*
G04 #@! TF.SameCoordinates,11D3371E-CB65-4904-97E3-BBD7DF8ED879*
G04*
G04*
G04 #@! TF.FilePolarity,Positive*
G04*
G01*
G75*
%ADD26C,0.0254*%
D26*
X-51174Y22271D02*
X-268326Y-176234D01*
X-272798Y-180928D01*
X-276579Y-186195D01*
X-279597Y-191932D01*
X-281795Y-198031D01*
X-283131Y-204375D01*
X-283580Y-210842D01*
X-283102Y-217514D01*
X-281681Y-224050D01*
X-279344Y-230317D01*
X-276139Y-236188D01*
X-272132Y-241543D01*
X-267403Y-246273D01*
X-262049Y-250283D01*
X-256179Y-253490D01*
X-249913Y-255829D01*
X-243378Y-257253D01*
X-236706Y-257732D01*
X-230034Y-257257D01*
X-182981Y-250966D01*
X-135818Y-245569D01*
X-88560Y-241069D01*
X-41225Y-237466D01*
X6170Y-234763D01*
X53607Y-232961D01*
X101070Y-232060D01*
X148542D01*
X196005Y-232961D01*
X243442Y-234763D01*
X290837Y-237466D01*
X338172Y-241068D01*
X385430Y-245569D01*
X432594Y-250966D01*
X479647Y-257257D01*
X491636D01*
X498100Y-255859D01*
X504303Y-253566D01*
X510122Y-250422D01*
X515441Y-246491D01*
X520153Y-241851D01*
X524166Y-236594D01*
X527399Y-230825D01*
X529789Y-224658D01*
X531287Y-218216D01*
X531864Y-211628D01*
X531508Y-205024D01*
X530226Y-198535D01*
X528045Y-192292D01*
X525007Y-186418D01*
X521172Y-181029D01*
X516617Y-176234D01*
X299465Y22271D01*
X220315Y51742D01*
X27976D01*
X-51174Y22271D01*
M02*
