G04*
G04 #@! TF.GenerationSoftware,Altium Limited,Altium Designer,25.1.2 (22)*
G04*
G04 Layer_Physical_Order=2*
G04 Layer_Color=16711680*
%FSLAX44Y44*%
%MOMM*%
G71*
G04*
G04 #@! TF.SameCoordinates,11D3371E-CB65-4904-97E3-BBD7DF8ED879*
G04*
G04*
G04 #@! TF.FilePolarity,Positive*
G04*
G01*
G75*
G04:AMPARAMS|DCode=11|XSize=1.3mm|YSize=3.45mm|CornerRadius=0.325mm|HoleSize=0mm|Usage=FLASHONLY|Rotation=0.000|XOffset=0mm|YOffset=0mm|HoleType=Round|Shape=RoundedRectangle|*
%AMROUNDEDRECTD11*
21,1,1.3000,2.8000,0,0,0.0*
21,1,0.6500,3.4500,0,0,0.0*
1,1,0.6500,0.3250,-1.4000*
1,1,0.6500,-0.3250,-1.4000*
1,1,0.6500,-0.3250,1.4000*
1,1,0.6500,0.3250,1.4000*
%
%ADD11ROUNDEDRECTD11*%
G04:AMPARAMS|DCode=12|XSize=0.65mm|YSize=3.45mm|CornerRadius=0.1625mm|HoleSize=0mm|Usage=FLASHONLY|Rotation=0.000|XOffset=0mm|YOffset=0mm|HoleType=Round|Shape=RoundedRectangle|*
%AMROUNDEDRECTD12*
21,1,0.6500,3.1250,0,0,0.0*
21,1,0.3250,3.4500,0,0,0.0*
1,1,0.3250,0.1625,-1.5625*
1,1,0.3250,-0.1625,-1.5625*
1,1,0.3250,-0.1625,1.5625*
1,1,0.3250,0.1625,1.5625*
%
%ADD12ROUNDEDRECTD12*%
%ADD17C,5.0000*%
%ADD18C,4.0000*%
%ADD19C,0.4500*%
G04:AMPARAMS|DCode=20|XSize=1.5mm|YSize=3mm|CornerRadius=0.375mm|HoleSize=0mm|Usage=FLASHONLY|Rotation=135.000|XOffset=0mm|YOffset=0mm|HoleType=Round|Shape=RoundedRectangle|*
%AMROUNDEDRECTD20*
21,1,1.5000,2.2500,0,0,135.0*
21,1,0.7500,3.0000,0,0,135.0*
1,1,0.7500,0.5303,1.0607*
1,1,0.7500,1.0607,0.5303*
1,1,0.7500,-0.5303,-1.0607*
1,1,0.7500,-1.0607,-0.5303*
%
%ADD20ROUNDEDRECTD20*%
G04:AMPARAMS|DCode=21|XSize=1.55mm|YSize=1.25mm|CornerRadius=0mm|HoleSize=0mm|Usage=FLASHONLY|Rotation=135.000|XOffset=0mm|YOffset=0mm|HoleType=Round|Shape=Rectangle|*
%AMROTATEDRECTD21*
4,1,4,0.9900,-0.1061,0.1061,-0.9900,-0.9900,0.1061,-0.1061,0.9900,0.9900,-0.1061,0.0*
%
%ADD21ROTATEDRECTD21*%

%ADD22C,0.2540*%
G36*
X301685Y22271D02*
X518837Y-176234D01*
X523392Y-181029D01*
X527227Y-186418D01*
X530265Y-192292D01*
X532446Y-198535D01*
X533728Y-205024D01*
X534084Y-211628D01*
X533507Y-218216D01*
X532009Y-224658D01*
X529619Y-230825D01*
X526386Y-236594D01*
X522373Y-241851D01*
X517661Y-246491D01*
X512342Y-250422D01*
X506523Y-253566D01*
X500320Y-255859D01*
X493856Y-257257D01*
X481867D01*
X434814Y-250966D01*
X387650Y-245569D01*
X340392Y-241068D01*
X293057Y-237466D01*
X245662Y-234763D01*
X198225Y-232961D01*
X150762Y-232060D01*
X103290D01*
X55827Y-232961D01*
X8390Y-234763D01*
X-39005Y-237466D01*
X-86340Y-241069D01*
X-133598Y-245569D01*
X-180762Y-250966D01*
X-227815Y-257257D01*
X-234486Y-257732D01*
X-241158Y-257253D01*
X-247693Y-255829D01*
X-253959Y-253490D01*
X-259829Y-250283D01*
X-265183Y-246273D01*
X-269912Y-241543D01*
X-273919Y-236188D01*
X-277124Y-230317D01*
X-279461Y-224050D01*
X-280882Y-217514D01*
X-281360Y-210842D01*
X-280911Y-204375D01*
X-279575Y-198031D01*
X-277377Y-191932D01*
X-274359Y-186195D01*
X-270578Y-180928D01*
X-266106Y-176234D01*
X-48954Y22271D01*
X30196Y51742D01*
X222535D01*
X301685Y22271D01*
D02*
G37*
%LPC*%
G36*
X250261Y20000D02*
X246321D01*
X242457Y19231D01*
X238817Y17724D01*
X235542Y15535D01*
X232756Y12749D01*
X230567Y9474D01*
X229060Y5834D01*
X228291Y1970D01*
Y-1970D01*
X229060Y-5834D01*
X230567Y-9474D01*
X232756Y-12749D01*
X235542Y-15535D01*
X238817Y-17724D01*
X242457Y-19231D01*
X246321Y-20000D01*
X250261D01*
X254125Y-19231D01*
X257764Y-17724D01*
X261040Y-15535D01*
X263826Y-12749D01*
X266015Y-9474D01*
X267522Y-5834D01*
X268291Y-1970D01*
Y1970D01*
X267522Y5834D01*
X266015Y9474D01*
X263826Y12749D01*
X261040Y15535D01*
X257764Y17724D01*
X254125Y19231D01*
X250261Y20000D01*
D02*
G37*
G36*
X1970D02*
X-1970D01*
X-5834Y19231D01*
X-9474Y17724D01*
X-12749Y15535D01*
X-15535Y12749D01*
X-17724Y9474D01*
X-19231Y5834D01*
X-20000Y1970D01*
Y-1970D01*
X-19231Y-5834D01*
X-17724Y-9474D01*
X-15535Y-12749D01*
X-12749Y-15535D01*
X-9474Y-17724D01*
X-5834Y-19231D01*
X-1970Y-20000D01*
X1970D01*
X5834Y-19231D01*
X9474Y-17724D01*
X12749Y-15535D01*
X15535Y-12749D01*
X17724Y-9474D01*
X19231Y-5834D01*
X20000Y-1970D01*
Y1970D01*
X19231Y5834D01*
X17724Y9474D01*
X15535Y12749D01*
X12749Y15535D01*
X9474Y17724D01*
X5834Y19231D01*
X1970Y20000D01*
D02*
G37*
G36*
X140000Y-22410D02*
X135000D01*
X134009Y-22607D01*
X133169Y-23169D01*
X132757Y-23785D01*
X132281Y-23955D01*
X131807Y-24049D01*
X131299Y-24075D01*
X129609Y-22946D01*
X127350Y-22497D01*
X120850D01*
X118591Y-22946D01*
X116676Y-24226D01*
X116632Y-24291D01*
X115105D01*
X114758Y-23772D01*
X114716Y-23744D01*
X114331Y-23169D01*
X113491Y-22607D01*
X112500Y-22410D01*
X107500D01*
X107233Y-22463D01*
X106960Y-22467D01*
X83541Y-27458D01*
X83323Y-27552D01*
X83090Y-27598D01*
X82863Y-27750D01*
X82613Y-27857D01*
X82461Y-28014D01*
X81541Y-28395D01*
X80523D01*
X80372Y-28335D01*
X80135Y-28338D01*
X79902Y-28292D01*
X79635Y-28345D01*
X79362Y-28349D01*
X39062Y-36937D01*
X38844Y-37031D01*
X38610Y-37078D01*
X38384Y-37229D01*
X38134Y-37337D01*
X37968Y-37507D01*
X37770Y-37639D01*
X37350Y-38060D01*
X36541Y-38395D01*
X35666D01*
X35240Y-38218D01*
X34972Y-38165D01*
X34719Y-38064D01*
X34481Y-38068D01*
X34248Y-38021D01*
X33981Y-38074D01*
X33709Y-38078D01*
X-5417Y-46416D01*
X-5636Y-46510D01*
X-5869Y-46557D01*
X-6095Y-46708D01*
X-6346Y-46816D01*
X-6511Y-46986D01*
X-6709Y-47118D01*
X-7651Y-48060D01*
X-8459Y-48395D01*
X-9334D01*
X-10414Y-47948D01*
X-10681Y-47895D01*
X-10934Y-47794D01*
X-11172Y-47797D01*
X-11405Y-47751D01*
X-11672Y-47804D01*
X-11945Y-47807D01*
X-45273Y-54910D01*
X-52500D01*
X-53491Y-55107D01*
X-54331Y-55669D01*
X-54893Y-56509D01*
X-54970Y-56895D01*
X-55376Y-57127D01*
X-56312Y-57367D01*
X-57991Y-56246D01*
X-60250Y-55797D01*
X-66410D01*
Y-53907D01*
X-66452Y-53699D01*
X-66445Y-53486D01*
X-66549Y-53208D01*
X-66607Y-52916D01*
X-66726Y-52740D01*
X-66800Y-52540D01*
X-67004Y-52323D01*
X-67169Y-52076D01*
X-67346Y-51958D01*
X-67491Y-51803D01*
X-68523Y-51063D01*
X-68717Y-50975D01*
X-68886Y-50845D01*
X-69173Y-50768D01*
X-69444Y-50646D01*
X-69657Y-50639D01*
X-69862Y-50584D01*
X-70157Y-50622D01*
X-70454Y-50612D01*
X-70653Y-50687D01*
X-70864Y-50715D01*
X-72585Y-51299D01*
X-75381Y-50610D01*
X-75610Y-50600D01*
X-75833Y-50541D01*
X-76110Y-50577D01*
X-76390Y-50565D01*
X-76606Y-50643D01*
X-76834Y-50673D01*
X-77077Y-50814D01*
X-77340Y-50909D01*
X-77510Y-51064D01*
X-77709Y-51179D01*
X-162065Y-125278D01*
X-162382Y-125225D01*
X-162537Y-125149D01*
X-163266Y-124362D01*
X-163415Y-124150D01*
X-163481Y-123673D01*
X-163538Y-123195D01*
X-163551Y-123174D01*
X-163554Y-123149D01*
X-163570Y-123122D01*
X-161358Y-120910D01*
X-175910Y-106358D01*
X-177789Y-108237D01*
X-178167Y-108282D01*
X-178255Y-108331D01*
X-178354Y-108351D01*
X-178459Y-108395D01*
X-179059D01*
X-179509Y-108484D01*
X-179962Y-108558D01*
X-180003Y-108583D01*
X-180050Y-108592D01*
X-180432Y-108847D01*
X-180822Y-109088D01*
X-231122Y-155858D01*
X-231150Y-155897D01*
X-231190Y-155923D01*
X-231445Y-156305D01*
X-231714Y-156677D01*
X-231724Y-156723D01*
X-231751Y-156763D01*
X-232032Y-157441D01*
X-232651Y-158060D01*
X-233734Y-158509D01*
X-234116Y-158764D01*
X-234506Y-159005D01*
X-236763Y-161103D01*
X-236791Y-161142D01*
X-236831Y-161169D01*
X-237086Y-161551D01*
X-237355Y-161923D01*
X-237366Y-161969D01*
X-237393Y-162009D01*
X-237482Y-162459D01*
X-237588Y-162906D01*
X-237580Y-162953D01*
X-237590Y-163000D01*
Y-163217D01*
X-245141Y-170768D01*
X-246532Y-172849D01*
X-247020Y-175303D01*
X-246532Y-177757D01*
X-245141Y-179838D01*
X-239838Y-185141D01*
X-237757Y-186532D01*
X-235303Y-187020D01*
X-233978Y-186756D01*
X-233396Y-187935D01*
X-234209Y-188649D01*
X-234430Y-188937D01*
X-234681Y-189198D01*
X-234734Y-189335D01*
X-234824Y-189451D01*
X-234917Y-189802D01*
X-235049Y-190139D01*
X-235047Y-190286D01*
X-235084Y-190428D01*
X-235051Y-190678D01*
X-245141Y-200769D01*
X-246532Y-202849D01*
X-247020Y-205303D01*
X-246532Y-207757D01*
X-245141Y-209838D01*
X-239838Y-215141D01*
X-237757Y-216532D01*
X-235303Y-217020D01*
X-232849Y-216532D01*
X-232402Y-216233D01*
X-231592Y-217219D01*
X-245141Y-230768D01*
X-246532Y-232849D01*
X-247020Y-235303D01*
X-246532Y-237757D01*
X-245141Y-239838D01*
X-239838Y-245141D01*
X-237757Y-246532D01*
X-235303Y-247020D01*
X-232849Y-246532D01*
X-230768Y-245141D01*
X-222652Y-237025D01*
X-176237Y-216078D01*
X-175858Y-215807D01*
X-175471Y-215548D01*
X-175448Y-215514D01*
X-175415Y-215490D01*
X-175168Y-215095D01*
X-174910Y-214708D01*
X-174902Y-214668D01*
X-174880Y-214633D01*
X-174804Y-214174D01*
X-174713Y-213717D01*
Y-213430D01*
X-173593Y-212831D01*
X-173109Y-213154D01*
X-170850Y-213603D01*
X-164350D01*
X-162091Y-213154D01*
X-160176Y-211874D01*
X-160132Y-211809D01*
X-158604D01*
X-158258Y-212328D01*
X-156880Y-213248D01*
X-155255Y-213572D01*
X-152005D01*
X-150380Y-213248D01*
X-149394Y-212590D01*
X-147500D01*
X-147318Y-212554D01*
X-147134Y-212564D01*
X-42316Y-197590D01*
X-35000D01*
X-34009Y-197393D01*
X-33169Y-196831D01*
X-32459Y-196012D01*
X-31347Y-196165D01*
X-30150Y-196403D01*
X-23650D01*
X-21391Y-195954D01*
X-19476Y-194674D01*
X-19432Y-194609D01*
X-17904D01*
X-17567Y-195114D01*
X-17393Y-195991D01*
X-16831Y-196831D01*
X-15991Y-197393D01*
X-15000Y-197590D01*
X212500D01*
X213491Y-197393D01*
X214331Y-196831D01*
X214512Y-196560D01*
X215774Y-196005D01*
X216183Y-196012D01*
X218150Y-196403D01*
X224650D01*
X226909Y-195954D01*
X228640Y-194797D01*
X229255Y-194895D01*
X229962Y-195258D01*
X230107Y-195991D01*
X230669Y-196831D01*
X231509Y-197393D01*
X232500Y-197590D01*
X242354D01*
X397209Y-215073D01*
X397356Y-215061D01*
X397500Y-215090D01*
X407500D01*
X408491Y-214893D01*
X409331Y-214331D01*
X409496Y-214084D01*
X410091Y-213465D01*
X411222Y-213319D01*
X412650Y-213603D01*
X419150D01*
X421409Y-213154D01*
X423324Y-211874D01*
X424604Y-209959D01*
X425053Y-207700D01*
Y-197320D01*
X425808Y-196584D01*
X425816Y-196571D01*
X425830Y-196562D01*
X426102Y-196154D01*
X426379Y-195751D01*
X426382Y-195735D01*
X426391Y-195722D01*
X426487Y-195242D01*
X426588Y-194762D01*
X426585Y-194747D01*
X426588Y-194731D01*
Y-178330D01*
X426761Y-177460D01*
X427109Y-176939D01*
X427630Y-176591D01*
X428500Y-176418D01*
X431240D01*
X432110Y-176591D01*
X432631Y-176939D01*
X432979Y-177460D01*
X433152Y-178330D01*
Y-195922D01*
X433244Y-196387D01*
X433326Y-196855D01*
X433343Y-196882D01*
X433349Y-196913D01*
X433613Y-197308D01*
X433867Y-197709D01*
X433893Y-197727D01*
X433910Y-197753D01*
X434305Y-198017D01*
X434693Y-198290D01*
X434724Y-198297D01*
X434751Y-198314D01*
X435216Y-198407D01*
X435680Y-198511D01*
X438938Y-198589D01*
X439397Y-198509D01*
X439856Y-198444D01*
X439892Y-198423D01*
X439933Y-198416D01*
X440326Y-198167D01*
X440726Y-197930D01*
X440751Y-197897D01*
X440787Y-197875D01*
X441054Y-197494D01*
X441334Y-197123D01*
X441344Y-197082D01*
X441368Y-197048D01*
X441470Y-196594D01*
X441586Y-196144D01*
X442586Y-178219D01*
X442575Y-178141D01*
X442590Y-178063D01*
X442504Y-177643D01*
X442444Y-177219D01*
X442404Y-177151D01*
X442388Y-177073D01*
X442148Y-176718D01*
X441930Y-176349D01*
X441867Y-176301D01*
X441823Y-176235D01*
X339823Y-75160D01*
X339438Y-74906D01*
X339062Y-74638D01*
X339018Y-74628D01*
X338980Y-74603D01*
X338527Y-74515D01*
X338078Y-74411D01*
X335631Y-74338D01*
X335611Y-74341D01*
X335592Y-74337D01*
X335113Y-74425D01*
X334634Y-74505D01*
X334617Y-74516D01*
X334598Y-74519D01*
X334190Y-74783D01*
X333778Y-75041D01*
X333766Y-75057D01*
X333749Y-75068D01*
X332838Y-75953D01*
X332827Y-75969D01*
X332810Y-75980D01*
X332540Y-76384D01*
X332264Y-76784D01*
X332260Y-76803D01*
X332249Y-76820D01*
X332154Y-77296D01*
X332052Y-77772D01*
X332056Y-77792D01*
X332052Y-77811D01*
Y-91070D01*
X331879Y-91940D01*
X331531Y-92461D01*
X331010Y-92809D01*
X330140Y-92982D01*
X327400D01*
X326530Y-92809D01*
X326009Y-92461D01*
X325661Y-91940D01*
X325488Y-91070D01*
Y-76547D01*
X325397Y-76088D01*
X325320Y-75628D01*
X325299Y-75594D01*
X325291Y-75556D01*
X325032Y-75167D01*
X324784Y-74771D01*
X324752Y-74748D01*
X324730Y-74715D01*
X324341Y-74456D01*
X323961Y-74185D01*
X323953Y-74183D01*
Y-61700D01*
X323504Y-59441D01*
X322224Y-57526D01*
X320309Y-56246D01*
X318050Y-55797D01*
X311550D01*
X309291Y-56246D01*
X308625Y-56691D01*
X307152Y-56148D01*
X306831Y-55669D01*
X305991Y-55107D01*
X305000Y-54910D01*
X302756D01*
X218497Y-38058D01*
X218241Y-38058D01*
X217989Y-38008D01*
X217741Y-38058D01*
X217487Y-38057D01*
X217250Y-38155D01*
X216998Y-38205D01*
X216541Y-38395D01*
X215666D01*
X214857Y-38060D01*
X214499Y-37702D01*
X214289Y-37562D01*
X214109Y-37382D01*
X213873Y-37283D01*
X213659Y-37141D01*
X213410Y-37092D01*
X213176Y-36994D01*
X140508Y-22460D01*
X140252Y-22460D01*
X140000Y-22410D01*
D02*
G37*
%LPD*%
G36*
X112500Y-60000D02*
X107500D01*
X-45000Y-92500D01*
X-52500D01*
Y-57500D01*
X-45000D01*
X-11405Y-50340D01*
X-9850Y-50985D01*
X-7944D01*
X-6184Y-50255D01*
X-4878Y-48949D01*
X34248Y-40611D01*
X35150Y-40985D01*
X37056D01*
X38816Y-40255D01*
X39602Y-39470D01*
X79902Y-30882D01*
X80150Y-30984D01*
X82056D01*
X83816Y-30255D01*
X84081Y-29991D01*
X107500Y-25000D01*
X112500D01*
Y-60000D01*
D02*
G37*
G36*
X212668Y-39534D02*
X213390Y-40255D01*
X215150Y-40985D01*
X217056D01*
X217990Y-40598D01*
X302500Y-57500D01*
X305000D01*
Y-95000D01*
X297500D01*
X142500Y-60000D01*
X135000D01*
Y-25000D01*
X140000D01*
X212668Y-39534D01*
D02*
G37*
G36*
X132198Y-42009D02*
Y-58025D01*
X132410Y-59090D01*
Y-60000D01*
X132607Y-60991D01*
X133169Y-61831D01*
X134009Y-62393D01*
X135000Y-62590D01*
X142211D01*
X296930Y-97526D01*
X297218Y-97534D01*
X297500Y-97590D01*
X305000D01*
X305991Y-97393D01*
X306831Y-96831D01*
X307393Y-95991D01*
X307590Y-95000D01*
Y-76999D01*
X308501Y-76114D01*
X322898Y-76547D01*
Y-91325D01*
X323222Y-92950D01*
X324142Y-94328D01*
X325520Y-95248D01*
X327145Y-95572D01*
X330395D01*
X332020Y-95248D01*
X333398Y-94328D01*
X334318Y-92950D01*
X334642Y-91325D01*
Y-77811D01*
X335553Y-76926D01*
X338000Y-77000D01*
X440000Y-178075D01*
X439000Y-196000D01*
X435742Y-195922D01*
Y-178075D01*
X435418Y-176450D01*
X434498Y-175072D01*
X433120Y-174152D01*
X431495Y-173828D01*
X428245D01*
X426620Y-174152D01*
X425242Y-175072D01*
X424322Y-176450D01*
X423998Y-178075D01*
Y-194731D01*
X423090Y-195618D01*
X409336Y-195289D01*
Y-179955D01*
X409636Y-178451D01*
X409653Y-178425D01*
X409751Y-178189D01*
X409893Y-177977D01*
X409942Y-177727D01*
X410040Y-177491D01*
Y-177236D01*
X410090Y-176986D01*
Y-175000D01*
X409893Y-174009D01*
X409331Y-173169D01*
X408491Y-172607D01*
X407500Y-172410D01*
X400143D01*
X242786Y-154926D01*
X242642Y-154938D01*
X242500Y-154910D01*
X232500D01*
X231509Y-155107D01*
X230669Y-155669D01*
X230107Y-156509D01*
X229910Y-157500D01*
Y-159117D01*
X229822Y-159250D01*
X229498Y-160875D01*
Y-176818D01*
X228598Y-177714D01*
X214836Y-177654D01*
Y-162755D01*
X215040Y-161731D01*
Y-161476D01*
X215090Y-161226D01*
Y-157500D01*
X214893Y-156509D01*
X214331Y-155669D01*
X213491Y-155107D01*
X212500Y-154910D01*
X-15000D01*
X-15991Y-155107D01*
X-16831Y-155669D01*
X-17393Y-156509D01*
X-17590Y-157500D01*
Y-157920D01*
X-18478Y-159250D01*
X-18802Y-160875D01*
Y-175725D01*
X-19702Y-176621D01*
X-33464Y-176560D01*
Y-162755D01*
X-33165Y-161251D01*
X-32847Y-160776D01*
X-32749Y-160540D01*
X-32607Y-160328D01*
X-32558Y-160078D01*
X-32460Y-159842D01*
Y-159587D01*
X-32410Y-159337D01*
Y-157500D01*
X-32607Y-156509D01*
X-33169Y-155669D01*
X-34009Y-155107D01*
X-35000Y-154910D01*
X-42500D01*
X-42711Y-154952D01*
X-42926Y-154945D01*
X-147714Y-172410D01*
X-155000D01*
X-155991Y-172607D01*
X-156831Y-173169D01*
X-157393Y-174009D01*
X-157504Y-174569D01*
X-158258Y-175072D01*
X-159178Y-176450D01*
X-159502Y-178075D01*
Y-198110D01*
X-173809Y-198301D01*
X-174713Y-197409D01*
Y-174613D01*
X-174910Y-173622D01*
X-175471Y-172782D01*
X-176311Y-172220D01*
X-177302Y-172023D01*
X-179453D01*
X-179902Y-170835D01*
X-116734Y-115127D01*
X-116684Y-115062D01*
X-116615Y-115016D01*
X-116379Y-114662D01*
X-116121Y-114324D01*
X-116100Y-114244D01*
X-116054Y-114176D01*
X-115762Y-113471D01*
X-115143Y-112852D01*
X-114037Y-112394D01*
X-113914Y-112378D01*
X-113843Y-112336D01*
X-113762Y-112320D01*
X-113408Y-112084D01*
X-113041Y-111870D01*
X-92977Y-94176D01*
X-82480Y-93756D01*
X-82098Y-94328D01*
X-80720Y-95248D01*
X-79095Y-95572D01*
X-75845D01*
X-74220Y-95248D01*
X-72842Y-94328D01*
X-71922Y-92950D01*
X-71901Y-92846D01*
X-71844Y-92797D01*
X-71516Y-92558D01*
X-71462Y-92471D01*
X-71384Y-92404D01*
X-70598Y-91407D01*
X-70552Y-91315D01*
X-70479Y-91243D01*
X-70324Y-90868D01*
X-70140Y-90506D01*
X-70132Y-90404D01*
X-70093Y-90309D01*
Y-89903D01*
X-70085Y-89809D01*
X-70064Y-89700D01*
Y-89532D01*
X-70061Y-89499D01*
X-70064Y-89491D01*
Y-74430D01*
X-55402D01*
Y-91325D01*
X-55078Y-92950D01*
X-54967Y-93117D01*
X-54893Y-93491D01*
X-54331Y-94331D01*
X-53491Y-94893D01*
X-53237Y-94943D01*
X-52780Y-95248D01*
X-51155Y-95572D01*
X-47905D01*
X-46280Y-95248D01*
X-46042Y-95090D01*
X-45000D01*
X-44733Y-95037D01*
X-44460Y-95033D01*
X107773Y-62590D01*
X112500D01*
X113491Y-62393D01*
X114331Y-61831D01*
X114893Y-60991D01*
X114939Y-60756D01*
X115678Y-59650D01*
X116002Y-58025D01*
Y-41861D01*
X116929Y-40993D01*
X132198Y-42009D01*
D02*
G37*
G36*
X-173857Y-114833D02*
X-174489Y-116048D01*
X-175499Y-116019D01*
X-181520Y-117041D01*
X-182936Y-117581D01*
X-184038Y-118622D01*
X-184658Y-120005D01*
X-184701Y-121520D01*
X-184160Y-122936D01*
X-183119Y-124038D01*
X-181736Y-124658D01*
X-180221Y-124701D01*
X-174200Y-123679D01*
X-172783Y-123139D01*
X-171682Y-122098D01*
X-171062Y-120715D01*
X-171044Y-120067D01*
X-169760Y-119613D01*
X-166000Y-124000D01*
X-225399Y-176904D01*
X-226658Y-176737D01*
X-235000Y-164000D01*
Y-163000D01*
X-232743Y-160901D01*
X-231184Y-160255D01*
X-229836Y-158908D01*
X-229358Y-157754D01*
X-179059Y-110985D01*
X-177944D01*
X-177363Y-110744D01*
X-173857Y-114833D01*
D02*
G37*
G36*
X212500Y-161226D02*
X212247Y-162500D01*
Y-190500D01*
X212500Y-191774D01*
Y-195000D01*
X-15000D01*
Y-157500D01*
X212500D01*
Y-161226D01*
D02*
G37*
G36*
X-72470Y-53994D02*
X-70032Y-53168D01*
X-69000Y-53907D01*
Y-56244D01*
X-69009Y-56246D01*
X-70924Y-57526D01*
X-72204Y-59441D01*
X-72653Y-61700D01*
Y-89700D01*
X-72633Y-89804D01*
X-73419Y-90802D01*
X-94000Y-91625D01*
X-114753Y-109928D01*
X-114850D01*
X-116610Y-110657D01*
X-117958Y-112004D01*
X-118447Y-113185D01*
X-221784Y-204319D01*
X-223045Y-204167D01*
X-232500Y-190595D01*
X-76000Y-53125D01*
X-72470Y-53994D01*
D02*
G37*
G36*
X-35000Y-159337D02*
X-35604Y-160241D01*
X-36053Y-162500D01*
Y-190500D01*
X-35604Y-192759D01*
X-35000Y-193663D01*
Y-195000D01*
X-42500D01*
X-147500Y-210000D01*
X-155000D01*
Y-175000D01*
X-147500D01*
X-42500Y-157500D01*
X-35000D01*
Y-159337D01*
D02*
G37*
G36*
X400000Y-175000D02*
X407500D01*
Y-176986D01*
X407196Y-177441D01*
X406747Y-179700D01*
Y-207700D01*
X407196Y-209959D01*
X407500Y-210414D01*
Y-212500D01*
X397500D01*
X242500Y-195000D01*
X232500D01*
Y-157500D01*
X242500D01*
X400000Y-175000D01*
D02*
G37*
G36*
X-177302Y-213717D02*
X-228933Y-237019D01*
X-230000Y-236329D01*
Y-222500D01*
X-195341Y-184451D01*
X-184185Y-174613D01*
X-177302D01*
Y-213717D01*
D02*
G37*
D11*
X-63500Y-75700D02*
D03*
X124100Y-42400D02*
D03*
X314800Y-75700D02*
D03*
X-167600Y-193700D02*
D03*
X221400Y-176500D02*
D03*
X-26900D02*
D03*
X415900Y-193700D02*
D03*
D12*
X-77470Y-75700D02*
D03*
X-49530D02*
D03*
X110130Y-42400D02*
D03*
X138070D02*
D03*
X300830Y-75700D02*
D03*
X328770D02*
D03*
X-181570Y-193700D02*
D03*
X-153630D02*
D03*
X207430Y-176500D02*
D03*
X235370D02*
D03*
X-40870D02*
D03*
X-12930D02*
D03*
X401930Y-193700D02*
D03*
X429870D02*
D03*
D17*
X124000Y-129000D02*
D03*
D18*
X0Y0D02*
D03*
X248291D02*
D03*
D19*
X-188897Y-214718D02*
D03*
X-198897Y-194718D02*
D03*
X-193897Y-204718D02*
D03*
X-198897Y-214718D02*
D03*
X-203897Y-204718D02*
D03*
X-208897Y-214718D02*
D03*
X-88897Y-74718D02*
D03*
X-93897Y-84718D02*
D03*
X-103897D02*
D03*
X-108897Y-94718D02*
D03*
X-118897D02*
D03*
X-113897Y-104718D02*
D03*
X-123897D02*
D03*
X-128897Y-114718D02*
D03*
X-138897D02*
D03*
X-143897Y-124718D02*
D03*
X-148897Y-134718D02*
D03*
X-153897Y-124718D02*
D03*
X-158897Y-134718D02*
D03*
X-163897Y-144718D02*
D03*
X-173897D02*
D03*
X-178897Y-154718D02*
D03*
X-183897Y-164718D02*
D03*
X-193897D02*
D03*
X-198897Y-174718D02*
D03*
X-208897D02*
D03*
X-203897Y-184718D02*
D03*
X-213897D02*
D03*
X401103Y-164718D02*
D03*
X396103Y-154718D02*
D03*
X391103Y-164718D02*
D03*
X381103Y-144718D02*
D03*
X386103Y-154718D02*
D03*
X381103Y-164718D02*
D03*
X376103Y-134718D02*
D03*
X371103Y-144718D02*
D03*
X376103Y-154718D02*
D03*
X371103Y-164718D02*
D03*
X361103Y-124718D02*
D03*
X366103Y-134718D02*
D03*
X361103Y-144718D02*
D03*
X366103Y-154718D02*
D03*
X361103Y-164718D02*
D03*
X356103Y-114718D02*
D03*
X351103Y-124718D02*
D03*
X356103Y-134718D02*
D03*
X351103Y-144718D02*
D03*
X356103Y-154718D02*
D03*
X341103Y-104718D02*
D03*
X346103Y-114718D02*
D03*
X341103Y-124718D02*
D03*
X346103Y-134718D02*
D03*
X341103Y-144718D02*
D03*
X346103Y-154718D02*
D03*
X331103Y-104718D02*
D03*
X336103Y-114718D02*
D03*
X331103Y-124718D02*
D03*
X336103Y-134718D02*
D03*
X331103Y-144718D02*
D03*
X336103Y-154718D02*
D03*
X321103Y-104718D02*
D03*
X326103Y-114718D02*
D03*
X321103Y-124718D02*
D03*
X326103Y-134718D02*
D03*
X321103Y-144718D02*
D03*
X326103Y-154718D02*
D03*
X311103Y-104718D02*
D03*
X316103Y-114718D02*
D03*
X311103Y-124718D02*
D03*
X316103Y-134718D02*
D03*
X311103Y-144718D02*
D03*
X316103Y-154718D02*
D03*
X301103Y-104718D02*
D03*
X306103Y-114718D02*
D03*
X301103Y-124718D02*
D03*
X306103Y-134718D02*
D03*
X301103Y-144718D02*
D03*
X306103Y-154718D02*
D03*
X291103Y-104718D02*
D03*
X296103Y-114718D02*
D03*
X291103Y-124718D02*
D03*
X296103Y-134718D02*
D03*
X291103Y-144718D02*
D03*
X296103Y-154718D02*
D03*
X281103Y-104718D02*
D03*
X286103Y-114718D02*
D03*
X281103Y-124718D02*
D03*
X286103Y-134718D02*
D03*
X281103Y-144718D02*
D03*
X286103Y-154718D02*
D03*
X271103Y-104718D02*
D03*
X276103Y-114718D02*
D03*
X271103Y-124718D02*
D03*
X276103Y-134718D02*
D03*
X271103Y-144718D02*
D03*
X276103Y-154718D02*
D03*
X266103Y-94718D02*
D03*
X261103Y-104718D02*
D03*
X266103Y-114718D02*
D03*
X261103Y-124718D02*
D03*
X266103Y-134718D02*
D03*
X261103Y-144718D02*
D03*
X266103Y-154718D02*
D03*
X256103Y-94718D02*
D03*
X251103Y-104718D02*
D03*
X256103Y-114718D02*
D03*
X251103Y-124718D02*
D03*
X256103Y-134718D02*
D03*
X251103Y-144718D02*
D03*
X246103Y-94718D02*
D03*
X241103Y-104718D02*
D03*
X246103Y-114718D02*
D03*
X241103Y-124718D02*
D03*
X246103Y-134718D02*
D03*
X241103Y-144718D02*
D03*
X236103Y-94718D02*
D03*
X231103Y-104718D02*
D03*
X236103Y-114718D02*
D03*
X231103Y-124718D02*
D03*
X236103Y-134718D02*
D03*
X231103Y-144718D02*
D03*
X221103Y-84718D02*
D03*
X226103Y-94718D02*
D03*
X221103Y-104718D02*
D03*
X226103Y-114718D02*
D03*
X221103Y-124718D02*
D03*
X226103Y-134718D02*
D03*
X221103Y-144718D02*
D03*
X226103Y-154718D02*
D03*
X211103Y-84718D02*
D03*
X216103Y-94718D02*
D03*
X211103Y-104718D02*
D03*
X216103Y-114718D02*
D03*
X211103Y-124718D02*
D03*
X216103Y-134718D02*
D03*
X211103Y-144718D02*
D03*
X201103Y-84718D02*
D03*
X206103Y-94718D02*
D03*
X201103Y-104718D02*
D03*
X206103Y-114718D02*
D03*
X201103Y-124718D02*
D03*
X206103Y-134718D02*
D03*
X201103Y-144718D02*
D03*
X191103Y-84718D02*
D03*
X196103Y-94718D02*
D03*
X191103Y-104718D02*
D03*
X196103Y-114718D02*
D03*
X191103Y-124718D02*
D03*
X196103Y-134718D02*
D03*
X191103Y-144718D02*
D03*
X181103Y-84718D02*
D03*
X186103Y-94718D02*
D03*
X181103Y-104718D02*
D03*
X186103Y-114718D02*
D03*
X181103Y-124718D02*
D03*
X186103Y-134718D02*
D03*
X181103Y-144718D02*
D03*
X176103Y-74718D02*
D03*
X171103Y-84718D02*
D03*
X176103Y-94718D02*
D03*
X171103Y-104718D02*
D03*
X176103Y-114718D02*
D03*
X171103Y-124718D02*
D03*
X176103Y-134718D02*
D03*
X171103Y-144718D02*
D03*
X166103Y-74718D02*
D03*
X161103Y-84718D02*
D03*
X166103Y-94718D02*
D03*
X161103Y-104718D02*
D03*
X166103Y-114718D02*
D03*
X161103Y-124718D02*
D03*
X166103Y-134718D02*
D03*
X161103Y-144718D02*
D03*
X156103Y-74718D02*
D03*
X151103Y-84718D02*
D03*
X156103Y-94718D02*
D03*
X151103Y-104718D02*
D03*
X156103Y-114718D02*
D03*
Y-134718D02*
D03*
X151103Y-144718D02*
D03*
X146103Y-74718D02*
D03*
X141103Y-84718D02*
D03*
X146103Y-94718D02*
D03*
X141103Y-104718D02*
D03*
X131103Y-64717D02*
D03*
X136103Y-74718D02*
D03*
X131103Y-84718D02*
D03*
X136103Y-94718D02*
D03*
X121103Y-64717D02*
D03*
X126103Y-74718D02*
D03*
X121103Y-84718D02*
D03*
X126103Y-94718D02*
D03*
X116103Y-74718D02*
D03*
X111103Y-84718D02*
D03*
X116103Y-94718D02*
D03*
X106103Y-74718D02*
D03*
X101103Y-84718D02*
D03*
X106103Y-94718D02*
D03*
X101103Y-104718D02*
D03*
X96103Y-74718D02*
D03*
X91103Y-84718D02*
D03*
X96103Y-94718D02*
D03*
X91103Y-104718D02*
D03*
X96103Y-114718D02*
D03*
X91103Y-124718D02*
D03*
Y-144718D02*
D03*
X86103Y-74718D02*
D03*
X81103Y-84718D02*
D03*
X86103Y-94718D02*
D03*
X81103Y-104718D02*
D03*
X86103Y-114718D02*
D03*
X81103Y-124718D02*
D03*
X86103Y-134718D02*
D03*
X81103Y-144718D02*
D03*
X76103Y-74718D02*
D03*
X71103Y-84718D02*
D03*
X76103Y-94718D02*
D03*
X71103Y-104718D02*
D03*
X76103Y-114718D02*
D03*
X71103Y-124718D02*
D03*
X76103Y-134718D02*
D03*
X71103Y-144718D02*
D03*
X66103Y-74718D02*
D03*
X61103Y-84718D02*
D03*
X66103Y-94718D02*
D03*
X61103Y-104718D02*
D03*
X66103Y-114718D02*
D03*
X61103Y-124718D02*
D03*
X66103Y-134718D02*
D03*
X61103Y-144718D02*
D03*
X51103Y-84718D02*
D03*
X56103Y-94718D02*
D03*
X51103Y-104718D02*
D03*
X56103Y-114718D02*
D03*
X51103Y-124718D02*
D03*
X56103Y-134718D02*
D03*
X51103Y-144718D02*
D03*
X41103Y-84718D02*
D03*
X46103Y-94718D02*
D03*
X41103Y-104718D02*
D03*
X46103Y-114718D02*
D03*
X41103Y-124718D02*
D03*
X46103Y-134718D02*
D03*
X41103Y-144718D02*
D03*
X31103Y-84718D02*
D03*
X36103Y-94718D02*
D03*
X31103Y-104718D02*
D03*
X36103Y-114718D02*
D03*
X31103Y-124718D02*
D03*
X36103Y-134718D02*
D03*
X31103Y-144718D02*
D03*
X21103Y-84718D02*
D03*
X26103Y-94718D02*
D03*
X21103Y-104718D02*
D03*
X26103Y-114718D02*
D03*
X21103Y-124718D02*
D03*
X26103Y-134718D02*
D03*
X21103Y-144718D02*
D03*
X16103Y-94718D02*
D03*
X11103Y-104718D02*
D03*
X16103Y-114718D02*
D03*
X11103Y-124718D02*
D03*
X16103Y-134718D02*
D03*
X11103Y-144718D02*
D03*
X6103Y-94718D02*
D03*
X1103Y-104718D02*
D03*
X6103Y-114718D02*
D03*
X1103Y-124718D02*
D03*
X6103Y-134718D02*
D03*
X1103Y-144718D02*
D03*
X-3897Y-94718D02*
D03*
X-8897Y-104718D02*
D03*
X-3897Y-114718D02*
D03*
X-8897Y-124718D02*
D03*
X-3897Y-134718D02*
D03*
X-8897Y-144718D02*
D03*
X-13897Y-94718D02*
D03*
X-18897Y-104718D02*
D03*
X-13897Y-114718D02*
D03*
X-18897Y-124718D02*
D03*
X-13897Y-134718D02*
D03*
X-18897Y-144718D02*
D03*
X-23897Y-94718D02*
D03*
X-28897Y-104718D02*
D03*
X-23897Y-114718D02*
D03*
X-28897Y-124718D02*
D03*
X-23897Y-134718D02*
D03*
X-28897Y-144718D02*
D03*
X-23897Y-154718D02*
D03*
X-38897Y-104718D02*
D03*
X-33897Y-114718D02*
D03*
X-38897Y-124718D02*
D03*
X-33897Y-134718D02*
D03*
X-38897Y-144718D02*
D03*
X-48897Y-104718D02*
D03*
X-43897Y-114718D02*
D03*
X-48897Y-124718D02*
D03*
X-43897Y-134718D02*
D03*
X-48897Y-144718D02*
D03*
X-58897Y-104718D02*
D03*
X-53897Y-114718D02*
D03*
X-58897Y-124718D02*
D03*
X-53897Y-134718D02*
D03*
X-58897Y-144718D02*
D03*
X-68897Y-104718D02*
D03*
X-63897Y-114718D02*
D03*
X-68897Y-124718D02*
D03*
X-63897Y-134718D02*
D03*
X-68897Y-144718D02*
D03*
X-63897Y-154718D02*
D03*
X-78897Y-104718D02*
D03*
X-73897Y-114718D02*
D03*
X-78897Y-124718D02*
D03*
X-73897Y-134718D02*
D03*
X-78897Y-144718D02*
D03*
X-73897Y-154718D02*
D03*
X-88897Y-104718D02*
D03*
X-83897Y-114718D02*
D03*
X-88897Y-124718D02*
D03*
X-83897Y-134718D02*
D03*
X-88897Y-144718D02*
D03*
X-83897Y-154718D02*
D03*
X-98897Y-104718D02*
D03*
X-93897Y-114718D02*
D03*
X-98897Y-124718D02*
D03*
X-93897Y-134718D02*
D03*
X-98897Y-144718D02*
D03*
X-93897Y-154718D02*
D03*
X-103897Y-114718D02*
D03*
X-108897Y-124718D02*
D03*
X-103897Y-134718D02*
D03*
X-108897Y-144718D02*
D03*
X-103897Y-154718D02*
D03*
X-113897Y-114718D02*
D03*
X-118897Y-124718D02*
D03*
X-113897Y-134718D02*
D03*
X-118897Y-144718D02*
D03*
X-113897Y-154718D02*
D03*
X-118897Y-164718D02*
D03*
X-123897Y-134718D02*
D03*
X-128897Y-144718D02*
D03*
X-123897Y-154718D02*
D03*
X-128897Y-164718D02*
D03*
X-133897Y-134718D02*
D03*
X-138897Y-144718D02*
D03*
X-133897Y-154718D02*
D03*
X-138897Y-164718D02*
D03*
X-143897Y-154718D02*
D03*
X-148897Y-164718D02*
D03*
X-153897Y-154718D02*
D03*
X-158897Y-164718D02*
D03*
X-168897D02*
D03*
X521103Y-186195D02*
D03*
X526103Y-196195D02*
D03*
X521103Y-206195D02*
D03*
X526103Y-216195D02*
D03*
X521103Y-226195D02*
D03*
X511103Y-186195D02*
D03*
X516103Y-196195D02*
D03*
X511103Y-206195D02*
D03*
X516103Y-216195D02*
D03*
X511103Y-226195D02*
D03*
X516103Y-236195D02*
D03*
X511103Y-246195D02*
D03*
X501103Y-166195D02*
D03*
X506103Y-176195D02*
D03*
X501103Y-186195D02*
D03*
X506103Y-196195D02*
D03*
X501103Y-206195D02*
D03*
X506103Y-216195D02*
D03*
X501103Y-226195D02*
D03*
X506103Y-236195D02*
D03*
X501103Y-246195D02*
D03*
X491103Y-166195D02*
D03*
X496103Y-176195D02*
D03*
X491103Y-186195D02*
D03*
X496103Y-196195D02*
D03*
X491103Y-206195D02*
D03*
X496103Y-216195D02*
D03*
X491103Y-226195D02*
D03*
X496103Y-236195D02*
D03*
X491103Y-246195D02*
D03*
X481103Y-146195D02*
D03*
X486103Y-156195D02*
D03*
X481103Y-166195D02*
D03*
X486103Y-176195D02*
D03*
X481103Y-186195D02*
D03*
X486103Y-196195D02*
D03*
X481103Y-206195D02*
D03*
X486103Y-216195D02*
D03*
X481103Y-226195D02*
D03*
X486103Y-236195D02*
D03*
X481103Y-246195D02*
D03*
X471103Y-146195D02*
D03*
X476103Y-156195D02*
D03*
X471103Y-166195D02*
D03*
X476103Y-176195D02*
D03*
X471103Y-186195D02*
D03*
X476103Y-196195D02*
D03*
X471103Y-206195D02*
D03*
X476103Y-216195D02*
D03*
X471103Y-226195D02*
D03*
X476103Y-236195D02*
D03*
X471103Y-246195D02*
D03*
X466103Y-136195D02*
D03*
X461103Y-146195D02*
D03*
X466103Y-156195D02*
D03*
X461103Y-166195D02*
D03*
X466103Y-176195D02*
D03*
X461103Y-186195D02*
D03*
X466103Y-196195D02*
D03*
X461103Y-206195D02*
D03*
X466103Y-216195D02*
D03*
X461103Y-226195D02*
D03*
X466103Y-236195D02*
D03*
X461103Y-246195D02*
D03*
X451103Y-126195D02*
D03*
X456103Y-136195D02*
D03*
X451103Y-146195D02*
D03*
X456103Y-156195D02*
D03*
X451103Y-166195D02*
D03*
X456103Y-176195D02*
D03*
X451103Y-186195D02*
D03*
X456103Y-196195D02*
D03*
X451103Y-206195D02*
D03*
X456103Y-216195D02*
D03*
X451103Y-226195D02*
D03*
X456103Y-236195D02*
D03*
X451103Y-246195D02*
D03*
X446103Y-116195D02*
D03*
X441103Y-126195D02*
D03*
X446103Y-136195D02*
D03*
X441103Y-146195D02*
D03*
X446103Y-156195D02*
D03*
X441103Y-166195D02*
D03*
X446103Y-176195D02*
D03*
Y-196195D02*
D03*
X441103Y-206195D02*
D03*
X446103Y-216195D02*
D03*
X441103Y-226195D02*
D03*
X446103Y-236195D02*
D03*
X441103Y-246195D02*
D03*
X431103Y-106195D02*
D03*
X436103Y-116195D02*
D03*
X431103Y-126195D02*
D03*
X436103Y-136195D02*
D03*
X431103Y-146195D02*
D03*
X436103Y-156195D02*
D03*
X431103Y-206195D02*
D03*
X436103Y-216195D02*
D03*
X431103Y-226195D02*
D03*
X436103Y-236195D02*
D03*
X431103Y-246195D02*
D03*
X426103Y-96195D02*
D03*
X421103Y-106195D02*
D03*
X426103Y-116195D02*
D03*
X421103Y-126195D02*
D03*
X426103Y-136195D02*
D03*
X421103Y-146195D02*
D03*
X426103Y-156195D02*
D03*
Y-216195D02*
D03*
X421103Y-226195D02*
D03*
X426103Y-236195D02*
D03*
X421103Y-246195D02*
D03*
X411103Y-86195D02*
D03*
X416103Y-96195D02*
D03*
X411103Y-106195D02*
D03*
X416103Y-116195D02*
D03*
X411103Y-126195D02*
D03*
X416103Y-136195D02*
D03*
Y-216195D02*
D03*
X411103Y-226195D02*
D03*
X416103Y-236195D02*
D03*
X411103Y-246195D02*
D03*
X401103Y-86195D02*
D03*
X406103Y-96195D02*
D03*
X401103Y-106195D02*
D03*
X406103Y-116195D02*
D03*
X401103Y-126195D02*
D03*
X406103Y-136195D02*
D03*
X401103Y-226195D02*
D03*
X406103Y-236195D02*
D03*
X391103Y-66195D02*
D03*
X396103Y-76195D02*
D03*
X391103Y-86195D02*
D03*
X396103Y-96195D02*
D03*
X391103Y-106195D02*
D03*
X396103Y-116195D02*
D03*
X391103Y-226195D02*
D03*
X396103Y-236195D02*
D03*
X381103Y-66195D02*
D03*
X386103Y-76195D02*
D03*
X381103Y-86195D02*
D03*
X386103Y-96195D02*
D03*
X381103Y-106195D02*
D03*
X386103Y-116195D02*
D03*
X381103Y-226195D02*
D03*
X386103Y-236195D02*
D03*
X371103Y-46195D02*
D03*
X376103Y-56195D02*
D03*
X371103Y-66195D02*
D03*
X376103Y-76195D02*
D03*
X371103Y-86195D02*
D03*
X376103Y-96195D02*
D03*
Y-216195D02*
D03*
X371103Y-226195D02*
D03*
X376103Y-236195D02*
D03*
X361103Y-46195D02*
D03*
X366103Y-56195D02*
D03*
X361103Y-66195D02*
D03*
X366103Y-76195D02*
D03*
X361103Y-86195D02*
D03*
X366103Y-96195D02*
D03*
Y-216195D02*
D03*
X361103Y-226195D02*
D03*
X366103Y-236195D02*
D03*
X356103Y-36195D02*
D03*
X351103Y-46195D02*
D03*
X356103Y-56195D02*
D03*
X351103Y-66195D02*
D03*
X356103Y-76195D02*
D03*
Y-216195D02*
D03*
X351103Y-226195D02*
D03*
X356103Y-236195D02*
D03*
X341103Y-26195D02*
D03*
X346103Y-36195D02*
D03*
X341103Y-46195D02*
D03*
X346103Y-56195D02*
D03*
X341103Y-66195D02*
D03*
X346103Y-76195D02*
D03*
Y-216195D02*
D03*
X341103Y-226195D02*
D03*
X346103Y-236195D02*
D03*
X336103Y-16195D02*
D03*
X331103Y-26195D02*
D03*
X336103Y-36195D02*
D03*
X331103Y-46195D02*
D03*
X336103Y-56195D02*
D03*
X331103Y-66195D02*
D03*
X336103Y-216195D02*
D03*
X331103Y-226195D02*
D03*
X336103Y-236195D02*
D03*
X321103Y-6195D02*
D03*
X326103Y-16195D02*
D03*
X321103Y-26195D02*
D03*
X326103Y-36195D02*
D03*
X321103Y-46195D02*
D03*
X326103Y-56195D02*
D03*
Y-216195D02*
D03*
X321103Y-226195D02*
D03*
X326103Y-236195D02*
D03*
X316103Y3805D02*
D03*
X311103Y-6195D02*
D03*
X316103Y-16195D02*
D03*
X311103Y-26195D02*
D03*
X316103Y-36195D02*
D03*
X311103Y-46195D02*
D03*
X316103Y-216195D02*
D03*
X311103Y-226195D02*
D03*
X316103Y-236195D02*
D03*
X301103Y13806D02*
D03*
X306103Y3805D02*
D03*
X301103Y-6195D02*
D03*
X306103Y-16195D02*
D03*
X301103Y-26195D02*
D03*
X306103Y-36195D02*
D03*
X301103Y-46195D02*
D03*
X306103Y-216195D02*
D03*
X301103Y-226195D02*
D03*
X306103Y-236195D02*
D03*
X291103Y13806D02*
D03*
X296103Y3805D02*
D03*
X291103Y-6195D02*
D03*
X296103Y-16195D02*
D03*
X291103Y-26195D02*
D03*
X296103Y-36195D02*
D03*
X291103Y-46195D02*
D03*
Y-206195D02*
D03*
X296103Y-216195D02*
D03*
X291103Y-226195D02*
D03*
X286103Y23805D02*
D03*
X281103Y13806D02*
D03*
X286103Y3805D02*
D03*
X281103Y-6195D02*
D03*
X286103Y-16195D02*
D03*
X281103Y-26195D02*
D03*
X286103Y-36195D02*
D03*
X281103Y-46195D02*
D03*
Y-206195D02*
D03*
X286103Y-216195D02*
D03*
X281103Y-226195D02*
D03*
X276103Y23805D02*
D03*
X271103Y13806D02*
D03*
X276103Y3805D02*
D03*
Y-16195D02*
D03*
X271103Y-26195D02*
D03*
X276103Y-36195D02*
D03*
X271103Y-46195D02*
D03*
Y-206195D02*
D03*
X276103Y-216195D02*
D03*
X271103Y-226195D02*
D03*
X261103Y33805D02*
D03*
X266103Y23805D02*
D03*
X261103Y-26195D02*
D03*
X266103Y-36195D02*
D03*
X261103Y-206195D02*
D03*
X266103Y-216195D02*
D03*
X261103Y-226195D02*
D03*
X251103Y33805D02*
D03*
X256103Y23805D02*
D03*
X251103Y-26195D02*
D03*
X256103Y-36195D02*
D03*
X251103Y-206195D02*
D03*
X256103Y-216195D02*
D03*
X251103Y-226195D02*
D03*
X241103Y33805D02*
D03*
Y-26195D02*
D03*
X246103Y-36195D02*
D03*
X241103Y-206195D02*
D03*
X246103Y-216195D02*
D03*
X241103Y-226195D02*
D03*
X236103Y43805D02*
D03*
X231103Y33805D02*
D03*
X236103Y23805D02*
D03*
X231103Y-26195D02*
D03*
X236103Y-36195D02*
D03*
X231103Y-206195D02*
D03*
X236103Y-216195D02*
D03*
X231103Y-226195D02*
D03*
X226103Y43805D02*
D03*
X221103Y33805D02*
D03*
X226103Y23805D02*
D03*
X221103Y13806D02*
D03*
Y-6195D02*
D03*
X226103Y-16195D02*
D03*
X221103Y-26195D02*
D03*
X226103Y-36195D02*
D03*
X221103Y-206195D02*
D03*
X226103Y-216195D02*
D03*
X221103Y-226195D02*
D03*
X216103Y43805D02*
D03*
X211103Y33805D02*
D03*
X216103Y23805D02*
D03*
X211103Y13806D02*
D03*
X216103Y3805D02*
D03*
X211103Y-6195D02*
D03*
X216103Y-16195D02*
D03*
X211103Y-26195D02*
D03*
X216103Y-36195D02*
D03*
X211103Y-206195D02*
D03*
X216103Y-216195D02*
D03*
X211103Y-226195D02*
D03*
X206103Y43805D02*
D03*
X201103Y33805D02*
D03*
X206103Y23805D02*
D03*
X201103Y13806D02*
D03*
X206103Y3805D02*
D03*
X201103Y-6195D02*
D03*
X206103Y-16195D02*
D03*
X201103Y-26195D02*
D03*
Y-206195D02*
D03*
X206103Y-216195D02*
D03*
X201103Y-226195D02*
D03*
X196103Y43805D02*
D03*
X191103Y33805D02*
D03*
X196103Y23805D02*
D03*
X191103Y13806D02*
D03*
X196103Y3805D02*
D03*
X191103Y-6195D02*
D03*
X196103Y-16195D02*
D03*
X191103Y-26195D02*
D03*
Y-206195D02*
D03*
X196103Y-216195D02*
D03*
X191103Y-226195D02*
D03*
X186103Y43805D02*
D03*
X181103Y33805D02*
D03*
X186103Y23805D02*
D03*
X181103Y13806D02*
D03*
X186103Y3805D02*
D03*
X181103Y-6195D02*
D03*
X186103Y-16195D02*
D03*
X181103Y-26195D02*
D03*
Y-206195D02*
D03*
X186103Y-216195D02*
D03*
X181103Y-226195D02*
D03*
X176103Y43805D02*
D03*
X171103Y33805D02*
D03*
X176103Y23805D02*
D03*
X171103Y13806D02*
D03*
X176103Y3805D02*
D03*
X171103Y-6195D02*
D03*
X176103Y-16195D02*
D03*
X171103Y-26195D02*
D03*
Y-206195D02*
D03*
X176103Y-216195D02*
D03*
X171103Y-226195D02*
D03*
X166103Y43805D02*
D03*
X161103Y33805D02*
D03*
X166103Y23805D02*
D03*
X161103Y13806D02*
D03*
X166103Y3805D02*
D03*
X161103Y-6195D02*
D03*
X166103Y-16195D02*
D03*
X161103Y-206195D02*
D03*
X166103Y-216195D02*
D03*
X161103Y-226195D02*
D03*
X156103Y43805D02*
D03*
X151103Y33805D02*
D03*
X156103Y23805D02*
D03*
X151103Y13806D02*
D03*
X156103Y3805D02*
D03*
X151103Y-6195D02*
D03*
X156103Y-16195D02*
D03*
X151103Y-206195D02*
D03*
X156103Y-216195D02*
D03*
X151103Y-226195D02*
D03*
X146103Y43805D02*
D03*
X141103Y33805D02*
D03*
X146103Y23805D02*
D03*
X141103Y13806D02*
D03*
X146103Y3805D02*
D03*
X141103Y-6195D02*
D03*
X146103Y-16195D02*
D03*
X141103Y-206195D02*
D03*
X146103Y-216195D02*
D03*
X141103Y-226195D02*
D03*
X136103Y43805D02*
D03*
X131103Y33805D02*
D03*
X136103Y23805D02*
D03*
X131103Y13806D02*
D03*
X136103Y3805D02*
D03*
X131103Y-6195D02*
D03*
X136103Y-16195D02*
D03*
X131103Y-206195D02*
D03*
X136103Y-216195D02*
D03*
X131103Y-226195D02*
D03*
X126103Y43805D02*
D03*
X121103Y33805D02*
D03*
X126103Y23805D02*
D03*
X121103Y13806D02*
D03*
X126103Y3805D02*
D03*
X121103Y-6195D02*
D03*
X126103Y-16195D02*
D03*
X121103Y-206195D02*
D03*
X126103Y-216195D02*
D03*
X121103Y-226195D02*
D03*
X116103Y43805D02*
D03*
X111103Y33805D02*
D03*
X116103Y23805D02*
D03*
X111103Y13806D02*
D03*
X116103Y3805D02*
D03*
X111103Y-6195D02*
D03*
X116103Y-16195D02*
D03*
X111103Y-206195D02*
D03*
X116103Y-216195D02*
D03*
X111103Y-226195D02*
D03*
X106103Y43805D02*
D03*
X101103Y33805D02*
D03*
X106103Y23805D02*
D03*
X101103Y13806D02*
D03*
X106103Y3805D02*
D03*
X101103Y-6195D02*
D03*
X106103Y-16195D02*
D03*
X101103Y-206195D02*
D03*
X106103Y-216195D02*
D03*
X101103Y-226195D02*
D03*
X96103Y43805D02*
D03*
X91103Y33805D02*
D03*
X96103Y23805D02*
D03*
X91103Y13806D02*
D03*
X96103Y3805D02*
D03*
X91103Y-6195D02*
D03*
X96103Y-16195D02*
D03*
X91103Y-206195D02*
D03*
X96103Y-216195D02*
D03*
X91103Y-226195D02*
D03*
X86103Y43805D02*
D03*
X81103Y33805D02*
D03*
X86103Y23805D02*
D03*
X81103Y13806D02*
D03*
X86103Y3805D02*
D03*
X81103Y-6195D02*
D03*
X86103Y-16195D02*
D03*
X81103Y-26195D02*
D03*
Y-206195D02*
D03*
X86103Y-216195D02*
D03*
X81103Y-226195D02*
D03*
X76103Y43805D02*
D03*
X71103Y33805D02*
D03*
X76103Y23805D02*
D03*
X71103Y13806D02*
D03*
X76103Y3805D02*
D03*
X71103Y-6195D02*
D03*
X76103Y-16195D02*
D03*
X71103Y-26195D02*
D03*
Y-206195D02*
D03*
X76103Y-216195D02*
D03*
X71103Y-226195D02*
D03*
X66103Y43805D02*
D03*
X61103Y33805D02*
D03*
X66103Y23805D02*
D03*
X61103Y13806D02*
D03*
X66103Y3805D02*
D03*
X61103Y-6195D02*
D03*
X66103Y-16195D02*
D03*
X61103Y-26195D02*
D03*
Y-206195D02*
D03*
X66103Y-216195D02*
D03*
X61103Y-226195D02*
D03*
X56103Y43805D02*
D03*
X51103Y33805D02*
D03*
X56103Y23805D02*
D03*
X51103Y13806D02*
D03*
X56103Y3805D02*
D03*
X51103Y-6195D02*
D03*
X56103Y-16195D02*
D03*
X51103Y-26195D02*
D03*
Y-206195D02*
D03*
X56103Y-216195D02*
D03*
X51103Y-226195D02*
D03*
X46103Y43805D02*
D03*
X41103Y33805D02*
D03*
X46103Y23805D02*
D03*
X41103Y13806D02*
D03*
X46103Y3805D02*
D03*
X41103Y-6195D02*
D03*
X46103Y-16195D02*
D03*
X41103Y-26195D02*
D03*
Y-206195D02*
D03*
X46103Y-216195D02*
D03*
X41103Y-226195D02*
D03*
X36103Y43805D02*
D03*
X31103Y33805D02*
D03*
X36103Y23805D02*
D03*
X31103Y13806D02*
D03*
X36103Y3805D02*
D03*
X31103Y-6195D02*
D03*
X36103Y-16195D02*
D03*
X31103Y-26195D02*
D03*
X36103Y-36195D02*
D03*
X31103Y-206195D02*
D03*
X36103Y-216195D02*
D03*
X31103Y-226195D02*
D03*
X26103Y43805D02*
D03*
X21103Y33805D02*
D03*
X26103Y23805D02*
D03*
X21103Y13806D02*
D03*
X26103Y3805D02*
D03*
Y-16195D02*
D03*
X21103Y-26195D02*
D03*
X26103Y-36195D02*
D03*
X21103Y-206195D02*
D03*
X26103Y-216195D02*
D03*
X21103Y-226195D02*
D03*
X16103Y43805D02*
D03*
X11103Y33805D02*
D03*
X16103Y23805D02*
D03*
X11103Y-26195D02*
D03*
X16103Y-36195D02*
D03*
X11103Y-206195D02*
D03*
X16103Y-216195D02*
D03*
X11103Y-226195D02*
D03*
X1103Y33805D02*
D03*
Y-26195D02*
D03*
X6103Y-36195D02*
D03*
X1103Y-206195D02*
D03*
X6103Y-216195D02*
D03*
X1103Y-226195D02*
D03*
X-8897Y33805D02*
D03*
Y-26195D02*
D03*
X-3897Y-36195D02*
D03*
X-8897Y-46195D02*
D03*
Y-206195D02*
D03*
X-3897Y-216195D02*
D03*
X-8897Y-226195D02*
D03*
X-13897Y23805D02*
D03*
X-18897Y-26195D02*
D03*
X-13897Y-36195D02*
D03*
X-18897Y-46195D02*
D03*
Y-206195D02*
D03*
X-13897Y-216195D02*
D03*
X-18897Y-226195D02*
D03*
X-23897Y23805D02*
D03*
X-28897Y13806D02*
D03*
Y-6195D02*
D03*
X-23897Y-16195D02*
D03*
X-28897Y-26195D02*
D03*
X-23897Y-36195D02*
D03*
X-28897Y-46195D02*
D03*
Y-206195D02*
D03*
X-23897Y-216195D02*
D03*
X-28897Y-226195D02*
D03*
X-33897Y23805D02*
D03*
X-38897Y13806D02*
D03*
X-33897Y3805D02*
D03*
X-38897Y-6195D02*
D03*
X-33897Y-16195D02*
D03*
X-38897Y-26195D02*
D03*
X-33897Y-36195D02*
D03*
X-38897Y-46195D02*
D03*
Y-206195D02*
D03*
X-33897Y-216195D02*
D03*
X-38897Y-226195D02*
D03*
X-48897Y13806D02*
D03*
X-43897Y3805D02*
D03*
X-48897Y-6195D02*
D03*
X-43897Y-16195D02*
D03*
X-48897Y-26195D02*
D03*
X-43897Y-36195D02*
D03*
X-48897Y-46195D02*
D03*
Y-206195D02*
D03*
X-43897Y-216195D02*
D03*
X-48897Y-226195D02*
D03*
X-53897Y3805D02*
D03*
X-58897Y-6195D02*
D03*
X-53897Y-16195D02*
D03*
X-58897Y-26195D02*
D03*
X-53897Y-36195D02*
D03*
X-58897Y-46195D02*
D03*
Y-206195D02*
D03*
X-53897Y-216195D02*
D03*
X-58897Y-226195D02*
D03*
X-53897Y-236195D02*
D03*
X-63897Y3805D02*
D03*
X-68897Y-6195D02*
D03*
X-63897Y-16195D02*
D03*
X-68897Y-26195D02*
D03*
X-63897Y-36195D02*
D03*
X-68897Y-46195D02*
D03*
Y-206195D02*
D03*
X-63897Y-216195D02*
D03*
X-68897Y-226195D02*
D03*
X-63897Y-236195D02*
D03*
X-73897Y-16195D02*
D03*
X-78897Y-26195D02*
D03*
X-73897Y-36195D02*
D03*
X-78897Y-46195D02*
D03*
Y-206195D02*
D03*
X-73897Y-216195D02*
D03*
X-78897Y-226195D02*
D03*
X-73897Y-236195D02*
D03*
X-83897Y-16195D02*
D03*
X-88897Y-26195D02*
D03*
X-83897Y-36195D02*
D03*
X-88897Y-46195D02*
D03*
X-83897Y-216195D02*
D03*
X-88897Y-226195D02*
D03*
X-83897Y-236195D02*
D03*
X-98897Y-26195D02*
D03*
X-93897Y-36195D02*
D03*
X-98897Y-46195D02*
D03*
X-93897Y-56195D02*
D03*
X-98897Y-66195D02*
D03*
X-93897Y-216195D02*
D03*
X-98897Y-226195D02*
D03*
X-93897Y-236195D02*
D03*
X-103897Y-36195D02*
D03*
X-108897Y-46195D02*
D03*
X-103897Y-56195D02*
D03*
X-108897Y-66195D02*
D03*
X-103897Y-216195D02*
D03*
X-108897Y-226195D02*
D03*
X-103897Y-236195D02*
D03*
X-118897Y-46195D02*
D03*
X-113897Y-56195D02*
D03*
X-118897Y-66195D02*
D03*
X-113897Y-76195D02*
D03*
Y-216195D02*
D03*
X-118897Y-226195D02*
D03*
X-113897Y-236195D02*
D03*
X-123897Y-56195D02*
D03*
X-128897Y-66195D02*
D03*
X-123897Y-76195D02*
D03*
X-128897Y-86195D02*
D03*
X-123897Y-216195D02*
D03*
X-128897Y-226195D02*
D03*
X-123897Y-236195D02*
D03*
X-138897Y-66195D02*
D03*
X-133897Y-76195D02*
D03*
X-138897Y-86195D02*
D03*
X-133897Y-96195D02*
D03*
Y-216195D02*
D03*
X-138897Y-226195D02*
D03*
X-133897Y-236195D02*
D03*
X-143897Y-76195D02*
D03*
X-148897Y-86195D02*
D03*
X-143897Y-96195D02*
D03*
X-148897Y-106195D02*
D03*
X-143897Y-216195D02*
D03*
X-148897Y-226195D02*
D03*
X-143897Y-236195D02*
D03*
X-153897Y-76195D02*
D03*
X-158897Y-86195D02*
D03*
X-153897Y-96195D02*
D03*
X-158897Y-106195D02*
D03*
X-153897Y-216195D02*
D03*
X-158897Y-226195D02*
D03*
X-153897Y-236195D02*
D03*
X-158897Y-246195D02*
D03*
X-163897Y-96195D02*
D03*
X-168897Y-106195D02*
D03*
X-163897Y-216195D02*
D03*
X-168897Y-226195D02*
D03*
X-163897Y-236195D02*
D03*
X-168897Y-246195D02*
D03*
X-173897Y-96195D02*
D03*
X-178897Y-106195D02*
D03*
Y-226195D02*
D03*
X-173897Y-236195D02*
D03*
X-178897Y-246195D02*
D03*
X-188897Y-226195D02*
D03*
X-183897Y-236195D02*
D03*
X-188897Y-246195D02*
D03*
X-193897Y-116195D02*
D03*
Y-236195D02*
D03*
X-198897Y-246195D02*
D03*
X-208897Y-126195D02*
D03*
X-203897Y-236195D02*
D03*
X-208897Y-246195D02*
D03*
X-213897Y-136195D02*
D03*
Y-236195D02*
D03*
X-218897Y-246195D02*
D03*
X-228897Y-146195D02*
D03*
X-233897Y-156195D02*
D03*
X-248897Y-166195D02*
D03*
Y-186195D02*
D03*
X-243897Y-196195D02*
D03*
Y-216195D02*
D03*
X-248897Y-226195D02*
D03*
Y-246195D02*
D03*
X-253897Y-176195D02*
D03*
X-258897Y-186195D02*
D03*
X-253897Y-196195D02*
D03*
X-258897Y-206195D02*
D03*
X-253897Y-216195D02*
D03*
X-258897Y-226195D02*
D03*
X-253897Y-236195D02*
D03*
X-258897Y-246195D02*
D03*
X-268897Y-186195D02*
D03*
X-263897Y-196195D02*
D03*
X-268897Y-206195D02*
D03*
X-263897Y-216195D02*
D03*
X-268897Y-226195D02*
D03*
X-263897Y-236195D02*
D03*
X-58897Y-164718D02*
D03*
X-53897Y-174718D02*
D03*
X-58897Y-184718D02*
D03*
X-68897Y-164718D02*
D03*
X-63897Y-174718D02*
D03*
X-68897Y-184718D02*
D03*
X-63897Y-194718D02*
D03*
X-73897Y-174718D02*
D03*
X-78897Y-184718D02*
D03*
X-73897Y-194718D02*
D03*
X-83897Y-174718D02*
D03*
X-88897Y-184718D02*
D03*
X-83897Y-194718D02*
D03*
X-93897Y-174718D02*
D03*
X-98897Y-184718D02*
D03*
X-93897Y-194718D02*
D03*
X-103897Y-174718D02*
D03*
X-108897Y-184718D02*
D03*
X-103897Y-194718D02*
D03*
X-113897Y-174718D02*
D03*
X-118897Y-184718D02*
D03*
X-113897Y-194718D02*
D03*
X-123897Y-174718D02*
D03*
X-128897Y-184718D02*
D03*
X-123897Y-194718D02*
D03*
X-138897Y-184718D02*
D03*
X-133897Y-194718D02*
D03*
X-138897Y-204718D02*
D03*
X-143897Y-194718D02*
D03*
X191103Y-164718D02*
D03*
X196103Y-174718D02*
D03*
X191103Y-184718D02*
D03*
X181103Y-164718D02*
D03*
X186103Y-174718D02*
D03*
X181103Y-184718D02*
D03*
X171103Y-164718D02*
D03*
X176103Y-174718D02*
D03*
X171103Y-184718D02*
D03*
X161103Y-164718D02*
D03*
X166103Y-174718D02*
D03*
X161103Y-184718D02*
D03*
X151103Y-164718D02*
D03*
X156103Y-174718D02*
D03*
X151103Y-184718D02*
D03*
X141103Y-164718D02*
D03*
X146103Y-174718D02*
D03*
X141103Y-184718D02*
D03*
X131103Y-164718D02*
D03*
X136103Y-174718D02*
D03*
X131103Y-184718D02*
D03*
X121103Y-164718D02*
D03*
X126103Y-174718D02*
D03*
X121103Y-184718D02*
D03*
X111103Y-164718D02*
D03*
X116103Y-174718D02*
D03*
X111103Y-184718D02*
D03*
X101103Y-164718D02*
D03*
X106103Y-174718D02*
D03*
X101103Y-184718D02*
D03*
X91103Y-164718D02*
D03*
X96103Y-174718D02*
D03*
X91103Y-184718D02*
D03*
X81103Y-164718D02*
D03*
X86103Y-174718D02*
D03*
X81103Y-184718D02*
D03*
X71103Y-164718D02*
D03*
X76103Y-174718D02*
D03*
X71103Y-184718D02*
D03*
X61103Y-164718D02*
D03*
X66103Y-174718D02*
D03*
X61103Y-184718D02*
D03*
X51103Y-164718D02*
D03*
X56103Y-174718D02*
D03*
X51103Y-184718D02*
D03*
X41103Y-164718D02*
D03*
X46103Y-174718D02*
D03*
X41103Y-184718D02*
D03*
X31103Y-164718D02*
D03*
X36103Y-174718D02*
D03*
X31103Y-184718D02*
D03*
X21103Y-164718D02*
D03*
X26103Y-174718D02*
D03*
X21103Y-184718D02*
D03*
X11103Y-164718D02*
D03*
X16103Y-174718D02*
D03*
X11103Y-184718D02*
D03*
X1103Y-164718D02*
D03*
X6103Y-174718D02*
D03*
X1103Y-184718D02*
D03*
X-3897Y-174718D02*
D03*
X391103Y-184718D02*
D03*
Y-204718D02*
D03*
X381103Y-184718D02*
D03*
X386103Y-194718D02*
D03*
X381103Y-204718D02*
D03*
X371103Y-184718D02*
D03*
X376103Y-194718D02*
D03*
X371103Y-204718D02*
D03*
X366103Y-174718D02*
D03*
X361103Y-184718D02*
D03*
X366103Y-194718D02*
D03*
X361103Y-204718D02*
D03*
X356103Y-174718D02*
D03*
X351103Y-184718D02*
D03*
X356103Y-194718D02*
D03*
X351103Y-204718D02*
D03*
X346103Y-174718D02*
D03*
X341103Y-184718D02*
D03*
X346103Y-194718D02*
D03*
X336103Y-174718D02*
D03*
X331103Y-184718D02*
D03*
X336103Y-194718D02*
D03*
X326103Y-174718D02*
D03*
X321103Y-184718D02*
D03*
X326103Y-194718D02*
D03*
X316103Y-174718D02*
D03*
X311103Y-184718D02*
D03*
X316103Y-194718D02*
D03*
X306103Y-174718D02*
D03*
X301103Y-184718D02*
D03*
X306103Y-194718D02*
D03*
X296103Y-174718D02*
D03*
X291103Y-184718D02*
D03*
X296103Y-194718D02*
D03*
X281103Y-164718D02*
D03*
X286103Y-174718D02*
D03*
X281103Y-184718D02*
D03*
X286103Y-194718D02*
D03*
X271103Y-164718D02*
D03*
X276103Y-174718D02*
D03*
X271103Y-184718D02*
D03*
X276103Y-194718D02*
D03*
X261103Y-164718D02*
D03*
X266103Y-174718D02*
D03*
X261103Y-184718D02*
D03*
X266103Y-194718D02*
D03*
X251103Y-164718D02*
D03*
X256103Y-174718D02*
D03*
X251103Y-184718D02*
D03*
X246103Y-174718D02*
D03*
X101103Y-44717D02*
D03*
X96103Y-34718D02*
D03*
X91103Y-44717D02*
D03*
X96103Y-54717D02*
D03*
X86103Y-34718D02*
D03*
X81103Y-44717D02*
D03*
X86103Y-54717D02*
D03*
X76103Y-34718D02*
D03*
X71103Y-44717D02*
D03*
X76103Y-54717D02*
D03*
X71103Y-64717D02*
D03*
X61103Y-44717D02*
D03*
X66103Y-54717D02*
D03*
X61103Y-64717D02*
D03*
X51103Y-44717D02*
D03*
X56103Y-54717D02*
D03*
X51103Y-64717D02*
D03*
X41103Y-44717D02*
D03*
X46103Y-54717D02*
D03*
X41103Y-64717D02*
D03*
X31103Y-44717D02*
D03*
X36103Y-54717D02*
D03*
X31103Y-64717D02*
D03*
X26103Y-54717D02*
D03*
X21103Y-64717D02*
D03*
X26103Y-74718D02*
D03*
X16103Y-54717D02*
D03*
X11103Y-64717D02*
D03*
X16103Y-74718D02*
D03*
X6103Y-54717D02*
D03*
X1103Y-64717D02*
D03*
X6103Y-74718D02*
D03*
X-3897Y-54717D02*
D03*
X-8897Y-64717D02*
D03*
X-3897Y-74718D02*
D03*
X-13897Y-54717D02*
D03*
X-18897Y-64717D02*
D03*
X-13897Y-74718D02*
D03*
X-28897Y-64717D02*
D03*
X-23897Y-74718D02*
D03*
X-28897Y-84718D02*
D03*
X-38897Y-64717D02*
D03*
X-33897Y-74718D02*
D03*
X-38897Y-84718D02*
D03*
X291103Y-64717D02*
D03*
Y-84718D02*
D03*
X281103Y-64717D02*
D03*
X286103Y-74718D02*
D03*
X281103Y-84718D02*
D03*
X276103Y-54717D02*
D03*
X271103Y-64717D02*
D03*
X276103Y-74718D02*
D03*
X271103Y-84718D02*
D03*
X266103Y-54717D02*
D03*
X261103Y-64717D02*
D03*
X266103Y-74718D02*
D03*
X256103Y-54717D02*
D03*
X251103Y-64717D02*
D03*
X256103Y-74718D02*
D03*
X246103Y-54717D02*
D03*
X241103Y-64717D02*
D03*
X246103Y-74718D02*
D03*
X236103Y-54717D02*
D03*
X231103Y-64717D02*
D03*
X236103Y-74718D02*
D03*
X221103Y-44717D02*
D03*
X226103Y-54717D02*
D03*
X221103Y-64717D02*
D03*
X226103Y-74718D02*
D03*
X211103Y-44717D02*
D03*
X216103Y-54717D02*
D03*
X211103Y-64717D02*
D03*
X201103Y-44717D02*
D03*
X206103Y-54717D02*
D03*
X201103Y-64717D02*
D03*
X191103Y-44717D02*
D03*
X196103Y-54717D02*
D03*
X191103Y-64717D02*
D03*
X181103Y-44717D02*
D03*
X186103Y-54717D02*
D03*
X181103Y-64717D02*
D03*
X176103Y-34718D02*
D03*
X171103Y-44717D02*
D03*
X176103Y-54717D02*
D03*
X166103Y-34718D02*
D03*
X161103Y-44717D02*
D03*
X166103Y-54717D02*
D03*
X156103Y-34718D02*
D03*
X151103Y-44717D02*
D03*
X156103Y-54717D02*
D03*
D20*
X-230000Y-230000D02*
D03*
Y-200000D02*
D03*
Y-170000D02*
D03*
D21*
X-160000Y-105000D02*
D03*
X-174849Y-119849D02*
D03*
D22*
X-180871Y-120871D02*
X-174849Y-119849D01*
M02*
