G04*
G04 #@! TF.GenerationSoftware,Altium Limited,Altium Designer,23.9.2 (47)*
G04*
G04 Layer_Color=65535*
%FSLAX44Y44*%
%MOMM*%
G71*
G04*
G04 #@! TF.SameCoordinates,A89998BD-DD6A-42FD-B223-A906B6295702*
G04*
G04*
G04 #@! TF.FilePolarity,Positive*
G04*
G01*
G75*
%ADD10C,0.1000*%
%ADD11C,0.2000*%
%ADD12C,0.2540*%
G36*
X286429Y31183D02*
X286874Y31146D01*
X287392Y31072D01*
X287985Y30887D01*
X288614Y30665D01*
X289170Y30331D01*
X289688Y29887D01*
X289725Y29813D01*
X289873Y29665D01*
X290058Y29331D01*
X290318Y28924D01*
X290540Y28405D01*
X290725Y27739D01*
X290873Y26998D01*
X290910Y26109D01*
Y15888D01*
Y15851D01*
Y15777D01*
X290836Y15592D01*
X290762Y15444D01*
X290651Y15370D01*
X290503Y15296D01*
X290281Y15259D01*
X287503D01*
X287281Y15333D01*
X287170Y15407D01*
X287059Y15518D01*
X286985Y15666D01*
X286948Y15888D01*
Y25924D01*
Y25961D01*
Y26072D01*
X286911Y26258D01*
Y26480D01*
X286763Y26924D01*
X286688Y27146D01*
X286540Y27332D01*
Y27369D01*
X286466Y27406D01*
X286355Y27480D01*
X286207Y27554D01*
X286022Y27628D01*
X285763Y27702D01*
X285466Y27776D01*
X284170D01*
X284022Y27739D01*
X283652Y27665D01*
X283281Y27480D01*
X282874Y27183D01*
X282689Y26998D01*
X282504Y26776D01*
X282356Y26480D01*
X282282Y26147D01*
X282208Y25776D01*
X282171Y25369D01*
Y15888D01*
Y15851D01*
Y15777D01*
X282096Y15592D01*
X282022Y15444D01*
X281874Y15370D01*
X281726Y15296D01*
X281504Y15259D01*
X278763D01*
X278541Y15333D01*
X278430Y15407D01*
X278319Y15518D01*
X278245Y15666D01*
X278208Y15888D01*
Y25924D01*
Y25961D01*
Y26072D01*
X278171Y26258D01*
Y26480D01*
X278023Y26924D01*
X277912Y27146D01*
X277764Y27332D01*
Y27369D01*
X277689Y27406D01*
X277578Y27480D01*
X277430Y27554D01*
X277245Y27628D01*
X276986Y27702D01*
X276689Y27776D01*
X275208D01*
X275060Y27739D01*
X274690Y27665D01*
X274319Y27480D01*
X273912Y27183D01*
X273727Y26998D01*
X273542Y26776D01*
X273394Y26517D01*
X273319Y26184D01*
X273246Y25813D01*
X273208Y25406D01*
Y15888D01*
Y15851D01*
Y15777D01*
X273134Y15592D01*
X273060Y15444D01*
X272949Y15370D01*
X272801Y15296D01*
X272579Y15259D01*
X269801D01*
X269579Y15333D01*
X269468Y15407D01*
X269357Y15518D01*
X269283Y15666D01*
X269246Y15888D01*
Y30553D01*
Y30591D01*
Y30665D01*
X269320Y30887D01*
X269394Y30998D01*
X269542Y31109D01*
X269690Y31183D01*
X269912Y31220D01*
X272690D01*
X272912Y31146D01*
X273023Y31072D01*
X273097Y30924D01*
X273171Y30776D01*
X273208Y30553D01*
Y29516D01*
X273357D01*
X273394Y29553D01*
X273431Y29665D01*
X273505Y29776D01*
X273653Y29961D01*
X273838Y30146D01*
X274060Y30368D01*
X274319Y30553D01*
X274616Y30739D01*
X274653Y30776D01*
X274764Y30813D01*
X274949Y30887D01*
X275208Y30998D01*
X275504Y31072D01*
X275875Y31146D01*
X276245Y31183D01*
X276689Y31220D01*
X277801D01*
X277986Y31183D01*
X278208Y31146D01*
X278467Y31109D01*
X279060Y30961D01*
X279689Y30739D01*
X280356Y30368D01*
X280652Y30146D01*
X280948Y29887D01*
X281245Y29591D01*
X281467Y29220D01*
Y29257D01*
X281504Y29294D01*
X281689Y29516D01*
X281948Y29850D01*
X282319Y30220D01*
X282837Y30591D01*
X283467Y30924D01*
X284244Y31146D01*
X284652Y31183D01*
X285133Y31220D01*
X286244D01*
X286429Y31183D01*
D02*
G37*
G36*
X261432D02*
X261876Y31146D01*
X262395Y31072D01*
X262987Y30887D01*
X263617Y30665D01*
X264172Y30331D01*
X264691Y29887D01*
X264728Y29813D01*
X264876Y29665D01*
X265061Y29331D01*
X265320Y28924D01*
X265543Y28405D01*
X265728Y27739D01*
X265876Y26998D01*
X265913Y26109D01*
Y15888D01*
Y15851D01*
Y15777D01*
X265839Y15592D01*
X265765Y15444D01*
X265654Y15370D01*
X265506Y15296D01*
X265283Y15259D01*
X262506D01*
X262284Y15333D01*
X262173Y15407D01*
X262061Y15518D01*
X261987Y15666D01*
X261950Y15888D01*
Y25924D01*
Y25961D01*
Y26072D01*
X261913Y26258D01*
Y26480D01*
X261765Y26924D01*
X261691Y27146D01*
X261543Y27332D01*
Y27369D01*
X261469Y27406D01*
X261358Y27480D01*
X261210Y27554D01*
X261024Y27628D01*
X260765Y27702D01*
X260469Y27776D01*
X259173D01*
X259025Y27739D01*
X258654Y27665D01*
X258284Y27480D01*
X257877Y27183D01*
X257691Y26998D01*
X257506Y26776D01*
X257358Y26480D01*
X257284Y26147D01*
X257210Y25776D01*
X257173Y25369D01*
Y15888D01*
Y15851D01*
Y15777D01*
X257099Y15592D01*
X257025Y15444D01*
X256877Y15370D01*
X256729Y15296D01*
X256506Y15259D01*
X253766D01*
X253544Y15333D01*
X253433Y15407D01*
X253322Y15518D01*
X253248Y15666D01*
X253211Y15888D01*
Y25924D01*
Y25961D01*
Y26072D01*
X253174Y26258D01*
Y26480D01*
X253025Y26924D01*
X252914Y27146D01*
X252766Y27332D01*
Y27369D01*
X252692Y27406D01*
X252581Y27480D01*
X252433Y27554D01*
X252248Y27628D01*
X251988Y27702D01*
X251692Y27776D01*
X250211D01*
X250063Y27739D01*
X249692Y27665D01*
X249322Y27480D01*
X248915Y27183D01*
X248729Y26998D01*
X248544Y26776D01*
X248396Y26517D01*
X248322Y26184D01*
X248248Y25813D01*
X248211Y25406D01*
Y15888D01*
Y15851D01*
Y15777D01*
X248137Y15592D01*
X248063Y15444D01*
X247952Y15370D01*
X247804Y15296D01*
X247581Y15259D01*
X244804D01*
X244582Y15333D01*
X244471Y15407D01*
X244360Y15518D01*
X244286Y15666D01*
X244249Y15888D01*
Y30553D01*
Y30591D01*
Y30665D01*
X244322Y30887D01*
X244397Y30998D01*
X244545Y31109D01*
X244693Y31183D01*
X244915Y31220D01*
X247693D01*
X247915Y31146D01*
X248026Y31072D01*
X248100Y30924D01*
X248174Y30776D01*
X248211Y30553D01*
Y29516D01*
X248359D01*
X248396Y29553D01*
X248433Y29665D01*
X248507Y29776D01*
X248655Y29961D01*
X248841Y30146D01*
X249063Y30368D01*
X249322Y30553D01*
X249618Y30739D01*
X249655Y30776D01*
X249766Y30813D01*
X249952Y30887D01*
X250211Y30998D01*
X250507Y31072D01*
X250877Y31146D01*
X251248Y31183D01*
X251692Y31220D01*
X252803D01*
X252988Y31183D01*
X253211Y31146D01*
X253470Y31109D01*
X254062Y30961D01*
X254692Y30739D01*
X255358Y30368D01*
X255655Y30146D01*
X255951Y29887D01*
X256247Y29591D01*
X256469Y29220D01*
Y29257D01*
X256506Y29294D01*
X256692Y29516D01*
X256951Y29850D01*
X257321Y30220D01*
X257840Y30591D01*
X258469Y30924D01*
X259247Y31146D01*
X259654Y31183D01*
X260136Y31220D01*
X261247D01*
X261432Y31183D01*
D02*
G37*
G36*
X163738Y35331D02*
X163960D01*
X164183Y35294D01*
X164738Y35220D01*
X165368Y35034D01*
X165997Y34812D01*
X166627Y34479D01*
X167182Y34035D01*
X167256Y33960D01*
X167405Y33775D01*
X167627Y33479D01*
X167886Y33072D01*
X168108Y32516D01*
X168330Y31887D01*
X168479Y31109D01*
X168553Y30257D01*
Y29665D01*
Y29628D01*
Y29553D01*
X168479Y29331D01*
X168405Y29220D01*
X168293Y29109D01*
X168145Y29035D01*
X167923Y28998D01*
X165145D01*
X164923Y29072D01*
X164812Y29146D01*
X164701Y29294D01*
X164627Y29442D01*
X164590Y29665D01*
Y29850D01*
Y29887D01*
Y30035D01*
X164553Y30257D01*
X164516Y30516D01*
X164405Y31072D01*
X164257Y31294D01*
X164109Y31479D01*
X164072Y31516D01*
X164035Y31553D01*
X163886Y31627D01*
X163738Y31702D01*
X163516Y31776D01*
X163220Y31850D01*
X162850Y31924D01*
X160961D01*
X160739Y31887D01*
X160479Y31850D01*
X159887Y31739D01*
X159628Y31590D01*
X159442Y31442D01*
Y31405D01*
X159368Y31331D01*
X159294Y31220D01*
X159220Y31035D01*
X159146Y30776D01*
X159072Y30442D01*
X159035Y30035D01*
X158998Y29553D01*
Y28961D01*
Y28887D01*
X159035Y28739D01*
X159146Y28480D01*
X159331Y28183D01*
X159442Y28035D01*
X159628Y27887D01*
X159813Y27739D01*
X160072Y27628D01*
X160368Y27517D01*
X160702Y27406D01*
X161109Y27332D01*
X161553Y27257D01*
X161664D01*
X161813Y27220D01*
X161998D01*
X162220Y27183D01*
X162516Y27146D01*
X163146Y27035D01*
X163886Y26924D01*
X164664Y26739D01*
X165479Y26517D01*
X166294Y26221D01*
X166331Y26184D01*
X166479Y26109D01*
X166664Y25998D01*
X166923Y25813D01*
X167219Y25591D01*
X167516Y25295D01*
X167812Y24924D01*
X168108Y24517D01*
X168145Y24480D01*
X168219Y24295D01*
X168330Y24036D01*
X168479Y23702D01*
X168627Y23258D01*
X168738Y22739D01*
X168812Y22110D01*
X168849Y21443D01*
Y20369D01*
Y20332D01*
Y20258D01*
Y20147D01*
X168812Y19962D01*
X168775Y19518D01*
X168664Y18999D01*
X168516Y18369D01*
X168256Y17740D01*
X167923Y17147D01*
X167479Y16592D01*
X167405Y16518D01*
X167219Y16370D01*
X166923Y16185D01*
X166479Y15925D01*
X165960Y15666D01*
X165294Y15481D01*
X164516Y15333D01*
X163664Y15259D01*
X159998D01*
X159813Y15296D01*
X159368Y15333D01*
X158813Y15444D01*
X158220Y15592D01*
X157591Y15814D01*
X156961Y16148D01*
X156406Y16592D01*
X156332Y16666D01*
X156184Y16851D01*
X155961Y17147D01*
X155739Y17555D01*
X155480Y18110D01*
X155258Y18740D01*
X155110Y19518D01*
X155035Y20369D01*
Y20999D01*
Y21036D01*
Y21110D01*
X155110Y21332D01*
X155184Y21443D01*
X155332Y21554D01*
X155480Y21628D01*
X155702Y21665D01*
X158480D01*
X158702Y21591D01*
X158813Y21517D01*
X158887Y21369D01*
X158961Y21221D01*
X158998Y20999D01*
Y20740D01*
Y20703D01*
Y20554D01*
X159035Y20332D01*
X159072Y20110D01*
X159220Y19555D01*
X159331Y19295D01*
X159480Y19110D01*
X159516D01*
X159591Y19036D01*
X159702Y18999D01*
X159887Y18925D01*
X160109Y18851D01*
X160405Y18777D01*
X160776Y18740D01*
X161220Y18703D01*
X162850D01*
X163072Y18740D01*
X163331Y18777D01*
X163886Y18888D01*
X164146Y18999D01*
X164368Y19147D01*
X164405Y19184D01*
X164442Y19258D01*
X164516Y19369D01*
X164627Y19555D01*
X164738Y19777D01*
X164812Y20110D01*
X164849Y20480D01*
X164886Y20925D01*
Y21295D01*
Y21332D01*
Y21443D01*
X164849Y21591D01*
X164812Y21814D01*
X164701Y22036D01*
X164590Y22258D01*
X164405Y22480D01*
X164146Y22665D01*
X164109Y22702D01*
X163997Y22739D01*
X163849Y22850D01*
X163627Y22925D01*
X163368Y23036D01*
X163072Y23147D01*
X162701Y23221D01*
X162294Y23258D01*
X162257D01*
X162109Y23295D01*
X161887D01*
X161590Y23332D01*
X161257Y23406D01*
X160850Y23480D01*
X160405Y23554D01*
X159924Y23628D01*
X159887D01*
X159702Y23665D01*
X159480Y23739D01*
X159146Y23813D01*
X158776Y23925D01*
X158406Y24036D01*
X157554Y24295D01*
X157517Y24332D01*
X157369Y24369D01*
X157183Y24517D01*
X156924Y24665D01*
X156628Y24887D01*
X156332Y25184D01*
X156035Y25554D01*
X155739Y25961D01*
X155702Y26035D01*
X155628Y26184D01*
X155517Y26480D01*
X155369Y26850D01*
X155221Y27294D01*
X155110Y27850D01*
X155035Y28442D01*
X154998Y29146D01*
Y30257D01*
Y30294D01*
Y30368D01*
Y30479D01*
X155035Y30665D01*
X155072Y31109D01*
X155184Y31664D01*
X155332Y32257D01*
X155591Y32887D01*
X155924Y33479D01*
X156369Y34035D01*
X156443Y34109D01*
X156628Y34257D01*
X156961Y34442D01*
X157369Y34701D01*
X157924Y34960D01*
X158591Y35145D01*
X159368Y35294D01*
X160220Y35368D01*
X163553D01*
X163738Y35331D01*
D02*
G37*
G36*
X306464Y31146D02*
X306575Y31035D01*
X306686Y30924D01*
X306723Y30739D01*
Y30516D01*
X302909Y15259D01*
Y15222D01*
X302872Y15148D01*
X302835Y15000D01*
X302761Y14851D01*
X302687Y14629D01*
X302613Y14370D01*
X302391Y13814D01*
X302094Y13148D01*
X301724Y12518D01*
X301280Y11889D01*
X300761Y11333D01*
X300687Y11259D01*
X300502Y11111D01*
X300169Y10926D01*
X299724Y10667D01*
X299169Y10407D01*
X298502Y10222D01*
X297724Y10074D01*
X296836Y10000D01*
X294725D01*
X294540Y10074D01*
X294391Y10148D01*
X294317Y10296D01*
X294243Y10444D01*
X294206Y10667D01*
Y12778D01*
Y12815D01*
Y12889D01*
X294280Y13111D01*
X294354Y13222D01*
X294466Y13333D01*
X294614Y13407D01*
X294836Y13444D01*
X295836D01*
X296169Y13481D01*
X296576Y13518D01*
X297021Y13592D01*
X297465Y13666D01*
X297836Y13814D01*
X298169Y14000D01*
X298206Y14037D01*
X298280Y14111D01*
X298428Y14259D01*
X298576Y14481D01*
X298724Y14740D01*
X298909Y15111D01*
X299095Y15555D01*
X299243Y16073D01*
X297502D01*
X297280Y16148D01*
X297132Y16222D01*
X297021Y16370D01*
X296873Y16518D01*
X296799Y16740D01*
X293132Y30553D01*
Y30591D01*
Y30665D01*
Y30887D01*
X293169Y30998D01*
X293243Y31109D01*
X293391Y31183D01*
X293614Y31220D01*
X296502D01*
X296724Y31146D01*
X296873Y31072D01*
X296984Y30924D01*
X297132Y30776D01*
X297206Y30553D01*
X299872Y18999D01*
X300021D01*
X302687Y30553D01*
Y30591D01*
X302724Y30665D01*
X302835Y30887D01*
X302909Y30998D01*
X303057Y31109D01*
X303242Y31183D01*
X303465Y31220D01*
X306205D01*
X306464Y31146D01*
D02*
G37*
G36*
X240434D02*
X240545Y31072D01*
X240656Y30924D01*
X240730Y30776D01*
X240767Y30553D01*
Y15888D01*
Y15851D01*
Y15777D01*
X240693Y15592D01*
X240619Y15444D01*
X240471Y15370D01*
X240323Y15296D01*
X240101Y15259D01*
X237360D01*
X237138Y15333D01*
X237027Y15407D01*
X236916Y15518D01*
X236842Y15666D01*
X236805Y15888D01*
Y16925D01*
X236694D01*
Y16888D01*
X236620Y16777D01*
X236546Y16629D01*
X236397Y16444D01*
X236212Y16259D01*
X235990Y16036D01*
X235731Y15851D01*
X235435Y15666D01*
X235397D01*
X235286Y15592D01*
X235101Y15555D01*
X234879Y15481D01*
X234620Y15407D01*
X234324Y15333D01*
X233990Y15296D01*
X233620Y15259D01*
X232361D01*
X232176Y15296D01*
X231768Y15333D01*
X231213Y15407D01*
X230620Y15592D01*
X230028Y15814D01*
X229435Y16111D01*
X228917Y16555D01*
X228880Y16629D01*
X228731Y16814D01*
X228546Y17110D01*
X228324Y17518D01*
X228065Y18073D01*
X227880Y18703D01*
X227732Y19481D01*
X227695Y20332D01*
Y30553D01*
Y30591D01*
Y30665D01*
X227769Y30887D01*
X227843Y30998D01*
X227991Y31109D01*
X228139Y31183D01*
X228361Y31220D01*
X231102D01*
X231324Y31146D01*
X231435Y31072D01*
X231546Y30924D01*
X231620Y30776D01*
X231657Y30553D01*
Y20517D01*
Y20480D01*
Y20369D01*
X231694Y20184D01*
Y19962D01*
X231842Y19518D01*
X231916Y19295D01*
X232064Y19110D01*
X232102D01*
X232139Y19036D01*
X232250Y18999D01*
X232398Y18925D01*
X232620Y18851D01*
X232842Y18777D01*
X233139Y18740D01*
X233472Y18703D01*
X234842D01*
X234990Y18740D01*
X235324Y18814D01*
X235731Y18999D01*
X236138Y19295D01*
X236323Y19481D01*
X236472Y19703D01*
X236620Y19962D01*
X236731Y20295D01*
X236768Y20666D01*
X236805Y21073D01*
Y30553D01*
Y30591D01*
Y30665D01*
X236879Y30887D01*
X236953Y30998D01*
X237101Y31109D01*
X237249Y31183D01*
X237471Y31220D01*
X240212D01*
X240434Y31146D01*
D02*
G37*
G36*
X219621Y35331D02*
X220066Y35294D01*
X220621Y35220D01*
X221214Y35034D01*
X221843Y34812D01*
X222473Y34479D01*
X223028Y34035D01*
X223102Y33960D01*
X223251Y33812D01*
X223473Y33479D01*
X223732Y33072D01*
X223954Y32553D01*
X224177Y31924D01*
X224325Y31146D01*
X224399Y30294D01*
Y20332D01*
Y20295D01*
Y20221D01*
Y20110D01*
X224362Y19925D01*
X224325Y19481D01*
X224214Y18962D01*
X224065Y18333D01*
X223806Y17703D01*
X223473Y17110D01*
X223028Y16555D01*
X222954Y16518D01*
X222769Y16370D01*
X222473Y16148D01*
X222029Y15925D01*
X221510Y15666D01*
X220844Y15481D01*
X220066Y15333D01*
X219214Y15259D01*
X211363D01*
X211141Y15333D01*
X211030Y15407D01*
X210919Y15518D01*
X210844Y15666D01*
X210807Y15888D01*
Y34738D01*
Y34775D01*
Y34849D01*
X210882Y35071D01*
X210956Y35183D01*
X211104Y35257D01*
X211252Y35331D01*
X211474Y35368D01*
X219436D01*
X219621Y35331D01*
D02*
G37*
G36*
X193513Y35294D02*
X193624Y35220D01*
X193735Y35108D01*
X193809Y34960D01*
X193846Y34738D01*
Y19073D01*
Y18999D01*
X193883Y18888D01*
X193994Y18777D01*
X194217Y18703D01*
X200957D01*
X201179Y18629D01*
X201290Y18555D01*
X201364Y18406D01*
X201438Y18258D01*
X201475Y18036D01*
Y15888D01*
Y15851D01*
Y15777D01*
X201401Y15592D01*
X201327Y15444D01*
X201216Y15370D01*
X201068Y15296D01*
X200846Y15259D01*
X190402D01*
X190180Y15333D01*
X190069Y15407D01*
X189958Y15518D01*
X189884Y15666D01*
X189847Y15888D01*
Y34738D01*
Y34775D01*
Y34849D01*
X189921Y35071D01*
X189995Y35183D01*
X190143Y35257D01*
X190291Y35331D01*
X190513Y35368D01*
X193291D01*
X193513Y35294D01*
D02*
G37*
G36*
X181440Y35331D02*
X181625Y35294D01*
X181773Y35220D01*
X181922Y35108D01*
X182070Y34960D01*
X182144Y34738D01*
X187069Y15888D01*
Y15851D01*
X187106Y15777D01*
Y15592D01*
X187069Y15444D01*
X186995Y15370D01*
X186884Y15296D01*
X186699Y15259D01*
X183514D01*
X183366Y15296D01*
X183218Y15370D01*
Y15407D01*
X183144Y15481D01*
X183107Y15666D01*
X183033Y15888D01*
X182181Y19332D01*
X176070D01*
X175182Y15888D01*
Y15814D01*
X175145Y15703D01*
X175070Y15518D01*
X174959Y15370D01*
X174922D01*
X174848Y15333D01*
X174737Y15296D01*
X174515Y15259D01*
X171441D01*
X171256Y15333D01*
X171182Y15407D01*
X171108Y15518D01*
Y15666D01*
X171145Y15888D01*
X176070Y34738D01*
Y34775D01*
X176107Y34849D01*
X176292Y35071D01*
X176404Y35183D01*
X176589Y35257D01*
X176774Y35331D01*
X177033Y35368D01*
X181329D01*
X181440Y35331D01*
D02*
G37*
G36*
X152814Y35294D02*
X152925Y35220D01*
X153036Y35108D01*
X153110Y34960D01*
X153147Y34738D01*
Y32590D01*
Y32553D01*
Y32479D01*
X153073Y32257D01*
X152999Y32146D01*
X152851Y32035D01*
X152702Y31961D01*
X152480Y31924D01*
X148851D01*
X148740Y31887D01*
X148629Y31776D01*
X148555Y31590D01*
Y15888D01*
Y15851D01*
Y15777D01*
X148481Y15592D01*
X148406Y15444D01*
X148258Y15370D01*
X148110Y15296D01*
X147888Y15259D01*
X145148D01*
X144925Y15333D01*
X144777Y15407D01*
X144666Y15518D01*
X144592Y15666D01*
X144555Y15888D01*
Y31590D01*
Y31627D01*
X144518Y31776D01*
X144407Y31887D01*
X144222Y31924D01*
X140519D01*
X140333Y31998D01*
X140185Y32072D01*
X140111Y32220D01*
X140037Y32368D01*
X140000Y32590D01*
Y34738D01*
Y34775D01*
Y34849D01*
X140074Y35071D01*
X140148Y35183D01*
X140259Y35257D01*
X140407Y35331D01*
X140630Y35368D01*
X152591D01*
X152814Y35294D01*
D02*
G37*
G36*
X380787Y203813D02*
X380956Y203799D01*
X381167Y203771D01*
X381407Y203701D01*
X381647Y203616D01*
X381872Y203489D01*
X382084Y203320D01*
X382112Y203292D01*
X382168Y203235D01*
X382239Y203108D01*
X382337Y202953D01*
X382436Y202756D01*
X382507Y202516D01*
X382563Y202220D01*
X382591Y201896D01*
Y201304D01*
Y201290D01*
Y201262D01*
Y201205D01*
X382577Y201149D01*
X382535Y200966D01*
X382478Y200768D01*
X382366Y200543D01*
X382281Y200444D01*
X382197Y200331D01*
X382084Y200233D01*
X381957Y200148D01*
X381816Y200078D01*
X381647Y200007D01*
X381661D01*
X381689Y199993D01*
X381731Y199979D01*
X381802Y199965D01*
X381943Y199880D01*
X382126Y199767D01*
X382211Y199697D01*
X382295Y199598D01*
X382366Y199500D01*
X382450Y199373D01*
X382507Y199232D01*
X382549Y199077D01*
X382577Y198908D01*
X382591Y198710D01*
Y198104D01*
Y198090D01*
Y198062D01*
Y198019D01*
X382577Y197949D01*
X382563Y197780D01*
X382535Y197582D01*
X382464Y197343D01*
X382380Y197103D01*
X382253Y196877D01*
X382084Y196666D01*
X382056Y196652D01*
X381985Y196596D01*
X381872Y196511D01*
X381717Y196426D01*
X381506Y196328D01*
X381252Y196257D01*
X380970Y196201D01*
X380632Y196173D01*
X379476D01*
X379405Y196187D01*
X379236Y196201D01*
X379025Y196229D01*
X378799Y196300D01*
X378559Y196384D01*
X378320Y196497D01*
X378108Y196666D01*
X378080Y196694D01*
X378024Y196765D01*
X377953Y196877D01*
X377855Y197033D01*
X377756Y197244D01*
X377686Y197484D01*
X377629Y197780D01*
X377601Y198104D01*
Y198428D01*
Y198442D01*
Y198470D01*
X377629Y198569D01*
X377657Y198612D01*
X377714Y198654D01*
X377770Y198682D01*
X377855Y198696D01*
X378898D01*
X378982Y198668D01*
X379025Y198626D01*
X379067Y198583D01*
X379095Y198513D01*
X379109Y198428D01*
Y198118D01*
Y198104D01*
Y198062D01*
X379123Y197991D01*
Y197907D01*
X379180Y197738D01*
X379208Y197653D01*
X379264Y197582D01*
X379278D01*
X379293Y197554D01*
X379335Y197540D01*
X379391Y197512D01*
X379462Y197484D01*
X379560Y197456D01*
X379673Y197441D01*
X379800Y197427D01*
X380448D01*
X380519Y197441D01*
X380604D01*
X380787Y197498D01*
X380871Y197526D01*
X380942Y197582D01*
X380956Y197596D01*
X380970Y197611D01*
X380998Y197653D01*
X381026Y197709D01*
X381055Y197794D01*
X381083Y197878D01*
X381111Y197991D01*
Y198118D01*
Y198710D01*
Y198724D01*
Y198766D01*
X381097Y198837D01*
Y198908D01*
X381041Y199091D01*
X380998Y199161D01*
X380942Y199232D01*
X380928Y199246D01*
X380914Y199260D01*
X380871Y199288D01*
X380815Y199316D01*
X380731Y199345D01*
X380632Y199373D01*
X380519Y199401D01*
X379730D01*
X379645Y199429D01*
X379603Y199457D01*
X379560Y199514D01*
X379532Y199570D01*
X379518Y199655D01*
Y200359D01*
Y200374D01*
Y200402D01*
X379546Y200501D01*
X379575Y200543D01*
X379631Y200585D01*
X379687Y200613D01*
X379772Y200627D01*
X380448D01*
X380519Y200641D01*
X380604D01*
X380787Y200698D01*
X380871Y200726D01*
X380942Y200782D01*
X380956Y200797D01*
X380970Y200811D01*
X380998Y200853D01*
X381026Y200909D01*
X381055Y200994D01*
X381083Y201078D01*
X381111Y201191D01*
Y201318D01*
Y201882D01*
Y201896D01*
Y201938D01*
X381097Y202009D01*
Y202079D01*
X381041Y202263D01*
X380998Y202333D01*
X380942Y202404D01*
X380928Y202418D01*
X380914Y202432D01*
X380871Y202460D01*
X380815Y202488D01*
X380731Y202516D01*
X380632Y202544D01*
X380519Y202573D01*
X379744D01*
X379673Y202559D01*
X379589D01*
X379419Y202502D01*
X379335Y202460D01*
X379264Y202404D01*
X379236Y202375D01*
X379222Y202333D01*
X379194Y202277D01*
X379166Y202206D01*
X379137Y202122D01*
X379123Y202009D01*
X379109Y201882D01*
Y201586D01*
Y201572D01*
Y201544D01*
X379081Y201459D01*
X379053Y201417D01*
X378997Y201374D01*
X378940Y201346D01*
X378856Y201332D01*
X377812D01*
X377728Y201360D01*
X377686Y201389D01*
X377643Y201445D01*
X377615Y201501D01*
X377601Y201586D01*
Y201896D01*
Y201910D01*
Y201938D01*
Y201981D01*
X377615Y202051D01*
X377629Y202220D01*
X377671Y202418D01*
X377728Y202657D01*
X377812Y202883D01*
X377939Y203123D01*
X378108Y203320D01*
X378137Y203348D01*
X378207Y203404D01*
X378320Y203475D01*
X378489Y203574D01*
X378686Y203672D01*
X378940Y203743D01*
X379236Y203799D01*
X379560Y203827D01*
X380716D01*
X380787Y203813D01*
D02*
G37*
G36*
X376248Y203799D02*
X376290Y203771D01*
X376332Y203729D01*
X376360Y203672D01*
X376375Y203588D01*
Y196412D01*
Y196384D01*
Y196342D01*
X376346Y196271D01*
X376318Y196215D01*
X376304D01*
X376276Y196201D01*
X376219Y196187D01*
X376135Y196173D01*
X375064D01*
X374993Y196201D01*
X374937Y196229D01*
X374908Y196271D01*
X374880Y196328D01*
X374866Y196412D01*
Y202220D01*
X373696Y201558D01*
X373682D01*
X373654Y201544D01*
X373569Y201530D01*
X373527Y201544D01*
X373485Y201572D01*
X373456Y201614D01*
X373442Y201699D01*
Y202671D01*
Y202686D01*
Y202700D01*
X373470Y202784D01*
X373527Y202897D01*
X373569Y202939D01*
X373626Y202981D01*
X374711Y203672D01*
X374725Y203686D01*
X374753Y203701D01*
X374810Y203729D01*
X374866Y203757D01*
X375021Y203799D01*
X375106Y203827D01*
X376163D01*
X376248Y203799D01*
D02*
G37*
G36*
X370665Y203813D02*
X370834Y203799D01*
X371046Y203771D01*
X371271Y203701D01*
X371511Y203616D01*
X371751Y203489D01*
X371962Y203320D01*
X371990Y203292D01*
X372047Y203221D01*
X372131Y203108D01*
X372230Y202953D01*
X372314Y202742D01*
X372399Y202502D01*
X372455Y202206D01*
X372484Y201882D01*
Y200952D01*
Y200938D01*
Y200895D01*
Y200825D01*
X372470Y200740D01*
X372455Y200627D01*
X372427Y200501D01*
X372357Y200219D01*
X372300Y200078D01*
X372230Y199923D01*
X372145Y199767D01*
X372033Y199626D01*
X371920Y199485D01*
X371779Y199359D01*
X371610Y199260D01*
X371426Y199161D01*
Y199105D01*
X372695Y196455D01*
Y196441D01*
X372709Y196412D01*
Y196370D01*
Y196314D01*
X372695Y196257D01*
X372667Y196215D01*
X372597Y196187D01*
X372498Y196173D01*
X371412D01*
X371300Y196187D01*
X371215Y196215D01*
X371201Y196229D01*
X371159Y196257D01*
X371116Y196314D01*
X371060Y196412D01*
X369876Y198992D01*
X369044D01*
X369002Y198978D01*
X368960Y198936D01*
X368931Y198865D01*
Y196412D01*
Y196398D01*
Y196370D01*
X368903Y196300D01*
X368875Y196243D01*
X368819Y196215D01*
X368762Y196187D01*
X368677Y196173D01*
X367620D01*
X367536Y196201D01*
X367493Y196229D01*
X367451Y196271D01*
X367423Y196328D01*
X367409Y196412D01*
Y203588D01*
Y203602D01*
Y203630D01*
X367437Y203715D01*
X367465Y203757D01*
X367522Y203785D01*
X367578Y203813D01*
X367663Y203827D01*
X370595D01*
X370665Y203813D01*
D02*
G37*
G36*
X350745D02*
X350914Y203799D01*
X351125Y203771D01*
X351365Y203701D01*
X351604Y203616D01*
X351830Y203489D01*
X352042Y203320D01*
X352070Y203292D01*
X352126Y203235D01*
X352197Y203108D01*
X352295Y202953D01*
X352394Y202756D01*
X352464Y202516D01*
X352521Y202220D01*
X352549Y201896D01*
Y201431D01*
Y201417D01*
Y201389D01*
Y201346D01*
X352535Y201276D01*
Y201191D01*
X352507Y201107D01*
X352464Y200895D01*
X352380Y200641D01*
X352253Y200388D01*
X352168Y200261D01*
X352084Y200120D01*
X351971Y200007D01*
X351844Y199880D01*
X349603Y197977D01*
X349575Y197949D01*
X349532Y197892D01*
X349476Y197808D01*
X349462Y197752D01*
X349448Y197695D01*
Y197498D01*
X352352D01*
X352436Y197470D01*
X352478Y197441D01*
X352507Y197385D01*
X352535Y197329D01*
X352549Y197244D01*
Y196412D01*
Y196398D01*
Y196370D01*
X352521Y196300D01*
X352493Y196243D01*
X352450Y196215D01*
X352394Y196187D01*
X352309Y196173D01*
X347967D01*
X347883Y196201D01*
X347841Y196229D01*
X347798Y196271D01*
X347770Y196328D01*
X347756Y196412D01*
Y197554D01*
Y197568D01*
Y197582D01*
X347770Y197667D01*
X347784Y197794D01*
X347826Y197949D01*
X347897Y198132D01*
X348010Y198330D01*
X348151Y198527D01*
X348348Y198710D01*
X350533Y200571D01*
X350561Y200585D01*
X350618Y200641D01*
X350702Y200740D01*
X350801Y200853D01*
X350900Y200994D01*
X350984Y201149D01*
X351041Y201332D01*
X351069Y201515D01*
Y201882D01*
Y201896D01*
Y201938D01*
X351055Y202009D01*
Y202079D01*
X350998Y202263D01*
X350956Y202333D01*
X350900Y202404D01*
X350886Y202418D01*
X350871Y202432D01*
X350829Y202460D01*
X350773Y202488D01*
X350688Y202516D01*
X350589Y202544D01*
X350477Y202573D01*
X349856D01*
X349786Y202559D01*
X349701D01*
X349532Y202502D01*
X349448Y202460D01*
X349377Y202404D01*
X349349Y202375D01*
X349335Y202333D01*
X349307Y202277D01*
X349278Y202206D01*
X349250Y202122D01*
X349236Y202009D01*
X349222Y201882D01*
Y201501D01*
Y201487D01*
Y201459D01*
X349194Y201374D01*
X349166Y201318D01*
X349123Y201276D01*
X349067Y201248D01*
X348982Y201234D01*
X347925D01*
X347841Y201262D01*
X347798Y201304D01*
X347756Y201346D01*
X347728Y201417D01*
X347714Y201501D01*
Y201896D01*
Y201910D01*
Y201938D01*
Y201981D01*
X347728Y202051D01*
X347742Y202220D01*
X347784Y202418D01*
X347841Y202657D01*
X347925Y202883D01*
X348052Y203123D01*
X348221Y203320D01*
X348249Y203348D01*
X348320Y203404D01*
X348433Y203475D01*
X348602Y203574D01*
X348799Y203672D01*
X349053Y203743D01*
X349349Y203799D01*
X349673Y203827D01*
X350674D01*
X350745Y203813D01*
D02*
G37*
G36*
X346290Y203799D02*
X346332Y203771D01*
X346375Y203729D01*
X346403Y203672D01*
X346417Y203588D01*
Y196412D01*
Y196384D01*
Y196342D01*
X346389Y196271D01*
X346360Y196215D01*
X346346D01*
X346318Y196201D01*
X346262Y196187D01*
X346177Y196173D01*
X345106D01*
X345035Y196201D01*
X344979Y196229D01*
X344951Y196271D01*
X344922Y196328D01*
X344908Y196412D01*
Y202220D01*
X343738Y201558D01*
X343724D01*
X343696Y201544D01*
X343611Y201530D01*
X343569Y201544D01*
X343527Y201572D01*
X343499Y201614D01*
X343485Y201699D01*
Y202671D01*
Y202686D01*
Y202700D01*
X343513Y202784D01*
X343569Y202897D01*
X343611Y202939D01*
X343668Y202981D01*
X344753Y203672D01*
X344767Y203686D01*
X344796Y203701D01*
X344852Y203729D01*
X344908Y203757D01*
X345063Y203799D01*
X345148Y203827D01*
X346205D01*
X346290Y203799D01*
D02*
G37*
G36*
X340708Y203813D02*
X340877Y203799D01*
X341088Y203771D01*
X341314Y203701D01*
X341553Y203616D01*
X341793Y203489D01*
X342004Y203320D01*
X342033Y203292D01*
X342089Y203221D01*
X342174Y203108D01*
X342272Y202953D01*
X342357Y202742D01*
X342441Y202502D01*
X342498Y202206D01*
X342526Y201882D01*
Y200952D01*
Y200938D01*
Y200895D01*
Y200825D01*
X342512Y200740D01*
X342498Y200627D01*
X342470Y200501D01*
X342399Y200219D01*
X342343Y200078D01*
X342272Y199923D01*
X342188Y199767D01*
X342075Y199626D01*
X341962Y199485D01*
X341821Y199359D01*
X341652Y199260D01*
X341469Y199161D01*
Y199105D01*
X342737Y196455D01*
Y196441D01*
X342752Y196412D01*
Y196370D01*
Y196314D01*
X342737Y196257D01*
X342709Y196215D01*
X342639Y196187D01*
X342540Y196173D01*
X341455D01*
X341342Y196187D01*
X341257Y196215D01*
X341243Y196229D01*
X341201Y196257D01*
X341159Y196314D01*
X341102Y196412D01*
X339918Y198992D01*
X339086D01*
X339044Y198978D01*
X339002Y198936D01*
X338974Y198865D01*
Y196412D01*
Y196398D01*
Y196370D01*
X338945Y196300D01*
X338917Y196243D01*
X338861Y196215D01*
X338804Y196187D01*
X338720Y196173D01*
X337663D01*
X337578Y196201D01*
X337536Y196229D01*
X337493Y196271D01*
X337465Y196328D01*
X337451Y196412D01*
Y203588D01*
Y203602D01*
Y203630D01*
X337479Y203715D01*
X337508Y203757D01*
X337564Y203785D01*
X337620Y203813D01*
X337705Y203827D01*
X340637D01*
X340708Y203813D01*
D02*
G37*
G36*
X318103Y137104D02*
X318145Y137075D01*
X318187Y137033D01*
X318215Y136977D01*
X318230Y136906D01*
Y131408D01*
Y131394D01*
Y131366D01*
Y131324D01*
X318215Y131253D01*
X318201Y131084D01*
X318159Y130887D01*
X318103Y130647D01*
X318004Y130407D01*
X317877Y130182D01*
X317708Y129971D01*
X317680Y129956D01*
X317609Y129900D01*
X317496Y129815D01*
X317341Y129731D01*
X317130Y129632D01*
X316890Y129562D01*
X316594Y129505D01*
X316270Y129477D01*
X314987D01*
X314917Y129491D01*
X314748Y129505D01*
X314536Y129534D01*
X314296Y129604D01*
X314057Y129689D01*
X313831Y129801D01*
X313620Y129971D01*
X313592Y129999D01*
X313535Y130069D01*
X313465Y130182D01*
X313366Y130337D01*
X313267Y130548D01*
X313197Y130788D01*
X313141Y131084D01*
X313112Y131408D01*
Y132536D01*
Y132550D01*
Y132578D01*
X313141Y132663D01*
X313169Y132705D01*
X313211Y132748D01*
X313267Y132776D01*
X313352Y132790D01*
X314409D01*
X314494Y132762D01*
X314536Y132733D01*
X314578Y132677D01*
X314607Y132621D01*
X314621Y132536D01*
Y131479D01*
Y131465D01*
Y131423D01*
X314635Y131352D01*
Y131267D01*
X314691Y131098D01*
X314719Y131014D01*
X314776Y130943D01*
X314790D01*
X314804Y130915D01*
X314846Y130901D01*
X314903Y130873D01*
X314987Y130844D01*
X315072Y130816D01*
X315184Y130802D01*
X315311Y130788D01*
X316073D01*
X316143Y130802D01*
X316228D01*
X316397Y130859D01*
X316481Y130887D01*
X316552Y130943D01*
X316566Y130957D01*
X316580Y130971D01*
X316608Y131014D01*
X316637Y131070D01*
X316665Y131140D01*
X316679Y131239D01*
X316707Y131352D01*
Y131479D01*
Y136892D01*
Y136906D01*
Y136934D01*
X316735Y137019D01*
X316777Y137061D01*
X316820Y137090D01*
X316890Y137118D01*
X316975Y137132D01*
X318018D01*
X318103Y137104D01*
D02*
G37*
G36*
X322487Y137118D02*
X322656Y137104D01*
X322867Y137075D01*
X323107Y137005D01*
X323347Y136920D01*
X323572Y136793D01*
X323784Y136624D01*
X323812Y136596D01*
X323868Y136540D01*
X323939Y136413D01*
X324038Y136258D01*
X324136Y136060D01*
X324207Y135821D01*
X324263Y135525D01*
X324291Y135201D01*
Y134735D01*
Y134721D01*
Y134693D01*
Y134651D01*
X324277Y134580D01*
Y134496D01*
X324249Y134411D01*
X324207Y134200D01*
X324122Y133946D01*
X323995Y133692D01*
X323911Y133565D01*
X323826Y133424D01*
X323713Y133312D01*
X323586Y133185D01*
X321345Y131281D01*
X321317Y131253D01*
X321274Y131197D01*
X321218Y131112D01*
X321204Y131056D01*
X321190Y131000D01*
Y130802D01*
X324094D01*
X324178Y130774D01*
X324221Y130746D01*
X324249Y130689D01*
X324277Y130633D01*
X324291Y130548D01*
Y129717D01*
Y129703D01*
Y129674D01*
X324263Y129604D01*
X324235Y129548D01*
X324193Y129519D01*
X324136Y129491D01*
X324052Y129477D01*
X319710D01*
X319625Y129505D01*
X319583Y129534D01*
X319541Y129576D01*
X319512Y129632D01*
X319498Y129717D01*
Y130859D01*
Y130873D01*
Y130887D01*
X319512Y130971D01*
X319526Y131098D01*
X319569Y131253D01*
X319639Y131437D01*
X319752Y131634D01*
X319893Y131831D01*
X320090Y132015D01*
X322275Y133875D01*
X322304Y133889D01*
X322360Y133946D01*
X322444Y134045D01*
X322543Y134157D01*
X322642Y134298D01*
X322726Y134453D01*
X322783Y134637D01*
X322811Y134820D01*
Y135186D01*
Y135201D01*
Y135243D01*
X322797Y135313D01*
Y135384D01*
X322741Y135567D01*
X322698Y135638D01*
X322642Y135708D01*
X322628Y135722D01*
X322614Y135736D01*
X322571Y135764D01*
X322515Y135793D01*
X322430Y135821D01*
X322332Y135849D01*
X322219Y135877D01*
X321599D01*
X321528Y135863D01*
X321444D01*
X321274Y135807D01*
X321190Y135764D01*
X321119Y135708D01*
X321091Y135680D01*
X321077Y135638D01*
X321049Y135581D01*
X321021Y135511D01*
X320993Y135426D01*
X320978Y135313D01*
X320964Y135186D01*
Y134806D01*
Y134792D01*
Y134763D01*
X320936Y134679D01*
X320908Y134622D01*
X320866Y134580D01*
X320809Y134552D01*
X320725Y134538D01*
X319667D01*
X319583Y134566D01*
X319541Y134608D01*
X319498Y134651D01*
X319470Y134721D01*
X319456Y134806D01*
Y135201D01*
Y135215D01*
Y135243D01*
Y135285D01*
X319470Y135356D01*
X319484Y135525D01*
X319526Y135722D01*
X319583Y135962D01*
X319667Y136187D01*
X319794Y136427D01*
X319963Y136624D01*
X319992Y136652D01*
X320062Y136709D01*
X320175Y136779D01*
X320344Y136878D01*
X320541Y136977D01*
X320795Y137047D01*
X321091Y137104D01*
X321415Y137132D01*
X322416D01*
X322487Y137118D01*
D02*
G37*
G36*
X373273Y304250D02*
X373442Y304236D01*
X373653Y304207D01*
X373893Y304137D01*
X374133Y304052D01*
X374358Y303925D01*
X374570Y303756D01*
X374598Y303728D01*
X374654Y303672D01*
X374725Y303545D01*
X374823Y303390D01*
X374922Y303192D01*
X374992Y302953D01*
X375049Y302657D01*
X375077Y302332D01*
Y301867D01*
Y301853D01*
Y301825D01*
Y301783D01*
X375063Y301712D01*
Y301628D01*
X375035Y301543D01*
X374992Y301332D01*
X374908Y301078D01*
X374781Y300824D01*
X374697Y300697D01*
X374612Y300556D01*
X374499Y300443D01*
X374372Y300317D01*
X372131Y298414D01*
X372103Y298385D01*
X372060Y298329D01*
X372004Y298244D01*
X371990Y298188D01*
X371976Y298132D01*
Y297934D01*
X374880D01*
X374964Y297906D01*
X375007Y297878D01*
X375035Y297821D01*
X375063Y297765D01*
X375077Y297680D01*
Y296849D01*
Y296835D01*
Y296806D01*
X375049Y296736D01*
X375021Y296680D01*
X374978Y296651D01*
X374922Y296623D01*
X374837Y296609D01*
X370496D01*
X370411Y296637D01*
X370369Y296665D01*
X370326Y296708D01*
X370298Y296764D01*
X370284Y296849D01*
Y297991D01*
Y298005D01*
Y298019D01*
X370298Y298103D01*
X370312Y298230D01*
X370355Y298385D01*
X370425Y298569D01*
X370538Y298766D01*
X370679Y298963D01*
X370876Y299146D01*
X373061Y301007D01*
X373089Y301021D01*
X373146Y301078D01*
X373230Y301176D01*
X373329Y301289D01*
X373428Y301430D01*
X373512Y301585D01*
X373569Y301769D01*
X373597Y301952D01*
Y302318D01*
Y302332D01*
Y302375D01*
X373583Y302445D01*
Y302516D01*
X373526Y302699D01*
X373484Y302770D01*
X373428Y302840D01*
X373414Y302854D01*
X373400Y302868D01*
X373357Y302896D01*
X373301Y302924D01*
X373216Y302953D01*
X373118Y302981D01*
X373005Y303009D01*
X372385D01*
X372314Y302995D01*
X372229D01*
X372060Y302939D01*
X371976Y302896D01*
X371905Y302840D01*
X371877Y302812D01*
X371863Y302770D01*
X371835Y302713D01*
X371807Y302643D01*
X371778Y302558D01*
X371764Y302445D01*
X371750Y302318D01*
Y301938D01*
Y301924D01*
Y301896D01*
X371722Y301811D01*
X371694Y301754D01*
X371651Y301712D01*
X371595Y301684D01*
X371511Y301670D01*
X370453D01*
X370369Y301698D01*
X370326Y301740D01*
X370284Y301783D01*
X370256Y301853D01*
X370242Y301938D01*
Y302332D01*
Y302347D01*
Y302375D01*
Y302417D01*
X370256Y302488D01*
X370270Y302657D01*
X370312Y302854D01*
X370369Y303094D01*
X370453Y303319D01*
X370580Y303559D01*
X370749Y303756D01*
X370778Y303785D01*
X370848Y303841D01*
X370961Y303911D01*
X371130Y304010D01*
X371327Y304109D01*
X371581Y304179D01*
X371877Y304236D01*
X372201Y304264D01*
X373202D01*
X373273Y304250D01*
D02*
G37*
G36*
X367253D02*
X367422Y304236D01*
X367634Y304207D01*
X367859Y304137D01*
X368099Y304052D01*
X368339Y303925D01*
X368550Y303756D01*
X368578Y303728D01*
X368635Y303672D01*
X368719Y303545D01*
X368818Y303390D01*
X368903Y303192D01*
X368987Y302953D01*
X369044Y302657D01*
X369072Y302332D01*
Y298540D01*
Y298526D01*
Y298498D01*
Y298456D01*
X369058Y298385D01*
X369044Y298216D01*
X369001Y298019D01*
X368945Y297779D01*
X368846Y297540D01*
X368719Y297314D01*
X368550Y297103D01*
X368522Y297088D01*
X368451Y297032D01*
X368339Y296947D01*
X368170Y296863D01*
X367972Y296764D01*
X367719Y296694D01*
X367422Y296637D01*
X367098Y296609D01*
X364110D01*
X364025Y296637D01*
X363983Y296665D01*
X363941Y296708D01*
X363912Y296764D01*
X363898Y296849D01*
Y304024D01*
Y304038D01*
Y304066D01*
X363926Y304151D01*
X363955Y304193D01*
X364011Y304221D01*
X364067Y304250D01*
X364152Y304264D01*
X367183D01*
X367253Y304250D01*
D02*
G37*
G36*
X342991Y304236D02*
X343033Y304207D01*
X343075Y304165D01*
X343103Y304109D01*
X343117Y304024D01*
Y296849D01*
Y296821D01*
Y296778D01*
X343089Y296708D01*
X343061Y296651D01*
X343047D01*
X343019Y296637D01*
X342962Y296623D01*
X342878Y296609D01*
X341806D01*
X341736Y296637D01*
X341679Y296665D01*
X341651Y296708D01*
X341623Y296764D01*
X341609Y296849D01*
Y302657D01*
X340439Y301994D01*
X340425D01*
X340397Y301980D01*
X340312Y301966D01*
X340270Y301980D01*
X340228Y302008D01*
X340199Y302050D01*
X340185Y302135D01*
Y303108D01*
Y303122D01*
Y303136D01*
X340213Y303221D01*
X340270Y303333D01*
X340312Y303376D01*
X340368Y303418D01*
X341454Y304109D01*
X341468Y304123D01*
X341496Y304137D01*
X341553Y304165D01*
X341609Y304193D01*
X341764Y304236D01*
X341849Y304264D01*
X342906D01*
X342991Y304236D01*
D02*
G37*
G36*
X337436Y304250D02*
X337606Y304236D01*
X337817Y304207D01*
X338042Y304137D01*
X338282Y304052D01*
X338522Y303925D01*
X338733Y303756D01*
X338761Y303728D01*
X338818Y303672D01*
X338902Y303545D01*
X339001Y303390D01*
X339086Y303192D01*
X339170Y302953D01*
X339227Y302657D01*
X339255Y302332D01*
Y298540D01*
Y298526D01*
Y298498D01*
Y298456D01*
X339241Y298385D01*
X339227Y298216D01*
X339184Y298019D01*
X339128Y297779D01*
X339029Y297540D01*
X338902Y297314D01*
X338733Y297103D01*
X338705Y297088D01*
X338635Y297032D01*
X338522Y296947D01*
X338353Y296863D01*
X338155Y296764D01*
X337901Y296694D01*
X337606Y296637D01*
X337281Y296609D01*
X334293D01*
X334208Y296637D01*
X334166Y296665D01*
X334123Y296708D01*
X334095Y296764D01*
X334081Y296849D01*
Y304024D01*
Y304038D01*
Y304066D01*
X334109Y304151D01*
X334138Y304193D01*
X334194Y304221D01*
X334250Y304250D01*
X334335Y304264D01*
X337366D01*
X337436Y304250D01*
D02*
G37*
G36*
X222136Y171003D02*
X222291Y170989D01*
X222502Y170960D01*
X222714Y170890D01*
X222953Y170805D01*
X223165Y170679D01*
X223362Y170509D01*
X223376Y170481D01*
X223433Y170411D01*
X223503Y170298D01*
X223588Y170143D01*
X223686Y169931D01*
X223757Y169692D01*
X223813Y169396D01*
X223827Y169071D01*
Y167718D01*
X223813Y167648D01*
Y167563D01*
X223799Y167479D01*
X223771Y167267D01*
X223715Y167027D01*
X223630Y166774D01*
X223517Y166548D01*
X223362Y166337D01*
X223334Y166308D01*
X223277Y166252D01*
X223165Y166182D01*
X223010Y166083D01*
X222826Y165984D01*
X222587Y165914D01*
X222305Y165857D01*
X221981Y165829D01*
X221431D01*
X221417D01*
X221388D01*
X221332D01*
X221248Y165843D01*
X221163Y165857D01*
X221064Y165871D01*
X220839Y165928D01*
X220599Y166026D01*
X220359Y166168D01*
X220247Y166252D01*
X220148Y166365D01*
X220049Y166478D01*
X219979Y166619D01*
Y166604D01*
X219965Y166590D01*
X219908Y166492D01*
X219810Y166365D01*
X219669Y166224D01*
X219584Y166153D01*
X219485Y166083D01*
X219359Y166012D01*
X219232Y165956D01*
X219077Y165900D01*
X218908Y165857D01*
X218724Y165843D01*
X218527Y165829D01*
X218019D01*
X218005D01*
X217977D01*
X217935D01*
X217864Y165843D01*
X217709Y165857D01*
X217498Y165900D01*
X217272Y165956D01*
X217047Y166041D01*
X216835Y166168D01*
X216638Y166337D01*
X216624Y166365D01*
X216567Y166435D01*
X216497Y166548D01*
X216398Y166717D01*
X216314Y166915D01*
X216243Y167168D01*
X216187Y167464D01*
X216173Y167803D01*
Y169226D01*
X216201Y169396D01*
X216229Y169607D01*
X216285Y169833D01*
X216370Y170072D01*
X216483Y170298D01*
X216638Y170509D01*
X216666Y170537D01*
X216722Y170594D01*
X216835Y170664D01*
X216990Y170763D01*
X217174Y170862D01*
X217413Y170932D01*
X217695Y170989D01*
X218019Y171017D01*
X218527D01*
X218555D01*
X218626D01*
X218724Y171003D01*
X218851Y170989D01*
X219006Y170960D01*
X219175Y170932D01*
X219330Y170876D01*
X219485Y170805D01*
X219499Y170791D01*
X219542Y170763D01*
X219612Y170721D01*
X219697Y170650D01*
X219781Y170580D01*
X219866Y170481D01*
X219922Y170368D01*
X219979Y170242D01*
Y170256D01*
X219993Y170270D01*
X220049Y170368D01*
X220134Y170481D01*
X220275Y170636D01*
X220359Y170707D01*
X220472Y170777D01*
X220585Y170834D01*
X220726Y170890D01*
X220867Y170946D01*
X221036Y170989D01*
X221219Y171003D01*
X221431Y171017D01*
X221981D01*
X221995D01*
X222023D01*
X222065D01*
X222136Y171003D01*
D02*
G37*
G36*
X222051Y164532D02*
X222220Y164518D01*
X222418Y164490D01*
X222657Y164419D01*
X222897Y164335D01*
X223123Y164208D01*
X223334Y164039D01*
X223348Y164011D01*
X223404Y163940D01*
X223489Y163827D01*
X223574Y163672D01*
X223672Y163461D01*
X223743Y163221D01*
X223799Y162925D01*
X223827Y162601D01*
Y161318D01*
X223813Y161248D01*
Y161163D01*
X223799Y161078D01*
X223771Y160867D01*
X223700Y160627D01*
X223616Y160388D01*
X223503Y160148D01*
X223334Y159937D01*
X223306Y159908D01*
X223235Y159852D01*
X223123Y159782D01*
X222967Y159683D01*
X222756Y159584D01*
X222516Y159514D01*
X222220Y159457D01*
X221896Y159429D01*
X218104D01*
X218090D01*
X218062D01*
X218019D01*
X217949Y159443D01*
X217780Y159457D01*
X217582Y159500D01*
X217343Y159556D01*
X217117Y159641D01*
X216877Y159767D01*
X216680Y159937D01*
X216652Y159965D01*
X216596Y160035D01*
X216525Y160148D01*
X216426Y160317D01*
X216328Y160529D01*
X216257Y160782D01*
X216201Y161064D01*
X216173Y161403D01*
Y162686D01*
X216187Y162756D01*
X216201Y162925D01*
X216229Y163137D01*
X216299Y163362D01*
X216384Y163602D01*
X216511Y163827D01*
X216680Y164039D01*
X216708Y164067D01*
X216765Y164123D01*
X216892Y164194D01*
X217047Y164293D01*
X217244Y164391D01*
X217484Y164462D01*
X217780Y164518D01*
X218104Y164546D01*
X221896D01*
X221910D01*
X221938D01*
X221981D01*
X222051Y164532D01*
D02*
G37*
G36*
X223729Y157991D02*
X223785Y157963D01*
Y157949D01*
X223799Y157921D01*
X223813Y157864D01*
X223827Y157780D01*
Y156708D01*
X223799Y156638D01*
X223771Y156581D01*
X223729Y156553D01*
X223672Y156525D01*
X223588Y156511D01*
X217780D01*
X218442Y155341D01*
Y155327D01*
X218456Y155299D01*
X218470Y155214D01*
X218456Y155172D01*
X218428Y155129D01*
X218386Y155101D01*
X218301Y155087D01*
X217329D01*
X217314D01*
X217300D01*
X217216Y155115D01*
X217103Y155172D01*
X217061Y155214D01*
X217019Y155271D01*
X216328Y156356D01*
X216314Y156370D01*
X216299Y156398D01*
X216271Y156455D01*
X216243Y156511D01*
X216201Y156666D01*
X216173Y156751D01*
Y157808D01*
X216201Y157893D01*
X216229Y157935D01*
X216271Y157977D01*
X216328Y158005D01*
X216412Y158019D01*
X223588D01*
X223616D01*
X223658D01*
X223729Y157991D01*
D02*
G37*
G36*
X222051Y154086D02*
X222220Y154072D01*
X222418Y154030D01*
X222657Y153974D01*
X222897Y153875D01*
X223123Y153748D01*
X223334Y153579D01*
X223348Y153551D01*
X223404Y153480D01*
X223489Y153367D01*
X223574Y153212D01*
X223672Y153001D01*
X223743Y152761D01*
X223799Y152465D01*
X223827Y152141D01*
Y150858D01*
X223813Y150788D01*
X223799Y150618D01*
X223771Y150407D01*
X223700Y150167D01*
X223616Y149928D01*
X223503Y149702D01*
X223334Y149491D01*
X223306Y149462D01*
X223235Y149406D01*
X223123Y149336D01*
X222967Y149237D01*
X222756Y149138D01*
X222516Y149068D01*
X222220Y149011D01*
X221896Y148983D01*
X220768D01*
X220754D01*
X220726D01*
X220641Y149011D01*
X220599Y149040D01*
X220557Y149082D01*
X220529Y149138D01*
X220515Y149223D01*
Y150280D01*
X220543Y150365D01*
X220571Y150407D01*
X220627Y150449D01*
X220684Y150478D01*
X220768Y150492D01*
X221826D01*
X221840D01*
X221882D01*
X221952Y150506D01*
X222037D01*
X222206Y150562D01*
X222291Y150590D01*
X222361Y150647D01*
Y150661D01*
X222389Y150675D01*
X222404Y150717D01*
X222432Y150773D01*
X222460Y150858D01*
X222488Y150943D01*
X222502Y151055D01*
X222516Y151182D01*
Y151944D01*
X222502Y152014D01*
Y152099D01*
X222446Y152268D01*
X222418Y152352D01*
X222361Y152423D01*
X222347Y152437D01*
X222333Y152451D01*
X222291Y152479D01*
X222234Y152507D01*
X222164Y152536D01*
X222065Y152550D01*
X221952Y152578D01*
X221826D01*
X216412D01*
X216398D01*
X216370D01*
X216285Y152606D01*
X216243Y152648D01*
X216215Y152691D01*
X216187Y152761D01*
X216173Y152846D01*
Y153889D01*
X216201Y153974D01*
X216229Y154016D01*
X216271Y154058D01*
X216328Y154086D01*
X216398Y154100D01*
X221896D01*
X221910D01*
X221938D01*
X221981D01*
X222051Y154086D01*
D02*
G37*
G36*
X217512Y265545D02*
X217582D01*
X217681Y265516D01*
X217794Y265488D01*
X217921Y265446D01*
X218062Y265389D01*
X223602Y263078D01*
X223616D01*
X223630Y263064D01*
X223672Y263035D01*
X223715Y262993D01*
X223757Y262937D01*
X223785Y262866D01*
X223813Y262782D01*
X223827Y262669D01*
Y261541D01*
X223813Y261499D01*
X223799Y261442D01*
X223771Y261400D01*
X223757D01*
X223715Y261386D01*
X223658Y261400D01*
X223588Y261428D01*
X217554Y263937D01*
Y261090D01*
X217526Y261019D01*
X217498Y260963D01*
X217441Y260935D01*
X217385Y260907D01*
X217300Y260893D01*
X216412D01*
X216398D01*
X216370D01*
X216285Y260921D01*
X216243Y260949D01*
X216215Y260991D01*
X216187Y261048D01*
X216173Y261132D01*
Y265347D01*
X216201Y265432D01*
X216229Y265474D01*
X216271Y265516D01*
X216328Y265545D01*
X216412Y265559D01*
X217413D01*
X217427D01*
X217456D01*
X217512Y265545D01*
D02*
G37*
G36*
X222051Y259990D02*
X222220Y259976D01*
X222418Y259948D01*
X222657Y259878D01*
X222897Y259793D01*
X223123Y259666D01*
X223334Y259497D01*
X223348Y259469D01*
X223404Y259398D01*
X223489Y259286D01*
X223574Y259130D01*
X223672Y258919D01*
X223743Y258679D01*
X223799Y258383D01*
X223827Y258059D01*
Y256776D01*
X223813Y256706D01*
Y256621D01*
X223799Y256537D01*
X223771Y256325D01*
X223700Y256085D01*
X223616Y255846D01*
X223503Y255606D01*
X223334Y255395D01*
X223306Y255366D01*
X223235Y255310D01*
X223123Y255240D01*
X222967Y255141D01*
X222756Y255042D01*
X222516Y254972D01*
X222220Y254915D01*
X221896Y254887D01*
X218104D01*
X218090D01*
X218062D01*
X218019D01*
X217949Y254901D01*
X217780Y254915D01*
X217582Y254958D01*
X217343Y255014D01*
X217117Y255099D01*
X216877Y255226D01*
X216680Y255395D01*
X216652Y255423D01*
X216596Y255493D01*
X216525Y255606D01*
X216426Y255775D01*
X216328Y255987D01*
X216257Y256241D01*
X216201Y256523D01*
X216173Y256861D01*
Y258144D01*
X216187Y258214D01*
X216201Y258383D01*
X216229Y258595D01*
X216299Y258820D01*
X216384Y259060D01*
X216511Y259286D01*
X216680Y259497D01*
X216708Y259525D01*
X216765Y259582D01*
X216892Y259652D01*
X217047Y259751D01*
X217244Y259849D01*
X217484Y259920D01*
X217780Y259976D01*
X218104Y260004D01*
X221896D01*
X221910D01*
X221938D01*
X221981D01*
X222051Y259990D01*
D02*
G37*
G36*
X223729Y253449D02*
X223785Y253421D01*
Y253407D01*
X223799Y253379D01*
X223813Y253323D01*
X223827Y253238D01*
Y252167D01*
X223799Y252096D01*
X223771Y252040D01*
X223729Y252011D01*
X223672Y251983D01*
X223588Y251969D01*
X217780D01*
X218442Y250799D01*
Y250785D01*
X218456Y250757D01*
X218470Y250672D01*
X218456Y250630D01*
X218428Y250588D01*
X218386Y250559D01*
X218301Y250545D01*
X217329D01*
X217314D01*
X217300D01*
X217216Y250574D01*
X217103Y250630D01*
X217061Y250672D01*
X217019Y250729D01*
X216328Y251814D01*
X216314Y251828D01*
X216299Y251856D01*
X216271Y251913D01*
X216243Y251969D01*
X216201Y252124D01*
X216173Y252209D01*
Y253266D01*
X216201Y253351D01*
X216229Y253393D01*
X216271Y253435D01*
X216328Y253463D01*
X216412Y253477D01*
X223588D01*
X223616D01*
X223658D01*
X223729Y253449D01*
D02*
G37*
G36*
X222051Y249545D02*
X222220Y249530D01*
X222418Y249488D01*
X222657Y249432D01*
X222897Y249333D01*
X223123Y249206D01*
X223334Y249037D01*
X223348Y249009D01*
X223404Y248938D01*
X223489Y248825D01*
X223574Y248670D01*
X223672Y248459D01*
X223743Y248219D01*
X223799Y247923D01*
X223827Y247599D01*
Y246316D01*
X223813Y246246D01*
X223799Y246077D01*
X223771Y245865D01*
X223700Y245625D01*
X223616Y245386D01*
X223503Y245160D01*
X223334Y244949D01*
X223306Y244921D01*
X223235Y244864D01*
X223123Y244794D01*
X222967Y244695D01*
X222756Y244596D01*
X222516Y244526D01*
X222220Y244470D01*
X221896Y244441D01*
X220768D01*
X220754D01*
X220726D01*
X220641Y244470D01*
X220599Y244498D01*
X220557Y244540D01*
X220529Y244596D01*
X220515Y244681D01*
Y245738D01*
X220543Y245823D01*
X220571Y245865D01*
X220627Y245907D01*
X220684Y245936D01*
X220768Y245950D01*
X221826D01*
X221840D01*
X221882D01*
X221952Y245964D01*
X222037D01*
X222206Y246020D01*
X222291Y246048D01*
X222361Y246105D01*
Y246119D01*
X222389Y246133D01*
X222404Y246175D01*
X222432Y246232D01*
X222460Y246316D01*
X222488Y246401D01*
X222502Y246514D01*
X222516Y246640D01*
Y247402D01*
X222502Y247472D01*
Y247557D01*
X222446Y247726D01*
X222418Y247810D01*
X222361Y247881D01*
X222347Y247895D01*
X222333Y247909D01*
X222291Y247937D01*
X222234Y247966D01*
X222164Y247994D01*
X222065Y248008D01*
X221952Y248036D01*
X221826D01*
X216412D01*
X216398D01*
X216370D01*
X216285Y248064D01*
X216243Y248107D01*
X216215Y248149D01*
X216187Y248219D01*
X216173Y248304D01*
Y249347D01*
X216201Y249432D01*
X216229Y249474D01*
X216271Y249516D01*
X216328Y249545D01*
X216398Y249559D01*
X221896D01*
X221910D01*
X221938D01*
X221981D01*
X222051Y249545D01*
D02*
G37*
G36*
Y235960D02*
X222220Y235946D01*
X222418Y235904D01*
X222657Y235848D01*
X222897Y235749D01*
X223123Y235622D01*
X223334Y235453D01*
X223348Y235425D01*
X223404Y235354D01*
X223489Y235242D01*
X223574Y235086D01*
X223672Y234875D01*
X223743Y234621D01*
X223799Y234339D01*
X223827Y234001D01*
Y232746D01*
X223813Y232676D01*
Y232591D01*
X223799Y232507D01*
X223771Y232295D01*
X223700Y232056D01*
X223616Y231816D01*
X223503Y231576D01*
X223334Y231365D01*
X223306Y231337D01*
X223235Y231280D01*
X223123Y231210D01*
X222967Y231111D01*
X222756Y231012D01*
X222516Y230942D01*
X222220Y230886D01*
X221896Y230857D01*
X218104D01*
X218090D01*
X218062D01*
X218019D01*
X217949Y230871D01*
X217780Y230886D01*
X217582Y230928D01*
X217343Y230984D01*
X217117Y231069D01*
X216877Y231196D01*
X216680Y231365D01*
X216652Y231393D01*
X216596Y231464D01*
X216525Y231576D01*
X216426Y231745D01*
X216328Y231957D01*
X216257Y232211D01*
X216201Y232493D01*
X216173Y232831D01*
Y235312D01*
X216201Y235397D01*
X216229Y235439D01*
X216271Y235467D01*
X216328Y235495D01*
X216412Y235509D01*
X217244D01*
X217258D01*
X217286D01*
X217357Y235481D01*
X217413Y235453D01*
X217441Y235411D01*
X217470Y235354D01*
X217484Y235270D01*
Y233014D01*
X217498Y232944D01*
Y232873D01*
X217554Y232690D01*
X217582Y232605D01*
X217639Y232535D01*
X217667Y232507D01*
X217709Y232493D01*
X217766Y232464D01*
X217836Y232436D01*
X217935Y232408D01*
X218048Y232394D01*
X218174Y232380D01*
X218978D01*
Y234086D01*
X218992Y234156D01*
X219006Y234325D01*
X219034Y234537D01*
X219105Y234776D01*
X219189Y235016D01*
X219316Y235242D01*
X219485Y235453D01*
X219514Y235481D01*
X219570Y235537D01*
X219697Y235622D01*
X219852Y235721D01*
X220049Y235805D01*
X220303Y235890D01*
X220585Y235946D01*
X220923Y235975D01*
X221896D01*
X221910D01*
X221938D01*
X221981D01*
X222051Y235960D01*
D02*
G37*
G36*
Y229575D02*
X222220Y229560D01*
X222418Y229532D01*
X222657Y229462D01*
X222897Y229377D01*
X223123Y229250D01*
X223334Y229081D01*
X223348Y229053D01*
X223404Y228982D01*
X223489Y228870D01*
X223574Y228715D01*
X223672Y228503D01*
X223743Y228263D01*
X223799Y227967D01*
X223827Y227643D01*
Y226360D01*
X223813Y226290D01*
Y226205D01*
X223799Y226121D01*
X223771Y225909D01*
X223700Y225670D01*
X223616Y225430D01*
X223503Y225190D01*
X223334Y224979D01*
X223306Y224951D01*
X223235Y224894D01*
X223123Y224824D01*
X222967Y224725D01*
X222756Y224626D01*
X222516Y224556D01*
X222220Y224500D01*
X221896Y224471D01*
X218104D01*
X218090D01*
X218062D01*
X218019D01*
X217949Y224485D01*
X217780Y224500D01*
X217582Y224542D01*
X217343Y224598D01*
X217117Y224683D01*
X216877Y224810D01*
X216680Y224979D01*
X216652Y225007D01*
X216596Y225078D01*
X216525Y225190D01*
X216426Y225359D01*
X216328Y225571D01*
X216257Y225825D01*
X216201Y226107D01*
X216173Y226445D01*
Y227728D01*
X216187Y227798D01*
X216201Y227967D01*
X216229Y228179D01*
X216299Y228404D01*
X216384Y228644D01*
X216511Y228870D01*
X216680Y229081D01*
X216708Y229109D01*
X216765Y229166D01*
X216892Y229236D01*
X217047Y229335D01*
X217244Y229433D01*
X217484Y229504D01*
X217780Y229560D01*
X218104Y229589D01*
X221896D01*
X221910D01*
X221938D01*
X221981D01*
X222051Y229575D01*
D02*
G37*
G36*
X223729Y223034D02*
X223785Y223005D01*
Y222991D01*
X223799Y222963D01*
X223813Y222907D01*
X223827Y222822D01*
Y221751D01*
X223799Y221680D01*
X223771Y221624D01*
X223729Y221596D01*
X223672Y221567D01*
X223588Y221553D01*
X217780D01*
X218442Y220383D01*
Y220369D01*
X218456Y220341D01*
X218470Y220256D01*
X218456Y220214D01*
X218428Y220172D01*
X218386Y220144D01*
X218301Y220130D01*
X217329D01*
X217314D01*
X217300D01*
X217216Y220158D01*
X217103Y220214D01*
X217061Y220256D01*
X217019Y220313D01*
X216328Y221398D01*
X216314Y221412D01*
X216299Y221441D01*
X216271Y221497D01*
X216243Y221553D01*
X216201Y221708D01*
X216173Y221793D01*
Y222850D01*
X216201Y222935D01*
X216229Y222977D01*
X216271Y223019D01*
X216328Y223048D01*
X216412Y223062D01*
X223588D01*
X223616D01*
X223658D01*
X223729Y223034D01*
D02*
G37*
G36*
X222051Y219129D02*
X222220Y219114D01*
X222418Y219072D01*
X222657Y219016D01*
X222897Y218917D01*
X223123Y218790D01*
X223334Y218621D01*
X223348Y218593D01*
X223404Y218522D01*
X223489Y218410D01*
X223574Y218255D01*
X223672Y218043D01*
X223743Y217803D01*
X223799Y217507D01*
X223827Y217183D01*
Y215900D01*
X223813Y215830D01*
X223799Y215661D01*
X223771Y215449D01*
X223700Y215210D01*
X223616Y214970D01*
X223503Y214744D01*
X223334Y214533D01*
X223306Y214505D01*
X223235Y214448D01*
X223123Y214378D01*
X222967Y214279D01*
X222756Y214181D01*
X222516Y214110D01*
X222220Y214054D01*
X221896Y214025D01*
X220768D01*
X220754D01*
X220726D01*
X220641Y214054D01*
X220599Y214082D01*
X220557Y214124D01*
X220529Y214181D01*
X220515Y214265D01*
Y215322D01*
X220543Y215407D01*
X220571Y215449D01*
X220627Y215492D01*
X220684Y215520D01*
X220768Y215534D01*
X221826D01*
X221840D01*
X221882D01*
X221952Y215548D01*
X222037D01*
X222206Y215604D01*
X222291Y215633D01*
X222361Y215689D01*
Y215703D01*
X222389Y215717D01*
X222404Y215759D01*
X222432Y215816D01*
X222460Y215900D01*
X222488Y215985D01*
X222502Y216098D01*
X222516Y216225D01*
Y216986D01*
X222502Y217056D01*
Y217141D01*
X222446Y217310D01*
X222418Y217395D01*
X222361Y217465D01*
X222347Y217479D01*
X222333Y217493D01*
X222291Y217522D01*
X222234Y217550D01*
X222164Y217578D01*
X222065Y217592D01*
X221952Y217620D01*
X221826D01*
X216412D01*
X216398D01*
X216370D01*
X216285Y217648D01*
X216243Y217691D01*
X216215Y217733D01*
X216187Y217803D01*
X216173Y217888D01*
Y218931D01*
X216201Y219016D01*
X216229Y219058D01*
X216271Y219100D01*
X216328Y219129D01*
X216398Y219143D01*
X221896D01*
X221910D01*
X221938D01*
X221981D01*
X222051Y219129D01*
D02*
G37*
G36*
Y205848D02*
X222220Y205833D01*
X222418Y205805D01*
X222657Y205735D01*
X222897Y205650D01*
X223123Y205523D01*
X223334Y205354D01*
X223348Y205326D01*
X223404Y205256D01*
X223489Y205143D01*
X223574Y204988D01*
X223672Y204776D01*
X223743Y204537D01*
X223799Y204241D01*
X223827Y203916D01*
Y202775D01*
X223813Y202704D01*
X223799Y202535D01*
X223771Y202323D01*
X223700Y202084D01*
X223616Y201844D01*
X223503Y201618D01*
X223334Y201407D01*
X223306Y201379D01*
X223235Y201322D01*
X223123Y201252D01*
X222967Y201153D01*
X222756Y201055D01*
X222516Y200984D01*
X222220Y200928D01*
X221896Y200900D01*
X221656D01*
X221642D01*
X221614D01*
X221515Y200928D01*
X221473Y200956D01*
X221431Y200998D01*
X221403Y201055D01*
X221388Y201139D01*
Y202197D01*
X221417Y202281D01*
X221459Y202323D01*
X221501Y202366D01*
X221572Y202394D01*
X221656Y202408D01*
X221882D01*
X221896D01*
X221938D01*
X222009Y202422D01*
X222079D01*
X222262Y202479D01*
X222347Y202507D01*
X222418Y202563D01*
Y202577D01*
X222446Y202591D01*
X222460Y202633D01*
X222488Y202690D01*
X222516Y202775D01*
X222544Y202859D01*
X222559Y202972D01*
X222573Y203099D01*
Y203719D01*
X222559Y203790D01*
Y203874D01*
X222502Y204057D01*
X222474Y204142D01*
X222418Y204212D01*
X222404Y204226D01*
X222389Y204241D01*
X222347Y204269D01*
X222291Y204311D01*
X222206Y204339D01*
X222122Y204368D01*
X222009Y204382D01*
X221882Y204396D01*
X220811D01*
X220782D01*
X220726D01*
X220641Y204382D01*
X220529D01*
X220303Y204325D01*
X220204Y204283D01*
X220120Y204226D01*
X220106Y204212D01*
X220092Y204198D01*
X220063Y204156D01*
X220021Y204086D01*
X219993Y204001D01*
X219965Y203902D01*
X219951Y203761D01*
X219937Y203606D01*
Y203000D01*
X219951Y202944D01*
X219965Y202887D01*
X219993Y202803D01*
X220049Y202718D01*
X220106Y202648D01*
X220190Y202577D01*
X220204D01*
X220233Y202549D01*
X220303Y202479D01*
X220388Y202366D01*
X220416Y202309D01*
X220430Y202239D01*
Y201210D01*
X220402Y201125D01*
X220373Y201083D01*
X220331Y201041D01*
X220275Y201012D01*
X220190Y200998D01*
X216412D01*
X216398D01*
X216370D01*
X216285Y201026D01*
X216243Y201055D01*
X216215Y201111D01*
X216187Y201167D01*
X216173Y201252D01*
Y205439D01*
X216201Y205523D01*
X216229Y205566D01*
X216271Y205608D01*
X216328Y205636D01*
X216412Y205650D01*
X217329D01*
X217343D01*
X217371D01*
X217441Y205622D01*
X217498Y205594D01*
X217526Y205537D01*
X217554Y205481D01*
X217568Y205396D01*
Y202521D01*
X219316D01*
X219302Y202535D01*
X219232Y202563D01*
X219133Y202619D01*
X219020Y202718D01*
X218922Y202859D01*
X218823Y203028D01*
X218752Y203254D01*
X218724Y203381D01*
Y204100D01*
X218738Y204184D01*
X218752Y204311D01*
X218781Y204438D01*
X218823Y204593D01*
X218879Y204762D01*
X218950Y204945D01*
X219048Y205115D01*
X219175Y205284D01*
X219330Y205439D01*
X219514Y205580D01*
X219725Y205693D01*
X219965Y205777D01*
X220261Y205848D01*
X220585Y205862D01*
X221896D01*
X221910D01*
X221938D01*
X221981D01*
X222051Y205848D01*
D02*
G37*
G36*
Y199687D02*
X222220Y199673D01*
X222418Y199645D01*
X222657Y199575D01*
X222897Y199490D01*
X223123Y199363D01*
X223334Y199194D01*
X223348Y199166D01*
X223404Y199095D01*
X223489Y198982D01*
X223574Y198827D01*
X223672Y198616D01*
X223743Y198376D01*
X223799Y198080D01*
X223827Y197756D01*
Y196473D01*
X223813Y196403D01*
Y196318D01*
X223799Y196234D01*
X223771Y196022D01*
X223700Y195782D01*
X223616Y195543D01*
X223503Y195303D01*
X223334Y195092D01*
X223306Y195063D01*
X223235Y195007D01*
X223123Y194937D01*
X222967Y194838D01*
X222756Y194739D01*
X222516Y194669D01*
X222220Y194612D01*
X221896Y194584D01*
X218104D01*
X218090D01*
X218062D01*
X218019D01*
X217949Y194598D01*
X217780Y194612D01*
X217582Y194655D01*
X217343Y194711D01*
X217117Y194796D01*
X216877Y194923D01*
X216680Y195092D01*
X216652Y195120D01*
X216596Y195190D01*
X216525Y195303D01*
X216426Y195472D01*
X216328Y195684D01*
X216257Y195938D01*
X216201Y196219D01*
X216173Y196558D01*
Y197840D01*
X216187Y197911D01*
X216201Y198080D01*
X216229Y198292D01*
X216299Y198517D01*
X216384Y198757D01*
X216511Y198982D01*
X216680Y199194D01*
X216708Y199222D01*
X216765Y199278D01*
X216892Y199349D01*
X217047Y199448D01*
X217244Y199546D01*
X217484Y199617D01*
X217780Y199673D01*
X218104Y199701D01*
X221896D01*
X221910D01*
X221938D01*
X221981D01*
X222051Y199687D01*
D02*
G37*
G36*
X223729Y193146D02*
X223785Y193118D01*
Y193104D01*
X223799Y193076D01*
X223813Y193019D01*
X223827Y192935D01*
Y191863D01*
X223799Y191793D01*
X223771Y191737D01*
X223729Y191708D01*
X223672Y191680D01*
X223588Y191666D01*
X217780D01*
X218442Y190496D01*
Y190482D01*
X218456Y190454D01*
X218470Y190369D01*
X218456Y190327D01*
X218428Y190285D01*
X218386Y190256D01*
X218301Y190242D01*
X217329D01*
X217314D01*
X217300D01*
X217216Y190271D01*
X217103Y190327D01*
X217061Y190369D01*
X217019Y190425D01*
X216328Y191511D01*
X216314Y191525D01*
X216299Y191553D01*
X216271Y191610D01*
X216243Y191666D01*
X216201Y191821D01*
X216173Y191906D01*
Y192963D01*
X216201Y193048D01*
X216229Y193090D01*
X216271Y193132D01*
X216328Y193160D01*
X216412Y193174D01*
X223588D01*
X223616D01*
X223658D01*
X223729Y193146D01*
D02*
G37*
G36*
X222051Y189241D02*
X222220Y189227D01*
X222418Y189185D01*
X222657Y189129D01*
X222897Y189030D01*
X223123Y188903D01*
X223334Y188734D01*
X223348Y188706D01*
X223404Y188635D01*
X223489Y188522D01*
X223574Y188367D01*
X223672Y188156D01*
X223743Y187916D01*
X223799Y187620D01*
X223827Y187296D01*
Y186013D01*
X223813Y185943D01*
X223799Y185774D01*
X223771Y185562D01*
X223700Y185322D01*
X223616Y185083D01*
X223503Y184857D01*
X223334Y184646D01*
X223306Y184618D01*
X223235Y184561D01*
X223123Y184491D01*
X222967Y184392D01*
X222756Y184293D01*
X222516Y184223D01*
X222220Y184167D01*
X221896Y184138D01*
X220768D01*
X220754D01*
X220726D01*
X220641Y184167D01*
X220599Y184195D01*
X220557Y184237D01*
X220529Y184293D01*
X220515Y184378D01*
Y185435D01*
X220543Y185520D01*
X220571Y185562D01*
X220627Y185604D01*
X220684Y185632D01*
X220768Y185647D01*
X221826D01*
X221840D01*
X221882D01*
X221952Y185661D01*
X222037D01*
X222206Y185717D01*
X222291Y185745D01*
X222361Y185802D01*
Y185816D01*
X222389Y185830D01*
X222404Y185872D01*
X222432Y185929D01*
X222460Y186013D01*
X222488Y186098D01*
X222502Y186210D01*
X222516Y186337D01*
Y187099D01*
X222502Y187169D01*
Y187254D01*
X222446Y187423D01*
X222418Y187507D01*
X222361Y187578D01*
X222347Y187592D01*
X222333Y187606D01*
X222291Y187634D01*
X222234Y187663D01*
X222164Y187691D01*
X222065Y187705D01*
X221952Y187733D01*
X221826D01*
X216412D01*
X216398D01*
X216370D01*
X216285Y187761D01*
X216243Y187803D01*
X216215Y187846D01*
X216187Y187916D01*
X216173Y188001D01*
Y189044D01*
X216201Y189129D01*
X216229Y189171D01*
X216271Y189213D01*
X216328Y189241D01*
X216398Y189256D01*
X221896D01*
X221910D01*
X221938D01*
X221981D01*
X222051Y189241D01*
D02*
G37*
G36*
X143727Y138799D02*
X143769Y138771D01*
X143811Y138729D01*
X143840Y138672D01*
X143854Y138602D01*
Y133104D01*
Y133090D01*
Y133062D01*
Y133019D01*
X143840Y132949D01*
X143826Y132780D01*
X143783Y132582D01*
X143727Y132343D01*
X143628Y132103D01*
X143501Y131877D01*
X143332Y131666D01*
X143304Y131652D01*
X143233Y131596D01*
X143121Y131511D01*
X142966Y131426D01*
X142754Y131328D01*
X142514Y131257D01*
X142219Y131201D01*
X141894Y131173D01*
X140611D01*
X140541Y131187D01*
X140372Y131201D01*
X140160Y131229D01*
X139921Y131300D01*
X139681Y131384D01*
X139455Y131497D01*
X139244Y131666D01*
X139216Y131694D01*
X139159Y131765D01*
X139089Y131877D01*
X138990Y132033D01*
X138892Y132244D01*
X138821Y132484D01*
X138765Y132780D01*
X138736Y133104D01*
Y134232D01*
Y134246D01*
Y134274D01*
X138765Y134359D01*
X138793Y134401D01*
X138835Y134443D01*
X138892Y134471D01*
X138976Y134486D01*
X140033D01*
X140118Y134457D01*
X140160Y134429D01*
X140203Y134373D01*
X140231Y134316D01*
X140245Y134232D01*
Y133174D01*
Y133160D01*
Y133118D01*
X140259Y133048D01*
Y132963D01*
X140315Y132794D01*
X140344Y132709D01*
X140400Y132639D01*
X140414D01*
X140428Y132611D01*
X140470Y132597D01*
X140527Y132568D01*
X140611Y132540D01*
X140696Y132512D01*
X140809Y132498D01*
X140936Y132484D01*
X141697D01*
X141767Y132498D01*
X141852D01*
X142021Y132554D01*
X142106Y132582D01*
X142176Y132639D01*
X142190Y132653D01*
X142204Y132667D01*
X142233Y132709D01*
X142261Y132766D01*
X142289Y132836D01*
X142303Y132935D01*
X142331Y133048D01*
Y133174D01*
Y138588D01*
Y138602D01*
Y138630D01*
X142359Y138715D01*
X142402Y138757D01*
X142444Y138785D01*
X142514Y138813D01*
X142599Y138827D01*
X143642D01*
X143727Y138799D01*
D02*
G37*
G36*
X159826Y138813D02*
X159938Y138785D01*
X160037Y138715D01*
X160051Y138701D01*
X160108Y138630D01*
X160150Y138531D01*
X160164Y138390D01*
Y133879D01*
X161066D01*
X161151Y133851D01*
X161193Y133823D01*
X161221Y133781D01*
X161249Y133724D01*
X161264Y133640D01*
Y132836D01*
Y132822D01*
Y132794D01*
X161235Y132695D01*
X161207Y132639D01*
X161165Y132597D01*
X161108Y132568D01*
X161024Y132554D01*
X160164D01*
Y131412D01*
Y131384D01*
Y131342D01*
X160136Y131271D01*
X160108Y131215D01*
X160093D01*
X160065Y131201D01*
X160009Y131187D01*
X159924Y131173D01*
X158952D01*
X158881Y131201D01*
X158825Y131229D01*
X158797Y131271D01*
X158768Y131328D01*
X158754Y131412D01*
Y132554D01*
X155766D01*
X155667Y132568D01*
X155568Y132597D01*
X155456Y132667D01*
X155441Y132695D01*
X155399Y132752D01*
X155357Y132864D01*
X155343Y133005D01*
Y133470D01*
Y133485D01*
Y133527D01*
X155357Y133597D01*
Y133682D01*
X155399Y133865D01*
X155470Y134049D01*
X157838Y138461D01*
Y138475D01*
X157866Y138489D01*
X157908Y138574D01*
X157993Y138672D01*
X158063Y138743D01*
X158078Y138757D01*
X158134Y138785D01*
X158233Y138813D01*
X158359Y138827D01*
X159741D01*
X159826Y138813D01*
D02*
G37*
G36*
X152509D02*
X152678Y138799D01*
X152890Y138771D01*
X153115Y138701D01*
X153355Y138616D01*
X153581Y138489D01*
X153792Y138320D01*
X153820Y138292D01*
X153877Y138235D01*
X153947Y138108D01*
X154046Y137953D01*
X154144Y137756D01*
X154215Y137516D01*
X154271Y137220D01*
X154300Y136896D01*
Y133104D01*
Y133090D01*
Y133062D01*
Y133019D01*
X154285Y132949D01*
X154271Y132780D01*
X154243Y132582D01*
X154173Y132343D01*
X154088Y132103D01*
X153961Y131877D01*
X153792Y131666D01*
X153764Y131652D01*
X153693Y131596D01*
X153581Y131511D01*
X153426Y131426D01*
X153214Y131328D01*
X152975Y131257D01*
X152678Y131201D01*
X152354Y131173D01*
X151071D01*
X151001Y131187D01*
X150916D01*
X150832Y131201D01*
X150620Y131229D01*
X150381Y131300D01*
X150141Y131384D01*
X149901Y131497D01*
X149690Y131666D01*
X149662Y131694D01*
X149605Y131765D01*
X149535Y131877D01*
X149436Y132033D01*
X149337Y132244D01*
X149267Y132484D01*
X149211Y132780D01*
X149182Y133104D01*
Y136896D01*
Y136910D01*
Y136938D01*
Y136981D01*
X149197Y137051D01*
X149211Y137220D01*
X149253Y137418D01*
X149309Y137657D01*
X149394Y137883D01*
X149521Y138123D01*
X149690Y138320D01*
X149718Y138348D01*
X149789Y138404D01*
X149901Y138475D01*
X150070Y138574D01*
X150282Y138672D01*
X150536Y138743D01*
X150818Y138799D01*
X151156Y138827D01*
X152439D01*
X152509Y138813D01*
D02*
G37*
G36*
X147646Y138799D02*
X147688Y138771D01*
X147730Y138729D01*
X147759Y138672D01*
X147773Y138588D01*
Y131412D01*
Y131384D01*
Y131342D01*
X147745Y131271D01*
X147716Y131215D01*
X147702D01*
X147674Y131201D01*
X147618Y131187D01*
X147533Y131173D01*
X146462D01*
X146391Y131201D01*
X146335Y131229D01*
X146307Y131271D01*
X146278Y131328D01*
X146264Y131412D01*
Y137220D01*
X145094Y136558D01*
X145080D01*
X145052Y136544D01*
X144967Y136530D01*
X144925Y136544D01*
X144883Y136572D01*
X144855Y136614D01*
X144840Y136699D01*
Y137671D01*
Y137685D01*
Y137700D01*
X144869Y137784D01*
X144925Y137897D01*
X144967Y137939D01*
X145024Y137982D01*
X146109Y138672D01*
X146123Y138686D01*
X146152Y138701D01*
X146208Y138729D01*
X146264Y138757D01*
X146419Y138799D01*
X146504Y138827D01*
X147561D01*
X147646Y138799D01*
D02*
G37*
G36*
X137051Y195812D02*
X137220Y195798D01*
X137418Y195770D01*
X137657Y195700D01*
X137897Y195615D01*
X138123Y195488D01*
X138334Y195319D01*
X138348Y195291D01*
X138404Y195220D01*
X138489Y195108D01*
X138574Y194953D01*
X138672Y194741D01*
X138743Y194487D01*
X138799Y194205D01*
X138827Y193867D01*
Y192711D01*
X138813Y192641D01*
X138799Y192471D01*
X138771Y192260D01*
X138701Y192034D01*
X138616Y191795D01*
X138503Y191555D01*
X138334Y191344D01*
X138306Y191315D01*
X138235Y191259D01*
X138123Y191189D01*
X137967Y191090D01*
X137756Y190991D01*
X137516Y190921D01*
X137220Y190864D01*
X136896Y190836D01*
X136572D01*
X136558D01*
X136530D01*
X136431Y190864D01*
X136389Y190893D01*
X136346Y190949D01*
X136318Y191005D01*
X136304Y191090D01*
Y192133D01*
X136332Y192218D01*
X136375Y192260D01*
X136417Y192302D01*
X136487Y192330D01*
X136572Y192344D01*
X136882D01*
X136896D01*
X136938D01*
X137009Y192359D01*
X137093D01*
X137263Y192415D01*
X137347Y192443D01*
X137418Y192500D01*
Y192514D01*
X137446Y192528D01*
X137460Y192570D01*
X137488Y192626D01*
X137516Y192697D01*
X137544Y192796D01*
X137559Y192908D01*
X137573Y193035D01*
Y193684D01*
X137559Y193754D01*
Y193839D01*
X137502Y194022D01*
X137474Y194107D01*
X137418Y194177D01*
X137403Y194191D01*
X137389Y194205D01*
X137347Y194233D01*
X137291Y194262D01*
X137206Y194290D01*
X137122Y194318D01*
X137009Y194346D01*
X136882D01*
X136290D01*
X136276D01*
X136234D01*
X136163Y194332D01*
X136093D01*
X135909Y194276D01*
X135839Y194233D01*
X135768Y194177D01*
X135754Y194163D01*
X135740Y194149D01*
X135712Y194107D01*
X135684Y194050D01*
X135655Y193966D01*
X135627Y193867D01*
X135599Y193754D01*
Y192965D01*
X135571Y192880D01*
X135543Y192838D01*
X135486Y192796D01*
X135430Y192768D01*
X135345Y192753D01*
X134641D01*
X134626D01*
X134598D01*
X134500Y192782D01*
X134457Y192810D01*
X134415Y192866D01*
X134387Y192922D01*
X134373Y193007D01*
Y193684D01*
X134359Y193754D01*
Y193839D01*
X134302Y194022D01*
X134274Y194107D01*
X134218Y194177D01*
X134204Y194191D01*
X134189Y194205D01*
X134147Y194233D01*
X134091Y194262D01*
X134006Y194290D01*
X133922Y194318D01*
X133809Y194346D01*
X133682D01*
X133118D01*
X133104D01*
X133062D01*
X132991Y194332D01*
X132921D01*
X132737Y194276D01*
X132667Y194233D01*
X132597Y194177D01*
X132582Y194163D01*
X132568Y194149D01*
X132540Y194107D01*
X132512Y194050D01*
X132484Y193966D01*
X132456Y193867D01*
X132427Y193754D01*
Y192979D01*
X132441Y192908D01*
Y192824D01*
X132498Y192655D01*
X132540Y192570D01*
X132597Y192500D01*
X132625Y192471D01*
X132667Y192457D01*
X132723Y192429D01*
X132794Y192401D01*
X132878Y192373D01*
X132991Y192359D01*
X133118Y192344D01*
X133414D01*
X133428D01*
X133456D01*
X133541Y192316D01*
X133583Y192288D01*
X133625Y192232D01*
X133654Y192175D01*
X133668Y192091D01*
Y191048D01*
X133640Y190963D01*
X133611Y190921D01*
X133555Y190879D01*
X133499Y190850D01*
X133414Y190836D01*
X133104D01*
X133090D01*
X133062D01*
X133019D01*
X132949Y190850D01*
X132780Y190864D01*
X132582Y190907D01*
X132343Y190963D01*
X132117Y191048D01*
X131877Y191175D01*
X131680Y191344D01*
X131652Y191372D01*
X131596Y191442D01*
X131525Y191555D01*
X131426Y191724D01*
X131328Y191922D01*
X131257Y192175D01*
X131201Y192471D01*
X131173Y192796D01*
Y193952D01*
X131187Y194022D01*
X131201Y194191D01*
X131229Y194403D01*
X131299Y194642D01*
X131384Y194882D01*
X131511Y195108D01*
X131680Y195319D01*
X131708Y195347D01*
X131765Y195404D01*
X131892Y195474D01*
X132047Y195573D01*
X132244Y195671D01*
X132484Y195742D01*
X132780Y195798D01*
X133104Y195826D01*
X133696D01*
X133710D01*
X133738D01*
X133795D01*
X133851Y195812D01*
X134034Y195770D01*
X134232Y195714D01*
X134457Y195601D01*
X134556Y195516D01*
X134669Y195432D01*
X134767Y195319D01*
X134852Y195192D01*
X134923Y195051D01*
X134993Y194882D01*
Y194896D01*
X135007Y194924D01*
X135021Y194967D01*
X135035Y195037D01*
X135120Y195178D01*
X135233Y195361D01*
X135303Y195446D01*
X135402Y195530D01*
X135500Y195601D01*
X135627Y195686D01*
X135768Y195742D01*
X135923Y195784D01*
X136093Y195812D01*
X136290Y195826D01*
X136896D01*
X136910D01*
X136938D01*
X136981D01*
X137051Y195812D01*
D02*
G37*
G36*
Y189722D02*
X137220Y189708D01*
X137418Y189680D01*
X137657Y189610D01*
X137897Y189525D01*
X138123Y189398D01*
X138334Y189229D01*
X138348Y189201D01*
X138404Y189130D01*
X138489Y189018D01*
X138574Y188863D01*
X138672Y188651D01*
X138743Y188412D01*
X138799Y188115D01*
X138827Y187791D01*
Y186508D01*
X138813Y186438D01*
Y186353D01*
X138799Y186269D01*
X138771Y186057D01*
X138701Y185818D01*
X138616Y185578D01*
X138503Y185338D01*
X138334Y185127D01*
X138306Y185099D01*
X138235Y185042D01*
X138123Y184972D01*
X137967Y184873D01*
X137756Y184774D01*
X137516Y184704D01*
X137220Y184648D01*
X136896Y184619D01*
X133104D01*
X133090D01*
X133062D01*
X133019D01*
X132949Y184634D01*
X132780Y184648D01*
X132582Y184690D01*
X132343Y184746D01*
X132117Y184831D01*
X131877Y184958D01*
X131680Y185127D01*
X131652Y185155D01*
X131596Y185226D01*
X131525Y185338D01*
X131426Y185508D01*
X131328Y185719D01*
X131257Y185973D01*
X131201Y186255D01*
X131173Y186593D01*
Y187876D01*
X131187Y187946D01*
X131201Y188115D01*
X131229Y188327D01*
X131299Y188552D01*
X131384Y188792D01*
X131511Y189018D01*
X131680Y189229D01*
X131708Y189257D01*
X131765Y189314D01*
X131892Y189384D01*
X132047Y189483D01*
X132244Y189582D01*
X132484Y189652D01*
X132780Y189708D01*
X133104Y189737D01*
X136896D01*
X136910D01*
X136938D01*
X136981D01*
X137051Y189722D01*
D02*
G37*
G36*
X138729Y183181D02*
X138785Y183153D01*
Y183139D01*
X138799Y183111D01*
X138813Y183055D01*
X138827Y182970D01*
Y181899D01*
X138799Y181828D01*
X138771Y181772D01*
X138729Y181744D01*
X138672Y181715D01*
X138588Y181701D01*
X132780D01*
X133442Y180531D01*
Y180517D01*
X133456Y180489D01*
X133470Y180404D01*
X133456Y180362D01*
X133428Y180320D01*
X133386Y180292D01*
X133301Y180278D01*
X132329D01*
X132315D01*
X132300D01*
X132216Y180306D01*
X132103Y180362D01*
X132061Y180404D01*
X132018Y180461D01*
X131328Y181546D01*
X131314Y181560D01*
X131299Y181588D01*
X131271Y181645D01*
X131243Y181701D01*
X131201Y181856D01*
X131173Y181941D01*
Y182998D01*
X131201Y183083D01*
X131229Y183125D01*
X131271Y183167D01*
X131328Y183196D01*
X131412Y183210D01*
X138588D01*
X138616D01*
X138658D01*
X138729Y183181D01*
D02*
G37*
G36*
X137051Y179277D02*
X137220Y179263D01*
X137418Y179220D01*
X137657Y179164D01*
X137897Y179065D01*
X138123Y178938D01*
X138334Y178769D01*
X138348Y178741D01*
X138404Y178671D01*
X138489Y178558D01*
X138574Y178403D01*
X138672Y178191D01*
X138743Y177952D01*
X138799Y177656D01*
X138827Y177331D01*
Y176048D01*
X138813Y175978D01*
X138799Y175809D01*
X138771Y175597D01*
X138701Y175358D01*
X138616Y175118D01*
X138503Y174893D01*
X138334Y174681D01*
X138306Y174653D01*
X138235Y174596D01*
X138123Y174526D01*
X137967Y174427D01*
X137756Y174329D01*
X137516Y174258D01*
X137220Y174202D01*
X136896Y174174D01*
X135768D01*
X135754D01*
X135726D01*
X135641Y174202D01*
X135599Y174230D01*
X135557Y174272D01*
X135529Y174329D01*
X135514Y174413D01*
Y175470D01*
X135543Y175555D01*
X135571Y175597D01*
X135627Y175640D01*
X135684Y175668D01*
X135768Y175682D01*
X136826D01*
X136840D01*
X136882D01*
X136952Y175696D01*
X137037D01*
X137206Y175752D01*
X137291Y175781D01*
X137361Y175837D01*
Y175851D01*
X137389Y175865D01*
X137403Y175907D01*
X137432Y175964D01*
X137460Y176048D01*
X137488Y176133D01*
X137502Y176246D01*
X137516Y176373D01*
Y177134D01*
X137502Y177204D01*
Y177289D01*
X137446Y177458D01*
X137418Y177543D01*
X137361Y177613D01*
X137347Y177627D01*
X137333Y177641D01*
X137291Y177670D01*
X137234Y177698D01*
X137164Y177726D01*
X137065Y177740D01*
X136952Y177768D01*
X136826D01*
X131412D01*
X131398D01*
X131370D01*
X131285Y177796D01*
X131243Y177839D01*
X131215Y177881D01*
X131187Y177952D01*
X131173Y178036D01*
Y179079D01*
X131201Y179164D01*
X131229Y179206D01*
X131271Y179248D01*
X131328Y179277D01*
X131398Y179291D01*
X136896D01*
X136910D01*
X136938D01*
X136981D01*
X137051Y179277D01*
D02*
G37*
G36*
X138700Y260756D02*
X138757Y260728D01*
X138785Y260686D01*
X138813Y260629D01*
X138827Y260545D01*
Y256203D01*
X138799Y256118D01*
X138771Y256076D01*
X138729Y256033D01*
X138672Y256005D01*
X138588Y255991D01*
X137446D01*
X137432D01*
X137418D01*
X137333Y256005D01*
X137206Y256019D01*
X137051Y256062D01*
X136868Y256132D01*
X136671Y256245D01*
X136473Y256386D01*
X136290Y256583D01*
X134429Y258768D01*
X134415Y258797D01*
X134359Y258853D01*
X134260Y258937D01*
X134147Y259036D01*
X134006Y259135D01*
X133851Y259219D01*
X133668Y259276D01*
X133484Y259304D01*
X133118D01*
X133104D01*
X133062D01*
X132991Y259290D01*
X132921D01*
X132737Y259234D01*
X132667Y259191D01*
X132596Y259135D01*
X132582Y259121D01*
X132568Y259107D01*
X132540Y259064D01*
X132512Y259008D01*
X132484Y258923D01*
X132456Y258825D01*
X132427Y258712D01*
Y258092D01*
X132441Y258021D01*
Y257937D01*
X132498Y257768D01*
X132540Y257683D01*
X132596Y257612D01*
X132625Y257584D01*
X132667Y257570D01*
X132723Y257542D01*
X132794Y257514D01*
X132878Y257486D01*
X132991Y257471D01*
X133118Y257457D01*
X133499D01*
X133513D01*
X133541D01*
X133625Y257429D01*
X133682Y257401D01*
X133724Y257359D01*
X133752Y257302D01*
X133766Y257218D01*
Y256160D01*
X133738Y256076D01*
X133696Y256033D01*
X133654Y255991D01*
X133583Y255963D01*
X133499Y255949D01*
X133104D01*
X133090D01*
X133062D01*
X133019D01*
X132949Y255963D01*
X132780Y255977D01*
X132582Y256019D01*
X132343Y256076D01*
X132117Y256160D01*
X131877Y256287D01*
X131680Y256457D01*
X131652Y256485D01*
X131595Y256555D01*
X131525Y256668D01*
X131426Y256837D01*
X131328Y257034D01*
X131257Y257288D01*
X131201Y257584D01*
X131173Y257908D01*
Y258909D01*
X131187Y258980D01*
X131201Y259149D01*
X131229Y259360D01*
X131299Y259600D01*
X131384Y259840D01*
X131511Y260065D01*
X131680Y260277D01*
X131708Y260305D01*
X131765Y260361D01*
X131892Y260432D01*
X132047Y260530D01*
X132244Y260629D01*
X132484Y260700D01*
X132780Y260756D01*
X133104Y260784D01*
X133569D01*
X133583D01*
X133611D01*
X133654D01*
X133724Y260770D01*
X133809D01*
X133893Y260742D01*
X134105Y260700D01*
X134359Y260615D01*
X134612Y260488D01*
X134739Y260404D01*
X134880Y260319D01*
X134993Y260206D01*
X135120Y260079D01*
X137023Y257838D01*
X137051Y257810D01*
X137107Y257768D01*
X137192Y257711D01*
X137248Y257697D01*
X137305Y257683D01*
X137502D01*
Y260587D01*
X137530Y260672D01*
X137559Y260714D01*
X137615Y260742D01*
X137671Y260770D01*
X137756Y260784D01*
X138588D01*
X138602D01*
X138630D01*
X138700Y260756D01*
D02*
G37*
G36*
X137051Y254765D02*
X137220Y254751D01*
X137418Y254722D01*
X137657Y254652D01*
X137897Y254568D01*
X138123Y254441D01*
X138334Y254271D01*
X138348Y254243D01*
X138404Y254173D01*
X138489Y254060D01*
X138574Y253905D01*
X138672Y253693D01*
X138743Y253454D01*
X138799Y253158D01*
X138827Y252833D01*
Y251551D01*
X138813Y251480D01*
Y251396D01*
X138799Y251311D01*
X138771Y251100D01*
X138700Y250860D01*
X138616Y250620D01*
X138503Y250381D01*
X138334Y250169D01*
X138306Y250141D01*
X138235Y250085D01*
X138123Y250014D01*
X137967Y249916D01*
X137756Y249817D01*
X137516Y249746D01*
X137220Y249690D01*
X136896Y249662D01*
X133104D01*
X133090D01*
X133062D01*
X133019D01*
X132949Y249676D01*
X132780Y249690D01*
X132582Y249732D01*
X132343Y249789D01*
X132117Y249873D01*
X131877Y250000D01*
X131680Y250169D01*
X131652Y250197D01*
X131595Y250268D01*
X131525Y250381D01*
X131426Y250550D01*
X131328Y250761D01*
X131257Y251015D01*
X131201Y251297D01*
X131173Y251635D01*
Y252918D01*
X131187Y252989D01*
X131201Y253158D01*
X131229Y253369D01*
X131299Y253595D01*
X131384Y253834D01*
X131511Y254060D01*
X131680Y254271D01*
X131708Y254300D01*
X131765Y254356D01*
X131892Y254426D01*
X132047Y254525D01*
X132244Y254624D01*
X132484Y254694D01*
X132780Y254751D01*
X133104Y254779D01*
X136896D01*
X136910D01*
X136938D01*
X136981D01*
X137051Y254765D01*
D02*
G37*
G36*
X138729Y248224D02*
X138785Y248196D01*
Y248181D01*
X138799Y248153D01*
X138813Y248097D01*
X138827Y248012D01*
Y246941D01*
X138799Y246870D01*
X138771Y246814D01*
X138729Y246786D01*
X138672Y246758D01*
X138588Y246744D01*
X132780D01*
X133442Y245574D01*
Y245560D01*
X133456Y245531D01*
X133470Y245447D01*
X133456Y245404D01*
X133428Y245362D01*
X133386Y245334D01*
X133301Y245320D01*
X132329D01*
X132315D01*
X132300D01*
X132216Y245348D01*
X132103Y245404D01*
X132061Y245447D01*
X132018Y245503D01*
X131328Y246589D01*
X131314Y246603D01*
X131299Y246631D01*
X131271Y246687D01*
X131243Y246744D01*
X131201Y246899D01*
X131173Y246983D01*
Y248041D01*
X131201Y248125D01*
X131229Y248167D01*
X131271Y248210D01*
X131328Y248238D01*
X131412Y248252D01*
X138588D01*
X138616D01*
X138658D01*
X138729Y248224D01*
D02*
G37*
G36*
X137051Y244319D02*
X137220Y244305D01*
X137418Y244263D01*
X137657Y244206D01*
X137897Y244107D01*
X138123Y243981D01*
X138334Y243811D01*
X138348Y243783D01*
X138404Y243713D01*
X138489Y243600D01*
X138574Y243445D01*
X138672Y243234D01*
X138743Y242994D01*
X138799Y242698D01*
X138827Y242374D01*
Y241091D01*
X138813Y241020D01*
X138799Y240851D01*
X138771Y240640D01*
X138700Y240400D01*
X138616Y240160D01*
X138503Y239935D01*
X138334Y239723D01*
X138306Y239695D01*
X138235Y239639D01*
X138123Y239568D01*
X137967Y239470D01*
X137756Y239371D01*
X137516Y239300D01*
X137220Y239244D01*
X136896Y239216D01*
X135768D01*
X135754D01*
X135726D01*
X135641Y239244D01*
X135599Y239272D01*
X135557Y239314D01*
X135529Y239371D01*
X135514Y239456D01*
Y240513D01*
X135543Y240597D01*
X135571Y240640D01*
X135627Y240682D01*
X135684Y240710D01*
X135768Y240724D01*
X136826D01*
X136840D01*
X136882D01*
X136952Y240738D01*
X137037D01*
X137206Y240795D01*
X137291Y240823D01*
X137361Y240879D01*
Y240893D01*
X137389Y240907D01*
X137403Y240950D01*
X137432Y241006D01*
X137460Y241091D01*
X137488Y241175D01*
X137502Y241288D01*
X137516Y241415D01*
Y242176D01*
X137502Y242247D01*
Y242331D01*
X137446Y242500D01*
X137418Y242585D01*
X137361Y242656D01*
X137347Y242670D01*
X137333Y242684D01*
X137291Y242712D01*
X137234Y242740D01*
X137164Y242768D01*
X137065Y242782D01*
X136952Y242811D01*
X136826D01*
X131412D01*
X131398D01*
X131370D01*
X131285Y242839D01*
X131243Y242881D01*
X131215Y242923D01*
X131187Y242994D01*
X131173Y243078D01*
Y244122D01*
X131201Y244206D01*
X131229Y244249D01*
X131271Y244291D01*
X131328Y244319D01*
X131398Y244333D01*
X136896D01*
X136910D01*
X136938D01*
X136981D01*
X137051Y244319D01*
D02*
G37*
G36*
X138729Y229685D02*
X138785Y229657D01*
Y229642D01*
X138799Y229614D01*
X138813Y229558D01*
X138827Y229473D01*
Y228402D01*
X138799Y228331D01*
X138771Y228275D01*
X138729Y228247D01*
X138672Y228219D01*
X138588Y228204D01*
X132780D01*
X133442Y227034D01*
Y227020D01*
X133456Y226992D01*
X133470Y226908D01*
X133456Y226865D01*
X133428Y226823D01*
X133386Y226795D01*
X133301Y226781D01*
X132329D01*
X132315D01*
X132300D01*
X132216Y226809D01*
X132103Y226865D01*
X132061Y226908D01*
X132018Y226964D01*
X131328Y228049D01*
X131314Y228064D01*
X131299Y228092D01*
X131271Y228148D01*
X131243Y228204D01*
X131201Y228360D01*
X131173Y228444D01*
Y229501D01*
X131201Y229586D01*
X131229Y229628D01*
X131271Y229671D01*
X131328Y229699D01*
X131412Y229713D01*
X138588D01*
X138616D01*
X138658D01*
X138729Y229685D01*
D02*
G37*
G36*
X137051Y225836D02*
X137220Y225822D01*
X137418Y225794D01*
X137657Y225723D01*
X137897Y225639D01*
X138123Y225512D01*
X138334Y225343D01*
X138348Y225315D01*
X138404Y225244D01*
X138489Y225131D01*
X138574Y224976D01*
X138672Y224765D01*
X138743Y224525D01*
X138799Y224229D01*
X138827Y223905D01*
Y222622D01*
X138813Y222552D01*
Y222467D01*
X138799Y222382D01*
X138771Y222171D01*
X138700Y221931D01*
X138616Y221692D01*
X138503Y221452D01*
X138334Y221241D01*
X138306Y221212D01*
X138235Y221156D01*
X138123Y221085D01*
X137967Y220987D01*
X137756Y220888D01*
X137516Y220818D01*
X137220Y220761D01*
X136896Y220733D01*
X133104D01*
X133090D01*
X133062D01*
X133019D01*
X132949Y220747D01*
X132780Y220761D01*
X132582Y220804D01*
X132343Y220860D01*
X132117Y220944D01*
X131877Y221071D01*
X131680Y221241D01*
X131652Y221269D01*
X131595Y221339D01*
X131525Y221452D01*
X131426Y221621D01*
X131328Y221833D01*
X131257Y222086D01*
X131201Y222368D01*
X131173Y222707D01*
Y223990D01*
X131187Y224060D01*
X131201Y224229D01*
X131229Y224441D01*
X131299Y224666D01*
X131384Y224906D01*
X131511Y225131D01*
X131680Y225343D01*
X131708Y225371D01*
X131765Y225427D01*
X131892Y225498D01*
X132047Y225597D01*
X132244Y225695D01*
X132484Y225766D01*
X132780Y225822D01*
X133104Y225850D01*
X136896D01*
X136910D01*
X136938D01*
X136981D01*
X137051Y225836D01*
D02*
G37*
G36*
X138729Y219295D02*
X138785Y219267D01*
Y219253D01*
X138799Y219225D01*
X138813Y219168D01*
X138827Y219084D01*
Y218012D01*
X138799Y217942D01*
X138771Y217885D01*
X138729Y217857D01*
X138672Y217829D01*
X138588Y217815D01*
X132780D01*
X133442Y216645D01*
Y216631D01*
X133456Y216603D01*
X133470Y216518D01*
X133456Y216476D01*
X133428Y216434D01*
X133386Y216405D01*
X133301Y216391D01*
X132329D01*
X132315D01*
X132300D01*
X132216Y216419D01*
X132103Y216476D01*
X132061Y216518D01*
X132018Y216574D01*
X131328Y217660D01*
X131314Y217674D01*
X131299Y217702D01*
X131271Y217759D01*
X131243Y217815D01*
X131201Y217970D01*
X131173Y218055D01*
Y219112D01*
X131201Y219196D01*
X131229Y219239D01*
X131271Y219281D01*
X131328Y219309D01*
X131412Y219323D01*
X138588D01*
X138616D01*
X138658D01*
X138729Y219295D01*
D02*
G37*
G36*
X137051Y215390D02*
X137220Y215376D01*
X137418Y215334D01*
X137657Y215278D01*
X137897Y215179D01*
X138123Y215052D01*
X138334Y214883D01*
X138348Y214855D01*
X138404Y214784D01*
X138489Y214671D01*
X138574Y214516D01*
X138672Y214305D01*
X138743Y214065D01*
X138799Y213769D01*
X138827Y213445D01*
Y212162D01*
X138813Y212092D01*
X138799Y211922D01*
X138771Y211711D01*
X138700Y211471D01*
X138616Y211232D01*
X138503Y211006D01*
X138334Y210795D01*
X138306Y210767D01*
X138235Y210710D01*
X138123Y210640D01*
X137967Y210541D01*
X137756Y210442D01*
X137516Y210372D01*
X137220Y210315D01*
X136896Y210287D01*
X135768D01*
X135754D01*
X135726D01*
X135641Y210315D01*
X135599Y210344D01*
X135557Y210386D01*
X135529Y210442D01*
X135514Y210527D01*
Y211584D01*
X135543Y211669D01*
X135571Y211711D01*
X135627Y211753D01*
X135684Y211782D01*
X135768Y211796D01*
X136826D01*
X136840D01*
X136882D01*
X136952Y211810D01*
X137037D01*
X137206Y211866D01*
X137291Y211894D01*
X137361Y211951D01*
Y211965D01*
X137389Y211979D01*
X137403Y212021D01*
X137432Y212078D01*
X137460Y212162D01*
X137488Y212247D01*
X137502Y212359D01*
X137516Y212486D01*
Y213248D01*
X137502Y213318D01*
Y213403D01*
X137446Y213572D01*
X137418Y213656D01*
X137361Y213727D01*
X137347Y213741D01*
X137333Y213755D01*
X137291Y213783D01*
X137234Y213811D01*
X137164Y213840D01*
X137065Y213854D01*
X136952Y213882D01*
X136826D01*
X131412D01*
X131398D01*
X131370D01*
X131285Y213910D01*
X131243Y213952D01*
X131215Y213995D01*
X131187Y214065D01*
X131173Y214150D01*
Y215193D01*
X131201Y215278D01*
X131229Y215320D01*
X131271Y215362D01*
X131328Y215390D01*
X131398Y215404D01*
X136896D01*
X136910D01*
X136938D01*
X136981D01*
X137051Y215390D01*
D02*
G37*
G36*
X103668Y304417D02*
X103723Y304389D01*
Y304375D01*
X103737Y304347D01*
X103751Y304292D01*
X103765Y304209D01*
Y303155D01*
X103737Y303085D01*
X103710Y303030D01*
X103668Y303002D01*
X103612Y302975D01*
X103529Y302961D01*
X97816D01*
X98467Y301810D01*
Y301796D01*
X98481Y301768D01*
X98495Y301685D01*
X98481Y301643D01*
X98453Y301602D01*
X98412Y301574D01*
X98329Y301560D01*
X97372D01*
X97358D01*
X97344D01*
X97261Y301588D01*
X97150Y301643D01*
X97108Y301685D01*
X97067Y301740D01*
X96387Y302808D01*
X96373Y302822D01*
X96359Y302850D01*
X96332Y302905D01*
X96304Y302961D01*
X96262Y303113D01*
X96235Y303196D01*
Y304237D01*
X96262Y304320D01*
X96290Y304361D01*
X96332Y304403D01*
X96387Y304431D01*
X96470Y304445D01*
X103529D01*
X103557D01*
X103599D01*
X103668Y304417D01*
D02*
G37*
G36*
X102018Y300575D02*
X102184Y300562D01*
X102378Y300520D01*
X102614Y300464D01*
X102850Y300367D01*
X103072Y300243D01*
X103280Y300076D01*
X103294Y300048D01*
X103349Y299979D01*
X103432Y299868D01*
X103515Y299715D01*
X103612Y299508D01*
X103682Y299272D01*
X103737Y298981D01*
X103765Y298661D01*
Y297400D01*
X103751Y297330D01*
X103737Y297164D01*
X103710Y296956D01*
X103640Y296720D01*
X103557Y296484D01*
X103446Y296262D01*
X103280Y296054D01*
X103252Y296026D01*
X103183Y295971D01*
X103072Y295902D01*
X102919Y295805D01*
X102711Y295707D01*
X102475Y295638D01*
X102184Y295583D01*
X101865Y295555D01*
X100756D01*
X100742D01*
X100714D01*
X100631Y295583D01*
X100589Y295610D01*
X100548Y295652D01*
X100520Y295707D01*
X100506Y295791D01*
Y296831D01*
X100534Y296914D01*
X100561Y296956D01*
X100617Y296997D01*
X100672Y297025D01*
X100756Y297039D01*
X101796D01*
X101810D01*
X101851D01*
X101920Y297053D01*
X102004D01*
X102170Y297108D01*
X102253Y297136D01*
X102323Y297191D01*
Y297205D01*
X102351Y297219D01*
X102364Y297261D01*
X102392Y297316D01*
X102420Y297400D01*
X102448Y297483D01*
X102461Y297594D01*
X102475Y297718D01*
Y298467D01*
X102461Y298537D01*
Y298620D01*
X102406Y298786D01*
X102378Y298869D01*
X102323Y298939D01*
X102309Y298953D01*
X102295Y298967D01*
X102253Y298994D01*
X102198Y299022D01*
X102129Y299050D01*
X102031Y299064D01*
X101920Y299091D01*
X101796D01*
X96470D01*
X96456D01*
X96429D01*
X96346Y299119D01*
X96304Y299161D01*
X96276Y299202D01*
X96248Y299272D01*
X96235Y299355D01*
Y300381D01*
X96262Y300464D01*
X96290Y300506D01*
X96332Y300548D01*
X96387Y300575D01*
X96456Y300589D01*
X101865D01*
X101879D01*
X101907D01*
X101948D01*
X102018Y300575D01*
D02*
G37*
G36*
X263654Y73814D02*
X263696Y73786D01*
X263724Y73731D01*
X263751Y73675D01*
X263765Y73592D01*
Y69806D01*
X263738Y69723D01*
X263710Y69681D01*
X263668Y69653D01*
X263613Y69626D01*
X263529Y69612D01*
X262725D01*
X262711D01*
X262684D01*
X262600Y69639D01*
X262559Y69667D01*
X262517Y69709D01*
X262489Y69764D01*
X262475Y69847D01*
Y72233D01*
X262462Y72274D01*
X262420Y72316D01*
X262351Y72344D01*
X260534D01*
X260506D01*
X260465Y72330D01*
X260423Y72288D01*
X260395Y72205D01*
Y70153D01*
X260368Y70069D01*
X260340Y70028D01*
X260284Y69986D01*
X260229Y69958D01*
X260146Y69945D01*
X259355D01*
X259341D01*
X259314D01*
X259230Y69972D01*
X259189Y70000D01*
X259147Y70055D01*
X259119Y70111D01*
X259105Y70194D01*
Y72233D01*
X259092Y72274D01*
X259050Y72316D01*
X258967Y72344D01*
X256471D01*
X256457D01*
X256429D01*
X256360Y72372D01*
X256304Y72399D01*
X256276Y72455D01*
X256249Y72510D01*
X256235Y72593D01*
Y73633D01*
X256262Y73717D01*
X256290Y73758D01*
X256332Y73800D01*
X256387Y73828D01*
X256471Y73842D01*
X263529D01*
X263543D01*
X263571D01*
X263654Y73814D01*
D02*
G37*
G36*
X262739Y69015D02*
X262850Y68960D01*
X262892Y68918D01*
X262933Y68863D01*
X263613Y67795D01*
X263627Y67781D01*
X263640Y67753D01*
X263668Y67698D01*
X263696Y67642D01*
X263738Y67490D01*
X263765Y67407D01*
Y66367D01*
X263738Y66283D01*
X263710Y66242D01*
X263668Y66200D01*
X263613Y66172D01*
X263529Y66158D01*
X256471D01*
X256443D01*
X256401D01*
X256332Y66186D01*
X256276Y66214D01*
Y66228D01*
X256262Y66255D01*
X256249Y66311D01*
X256235Y66394D01*
Y67448D01*
X256262Y67518D01*
X256290Y67573D01*
X256332Y67601D01*
X256387Y67628D01*
X256471Y67642D01*
X262184D01*
X261532Y68794D01*
Y68807D01*
X261519Y68835D01*
X261505Y68918D01*
X261519Y68960D01*
X261546Y69001D01*
X261588Y69029D01*
X261671Y69043D01*
X262628D01*
X262642D01*
X262656D01*
X262739Y69015D01*
D02*
G37*
G36*
X31618Y99919D02*
X31784Y99905D01*
X31992Y99877D01*
X32214Y99808D01*
X32450Y99725D01*
X32672Y99600D01*
X32880Y99434D01*
X32908Y99406D01*
X32963Y99350D01*
X33047Y99226D01*
X33143Y99073D01*
X33227Y98879D01*
X33310Y98643D01*
X33365Y98352D01*
X33393Y98033D01*
Y97478D01*
Y97464D01*
Y97437D01*
X33365Y97353D01*
X33338Y97298D01*
X33282Y97256D01*
X33227Y97228D01*
X33143Y97215D01*
X32117D01*
X32034Y97242D01*
X31992Y97284D01*
X31951Y97326D01*
X31923Y97395D01*
X31909Y97478D01*
Y97964D01*
Y97977D01*
Y98019D01*
X31895Y98088D01*
Y98172D01*
X31840Y98338D01*
X31798Y98421D01*
X31743Y98491D01*
Y98504D01*
X31715Y98518D01*
X31674Y98546D01*
X31618Y98574D01*
X31549Y98602D01*
X31452Y98615D01*
X31341Y98643D01*
X30370D01*
X30301Y98629D01*
X30217D01*
X30037Y98574D01*
X29954Y98546D01*
X29885Y98491D01*
X29857Y98463D01*
X29843Y98421D01*
X29815Y98366D01*
X29787Y98296D01*
X29760Y98199D01*
X29746Y98088D01*
X29732Y97964D01*
Y94372D01*
Y94358D01*
Y94316D01*
X29746Y94247D01*
Y94164D01*
X29801Y93997D01*
X29829Y93914D01*
X29885Y93845D01*
X29898D01*
X29912Y93817D01*
X29954Y93803D01*
X30009Y93775D01*
X30092Y93748D01*
X30190Y93720D01*
X30301Y93706D01*
X30425Y93692D01*
X31271D01*
X31341Y93706D01*
X31424D01*
X31590Y93761D01*
X31674Y93789D01*
X31743Y93845D01*
X31757Y93858D01*
X31771Y93872D01*
X31798Y93914D01*
X31826Y93969D01*
X31854Y94039D01*
X31881Y94136D01*
X31909Y94247D01*
Y94372D01*
Y94857D01*
Y94871D01*
Y94899D01*
X31937Y94996D01*
X31965Y95037D01*
X32020Y95079D01*
X32076Y95107D01*
X32159Y95120D01*
X33185D01*
X33268Y95093D01*
X33310Y95051D01*
X33352Y95010D01*
X33379Y94940D01*
X33393Y94857D01*
Y94302D01*
Y94288D01*
Y94261D01*
Y94219D01*
X33379Y94150D01*
X33365Y93983D01*
X33324Y93789D01*
X33268Y93553D01*
X33171Y93318D01*
X33047Y93096D01*
X32880Y92888D01*
X32852Y92874D01*
X32783Y92818D01*
X32672Y92735D01*
X32520Y92652D01*
X32311Y92555D01*
X32076Y92486D01*
X31784Y92430D01*
X31465Y92402D01*
X30106D01*
X30037Y92416D01*
X29954D01*
X29871Y92430D01*
X29663Y92458D01*
X29427Y92527D01*
X29191Y92610D01*
X28955Y92721D01*
X28747Y92888D01*
X28719Y92915D01*
X28664Y92985D01*
X28595Y93096D01*
X28498Y93248D01*
X28401Y93456D01*
X28331Y93692D01*
X28276Y93983D01*
X28248Y94302D01*
Y98033D01*
Y98047D01*
Y98075D01*
Y98116D01*
X28262Y98186D01*
X28276Y98352D01*
X28317Y98546D01*
X28373Y98782D01*
X28456Y99004D01*
X28581Y99240D01*
X28747Y99434D01*
X28775Y99461D01*
X28844Y99517D01*
X28955Y99586D01*
X29122Y99683D01*
X29330Y99780D01*
X29579Y99850D01*
X29857Y99905D01*
X30190Y99933D01*
X31549D01*
X31618Y99919D01*
D02*
G37*
G36*
X18817D02*
X18984Y99905D01*
X19192Y99877D01*
X19414Y99808D01*
X19650Y99725D01*
X19871Y99600D01*
X20080Y99434D01*
X20107Y99406D01*
X20163Y99350D01*
X20246Y99226D01*
X20343Y99073D01*
X20426Y98879D01*
X20509Y98643D01*
X20565Y98352D01*
X20593Y98033D01*
Y97478D01*
Y97464D01*
Y97437D01*
X20565Y97353D01*
X20537Y97298D01*
X20482Y97256D01*
X20426Y97228D01*
X20343Y97215D01*
X19317D01*
X19233Y97242D01*
X19192Y97284D01*
X19150Y97326D01*
X19123Y97395D01*
X19109Y97478D01*
Y97964D01*
Y97977D01*
Y98019D01*
X19095Y98088D01*
Y98172D01*
X19039Y98338D01*
X18998Y98421D01*
X18942Y98491D01*
Y98504D01*
X18915Y98518D01*
X18873Y98546D01*
X18817Y98574D01*
X18748Y98602D01*
X18651Y98615D01*
X18540Y98643D01*
X17569D01*
X17500Y98629D01*
X17417D01*
X17236Y98574D01*
X17153Y98546D01*
X17084Y98491D01*
X17056Y98463D01*
X17042Y98421D01*
X17015Y98366D01*
X16987Y98296D01*
X16959Y98199D01*
X16945Y98088D01*
X16931Y97964D01*
Y94372D01*
Y94358D01*
Y94316D01*
X16945Y94247D01*
Y94164D01*
X17001Y93997D01*
X17028Y93914D01*
X17084Y93845D01*
X17098D01*
X17112Y93817D01*
X17153Y93803D01*
X17209Y93775D01*
X17292Y93748D01*
X17389Y93720D01*
X17500Y93706D01*
X17625Y93692D01*
X18471D01*
X18540Y93706D01*
X18623D01*
X18790Y93761D01*
X18873Y93789D01*
X18942Y93845D01*
X18956Y93858D01*
X18970Y93872D01*
X18998Y93914D01*
X19025Y93969D01*
X19053Y94039D01*
X19081Y94136D01*
X19109Y94247D01*
Y94372D01*
Y94857D01*
Y94871D01*
Y94899D01*
X19137Y94996D01*
X19164Y95037D01*
X19220Y95079D01*
X19275Y95107D01*
X19358Y95120D01*
X20385D01*
X20468Y95093D01*
X20509Y95051D01*
X20551Y95010D01*
X20579Y94940D01*
X20593Y94857D01*
Y94302D01*
Y94288D01*
Y94261D01*
Y94219D01*
X20579Y94150D01*
X20565Y93983D01*
X20523Y93789D01*
X20468Y93553D01*
X20371Y93318D01*
X20246Y93096D01*
X20080Y92888D01*
X20052Y92874D01*
X19982Y92818D01*
X19871Y92735D01*
X19719Y92652D01*
X19511Y92555D01*
X19275Y92486D01*
X18984Y92430D01*
X18665Y92402D01*
X17306D01*
X17236Y92416D01*
X17153D01*
X17070Y92430D01*
X16862Y92458D01*
X16626Y92527D01*
X16391Y92610D01*
X16155Y92721D01*
X15947Y92888D01*
X15919Y92915D01*
X15863Y92985D01*
X15794Y93096D01*
X15697Y93248D01*
X15600Y93456D01*
X15531Y93692D01*
X15475Y93983D01*
X15447Y94302D01*
Y98033D01*
Y98047D01*
Y98075D01*
Y98116D01*
X15461Y98186D01*
X15475Y98352D01*
X15517Y98546D01*
X15572Y98782D01*
X15655Y99004D01*
X15780Y99240D01*
X15947Y99434D01*
X15975Y99461D01*
X16044Y99517D01*
X16155Y99586D01*
X16321Y99683D01*
X16529Y99780D01*
X16779Y99850D01*
X17056Y99905D01*
X17389Y99933D01*
X18748D01*
X18817Y99919D01*
D02*
G37*
G36*
X36944Y99905D02*
X36985Y99877D01*
X37027Y99836D01*
X37054Y99780D01*
X37068Y99697D01*
Y92638D01*
Y92610D01*
Y92569D01*
X37041Y92499D01*
X37013Y92444D01*
X36999D01*
X36971Y92430D01*
X36916Y92416D01*
X36832Y92402D01*
X35779D01*
X35709Y92430D01*
X35654Y92458D01*
X35626Y92499D01*
X35598Y92555D01*
X35584Y92638D01*
Y98352D01*
X34433Y97700D01*
X34419D01*
X34392Y97686D01*
X34309Y97672D01*
X34267Y97686D01*
X34225Y97714D01*
X34197Y97755D01*
X34184Y97839D01*
Y98796D01*
Y98809D01*
Y98823D01*
X34211Y98907D01*
X34267Y99018D01*
X34309Y99059D01*
X34364Y99101D01*
X35432Y99780D01*
X35446Y99794D01*
X35473Y99808D01*
X35529Y99836D01*
X35584Y99864D01*
X35737Y99905D01*
X35820Y99933D01*
X36860D01*
X36944Y99905D01*
D02*
G37*
G36*
X25169Y99919D02*
X25336Y99905D01*
X25544Y99877D01*
X25766Y99808D01*
X26001Y99725D01*
X26237Y99600D01*
X26445Y99434D01*
X26473Y99406D01*
X26528Y99350D01*
X26611Y99226D01*
X26709Y99073D01*
X26792Y98879D01*
X26875Y98643D01*
X26930Y98352D01*
X26958Y98033D01*
Y94302D01*
Y94288D01*
Y94261D01*
Y94219D01*
X26944Y94150D01*
X26930Y93983D01*
X26889Y93789D01*
X26833Y93553D01*
X26736Y93318D01*
X26611Y93096D01*
X26445Y92888D01*
X26417Y92874D01*
X26348Y92818D01*
X26237Y92735D01*
X26071Y92652D01*
X25877Y92555D01*
X25627Y92486D01*
X25336Y92430D01*
X25017Y92402D01*
X22077D01*
X21993Y92430D01*
X21952Y92458D01*
X21910Y92499D01*
X21882Y92555D01*
X21869Y92638D01*
Y99697D01*
Y99711D01*
Y99739D01*
X21896Y99822D01*
X21924Y99864D01*
X21979Y99891D01*
X22035Y99919D01*
X22118Y99933D01*
X25100D01*
X25169Y99919D01*
D02*
G37*
G36*
X12369D02*
X12535Y99905D01*
X12743Y99877D01*
X12965Y99808D01*
X13201Y99725D01*
X13436Y99600D01*
X13645Y99434D01*
X13672Y99406D01*
X13728Y99350D01*
X13811Y99226D01*
X13908Y99073D01*
X13991Y98879D01*
X14074Y98643D01*
X14130Y98352D01*
X14158Y98033D01*
Y94302D01*
Y94288D01*
Y94261D01*
Y94219D01*
X14144Y94150D01*
X14130Y93983D01*
X14088Y93789D01*
X14033Y93553D01*
X13936Y93318D01*
X13811Y93096D01*
X13645Y92888D01*
X13617Y92874D01*
X13548Y92818D01*
X13436Y92735D01*
X13270Y92652D01*
X13076Y92555D01*
X12826Y92486D01*
X12535Y92430D01*
X12216Y92402D01*
X9276D01*
X9193Y92430D01*
X9151Y92458D01*
X9110Y92499D01*
X9082Y92555D01*
X9068Y92638D01*
Y99697D01*
Y99711D01*
Y99739D01*
X9096Y99822D01*
X9123Y99864D01*
X9179Y99891D01*
X9234Y99919D01*
X9318Y99933D01*
X12299D01*
X12369Y99919D01*
D02*
G37*
%LPC*%
G36*
X218918Y31924D02*
X215103D01*
X214992Y31887D01*
X214844Y31776D01*
X214807Y31590D01*
Y19036D01*
Y18999D01*
X214844Y18888D01*
X214955Y18740D01*
X215140Y18703D01*
X218733D01*
X218881Y18740D01*
X219103D01*
X219584Y18888D01*
X219806Y18962D01*
X219992Y19110D01*
X220029Y19147D01*
X220066Y19184D01*
X220140Y19295D01*
X220214Y19444D01*
X220288Y19629D01*
X220325Y19888D01*
X220399Y20184D01*
Y20517D01*
Y30109D01*
Y30146D01*
Y30257D01*
X220362Y30442D01*
Y30665D01*
X220214Y31109D01*
X220140Y31331D01*
X219992Y31516D01*
Y31553D01*
X219918Y31590D01*
X219806Y31664D01*
X219658Y31739D01*
X219473Y31813D01*
X219214Y31850D01*
X218918Y31924D01*
D02*
G37*
G36*
X179181Y31590D02*
X179070D01*
X176811Y22554D01*
X181440D01*
X179181Y31590D01*
D02*
G37*
G36*
X370369Y202516D02*
X369044D01*
X369002Y202502D01*
X368945Y202460D01*
X368931Y202390D01*
Y200345D01*
Y200317D01*
X368945Y200275D01*
X368988Y200233D01*
X369058Y200204D01*
X370285D01*
X370355Y200219D01*
X370440D01*
X370623Y200275D01*
X370722Y200303D01*
X370792Y200359D01*
X370806Y200374D01*
X370820Y200388D01*
X370849Y200430D01*
X370891Y200486D01*
X370919Y200571D01*
X370947Y200655D01*
X370961Y200768D01*
X370975Y200895D01*
Y201826D01*
Y201840D01*
Y201882D01*
X370961Y201952D01*
X370947Y202023D01*
X370905Y202206D01*
X370849Y202277D01*
X370792Y202347D01*
X370778Y202361D01*
X370764Y202375D01*
X370708Y202404D01*
X370651Y202432D01*
X370581Y202460D01*
X370482Y202488D01*
X370369Y202516D01*
D02*
G37*
G36*
X340411D02*
X339086D01*
X339044Y202502D01*
X338988Y202460D01*
X338974Y202390D01*
Y200345D01*
Y200317D01*
X338988Y200275D01*
X339030Y200233D01*
X339100Y200204D01*
X340327D01*
X340397Y200219D01*
X340482D01*
X340665Y200275D01*
X340764Y200303D01*
X340834Y200359D01*
X340848Y200374D01*
X340863Y200388D01*
X340891Y200430D01*
X340933Y200486D01*
X340961Y200571D01*
X340989Y200655D01*
X341003Y200768D01*
X341018Y200895D01*
Y201826D01*
Y201840D01*
Y201882D01*
X341003Y201952D01*
X340989Y202023D01*
X340947Y202206D01*
X340891Y202277D01*
X340834Y202347D01*
X340820Y202361D01*
X340806Y202375D01*
X340750Y202404D01*
X340693Y202432D01*
X340623Y202460D01*
X340524Y202488D01*
X340411Y202516D01*
D02*
G37*
G36*
X366985Y302953D02*
X365533D01*
X365491Y302939D01*
X365435Y302896D01*
X365421Y302826D01*
Y298047D01*
Y298033D01*
X365435Y297991D01*
X365477Y297934D01*
X365547Y297920D01*
X366915D01*
X366971Y297934D01*
X367056D01*
X367239Y297991D01*
X367324Y298019D01*
X367394Y298075D01*
X367408Y298089D01*
X367422Y298103D01*
X367451Y298146D01*
X367479Y298202D01*
X367507Y298272D01*
X367521Y298371D01*
X367549Y298484D01*
Y298611D01*
Y302262D01*
Y302276D01*
Y302318D01*
X367535Y302389D01*
Y302473D01*
X367479Y302643D01*
X367451Y302727D01*
X367394Y302798D01*
Y302812D01*
X367366Y302826D01*
X367324Y302854D01*
X367267Y302882D01*
X367197Y302910D01*
X367098Y302924D01*
X366985Y302953D01*
D02*
G37*
G36*
X337169D02*
X335717D01*
X335674Y302939D01*
X335618Y302896D01*
X335604Y302826D01*
Y298047D01*
Y298033D01*
X335618Y297991D01*
X335660Y297934D01*
X335731Y297920D01*
X337098D01*
X337154Y297934D01*
X337239D01*
X337422Y297991D01*
X337507Y298019D01*
X337577Y298075D01*
X337591Y298089D01*
X337606Y298103D01*
X337634Y298146D01*
X337662Y298202D01*
X337690Y298272D01*
X337704Y298371D01*
X337732Y298484D01*
Y298611D01*
Y302262D01*
Y302276D01*
Y302318D01*
X337718Y302389D01*
Y302473D01*
X337662Y302643D01*
X337634Y302727D01*
X337577Y302798D01*
Y302812D01*
X337549Y302826D01*
X337507Y302854D01*
X337450Y302882D01*
X337380Y302910D01*
X337281Y302924D01*
X337169Y302953D01*
D02*
G37*
G36*
X221981Y169537D02*
X221854D01*
X221304D01*
X221290D01*
X221248D01*
X221177Y169522D01*
X221092D01*
X220909Y169466D01*
X220825Y169438D01*
X220754Y169382D01*
X220740D01*
X220726Y169353D01*
X220698Y169311D01*
X220655Y169255D01*
X220627Y169184D01*
X220599Y169086D01*
X220585Y168973D01*
X220571Y168846D01*
Y167972D01*
X220585Y167901D01*
X220599Y167817D01*
X220641Y167648D01*
X220698Y167563D01*
X220754Y167493D01*
X220768D01*
X220782Y167464D01*
X220825Y167450D01*
X220881Y167422D01*
X220966Y167394D01*
X221050Y167366D01*
X221177Y167352D01*
X221304Y167337D01*
X221854D01*
X221868D01*
X221910D01*
X221981Y167352D01*
X222051D01*
X222234Y167408D01*
X222305Y167436D01*
X222375Y167493D01*
Y167507D01*
X222404Y167521D01*
X222418Y167563D01*
X222446Y167619D01*
X222474Y167690D01*
X222502Y167789D01*
X222516Y167901D01*
X222530Y168028D01*
Y168902D01*
X222516Y168973D01*
Y169057D01*
X222460Y169226D01*
X222432Y169311D01*
X222375Y169382D01*
X222361Y169396D01*
X222347Y169410D01*
X222305Y169438D01*
X222248Y169466D01*
X222178Y169494D01*
X222093Y169508D01*
X221981Y169537D01*
D02*
G37*
G36*
X218781D02*
X218640D01*
X218146D01*
X218132D01*
X218090D01*
X218019Y169522D01*
X217949D01*
X217766Y169466D01*
X217695Y169438D01*
X217625Y169382D01*
X217610D01*
X217596Y169353D01*
X217568Y169311D01*
X217540Y169255D01*
X217512Y169184D01*
X217498Y169086D01*
X217470Y168973D01*
Y167972D01*
X217484Y167901D01*
Y167817D01*
X217540Y167648D01*
X217568Y167563D01*
X217625Y167493D01*
X217653Y167464D01*
X217695Y167450D01*
X217752Y167422D01*
X217822Y167394D01*
X217907Y167366D01*
X218019Y167352D01*
X218146Y167337D01*
X218640D01*
X218654D01*
X218710D01*
X218781Y167352D01*
X218865D01*
X219048Y167408D01*
X219133Y167436D01*
X219218Y167493D01*
Y167507D01*
X219246Y167521D01*
X219274Y167563D01*
X219302Y167619D01*
X219330Y167690D01*
X219359Y167789D01*
X219373Y167901D01*
X219387Y168028D01*
Y168902D01*
X219373Y168973D01*
X219359Y169057D01*
X219316Y169226D01*
X219274Y169311D01*
X219218Y169382D01*
X219203Y169396D01*
X219175Y169410D01*
X219133Y169438D01*
X219077Y169466D01*
X218992Y169494D01*
X218893Y169508D01*
X218781Y169537D01*
D02*
G37*
G36*
X221952Y163052D02*
X221826D01*
X218174D01*
X218160D01*
X218118D01*
X218048Y163038D01*
X217963D01*
X217794Y162981D01*
X217709Y162953D01*
X217639Y162897D01*
X217625D01*
X217610Y162869D01*
X217582Y162826D01*
X217554Y162770D01*
X217526Y162700D01*
X217512Y162601D01*
X217484Y162488D01*
Y161600D01*
X217498Y161530D01*
Y161445D01*
X217554Y161276D01*
X217582Y161191D01*
X217639Y161121D01*
X217667Y161092D01*
X217709Y161078D01*
X217766Y161050D01*
X217836Y161022D01*
X217935Y160994D01*
X218048Y160980D01*
X218174Y160966D01*
X221826D01*
X221840D01*
X221882D01*
X221952Y160980D01*
X222037D01*
X222206Y161036D01*
X222291Y161064D01*
X222361Y161121D01*
Y161135D01*
X222389Y161149D01*
X222404Y161191D01*
X222432Y161248D01*
X222460Y161318D01*
X222488Y161417D01*
X222502Y161530D01*
X222516Y161656D01*
Y162418D01*
X222502Y162488D01*
Y162573D01*
X222446Y162742D01*
X222418Y162826D01*
X222361Y162897D01*
X222347Y162911D01*
X222333Y162925D01*
X222291Y162953D01*
X222234Y162981D01*
X222164Y163010D01*
X222065Y163024D01*
X221952Y163052D01*
D02*
G37*
G36*
Y258510D02*
X221826D01*
X218174D01*
X218160D01*
X218118D01*
X218048Y258496D01*
X217963D01*
X217794Y258440D01*
X217709Y258412D01*
X217639Y258355D01*
X217625D01*
X217610Y258327D01*
X217582Y258285D01*
X217554Y258228D01*
X217526Y258158D01*
X217512Y258059D01*
X217484Y257946D01*
Y257058D01*
X217498Y256988D01*
Y256903D01*
X217554Y256734D01*
X217582Y256649D01*
X217639Y256579D01*
X217667Y256551D01*
X217709Y256537D01*
X217766Y256508D01*
X217836Y256480D01*
X217935Y256452D01*
X218048Y256438D01*
X218174Y256424D01*
X221826D01*
X221840D01*
X221882D01*
X221952Y256438D01*
X222037D01*
X222206Y256494D01*
X222291Y256523D01*
X222361Y256579D01*
Y256593D01*
X222389Y256607D01*
X222404Y256649D01*
X222432Y256706D01*
X222460Y256776D01*
X222488Y256875D01*
X222502Y256988D01*
X222516Y257115D01*
Y257876D01*
X222502Y257946D01*
Y258031D01*
X222446Y258200D01*
X222418Y258285D01*
X222361Y258355D01*
X222347Y258369D01*
X222333Y258383D01*
X222291Y258412D01*
X222234Y258440D01*
X222164Y258468D01*
X222065Y258482D01*
X221952Y258510D01*
D02*
G37*
G36*
Y234452D02*
X221826D01*
X220994D01*
X220980D01*
X220937D01*
X220867Y234438D01*
X220782D01*
X220613Y234382D01*
X220529Y234339D01*
X220458Y234283D01*
X220444D01*
X220430Y234255D01*
X220402Y234212D01*
X220373Y234156D01*
X220345Y234086D01*
X220317Y233987D01*
X220289Y233874D01*
Y232380D01*
X221826D01*
X221840D01*
X221882D01*
X221952Y232394D01*
X222037D01*
X222206Y232450D01*
X222291Y232479D01*
X222361Y232535D01*
Y232549D01*
X222389Y232563D01*
X222404Y232605D01*
X222432Y232662D01*
X222460Y232732D01*
X222488Y232831D01*
X222502Y232944D01*
X222516Y233071D01*
Y233804D01*
X222502Y233874D01*
Y233959D01*
X222446Y234128D01*
X222418Y234212D01*
X222361Y234283D01*
X222347Y234297D01*
X222333Y234311D01*
X222291Y234339D01*
X222234Y234368D01*
X222164Y234396D01*
X222065Y234424D01*
X221952Y234452D01*
D02*
G37*
G36*
Y228094D02*
X221826D01*
X218174D01*
X218160D01*
X218118D01*
X218048Y228080D01*
X217963D01*
X217794Y228024D01*
X217709Y227996D01*
X217639Y227939D01*
X217625D01*
X217610Y227911D01*
X217582Y227869D01*
X217554Y227812D01*
X217526Y227742D01*
X217512Y227643D01*
X217484Y227530D01*
Y226642D01*
X217498Y226572D01*
Y226487D01*
X217554Y226318D01*
X217582Y226234D01*
X217639Y226163D01*
X217667Y226135D01*
X217709Y226121D01*
X217766Y226092D01*
X217836Y226064D01*
X217935Y226036D01*
X218048Y226022D01*
X218174Y226008D01*
X221826D01*
X221840D01*
X221882D01*
X221952Y226022D01*
X222037D01*
X222206Y226078D01*
X222291Y226107D01*
X222361Y226163D01*
Y226177D01*
X222389Y226191D01*
X222404Y226234D01*
X222432Y226290D01*
X222460Y226360D01*
X222488Y226459D01*
X222502Y226572D01*
X222516Y226699D01*
Y227460D01*
X222502Y227530D01*
Y227615D01*
X222446Y227784D01*
X222418Y227869D01*
X222361Y227939D01*
X222347Y227953D01*
X222333Y227967D01*
X222291Y227996D01*
X222234Y228024D01*
X222164Y228052D01*
X222065Y228066D01*
X221952Y228094D01*
D02*
G37*
G36*
Y198207D02*
X221826D01*
X218174D01*
X218160D01*
X218118D01*
X218048Y198193D01*
X217963D01*
X217794Y198137D01*
X217709Y198108D01*
X217639Y198052D01*
X217625D01*
X217610Y198024D01*
X217582Y197981D01*
X217554Y197925D01*
X217526Y197855D01*
X217512Y197756D01*
X217484Y197643D01*
Y196755D01*
X217498Y196685D01*
Y196600D01*
X217554Y196431D01*
X217582Y196346D01*
X217639Y196276D01*
X217667Y196248D01*
X217709Y196234D01*
X217766Y196205D01*
X217836Y196177D01*
X217935Y196149D01*
X218048Y196135D01*
X218174Y196121D01*
X221826D01*
X221840D01*
X221882D01*
X221952Y196135D01*
X222037D01*
X222206Y196191D01*
X222291Y196219D01*
X222361Y196276D01*
Y196290D01*
X222389Y196304D01*
X222404Y196346D01*
X222432Y196403D01*
X222460Y196473D01*
X222488Y196572D01*
X222502Y196685D01*
X222516Y196812D01*
Y197573D01*
X222502Y197643D01*
Y197728D01*
X222446Y197897D01*
X222418Y197981D01*
X222361Y198052D01*
X222347Y198066D01*
X222333Y198080D01*
X222291Y198108D01*
X222234Y198137D01*
X222164Y198165D01*
X222065Y198179D01*
X221952Y198207D01*
D02*
G37*
G36*
X158754Y137559D02*
X156809Y133879D01*
X158754D01*
Y137559D01*
D02*
G37*
G36*
X152241Y137516D02*
X151353D01*
X151283Y137502D01*
X151198D01*
X151029Y137446D01*
X150944Y137418D01*
X150874Y137361D01*
X150846Y137333D01*
X150832Y137291D01*
X150803Y137234D01*
X150775Y137164D01*
X150747Y137065D01*
X150733Y136952D01*
X150719Y136826D01*
Y133174D01*
Y133160D01*
Y133118D01*
X150733Y133048D01*
Y132963D01*
X150789Y132794D01*
X150818Y132709D01*
X150874Y132639D01*
X150888D01*
X150902Y132611D01*
X150944Y132597D01*
X151001Y132568D01*
X151071Y132540D01*
X151170Y132512D01*
X151283Y132498D01*
X151410Y132484D01*
X152171D01*
X152241Y132498D01*
X152326D01*
X152495Y132554D01*
X152580Y132582D01*
X152650Y132639D01*
X152664Y132653D01*
X152678Y132667D01*
X152707Y132709D01*
X152735Y132766D01*
X152763Y132836D01*
X152777Y132935D01*
X152805Y133048D01*
Y133174D01*
Y136826D01*
Y136840D01*
Y136882D01*
X152791Y136952D01*
Y137037D01*
X152735Y137206D01*
X152707Y137291D01*
X152650Y137361D01*
Y137375D01*
X152622Y137389D01*
X152580Y137418D01*
X152523Y137446D01*
X152453Y137474D01*
X152354Y137488D01*
X152241Y137516D01*
D02*
G37*
G36*
X136952Y188242D02*
X136826D01*
X133174D01*
X133160D01*
X133118D01*
X133048Y188228D01*
X132963D01*
X132794Y188172D01*
X132709Y188144D01*
X132639Y188087D01*
X132625D01*
X132611Y188059D01*
X132582Y188017D01*
X132554Y187960D01*
X132526Y187890D01*
X132512Y187791D01*
X132484Y187678D01*
Y186790D01*
X132498Y186720D01*
Y186635D01*
X132554Y186466D01*
X132582Y186381D01*
X132639Y186311D01*
X132667Y186283D01*
X132709Y186269D01*
X132766Y186241D01*
X132836Y186212D01*
X132935Y186184D01*
X133048Y186170D01*
X133174Y186156D01*
X136826D01*
X136840D01*
X136882D01*
X136952Y186170D01*
X137037D01*
X137206Y186226D01*
X137291Y186255D01*
X137361Y186311D01*
Y186325D01*
X137389Y186339D01*
X137403Y186381D01*
X137432Y186438D01*
X137460Y186508D01*
X137488Y186607D01*
X137502Y186720D01*
X137516Y186847D01*
Y187608D01*
X137502Y187678D01*
Y187763D01*
X137446Y187932D01*
X137418Y188017D01*
X137361Y188087D01*
X137347Y188101D01*
X137333Y188115D01*
X137291Y188144D01*
X137234Y188172D01*
X137164Y188200D01*
X137065Y188214D01*
X136952Y188242D01*
D02*
G37*
G36*
X136952Y253285D02*
X136826D01*
X133174D01*
X133160D01*
X133118D01*
X133048Y253270D01*
X132963D01*
X132794Y253214D01*
X132709Y253186D01*
X132639Y253130D01*
X132625D01*
X132611Y253101D01*
X132582Y253059D01*
X132554Y253003D01*
X132526Y252932D01*
X132512Y252833D01*
X132484Y252721D01*
Y251833D01*
X132498Y251762D01*
Y251678D01*
X132554Y251508D01*
X132582Y251424D01*
X132639Y251353D01*
X132667Y251325D01*
X132709Y251311D01*
X132766Y251283D01*
X132836Y251255D01*
X132935Y251227D01*
X133048Y251212D01*
X133174Y251198D01*
X136826D01*
X136840D01*
X136882D01*
X136952Y251212D01*
X137037D01*
X137206Y251269D01*
X137291Y251297D01*
X137361Y251353D01*
Y251367D01*
X137389Y251381D01*
X137403Y251424D01*
X137432Y251480D01*
X137460Y251551D01*
X137488Y251649D01*
X137502Y251762D01*
X137516Y251889D01*
Y252650D01*
X137502Y252721D01*
Y252805D01*
X137446Y252974D01*
X137418Y253059D01*
X137361Y253130D01*
X137347Y253144D01*
X137333Y253158D01*
X137291Y253186D01*
X137234Y253214D01*
X137164Y253242D01*
X137065Y253256D01*
X136952Y253285D01*
D02*
G37*
G36*
Y224356D02*
X136826D01*
X133174D01*
X133160D01*
X133118D01*
X133048Y224342D01*
X132963D01*
X132794Y224286D01*
X132709Y224257D01*
X132639Y224201D01*
X132625D01*
X132611Y224173D01*
X132582Y224130D01*
X132554Y224074D01*
X132526Y224004D01*
X132512Y223905D01*
X132484Y223792D01*
Y222904D01*
X132498Y222833D01*
Y222749D01*
X132554Y222580D01*
X132582Y222495D01*
X132639Y222425D01*
X132667Y222397D01*
X132709Y222382D01*
X132766Y222354D01*
X132836Y222326D01*
X132935Y222298D01*
X133048Y222284D01*
X133174Y222270D01*
X136826D01*
X136840D01*
X136882D01*
X136952Y222284D01*
X137037D01*
X137206Y222340D01*
X137291Y222368D01*
X137361Y222425D01*
Y222439D01*
X137389Y222453D01*
X137403Y222495D01*
X137432Y222552D01*
X137460Y222622D01*
X137488Y222721D01*
X137502Y222833D01*
X137516Y222960D01*
Y223722D01*
X137502Y223792D01*
Y223877D01*
X137446Y224046D01*
X137418Y224130D01*
X137361Y224201D01*
X137347Y224215D01*
X137333Y224229D01*
X137291Y224257D01*
X137234Y224286D01*
X137164Y224314D01*
X137065Y224328D01*
X136952Y224356D01*
D02*
G37*
G36*
X24906Y98643D02*
X23477D01*
X23436Y98629D01*
X23380Y98588D01*
X23366Y98518D01*
Y93817D01*
Y93803D01*
X23380Y93761D01*
X23422Y93706D01*
X23491Y93692D01*
X24836D01*
X24892Y93706D01*
X24975D01*
X25155Y93761D01*
X25239Y93789D01*
X25308Y93845D01*
X25322Y93858D01*
X25336Y93872D01*
X25363Y93914D01*
X25391Y93969D01*
X25419Y94039D01*
X25433Y94136D01*
X25461Y94247D01*
Y94372D01*
Y97964D01*
Y97977D01*
Y98019D01*
X25447Y98088D01*
Y98172D01*
X25391Y98338D01*
X25363Y98421D01*
X25308Y98491D01*
Y98504D01*
X25280Y98518D01*
X25239Y98546D01*
X25183Y98574D01*
X25114Y98602D01*
X25017Y98615D01*
X24906Y98643D01*
D02*
G37*
G36*
X12105D02*
X10677D01*
X10635Y98629D01*
X10580Y98588D01*
X10566Y98518D01*
Y93817D01*
Y93803D01*
X10580Y93761D01*
X10621Y93706D01*
X10691Y93692D01*
X12036D01*
X12091Y93706D01*
X12175D01*
X12355Y93761D01*
X12438Y93789D01*
X12507Y93845D01*
X12521Y93858D01*
X12535Y93872D01*
X12563Y93914D01*
X12591Y93969D01*
X12618Y94039D01*
X12632Y94136D01*
X12660Y94247D01*
Y94372D01*
Y97964D01*
Y97977D01*
Y98019D01*
X12646Y98088D01*
Y98172D01*
X12591Y98338D01*
X12563Y98421D01*
X12507Y98491D01*
Y98504D01*
X12480Y98518D01*
X12438Y98546D01*
X12383Y98574D01*
X12313Y98602D01*
X12216Y98615D01*
X12105Y98643D01*
D02*
G37*
%LPD*%
D10*
X386500Y291000D02*
G03*
X386500Y291000I-500J0D01*
G01*
X356500D02*
G03*
X356500Y291000I-500J0D01*
G01*
D11*
X337375Y119950D02*
G03*
X352625Y119950I7625J0D01*
G01*
X194800Y237500D02*
Y262900D01*
X144800Y237500D02*
X194800D01*
X144800D02*
Y262900D01*
X194800D01*
Y205833D02*
Y231233D01*
X144800Y205833D02*
X194800D01*
X144800D02*
Y231233D01*
X194800D01*
Y174167D02*
Y199567D01*
X144800Y174167D02*
X194800D01*
X144800D02*
Y199567D01*
X194800D01*
Y142500D02*
Y167900D01*
X144800Y142500D02*
X194800D01*
X144800D02*
Y167900D01*
X194800D01*
X227500Y142100D02*
Y167500D01*
X277500D01*
Y142100D02*
Y167500D01*
X227500Y142100D02*
X277500D01*
X227500Y175433D02*
Y200833D01*
X277500D01*
Y175433D02*
Y200833D01*
X227500Y175433D02*
X277500D01*
X227500Y208767D02*
Y234167D01*
X277500D01*
Y208767D02*
Y234167D01*
X227500Y208767D02*
X277500D01*
X227500Y242100D02*
Y267500D01*
X277500D01*
Y242100D02*
Y267500D01*
X227500Y242100D02*
X277500D01*
X352750Y120000D02*
X370000D01*
X315000Y22000D02*
Y120000D01*
Y22000D02*
X370000D01*
X315000Y120000D02*
X337375D01*
X370000Y22000D02*
Y120000D01*
X89760Y331250D02*
Y365640D01*
Y321750D02*
Y333030D01*
Y311030D02*
X294230D01*
Y365640D01*
X89760D02*
X294230D01*
X89760Y311030D02*
Y321750D01*
Y333030D02*
Y343750D01*
X231000Y62250D02*
X239000D01*
X231000Y77750D02*
X239000D01*
D12*
X12900Y1270D02*
Y86270D01*
X128150Y1270D02*
Y86270D01*
X12900D02*
X128150D01*
X12900Y1270D02*
X128150D01*
M02*
