G04*
G04 #@! TF.GenerationSoftware,Altium Limited,Altium Designer,23.9.2 (47)*
G04*
G04 Layer_Color=16711935*
%FSLAX44Y44*%
%MOMM*%
G71*
G04*
G04 #@! TF.SameCoordinates,A89998BD-DD6A-42FD-B223-A906B6295702*
G04*
G04*
G04 #@! TF.FilePolarity,Negative*
G04*
G01*
G75*
%ADD19C,2.0032*%
%ADD20C,2.2032*%
%ADD21R,2.2032X2.2032*%
%ADD22C,1.5032*%
%ADD23C,1.7032*%
%ADD24C,0.9032*%
%ADD34R,1.3532X1.5532*%
D19*
X182700Y250000D02*
D03*
X157300D02*
D03*
X182700Y218333D02*
D03*
X157300D02*
D03*
X182700Y186667D02*
D03*
X157300D02*
D03*
X182700Y155000D02*
D03*
X157300D02*
D03*
X239600D02*
D03*
X265000D02*
D03*
X239600Y188333D02*
D03*
X265000D02*
D03*
X239600Y221667D02*
D03*
X265000D02*
D03*
X239600Y255000D02*
D03*
X265000D02*
D03*
D20*
X345000Y55000D02*
D03*
Y85000D02*
D03*
X280000Y350000D02*
D03*
X205000D02*
D03*
X180000D02*
D03*
X155000D02*
D03*
X130000D02*
D03*
X280000Y325000D02*
D03*
X180000D02*
D03*
X155000D02*
D03*
X130000D02*
D03*
X205000D02*
D03*
X230000D02*
D03*
X255000Y350000D02*
D03*
Y325000D02*
D03*
X230000Y350000D02*
D03*
X105000Y325000D02*
D03*
D21*
Y350000D02*
D03*
D22*
X192500Y363805D02*
D03*
D23*
X70400Y66270D02*
D03*
X45000D02*
D03*
X95800D02*
D03*
X364000Y25500D02*
D03*
X364000Y116500D02*
D03*
D24*
X100000Y155000D02*
D03*
Y250000D02*
D03*
D34*
X334250Y155000D02*
D03*
X315750D02*
D03*
X315750Y190000D02*
D03*
X334250D02*
D03*
X316500Y225000D02*
D03*
X335000D02*
D03*
X316500Y255000D02*
D03*
X335000D02*
D03*
X80750Y155000D02*
D03*
X99250D02*
D03*
X80750Y190000D02*
D03*
X99250D02*
D03*
X80750Y250000D02*
D03*
X99250D02*
D03*
X81500Y220000D02*
D03*
X100000D02*
D03*
X54250Y155000D02*
D03*
X35750D02*
D03*
X53500Y190000D02*
D03*
X35000D02*
D03*
X54250Y220000D02*
D03*
X35750D02*
D03*
X54250Y250000D02*
D03*
X35750D02*
D03*
M02*
