G04*
G04 #@! TF.GenerationSoftware,Altium Limited,Altium Designer,23.9.2 (47)*
G04*
G04 Layer_Color=8388736*
%FSLAX44Y44*%
%MOMM*%
G71*
G04*
G04 #@! TF.SameCoordinates,A89998BD-DD6A-42FD-B223-A906B6295702*
G04*
G04*
G04 #@! TF.FilePolarity,Negative*
G04*
G01*
G75*
%ADD16R,1.5532X1.3532*%
G04:AMPARAMS|DCode=17|XSize=1.4032mm|YSize=1.3032mm|CornerRadius=0.3766mm|HoleSize=0mm|Usage=FLASHONLY|Rotation=0.000|XOffset=0mm|YOffset=0mm|HoleType=Round|Shape=RoundedRectangle|*
%AMROUNDEDRECTD17*
21,1,1.4032,0.5500,0,0,0.0*
21,1,0.6500,1.3032,0,0,0.0*
1,1,0.7532,0.3250,-0.2750*
1,1,0.7532,-0.3250,-0.2750*
1,1,0.7532,-0.3250,0.2750*
1,1,0.7532,0.3250,0.2750*
%
%ADD17ROUNDEDRECTD17*%
G04:AMPARAMS|DCode=18|XSize=1.9532mm|YSize=1.4532mm|CornerRadius=0.4141mm|HoleSize=0mm|Usage=FLASHONLY|Rotation=270.000|XOffset=0mm|YOffset=0mm|HoleType=Round|Shape=RoundedRectangle|*
%AMROUNDEDRECTD18*
21,1,1.9532,0.6250,0,0,270.0*
21,1,1.1250,1.4532,0,0,270.0*
1,1,0.8282,-0.3125,-0.5625*
1,1,0.8282,-0.3125,0.5625*
1,1,0.8282,0.3125,0.5625*
1,1,0.8282,0.3125,-0.5625*
%
%ADD18ROUNDEDRECTD18*%
%ADD19C,2.0032*%
%ADD20C,2.2032*%
%ADD21R,2.2032X2.2032*%
%ADD22C,1.5032*%
%ADD23C,1.7032*%
%ADD24C,0.9032*%
D16*
X375000Y215750D02*
D03*
Y234250D02*
D03*
X345000Y215750D02*
D03*
Y234250D02*
D03*
D17*
X375000Y280500D02*
D03*
Y259500D02*
D03*
X345000Y280500D02*
D03*
Y259500D02*
D03*
D18*
X249250Y70000D02*
D03*
X220750D02*
D03*
D19*
X182700Y250000D02*
D03*
X157300D02*
D03*
X182700Y218333D02*
D03*
X157300D02*
D03*
X182700Y186667D02*
D03*
X157300D02*
D03*
X182700Y155000D02*
D03*
X157300D02*
D03*
X239600D02*
D03*
X265000D02*
D03*
X239600Y188333D02*
D03*
X265000D02*
D03*
X239600Y221667D02*
D03*
X265000D02*
D03*
X239600Y255000D02*
D03*
X265000D02*
D03*
D20*
X345000Y55000D02*
D03*
Y85000D02*
D03*
X280000Y350000D02*
D03*
X205000D02*
D03*
X180000D02*
D03*
X155000D02*
D03*
X130000D02*
D03*
X280000Y325000D02*
D03*
X180000D02*
D03*
X155000D02*
D03*
X130000D02*
D03*
X205000D02*
D03*
X230000D02*
D03*
X255000Y350000D02*
D03*
Y325000D02*
D03*
X230000Y350000D02*
D03*
X105000Y325000D02*
D03*
D21*
Y350000D02*
D03*
D22*
X192500Y363805D02*
D03*
D23*
X70400Y66270D02*
D03*
X45000D02*
D03*
X95800D02*
D03*
X364000Y25500D02*
D03*
X364000Y116500D02*
D03*
D24*
X100000Y155000D02*
D03*
Y250000D02*
D03*
M02*
