G04*
G04 #@! TF.GenerationSoftware,Altium Limited,Altium Designer,22.11.1 (43)*
G04*
G04 Layer_Color=255*
%FSLAX44Y44*%
%MOMM*%
G71*
G04*
G04 #@! TF.SameCoordinates,C72771D2-38F8-48C7-9277-F5F912310F7B*
G04*
G04*
G04 #@! TF.FilePolarity,Positive*
G04*
G01*
G75*
%ADD58C,2.0000*%
%ADD59C,1.6000*%
%ADD60R,1.6000X1.6000*%
%ADD61C,1.2000*%
G04:AMPARAMS|DCode=62|XSize=1.2mm|YSize=1.2mm|CornerRadius=0.3mm|HoleSize=0mm|Usage=FLASHONLY|Rotation=180.000|XOffset=0mm|YOffset=0mm|HoleType=Round|Shape=RoundedRectangle|*
%AMROUNDEDRECTD62*
21,1,1.2000,0.6000,0,0,180.0*
21,1,0.6000,1.2000,0,0,180.0*
1,1,0.6000,-0.3000,0.3000*
1,1,0.6000,0.3000,0.3000*
1,1,0.6000,0.3000,-0.3000*
1,1,0.6000,-0.3000,-0.3000*
%
%ADD62ROUNDEDRECTD62*%
%ADD63C,1.5240*%
G04:AMPARAMS|DCode=64|XSize=2mm|YSize=2mm|CornerRadius=0.5mm|HoleSize=0mm|Usage=FLASHONLY|Rotation=90.000|XOffset=0mm|YOffset=0mm|HoleType=Round|Shape=RoundedRectangle|*
%AMROUNDEDRECTD64*
21,1,2.0000,1.0000,0,0,90.0*
21,1,1.0000,2.0000,0,0,90.0*
1,1,1.0000,0.5000,0.5000*
1,1,1.0000,0.5000,-0.5000*
1,1,1.0000,-0.5000,-0.5000*
1,1,1.0000,-0.5000,0.5000*
%
%ADD64ROUNDEDRECTD64*%
%ADD65C,1.5000*%
%ADD66C,1.8000*%
%ADD69R,2.2000X1.3000*%
%ADD70R,2.8000X2.0000*%
D58*
X565000Y70000D02*
D03*
X215000Y190000D02*
D03*
X135000Y200000D02*
D03*
X20000Y220000D02*
D03*
X70000Y210000D02*
D03*
X110000Y135000D02*
D03*
X45000Y125000D02*
D03*
X175000Y45000D02*
D03*
X545000Y180000D02*
D03*
X480000Y280000D02*
D03*
X420000Y275000D02*
D03*
X400000Y245000D02*
D03*
X445000Y180000D02*
D03*
X385000Y155000D02*
D03*
X495000Y35000D02*
D03*
X499850Y134750D02*
D03*
X474850D02*
D03*
X120000Y40000D02*
D03*
X90000D02*
D03*
Y260000D02*
D03*
X120000D02*
D03*
X499850Y159750D02*
D03*
Y109750D02*
D03*
X474850D02*
D03*
D59*
X390000Y104600D02*
D03*
Y130000D02*
D03*
X339200Y104600D02*
D03*
D60*
Y155400D02*
D03*
D61*
X20000Y180000D02*
D03*
X45400Y205400D02*
D03*
D62*
Y154600D02*
D03*
D63*
X570900Y110000D02*
D03*
Y160000D02*
D03*
D64*
X474850Y159750D02*
D03*
D65*
X440000Y234600D02*
D03*
Y260000D02*
D03*
Y209200D02*
D03*
D66*
Y127300D02*
D03*
Y152700D02*
D03*
X532700Y280000D02*
D03*
X507300D02*
D03*
D69*
X473567Y201683D02*
D03*
X526500Y258250D02*
D03*
D70*
X570000Y236750D02*
D03*
Y203250D02*
D03*
X395000Y183250D02*
D03*
Y216750D02*
D03*
M02*
