G04*
G04 #@! TF.GenerationSoftware,Altium Limited,Altium Designer,23.3.1 (30)*
G04*
G04 Layer_Color=8388736*
%FSLAX44Y44*%
%MOMM*%
G71*
G04*
G04 #@! TF.SameCoordinates,CAE6B6A5-3340-4E14-88A7-017166009885*
G04*
G04*
G04 #@! TF.FilePolarity,Negative*
G04*
G01*
G75*
G04:AMPARAMS|DCode=33|XSize=5.8032mm|YSize=7.1032mm|CornerRadius=1.5016mm|HoleSize=0mm|Usage=FLASHONLY|Rotation=0.000|XOffset=0mm|YOffset=0mm|HoleType=Round|Shape=RoundedRectangle|*
%AMROUNDEDRECTD33*
21,1,5.8032,4.1000,0,0,0.0*
21,1,2.8000,7.1032,0,0,0.0*
1,1,3.0032,1.4000,-2.0500*
1,1,3.0032,-1.4000,-2.0500*
1,1,3.0032,-1.4000,2.0500*
1,1,3.0032,1.4000,2.0500*
%
%ADD33ROUNDEDRECTD33*%
G04:AMPARAMS|DCode=34|XSize=3.5032mm|YSize=2.5032mm|CornerRadius=0.6766mm|HoleSize=0mm|Usage=FLASHONLY|Rotation=0.000|XOffset=0mm|YOffset=0mm|HoleType=Round|Shape=RoundedRectangle|*
%AMROUNDEDRECTD34*
21,1,3.5032,1.1500,0,0,0.0*
21,1,2.1500,2.5032,0,0,0.0*
1,1,1.3532,1.0750,-0.5750*
1,1,1.3532,-1.0750,-0.5750*
1,1,1.3532,-1.0750,0.5750*
1,1,1.3532,1.0750,0.5750*
%
%ADD34ROUNDEDRECTD34*%
G04:AMPARAMS|DCode=35|XSize=3.7032mm|YSize=1.7032mm|CornerRadius=0.4766mm|HoleSize=0mm|Usage=FLASHONLY|Rotation=180.000|XOffset=0mm|YOffset=0mm|HoleType=Round|Shape=RoundedRectangle|*
%AMROUNDEDRECTD35*
21,1,3.7032,0.7500,0,0,180.0*
21,1,2.7500,1.7032,0,0,180.0*
1,1,0.9532,-1.3750,0.3750*
1,1,0.9532,1.3750,0.3750*
1,1,0.9532,1.3750,-0.3750*
1,1,0.9532,-1.3750,-0.3750*
%
%ADD35ROUNDEDRECTD35*%
G04:AMPARAMS|DCode=36|XSize=5.8032mm|YSize=7.1032mm|CornerRadius=1.5016mm|HoleSize=0mm|Usage=FLASHONLY|Rotation=270.000|XOffset=0mm|YOffset=0mm|HoleType=Round|Shape=RoundedRectangle|*
%AMROUNDEDRECTD36*
21,1,5.8032,4.1000,0,0,270.0*
21,1,2.8000,7.1032,0,0,270.0*
1,1,3.0032,-2.0500,-1.4000*
1,1,3.0032,-2.0500,1.4000*
1,1,3.0032,2.0500,1.4000*
1,1,3.0032,2.0500,-1.4000*
%
%ADD36ROUNDEDRECTD36*%
%ADD37R,1.5532X1.3532*%
G04:AMPARAMS|DCode=38|XSize=0.8532mm|YSize=1.4532mm|CornerRadius=0.2641mm|HoleSize=0mm|Usage=FLASHONLY|Rotation=90.000|XOffset=0mm|YOffset=0mm|HoleType=Round|Shape=RoundedRectangle|*
%AMROUNDEDRECTD38*
21,1,0.8532,0.9250,0,0,90.0*
21,1,0.3250,1.4532,0,0,90.0*
1,1,0.5282,0.4625,0.1625*
1,1,0.5282,0.4625,-0.1625*
1,1,0.5282,-0.4625,-0.1625*
1,1,0.5282,-0.4625,0.1625*
%
%ADD38ROUNDEDRECTD38*%
G04:AMPARAMS|DCode=39|XSize=1.5532mm|YSize=1.3532mm|CornerRadius=0.3891mm|HoleSize=0mm|Usage=FLASHONLY|Rotation=90.000|XOffset=0mm|YOffset=0mm|HoleType=Round|Shape=RoundedRectangle|*
%AMROUNDEDRECTD39*
21,1,1.5532,0.5750,0,0,90.0*
21,1,0.7750,1.3532,0,0,90.0*
1,1,0.7782,0.2875,0.3875*
1,1,0.7782,0.2875,-0.3875*
1,1,0.7782,-0.2875,-0.3875*
1,1,0.7782,-0.2875,0.3875*
%
%ADD39ROUNDEDRECTD39*%
G04:AMPARAMS|DCode=40|XSize=2.1532mm|YSize=1.6032mm|CornerRadius=0.4516mm|HoleSize=0mm|Usage=FLASHONLY|Rotation=180.000|XOffset=0mm|YOffset=0mm|HoleType=Round|Shape=RoundedRectangle|*
%AMROUNDEDRECTD40*
21,1,2.1532,0.7000,0,0,180.0*
21,1,1.2500,1.6032,0,0,180.0*
1,1,0.9032,-0.6250,0.3500*
1,1,0.9032,0.6250,0.3500*
1,1,0.9032,0.6250,-0.3500*
1,1,0.9032,-0.6250,-0.3500*
%
%ADD40ROUNDEDRECTD40*%
G04:AMPARAMS|DCode=41|XSize=0.8032mm|YSize=1.6532mm|CornerRadius=0.2516mm|HoleSize=0mm|Usage=FLASHONLY|Rotation=0.000|XOffset=0mm|YOffset=0mm|HoleType=Round|Shape=RoundedRectangle|*
%AMROUNDEDRECTD41*
21,1,0.8032,1.1500,0,0,0.0*
21,1,0.3000,1.6532,0,0,0.0*
1,1,0.5032,0.1500,-0.5750*
1,1,0.5032,-0.1500,-0.5750*
1,1,0.5032,-0.1500,0.5750*
1,1,0.5032,0.1500,0.5750*
%
%ADD41ROUNDEDRECTD41*%
%ADD42R,1.5032X1.1032*%
%ADD43R,1.3532X1.5532*%
G04:AMPARAMS|DCode=44|XSize=1.4032mm|YSize=1.3032mm|CornerRadius=0.3766mm|HoleSize=0mm|Usage=FLASHONLY|Rotation=90.000|XOffset=0mm|YOffset=0mm|HoleType=Round|Shape=RoundedRectangle|*
%AMROUNDEDRECTD44*
21,1,1.4032,0.5500,0,0,90.0*
21,1,0.6500,1.3032,0,0,90.0*
1,1,0.7532,0.2750,0.3250*
1,1,0.7532,0.2750,-0.3250*
1,1,0.7532,-0.2750,-0.3250*
1,1,0.7532,-0.2750,0.3250*
%
%ADD44ROUNDEDRECTD44*%
G04:AMPARAMS|DCode=45|XSize=1.7032mm|YSize=2.3032mm|CornerRadius=0.4766mm|HoleSize=0mm|Usage=FLASHONLY|Rotation=90.000|XOffset=0mm|YOffset=0mm|HoleType=Round|Shape=RoundedRectangle|*
%AMROUNDEDRECTD45*
21,1,1.7032,1.3500,0,0,90.0*
21,1,0.7500,2.3032,0,0,90.0*
1,1,0.9532,0.6750,0.3750*
1,1,0.9532,0.6750,-0.3750*
1,1,0.9532,-0.6750,-0.3750*
1,1,0.9532,-0.6750,0.3750*
%
%ADD45ROUNDEDRECTD45*%
G04:AMPARAMS|DCode=46|XSize=1.9532mm|YSize=1.4532mm|CornerRadius=0.4141mm|HoleSize=0mm|Usage=FLASHONLY|Rotation=180.000|XOffset=0mm|YOffset=0mm|HoleType=Round|Shape=RoundedRectangle|*
%AMROUNDEDRECTD46*
21,1,1.9532,0.6250,0,0,180.0*
21,1,1.1250,1.4532,0,0,180.0*
1,1,0.8282,-0.5625,0.3125*
1,1,0.8282,0.5625,0.3125*
1,1,0.8282,0.5625,-0.3125*
1,1,0.8282,-0.5625,-0.3125*
%
%ADD46ROUNDEDRECTD46*%
G04:AMPARAMS|DCode=47|XSize=1.5032mm|YSize=1.3032mm|CornerRadius=0.3766mm|HoleSize=0mm|Usage=FLASHONLY|Rotation=0.000|XOffset=0mm|YOffset=0mm|HoleType=Round|Shape=RoundedRectangle|*
%AMROUNDEDRECTD47*
21,1,1.5032,0.5500,0,0,0.0*
21,1,0.7500,1.3032,0,0,0.0*
1,1,0.7532,0.3750,-0.2750*
1,1,0.7532,-0.3750,-0.2750*
1,1,0.7532,-0.3750,0.2750*
1,1,0.7532,0.3750,0.2750*
%
%ADD47ROUNDEDRECTD47*%
G04:AMPARAMS|DCode=48|XSize=1.1032mm|YSize=1.5032mm|CornerRadius=0.3266mm|HoleSize=0mm|Usage=FLASHONLY|Rotation=270.000|XOffset=0mm|YOffset=0mm|HoleType=Round|Shape=RoundedRectangle|*
%AMROUNDEDRECTD48*
21,1,1.1032,0.8500,0,0,270.0*
21,1,0.4500,1.5032,0,0,270.0*
1,1,0.6532,-0.4250,-0.2250*
1,1,0.6532,-0.4250,0.2250*
1,1,0.6532,0.4250,0.2250*
1,1,0.6532,0.4250,-0.2250*
%
%ADD48ROUNDEDRECTD48*%
%ADD49C,1.8032*%
%ADD50R,1.8032X1.8032*%
%ADD51R,1.4032X1.4032*%
%ADD52C,1.4032*%
%ADD53R,1.8032X1.8032*%
%ADD54C,1.7032*%
%ADD55C,2.2032*%
%ADD56C,1.7272*%
G04:AMPARAMS|DCode=57|XSize=2.2032mm|YSize=2.2032mm|CornerRadius=0.6016mm|HoleSize=0mm|Usage=FLASHONLY|Rotation=90.000|XOffset=0mm|YOffset=0mm|HoleType=Round|Shape=RoundedRectangle|*
%AMROUNDEDRECTD57*
21,1,2.2032,1.0000,0,0,90.0*
21,1,1.0000,2.2032,0,0,90.0*
1,1,1.2032,0.5000,0.5000*
1,1,1.2032,0.5000,-0.5000*
1,1,1.2032,-0.5000,-0.5000*
1,1,1.2032,-0.5000,0.5000*
%
%ADD57ROUNDEDRECTD57*%
%ADD58C,2.0032*%
%ADD59C,0.8600*%
%ADD60C,3.4032*%
D33*
X205000Y165000D02*
D03*
Y65000D02*
D03*
D34*
X585000Y274000D02*
D03*
Y206000D02*
D03*
D35*
X135000Y220000D02*
D03*
Y160000D02*
D03*
D36*
X165250Y270000D02*
D03*
X65250D02*
D03*
D37*
X530000Y60750D02*
D03*
Y79250D02*
D03*
X500000Y60750D02*
D03*
Y79250D02*
D03*
D38*
X524250Y30000D02*
D03*
X75750Y209500D02*
D03*
Y190500D02*
D03*
X104250Y200000D02*
D03*
X495750Y39500D02*
D03*
Y20500D02*
D03*
D39*
X80750Y160000D02*
D03*
X99250D02*
D03*
X20750Y60000D02*
D03*
X39250D02*
D03*
D40*
X30000Y92000D02*
D03*
Y120000D02*
D03*
D41*
X138100Y137250D02*
D03*
X125400D02*
D03*
X112700D02*
D03*
X100000D02*
D03*
X87300D02*
D03*
X74600D02*
D03*
X61900D02*
D03*
X138100Y82750D02*
D03*
X125400D02*
D03*
X112700D02*
D03*
X100000D02*
D03*
X87300D02*
D03*
X74600D02*
D03*
X61900D02*
D03*
D42*
X439198Y84500D02*
D03*
Y65500D02*
D03*
X459198Y84500D02*
D03*
Y65500D02*
D03*
X479198Y84500D02*
D03*
Y65500D02*
D03*
D43*
X568500Y80000D02*
D03*
X550000D02*
D03*
D44*
X549500Y60000D02*
D03*
X570500D02*
D03*
D45*
X252000Y70400D02*
D03*
Y45000D02*
D03*
Y19600D02*
D03*
X343000Y70400D02*
D03*
Y45000D02*
D03*
Y19600D02*
D03*
D46*
X480000Y284250D02*
D03*
Y255750D02*
D03*
D47*
Y237500D02*
D03*
Y202500D02*
D03*
D48*
X190000Y205500D02*
D03*
Y224500D02*
D03*
X210000Y205500D02*
D03*
Y224500D02*
D03*
X230000Y205500D02*
D03*
Y224500D02*
D03*
D49*
X279200Y223300D02*
D03*
Y197900D02*
D03*
X330000Y223300D02*
D03*
X634000Y380000D02*
D03*
X380000Y431000D02*
D03*
Y329000D02*
D03*
D50*
X330000Y172500D02*
D03*
D51*
X25250Y207900D02*
D03*
D52*
Y182500D02*
D03*
Y157100D02*
D03*
D53*
X126000Y380000D02*
D03*
D54*
X440000Y209200D02*
D03*
Y260000D02*
D03*
Y234600D02*
D03*
X149500Y59000D02*
D03*
X58500Y59000D02*
D03*
X54000Y310500D02*
D03*
X54000Y401500D02*
D03*
D55*
X574850Y134750D02*
D03*
X549850D02*
D03*
X120000Y40000D02*
D03*
X90000D02*
D03*
X35000Y340000D02*
D03*
Y370000D02*
D03*
X574850Y159750D02*
D03*
Y109750D02*
D03*
X549850D02*
D03*
D56*
X645900Y110000D02*
D03*
Y160000D02*
D03*
D57*
X549850Y159750D02*
D03*
D58*
X440000Y127300D02*
D03*
Y152700D02*
D03*
X532700Y280000D02*
D03*
X507300D02*
D03*
D59*
X272500Y37500D02*
D03*
X165000Y227500D02*
D03*
X140000Y255000D02*
D03*
X100000Y98500D02*
D03*
D60*
X650000Y230000D02*
D03*
X30000Y30000D02*
D03*
Y430000D02*
D03*
M02*
