G04*
G04 #@! TF.GenerationSoftware,Altium Limited,Altium Designer,23.3.1 (30)*
G04*
G04 Layer_Physical_Order=1*
G04 Layer_Color=255*
%FSLAX44Y44*%
%MOMM*%
G71*
G04*
G04 #@! TF.SameCoordinates,1947367F-AEBE-42DD-BD61-22C0FE108C1A*
G04*
G04*
G04 #@! TF.FilePolarity,Positive*
G04*
G01*
G75*
%ADD15C,0.5000*%
G04:AMPARAMS|DCode=17|XSize=5.6mm|YSize=6.9mm|CornerRadius=1.4mm|HoleSize=0mm|Usage=FLASHONLY|Rotation=0.000|XOffset=0mm|YOffset=0mm|HoleType=Round|Shape=RoundedRectangle|*
%AMROUNDEDRECTD17*
21,1,5.6000,4.1000,0,0,0.0*
21,1,2.8000,6.9000,0,0,0.0*
1,1,2.8000,1.4000,-2.0500*
1,1,2.8000,-1.4000,-2.0500*
1,1,2.8000,-1.4000,2.0500*
1,1,2.8000,1.4000,2.0500*
%
%ADD17ROUNDEDRECTD17*%
G04:AMPARAMS|DCode=18|XSize=3.3mm|YSize=2.3mm|CornerRadius=0.575mm|HoleSize=0mm|Usage=FLASHONLY|Rotation=0.000|XOffset=0mm|YOffset=0mm|HoleType=Round|Shape=RoundedRectangle|*
%AMROUNDEDRECTD18*
21,1,3.3000,1.1500,0,0,0.0*
21,1,2.1500,2.3000,0,0,0.0*
1,1,1.1500,1.0750,-0.5750*
1,1,1.1500,-1.0750,-0.5750*
1,1,1.1500,-1.0750,0.5750*
1,1,1.1500,1.0750,0.5750*
%
%ADD18ROUNDEDRECTD18*%
G04:AMPARAMS|DCode=19|XSize=3.5mm|YSize=1.5mm|CornerRadius=0.375mm|HoleSize=0mm|Usage=FLASHONLY|Rotation=180.000|XOffset=0mm|YOffset=0mm|HoleType=Round|Shape=RoundedRectangle|*
%AMROUNDEDRECTD19*
21,1,3.5000,0.7500,0,0,180.0*
21,1,2.7500,1.5000,0,0,180.0*
1,1,0.7500,-1.3750,0.3750*
1,1,0.7500,1.3750,0.3750*
1,1,0.7500,1.3750,-0.3750*
1,1,0.7500,-1.3750,-0.3750*
%
%ADD19ROUNDEDRECTD19*%
G04:AMPARAMS|DCode=20|XSize=5.6mm|YSize=6.9mm|CornerRadius=1.4mm|HoleSize=0mm|Usage=FLASHONLY|Rotation=270.000|XOffset=0mm|YOffset=0mm|HoleType=Round|Shape=RoundedRectangle|*
%AMROUNDEDRECTD20*
21,1,5.6000,4.1000,0,0,270.0*
21,1,2.8000,6.9000,0,0,270.0*
1,1,2.8000,-2.0500,-1.4000*
1,1,2.8000,-2.0500,1.4000*
1,1,2.8000,2.0500,1.4000*
1,1,2.8000,2.0500,-1.4000*
%
%ADD20ROUNDEDRECTD20*%
%ADD21R,1.3500X1.1500*%
G04:AMPARAMS|DCode=22|XSize=0.65mm|YSize=1.25mm|CornerRadius=0.1625mm|HoleSize=0mm|Usage=FLASHONLY|Rotation=90.000|XOffset=0mm|YOffset=0mm|HoleType=Round|Shape=RoundedRectangle|*
%AMROUNDEDRECTD22*
21,1,0.6500,0.9250,0,0,90.0*
21,1,0.3250,1.2500,0,0,90.0*
1,1,0.3250,0.4625,0.1625*
1,1,0.3250,0.4625,-0.1625*
1,1,0.3250,-0.4625,-0.1625*
1,1,0.3250,-0.4625,0.1625*
%
%ADD22ROUNDEDRECTD22*%
G04:AMPARAMS|DCode=23|XSize=1.35mm|YSize=1.15mm|CornerRadius=0.2875mm|HoleSize=0mm|Usage=FLASHONLY|Rotation=90.000|XOffset=0mm|YOffset=0mm|HoleType=Round|Shape=RoundedRectangle|*
%AMROUNDEDRECTD23*
21,1,1.3500,0.5750,0,0,90.0*
21,1,0.7750,1.1500,0,0,90.0*
1,1,0.5750,0.2875,0.3875*
1,1,0.5750,0.2875,-0.3875*
1,1,0.5750,-0.2875,-0.3875*
1,1,0.5750,-0.2875,0.3875*
%
%ADD23ROUNDEDRECTD23*%
G04:AMPARAMS|DCode=24|XSize=1.95mm|YSize=1.4mm|CornerRadius=0.35mm|HoleSize=0mm|Usage=FLASHONLY|Rotation=180.000|XOffset=0mm|YOffset=0mm|HoleType=Round|Shape=RoundedRectangle|*
%AMROUNDEDRECTD24*
21,1,1.9500,0.7000,0,0,180.0*
21,1,1.2500,1.4000,0,0,180.0*
1,1,0.7000,-0.6250,0.3500*
1,1,0.7000,0.6250,0.3500*
1,1,0.7000,0.6250,-0.3500*
1,1,0.7000,-0.6250,-0.3500*
%
%ADD24ROUNDEDRECTD24*%
G04:AMPARAMS|DCode=25|XSize=0.6mm|YSize=1.45mm|CornerRadius=0.15mm|HoleSize=0mm|Usage=FLASHONLY|Rotation=0.000|XOffset=0mm|YOffset=0mm|HoleType=Round|Shape=RoundedRectangle|*
%AMROUNDEDRECTD25*
21,1,0.6000,1.1500,0,0,0.0*
21,1,0.3000,1.4500,0,0,0.0*
1,1,0.3000,0.1500,-0.5750*
1,1,0.3000,-0.1500,-0.5750*
1,1,0.3000,-0.1500,0.5750*
1,1,0.3000,0.1500,0.5750*
%
%ADD25ROUNDEDRECTD25*%
%ADD26R,1.3000X0.9000*%
%ADD27R,1.1500X1.3500*%
G04:AMPARAMS|DCode=28|XSize=1.2mm|YSize=1.1mm|CornerRadius=0.275mm|HoleSize=0mm|Usage=FLASHONLY|Rotation=90.000|XOffset=0mm|YOffset=0mm|HoleType=Round|Shape=RoundedRectangle|*
%AMROUNDEDRECTD28*
21,1,1.2000,0.5500,0,0,90.0*
21,1,0.6500,1.1000,0,0,90.0*
1,1,0.5500,0.2750,0.3250*
1,1,0.5500,0.2750,-0.3250*
1,1,0.5500,-0.2750,-0.3250*
1,1,0.5500,-0.2750,0.3250*
%
%ADD28ROUNDEDRECTD28*%
G04:AMPARAMS|DCode=29|XSize=1.5mm|YSize=2.1mm|CornerRadius=0.375mm|HoleSize=0mm|Usage=FLASHONLY|Rotation=90.000|XOffset=0mm|YOffset=0mm|HoleType=Round|Shape=RoundedRectangle|*
%AMROUNDEDRECTD29*
21,1,1.5000,1.3500,0,0,90.0*
21,1,0.7500,2.1000,0,0,90.0*
1,1,0.7500,0.6750,0.3750*
1,1,0.7500,0.6750,-0.3750*
1,1,0.7500,-0.6750,-0.3750*
1,1,0.7500,-0.6750,0.3750*
%
%ADD29ROUNDEDRECTD29*%
G04:AMPARAMS|DCode=30|XSize=1.75mm|YSize=1.25mm|CornerRadius=0.3125mm|HoleSize=0mm|Usage=FLASHONLY|Rotation=180.000|XOffset=0mm|YOffset=0mm|HoleType=Round|Shape=RoundedRectangle|*
%AMROUNDEDRECTD30*
21,1,1.7500,0.6250,0,0,180.0*
21,1,1.1250,1.2500,0,0,180.0*
1,1,0.6250,-0.5625,0.3125*
1,1,0.6250,0.5625,0.3125*
1,1,0.6250,0.5625,-0.3125*
1,1,0.6250,-0.5625,-0.3125*
%
%ADD30ROUNDEDRECTD30*%
G04:AMPARAMS|DCode=31|XSize=1.3mm|YSize=1.1mm|CornerRadius=0.275mm|HoleSize=0mm|Usage=FLASHONLY|Rotation=0.000|XOffset=0mm|YOffset=0mm|HoleType=Round|Shape=RoundedRectangle|*
%AMROUNDEDRECTD31*
21,1,1.3000,0.5500,0,0,0.0*
21,1,0.7500,1.1000,0,0,0.0*
1,1,0.5500,0.3750,-0.2750*
1,1,0.5500,-0.3750,-0.2750*
1,1,0.5500,-0.3750,0.2750*
1,1,0.5500,0.3750,0.2750*
%
%ADD31ROUNDEDRECTD31*%
G04:AMPARAMS|DCode=32|XSize=0.9mm|YSize=1.3mm|CornerRadius=0.225mm|HoleSize=0mm|Usage=FLASHONLY|Rotation=270.000|XOffset=0mm|YOffset=0mm|HoleType=Round|Shape=RoundedRectangle|*
%AMROUNDEDRECTD32*
21,1,0.9000,0.8500,0,0,270.0*
21,1,0.4500,1.3000,0,0,270.0*
1,1,0.4500,-0.4250,-0.2250*
1,1,0.4500,-0.4250,0.2250*
1,1,0.4500,0.4250,0.2250*
1,1,0.4500,0.4250,-0.2250*
%
%ADD32ROUNDEDRECTD32*%
%ADD61C,1.0000*%
%ADD62R,1.2000X1.2000*%
%ADD63C,1.2000*%
%ADD64C,1.6000*%
%ADD65R,1.6000X1.6000*%
%ADD66C,1.5000*%
%ADD67R,1.6000X1.6000*%
%ADD68C,2.0000*%
%ADD69C,1.5240*%
G04:AMPARAMS|DCode=70|XSize=2mm|YSize=2mm|CornerRadius=0.5mm|HoleSize=0mm|Usage=FLASHONLY|Rotation=90.000|XOffset=0mm|YOffset=0mm|HoleType=Round|Shape=RoundedRectangle|*
%AMROUNDEDRECTD70*
21,1,2.0000,1.0000,0,0,90.0*
21,1,1.0000,2.0000,0,0,90.0*
1,1,1.0000,0.5000,0.5000*
1,1,1.0000,0.5000,-0.5000*
1,1,1.0000,-0.5000,-0.5000*
1,1,1.0000,-0.5000,0.5000*
%
%ADD70ROUNDEDRECTD70*%
%ADD71C,1.8000*%
%ADD72C,0.7000*%
%ADD73C,3.2000*%
G36*
X41620Y362430D02*
X41280Y361931D01*
X40980Y361358D01*
X40720Y360715D01*
X40500Y359999D01*
X40320Y359211D01*
X40180Y358351D01*
X40080Y357419D01*
X40000Y355340D01*
X30000D01*
X29980Y356415D01*
X29820Y358351D01*
X29680Y359211D01*
X29500Y359999D01*
X29280Y360715D01*
X29020Y361358D01*
X28720Y361931D01*
X28380Y362430D01*
X28000Y362859D01*
X42000D01*
X41620Y362430D01*
D02*
G37*
G36*
X40020Y353585D02*
X40180Y351649D01*
X40320Y350789D01*
X40500Y350001D01*
X40720Y349285D01*
X40980Y348642D01*
X41280Y348069D01*
X41620Y347570D01*
X42000Y347141D01*
X28000D01*
X28380Y347570D01*
X28720Y348069D01*
X29020Y348642D01*
X29280Y349285D01*
X29500Y350001D01*
X29680Y350789D01*
X29820Y351649D01*
X29920Y352581D01*
X30000Y354660D01*
X40000D01*
X40020Y353585D01*
D02*
G37*
G36*
X42709Y333556D02*
X42455Y333051D01*
X42231Y332473D01*
X42037Y331823D01*
X41873Y331100D01*
X41739Y330305D01*
X41560Y328498D01*
X41515Y327485D01*
X41500Y326401D01*
X31500Y324632D01*
X31477Y325706D01*
X31288Y327622D01*
X31124Y328464D01*
X30913Y329228D01*
X30654Y329915D01*
X30349Y330524D01*
X29996Y331057D01*
X29597Y331512D01*
X29150Y331889D01*
X42992Y333989D01*
X42709Y333556D01*
D02*
G37*
G36*
X41550Y305185D02*
X41950Y301344D01*
X42300Y299903D01*
X42750Y298783D01*
X43300Y297982D01*
X43950Y297502D01*
X44700Y297342D01*
X45550Y297502D01*
X46500Y297982D01*
X31423Y288330D01*
X31438Y288465D01*
X31451Y288797D01*
X31500Y298516D01*
X41500Y307586D01*
X41550Y305185D01*
D02*
G37*
G36*
X149875Y242018D02*
X148925Y242307D01*
X148075Y242309D01*
X147325Y242024D01*
X146675Y241451D01*
X146125Y240592D01*
X145675Y239445D01*
X145325Y238011D01*
X145075Y236291D01*
X144977Y234972D01*
X145075Y233838D01*
X145324Y232309D01*
X145673Y230984D01*
X146122Y229860D01*
X146671Y228940D01*
X147319Y228221D01*
X148068Y227706D01*
X148916Y227393D01*
X149863Y227282D01*
X129875Y227471D01*
X130825Y227563D01*
X131675Y227857D01*
X132425Y228354D01*
X133075Y229053D01*
X133625Y229955D01*
X134075Y231059D01*
X134425Y232366D01*
X134675Y233876D01*
X134825Y235587D01*
X134862Y236990D01*
X134849Y237875D01*
X134457Y242706D01*
X134222Y244114D01*
X133596Y246627D01*
X133204Y247732D01*
X132760Y248736D01*
X132264Y249638D01*
X149875Y242018D01*
D02*
G37*
G36*
X204150Y220650D02*
X203931Y220906D01*
X203637Y221136D01*
X203266Y221338D01*
X202819Y221514D01*
X202295Y221663D01*
X201696Y221784D01*
X201021Y221879D01*
X200000Y221948D01*
X198979Y221879D01*
X198304Y221784D01*
X197705Y221663D01*
X197181Y221514D01*
X196734Y221338D01*
X196363Y221136D01*
X196069Y220906D01*
X195850Y220650D01*
Y228350D01*
X196069Y228094D01*
X196363Y227864D01*
X196734Y227662D01*
X197181Y227486D01*
X197705Y227337D01*
X198304Y227216D01*
X198979Y227122D01*
X200000Y227052D01*
X201021Y227122D01*
X201696Y227216D01*
X202295Y227337D01*
X202819Y227486D01*
X203266Y227662D01*
X203637Y227864D01*
X203931Y228094D01*
X204150Y228350D01*
Y220650D01*
D02*
G37*
G36*
X184884Y220159D02*
X184624Y220285D01*
X184297Y220360D01*
X183903Y220384D01*
X183442Y220357D01*
X182914Y220280D01*
X182318Y220151D01*
X180926Y219742D01*
X180130Y219461D01*
X179266Y219129D01*
X179010Y221993D01*
X178537Y222000D01*
Y227000D01*
X179441Y227013D01*
X181021Y227122D01*
X181696Y227216D01*
X182295Y227337D01*
X182819Y227486D01*
X183266Y227662D01*
X183637Y227864D01*
X183931Y228094D01*
X184150Y228350D01*
X184884Y220159D01*
D02*
G37*
G36*
X80280Y217352D02*
X80006Y216443D01*
X79810Y215629D01*
X79692Y214911D01*
X79652Y214288D01*
X79690Y213761D01*
X79806Y213329D01*
X80001Y212992D01*
X80273Y212750D01*
X80624Y212604D01*
X81052Y212554D01*
X70630Y212621D01*
X71111Y212668D01*
X71575Y212813D01*
X72023Y213059D01*
X72454Y213403D01*
X72868Y213846D01*
X73266Y214389D01*
X73648Y215031D01*
X74013Y215773D01*
X74362Y216613D01*
X74694Y217553D01*
X80280Y217352D01*
D02*
G37*
G36*
X204150Y201650D02*
X203931Y201906D01*
X203637Y202136D01*
X203266Y202338D01*
X202819Y202514D01*
X202295Y202663D01*
X201696Y202784D01*
X201021Y202878D01*
X200000Y202948D01*
X198979Y202878D01*
X198304Y202784D01*
X197705Y202663D01*
X197181Y202514D01*
X196734Y202338D01*
X196363Y202136D01*
X196069Y201906D01*
X195850Y201650D01*
Y209350D01*
X196069Y209094D01*
X196363Y208864D01*
X196734Y208662D01*
X197181Y208486D01*
X197705Y208338D01*
X198304Y208216D01*
X198979Y208121D01*
X200000Y208052D01*
X201021Y208121D01*
X201696Y208216D01*
X202295Y208338D01*
X202819Y208486D01*
X203266Y208662D01*
X203637Y208864D01*
X203931Y209094D01*
X204150Y209350D01*
Y201650D01*
D02*
G37*
G36*
X81828Y212319D02*
X82155Y212218D01*
X83145Y211845D01*
X86475Y210407D01*
X85889Y204468D01*
X85034Y204844D01*
X81771Y206066D01*
X81320Y206178D01*
X80938Y206246D01*
X80623Y206270D01*
X80375Y206249D01*
X81525Y212275D01*
X81513Y212347D01*
X81615Y212362D01*
X81828Y212319D01*
D02*
G37*
G36*
X109723Y203008D02*
X110026Y202901D01*
X110405Y202807D01*
X110861Y202726D01*
X112003Y202600D01*
X113452Y202525D01*
X115208Y202500D01*
Y197500D01*
X114292Y197494D01*
X110861Y197274D01*
X110405Y197193D01*
X110026Y197099D01*
X109723Y196992D01*
X109497Y196873D01*
Y203127D01*
X109723Y203008D01*
D02*
G37*
G36*
X192525Y203495D02*
X192600Y202592D01*
X192725Y201803D01*
X192890Y201166D01*
X194994D01*
X194520Y201114D01*
X194096Y200959D01*
X193722Y200700D01*
X193398Y200337D01*
X193334Y200229D01*
X193400Y200122D01*
X193725Y199790D01*
X194100Y199573D01*
X194525Y199471D01*
X195000Y199482D01*
X192870Y199189D01*
X192724Y198628D01*
X192600Y197852D01*
X192525Y196971D01*
X192500Y195987D01*
X187500D01*
X187475Y196971D01*
X187400Y197852D01*
X187309Y198423D01*
X185012Y198107D01*
X185485Y198228D01*
X185907Y198453D01*
X186281Y198784D01*
X186604Y199219D01*
X186878Y199758D01*
X186898Y199816D01*
X186877Y199871D01*
X186602Y200337D01*
X186278Y200700D01*
X185904Y200959D01*
X185480Y201114D01*
X185006Y201166D01*
X187278D01*
X187400Y202005D01*
X187475Y202963D01*
X187500Y204026D01*
X192500Y204513D01*
X192525Y203495D01*
D02*
G37*
G36*
X70503Y187373D02*
X70277Y187492D01*
X69974Y187599D01*
X69595Y187693D01*
X69139Y187774D01*
X67997Y187900D01*
X66548Y187975D01*
X64792Y188000D01*
Y193000D01*
X65708Y193006D01*
X69139Y193226D01*
X69595Y193307D01*
X69974Y193401D01*
X70277Y193508D01*
X70503Y193627D01*
Y187373D01*
D02*
G37*
G36*
X83265Y169934D02*
X83385Y168561D01*
X83489Y168003D01*
X83624Y167530D01*
X83788Y167144D01*
X83982Y166844D01*
X84206Y166629D01*
X84460Y166500D01*
X84744Y166457D01*
X76756D01*
X77040Y166500D01*
X77294Y166629D01*
X77518Y166844D01*
X77712Y167144D01*
X77877Y167530D01*
X78011Y168003D01*
X78116Y168561D01*
X78190Y169205D01*
X78235Y169934D01*
X78250Y170750D01*
X83250D01*
X83265Y169934D01*
D02*
G37*
G36*
X118547Y170024D02*
X120381Y168470D01*
X121192Y167905D01*
X121932Y167480D01*
X122601Y167197D01*
X123199Y167054D01*
X123727Y167052D01*
X124184Y167191D01*
X124569Y167471D01*
X117529Y160431D01*
X117809Y160816D01*
X117948Y161273D01*
X117946Y161801D01*
X117803Y162399D01*
X117520Y163068D01*
X117095Y163808D01*
X116530Y164619D01*
X115823Y165501D01*
X113988Y167477D01*
X117523Y171012D01*
X118547Y170024D01*
D02*
G37*
G36*
X29760Y161080D02*
X30959Y159737D01*
X30940Y159714D01*
X30998Y154676D01*
X31026Y154664D01*
X31016Y154617D01*
X30971Y154535D01*
X30888Y154419D01*
X30614Y154083D01*
X29626Y152995D01*
X29442Y161393D01*
X29760Y161080D01*
D02*
G37*
G36*
X21875Y152139D02*
X21423Y152412D01*
X20968Y152617D01*
X20512Y152754D01*
X20054Y152822D01*
X19595Y152822D01*
X19134Y152753D01*
X18671Y152616D01*
X18206Y152411D01*
X17740Y152137D01*
X17272Y151796D01*
X16187Y157112D01*
X16788Y157477D01*
X18753Y158853D01*
X19135Y159174D01*
X19767Y159792D01*
X20017Y160088D01*
X20223Y160375D01*
X21875Y152139D01*
D02*
G37*
G36*
X104707Y160014D02*
X104605Y159615D01*
X104655Y159167D01*
X104859Y158672D01*
X105216Y158127D01*
X105727Y157535D01*
X106391Y156895D01*
X107208Y156206D01*
X109303Y154683D01*
X106944Y150092D01*
X105524Y151019D01*
X103018Y152468D01*
X101932Y152991D01*
X100957Y153378D01*
X100093Y153630D01*
X99341Y153746D01*
X98700Y153728D01*
X98171Y153575D01*
X97753Y153286D01*
X104964Y160365D01*
X104707Y160014D01*
D02*
G37*
G36*
X64784Y143573D02*
X59016D01*
X59203Y143897D01*
X59370Y144279D01*
X59518Y144718D01*
X59646Y145216D01*
X59754Y145771D01*
X59911Y147056D01*
X59961Y147786D01*
X60000Y149419D01*
X65000Y149498D01*
X64784Y143573D01*
D02*
G37*
G36*
X115260Y144059D02*
X109702Y143000D01*
X109723Y143235D01*
X109706Y143541D01*
X109653Y143919D01*
X109562Y144368D01*
X109268Y145480D01*
X108548Y147684D01*
X108233Y148561D01*
X113740Y148966D01*
X115260Y144059D01*
D02*
G37*
G36*
X141118Y141775D02*
X141269Y141350D01*
X141521Y140975D01*
X141873Y140650D01*
X142325Y140375D01*
X142879Y140150D01*
X143533Y139975D01*
X144287Y139850D01*
X145142Y139775D01*
X146098Y139750D01*
Y134750D01*
X145142Y134725D01*
X144287Y134650D01*
X143533Y134525D01*
X142879Y134350D01*
X142325Y134125D01*
X141873Y133850D01*
X141521Y133525D01*
X141269Y133150D01*
X141118Y132725D01*
X141068Y132250D01*
Y142250D01*
X141118Y141775D01*
D02*
G37*
G36*
X185012Y131893D02*
X184534Y132368D01*
X184107Y132659D01*
X183731Y132767D01*
X183404Y132692D01*
X183128Y132433D01*
X182902Y131991D01*
X182726Y131366D01*
X182600Y130557D01*
X182525Y129564D01*
X182500Y128389D01*
X177500Y130870D01*
X177673Y140170D01*
X185012Y131893D01*
D02*
G37*
G36*
X77487Y130882D02*
X77492Y130494D01*
X77500Y126006D01*
X72500Y126000D01*
X72492Y126725D01*
X72304Y129108D01*
X72218Y129575D01*
X72116Y129990D01*
X71998Y130354D01*
X71865Y130666D01*
X71716Y130927D01*
X77484D01*
X77487Y130882D01*
D02*
G37*
G36*
X64460Y130441D02*
X64196Y130242D01*
X63906Y129981D01*
X63589Y129657D01*
X62875Y128821D01*
X62054Y127733D01*
X60621Y125631D01*
X56827Y128926D01*
X57546Y130078D01*
X58646Y132153D01*
X59026Y133074D01*
X59293Y133918D01*
X59447Y134685D01*
X59488Y135375D01*
X59416Y135988D01*
X59231Y136524D01*
X58932Y136983D01*
X64460Y130441D01*
D02*
G37*
G36*
X115260D02*
X115049Y130270D01*
X114816Y130025D01*
X114562Y129706D01*
X114287Y129314D01*
X113671Y128306D01*
X112968Y127001D01*
X112179Y125401D01*
X107984Y128160D01*
X108631Y129581D01*
X109611Y132121D01*
X109943Y133242D01*
X110170Y134262D01*
X110293Y135182D01*
X110310Y136002D01*
X110222Y136722D01*
X110030Y137343D01*
X109732Y137863D01*
X115260Y130441D01*
D02*
G37*
G36*
X39450Y124435D02*
X39607Y124029D01*
X39870Y123671D01*
X40238Y123360D01*
X40710Y123097D01*
X41288Y122882D01*
X41971Y122715D01*
X42759Y122596D01*
X43652Y122524D01*
X44650Y122500D01*
Y117500D01*
X43652Y117476D01*
X42759Y117404D01*
X41971Y117285D01*
X41288Y117118D01*
X40710Y116903D01*
X40238Y116640D01*
X39870Y116329D01*
X39607Y115971D01*
X39450Y115565D01*
X39397Y115111D01*
Y124889D01*
X39450Y124435D01*
D02*
G37*
G36*
X117416Y91840D02*
X116769Y90420D01*
X115789Y87879D01*
X115457Y86758D01*
X115230Y85738D01*
X115107Y84818D01*
X115090Y83998D01*
X115178Y83278D01*
X115370Y82657D01*
X115668Y82137D01*
X112310Y86646D01*
X109732Y84099D01*
X110019Y84497D01*
X110186Y85004D01*
X110233Y85621D01*
X110160Y86348D01*
X109968Y87185D01*
X109655Y88132D01*
X109223Y89189D01*
X108671Y90355D01*
X107207Y93018D01*
X112520Y94419D01*
X112846Y93840D01*
X113221Y94599D01*
X117416Y91840D01*
D02*
G37*
G36*
X17670Y99930D02*
X19120Y99269D01*
X19780Y99030D01*
X20398Y98853D01*
X20973Y98736D01*
X21505Y98680D01*
X21995Y98686D01*
X22441Y98752D01*
X22844Y98880D01*
X20281Y89781D01*
X20351Y90243D01*
X20305Y90717D01*
X20141Y91204D01*
X19862Y91703D01*
X19466Y92214D01*
X18953Y92738D01*
X18323Y93274D01*
X17577Y93822D01*
X16714Y94383D01*
X15735Y94956D01*
X16880Y100352D01*
X17670Y99930D01*
D02*
G37*
G36*
X41756Y66714D02*
X36744D01*
X36750Y69250D01*
X41750D01*
X41756Y66714D01*
D02*
G37*
G36*
X23274Y70966D02*
X23346Y70232D01*
X23466Y69540D01*
X23635Y68892D01*
X23851Y68286D01*
X24115Y67724D01*
X24428Y67204D01*
X24788Y66728D01*
X25197Y66294D01*
X25654Y65904D01*
X15846D01*
X16303Y66294D01*
X16712Y66728D01*
X17072Y67204D01*
X17385Y67724D01*
X17649Y68286D01*
X17865Y68892D01*
X18034Y69540D01*
X18154Y70232D01*
X18226Y70966D01*
X18250Y71744D01*
X23250D01*
X23274Y70966D01*
D02*
G37*
G36*
X181625Y34176D02*
X181367Y34630D01*
X180908Y35001D01*
X180249Y35289D01*
X179388Y35496D01*
X178326Y35619D01*
X177063Y35661D01*
X175599Y35619D01*
X172067Y35289D01*
X170000Y35000D01*
Y45000D01*
X171476Y45251D01*
X173911Y45830D01*
X174871Y46159D01*
X175659Y46514D01*
X176275Y46895D01*
X176718Y47302D01*
X176990Y47735D01*
X177090Y48194D01*
X177018Y48678D01*
X181625Y34176D01*
D02*
G37*
G36*
X127570Y46620D02*
X128069Y46280D01*
X128642Y45980D01*
X129285Y45720D01*
X130001Y45500D01*
X130789Y45320D01*
X131649Y45180D01*
X132581Y45080D01*
X134660Y45000D01*
Y35000D01*
X133584Y34980D01*
X131649Y34820D01*
X130789Y34680D01*
X130001Y34500D01*
X129285Y34280D01*
X128642Y34020D01*
X128069Y33720D01*
X127570Y33380D01*
X127141Y33000D01*
Y47000D01*
X127570Y46620D01*
D02*
G37*
G36*
X112858Y33000D02*
X112430Y33380D01*
X111931Y33720D01*
X111358Y34020D01*
X110715Y34280D01*
X109999Y34500D01*
X109211Y34680D01*
X108351Y34820D01*
X107419Y34920D01*
X105340Y35000D01*
Y45000D01*
X106415Y45020D01*
X108351Y45180D01*
X109211Y45320D01*
X109999Y45500D01*
X110715Y45720D01*
X111358Y45980D01*
X111931Y46280D01*
X112430Y46620D01*
X112858Y47000D01*
Y33000D01*
D02*
G37*
G36*
X97570Y46620D02*
X98069Y46280D01*
X98642Y45980D01*
X99285Y45720D01*
X100001Y45500D01*
X100789Y45320D01*
X101649Y45180D01*
X102581Y45080D01*
X104660Y45000D01*
Y35000D01*
X103585Y34980D01*
X101649Y34820D01*
X100789Y34680D01*
X100001Y34500D01*
X99285Y34280D01*
X98642Y34020D01*
X98069Y33720D01*
X97570Y33380D01*
X97141Y33000D01*
Y47000D01*
X97570Y46620D01*
D02*
G37*
G36*
X485396Y278034D02*
X484519Y278495D01*
X483523Y278696D01*
X482407Y278636D01*
X481172Y278316D01*
X479817Y277736D01*
X478343Y276896D01*
X476750Y275795D01*
X475037Y274435D01*
X473205Y272814D01*
X471254Y270933D01*
X471084Y271102D01*
X467023Y267667D01*
X462289Y277039D01*
X462452Y277026D01*
X462664Y277080D01*
X462926Y277203D01*
X463237Y277393D01*
X463597Y277651D01*
X464466Y278370D01*
X465292Y279139D01*
X465465Y279316D01*
X468558Y282859D01*
X469338Y283910D01*
X470523Y285815D01*
X470927Y286670D01*
X471206Y287459D01*
X471360Y288183D01*
X485396Y278034D01*
D02*
G37*
G36*
X439925Y252500D02*
X439169Y252483D01*
X438439Y252415D01*
X437737Y252296D01*
X437062Y252127D01*
X436415Y251907D01*
X435795Y251637D01*
X435201Y251316D01*
X434636Y250945D01*
X434097Y250523D01*
X433586Y250050D01*
X430050Y253586D01*
X430523Y254097D01*
X430945Y254636D01*
X431316Y255201D01*
X431637Y255795D01*
X431907Y256415D01*
X432127Y257062D01*
X432296Y257737D01*
X432415Y258439D01*
X432483Y259168D01*
X432500Y259925D01*
X439925Y252500D01*
D02*
G37*
G36*
X224150Y220650D02*
X223931Y220906D01*
X223637Y221136D01*
X223266Y221338D01*
X222819Y221514D01*
X222295Y221663D01*
X221696Y221784D01*
X221021Y221879D01*
X220000Y221948D01*
X218979Y221879D01*
X218304Y221784D01*
X217705Y221663D01*
X217181Y221514D01*
X216734Y221338D01*
X216363Y221136D01*
X216069Y220906D01*
X215850Y220650D01*
Y228350D01*
X216069Y228094D01*
X216363Y227864D01*
X216734Y227662D01*
X217181Y227486D01*
X217705Y227337D01*
X218304Y227216D01*
X218979Y227122D01*
X220000Y227052D01*
X221021Y227122D01*
X221696Y227216D01*
X222295Y227337D01*
X222819Y227486D01*
X223266Y227662D01*
X223637Y227864D01*
X223931Y228094D01*
X224150Y228350D01*
Y220650D01*
D02*
G37*
G36*
X520358Y289642D02*
Y286623D01*
X519654Y285404D01*
X518700Y281843D01*
Y278157D01*
X519654Y274596D01*
X520358Y273377D01*
Y250358D01*
X495000Y225000D01*
X475000D01*
X470000Y230000D01*
Y262474D01*
X470320Y263028D01*
X471277Y263762D01*
X474749Y267235D01*
X474792Y267262D01*
X476665Y269068D01*
X477719Y270000D01*
X490000D01*
X495000Y275000D01*
Y290000D01*
X500000Y295000D01*
X515000D01*
X520358Y289642D01*
D02*
G37*
G36*
X236069Y228094D02*
X236363Y227864D01*
X236734Y227662D01*
X237181Y227486D01*
X237705Y227337D01*
X238304Y227216D01*
X238979Y227122D01*
X240559Y227013D01*
X241463Y227000D01*
Y222000D01*
X240559Y221987D01*
X238979Y221879D01*
X238304Y221784D01*
X237705Y221663D01*
X237181Y221514D01*
X236734Y221338D01*
X236363Y221136D01*
X236069Y220906D01*
X235850Y220650D01*
Y228350D01*
X236069Y228094D01*
D02*
G37*
G36*
X272712Y218620D02*
X272211Y219263D01*
X271683Y219837D01*
X271129Y220344D01*
X270549Y220783D01*
X269941Y221155D01*
X269308Y221459D01*
X268647Y221696D01*
X267960Y221865D01*
X267247Y221966D01*
X266506Y222000D01*
X267307Y227000D01*
X268008Y227027D01*
X268711Y227108D01*
X269416Y227242D01*
X270122Y227431D01*
X270830Y227673D01*
X271539Y227970D01*
X272250Y228320D01*
X272962Y228724D01*
X273676Y229182D01*
X274391Y229694D01*
X272712Y218620D01*
D02*
G37*
G36*
X224150Y201650D02*
X223931Y201906D01*
X223637Y202136D01*
X223266Y202338D01*
X222819Y202514D01*
X222295Y202663D01*
X221696Y202784D01*
X221021Y202878D01*
X220000Y202948D01*
X218979Y202878D01*
X218304Y202784D01*
X217705Y202663D01*
X217181Y202514D01*
X216734Y202338D01*
X216363Y202136D01*
X216069Y201906D01*
X215850Y201650D01*
Y209350D01*
X216069Y209094D01*
X216363Y208864D01*
X216734Y208662D01*
X217181Y208486D01*
X217705Y208338D01*
X218304Y208216D01*
X218979Y208121D01*
X220000Y208052D01*
X221021Y208121D01*
X221696Y208216D01*
X222295Y208338D01*
X222819Y208486D01*
X223266Y208662D01*
X223637Y208864D01*
X223931Y209094D01*
X224150Y209350D01*
Y201650D01*
D02*
G37*
G36*
X396035Y212500D02*
X395364Y211778D01*
X394763Y211027D01*
X394232Y210247D01*
X393773Y209437D01*
X393384Y208598D01*
X393066Y207730D01*
X392818Y206833D01*
X392641Y205906D01*
X392535Y204950D01*
X392500Y203965D01*
X387500Y202500D01*
X387450Y203450D01*
X387300Y204300D01*
X387050Y205050D01*
X386700Y205700D01*
X386250Y206250D01*
X385700Y206700D01*
X385050Y207050D01*
X384300Y207300D01*
X383450Y207450D01*
X382500Y207500D01*
X383965Y212500D01*
X384950Y212535D01*
X385906Y212641D01*
X386833Y212818D01*
X387730Y213066D01*
X388598Y213384D01*
X389437Y213773D01*
X390247Y214232D01*
X391027Y214763D01*
X391778Y215364D01*
X392500Y216035D01*
X396035Y212500D01*
D02*
G37*
G36*
X236069Y209094D02*
X236363Y208864D01*
X236734Y208662D01*
X237181Y208486D01*
X237705Y208338D01*
X238304Y208216D01*
X238979Y208121D01*
X240559Y208013D01*
X241463Y208000D01*
Y203000D01*
X240559Y202987D01*
X238979Y202878D01*
X238304Y202784D01*
X237705Y202663D01*
X237181Y202514D01*
X236734Y202338D01*
X236363Y202136D01*
X236069Y201906D01*
X235850Y201650D01*
Y209350D01*
X236069Y209094D01*
D02*
G37*
G36*
X276327Y206843D02*
X277104Y206540D01*
X277928Y206282D01*
X278799Y206070D01*
X279716Y205904D01*
X280192Y205838D01*
X271432Y199811D01*
X271574Y200417D01*
X271866Y202203D01*
X271869Y202490D01*
X271843Y202713D01*
X271790Y202872D01*
X271709Y202968D01*
X271600Y203000D01*
X275956Y207012D01*
X276327Y206843D01*
D02*
G37*
G36*
X550000Y235000D02*
X565000Y220000D01*
X600000D01*
X610000Y210000D01*
Y190000D01*
X595000Y175000D01*
X588335Y168335D01*
X587071Y168459D01*
X586501Y169312D01*
X584412Y171401D01*
X581955Y173043D01*
X579225Y174174D01*
X576327Y174750D01*
X573373D01*
X570475Y174174D01*
X567745Y173043D01*
X565288Y171401D01*
X563199Y169312D01*
X561557Y166855D01*
X560426Y164125D01*
X559850Y161227D01*
Y158273D01*
X560426Y155375D01*
X561557Y152645D01*
X563199Y150188D01*
X565288Y148099D01*
X565608Y147885D01*
Y146615D01*
X565288Y146401D01*
X563887Y145000D01*
X560813D01*
X559412Y146401D01*
X556955Y148043D01*
X554225Y149173D01*
X551327Y149750D01*
X548373D01*
X545475Y149173D01*
X542745Y148043D01*
X540288Y146401D01*
X538887Y145000D01*
X520000D01*
X470723Y194277D01*
Y204435D01*
X480534Y219902D01*
X495000D01*
X496951Y220290D01*
X498605Y221395D01*
X523963Y246753D01*
X525068Y248407D01*
X525456Y250358D01*
Y273377D01*
X525391Y273707D01*
X525412Y274042D01*
X525198Y274674D01*
X525068Y275328D01*
X524881Y275607D01*
X524773Y275926D01*
X524405Y276564D01*
X523798Y278828D01*
Y281172D01*
X524405Y283436D01*
X524773Y284074D01*
X524881Y284393D01*
X525068Y284672D01*
X525198Y285326D01*
X525412Y285958D01*
X525391Y286293D01*
X525456Y286623D01*
Y289642D01*
X525750Y290000D01*
X550000D01*
Y235000D01*
D02*
G37*
G36*
X410000Y317500D02*
X679895D01*
Y25400D01*
Y22898D01*
X678919Y17991D01*
X677005Y13369D01*
X674225Y9208D01*
X670687Y5670D01*
X666527Y2891D01*
X661904Y976D01*
X656997Y0D01*
X317500D01*
Y159500D01*
X327500D01*
Y172500D01*
Y185500D01*
X317500D01*
Y216411D01*
X318770Y216751D01*
X319597Y215318D01*
X322018Y212897D01*
X324982Y211186D01*
X326715Y210722D01*
X328521Y208521D01*
X331688Y205922D01*
X335302Y203990D01*
X339222Y202801D01*
X343300Y202399D01*
Y202435D01*
X382129D01*
X382232Y202409D01*
X382400Y202400D01*
X382409Y202232D01*
X382435Y202129D01*
Y155400D01*
X382693Y153442D01*
X383449Y151618D01*
X384651Y150051D01*
X412435Y122267D01*
Y100000D01*
X412693Y98042D01*
X413449Y96218D01*
X414651Y94651D01*
X423669Y85633D01*
X423750Y85506D01*
X423763Y85497D01*
X423771Y85485D01*
X424929Y84294D01*
X426740Y82229D01*
X427297Y81493D01*
X427690Y80896D01*
X427698Y80880D01*
X427698Y80876D01*
Y80471D01*
X427632Y80098D01*
X427698Y79795D01*
Y76270D01*
X427698Y75000D01*
X427698D01*
Y75000D01*
X427698D01*
Y68000D01*
X439198D01*
Y63000D01*
X427698D01*
Y56000D01*
X431500D01*
Y53881D01*
X432079Y51719D01*
X433198Y49781D01*
X434645Y48335D01*
X434557Y47758D01*
X434204Y47065D01*
X359002D01*
X358959Y47077D01*
X358576Y48257D01*
Y48750D01*
X358275Y51034D01*
X357393Y53163D01*
X355991Y54991D01*
X354163Y56393D01*
X352667Y57013D01*
Y58387D01*
X354163Y59007D01*
X355991Y60409D01*
X357393Y62237D01*
X358275Y64366D01*
X358576Y66650D01*
Y74150D01*
X358275Y76434D01*
X357393Y78563D01*
X355991Y80391D01*
X354163Y81793D01*
X352034Y82675D01*
X349750Y82976D01*
X336250D01*
X333966Y82675D01*
X331837Y81793D01*
X330009Y80391D01*
X328607Y78563D01*
X327725Y76434D01*
X327425Y74150D01*
Y66650D01*
X327725Y64366D01*
X328607Y62237D01*
X330009Y60409D01*
X331837Y59007D01*
X333333Y58387D01*
Y57013D01*
X331837Y56393D01*
X330009Y54991D01*
X328607Y53163D01*
X327725Y51034D01*
X327425Y48750D01*
Y41250D01*
X327725Y38966D01*
X328607Y36837D01*
X330009Y35010D01*
X331837Y33607D01*
X333333Y32987D01*
Y31613D01*
X331837Y30993D01*
X330009Y29591D01*
X328607Y27763D01*
X327725Y25634D01*
X327425Y23350D01*
Y22100D01*
X343000D01*
X358576D01*
Y23350D01*
X358275Y25634D01*
X357393Y27763D01*
X355991Y29591D01*
X354590Y30665D01*
X355021Y31935D01*
X355814D01*
X356044Y31920D01*
X356162Y31935D01*
X356234D01*
X356367Y31908D01*
X358032Y31902D01*
X358202Y31935D01*
X463549D01*
X464151Y31151D01*
X472895Y22407D01*
X473079Y21719D01*
X474198Y19781D01*
X475781Y18198D01*
X477719Y17079D01*
X479881Y16500D01*
X482119D01*
X483478Y16864D01*
X484299Y17058D01*
X485108Y16090D01*
X485338Y15534D01*
X486400Y14150D01*
X487784Y13088D01*
X489395Y12421D01*
X491125Y12193D01*
X493250D01*
Y20500D01*
Y28807D01*
X491125D01*
X489395Y28579D01*
X488873Y28363D01*
X487802Y30219D01*
X488322Y31468D01*
X488552Y31663D01*
X489048Y31564D01*
X489395Y31421D01*
X489791Y31368D01*
X490033Y31297D01*
X490201Y31314D01*
X491125Y31193D01*
X500375D01*
X502104Y31421D01*
X503716Y32088D01*
X505100Y33150D01*
X506162Y34534D01*
X506829Y36146D01*
X507057Y37875D01*
Y41125D01*
X506829Y42854D01*
X506162Y44466D01*
X505100Y45850D01*
X503716Y46912D01*
X503368Y47056D01*
X503367Y47066D01*
X503346Y47882D01*
X503315Y48022D01*
Y49758D01*
X503346Y49897D01*
X503349Y50000D01*
X511750D01*
Y68500D01*
Y71651D01*
X511853Y71654D01*
X511992Y71685D01*
X518008D01*
X518147Y71654D01*
X518250Y71651D01*
Y68500D01*
Y50000D01*
X522401D01*
X522404Y49897D01*
X522435Y49758D01*
Y38818D01*
X522043Y38307D01*
X519625D01*
X517896Y38080D01*
X516284Y37412D01*
X514900Y36350D01*
X513838Y34966D01*
X513171Y33354D01*
X512943Y31625D01*
Y28375D01*
X513171Y26646D01*
X513838Y25034D01*
X514900Y23650D01*
X516284Y22588D01*
X517896Y21920D01*
X519625Y21693D01*
X528875D01*
X530605Y21920D01*
X532216Y22588D01*
X533600Y23650D01*
X534662Y25034D01*
X535330Y26646D01*
X535538Y28229D01*
X537167Y28443D01*
X538991Y29199D01*
X540558Y30401D01*
X541854Y31697D01*
X543281Y32079D01*
X545219Y33198D01*
X546802Y34781D01*
X547921Y36719D01*
X548500Y38881D01*
Y41119D01*
X547921Y43281D01*
X546802Y45219D01*
X545219Y46802D01*
X543281Y47921D01*
X541119Y48500D01*
X539428D01*
X538578Y49460D01*
X538498Y49712D01*
X538596Y50000D01*
X541750D01*
X541750Y50000D01*
X542987Y49920D01*
X544727Y49200D01*
X546750Y48933D01*
X547000D01*
Y60000D01*
X552000D01*
Y48933D01*
X552250D01*
X554273Y49200D01*
X556158Y49980D01*
X557777Y51223D01*
X559020Y52842D01*
X559313Y53549D01*
X560687D01*
X560980Y52842D01*
X562223Y51223D01*
X563842Y49980D01*
X565727Y49200D01*
X567750Y48933D01*
X573250D01*
X575273Y49200D01*
X577158Y49980D01*
X578777Y51223D01*
X580020Y52842D01*
X580801Y54727D01*
X581067Y56750D01*
Y63250D01*
X580801Y65273D01*
X580020Y67158D01*
X579921Y67287D01*
X579250Y68250D01*
X579250D01*
X579250Y68250D01*
Y72931D01*
X579317Y73264D01*
X579258Y73570D01*
X579282Y73881D01*
X579250Y73979D01*
Y91750D01*
X539250D01*
Y90000D01*
X518250D01*
Y86849D01*
X518147Y86846D01*
X518008Y86815D01*
X511992D01*
X511853Y86846D01*
X511750Y86849D01*
Y90000D01*
X499876D01*
X498170Y91706D01*
X496603Y92908D01*
X494779Y93664D01*
X492821Y93921D01*
X490840D01*
X490698Y93950D01*
Y94000D01*
X486814D01*
X486329Y94007D01*
X486212Y94015D01*
X486095Y94000D01*
X486049D01*
X485733Y94067D01*
X485711Y94063D01*
X485688Y94067D01*
X485342Y94000D01*
X473068D01*
X472729Y94067D01*
X472671Y94056D01*
X472614Y94066D01*
X469682Y94000D01*
X466814D01*
X466329Y94007D01*
X466212Y94015D01*
X466095Y94000D01*
X466049D01*
X465733Y94067D01*
X465711Y94063D01*
X465688Y94067D01*
X465342Y94000D01*
X459547D01*
X459055Y94065D01*
X452773D01*
X452760Y94067D01*
X450760Y94080D01*
X450668Y94098D01*
X450657Y94096D01*
X450647Y94098D01*
X448910Y94091D01*
X447760Y94098D01*
X447744Y94095D01*
X447729Y94098D01*
X447667Y94086D01*
X445847Y94078D01*
X445780Y94065D01*
X445757D01*
X445692Y94075D01*
X445542Y94070D01*
X445518Y94065D01*
X436907D01*
X435564Y95212D01*
X434576Y96168D01*
X434446Y96252D01*
X427565Y103133D01*
Y118385D01*
X428573Y118655D01*
X428835Y118666D01*
X431404Y116097D01*
X434596Y114254D01*
X438157Y113300D01*
X441843D01*
X445404Y114254D01*
X448596Y116097D01*
X451203Y118704D01*
X453046Y121896D01*
X454000Y125457D01*
Y129143D01*
X453046Y132704D01*
X452252Y134080D01*
X451951Y135290D01*
X453605Y136395D01*
X458605Y141395D01*
X459710Y143049D01*
X460098Y145000D01*
Y215000D01*
X459710Y216951D01*
X458605Y218605D01*
X453605Y223605D01*
X451951Y224710D01*
X450000Y225098D01*
X430000D01*
X428049Y224710D01*
X426395Y223605D01*
X421395Y218605D01*
X420290Y216951D01*
X419902Y215000D01*
Y145000D01*
X420290Y143049D01*
X421395Y141395D01*
X426395Y136395D01*
X428049Y135290D01*
X428224Y134904D01*
X426954Y132704D01*
X426565Y131251D01*
X425922Y130985D01*
X425165Y130933D01*
X397565Y158533D01*
Y203404D01*
X397568Y203416D01*
X397565Y203457D01*
Y203655D01*
X397595Y203782D01*
X397623Y204577D01*
X397686Y205146D01*
X397787Y205675D01*
X397924Y206173D01*
X398098Y206646D01*
X398310Y207103D01*
X398564Y207551D01*
X398867Y207997D01*
X399225Y208444D01*
X399767Y209027D01*
X399836Y209137D01*
X436939Y246241D01*
X437045Y246306D01*
X437404Y246637D01*
X437612Y246800D01*
X437818Y246935D01*
X438030Y247050D01*
X438256Y247148D01*
X438504Y247232D01*
X438784Y247303D01*
X439102Y247356D01*
X439465Y247390D01*
X440043Y247404D01*
X440475Y247500D01*
X441646D01*
X444825Y248352D01*
X447675Y249998D01*
X450003Y252325D01*
X451648Y255175D01*
X452486Y258304D01*
X452555Y258524D01*
X453600Y259127D01*
X455051Y258290D01*
X458230Y257438D01*
X461521D01*
X463632Y258003D01*
X464902Y257029D01*
Y230000D01*
X465290Y228049D01*
X466395Y226395D01*
X471395Y221395D01*
X473049Y220290D01*
X473452Y220210D01*
X473952Y219042D01*
X466418Y207166D01*
X466258Y206753D01*
X466013Y206386D01*
X465903Y205834D01*
X465700Y205310D01*
X465711Y204868D01*
X465625Y204435D01*
Y194277D01*
X466013Y192326D01*
X467118Y190672D01*
X516395Y141395D01*
X518049Y140290D01*
X520000Y139902D01*
X534534D01*
X535328Y138632D01*
X534850Y136227D01*
Y133273D01*
X535426Y130375D01*
X536557Y127645D01*
X538199Y125188D01*
X540288Y123099D01*
X540608Y122885D01*
Y121615D01*
X540288Y121401D01*
X538199Y119312D01*
X536557Y116855D01*
X535426Y114125D01*
X534850Y111227D01*
Y108273D01*
X535426Y105375D01*
X536557Y102645D01*
X538199Y100188D01*
X540288Y98099D01*
X542745Y96457D01*
X545475Y95326D01*
X548373Y94750D01*
X551327D01*
X554225Y95326D01*
X556955Y96457D01*
X559412Y98099D01*
X561501Y100188D01*
X561715Y100508D01*
X562985D01*
X563199Y100188D01*
X565288Y98099D01*
X567745Y96457D01*
X570475Y95326D01*
X573373Y94750D01*
X576327D01*
X579225Y95326D01*
X581955Y96457D01*
X584412Y98099D01*
X586501Y100188D01*
X588143Y102645D01*
X588730Y104062D01*
X590000Y103810D01*
Y72795D01*
X589644Y72178D01*
X589065Y70017D01*
Y67779D01*
X589644Y65617D01*
X590763Y63678D01*
X592346Y62096D01*
X594284Y60977D01*
X596446Y60398D01*
X598684D01*
X600846Y60977D01*
X602784Y62096D01*
X604366Y63678D01*
X605485Y65617D01*
X606065Y67779D01*
Y70017D01*
X605485Y72178D01*
X605129Y72795D01*
Y112035D01*
X604872Y113993D01*
X604116Y115818D01*
X602914Y117384D01*
X602914Y117385D01*
X591555Y128743D01*
X591502Y128833D01*
X591129Y129249D01*
X590944Y129505D01*
X590759Y129825D01*
X590577Y130223D01*
X590404Y130709D01*
X590249Y131291D01*
X590133Y131896D01*
X589961Y133701D01*
X589947Y134722D01*
X589850Y135176D01*
Y136227D01*
X589274Y139125D01*
X588143Y141855D01*
X586501Y144312D01*
X584412Y146401D01*
X581955Y148043D01*
X579225Y149173D01*
X576327Y149750D01*
X573373D01*
X571624Y149402D01*
X570318Y149836D01*
X570039Y150253D01*
X569847Y150717D01*
X569492Y151072D01*
X569213Y151490D01*
X568893Y151704D01*
X567159Y153438D01*
X566075Y155060D01*
X565329Y156862D01*
X564948Y158775D01*
Y160725D01*
X565329Y162638D01*
X566075Y164440D01*
X567159Y166062D01*
X568538Y167441D01*
X570160Y168525D01*
X571962Y169272D01*
X573875Y169652D01*
X575825D01*
X577738Y169272D01*
X579540Y168525D01*
X581162Y167441D01*
X582542Y166062D01*
X582832Y165627D01*
X583011Y165448D01*
X583130Y165225D01*
X583709Y164750D01*
X584239Y164221D01*
X584472Y164124D01*
X584668Y163963D01*
X585385Y163746D01*
X586077Y163459D01*
X586329D01*
X586571Y163386D01*
X587835Y163262D01*
X588087Y163286D01*
X588335Y163237D01*
X589069Y163383D01*
X589815Y163456D01*
X590038Y163576D01*
X590286Y163625D01*
X590909Y164041D01*
X591569Y164394D01*
X591729Y164590D01*
X591940Y164730D01*
X598605Y171395D01*
X613605Y186395D01*
X614710Y188049D01*
X615098Y190000D01*
Y210000D01*
X614710Y211951D01*
X613605Y213605D01*
X603605Y223605D01*
X601951Y224710D01*
X600000Y225098D01*
X567112D01*
X555098Y237112D01*
Y290000D01*
X554710Y291951D01*
X553605Y293605D01*
X551951Y294710D01*
X550000Y295098D01*
X525750D01*
X525502Y295049D01*
X525250Y295073D01*
X524534Y294856D01*
X523799Y294710D01*
X523589Y294569D01*
X523347Y294496D01*
X522999Y294211D01*
X518605Y298605D01*
X516951Y299710D01*
X515000Y300098D01*
X500000D01*
X498049Y299710D01*
X496395Y298605D01*
X491395Y293605D01*
X490949Y293531D01*
X489723Y294472D01*
X487746Y295291D01*
X485625Y295570D01*
X474375D01*
X472254Y295291D01*
X470277Y294472D01*
X468580Y293170D01*
X467278Y291472D01*
X466459Y289496D01*
X466458Y289487D01*
X466400Y289361D01*
X466398Y289299D01*
X466373Y289241D01*
X466289Y288844D01*
X466208Y288614D01*
X466040Y288259D01*
X465120Y286781D01*
X464585Y286060D01*
X461724Y282782D01*
X461353Y282438D01*
X458230D01*
X455051Y281586D01*
X452200Y279940D01*
X449873Y277613D01*
X448227Y274762D01*
X447389Y271634D01*
X447320Y271414D01*
X446275Y270811D01*
X444825Y271648D01*
X441646Y272500D01*
X438354D01*
X435175Y271648D01*
X432325Y270002D01*
X429997Y267675D01*
X428352Y264825D01*
X427500Y261646D01*
Y260474D01*
X427404Y260043D01*
X427390Y259465D01*
X427356Y259102D01*
X427303Y258783D01*
X427233Y258504D01*
X427148Y258255D01*
X427050Y258030D01*
X426935Y257818D01*
X426800Y257612D01*
X426637Y257404D01*
X426306Y257045D01*
X426240Y256938D01*
X389138Y219836D01*
X389027Y219767D01*
X388444Y219225D01*
X387997Y218867D01*
X387551Y218564D01*
X387103Y218310D01*
X386646Y218098D01*
X386173Y217924D01*
X385676Y217787D01*
X385146Y217686D01*
X384577Y217623D01*
X383782Y217595D01*
X383655Y217565D01*
X383458D01*
X383416Y217568D01*
X383404Y217565D01*
X343300D01*
X343152Y217545D01*
X343044Y217567D01*
X342309Y219008D01*
X343000Y221588D01*
Y225012D01*
X342114Y228318D01*
X340403Y231282D01*
X337982Y233703D01*
X335018Y235414D01*
X331712Y236300D01*
X328288D01*
X324982Y235414D01*
X322018Y233703D01*
X319597Y231282D01*
X318770Y229849D01*
X317500Y230189D01*
Y317500D01*
X320000D01*
Y460000D01*
X410000D01*
Y317500D01*
D02*
G37*
G36*
X455000Y215000D02*
Y145000D01*
X450000Y140000D01*
X446003D01*
X445404Y140346D01*
X441843Y141300D01*
X438157D01*
X434596Y140346D01*
X433997Y140000D01*
X430000D01*
X425000Y145000D01*
Y215000D01*
X430000Y220000D01*
X450000D01*
X455000Y215000D01*
D02*
G37*
G36*
X584867Y133424D02*
X585080Y131174D01*
X585276Y130150D01*
X585532Y129194D01*
X585848Y128306D01*
X586223Y127485D01*
X586658Y126732D01*
X587153Y126046D01*
X587707Y125429D01*
X584171Y121893D01*
X583554Y122447D01*
X582868Y122942D01*
X582115Y123377D01*
X581294Y123752D01*
X580406Y124068D01*
X579450Y124324D01*
X578426Y124520D01*
X577335Y124656D01*
X576176Y124733D01*
X574950Y124750D01*
X584850Y134650D01*
X584867Y133424D01*
D02*
G37*
G36*
X450668Y88982D02*
X452729Y88969D01*
Y81500D01*
X452679Y81975D01*
X452529Y82400D01*
X452279Y82775D01*
X451929Y83100D01*
X451479Y83375D01*
X450929Y83600D01*
X450279Y83775D01*
X449529Y83900D01*
X449195Y83929D01*
X448860Y83900D01*
X448106Y83775D01*
X447453Y83600D01*
X446900Y83375D01*
X446447Y83100D01*
X446094Y82775D01*
X445842Y82400D01*
X445689Y81975D01*
X445637Y81500D01*
X445668Y88969D01*
X445718Y88975D01*
X445868Y88981D01*
X447729Y88988D01*
Y89000D01*
X448905Y88993D01*
X450668Y89000D01*
Y88982D01*
D02*
G37*
G36*
X472729Y81357D02*
X472679Y81832D01*
X472529Y82257D01*
X472279Y82632D01*
X471929Y82957D01*
X471479Y83232D01*
X470929Y83457D01*
X470279Y83632D01*
X469529Y83757D01*
X469195Y83786D01*
X468860Y83757D01*
X468106Y83632D01*
X467453Y83457D01*
X466900Y83232D01*
X466447Y82957D01*
X466094Y82632D01*
X465842Y82257D01*
X465689Y81832D01*
X465637Y81357D01*
X465668Y88969D01*
X465718Y88948D01*
X465868Y88929D01*
X466118Y88912D01*
X468554Y88875D01*
X472729Y88969D01*
Y81357D01*
D02*
G37*
G36*
X544281Y74625D02*
X544230Y75100D01*
X544081Y75525D01*
X543830Y75900D01*
X543480Y76225D01*
X543031Y76500D01*
X542481Y76725D01*
X541830Y76900D01*
X541081Y77025D01*
X540496Y77077D01*
X539908Y77025D01*
X539154Y76900D01*
X538500Y76725D01*
X537947Y76500D01*
X537494Y76225D01*
X537142Y75900D01*
X536890Y75525D01*
X536739Y75100D01*
X536689Y74625D01*
Y84625D01*
X536739Y84150D01*
X536890Y83725D01*
X537142Y83350D01*
X537494Y83025D01*
X537947Y82750D01*
X538500Y82525D01*
X539154Y82350D01*
X539908Y82225D01*
X540496Y82173D01*
X541081Y82225D01*
X541830Y82350D01*
X542481Y82525D01*
X543031Y82750D01*
X543480Y83025D01*
X543830Y83350D01*
X544081Y83725D01*
X544230Y84150D01*
X544281Y84625D01*
Y74625D01*
D02*
G37*
G36*
X485718Y88948D02*
X485868Y88929D01*
X486118Y88912D01*
X489718Y88858D01*
X490668Y88857D01*
Y83857D01*
X489714Y83832D01*
X488860Y83757D01*
X488106Y83632D01*
X487453Y83457D01*
X486900Y83232D01*
X486447Y82957D01*
X486094Y82632D01*
X485842Y82257D01*
X485689Y81832D01*
X485637Y81357D01*
X485668Y88969D01*
X485718Y88948D01*
D02*
G37*
G36*
X432132Y91439D02*
X434073Y89781D01*
X434911Y89190D01*
X435662Y88757D01*
X436325Y88483D01*
X436901Y88367D01*
X437389Y88409D01*
X437789Y88610D01*
X438102Y88969D01*
X432729Y80200D01*
X432917Y80683D01*
X432946Y81255D01*
X432816Y81917D01*
X432525Y82667D01*
X432074Y83506D01*
X431464Y84435D01*
X430694Y85452D01*
X428675Y87754D01*
X427425Y89039D01*
X431031Y92505D01*
X432132Y91439D01*
D02*
G37*
G36*
X523311Y74250D02*
X523261Y74725D01*
X523110Y75150D01*
X522858Y75525D01*
X522506Y75850D01*
X522053Y76125D01*
X521500Y76350D01*
X520846Y76525D01*
X520092Y76650D01*
X519236Y76725D01*
X518280Y76750D01*
Y81750D01*
X519236Y81775D01*
X520092Y81850D01*
X520846Y81975D01*
X521500Y82150D01*
X522053Y82375D01*
X522506Y82650D01*
X522858Y82975D01*
X523110Y83350D01*
X523261Y83775D01*
X523311Y84250D01*
Y74250D01*
D02*
G37*
G36*
X506739Y83775D02*
X506890Y83350D01*
X507142Y82975D01*
X507494Y82650D01*
X507947Y82375D01*
X508500Y82150D01*
X509154Y81975D01*
X509908Y81850D01*
X510764Y81775D01*
X511720Y81750D01*
Y76750D01*
X510764Y76725D01*
X509908Y76650D01*
X509154Y76525D01*
X508500Y76350D01*
X507947Y76125D01*
X507494Y75850D01*
X507142Y75525D01*
X506890Y75150D01*
X506739Y74725D01*
X506689Y74250D01*
Y84250D01*
X506739Y83775D01*
D02*
G37*
G36*
X574220Y73281D02*
X573798Y73231D01*
X573420Y73081D01*
X573088Y72831D01*
X572799Y72481D01*
X572555Y72031D01*
X572355Y71480D01*
X572200Y70830D01*
X572089Y70080D01*
X572051Y69597D01*
X572099Y68979D01*
X572224Y68149D01*
X572398Y67438D01*
X572622Y66844D01*
X572896Y66368D01*
X573219Y66011D01*
X573592Y65772D01*
X574016Y65651D01*
X574488Y65648D01*
X565374Y64622D01*
X565683Y65065D01*
X565960Y65550D01*
X566203Y66075D01*
X566415Y66640D01*
X566594Y67246D01*
X566740Y67892D01*
X566854Y68579D01*
X566935Y69307D01*
X566946Y69568D01*
X566900Y70089D01*
X566775Y70843D01*
X566600Y71496D01*
X566375Y72049D01*
X566100Y72502D01*
X565775Y72855D01*
X565400Y73107D01*
X564975Y73259D01*
X564500Y73311D01*
X574220Y73281D01*
D02*
G37*
G36*
X262408Y73307D02*
X262452Y72772D01*
X262604Y72212D01*
X262863Y71628D01*
X263229Y71020D01*
X263702Y70388D01*
X264283Y69731D01*
X264970Y69050D01*
X265765Y68345D01*
X266668Y67616D01*
X265744Y61524D01*
X264749Y62267D01*
X263040Y63367D01*
X262324Y63724D01*
X261702Y63953D01*
X261172Y64053D01*
X260735Y64024D01*
X260391Y63867D01*
X260140Y63582D01*
X259982Y63167D01*
X262471Y73818D01*
X262408Y73307D01*
D02*
G37*
G36*
X483723Y61011D02*
X483298Y60860D01*
X482923Y60608D01*
X482598Y60256D01*
X482323Y59803D01*
X482098Y59250D01*
X481923Y58596D01*
X481798Y57842D01*
X481723Y56986D01*
X481698Y56031D01*
X476698D01*
X476673Y56986D01*
X476598Y57842D01*
X476473Y58596D01*
X476298Y59250D01*
X476073Y59803D01*
X475798Y60256D01*
X475473Y60608D01*
X475098Y60860D01*
X474673Y61011D01*
X474198Y61061D01*
X484198D01*
X483723Y61011D01*
D02*
G37*
G36*
X464142D02*
X463717Y60860D01*
X463342Y60608D01*
X463017Y60256D01*
X462742Y59803D01*
X462517Y59250D01*
X462342Y58596D01*
X462217Y57842D01*
X462142Y56986D01*
X462117Y56031D01*
X457117D01*
X457092Y56986D01*
X457017Y57842D01*
X456892Y58596D01*
X456717Y59250D01*
X456492Y59803D01*
X456217Y60256D01*
X455892Y60608D01*
X455517Y60860D01*
X455092Y61011D01*
X454617Y61061D01*
X464617D01*
X464142Y61011D01*
D02*
G37*
G36*
X444142D02*
X443717Y60860D01*
X443342Y60608D01*
X443017Y60256D01*
X442742Y59803D01*
X442517Y59250D01*
X442342Y58596D01*
X442217Y57842D01*
X442142Y56986D01*
X442117Y56031D01*
X437117D01*
X437092Y56986D01*
X437017Y57842D01*
X436892Y58596D01*
X436717Y59250D01*
X436492Y59803D01*
X436217Y60256D01*
X435892Y60608D01*
X435517Y60860D01*
X435092Y61011D01*
X434617Y61061D01*
X444617D01*
X444142Y61011D01*
D02*
G37*
G36*
X534525Y55011D02*
X534100Y54860D01*
X533725Y54608D01*
X533400Y54256D01*
X533125Y53803D01*
X532900Y53250D01*
X532725Y52596D01*
X532600Y51842D01*
X532525Y50986D01*
X532500Y50030D01*
X527500D01*
X527475Y50986D01*
X527400Y51842D01*
X527275Y52596D01*
X527100Y53250D01*
X526875Y53803D01*
X526600Y54256D01*
X526275Y54608D01*
X525900Y54860D01*
X525475Y55011D01*
X525000Y55061D01*
X535000D01*
X534525Y55011D01*
D02*
G37*
G36*
X500275Y55009D02*
X499850Y54857D01*
X499475Y54604D01*
X499150Y54251D01*
X498875Y53798D01*
X498650Y53245D01*
X498475Y52592D01*
X498350Y51838D01*
X498275Y50985D01*
X498250Y50030D01*
X493250D01*
X493280Y55030D01*
X500750Y55061D01*
X500275Y55009D01*
D02*
G37*
G36*
X498275Y46781D02*
X498350Y45913D01*
X498474Y45148D01*
X498649Y44484D01*
X498873Y43922D01*
X499148Y43463D01*
X499472Y43106D01*
X499846Y42850D01*
X500270Y42697D01*
X500744Y42646D01*
X490756D01*
X491230Y42697D01*
X491654Y42850D01*
X492028Y43106D01*
X492352Y43463D01*
X492626Y43922D01*
X492851Y44484D01*
X493026Y45148D01*
X493150Y45913D01*
X493225Y46781D01*
X493250Y47751D01*
X498250D01*
X498275Y46781D01*
D02*
G37*
G36*
X242344Y40356D02*
X237711Y41199D01*
X241626Y49721D01*
X242344Y40356D01*
D02*
G37*
G36*
X242630Y40304D02*
X242584Y40203D01*
X242545Y40092D01*
X242512Y39970D01*
X242465Y39695D01*
X242451Y39542D01*
X242449Y39020D01*
X242461Y38825D01*
X242344Y40356D01*
X242630Y40304D01*
D02*
G37*
G36*
X353341Y44025D02*
X353352Y43600D01*
X353504Y43225D01*
X353796Y42900D01*
X354229Y42625D01*
X354802Y42400D01*
X355516Y42225D01*
X356371Y42100D01*
X357366Y42025D01*
X358502Y42000D01*
X358051Y37000D01*
X356386Y37006D01*
X350530Y37401D01*
X350522Y37507D01*
X350721Y37626D01*
X353471Y44500D01*
X353341Y44025D01*
D02*
G37*
G36*
X490503Y36373D02*
X490277Y36492D01*
X489974Y36599D01*
X489595Y36693D01*
X489139Y36774D01*
X487996Y36900D01*
X486548Y36975D01*
X484792Y37000D01*
Y42000D01*
X485708Y42006D01*
X489139Y42226D01*
X489595Y42307D01*
X489974Y42401D01*
X490277Y42508D01*
X490503Y42627D01*
Y36373D01*
D02*
G37*
%LPC*%
G36*
X382500Y443789D02*
Y433500D01*
X392789D01*
X392114Y436018D01*
X390403Y438982D01*
X387982Y441403D01*
X385018Y443114D01*
X382500Y443789D01*
D02*
G37*
G36*
X377500D02*
X374982Y443114D01*
X372018Y441403D01*
X369597Y438982D01*
X367886Y436018D01*
X367211Y433500D01*
X377500D01*
Y443789D01*
D02*
G37*
G36*
X392789Y428500D02*
X382500D01*
Y418211D01*
X385018Y418886D01*
X387982Y420597D01*
X390403Y423018D01*
X392114Y425982D01*
X392789Y428500D01*
D02*
G37*
G36*
X377500D02*
X367211D01*
X367886Y425982D01*
X369597Y423018D01*
X372018Y420597D01*
X374982Y418886D01*
X377500Y418211D01*
Y428500D01*
D02*
G37*
G36*
X381712Y342000D02*
X378288D01*
X374982Y341114D01*
X372018Y339403D01*
X369597Y336982D01*
X367886Y334018D01*
X367000Y330712D01*
Y327289D01*
X367886Y323982D01*
X369597Y321018D01*
X372018Y318597D01*
X373919Y317500D01*
X374982Y316886D01*
X378288Y316000D01*
X381712D01*
X385018Y316886D01*
X387982Y318597D01*
X390403Y321018D01*
X392114Y323982D01*
X393000Y327289D01*
Y330712D01*
X392114Y334018D01*
X390403Y336982D01*
X387982Y339403D01*
X385018Y341114D01*
X381712Y342000D01*
D02*
G37*
G36*
X595750Y290593D02*
X587500D01*
Y276500D01*
X606593D01*
Y279750D01*
X606223Y282556D01*
X605140Y285171D01*
X603417Y287417D01*
X601171Y289140D01*
X598556Y290223D01*
X595750Y290593D01*
D02*
G37*
G36*
X582500D02*
X574250D01*
X571444Y290223D01*
X568829Y289140D01*
X566583Y287417D01*
X564860Y285171D01*
X563777Y282556D01*
X563407Y279750D01*
Y276500D01*
X582500D01*
Y290593D01*
D02*
G37*
G36*
X606593Y271500D02*
X587500D01*
Y257407D01*
X595750D01*
X598556Y257777D01*
X601171Y258860D01*
X603417Y260583D01*
X605140Y262829D01*
X606223Y265444D01*
X606593Y268250D01*
Y271500D01*
D02*
G37*
G36*
X582500D02*
X563407D01*
Y268250D01*
X563777Y265444D01*
X564860Y262829D01*
X566583Y260583D01*
X568829Y258860D01*
X571444Y257777D01*
X574250Y257407D01*
X582500D01*
Y271500D01*
D02*
G37*
G36*
X652068Y251000D02*
X647932D01*
X643875Y250193D01*
X640053Y248610D01*
X636613Y246312D01*
X633688Y243387D01*
X631390Y239947D01*
X629807Y236126D01*
X629000Y232068D01*
Y227932D01*
X629807Y223874D01*
X631390Y220053D01*
X633688Y216613D01*
X636613Y213688D01*
X640053Y211390D01*
X643875Y209807D01*
X647932Y209000D01*
X652068D01*
X656125Y209807D01*
X659947Y211390D01*
X663387Y213688D01*
X666312Y216613D01*
X668610Y220053D01*
X670193Y223874D01*
X671000Y227932D01*
Y232068D01*
X670193Y236126D01*
X668610Y239947D01*
X666312Y243387D01*
X663387Y246312D01*
X659947Y248610D01*
X656125Y250193D01*
X652068Y251000D01*
D02*
G37*
G36*
X343000Y185500D02*
X332500D01*
Y175000D01*
X343000D01*
Y185500D01*
D02*
G37*
G36*
Y170000D02*
X332500D01*
Y159500D01*
X343000D01*
Y170000D01*
D02*
G37*
G36*
X647612Y173000D02*
X644189D01*
X640882Y172114D01*
X637918Y170403D01*
X635498Y167982D01*
X633786Y165018D01*
X632900Y161712D01*
Y158288D01*
X633786Y154982D01*
X635498Y152018D01*
X637918Y149597D01*
X640882Y147886D01*
X644189Y147000D01*
X647612D01*
X650918Y147886D01*
X653882Y149597D01*
X656303Y152018D01*
X658014Y154982D01*
X658900Y158288D01*
Y161712D01*
X658014Y165018D01*
X656303Y167982D01*
X653882Y170403D01*
X650918Y172114D01*
X647612Y173000D01*
D02*
G37*
G36*
Y123000D02*
X644189D01*
X640882Y122114D01*
X637918Y120403D01*
X635498Y117982D01*
X633786Y115018D01*
X632900Y111712D01*
Y108288D01*
X633786Y104982D01*
X635498Y102018D01*
X637918Y99597D01*
X640882Y97886D01*
X644189Y97000D01*
X647612D01*
X650918Y97886D01*
X653882Y99597D01*
X656303Y102018D01*
X658014Y104982D01*
X658900Y108288D01*
Y111712D01*
X658014Y115018D01*
X656303Y117982D01*
X653882Y120403D01*
X650918Y122114D01*
X647612Y123000D01*
D02*
G37*
G36*
X500375Y28807D02*
X498250D01*
Y23000D01*
X506942D01*
X506829Y23854D01*
X506162Y25466D01*
X505100Y26850D01*
X503716Y27912D01*
X502104Y28579D01*
X500375Y28807D01*
D02*
G37*
G36*
X506942Y18000D02*
X498250D01*
Y12193D01*
X500375D01*
X502104Y12421D01*
X503716Y13088D01*
X505100Y14150D01*
X506162Y15534D01*
X506829Y17146D01*
X506942Y18000D01*
D02*
G37*
G36*
X358576Y17100D02*
X345500D01*
Y7024D01*
X349750D01*
X352034Y7325D01*
X354163Y8207D01*
X355991Y9610D01*
X357393Y11437D01*
X358275Y13566D01*
X358576Y15850D01*
Y17100D01*
D02*
G37*
G36*
X340500D02*
X327425D01*
Y15850D01*
X327725Y13566D01*
X328607Y11437D01*
X330009Y9610D01*
X331837Y8207D01*
X333966Y7325D01*
X336250Y7024D01*
X340500D01*
Y17100D01*
D02*
G37*
%LPD*%
D15*
X279200Y197900D02*
G03*
X271600Y205500I-7600J0D01*
G01*
X330000Y223300D02*
G03*
X343300Y210000I13300J0D01*
G01*
X272500Y49900D02*
G03*
X252000Y70400I-20500J0D01*
G01*
X245250Y44996D02*
G03*
X241764Y43590I223J-5577D01*
G01*
X182794Y24628D02*
G03*
X180917Y25000I-1893J-4628D01*
G01*
X182794Y24628D02*
G03*
X191000Y23000I8206J19872D01*
G01*
X219000D02*
G03*
X239891Y39418I0J21500D01*
G01*
X241764Y43590D02*
G03*
X240171Y40752I3326J-3733D01*
G01*
X239891Y39418D02*
G03*
X240171Y40752I-20891J5081D01*
G01*
X20750Y74250D02*
G03*
X20000Y75000I-750J0D01*
G01*
X65005Y29889D02*
G03*
X65006Y30000I-4999J111D01*
G01*
X190000Y224500D02*
G03*
X166000Y200500I0J-24000D01*
G01*
X165000Y227500D02*
G03*
X168000Y224500I3000J0D01*
G01*
X29600Y157100D02*
G03*
X40000Y167500I0J10400D01*
G01*
X25250Y157100D02*
G03*
X10000Y141850I0J-15250D01*
G01*
Y110114D02*
G03*
X22727Y94808I15567J0D01*
G01*
X190000Y170000D02*
G03*
X195000Y165000I5000J0D01*
G01*
X199685Y164429D02*
G03*
X180000Y140000I5315J-24429D01*
G01*
X57500Y190500D02*
G03*
X40000Y173000I0J-17500D01*
G01*
X160355Y105000D02*
G03*
X179558Y120500I0J19645D01*
G01*
X112700Y85800D02*
G03*
X100000Y98500I-12700J0D01*
G01*
X134950Y105000D02*
G03*
X112700Y82750I0J-22250D01*
G01*
X44650Y120000D02*
G03*
X61900Y137250I0J17250D01*
G01*
X75000Y136850D02*
G03*
X74600Y137250I-400J0D01*
G01*
X145729Y115451D02*
G03*
X166000Y135722I0J20271D01*
G01*
X102340Y155450D02*
G03*
X102945Y155233I1995J4585D01*
G01*
X112700Y142300D02*
G03*
X102945Y155233I-13450J0D01*
G01*
X94908Y115451D02*
G03*
X112700Y137250I-4458J21799D01*
G01*
X90450Y115000D02*
G03*
X94908Y115451I0J22250D01*
G01*
X70000Y115000D02*
G03*
X50000Y95000I0J-20000D01*
G01*
X45000Y75000D02*
G03*
X50000Y80000I0J5000D01*
G01*
X45000Y75000D02*
G03*
X39250Y69250I0J-5750D01*
G01*
X148600Y137250D02*
G03*
X155000Y143650I0J6400D01*
G01*
X179558Y120500D02*
G03*
X180000Y124645I-19202J4145D01*
G01*
X200400Y165000D02*
G03*
X195000Y164419I0J-25400D01*
G01*
X90000Y225000D02*
G03*
X75750Y210750I0J-14250D01*
G01*
X90000Y200000D02*
G03*
X80500Y209500I-9500J0D01*
G01*
X85000Y175000D02*
G03*
X90000Y180000I0J5000D01*
G01*
X85000Y175000D02*
G03*
X80750Y170750I0J-4250D01*
G01*
X495750Y57500D02*
X499000Y60750D01*
X484656Y39500D02*
X495750D01*
X469500D02*
X484656D01*
X495750D02*
Y57500D01*
X499000Y60750D02*
X500000D01*
X343000Y39500D02*
X469500D01*
X230000Y205500D02*
X271600D01*
X343300Y210000D02*
X390000D01*
X272500Y37500D02*
Y49900D01*
X245250Y44996D02*
X245472Y45000D01*
X175000Y25000D02*
X180917D01*
X191000Y23000D02*
X219000D01*
X245472Y45000D02*
X252000D01*
X20750Y60000D02*
Y74250D01*
X65006Y30000D02*
X65007Y30000D01*
X65004Y29845D02*
X65005Y29889D01*
X230000Y224500D02*
X280341D01*
X210000D02*
X230000D01*
X199685Y164429D02*
X199966Y164459D01*
X200453Y164511D01*
X199685Y164429D02*
X199685D01*
X200453Y164511D02*
X205000Y165000D01*
X190000Y224500D02*
X210000D01*
X168000D02*
X190000D01*
X25250Y157100D02*
X29600D01*
X10000Y110114D02*
Y141850D01*
X190000Y170000D02*
Y205500D01*
X180000Y140000D02*
Y140000D01*
Y140000D02*
X180000Y124645D01*
X57500Y190500D02*
X75750D01*
X134950Y105000D02*
X160355D01*
X40000Y167500D02*
Y173000D01*
X112700Y82750D02*
Y85800D01*
X22727Y94808D02*
X22750D01*
X62400Y137750D02*
Y143586D01*
X61900Y137250D02*
X62400Y137750D01*
Y143586D02*
X62500Y143686D01*
Y175000D01*
X30000Y120000D02*
X44650D01*
X75000Y126000D02*
Y136850D01*
X166000Y135722D02*
Y200500D01*
X102125Y156125D02*
X102340Y155451D01*
Y155450D02*
Y155451D01*
X112700Y137250D02*
Y142300D01*
X94908Y115451D02*
X145729D01*
X70000Y115000D02*
X90450D01*
X50000Y80000D02*
Y95000D01*
X39250Y60000D02*
Y69250D01*
X577071Y132529D02*
Y134750D01*
Y132529D02*
X597565Y112035D01*
Y68898D02*
Y112035D01*
X135000Y220000D02*
X145000D01*
X138100Y137250D02*
X148600D01*
X155000Y143650D02*
Y145000D01*
X99250Y160000D02*
X102125Y156125D01*
X110000Y175000D02*
X125000Y160000D01*
X135000D01*
X190000Y205500D02*
X210000D01*
X230000D01*
X390000Y155400D02*
Y210000D01*
X433500Y86500D02*
X459055D01*
X420000Y100000D02*
X433500Y86500D01*
X420000Y100000D02*
Y125400D01*
X390000Y155400D02*
X420000Y125400D01*
X530000Y35750D02*
Y60750D01*
X528000Y30750D02*
Y33750D01*
X530000Y60750D02*
X531000D01*
X524250Y30000D02*
X527250D01*
X528000Y33750D02*
X530000Y35750D01*
X527250Y30000D02*
X528000Y30750D01*
X535209Y35750D02*
X539459Y40000D01*
X540000D01*
X530000Y35750D02*
X535209D01*
X569500Y61000D02*
X570500Y60000D01*
X568500Y80000D02*
X569500Y79000D01*
Y61000D02*
Y79000D01*
X439198Y65500D02*
X439617Y65081D01*
Y55383D02*
Y65081D01*
Y55383D02*
X440000Y55000D01*
X459198Y65500D02*
X459617Y65081D01*
Y55383D02*
Y65081D01*
Y55383D02*
X460000Y55000D01*
X479198Y55802D02*
X480000Y55000D01*
X479198Y55802D02*
Y65500D01*
X459198Y86357D02*
X492821D01*
X499000Y79250D02*
X530000D01*
X459055Y86500D02*
X459198Y86357D01*
X495750Y82500D02*
Y83428D01*
X492821Y86357D02*
X495750Y83428D01*
Y82500D02*
X499000Y79250D01*
X568500Y80000D02*
X568750Y80250D01*
X469500Y36500D02*
Y39500D01*
Y36500D02*
X481000Y25000D01*
X75750Y209500D02*
Y210750D01*
Y209500D02*
X80500D01*
X104250Y200000D02*
X120000D01*
X530375Y79625D02*
X551500D01*
X90000Y180000D02*
Y200000D01*
X80750Y160000D02*
Y170750D01*
X22750Y94808D02*
X25567Y94547D01*
X390000Y210000D02*
X440000Y260000D01*
X530000Y79250D02*
X530375Y79625D01*
D17*
X205000Y165000D02*
D03*
Y65000D02*
D03*
D18*
X585000Y274000D02*
D03*
Y206000D02*
D03*
D19*
X135000Y220000D02*
D03*
Y160000D02*
D03*
D20*
X165250Y270000D02*
D03*
X65250D02*
D03*
D21*
X530000Y60750D02*
D03*
Y79250D02*
D03*
X500000Y60750D02*
D03*
Y79250D02*
D03*
D22*
X524250Y30000D02*
D03*
X75750Y209500D02*
D03*
Y190500D02*
D03*
X104250Y200000D02*
D03*
X495750Y39500D02*
D03*
Y20500D02*
D03*
D23*
X80750Y160000D02*
D03*
X99250D02*
D03*
X20750Y60000D02*
D03*
X39250D02*
D03*
D24*
X30000Y92000D02*
D03*
Y120000D02*
D03*
D25*
X138100Y137250D02*
D03*
X125400D02*
D03*
X112700D02*
D03*
X100000D02*
D03*
X87300D02*
D03*
X74600D02*
D03*
X61900D02*
D03*
X138100Y82750D02*
D03*
X125400D02*
D03*
X112700D02*
D03*
X100000D02*
D03*
X87300D02*
D03*
X74600D02*
D03*
X61900D02*
D03*
D26*
X439198Y84500D02*
D03*
Y65500D02*
D03*
X459198Y84500D02*
D03*
Y65500D02*
D03*
X479198Y84500D02*
D03*
Y65500D02*
D03*
D27*
X568500Y80000D02*
D03*
X550000D02*
D03*
D28*
X549500Y60000D02*
D03*
X570500D02*
D03*
D29*
X252000Y70400D02*
D03*
Y45000D02*
D03*
Y19600D02*
D03*
X343000Y70400D02*
D03*
Y45000D02*
D03*
Y19600D02*
D03*
D30*
X480000Y284250D02*
D03*
Y255750D02*
D03*
D31*
Y237500D02*
D03*
Y202500D02*
D03*
D32*
X190000Y205500D02*
D03*
Y224500D02*
D03*
X210000Y205500D02*
D03*
Y224500D02*
D03*
X230000Y205500D02*
D03*
Y224500D02*
D03*
D61*
X170000Y40000D02*
G03*
X195000Y65000I0J25000D01*
G01*
X139875Y249625D02*
X142625Y252375D01*
X157500Y267250D01*
X140000Y255000D02*
X155000Y270000D01*
X160250D01*
X139875Y220125D02*
X140000Y220000D01*
X139875Y220125D02*
Y249625D01*
X120000Y40000D02*
X170000D01*
X90000D02*
X120000D01*
X50150Y270000D02*
X54750D01*
X36500Y287315D02*
Y338500D01*
X58815Y265000D02*
X60250D01*
X35000Y340000D02*
X36500Y338500D01*
Y287315D02*
X58815Y265000D01*
X35000Y340000D02*
Y370000D01*
X459875Y269938D02*
X460832Y270894D01*
X477500Y284250D02*
X480000D01*
X464144Y270894D02*
X477500Y284250D01*
X460832Y270894D02*
X464144D01*
D62*
X25250Y207900D02*
D03*
D63*
Y182500D02*
D03*
Y157100D02*
D03*
D64*
X634000Y380000D02*
D03*
X380000Y431000D02*
D03*
Y329000D02*
D03*
X330000Y223300D02*
D03*
X279200Y197900D02*
D03*
Y223300D02*
D03*
D65*
X126000Y380000D02*
D03*
D66*
X440000Y209200D02*
D03*
Y260000D02*
D03*
Y234600D02*
D03*
X149500Y59000D02*
D03*
X58500Y59000D02*
D03*
X54000Y310500D02*
D03*
X54000Y401500D02*
D03*
X459875Y269938D02*
D03*
D67*
X330000Y172500D02*
D03*
D68*
X574850Y134750D02*
D03*
X549850D02*
D03*
X120000Y40000D02*
D03*
X90000D02*
D03*
X35000Y340000D02*
D03*
Y370000D02*
D03*
X574850Y159750D02*
D03*
Y109750D02*
D03*
X549850D02*
D03*
D69*
X645900Y110000D02*
D03*
Y160000D02*
D03*
D70*
X549850Y159750D02*
D03*
D71*
X440000Y127300D02*
D03*
Y152700D02*
D03*
X532700Y280000D02*
D03*
X507300D02*
D03*
D72*
X272500Y37500D02*
D03*
X165000Y227500D02*
D03*
X62500Y175000D02*
D03*
X175000Y25000D02*
D03*
X140000Y255000D02*
D03*
X597565Y68898D02*
D03*
X155000Y145000D02*
D03*
X110000Y175000D02*
D03*
X100000Y98500D02*
D03*
X540000Y40000D02*
D03*
X440000Y55000D02*
D03*
X460000D02*
D03*
X480000D02*
D03*
X481000Y25000D02*
D03*
X75000Y126000D02*
D03*
X20000Y75000D02*
D03*
X120000Y200000D02*
D03*
X90000Y225000D02*
D03*
D73*
X650000Y230000D02*
D03*
X30000Y30000D02*
D03*
Y430000D02*
D03*
M02*
