G04*
G04 #@! TF.GenerationSoftware,Altium Limited,Altium Designer,22.11.1 (43)*
G04*
G04 Layer_Color=128*
%FSLAX44Y44*%
%MOMM*%
G71*
G04*
G04 #@! TF.SameCoordinates,C72771D2-38F8-48C7-9277-F5F912310F7B*
G04*
G04*
G04 #@! TF.FilePolarity,Positive*
G04*
G01*
G75*
%ADD75C,0.1270*%
D75*
X493850Y134750D02*
X505850D01*
X499850Y128750D02*
Y140750D01*
X468850Y134750D02*
X480850D01*
X474850Y128750D02*
Y140750D01*
X386000Y104600D02*
X394000D01*
X390000Y100600D02*
Y108600D01*
X386000Y130000D02*
X394000D01*
X390000Y126000D02*
Y134000D01*
X335200Y104600D02*
X343200D01*
X339200Y100600D02*
Y108600D01*
X335200Y155400D02*
X343200D01*
X339200Y151400D02*
Y159400D01*
X17000Y180000D02*
X23000D01*
X20000Y177000D02*
Y183000D01*
X42400Y205400D02*
X48400D01*
X45400Y202400D02*
Y208400D01*
X42400Y154600D02*
X48400D01*
X45400Y151600D02*
Y157600D01*
X114900Y40000D02*
X125100D01*
X120000Y34900D02*
Y45100D01*
X84900Y40000D02*
X95100D01*
X90000Y34900D02*
Y45100D01*
X84900Y260000D02*
X95100D01*
X90000Y254900D02*
Y265100D01*
X114900Y260000D02*
X125100D01*
X120000Y254900D02*
Y265100D01*
X562900Y110000D02*
X578900D01*
X570900Y102000D02*
Y118000D01*
X562900Y160000D02*
X578900D01*
X570900Y152000D02*
Y168000D01*
X468850Y159750D02*
X480850D01*
X474850Y153750D02*
Y165750D01*
X493850Y159750D02*
X505850D01*
X499850Y153750D02*
Y165750D01*
X493850Y109750D02*
X505850D01*
X499850Y103750D02*
Y115750D01*
X468850Y109750D02*
X480850D01*
X474850Y103750D02*
Y115750D01*
X435000Y234600D02*
X445000D01*
X440000Y229600D02*
Y239600D01*
X435000Y260000D02*
X445000D01*
X440000Y255000D02*
Y265000D01*
X435000Y209200D02*
X445000D01*
X440000Y204200D02*
Y214200D01*
X434500Y127300D02*
X445500D01*
X440000Y121800D02*
Y132800D01*
X434500Y152700D02*
X445500D01*
X440000Y147200D02*
Y158200D01*
X527200Y280000D02*
X538200D01*
X532700Y274500D02*
Y285500D01*
X501800Y280000D02*
X512800D01*
X507300Y274500D02*
Y285500D01*
X538500Y40000D02*
X541500D01*
X540000Y38500D02*
Y41500D01*
X588500Y65000D02*
X591500D01*
X590000Y63500D02*
Y66500D01*
X142000Y59000D02*
X157000D01*
X149500Y51500D02*
Y66500D01*
X51000Y59000D02*
X66000D01*
X58500Y51500D02*
Y66500D01*
X53000Y241000D02*
X68000D01*
X60500Y233500D02*
Y248500D01*
X144000Y241000D02*
X159000D01*
X151500Y233500D02*
Y248500D01*
X438500Y55000D02*
X441500D01*
X440000Y53500D02*
Y56500D01*
X458500Y55000D02*
X461500D01*
X460000Y53500D02*
Y56500D01*
X478500Y55000D02*
X481500D01*
X480000Y53500D02*
Y56500D01*
X479500Y25000D02*
X482500D01*
X481000Y23500D02*
Y26500D01*
X456375Y269938D02*
X463375D01*
X459875Y266438D02*
Y273438D01*
X73500Y126000D02*
X76500D01*
X75000Y124500D02*
Y127500D01*
X108500Y175000D02*
X111500D01*
X110000Y173500D02*
Y176500D01*
X213500Y175000D02*
X216500D01*
X215000Y173500D02*
Y176500D01*
X173500Y60000D02*
X176500D01*
X175000Y58500D02*
Y61500D01*
X18500Y75000D02*
X21500D01*
X20000Y73500D02*
Y76500D01*
X63500Y30000D02*
X66500D01*
X65000Y28500D02*
Y31500D01*
X223500Y15000D02*
X226500D01*
X225000Y13500D02*
Y16500D01*
X118500Y200000D02*
X121500D01*
X120000Y198500D02*
Y201500D01*
X88500Y225000D02*
X91500D01*
X90000Y223500D02*
Y226500D01*
X153500Y140000D02*
X156500D01*
X155000Y138500D02*
Y141500D01*
X19500Y145000D02*
X22500D01*
X21000Y143500D02*
Y146500D01*
X554000Y30000D02*
X586000D01*
X570000Y14000D02*
Y46000D01*
X554000Y270000D02*
X586000D01*
X570000Y254000D02*
Y286000D01*
X14000Y30000D02*
X46000D01*
X30000Y14000D02*
Y46000D01*
X14000Y270000D02*
X46000D01*
X30000Y254000D02*
Y286000D01*
M02*
