G04*
G04 #@! TF.GenerationSoftware,Altium Limited,Altium Designer,23.3.1 (30)*
G04*
G04 Layer_Color=8388736*
%FSLAX44Y44*%
%MOMM*%
G71*
G04*
G04 #@! TF.SameCoordinates,CAE6B6A5-3340-4E14-88A7-017166009885*
G04*
G04*
G04 #@! TF.FilePolarity,Positive*
G04*
G01*
G75*
%ADD10C,0.2000*%
%ADD13C,0.1000*%
%ADD16C,0.2540*%
%ADD79C,0.0500*%
D10*
X68014Y40330D02*
X86264D01*
X77196Y30695D02*
Y48945D01*
X35330Y373736D02*
Y391986D01*
X25695Y382804D02*
X43945D01*
X612600Y134000D02*
X630850D01*
X622235Y124932D02*
Y143182D01*
X440250Y130482D02*
Y148732D01*
X430615Y139550D02*
X448865D01*
X511268Y280250D02*
X529518D01*
X520450Y270615D02*
Y288865D01*
D13*
X200000Y115000D02*
X210000D01*
X205000Y110000D02*
Y120000D01*
X585000Y235000D02*
Y245000D01*
X580000Y240000D02*
X590000D01*
X130000Y190000D02*
X140000D01*
X135000Y185000D02*
Y195000D01*
X115250Y265000D02*
Y275000D01*
X110250Y270000D02*
X120250D01*
X90000Y155000D02*
Y165000D01*
X85000Y160000D02*
X95000D01*
X30000Y101000D02*
Y111000D01*
X25000Y106000D02*
X35000D01*
X30000Y55000D02*
Y65000D01*
X25000Y60000D02*
X35000D01*
X90000Y195000D02*
Y205000D01*
X85000Y200000D02*
X95000D01*
X82000Y185000D02*
Y215000D01*
X98000Y185000D02*
Y215000D01*
X82000D02*
X98000D01*
X82000Y185000D02*
X98000D01*
X95000Y110000D02*
X105000D01*
X100000Y105000D02*
Y115000D01*
X437198Y75000D02*
X441198D01*
X439198Y73000D02*
Y77000D01*
X457198Y75000D02*
X461198D01*
X459198Y73000D02*
Y77000D01*
X477198Y75000D02*
X481198D01*
X479198Y73000D02*
Y77000D01*
X559250Y75000D02*
Y85000D01*
X554250Y80000D02*
X564250D01*
X510000Y25000D02*
Y35000D01*
X505000Y30000D02*
X515000D01*
X502000Y15000D02*
Y45000D01*
X518000Y15000D02*
Y45000D01*
X502000D02*
X518000D01*
X502000Y15000D02*
X518000D01*
X525000Y70000D02*
X535000D01*
X530000Y65000D02*
Y75000D01*
X555000Y60000D02*
X565000D01*
X560000Y55000D02*
Y65000D01*
X495000Y70000D02*
X505000D01*
X500000Y65000D02*
Y75000D01*
X292500Y45000D02*
X302500D01*
X297500Y40000D02*
Y50000D01*
X475000Y270000D02*
X485000D01*
X480000Y265000D02*
Y275000D01*
Y215000D02*
Y225000D01*
X475000Y220000D02*
X485000D01*
X471000Y234000D02*
X489000D01*
X471000Y206000D02*
X489000D01*
Y234000D01*
X471000Y206000D02*
Y234000D01*
X190000Y213000D02*
Y217000D01*
X188000Y215000D02*
X192000D01*
X210000Y213000D02*
Y217000D01*
X208000Y215000D02*
X212000D01*
X230000Y213000D02*
Y217000D01*
X228000Y215000D02*
X232000D01*
X297848Y236650D02*
X290850D01*
Y233151D01*
X292016Y231985D01*
X296681D01*
X297848Y233151D01*
Y236650D01*
X296681Y224987D02*
X297848Y226153D01*
Y228486D01*
X296681Y229652D01*
X292016D01*
X290850Y228486D01*
Y226153D01*
X292016Y224987D01*
X297848Y222654D02*
X290850D01*
Y219156D01*
X292016Y217989D01*
X296681D01*
X297848Y219156D01*
Y222654D01*
X296681Y210992D02*
X297848Y212158D01*
Y214491D01*
X296681Y215657D01*
X292016D01*
X290850Y214491D01*
Y212158D01*
X292016Y210992D01*
X290850Y203994D02*
Y208659D01*
X295515Y203994D01*
X296681D01*
X297848Y205160D01*
Y207493D01*
X296681Y208659D01*
X1000Y176750D02*
Y183748D01*
X4499D01*
X5665Y182581D01*
Y180249D01*
X4499Y179083D01*
X1000D01*
X3333D02*
X5665Y176750D01*
X12663Y183748D02*
X7998D01*
Y180249D01*
X10330Y181415D01*
X11497D01*
X12663Y180249D01*
Y177916D01*
X11497Y176750D01*
X9164D01*
X7998Y177916D01*
X202660Y132331D02*
Y136996D01*
X199161D01*
Y134664D01*
Y136996D01*
X195662D01*
X194496Y129998D02*
Y125333D01*
X202660Y123001D02*
Y118336D01*
Y120668D01*
X195662D01*
X201494Y111338D02*
X202660Y112504D01*
Y114837D01*
X201494Y116003D01*
X200328D01*
X199161Y114837D01*
Y112504D01*
X197995Y111338D01*
X196829D01*
X195662Y112504D01*
Y114837D01*
X196829Y116003D01*
X199161Y109005D02*
Y104340D01*
X343750Y377580D02*
X348415Y370583D01*
Y377580D02*
X343750Y370583D01*
X350748Y369416D02*
X355413D01*
X362411Y377580D02*
Y370583D01*
X358912D01*
X357746Y371749D01*
Y374081D01*
X358912Y375248D01*
X362411D01*
X364743Y370583D02*
X367076D01*
X365910D01*
Y375248D01*
X364743D01*
X370575Y370583D02*
X374074D01*
X375240Y371749D01*
X374074Y372915D01*
X371741D01*
X370575Y374081D01*
X371741Y375248D01*
X375240D01*
X382238D02*
X378739D01*
X377573Y374081D01*
Y371749D01*
X378739Y370583D01*
X382238D01*
X384570Y377580D02*
Y370583D01*
Y374081D01*
X385737Y375248D01*
X388069D01*
X389235Y374081D01*
Y370583D01*
X392734Y375248D02*
X395067D01*
X396233Y374081D01*
Y370583D01*
X392734D01*
X391568Y371749D01*
X392734Y372915D01*
X396233D01*
X398566Y375248D02*
Y370583D01*
Y372915D01*
X399732Y374081D01*
X400898Y375248D01*
X402065D01*
X407896Y368250D02*
X409062D01*
X410229Y369416D01*
Y375248D01*
X406730D01*
X405564Y374081D01*
Y371749D01*
X406730Y370583D01*
X410229D01*
X416060D02*
X413727D01*
X412561Y371749D01*
Y374081D01*
X413727Y375248D01*
X416060D01*
X417226Y374081D01*
Y372915D01*
X412561D01*
X563248Y283250D02*
X556250D01*
Y279751D01*
X557416Y278585D01*
X562081D01*
X563248Y279751D01*
Y283250D01*
X556250Y276252D02*
Y273920D01*
Y275086D01*
X563248D01*
X562081Y276252D01*
X410248Y275100D02*
X403250D01*
Y271601D01*
X404416Y270435D01*
X409081D01*
X410248Y271601D01*
Y275100D01*
X409081Y263437D02*
X410248Y264603D01*
Y266936D01*
X409081Y268102D01*
X404416D01*
X403250Y266936D01*
Y264603D01*
X404416Y263437D01*
X410248Y261105D02*
X403250D01*
Y257606D01*
X404416Y256439D01*
X409081D01*
X410248Y257606D01*
Y261105D01*
X409081Y249442D02*
X410248Y250608D01*
Y252940D01*
X409081Y254107D01*
X404416D01*
X403250Y252940D01*
Y250608D01*
X404416Y249442D01*
X403250Y247109D02*
Y244776D01*
Y245943D01*
X410248D01*
X409081Y247109D01*
X143500Y173500D02*
X136502D01*
Y176999D01*
X137669Y178165D01*
X140001D01*
X141167Y176999D01*
Y173500D01*
Y175833D02*
X143500Y178165D01*
X136502Y180498D02*
Y185163D01*
X137669D01*
X142334Y180498D01*
X143500D01*
X132585Y272336D02*
X137250D01*
Y275835D01*
X134917D01*
X137250D01*
Y279334D01*
X130252Y280500D02*
X125587D01*
X123254Y272336D02*
X118589D01*
X120922D01*
Y279334D01*
X111592Y273502D02*
X112758Y272336D01*
X115090D01*
X116257Y273502D01*
Y274669D01*
X115090Y275835D01*
X112758D01*
X111592Y277001D01*
Y278167D01*
X112758Y279334D01*
X115090D01*
X116257Y278167D01*
X109259Y275835D02*
X104594D01*
X106926Y273502D02*
Y278167D01*
X73500Y151500D02*
Y158498D01*
X76999D01*
X78165Y157331D01*
Y154999D01*
X76999Y153833D01*
X73500D01*
X75833D02*
X78165Y151500D01*
X85163Y158498D02*
X82830Y157331D01*
X80498Y154999D01*
Y152666D01*
X81664Y151500D01*
X83997D01*
X85163Y152666D01*
Y153833D01*
X83997Y154999D01*
X80498D01*
X41500Y84500D02*
X34502D01*
Y87999D01*
X35668Y89165D01*
X38001D01*
X39167Y87999D01*
Y84500D01*
Y86833D02*
X41500Y89165D01*
X35668Y91498D02*
X34502Y92664D01*
Y94997D01*
X35668Y96163D01*
X36835D01*
X38001Y94997D01*
X39167Y96163D01*
X40334D01*
X41500Y94997D01*
Y92664D01*
X40334Y91498D01*
X39167D01*
X38001Y92664D01*
X36835Y91498D01*
X35668D01*
X38001Y92664D02*
Y94997D01*
X13500Y51500D02*
Y58498D01*
X16999D01*
X18165Y57332D01*
Y54999D01*
X16999Y53833D01*
X13500D01*
X15833D02*
X18165Y51500D01*
X25163D02*
X20498D01*
X25163Y56165D01*
Y57332D01*
X23997Y58498D01*
X21664D01*
X20498Y57332D01*
X141835Y53336D02*
X144167D01*
X143001D01*
Y59167D01*
X144167Y60334D01*
X145334D01*
X146500Y59167D01*
X139502Y61500D02*
X134837D01*
X132504Y53336D02*
X127839D01*
X130172D01*
Y60334D01*
X120841Y54502D02*
X122008Y53336D01*
X124340D01*
X125507Y54502D01*
Y55669D01*
X124340Y56835D01*
X122008D01*
X120841Y58001D01*
Y59167D01*
X122008Y60334D01*
X124340D01*
X125507Y59167D01*
X118509Y56835D02*
X113844D01*
X48336Y318165D02*
Y315833D01*
Y316999D01*
X54167D01*
X55334Y315833D01*
Y314666D01*
X54167Y313500D01*
X56500Y320498D02*
Y325163D01*
X48336Y327495D02*
Y332161D01*
Y329828D01*
X55334D01*
X49502Y339158D02*
X48336Y337992D01*
Y335660D01*
X49502Y334493D01*
X50669D01*
X51835Y335660D01*
Y337992D01*
X53001Y339158D01*
X54167D01*
X55334Y337992D01*
Y335660D01*
X54167Y334493D01*
X51835Y341491D02*
Y346156D01*
X49502Y343824D02*
X54167D01*
X70165Y182166D02*
Y186831D01*
X68999Y187998D01*
X66666D01*
X65500Y186831D01*
Y182166D01*
X66666Y181000D01*
X68999D01*
X67833Y183333D02*
X70165Y181000D01*
X68999D02*
X70165Y182166D01*
X72498Y181000D02*
X74830D01*
X73664D01*
Y187998D01*
X72498Y186831D01*
X85498Y148000D02*
X79666D01*
X78500Y146834D01*
Y144501D01*
X79666Y143335D01*
X85498D01*
X78500Y136337D02*
Y141002D01*
X83165Y136337D01*
X84332D01*
X85498Y137503D01*
Y139836D01*
X84332Y141002D01*
X438030Y85335D02*
X439196Y86501D01*
Y88834D01*
X438030Y90000D01*
X433364D01*
X432198Y88834D01*
Y86501D01*
X433364Y85335D01*
X432198Y79503D02*
X439196D01*
X435697Y83002D01*
Y78337D01*
X458030Y85335D02*
X459196Y86501D01*
Y88834D01*
X458030Y90000D01*
X453364D01*
X452198Y88834D01*
Y86501D01*
X453364Y85335D01*
X459196Y78337D02*
Y83002D01*
X455697D01*
X456863Y80670D01*
Y79503D01*
X455697Y78337D01*
X453364D01*
X452198Y79503D01*
Y81836D01*
X453364Y83002D01*
X478030Y85335D02*
X479196Y86501D01*
Y88834D01*
X478030Y90000D01*
X473364D01*
X472198Y88834D01*
Y86501D01*
X473364Y85335D01*
X479196Y78337D02*
X478030Y80670D01*
X475697Y83002D01*
X473364D01*
X472198Y81836D01*
Y79503D01*
X473364Y78337D01*
X474531D01*
X475697Y79503D01*
Y83002D01*
X575750Y88500D02*
Y81502D01*
X572251D01*
X571085Y82669D01*
Y85001D01*
X572251Y86167D01*
X575750D01*
X573417D02*
X571085Y88500D01*
X568752D02*
X566420D01*
X567586D01*
Y81502D01*
X568752Y82669D01*
X638352Y112165D02*
Y109833D01*
Y110999D01*
X644184D01*
X645350Y109833D01*
Y108666D01*
X644184Y107500D01*
X645350Y114498D02*
Y116830D01*
Y115664D01*
X638352D01*
X639519Y114498D01*
X490165Y12166D02*
Y16832D01*
X488999Y17998D01*
X486666D01*
X485500Y16832D01*
Y12166D01*
X486666Y11000D01*
X488999D01*
X487833Y13333D02*
X490165Y11000D01*
X488999D02*
X490165Y12166D01*
X497163Y11000D02*
X492498D01*
X497163Y15665D01*
Y16832D01*
X495997Y17998D01*
X493664D01*
X492498Y16832D01*
X538500Y53500D02*
X531502D01*
Y56999D01*
X532669Y58165D01*
X535001D01*
X536167Y56999D01*
Y53500D01*
Y55833D02*
X538500Y58165D01*
Y63997D02*
X531502D01*
X535001Y60498D01*
Y65163D01*
X540750Y58248D02*
Y51250D01*
X544249D01*
X545415Y52416D01*
Y57081D01*
X544249Y58248D01*
X540750D01*
X547748Y57081D02*
X548914Y58248D01*
X551247D01*
X552413Y57081D01*
Y55915D01*
X551247Y54749D01*
X550080D01*
X551247D01*
X552413Y53583D01*
Y52416D01*
X551247Y51250D01*
X548914D01*
X547748Y52416D01*
X508500Y53500D02*
X501502D01*
Y56999D01*
X502668Y58165D01*
X505001D01*
X506167Y56999D01*
Y53500D01*
Y55833D02*
X508500Y58165D01*
X502668Y60498D02*
X501502Y61664D01*
Y63997D01*
X502668Y65163D01*
X503835D01*
X505001Y63997D01*
Y62830D01*
Y63997D01*
X506167Y65163D01*
X507334D01*
X508500Y63997D01*
Y61664D01*
X507334Y60498D01*
X248500Y16498D02*
Y10666D01*
X249666Y9500D01*
X251999D01*
X253165Y10666D01*
Y16498D01*
X255498Y9500D02*
X257830D01*
X256664D01*
Y16498D01*
X255498Y15331D01*
X444502Y120465D02*
Y118133D01*
Y119299D01*
X450334D01*
X451500Y118133D01*
Y116966D01*
X450334Y115800D01*
X445668Y122798D02*
X444502Y123964D01*
Y126297D01*
X445668Y127463D01*
X446835D01*
X448001Y126297D01*
Y125130D01*
Y126297D01*
X449167Y127463D01*
X450334D01*
X451500Y126297D01*
Y123964D01*
X450334Y122798D01*
X539535Y284502D02*
X541867D01*
X540701D01*
Y290334D01*
X541867Y291500D01*
X543034D01*
X544200Y290334D01*
X532537Y291500D02*
X537202D01*
X532537Y286835D01*
Y285669D01*
X533703Y284502D01*
X536036D01*
X537202Y285669D01*
X483502Y252665D02*
Y248000D01*
X487001D01*
Y250333D01*
Y248000D01*
X490500D01*
Y254998D02*
Y257330D01*
Y256164D01*
X483502D01*
X484669Y254998D01*
X476498Y244500D02*
X469500D01*
Y241001D01*
X470666Y239835D01*
X475331D01*
X476498Y241001D01*
Y244500D01*
X469500Y232837D02*
Y237502D01*
X474165Y232837D01*
X475331D01*
X476498Y234003D01*
Y236336D01*
X475331Y237502D01*
X188831Y225335D02*
X189998Y226501D01*
Y228834D01*
X188831Y230000D01*
X184166D01*
X183000Y228834D01*
Y226501D01*
X184166Y225335D01*
X188831Y223002D02*
X189998Y221836D01*
Y219503D01*
X188831Y218337D01*
X187665D01*
X186499Y219503D01*
Y220670D01*
Y219503D01*
X185333Y218337D01*
X184166D01*
X183000Y219503D01*
Y221836D01*
X184166Y223002D01*
X208831Y225335D02*
X209998Y226501D01*
Y228834D01*
X208831Y230000D01*
X204166D01*
X203000Y228834D01*
Y226501D01*
X204166Y225335D01*
X203000Y218337D02*
Y223002D01*
X207665Y218337D01*
X208831D01*
X209998Y219503D01*
Y221836D01*
X208831Y223002D01*
X228831Y225335D02*
X229998Y226501D01*
Y228834D01*
X228831Y230000D01*
X224166D01*
X223000Y228834D01*
Y226501D01*
X224166Y225335D01*
X223000Y223002D02*
Y220670D01*
Y221836D01*
X229998D01*
X228831Y223002D01*
D16*
X375000Y292600D02*
X460250D01*
X375000Y176600D02*
X460250D01*
Y292600D01*
X375000Y176600D02*
Y292600D01*
D79*
X262750Y157300D02*
Y239800D01*
X346500Y157300D02*
Y239800D01*
X262750Y157300D02*
X346500D01*
X262750Y239800D02*
X346500D01*
X304250Y191550D02*
Y206550D01*
X296750Y199050D02*
X311750D01*
X250Y134900D02*
Y230401D01*
X49251Y134900D02*
Y230401D01*
X250D02*
X49251D01*
X250Y134900D02*
X49251D01*
X175000Y5000D02*
X235000D01*
X197000Y131750D02*
X212750D01*
X197000Y96749D02*
X212750D01*
Y131750D01*
X197000Y96749D02*
Y131750D01*
X235000Y5000D02*
Y225000D01*
X175000D02*
X235000D01*
X175000Y5000D02*
Y225000D01*
X660000Y310000D02*
Y450000D01*
X100000Y310000D02*
Y450000D01*
X660000D01*
X100000Y310000D02*
X660000D01*
X373450Y380150D02*
X388450D01*
X380825Y372650D02*
Y387650D01*
X555250Y195500D02*
Y284250D01*
X614500Y195500D02*
Y284250D01*
X555250Y195500D02*
X614500D01*
X555250Y284250D02*
X614500D01*
X551000Y288250D02*
X619000D01*
X551000Y191750D02*
X619000D01*
Y288250D01*
X551000Y191750D02*
Y288250D01*
X125500Y172500D02*
X144500D01*
X125500Y207500D02*
X144500D01*
X125500Y172500D02*
Y207500D01*
X144500Y172500D02*
Y207500D01*
X5250Y240000D02*
Y300000D01*
X132000Y262250D02*
Y278000D01*
X97000Y262250D02*
Y278000D01*
Y262250D02*
X132000D01*
X97000Y278000D02*
X132000D01*
X5250Y240000D02*
X225250D01*
Y300000D01*
X5250D02*
X225250D01*
X72500Y150500D02*
Y169500D01*
X107500Y150500D02*
Y169500D01*
X72500D02*
X107500D01*
X72500Y150500D02*
X107500D01*
X17500Y83500D02*
X42500D01*
X17500Y128500D02*
X42500D01*
X17500Y83500D02*
Y128500D01*
X42500Y83500D02*
Y128500D01*
X12500Y50500D02*
Y69500D01*
X47500Y50500D02*
Y69500D01*
X12500D02*
X47500D01*
X12500Y50500D02*
X47500D01*
X153000Y10000D02*
Y65000D01*
X55000Y10000D02*
Y65000D01*
Y10000D02*
X153000D01*
X55000Y65000D02*
X153000D01*
Y10000D02*
Y65000D01*
X55000Y10000D02*
Y65000D01*
Y10000D02*
X153000D01*
X55000Y65000D02*
X153000D01*
X5000Y307000D02*
X60000D01*
X5000Y405000D02*
X60000D01*
X5000Y307000D02*
Y405000D01*
X60000Y307000D02*
Y405000D01*
X5000Y307000D02*
X60000D01*
X5000Y405000D02*
X60000D01*
X5000Y307000D02*
Y405000D01*
X60000Y307000D02*
Y405000D01*
X64500Y180000D02*
X115500D01*
X64500Y220000D02*
X115500D01*
Y180000D02*
Y220000D01*
X64500Y180000D02*
Y220000D01*
X56750Y79999D02*
Y140000D01*
X143251Y79999D02*
Y140000D01*
X56750Y79999D02*
X143251D01*
X56750Y140000D02*
X143251D01*
X53500Y73000D02*
Y147000D01*
X146500Y73000D02*
Y147000D01*
X53500Y73000D02*
X146500D01*
X53500Y147000D02*
X146500D01*
X431198Y59000D02*
Y91000D01*
X447198Y59000D02*
Y91000D01*
X431198Y59000D02*
X447198D01*
X431198Y91000D02*
X447198D01*
X451198Y59000D02*
Y91000D01*
X467198Y59000D02*
Y91000D01*
X451198Y59000D02*
X467198D01*
X451198Y91000D02*
X467198D01*
X471198Y59000D02*
Y91000D01*
X487198Y59000D02*
Y91000D01*
X471198Y59000D02*
X487198D01*
X471198Y91000D02*
X487198D01*
X576750Y70500D02*
Y89500D01*
X541750Y70500D02*
Y89500D01*
Y70500D02*
X576750D01*
X541750Y89500D02*
X576750D01*
X706600Y101750D02*
Y166751D01*
X543599Y101750D02*
Y166751D01*
X706600D01*
X543599Y101750D02*
X706600D01*
X484500Y10000D02*
X535500D01*
X484500Y50000D02*
X535500D01*
Y10000D02*
Y50000D01*
X484500Y10000D02*
Y50000D01*
X520500Y52500D02*
X539500D01*
X520500Y87500D02*
X539500D01*
X520500Y52500D02*
Y87500D01*
X539500Y52500D02*
Y87500D01*
X542250Y52000D02*
X577251D01*
X542250Y68001D02*
X577251D01*
Y52000D02*
Y68001D01*
X542250Y52000D02*
Y68001D01*
X539750Y50000D02*
Y70000D01*
X580250Y50000D02*
Y70000D01*
X539750D02*
X580250D01*
X539750Y50000D02*
X580250D01*
X490500Y52500D02*
X509500D01*
X490500Y87500D02*
X509500D01*
X490500Y52500D02*
Y87500D01*
X509500Y52500D02*
Y87500D01*
X246750Y8250D02*
X348501D01*
X246750Y81502D02*
X348501D01*
Y8250D02*
Y81502D01*
X246750Y8250D02*
Y81502D01*
X239000Y3500D02*
Y86500D01*
X356000Y3500D02*
Y86500D01*
X239000D02*
X356000D01*
X239000Y3500D02*
X356000D01*
X452500Y114800D02*
Y164801D01*
X426999Y114800D02*
Y164801D01*
X452500D01*
X426999Y114800D02*
X452500D01*
X495199Y292500D02*
X545200D01*
X495199Y266999D02*
X545200D01*
X495199D02*
Y292500D01*
X545200Y266999D02*
Y292500D01*
X491500Y247000D02*
Y293000D01*
X468500Y247000D02*
Y293000D01*
X491500D01*
X468500Y247000D02*
X491500D01*
X472250Y253250D02*
X488000D01*
X472250Y288251D02*
X488000D01*
X472250Y253250D02*
Y288251D01*
X488000Y253250D02*
Y288251D01*
X468500Y245500D02*
X491250D01*
X468500Y194500D02*
X491250D01*
Y245500D01*
X468500Y194500D02*
Y245500D01*
X182000Y231000D02*
X198000D01*
X182000Y199000D02*
X198000D01*
Y231000D01*
X182000Y199000D02*
Y231000D01*
X202000D02*
X218000D01*
X202000Y199000D02*
X218000D01*
Y231000D01*
X202000Y199000D02*
Y231000D01*
X222000D02*
X238000D01*
X222000Y199000D02*
X238000D01*
Y231000D01*
X222000Y199000D02*
Y231000D01*
M02*
