G04*
G04 #@! TF.GenerationSoftware,Altium Limited,Altium Designer,22.11.1 (43)*
G04*
G04 Layer_Color=8388736*
%FSLAX44Y44*%
%MOMM*%
G71*
G04*
G04 #@! TF.SameCoordinates,C72771D2-38F8-48C7-9277-F5F912310F7B*
G04*
G04*
G04 #@! TF.FilePolarity,Positive*
G04*
G01*
G75*
%ADD10C,0.2000*%
%ADD13C,0.1000*%
%ADD16C,0.2540*%
%ADD73C,0.0500*%
D10*
X68014Y40330D02*
X86264D01*
X77196Y30695D02*
Y48945D01*
X123736Y259670D02*
X141986D01*
X132804Y251055D02*
Y269305D01*
X537600Y134000D02*
X555850D01*
X547235Y124932D02*
Y143182D01*
X440250Y130482D02*
Y148732D01*
X430615Y139550D02*
X448865D01*
X511268Y280250D02*
X529518D01*
X520450Y270615D02*
Y288865D01*
D13*
X90000Y155000D02*
Y165000D01*
X85000Y160000D02*
X95000D01*
X30000Y101000D02*
Y111000D01*
X25000Y106000D02*
X35000D01*
X30000Y55000D02*
Y65000D01*
X25000Y60000D02*
X35000D01*
X200000Y175000D02*
Y185000D01*
X195000Y180000D02*
X205000D01*
X140000Y185000D02*
Y195000D01*
X135000Y190000D02*
X145000D01*
X90000Y195000D02*
Y205000D01*
X85000Y200000D02*
X95000D01*
X82000Y185000D02*
Y215000D01*
X98000Y185000D02*
Y215000D01*
X82000D02*
X98000D01*
X82000Y185000D02*
X98000D01*
X95000Y110000D02*
X105000D01*
X100000Y105000D02*
Y115000D01*
X437198Y75000D02*
X441198D01*
X439198Y73000D02*
Y77000D01*
X457198Y75000D02*
X461198D01*
X459198Y73000D02*
Y77000D01*
X477198Y75000D02*
X481198D01*
X479198Y73000D02*
Y77000D01*
X559250Y75000D02*
Y85000D01*
X554250Y80000D02*
X564250D01*
X510000Y25000D02*
Y35000D01*
X505000Y30000D02*
X515000D01*
X502000Y15000D02*
Y45000D01*
X518000Y15000D02*
Y45000D01*
X502000D02*
X518000D01*
X502000Y15000D02*
X518000D01*
X525000Y70000D02*
X535000D01*
X530000Y65000D02*
Y75000D01*
X555000Y60000D02*
X565000D01*
X560000Y55000D02*
Y65000D01*
X495000Y70000D02*
X505000D01*
X500000Y65000D02*
Y75000D01*
X365000Y41750D02*
X375000D01*
X370000Y36750D02*
Y46750D01*
X475000Y270000D02*
X485000D01*
X480000Y265000D02*
Y275000D01*
Y215000D02*
Y225000D01*
X475000Y220000D02*
X485000D01*
X471000Y234000D02*
X489000D01*
X471000Y206000D02*
X489000D01*
Y234000D01*
X471000Y206000D02*
Y234000D01*
X540000Y210000D02*
Y220000D01*
X535000Y215000D02*
X545000D01*
X190000Y58000D02*
Y62000D01*
X188000Y60000D02*
X192000D01*
X210000Y58000D02*
Y62000D01*
X208000Y60000D02*
X212000D01*
X230000Y58000D02*
Y62000D01*
X228000Y60000D02*
X232000D01*
X371352Y91250D02*
X378350D01*
Y94749D01*
X377184Y95915D01*
X372519D01*
X371352Y94749D01*
Y91250D01*
X372519Y102913D02*
X371352Y101747D01*
Y99414D01*
X372519Y98248D01*
X377184D01*
X378350Y99414D01*
Y101747D01*
X377184Y102913D01*
X371352Y105246D02*
X378350D01*
Y108744D01*
X377184Y109911D01*
X372519D01*
X371352Y108744D01*
Y105246D01*
X372519Y116908D02*
X371352Y115742D01*
Y113410D01*
X372519Y112243D01*
X377184D01*
X378350Y113410D01*
Y115742D01*
X377184Y116908D01*
X378350Y123906D02*
Y119241D01*
X373685Y123906D01*
X372519D01*
X371352Y122740D01*
Y120407D01*
X372519Y119241D01*
X56700Y189750D02*
Y182752D01*
X53201D01*
X52035Y183918D01*
Y186251D01*
X53201Y187417D01*
X56700D01*
X54367D02*
X52035Y189750D01*
X45037Y182752D02*
X49702D01*
Y186251D01*
X47370Y185085D01*
X46203D01*
X45037Y186251D01*
Y188584D01*
X46203Y189750D01*
X48536D01*
X49702Y188584D01*
X73500Y151500D02*
Y158498D01*
X76999D01*
X78165Y157331D01*
Y154999D01*
X76999Y153833D01*
X73500D01*
X75833D02*
X78165Y151500D01*
X85163Y158498D02*
X82830Y157331D01*
X80498Y154999D01*
Y152666D01*
X81664Y151500D01*
X83997D01*
X85163Y152666D01*
Y153833D01*
X83997Y154999D01*
X80498D01*
X41500Y84500D02*
X34502D01*
Y87999D01*
X35668Y89165D01*
X38001D01*
X39167Y87999D01*
Y84500D01*
Y86833D02*
X41500Y89165D01*
X35668Y91498D02*
X34502Y92664D01*
Y94997D01*
X35668Y96163D01*
X36835D01*
X38001Y94997D01*
X39167Y96163D01*
X40334D01*
X41500Y94997D01*
Y92664D01*
X40334Y91498D01*
X39167D01*
X38001Y92664D01*
X36835Y91498D01*
X35668D01*
X38001Y92664D02*
Y94997D01*
X13500Y51500D02*
Y58498D01*
X16999D01*
X18165Y57332D01*
Y54999D01*
X16999Y53833D01*
X13500D01*
X15833D02*
X18165Y51500D01*
X25163D02*
X20498D01*
X25163Y56165D01*
Y57332D01*
X23997Y58498D01*
X21664D01*
X20498Y57332D01*
X141835Y53336D02*
X144167D01*
X143001D01*
Y59167D01*
X144167Y60334D01*
X145334D01*
X146500Y59167D01*
X139502Y61500D02*
X134837D01*
X132504Y53336D02*
X127839D01*
X130172D01*
Y60334D01*
X120841Y54502D02*
X122008Y53336D01*
X124340D01*
X125507Y54502D01*
Y55669D01*
X124340Y56835D01*
X122008D01*
X120841Y58001D01*
Y59167D01*
X122008Y60334D01*
X124340D01*
X125507Y59167D01*
X118509Y56835D02*
X113844D01*
X68165Y246664D02*
X65833D01*
X66999D01*
Y240833D01*
X65833Y239666D01*
X64666D01*
X63500Y240833D01*
X70498Y238500D02*
X75163D01*
X77495Y246664D02*
X82161D01*
X79828D01*
Y239666D01*
X89158Y245498D02*
X87992Y246664D01*
X85660D01*
X84493Y245498D01*
Y244331D01*
X85660Y243165D01*
X87992D01*
X89158Y241999D01*
Y240833D01*
X87992Y239666D01*
X85660D01*
X84493Y240833D01*
X91491Y243165D02*
X96156D01*
X93824Y245498D02*
Y240833D01*
X202336Y162665D02*
Y158000D01*
X205835D01*
Y160333D01*
Y158000D01*
X209334D01*
X210500Y164998D02*
Y169663D01*
X202336Y171996D02*
Y176661D01*
Y174328D01*
X209334D01*
X203502Y183658D02*
X202336Y182492D01*
Y180159D01*
X203502Y178993D01*
X204669D01*
X205835Y180159D01*
Y182492D01*
X207001Y183658D01*
X208167D01*
X209334Y182492D01*
Y180159D01*
X208167Y178993D01*
X205835Y185991D02*
Y190656D01*
X203502Y188324D02*
X208167D01*
X148500Y173500D02*
X141502D01*
Y176999D01*
X142669Y178165D01*
X145001D01*
X146167Y176999D01*
Y173500D01*
Y175833D02*
X148500Y178165D01*
X141502Y180498D02*
Y185163D01*
X142669D01*
X147334Y180498D01*
X148500D01*
X70165Y182166D02*
Y186831D01*
X68999Y187998D01*
X66666D01*
X65500Y186831D01*
Y182166D01*
X66666Y181000D01*
X68999D01*
X67833Y183333D02*
X70165Y181000D01*
X68999D02*
X70165Y182166D01*
X72498Y181000D02*
X74830D01*
X73664D01*
Y187998D01*
X72498Y186831D01*
X85498Y148000D02*
X79666D01*
X78500Y146834D01*
Y144501D01*
X79666Y143335D01*
X85498D01*
X78500Y136337D02*
Y141002D01*
X83165Y136337D01*
X84332D01*
X85498Y137503D01*
Y139836D01*
X84332Y141002D01*
X438030Y85335D02*
X439196Y86501D01*
Y88834D01*
X438030Y90000D01*
X433364D01*
X432198Y88834D01*
Y86501D01*
X433364Y85335D01*
X432198Y79503D02*
X439196D01*
X435697Y83002D01*
Y78337D01*
X458030Y85335D02*
X459196Y86501D01*
Y88834D01*
X458030Y90000D01*
X453364D01*
X452198Y88834D01*
Y86501D01*
X453364Y85335D01*
X459196Y78337D02*
Y83002D01*
X455697D01*
X456863Y80670D01*
Y79503D01*
X455697Y78337D01*
X453364D01*
X452198Y79503D01*
Y81836D01*
X453364Y83002D01*
X478030Y85335D02*
X479196Y86501D01*
Y88834D01*
X478030Y90000D01*
X473364D01*
X472198Y88834D01*
Y86501D01*
X473364Y85335D01*
X479196Y78337D02*
X478030Y80670D01*
X475697Y83002D01*
X473364D01*
X472198Y81836D01*
Y79503D01*
X473364Y78337D01*
X474531D01*
X475697Y79503D01*
Y83002D01*
X575750Y88500D02*
Y81502D01*
X572251D01*
X571085Y82669D01*
Y85001D01*
X572251Y86167D01*
X575750D01*
X573417D02*
X571085Y88500D01*
X568752D02*
X566420D01*
X567586D01*
Y81502D01*
X568752Y82669D01*
X563352Y112165D02*
Y109833D01*
Y110999D01*
X569184D01*
X570350Y109833D01*
Y108666D01*
X569184Y107500D01*
X570350Y114498D02*
Y116830D01*
Y115664D01*
X563352D01*
X564519Y114498D01*
X490165Y12166D02*
Y16832D01*
X488999Y17998D01*
X486666D01*
X485500Y16832D01*
Y12166D01*
X486666Y11000D01*
X488999D01*
X487833Y13333D02*
X490165Y11000D01*
X488999D02*
X490165Y12166D01*
X497163Y11000D02*
X492498D01*
X497163Y15665D01*
Y16832D01*
X495997Y17998D01*
X493664D01*
X492498Y16832D01*
X538500Y53500D02*
X531502D01*
Y56999D01*
X532669Y58165D01*
X535001D01*
X536167Y56999D01*
Y53500D01*
Y55833D02*
X538500Y58165D01*
Y63997D02*
X531502D01*
X535001Y60498D01*
Y65163D01*
X540750Y58248D02*
Y51250D01*
X544249D01*
X545415Y52416D01*
Y57081D01*
X544249Y58248D01*
X540750D01*
X547748Y57081D02*
X548914Y58248D01*
X551247D01*
X552413Y57081D01*
Y55915D01*
X551247Y54749D01*
X550080D01*
X551247D01*
X552413Y53583D01*
Y52416D01*
X551247Y51250D01*
X548914D01*
X547748Y52416D01*
X508500Y53500D02*
X501502D01*
Y56999D01*
X502668Y58165D01*
X505001D01*
X506167Y56999D01*
Y53500D01*
Y55833D02*
X508500Y58165D01*
X502668Y60498D02*
X501502Y61664D01*
Y63997D01*
X502668Y65163D01*
X503835D01*
X505001Y63997D01*
Y62830D01*
Y63997D01*
X506167Y65163D01*
X507334D01*
X508500Y63997D01*
Y61664D01*
X507334Y60498D01*
X321000Y13248D02*
Y7416D01*
X322166Y6250D01*
X324499D01*
X325665Y7416D01*
Y13248D01*
X327998Y6250D02*
X330330D01*
X329164D01*
Y13248D01*
X327998Y12082D01*
X410248Y275100D02*
X403250D01*
Y271601D01*
X404416Y270435D01*
X409081D01*
X410248Y271601D01*
Y275100D01*
X409081Y263437D02*
X410248Y264603D01*
Y266936D01*
X409081Y268102D01*
X404416D01*
X403250Y266936D01*
Y264603D01*
X404416Y263437D01*
X410248Y261105D02*
X403250D01*
Y257606D01*
X404416Y256439D01*
X409081D01*
X410248Y257606D01*
Y261105D01*
X409081Y249442D02*
X410248Y250608D01*
Y252940D01*
X409081Y254107D01*
X404416D01*
X403250Y252940D01*
Y250608D01*
X404416Y249442D01*
X403250Y247109D02*
Y244776D01*
Y245943D01*
X410248D01*
X409081Y247109D01*
X444502Y120465D02*
Y118133D01*
Y119299D01*
X450334D01*
X451500Y118133D01*
Y116966D01*
X450334Y115800D01*
X445668Y122798D02*
X444502Y123964D01*
Y126297D01*
X445668Y127463D01*
X446835D01*
X448001Y126297D01*
Y125130D01*
Y126297D01*
X449167Y127463D01*
X450334D01*
X451500Y126297D01*
Y123964D01*
X450334Y122798D01*
X539535Y284502D02*
X541867D01*
X540701D01*
Y290334D01*
X541867Y291500D01*
X543034D01*
X544200Y290334D01*
X532537Y291500D02*
X537202D01*
X532537Y286835D01*
Y285669D01*
X533703Y284502D01*
X536036D01*
X537202Y285669D01*
X483502Y252665D02*
Y248000D01*
X487001D01*
Y250333D01*
Y248000D01*
X490500D01*
Y254998D02*
Y257330D01*
Y256164D01*
X483502D01*
X484669Y254998D01*
X476498Y244500D02*
X469500D01*
Y241001D01*
X470666Y239835D01*
X475331D01*
X476498Y241001D01*
Y244500D01*
X469500Y232837D02*
Y237502D01*
X474165Y232837D01*
X475331D01*
X476498Y234003D01*
Y236336D01*
X475331Y237502D01*
X583250Y236752D02*
Y243750D01*
X579751D01*
X578585Y242584D01*
Y237918D01*
X579751Y236752D01*
X583250D01*
X576252Y243750D02*
X573920D01*
X575086D01*
Y236752D01*
X576252Y237918D01*
X188831Y70335D02*
X189998Y71501D01*
Y73834D01*
X188831Y75000D01*
X184166D01*
X183000Y73834D01*
Y71501D01*
X184166Y70335D01*
X188831Y68002D02*
X189998Y66836D01*
Y64503D01*
X188831Y63337D01*
X187665D01*
X186499Y64503D01*
Y65670D01*
Y64503D01*
X185333Y63337D01*
X184166D01*
X183000Y64503D01*
Y66836D01*
X184166Y68002D01*
X208832Y70335D02*
X209998Y71501D01*
Y73834D01*
X208832Y75000D01*
X204166D01*
X203000Y73834D01*
Y71501D01*
X204166Y70335D01*
X203000Y63337D02*
Y68002D01*
X207665Y63337D01*
X208832D01*
X209998Y64503D01*
Y66836D01*
X208832Y68002D01*
X228832Y70335D02*
X229998Y71501D01*
Y73834D01*
X228832Y75000D01*
X224166D01*
X223000Y73834D01*
Y71501D01*
X224166Y70335D01*
X223000Y68002D02*
Y65670D01*
Y66836D01*
X229998D01*
X228832Y68002D01*
D16*
X375000Y176600D02*
Y292600D01*
X460250Y176600D02*
Y292600D01*
X375000Y176600D02*
X460250D01*
X375000Y292600D02*
X460250D01*
D73*
X406450Y88100D02*
Y170600D01*
X322700Y88100D02*
Y170600D01*
X406450D01*
X322700Y88100D02*
X406450D01*
X364950Y121350D02*
Y136350D01*
X357450Y128850D02*
X372450D01*
X8399Y227350D02*
X56900D01*
X8399Y131849D02*
X56900D01*
X8399D02*
Y227350D01*
X56900Y131849D02*
Y227350D01*
X72500Y150500D02*
Y169500D01*
X107500Y150500D02*
Y169500D01*
X72500D02*
X107500D01*
X72500Y150500D02*
X107500D01*
X17500Y83500D02*
X42500D01*
X17500Y128500D02*
X42500D01*
X17500Y83500D02*
Y128500D01*
X42500Y83500D02*
Y128500D01*
X12500Y50500D02*
Y69500D01*
X47500Y50500D02*
Y69500D01*
X12500D02*
X47500D01*
X12500Y50500D02*
X47500D01*
X153000Y10000D02*
Y65000D01*
X55000Y10000D02*
Y65000D01*
Y10000D02*
X153000D01*
X55000Y65000D02*
X153000D01*
Y10000D02*
Y65000D01*
X55000Y10000D02*
Y65000D01*
Y10000D02*
X153000D01*
X55000Y65000D02*
X153000D01*
X57000Y235000D02*
Y290000D01*
X155000Y235000D02*
Y290000D01*
X57000D02*
X155000D01*
X57000Y235000D02*
X155000D01*
X57000D02*
Y290000D01*
X155000Y235000D02*
Y290000D01*
X57000D02*
X155000D01*
X57000Y235000D02*
X155000D01*
X230000Y70000D02*
Y290000D01*
X170000Y70000D02*
X230000D01*
X170000D02*
Y290000D01*
X208000Y163250D02*
Y198251D01*
X192250Y163250D02*
Y198251D01*
X208000D01*
X192250Y163250D02*
X208000D01*
X170000Y290000D02*
X230000D01*
X149500Y172500D02*
Y207500D01*
X130500Y172500D02*
Y207500D01*
X149500D01*
X130500Y172500D02*
X149500D01*
X64500Y180000D02*
X115500D01*
X64500Y220000D02*
X115500D01*
Y180000D02*
Y220000D01*
X64500Y180000D02*
Y220000D01*
X56750Y79999D02*
Y140000D01*
X143251Y79999D02*
Y140000D01*
X56750Y79999D02*
X143251D01*
X56750Y140000D02*
X143251D01*
X53500Y73000D02*
Y147000D01*
X146500Y73000D02*
Y147000D01*
X53500Y73000D02*
X146500D01*
X53500Y147000D02*
X146500D01*
X431198Y59000D02*
Y91000D01*
X447198Y59000D02*
Y91000D01*
X431198Y59000D02*
X447198D01*
X431198Y91000D02*
X447198D01*
X451198Y59000D02*
Y91000D01*
X467198Y59000D02*
Y91000D01*
X451198Y59000D02*
X467198D01*
X451198Y91000D02*
X467198D01*
X471198Y59000D02*
Y91000D01*
X487198Y59000D02*
Y91000D01*
X471198Y59000D02*
X487198D01*
X471198Y91000D02*
X487198D01*
X576750Y70500D02*
Y89500D01*
X541750Y70500D02*
Y89500D01*
Y70500D02*
X576750D01*
X541750Y89500D02*
X576750D01*
X631600Y101750D02*
Y166751D01*
X468599Y101750D02*
Y166751D01*
X631600D01*
X468599Y101750D02*
X631600D01*
X484500Y10000D02*
X535500D01*
X484500Y50000D02*
X535500D01*
Y10000D02*
Y50000D01*
X484500Y10000D02*
Y50000D01*
X520500Y52500D02*
X539500D01*
X520500Y87500D02*
X539500D01*
X520500Y52500D02*
Y87500D01*
X539500Y52500D02*
Y87500D01*
X542250Y52000D02*
X577251D01*
X542250Y68001D02*
X577251D01*
Y52000D02*
Y68001D01*
X542250Y52000D02*
Y68001D01*
X539750Y50000D02*
Y70000D01*
X580250Y50000D02*
Y70000D01*
X539750D02*
X580250D01*
X539750Y50000D02*
X580250D01*
X490500Y52500D02*
X509500D01*
X490500Y87500D02*
X509500D01*
X490500Y52500D02*
Y87500D01*
X509500Y52500D02*
Y87500D01*
X319250Y5000D02*
X421001D01*
X319250Y78252D02*
X421001D01*
Y5000D02*
Y78252D01*
X319250Y5000D02*
Y78252D01*
X311500Y250D02*
Y83250D01*
X428500Y250D02*
Y83250D01*
X311500D02*
X428500D01*
X311500Y250D02*
X428500D01*
X452500Y114800D02*
Y164801D01*
X426999Y114800D02*
Y164801D01*
X452500D01*
X426999Y114800D02*
X452500D01*
X495199Y292500D02*
X545200D01*
X495199Y266999D02*
X545200D01*
X495199D02*
Y292500D01*
X545200Y266999D02*
Y292500D01*
X491500Y247000D02*
Y293000D01*
X468500Y247000D02*
Y293000D01*
X491500D01*
X468500Y247000D02*
X491500D01*
X472250Y253250D02*
X488000D01*
X472250Y288251D02*
X488000D01*
X472250Y253250D02*
Y288251D01*
X488000Y253250D02*
Y288251D01*
X468500Y245500D02*
X491250D01*
X468500Y194500D02*
X491250D01*
Y245500D01*
X468500Y194500D02*
Y245500D01*
X491750Y249000D02*
X588250D01*
X491750Y181000D02*
X588250D01*
X491750D02*
Y249000D01*
X588250Y181000D02*
Y249000D01*
X584250Y185500D02*
Y244750D01*
X495500Y185500D02*
Y244750D01*
Y185500D02*
X584250D01*
X495500Y244750D02*
X584250D01*
X182000Y76000D02*
X198000D01*
X182000Y44000D02*
X198000D01*
Y76000D01*
X182000Y44000D02*
Y76000D01*
X202000D02*
X218000D01*
X202000Y44000D02*
X218000D01*
Y76000D01*
X202000Y44000D02*
Y76000D01*
X222000D02*
X238000D01*
X222000Y44000D02*
X238000D01*
Y76000D01*
X222000Y44000D02*
Y76000D01*
M02*
