G04*
G04 #@! TF.GenerationSoftware,Altium Limited,Altium Designer,23.3.1 (30)*
G04*
G04 Layer_Color=32768*
%FSLAX44Y44*%
%MOMM*%
G71*
G04*
G04 #@! TF.SameCoordinates,FAC3D44D-3572-4026-B01C-A32F10146FDD*
G04*
G04*
G04 #@! TF.FilePolarity,Positive*
G04*
G01*
G75*
%ADD13C,0.1000*%
%ADD78C,0.0500*%
%ADD79R,0.8070X6.0000*%
D13*
X495000Y229750D02*
X505000D01*
X500000Y224750D02*
Y234750D01*
X530000Y199750D02*
Y259750D01*
X470000Y199750D02*
Y259750D01*
X530000D01*
X470000Y199750D02*
X530000D01*
X565000Y220000D02*
X575000D01*
X570000Y215000D02*
Y225000D01*
X385000Y205000D02*
X395000D01*
X390000Y200000D02*
Y210000D01*
X540500Y226998D02*
Y220000D01*
X535835D01*
X533502D02*
X531170D01*
X532336D01*
Y226998D01*
X533502Y225832D01*
X560331Y196415D02*
X561498Y195249D01*
Y192916D01*
X560331Y191750D01*
X555666D01*
X554500Y192916D01*
Y195249D01*
X555666Y196415D01*
X561498Y198748D02*
Y203413D01*
X560331D01*
X555666Y198748D01*
X554500D01*
X399669Y228585D02*
X398502Y229751D01*
Y232084D01*
X399669Y233250D01*
X404334D01*
X405500Y232084D01*
Y229751D01*
X404334Y228585D01*
X399669Y226252D02*
X398502Y225086D01*
Y222753D01*
X399669Y221587D01*
X400835D01*
X402001Y222753D01*
X403167Y221587D01*
X404334D01*
X405500Y222753D01*
Y225086D01*
X404334Y226252D01*
X403167D01*
X402001Y225086D01*
X400835Y226252D01*
X399669D01*
X402001Y225086D02*
Y222753D01*
D78*
X460000Y192500D02*
Y266750D01*
Y192500D02*
X542500D01*
Y266750D01*
X460000D02*
X542500D01*
X553500Y190750D02*
Y249250D01*
X586500Y190750D02*
Y249250D01*
X553500D02*
X586500D01*
X553500Y190750D02*
X586500D01*
X406500Y175750D02*
Y234250D01*
X373500Y175750D02*
Y234250D01*
Y175750D02*
X406500D01*
X373500Y234250D02*
X406500D01*
D79*
X525965Y229750D02*
D03*
M02*
