G04*
G04 #@! TF.GenerationSoftware,Altium Limited,Altium Designer,23.3.1 (30)*
G04*
G04 Layer_Color=2752767*
%FSLAX44Y44*%
%MOMM*%
G71*
G04*
G04 #@! TF.SameCoordinates,FAC3D44D-3572-4026-B01C-A32F10146FDD*
G04*
G04*
G04 #@! TF.FilePolarity,Positive*
G04*
G01*
G75*
%ADD80C,0.1693*%
%ADD81C,0.1270*%
%ADD82C,0.1016*%
D80*
X385080Y329000D02*
G03*
X385080Y329000I-5080J0D01*
G01*
Y431000D02*
G03*
X385080Y431000I-5080J0D01*
G01*
X131080Y380000D02*
G03*
X131080Y380000I-5080J0D01*
G01*
X639080D02*
G03*
X639080Y380000I-5080J0D01*
G01*
X395080Y104600D02*
G03*
X395080Y104600I-5080J0D01*
G01*
Y155400D02*
G03*
X395080Y155400I-5080J0D01*
G01*
X344280Y130000D02*
G03*
X344280Y130000I-5080J0D01*
G01*
Y155400D02*
G03*
X344280Y155400I-5080J0D01*
G01*
X180080Y25000D02*
G03*
X180080Y25000I-5080J0D01*
G01*
X255080Y35000D02*
G03*
X255080Y35000I-5080J0D01*
G01*
X145080Y255000D02*
G03*
X145080Y255000I-5080J0D01*
G01*
X602645Y68898D02*
G03*
X602645Y68898I-5080J0D01*
G01*
X160080Y145000D02*
G03*
X160080Y145000I-5080J0D01*
G01*
X115080Y175000D02*
G03*
X115080Y175000I-5080J0D01*
G01*
X105080Y98500D02*
G03*
X105080Y98500I-5080J0D01*
G01*
X545080Y40000D02*
G03*
X545080Y40000I-5080J0D01*
G01*
X445080Y55000D02*
G03*
X445080Y55000I-5080J0D01*
G01*
X465080D02*
G03*
X465080Y55000I-5080J0D01*
G01*
X485080D02*
G03*
X485080Y55000I-5080J0D01*
G01*
X486080Y25000D02*
G03*
X486080Y25000I-5080J0D01*
G01*
X80080Y126000D02*
G03*
X80080Y126000I-5080J0D01*
G01*
X25080Y75000D02*
G03*
X25080Y75000I-5080J0D01*
G01*
X125080Y200000D02*
G03*
X125080Y200000I-5080J0D01*
G01*
X95080Y225000D02*
G03*
X95080Y225000I-5080J0D01*
G01*
X26080Y145000D02*
G03*
X26080Y145000I-5080J0D01*
G01*
D81*
X437460Y206660D02*
Y204120D01*
X442540D01*
Y206660D01*
X445080D01*
Y211740D01*
X442540D01*
Y214280D01*
X437460D01*
Y211740D01*
X434920D01*
Y206660D01*
X437460D01*
Y257460D02*
Y254920D01*
X442540D01*
Y257460D01*
X445080D01*
Y262540D01*
X442540D01*
Y265080D01*
X437460D01*
Y262540D01*
X434920D01*
Y257460D01*
X437460D01*
Y232060D02*
Y229520D01*
X442540D01*
Y232060D01*
X445080D01*
Y237140D01*
X442540D01*
Y239680D01*
X437460D01*
Y237140D01*
X434920D01*
Y232060D01*
X437460D01*
X574850Y129670D02*
X577390Y132210D01*
X579930D01*
X577390Y134750D01*
X579930Y137290D01*
X577390D01*
X574850Y139830D01*
X572310Y137290D01*
X569770D01*
X572310Y134750D01*
X569770Y132210D01*
X572310D01*
X574850Y129670D01*
X549850D02*
X552390Y132210D01*
X554930D01*
X552390Y134750D01*
X554930Y137290D01*
X552390D01*
X549850Y139830D01*
X547310Y137290D01*
X544770D01*
X547310Y134750D01*
X544770Y132210D01*
X547310D01*
X549850Y129670D01*
X14920Y180000D02*
X20000Y185080D01*
X25080Y180000D01*
X20000Y174920D01*
X14920Y180000D01*
X40320Y205400D02*
X45400Y210480D01*
X50480Y205400D01*
X45400Y200320D01*
X40320Y205400D01*
Y154600D02*
X45400Y159680D01*
X50480Y154600D01*
X45400Y149520D01*
X40320Y154600D01*
X114920Y34920D02*
X117460D01*
X120000Y37460D01*
X122540Y34920D01*
X125080D01*
Y37460D01*
X122540Y40000D01*
X125080Y42540D01*
Y45080D01*
X122540D01*
X120000Y42540D01*
X117460Y45080D01*
X114920D01*
Y42540D01*
X117460Y40000D01*
X114920Y37460D01*
Y34920D01*
X84920D02*
X87460D01*
X90000Y37460D01*
X92540Y34920D01*
X95080D01*
Y37460D01*
X92540Y40000D01*
X95080Y42540D01*
Y45080D01*
X92540D01*
X90000Y42540D01*
X87460Y45080D01*
X84920D01*
Y42540D01*
X87460Y40000D01*
X84920Y37460D01*
Y34920D01*
X29920Y334920D02*
X32460D01*
X35000Y337460D01*
X37540Y334920D01*
X40080D01*
Y337460D01*
X37540Y340000D01*
X40080Y342540D01*
Y345080D01*
X37540D01*
X35000Y342540D01*
X32460Y345080D01*
X29920D01*
Y342540D01*
X32460Y340000D01*
X29920Y337460D01*
Y334920D01*
Y364920D02*
X32460D01*
X35000Y367460D01*
X37540Y364920D01*
X40080D01*
Y367460D01*
X37540Y370000D01*
X40080Y372540D01*
Y375080D01*
X37540D01*
X35000Y372540D01*
X32460Y375080D01*
X29920D01*
Y372540D01*
X32460Y370000D01*
X29920Y367460D01*
Y364920D01*
X640820Y104920D02*
X643360Y110000D01*
X640820Y115080D01*
X645900Y112540D01*
X650980Y115080D01*
X648440Y110000D01*
X650980Y104920D01*
X645900Y107460D01*
X640820Y104920D01*
Y154920D02*
X643360Y160000D01*
X640820Y165080D01*
X645900Y162540D01*
X650980Y165080D01*
X648440Y160000D01*
X650980Y154920D01*
X645900Y157460D01*
X640820Y154920D01*
X549850Y154670D02*
X552390Y157210D01*
X554930D01*
X552390Y159750D01*
X554930Y162290D01*
X552390D01*
X549850Y164830D01*
X547310Y162290D01*
X544770D01*
X547310Y159750D01*
X544770Y157210D01*
X547310D01*
X549850Y154670D01*
X574850D02*
X577390Y157210D01*
X579930D01*
X577390Y159750D01*
X579930Y162290D01*
X577390D01*
X574850Y164830D01*
X572310Y162290D01*
X569770D01*
X572310Y159750D01*
X569770Y157210D01*
X572310D01*
X574850Y154670D01*
Y104670D02*
X577390Y107210D01*
X579930D01*
X577390Y109750D01*
X579930Y112290D01*
X577390D01*
X574850Y114830D01*
X572310Y112290D01*
X569770D01*
X572310Y109750D01*
X569770Y107210D01*
X572310D01*
X574850Y104670D01*
X549850D02*
X552390Y107210D01*
X554930D01*
X552390Y109750D01*
X554930Y112290D01*
X552390D01*
X549850Y114830D01*
X547310Y112290D01*
X544770D01*
X547310Y109750D01*
X544770Y107210D01*
X547310D01*
X549850Y104670D01*
X440000Y122220D02*
X434920Y132380D01*
X445080D01*
X440000Y122220D01*
Y147620D02*
X434920Y157780D01*
X445080D01*
X440000Y147620D01*
X532700Y274920D02*
X527620Y285080D01*
X537780D01*
X532700Y274920D01*
X507300D02*
X502220Y285080D01*
X512380D01*
X507300Y274920D01*
X144420Y53920D02*
Y64080D01*
X154580D01*
Y53920D01*
X144420D01*
X146452Y55952D02*
Y62048D01*
X152548D01*
Y55952D01*
X146452D01*
X53420Y53920D02*
Y64080D01*
X63580D01*
Y53920D01*
X53420D01*
X55452Y55952D02*
Y62048D01*
X61548D01*
Y55952D01*
X55452D01*
X48920Y305420D02*
Y315580D01*
X59080D01*
Y305420D01*
X48920D01*
X50952Y307452D02*
Y313548D01*
X57048D01*
Y307452D01*
X50952D01*
X48920Y396420D02*
Y406580D01*
X59080D01*
Y396420D01*
X48920D01*
X50952Y398452D02*
Y404548D01*
X57048D01*
Y398452D01*
X50952D01*
X459875Y264858D02*
X454795Y275018D01*
X464955D01*
X459875Y264858D01*
Y266890D02*
X456827Y272986D01*
X462923D01*
X459875Y266890D01*
X644920Y224920D02*
Y235080D01*
X655080D01*
Y224920D01*
X644920D01*
X24920Y24920D02*
Y35080D01*
X35080D01*
Y24920D01*
X24920D01*
Y424920D02*
Y435080D01*
X35080D01*
Y424920D01*
X24920D01*
D82*
X178048Y25000D02*
G03*
X178048Y25000I-3048J0D01*
G01*
X253048Y35000D02*
G03*
X253048Y35000I-3048J0D01*
G01*
X143048Y255000D02*
G03*
X143048Y255000I-3048J0D01*
G01*
X600613Y68898D02*
G03*
X600613Y68898I-3048J0D01*
G01*
X158048Y145000D02*
G03*
X158048Y145000I-3048J0D01*
G01*
X113048Y175000D02*
G03*
X113048Y175000I-3048J0D01*
G01*
X103048Y98500D02*
G03*
X103048Y98500I-3048J0D01*
G01*
X543048Y40000D02*
G03*
X543048Y40000I-3048J0D01*
G01*
X443048Y55000D02*
G03*
X443048Y55000I-3048J0D01*
G01*
X463048D02*
G03*
X463048Y55000I-3048J0D01*
G01*
X483048D02*
G03*
X483048Y55000I-3048J0D01*
G01*
X484048Y25000D02*
G03*
X484048Y25000I-3048J0D01*
G01*
X78048Y126000D02*
G03*
X78048Y126000I-3048J0D01*
G01*
X23048Y75000D02*
G03*
X23048Y75000I-3048J0D01*
G01*
X123048Y200000D02*
G03*
X123048Y200000I-3048J0D01*
G01*
X93048Y225000D02*
G03*
X93048Y225000I-3048J0D01*
G01*
X24048Y145000D02*
G03*
X24048Y145000I-3048J0D01*
G01*
M02*
