G04*
G04 #@! TF.GenerationSoftware,Altium Limited,Altium Designer,23.3.1 (30)*
G04*
G04 Layer_Physical_Order=1*
G04 Layer_Color=255*
%FSLAX44Y44*%
%MOMM*%
G71*
G04*
G04 #@! TF.SameCoordinates,3D1257D7-4C2A-4C7C-83D6-A3DF8429B7D0*
G04*
G04*
G04 #@! TF.FilePolarity,Positive*
G04*
G01*
G75*
%ADD15C,0.5000*%
%ADD17R,1.3500X1.1500*%
G04:AMPARAMS|DCode=18|XSize=0.65mm|YSize=1.25mm|CornerRadius=0.1625mm|HoleSize=0mm|Usage=FLASHONLY|Rotation=90.000|XOffset=0mm|YOffset=0mm|HoleType=Round|Shape=RoundedRectangle|*
%AMROUNDEDRECTD18*
21,1,0.6500,0.9250,0,0,90.0*
21,1,0.3250,1.2500,0,0,90.0*
1,1,0.3250,0.4625,0.1625*
1,1,0.3250,0.4625,-0.1625*
1,1,0.3250,-0.4625,-0.1625*
1,1,0.3250,-0.4625,0.1625*
%
%ADD18ROUNDEDRECTD18*%
G04:AMPARAMS|DCode=19|XSize=1.35mm|YSize=1.15mm|CornerRadius=0.2875mm|HoleSize=0mm|Usage=FLASHONLY|Rotation=90.000|XOffset=0mm|YOffset=0mm|HoleType=Round|Shape=RoundedRectangle|*
%AMROUNDEDRECTD19*
21,1,1.3500,0.5750,0,0,90.0*
21,1,0.7750,1.1500,0,0,90.0*
1,1,0.5750,0.2875,0.3875*
1,1,0.5750,0.2875,-0.3875*
1,1,0.5750,-0.2875,-0.3875*
1,1,0.5750,-0.2875,0.3875*
%
%ADD19ROUNDEDRECTD19*%
G04:AMPARAMS|DCode=20|XSize=1.95mm|YSize=1.4mm|CornerRadius=0.35mm|HoleSize=0mm|Usage=FLASHONLY|Rotation=180.000|XOffset=0mm|YOffset=0mm|HoleType=Round|Shape=RoundedRectangle|*
%AMROUNDEDRECTD20*
21,1,1.9500,0.7000,0,0,180.0*
21,1,1.2500,1.4000,0,0,180.0*
1,1,0.7000,-0.6250,0.3500*
1,1,0.7000,0.6250,0.3500*
1,1,0.7000,0.6250,-0.3500*
1,1,0.7000,-0.6250,-0.3500*
%
%ADD20ROUNDEDRECTD20*%
G04:AMPARAMS|DCode=21|XSize=5.6mm|YSize=6.9mm|CornerRadius=1.4mm|HoleSize=0mm|Usage=FLASHONLY|Rotation=180.000|XOffset=0mm|YOffset=0mm|HoleType=Round|Shape=RoundedRectangle|*
%AMROUNDEDRECTD21*
21,1,5.6000,4.1000,0,0,180.0*
21,1,2.8000,6.9000,0,0,180.0*
1,1,2.8000,-1.4000,2.0500*
1,1,2.8000,1.4000,2.0500*
1,1,2.8000,1.4000,-2.0500*
1,1,2.8000,-1.4000,-2.0500*
%
%ADD21ROUNDEDRECTD21*%
G04:AMPARAMS|DCode=22|XSize=3.5mm|YSize=1.5mm|CornerRadius=0.375mm|HoleSize=0mm|Usage=FLASHONLY|Rotation=180.000|XOffset=0mm|YOffset=0mm|HoleType=Round|Shape=RoundedRectangle|*
%AMROUNDEDRECTD22*
21,1,3.5000,0.7500,0,0,180.0*
21,1,2.7500,1.5000,0,0,180.0*
1,1,0.7500,-1.3750,0.3750*
1,1,0.7500,1.3750,0.3750*
1,1,0.7500,1.3750,-0.3750*
1,1,0.7500,-1.3750,-0.3750*
%
%ADD22ROUNDEDRECTD22*%
G04:AMPARAMS|DCode=23|XSize=0.6mm|YSize=1.45mm|CornerRadius=0.15mm|HoleSize=0mm|Usage=FLASHONLY|Rotation=0.000|XOffset=0mm|YOffset=0mm|HoleType=Round|Shape=RoundedRectangle|*
%AMROUNDEDRECTD23*
21,1,0.6000,1.1500,0,0,0.0*
21,1,0.3000,1.4500,0,0,0.0*
1,1,0.3000,0.1500,-0.5750*
1,1,0.3000,-0.1500,-0.5750*
1,1,0.3000,-0.1500,0.5750*
1,1,0.3000,0.1500,0.5750*
%
%ADD23ROUNDEDRECTD23*%
%ADD24R,1.3000X0.9000*%
%ADD25R,1.1500X1.3500*%
G04:AMPARAMS|DCode=26|XSize=1.2mm|YSize=1.1mm|CornerRadius=0.275mm|HoleSize=0mm|Usage=FLASHONLY|Rotation=90.000|XOffset=0mm|YOffset=0mm|HoleType=Round|Shape=RoundedRectangle|*
%AMROUNDEDRECTD26*
21,1,1.2000,0.5500,0,0,90.0*
21,1,0.6500,1.1000,0,0,90.0*
1,1,0.5500,0.2750,0.3250*
1,1,0.5500,0.2750,-0.3250*
1,1,0.5500,-0.2750,-0.3250*
1,1,0.5500,-0.2750,0.3250*
%
%ADD26ROUNDEDRECTD26*%
G04:AMPARAMS|DCode=27|XSize=1.5mm|YSize=2.1mm|CornerRadius=0.375mm|HoleSize=0mm|Usage=FLASHONLY|Rotation=90.000|XOffset=0mm|YOffset=0mm|HoleType=Round|Shape=RoundedRectangle|*
%AMROUNDEDRECTD27*
21,1,1.5000,1.3500,0,0,90.0*
21,1,0.7500,2.1000,0,0,90.0*
1,1,0.7500,0.6750,0.3750*
1,1,0.7500,0.6750,-0.3750*
1,1,0.7500,-0.6750,-0.3750*
1,1,0.7500,-0.6750,0.3750*
%
%ADD27ROUNDEDRECTD27*%
G04:AMPARAMS|DCode=28|XSize=1.75mm|YSize=1.25mm|CornerRadius=0.3125mm|HoleSize=0mm|Usage=FLASHONLY|Rotation=180.000|XOffset=0mm|YOffset=0mm|HoleType=Round|Shape=RoundedRectangle|*
%AMROUNDEDRECTD28*
21,1,1.7500,0.6250,0,0,180.0*
21,1,1.1250,1.2500,0,0,180.0*
1,1,0.6250,-0.5625,0.3125*
1,1,0.6250,0.5625,0.3125*
1,1,0.6250,0.5625,-0.3125*
1,1,0.6250,-0.5625,-0.3125*
%
%ADD28ROUNDEDRECTD28*%
G04:AMPARAMS|DCode=29|XSize=1.3mm|YSize=1.1mm|CornerRadius=0.275mm|HoleSize=0mm|Usage=FLASHONLY|Rotation=0.000|XOffset=0mm|YOffset=0mm|HoleType=Round|Shape=RoundedRectangle|*
%AMROUNDEDRECTD29*
21,1,1.3000,0.5500,0,0,0.0*
21,1,0.7500,1.1000,0,0,0.0*
1,1,0.5500,0.3750,-0.2750*
1,1,0.5500,-0.3750,-0.2750*
1,1,0.5500,-0.3750,0.2750*
1,1,0.5500,0.3750,0.2750*
%
%ADD29ROUNDEDRECTD29*%
G04:AMPARAMS|DCode=30|XSize=3.3mm|YSize=2.3mm|CornerRadius=0.575mm|HoleSize=0mm|Usage=FLASHONLY|Rotation=270.000|XOffset=0mm|YOffset=0mm|HoleType=Round|Shape=RoundedRectangle|*
%AMROUNDEDRECTD30*
21,1,3.3000,1.1500,0,0,270.0*
21,1,2.1500,2.3000,0,0,270.0*
1,1,1.1500,-0.5750,-1.0750*
1,1,1.1500,-0.5750,1.0750*
1,1,1.1500,0.5750,1.0750*
1,1,1.1500,0.5750,-1.0750*
%
%ADD30ROUNDEDRECTD30*%
G04:AMPARAMS|DCode=31|XSize=0.9mm|YSize=1.3mm|CornerRadius=0.225mm|HoleSize=0mm|Usage=FLASHONLY|Rotation=270.000|XOffset=0mm|YOffset=0mm|HoleType=Round|Shape=RoundedRectangle|*
%AMROUNDEDRECTD31*
21,1,0.9000,0.8500,0,0,270.0*
21,1,0.4500,1.3000,0,0,270.0*
1,1,0.4500,-0.4250,-0.2250*
1,1,0.4500,-0.4250,0.2250*
1,1,0.4500,0.4250,0.2250*
1,1,0.4500,0.4250,-0.2250*
%
%ADD31ROUNDEDRECTD31*%
%ADD57C,1.0000*%
%ADD58R,1.6000X1.6000*%
%ADD59C,1.6000*%
%ADD60C,2.0000*%
%ADD61C,1.2000*%
G04:AMPARAMS|DCode=62|XSize=1.2mm|YSize=1.2mm|CornerRadius=0.3mm|HoleSize=0mm|Usage=FLASHONLY|Rotation=180.000|XOffset=0mm|YOffset=0mm|HoleType=Round|Shape=RoundedRectangle|*
%AMROUNDEDRECTD62*
21,1,1.2000,0.6000,0,0,180.0*
21,1,0.6000,1.2000,0,0,180.0*
1,1,0.6000,-0.3000,0.3000*
1,1,0.6000,0.3000,0.3000*
1,1,0.6000,0.3000,-0.3000*
1,1,0.6000,-0.3000,-0.3000*
%
%ADD62ROUNDEDRECTD62*%
%ADD63C,1.5240*%
G04:AMPARAMS|DCode=64|XSize=2mm|YSize=2mm|CornerRadius=0.5mm|HoleSize=0mm|Usage=FLASHONLY|Rotation=90.000|XOffset=0mm|YOffset=0mm|HoleType=Round|Shape=RoundedRectangle|*
%AMROUNDEDRECTD64*
21,1,2.0000,1.0000,0,0,90.0*
21,1,1.0000,2.0000,0,0,90.0*
1,1,1.0000,0.5000,0.5000*
1,1,1.0000,0.5000,-0.5000*
1,1,1.0000,-0.5000,-0.5000*
1,1,1.0000,-0.5000,0.5000*
%
%ADD64ROUNDEDRECTD64*%
%ADD65C,1.5000*%
%ADD66C,1.8000*%
%ADD67C,0.7000*%
%ADD68C,3.2000*%
G36*
X582009Y299024D02*
X586631Y297109D01*
X590792Y294329D01*
X594329Y290791D01*
X597109Y286631D01*
X599024Y282009D01*
X600000Y277102D01*
Y274600D01*
Y25400D01*
Y22898D01*
X599024Y17991D01*
X597109Y13369D01*
X594329Y9208D01*
X590792Y5670D01*
X586631Y2891D01*
X582009Y976D01*
X577102Y0D01*
X370000D01*
Y300000D01*
X496197D01*
X496583Y298730D01*
X496395Y298605D01*
X491395Y293605D01*
X490949Y293531D01*
X489723Y294472D01*
X487746Y295291D01*
X485625Y295570D01*
X474375D01*
X472254Y295291D01*
X470277Y294472D01*
X468580Y293170D01*
X467278Y291472D01*
X466459Y289496D01*
X466458Y289487D01*
X466400Y289361D01*
X466398Y289299D01*
X466373Y289241D01*
X466289Y288844D01*
X466208Y288614D01*
X466040Y288259D01*
X465120Y286781D01*
X464585Y286060D01*
X461724Y282782D01*
X461353Y282438D01*
X458230D01*
X455051Y281586D01*
X452200Y279940D01*
X449873Y277613D01*
X448227Y274762D01*
X447389Y271634D01*
X447320Y271414D01*
X446275Y270811D01*
X444825Y271648D01*
X441646Y272500D01*
X438354D01*
X435175Y271648D01*
X432325Y270002D01*
X429997Y267675D01*
X428352Y264825D01*
X427500Y261646D01*
Y258354D01*
X427533Y258231D01*
X384651Y215349D01*
X383449Y213782D01*
X382693Y211958D01*
X382435Y210000D01*
Y166044D01*
X382018Y165803D01*
X379597Y163382D01*
X377886Y160418D01*
X377000Y157112D01*
Y153688D01*
X377886Y150382D01*
X379597Y147418D01*
X382018Y144997D01*
X384982Y143286D01*
X388288Y142400D01*
X391712D01*
X392177Y142525D01*
X412435Y122267D01*
Y100000D01*
X412693Y98042D01*
X413449Y96218D01*
X414651Y94651D01*
X427698Y81604D01*
Y79167D01*
X426428Y78640D01*
X424534Y79425D01*
X422250Y79725D01*
X408750D01*
X406466Y79425D01*
X404337Y78543D01*
X402509Y77141D01*
X401107Y75313D01*
X400225Y73184D01*
X399925Y70900D01*
Y63400D01*
X400225Y61116D01*
X401107Y58987D01*
X402509Y57159D01*
X404337Y55757D01*
X405833Y55137D01*
Y53763D01*
X404337Y53143D01*
X402509Y51741D01*
X401107Y49913D01*
X400225Y47784D01*
X399925Y45500D01*
Y38000D01*
X400225Y35716D01*
X401107Y33587D01*
X402509Y31759D01*
X404337Y30357D01*
X405833Y29737D01*
Y28363D01*
X404337Y27743D01*
X402509Y26341D01*
X401107Y24513D01*
X400225Y22384D01*
X399925Y20100D01*
Y18850D01*
X415500D01*
X431076D01*
Y20100D01*
X430775Y22384D01*
X429893Y24513D01*
X428491Y26341D01*
X426663Y27743D01*
X425167Y28363D01*
Y29737D01*
X425288Y29787D01*
X425289Y29787D01*
X425297Y29791D01*
X426663Y30357D01*
X426778Y30446D01*
X426997Y30539D01*
X427042Y30584D01*
X427100Y30610D01*
X427561Y30942D01*
X427889Y31146D01*
X428218Y31323D01*
X428551Y31473D01*
X428891Y31600D01*
X429243Y31704D01*
X429613Y31787D01*
X430003Y31848D01*
X430419Y31887D01*
X431014Y31904D01*
X431148Y31935D01*
X463549D01*
X464151Y31151D01*
X472895Y22407D01*
X473079Y21719D01*
X474198Y19781D01*
X475781Y18198D01*
X477719Y17079D01*
X479881Y16500D01*
X482119D01*
X483478Y16864D01*
X484299Y17058D01*
X485108Y16090D01*
X485338Y15534D01*
X486400Y14150D01*
X487784Y13088D01*
X489395Y12421D01*
X491125Y12193D01*
X493250D01*
Y20500D01*
Y28807D01*
X491125D01*
X489395Y28579D01*
X488873Y28363D01*
X487989Y29894D01*
X488493Y31167D01*
X489051Y31171D01*
X489119Y31185D01*
X489125D01*
X489193Y31174D01*
X489512Y31185D01*
X494250D01*
X494307Y31193D01*
X500375D01*
X502104Y31421D01*
X503716Y32088D01*
X505100Y33150D01*
X506162Y34534D01*
X506829Y36146D01*
X507057Y37875D01*
Y41125D01*
X506901Y42314D01*
X506910Y42561D01*
X506845Y42733D01*
X506829Y42854D01*
X506822Y42872D01*
X507307Y44042D01*
X507565Y46000D01*
X507565Y46000D01*
Y49758D01*
X507596Y49897D01*
X507599Y50000D01*
X511750D01*
Y68500D01*
Y71651D01*
X511853Y71654D01*
X511992Y71685D01*
X518008D01*
X518147Y71654D01*
X518250Y71651D01*
Y68500D01*
Y50000D01*
X522401D01*
X522404Y49897D01*
X522435Y49758D01*
Y38818D01*
X522043Y38307D01*
X519625D01*
X517896Y38080D01*
X516284Y37412D01*
X514900Y36350D01*
X513838Y34966D01*
X513171Y33354D01*
X512943Y31625D01*
Y28375D01*
X513171Y26646D01*
X513838Y25034D01*
X514900Y23650D01*
X516284Y22588D01*
X517896Y21920D01*
X519625Y21693D01*
X528875D01*
X530605Y21920D01*
X532216Y22588D01*
X533600Y23650D01*
X534662Y25034D01*
X535330Y26646D01*
X535538Y28229D01*
X537167Y28443D01*
X538991Y29199D01*
X540558Y30401D01*
X541854Y31697D01*
X543281Y32079D01*
X545219Y33198D01*
X546802Y34781D01*
X547921Y36719D01*
X548500Y38881D01*
Y41119D01*
X547921Y43281D01*
X546802Y45219D01*
X545219Y46802D01*
X543281Y47921D01*
X541119Y48500D01*
X539428D01*
X538578Y49460D01*
X538498Y49712D01*
X538596Y50000D01*
X541750D01*
X541750Y50000D01*
X542987Y49920D01*
X544727Y49200D01*
X546750Y48933D01*
X547000D01*
Y60000D01*
X552000D01*
Y48933D01*
X552250D01*
X554273Y49200D01*
X556158Y49980D01*
X557777Y51223D01*
X559020Y52842D01*
X559313Y53549D01*
X560687D01*
X560980Y52842D01*
X562223Y51223D01*
X562666Y50883D01*
X562500Y49623D01*
X560053Y48610D01*
X556613Y46312D01*
X553688Y43387D01*
X551390Y39947D01*
X549807Y36126D01*
X549000Y32068D01*
Y27932D01*
X549807Y23874D01*
X551390Y20053D01*
X553688Y16613D01*
X556613Y13688D01*
X560053Y11390D01*
X563875Y9807D01*
X567932Y9000D01*
X572068D01*
X576125Y9807D01*
X579947Y11390D01*
X583387Y13688D01*
X586312Y16613D01*
X588610Y20053D01*
X590193Y23874D01*
X591000Y27932D01*
Y32068D01*
X590193Y36126D01*
X588610Y39947D01*
X586312Y43387D01*
X583387Y46312D01*
X579947Y48610D01*
X578331Y49279D01*
X578140Y50733D01*
X578777Y51223D01*
X580020Y52842D01*
X580801Y54727D01*
X581067Y56750D01*
Y60933D01*
X582337Y61273D01*
X583198Y59781D01*
X584781Y58198D01*
X586719Y57079D01*
X588881Y56500D01*
X591119D01*
X593281Y57079D01*
X595219Y58198D01*
X596802Y59781D01*
X597921Y61719D01*
X598500Y63881D01*
Y66119D01*
X597921Y68281D01*
X597565Y68898D01*
Y121821D01*
X597307Y123779D01*
X596551Y125603D01*
X595349Y127170D01*
X582420Y140099D01*
X580853Y141301D01*
X579029Y142057D01*
X577071Y142315D01*
X515910D01*
X515809Y142340D01*
X515251Y142371D01*
X514939Y142421D01*
X514582Y142517D01*
X514172Y142669D01*
X513706Y142891D01*
X513184Y143192D01*
X512675Y143538D01*
X511277Y144693D01*
X510545Y145405D01*
X510156Y145658D01*
X509412Y146401D01*
X506955Y148043D01*
X504225Y149173D01*
X501327Y149750D01*
X498373D01*
X495475Y149173D01*
X492745Y148043D01*
X490288Y146401D01*
X489544Y145658D01*
X489155Y145405D01*
X488371Y144643D01*
X487709Y144064D01*
X487364Y143795D01*
X486277Y144693D01*
X485827Y145131D01*
X485716Y146222D01*
X485814Y146688D01*
X485856Y146754D01*
X486982Y147618D01*
X488585Y149707D01*
X489593Y152139D01*
X489651Y152579D01*
X489657Y152586D01*
X489849Y153049D01*
X490128Y153467D01*
X490226Y153960D01*
X490418Y154423D01*
Y154925D01*
X490516Y155418D01*
X490418Y155910D01*
Y156412D01*
X489948Y158775D01*
Y160725D01*
X490328Y162638D01*
X491075Y164440D01*
X492159Y166062D01*
X493605Y167508D01*
X494710Y169162D01*
X495098Y171113D01*
X495098Y192888D01*
X496413Y194204D01*
X497444Y193777D01*
X500250Y193407D01*
X511750D01*
X514556Y193777D01*
X517171Y194860D01*
X519417Y196583D01*
X521140Y198829D01*
X522223Y201444D01*
X522593Y204250D01*
Y205383D01*
X548605Y231395D01*
X549710Y233049D01*
X550098Y235000D01*
Y259917D01*
X551344Y260165D01*
X551390Y260053D01*
X553688Y256613D01*
X556613Y253688D01*
X560053Y251390D01*
X563875Y249807D01*
X567932Y249000D01*
X572068D01*
X576125Y249807D01*
X579947Y251390D01*
X583387Y253688D01*
X586312Y256613D01*
X588610Y260053D01*
X590193Y263874D01*
X591000Y267932D01*
Y272068D01*
X590193Y276126D01*
X588610Y279947D01*
X586312Y283387D01*
X583387Y286312D01*
X579947Y288610D01*
X576125Y290193D01*
X572068Y291000D01*
X567932D01*
X563875Y290193D01*
X560053Y288610D01*
X556613Y286312D01*
X553688Y283387D01*
X551390Y279947D01*
X551344Y279835D01*
X550098Y280083D01*
Y285000D01*
X549710Y286951D01*
X548605Y288605D01*
X543605Y293605D01*
X541951Y294710D01*
X540000Y295098D01*
X525000D01*
X523049Y294710D01*
X522669Y294456D01*
X522500Y294710D01*
X518605Y298605D01*
X518417Y298730D01*
X518803Y300000D01*
X577102D01*
X582009Y299024D01*
D02*
G37*
G36*
X485396Y278034D02*
X484519Y278495D01*
X483523Y278696D01*
X482407Y278636D01*
X481172Y278316D01*
X479817Y277736D01*
X478343Y276896D01*
X476750Y275795D01*
X475037Y274435D01*
X473205Y272814D01*
X471254Y270933D01*
X471084Y271102D01*
X467023Y267667D01*
X462289Y277039D01*
X462452Y277026D01*
X462664Y277080D01*
X462926Y277203D01*
X463237Y277393D01*
X463597Y277651D01*
X464466Y278370D01*
X465292Y279139D01*
X465465Y279316D01*
X468558Y282859D01*
X469338Y283910D01*
X470523Y285815D01*
X470927Y286670D01*
X471206Y287459D01*
X471360Y288183D01*
X485396Y278034D01*
D02*
G37*
G36*
X127570Y266620D02*
X128069Y266280D01*
X128642Y265980D01*
X129285Y265720D01*
X130001Y265500D01*
X130789Y265320D01*
X131649Y265180D01*
X132581Y265080D01*
X134660Y265000D01*
Y255000D01*
X133584Y254980D01*
X131649Y254820D01*
X130789Y254680D01*
X130001Y254500D01*
X129285Y254280D01*
X128642Y254020D01*
X128069Y253720D01*
X127570Y253380D01*
X127141Y253000D01*
Y267000D01*
X127570Y266620D01*
D02*
G37*
G36*
X112858Y253000D02*
X112430Y253380D01*
X111931Y253720D01*
X111358Y254020D01*
X110715Y254280D01*
X109999Y254500D01*
X109211Y254680D01*
X108351Y254820D01*
X107419Y254920D01*
X105340Y255000D01*
Y265000D01*
X106415Y265020D01*
X108351Y265180D01*
X109211Y265320D01*
X109999Y265500D01*
X110715Y265720D01*
X111358Y265980D01*
X111931Y266280D01*
X112430Y266620D01*
X112858Y267000D01*
Y253000D01*
D02*
G37*
G36*
X97570Y266620D02*
X98069Y266280D01*
X98642Y265980D01*
X99285Y265720D01*
X100001Y265500D01*
X100789Y265320D01*
X101649Y265180D01*
X102581Y265080D01*
X104660Y265000D01*
Y255000D01*
X103585Y254980D01*
X101649Y254820D01*
X100789Y254680D01*
X100001Y254500D01*
X99285Y254280D01*
X98642Y254020D01*
X98069Y253720D01*
X97570Y253380D01*
X97141Y253000D01*
Y267000D01*
X97570Y266620D01*
D02*
G37*
G36*
X455051Y258290D02*
X458230Y257438D01*
X461521D01*
X463632Y258003D01*
X464902Y257029D01*
Y230000D01*
X465290Y228049D01*
X466395Y226395D01*
X471395Y221395D01*
X473049Y220290D01*
X475000Y219902D01*
X484902D01*
Y217112D01*
X482888Y215098D01*
X475000D01*
X473049Y214710D01*
X471395Y213605D01*
X461271Y203481D01*
X460098Y203967D01*
Y215000D01*
X459710Y216951D01*
X458605Y218605D01*
X453605Y223605D01*
X451951Y224710D01*
X450000Y225098D01*
X430000D01*
X428049Y224710D01*
X426395Y223605D01*
X421395Y218605D01*
X420290Y216951D01*
X419902Y215000D01*
Y145000D01*
X420290Y143049D01*
X421395Y141395D01*
X426395Y136395D01*
X428049Y135290D01*
X428224Y134904D01*
X426954Y132704D01*
X426565Y131251D01*
X425922Y130985D01*
X425165Y130933D01*
X402875Y153223D01*
X403000Y153688D01*
Y157112D01*
X402114Y160418D01*
X400403Y163382D01*
X397982Y165803D01*
X397565Y166044D01*
Y206867D01*
X438231Y247533D01*
X438354Y247500D01*
X441646D01*
X444825Y248352D01*
X447675Y249998D01*
X450003Y252325D01*
X451648Y255175D01*
X452486Y258304D01*
X452555Y258524D01*
X453600Y259127D01*
X455051Y258290D01*
D02*
G37*
G36*
X518895Y291105D02*
X516753Y288963D01*
X516383Y288408D01*
X515943Y287907D01*
X515835Y287589D01*
X515648Y287309D01*
X515518Y286655D01*
X515304Y286024D01*
X515326Y285688D01*
X515260Y285358D01*
X515390Y284704D01*
X515434Y284039D01*
X516202Y281172D01*
Y278828D01*
X515595Y276564D01*
X515585Y276546D01*
X515477Y276228D01*
X515290Y275948D01*
X515160Y275294D01*
X514946Y274662D01*
X514968Y274327D01*
X514902Y273997D01*
Y262112D01*
X507888Y255098D01*
X500000D01*
X498049Y254710D01*
X496395Y253605D01*
X487809Y245019D01*
X487622Y244739D01*
X487369Y244517D01*
X487074Y243919D01*
X486704Y243365D01*
X486638Y243035D01*
X486489Y242733D01*
X486446Y242068D01*
X486316Y241414D01*
X486381Y241084D01*
X486359Y240748D01*
X486469Y239916D01*
Y235084D01*
X486334Y234058D01*
X486067Y233412D01*
X485956Y233268D01*
X485661Y232670D01*
X485290Y232115D01*
X485224Y231786D01*
X485076Y231484D01*
X485032Y230819D01*
X484902Y230164D01*
Y225000D01*
X475000D01*
X470000Y230000D01*
Y262474D01*
X470320Y263028D01*
X471277Y263762D01*
X474749Y267235D01*
X474792Y267262D01*
X476665Y269068D01*
X477719Y270000D01*
X490000D01*
X495000Y275000D01*
Y290000D01*
X500000Y295000D01*
X515000D01*
X518895Y291105D01*
D02*
G37*
G36*
X80280Y217352D02*
X80006Y216443D01*
X79810Y215629D01*
X79692Y214911D01*
X79652Y214288D01*
X79690Y213761D01*
X79806Y213329D01*
X80001Y212992D01*
X80273Y212750D01*
X80624Y212604D01*
X81052Y212554D01*
X70630Y212621D01*
X71111Y212668D01*
X71575Y212813D01*
X72023Y213059D01*
X72454Y213403D01*
X72868Y213846D01*
X73266Y214389D01*
X73648Y215031D01*
X74013Y215773D01*
X74362Y216613D01*
X74694Y217553D01*
X80280Y217352D01*
D02*
G37*
G36*
X81828Y212319D02*
X82155Y212218D01*
X83145Y211845D01*
X86475Y210407D01*
X85889Y204468D01*
X85034Y204844D01*
X81771Y206066D01*
X81320Y206178D01*
X80938Y206246D01*
X80623Y206270D01*
X80375Y206249D01*
X81525Y212275D01*
X81513Y212347D01*
X81615Y212362D01*
X81828Y212319D01*
D02*
G37*
G36*
X149050Y212429D02*
X148200Y212128D01*
X147450Y211626D01*
X146800Y210924D01*
X146250Y210021D01*
X145800Y208918D01*
X145450Y207614D01*
X145200Y206109D01*
X145050Y204404D01*
X145000Y202498D01*
X135000D01*
X134950Y204404D01*
X134800Y206109D01*
X134550Y207614D01*
X134200Y208918D01*
X133750Y210021D01*
X133200Y210924D01*
X132550Y211626D01*
X131800Y212128D01*
X130950Y212429D01*
X130000Y212529D01*
X150000D01*
X149050Y212429D01*
D02*
G37*
G36*
X109723Y203008D02*
X110026Y202901D01*
X110405Y202807D01*
X110861Y202726D01*
X112003Y202600D01*
X113452Y202525D01*
X115208Y202500D01*
Y197500D01*
X114292Y197494D01*
X110861Y197274D01*
X110405Y197193D01*
X110026Y197099D01*
X109723Y196992D01*
X109497Y196873D01*
Y203127D01*
X109723Y203008D01*
D02*
G37*
G36*
X70503Y187373D02*
X70277Y187492D01*
X69974Y187599D01*
X69595Y187693D01*
X69139Y187774D01*
X67997Y187900D01*
X66548Y187975D01*
X64792Y188000D01*
Y193000D01*
X65708Y193006D01*
X69139Y193226D01*
X69595Y193307D01*
X69974Y193401D01*
X70277Y193508D01*
X70503Y193627D01*
Y187373D01*
D02*
G37*
G36*
X24602Y185405D02*
X24526Y185290D01*
X24481Y185145D01*
X24467Y184970D01*
X24485Y184765D01*
X24534Y184530D01*
X24615Y184265D01*
X24726Y183970D01*
X24869Y183645D01*
X25249Y182906D01*
X17313Y185365D01*
X17652Y185539D01*
X18731Y186180D01*
X18932Y186327D01*
X19105Y186468D01*
X19250Y186604D01*
X19367Y186734D01*
X19457Y186859D01*
X24602Y185405D01*
D02*
G37*
G36*
X17172Y174708D02*
X16787Y174907D01*
X16107Y175210D01*
X15813Y175315D01*
X15549Y175389D01*
X15316Y175432D01*
X15113Y175444D01*
X14940Y175425D01*
X14798Y175374D01*
X14686Y175293D01*
X13141Y180450D01*
X13269Y180546D01*
X13401Y180667D01*
X13536Y180815D01*
X13674Y180987D01*
X13816Y181185D01*
X14109Y181658D01*
X14415Y182234D01*
X14573Y182560D01*
X17172Y174708D01*
D02*
G37*
G36*
X83265Y169934D02*
X83385Y168561D01*
X83489Y168003D01*
X83624Y167530D01*
X83788Y167144D01*
X83982Y166844D01*
X84206Y166629D01*
X84460Y166500D01*
X84744Y166457D01*
X76756D01*
X77040Y166500D01*
X77294Y166629D01*
X77518Y166844D01*
X77712Y167144D01*
X77877Y167530D01*
X78011Y168003D01*
X78116Y168561D01*
X78190Y169205D01*
X78235Y169934D01*
X78250Y170750D01*
X83250D01*
X83265Y169934D01*
D02*
G37*
G36*
X128729Y170751D02*
X130194Y169323D01*
X130887Y168758D01*
X131553Y168294D01*
X132193Y167930D01*
X132807Y167665D01*
X133394Y167501D01*
X133955Y167436D01*
X134489Y167471D01*
X123022Y165597D01*
X123411Y165713D01*
X123676Y165914D01*
X123817Y166199D01*
X123834Y166568D01*
X123727Y167021D01*
X123496Y167560D01*
X123140Y168182D01*
X122661Y168889D01*
X122058Y169681D01*
X121331Y170557D01*
X127957Y171614D01*
X128729Y170751D01*
D02*
G37*
G36*
X200464Y171862D02*
X202464Y168946D01*
X202476Y168933D01*
X206021Y168696D01*
X205636Y167895D01*
X205342Y167179D01*
X205140Y166547D01*
X205086Y166281D01*
X205511Y165940D01*
X206539Y165302D01*
X207574Y164847D01*
X208614Y164573D01*
X209661Y164482D01*
X187016D01*
X187892Y164565D01*
X188581Y164812D01*
X189085Y165224D01*
X189402Y165801D01*
X189533Y166543D01*
X189478Y167450D01*
X189236Y168521D01*
X188808Y169758D01*
X188195Y171159D01*
X187394Y172725D01*
X199474Y173593D01*
X200464Y171862D01*
D02*
G37*
G36*
X104687Y164517D02*
X104788Y163974D01*
X104993Y163411D01*
X105300Y162829D01*
X105710Y162228D01*
X106223Y161607D01*
X106839Y160968D01*
X107557Y160309D01*
X109303Y158933D01*
X108497Y152415D01*
X107592Y153047D01*
X106055Y153973D01*
X105421Y154266D01*
X104879Y154447D01*
X104427Y154515D01*
X104065Y154470D01*
X103794Y154312D01*
X103613Y154042D01*
X103523Y153658D01*
X104688Y165041D01*
X104687Y164517D01*
D02*
G37*
G36*
X545000Y285000D02*
Y235000D01*
X515000Y205000D01*
X500000D01*
X490000Y195000D01*
X490000Y171113D01*
X488199Y169312D01*
X486557Y166855D01*
X485426Y164125D01*
X484850Y161227D01*
Y158273D01*
X485418Y155418D01*
X480000Y150000D01*
X465000D01*
X460000Y155000D01*
Y195000D01*
X475000Y210000D01*
X485000D01*
X490000Y215000D01*
Y230164D01*
X490520Y230842D01*
X491301Y232727D01*
X491567Y234750D01*
Y240250D01*
X491414Y241414D01*
X500000Y250000D01*
X510000D01*
X520000Y260000D01*
Y273997D01*
X520346Y274596D01*
X521300Y278157D01*
Y281843D01*
X520358Y285358D01*
X525000Y290000D01*
X540000D01*
X545000Y285000D01*
D02*
G37*
G36*
X49910Y149358D02*
X49488Y149183D01*
X49116Y148893D01*
X48793Y148486D01*
X48520Y147963D01*
X48297Y147324D01*
X48123Y146568D01*
X47999Y145697D01*
X47925Y144709D01*
X47900Y143605D01*
X42900D01*
X42875Y144709D01*
X42801Y145697D01*
X42677Y146568D01*
X42503Y147324D01*
X42280Y147963D01*
X42007Y148486D01*
X41684Y148893D01*
X41312Y149183D01*
X40890Y149358D01*
X40419Y149416D01*
X50381D01*
X49910Y149358D01*
D02*
G37*
G36*
X62520Y148701D02*
X62578Y147959D01*
X62676Y147274D01*
X62814Y146646D01*
X62990Y146074D01*
X63205Y145558D01*
X63460Y145099D01*
X63754Y144696D01*
X64087Y144349D01*
X64460Y144059D01*
X58902Y143000D01*
X58635Y141796D01*
X58397Y141002D01*
X58187Y140618D01*
X58005Y140644D01*
X57850Y141081D01*
X57724Y141928D01*
X57626Y143185D01*
X57500Y149419D01*
X62500Y149498D01*
X62520Y148701D01*
D02*
G37*
G36*
X455000Y215000D02*
Y195492D01*
X454902Y195000D01*
Y155000D01*
X455000Y154508D01*
Y145000D01*
X450000Y140000D01*
X446003D01*
X445404Y140346D01*
X441843Y141300D01*
X438157D01*
X434596Y140346D01*
X433997Y140000D01*
X430000D01*
X425000Y145000D01*
Y215000D01*
X430000Y220000D01*
X450000D01*
X455000Y215000D01*
D02*
G37*
G36*
X492709Y127750D02*
X491829Y128605D01*
X490087Y130045D01*
X489225Y130630D01*
X488368Y131125D01*
X487517Y131530D01*
X487350Y131592D01*
X487183Y131530D01*
X486332Y131125D01*
X485475Y130630D01*
X484613Y130045D01*
X483745Y129370D01*
X482871Y128605D01*
X481992Y127750D01*
Y141750D01*
X482871Y140895D01*
X484613Y139455D01*
X485475Y138870D01*
X486332Y138375D01*
X487183Y137970D01*
X487350Y137908D01*
X487517Y137970D01*
X488368Y138375D01*
X489225Y138870D01*
X490087Y139455D01*
X490956Y140130D01*
X491829Y140895D01*
X492709Y141750D01*
Y127750D01*
D02*
G37*
G36*
X141118Y141775D02*
X141269Y141350D01*
X141521Y140975D01*
X141873Y140650D01*
X142325Y140375D01*
X142879Y140150D01*
X143533Y139975D01*
X144287Y139850D01*
X145142Y139775D01*
X146098Y139750D01*
Y134750D01*
X145142Y134725D01*
X144287Y134650D01*
X143533Y134525D01*
X142879Y134350D01*
X142325Y134125D01*
X141873Y133850D01*
X141521Y133525D01*
X141269Y133150D01*
X141118Y132725D01*
X141068Y132250D01*
Y142250D01*
X141118Y141775D01*
D02*
G37*
G36*
X507871Y140895D02*
X509613Y139455D01*
X510475Y138870D01*
X511332Y138375D01*
X512183Y137970D01*
X513029Y137655D01*
X513869Y137430D01*
X514704Y137295D01*
X515532Y137250D01*
Y132250D01*
X514704Y132205D01*
X513869Y132070D01*
X513029Y131845D01*
X512183Y131530D01*
X511332Y131125D01*
X510475Y130630D01*
X509613Y130045D01*
X508745Y129370D01*
X507871Y128605D01*
X506992Y127750D01*
Y141750D01*
X507871Y140895D01*
D02*
G37*
G36*
X32525Y131044D02*
X32600Y130189D01*
X32725Y129434D01*
X32900Y128780D01*
X33125Y128227D01*
X33400Y127774D01*
X33725Y127422D01*
X34100Y127170D01*
X34525Y127019D01*
X35000Y126969D01*
X25000D01*
X25475Y127019D01*
X25900Y127170D01*
X26275Y127422D01*
X26600Y127774D01*
X26875Y128227D01*
X27100Y128780D01*
X27275Y129434D01*
X27400Y130189D01*
X27475Y131044D01*
X27500Y131999D01*
X32500D01*
X32525Y131044D01*
D02*
G37*
G36*
X77487Y130882D02*
X77492Y130494D01*
X77500Y126006D01*
X72500Y126000D01*
X72492Y126725D01*
X72304Y129108D01*
X72218Y129575D01*
X72116Y129990D01*
X71998Y130354D01*
X71865Y130666D01*
X71716Y130927D01*
X77484D01*
X77487Y130882D01*
D02*
G37*
G36*
X115260Y130441D02*
X115049Y130270D01*
X114816Y130025D01*
X114562Y129706D01*
X114287Y129314D01*
X113671Y128306D01*
X112968Y127001D01*
X112179Y125401D01*
X107984Y128160D01*
X108631Y129581D01*
X109611Y132121D01*
X109943Y133242D01*
X110170Y134262D01*
X110293Y135182D01*
X110310Y136002D01*
X110222Y136722D01*
X110030Y137343D01*
X109732Y137863D01*
X115260Y130441D01*
D02*
G37*
G36*
X17670Y99930D02*
X19120Y99269D01*
X19780Y99030D01*
X20398Y98853D01*
X20973Y98736D01*
X21505Y98680D01*
X21995Y98686D01*
X22441Y98752D01*
X22844Y98880D01*
X20281Y89781D01*
X20351Y90243D01*
X20305Y90717D01*
X20141Y91204D01*
X19862Y91703D01*
X19466Y92214D01*
X18953Y92738D01*
X18323Y93274D01*
X17577Y93822D01*
X16714Y94383D01*
X15735Y94956D01*
X16880Y100352D01*
X17670Y99930D01*
D02*
G37*
G36*
X472729Y81357D02*
X472679Y81832D01*
X472529Y82257D01*
X472279Y82632D01*
X471929Y82957D01*
X471479Y83232D01*
X470929Y83457D01*
X470279Y83632D01*
X469529Y83757D01*
X469195Y83786D01*
X468860Y83757D01*
X468106Y83632D01*
X467453Y83457D01*
X466900Y83232D01*
X466447Y82957D01*
X466094Y82632D01*
X465842Y82257D01*
X465689Y81832D01*
X465637Y81357D01*
X465668Y88969D01*
X465718Y88948D01*
X465868Y88929D01*
X466118Y88912D01*
X468554Y88875D01*
X472729Y88969D01*
Y81357D01*
D02*
G37*
G36*
X544281Y74625D02*
X544230Y75100D01*
X544081Y75525D01*
X543830Y75900D01*
X543480Y76225D01*
X543031Y76500D01*
X542481Y76725D01*
X541830Y76900D01*
X541081Y77025D01*
X540496Y77077D01*
X539908Y77025D01*
X539154Y76900D01*
X538500Y76725D01*
X537947Y76500D01*
X537494Y76225D01*
X537142Y75900D01*
X536890Y75525D01*
X536739Y75100D01*
X536689Y74625D01*
Y84625D01*
X536739Y84150D01*
X536890Y83725D01*
X537142Y83350D01*
X537494Y83025D01*
X537947Y82750D01*
X538500Y82525D01*
X539154Y82350D01*
X539908Y82225D01*
X540496Y82173D01*
X541081Y82225D01*
X541830Y82350D01*
X542481Y82525D01*
X543031Y82750D01*
X543480Y83025D01*
X543830Y83350D01*
X544081Y83725D01*
X544230Y84150D01*
X544281Y84625D01*
Y74625D01*
D02*
G37*
G36*
X485718Y88948D02*
X485868Y88929D01*
X486118Y88912D01*
X489718Y88858D01*
X490668Y88857D01*
Y83857D01*
X489714Y83832D01*
X488860Y83757D01*
X488106Y83632D01*
X487453Y83457D01*
X486900Y83232D01*
X486447Y82957D01*
X486094Y82632D01*
X485842Y82257D01*
X485689Y81832D01*
X485637Y81357D01*
X485668Y88969D01*
X485718Y88948D01*
D02*
G37*
G36*
X523311Y74250D02*
X523261Y74725D01*
X523110Y75150D01*
X522858Y75525D01*
X522506Y75850D01*
X522053Y76125D01*
X521500Y76350D01*
X520846Y76525D01*
X520092Y76650D01*
X519236Y76725D01*
X518280Y76750D01*
Y81750D01*
X519236Y81775D01*
X520092Y81850D01*
X520846Y81975D01*
X521500Y82150D01*
X522053Y82375D01*
X522506Y82650D01*
X522858Y82975D01*
X523110Y83350D01*
X523261Y83775D01*
X523311Y84250D01*
Y74250D01*
D02*
G37*
G36*
X506739Y83775D02*
X506890Y83350D01*
X507142Y82975D01*
X507494Y82650D01*
X507947Y82375D01*
X508500Y82150D01*
X509154Y81975D01*
X509908Y81850D01*
X510764Y81775D01*
X511720Y81750D01*
Y76750D01*
X510764Y76725D01*
X509908Y76650D01*
X509154Y76525D01*
X508500Y76350D01*
X507947Y76125D01*
X507494Y75850D01*
X507142Y75525D01*
X506890Y75150D01*
X506739Y74725D01*
X506689Y74250D01*
Y84250D01*
X506739Y83775D01*
D02*
G37*
G36*
X184495Y69500D02*
X184884Y65159D01*
X184547Y65342D01*
X184159Y65471D01*
X183721Y65548D01*
X183232Y65573D01*
X182693Y65545D01*
X182103Y65465D01*
X181463Y65332D01*
X180772Y65146D01*
X179239Y64617D01*
X178990Y67768D01*
X178592Y67843D01*
X178651Y73017D01*
X179426Y72900D01*
X180875Y72799D01*
X181549Y72815D01*
X182189Y72875D01*
X182796Y72980D01*
X183368Y73129D01*
X183907Y73322D01*
X184412Y73559D01*
X184884Y73841D01*
X184495Y69500D01*
D02*
G37*
G36*
X115511Y76268D02*
X115446Y76022D01*
X115388Y75688D01*
X115338Y75266D01*
X115235Y73478D01*
X115200Y70901D01*
X110200D01*
X110196Y71847D01*
X109954Y76022D01*
X109889Y76268D01*
X109816Y76427D01*
X115584D01*
X115511Y76268D01*
D02*
G37*
G36*
X41756Y66714D02*
X36744D01*
X36750Y69250D01*
X41750D01*
X41756Y66714D01*
D02*
G37*
G36*
X23274Y70966D02*
X23346Y70232D01*
X23466Y69540D01*
X23635Y68892D01*
X23851Y68286D01*
X24115Y67724D01*
X24428Y67204D01*
X24788Y66728D01*
X25197Y66294D01*
X25654Y65904D01*
X15846D01*
X16303Y66294D01*
X16712Y66728D01*
X17072Y67204D01*
X17385Y67724D01*
X17649Y68286D01*
X17865Y68892D01*
X18034Y69540D01*
X18154Y70232D01*
X18226Y70966D01*
X18250Y71744D01*
X23250D01*
X23274Y70966D01*
D02*
G37*
G36*
X574220Y73281D02*
X573798Y73231D01*
X573420Y73081D01*
X573088Y72831D01*
X572799Y72481D01*
X572555Y72031D01*
X572355Y71480D01*
X572200Y70830D01*
X572089Y70080D01*
X572051Y69597D01*
X572099Y68979D01*
X572224Y68149D01*
X572398Y67438D01*
X572622Y66844D01*
X572896Y66368D01*
X573219Y66011D01*
X573592Y65772D01*
X574016Y65651D01*
X574488Y65648D01*
X565374Y64622D01*
X565683Y65065D01*
X565960Y65550D01*
X566203Y66075D01*
X566415Y66640D01*
X566594Y67246D01*
X566740Y67892D01*
X566854Y68579D01*
X566935Y69307D01*
X566946Y69568D01*
X566900Y70089D01*
X566775Y70843D01*
X566600Y71496D01*
X566375Y72049D01*
X566100Y72502D01*
X565775Y72855D01*
X565400Y73107D01*
X564975Y73259D01*
X564500Y73311D01*
X574220Y73281D01*
D02*
G37*
G36*
X483723Y61011D02*
X483298Y60860D01*
X482923Y60608D01*
X482598Y60256D01*
X482323Y59803D01*
X482098Y59250D01*
X481923Y58596D01*
X481798Y57842D01*
X481723Y56986D01*
X481698Y56031D01*
X476698D01*
X476673Y56986D01*
X476598Y57842D01*
X476473Y58596D01*
X476298Y59250D01*
X476073Y59803D01*
X475798Y60256D01*
X475473Y60608D01*
X475098Y60860D01*
X474673Y61011D01*
X474198Y61061D01*
X484198D01*
X483723Y61011D01*
D02*
G37*
G36*
X464142D02*
X463717Y60860D01*
X463342Y60608D01*
X463017Y60256D01*
X462742Y59803D01*
X462517Y59250D01*
X462342Y58596D01*
X462217Y57842D01*
X462142Y56986D01*
X462117Y56031D01*
X457117D01*
X457092Y56986D01*
X457017Y57842D01*
X456892Y58596D01*
X456717Y59250D01*
X456492Y59803D01*
X456217Y60256D01*
X455892Y60608D01*
X455517Y60860D01*
X455092Y61011D01*
X454617Y61061D01*
X464617D01*
X464142Y61011D01*
D02*
G37*
G36*
X444142D02*
X443717Y60860D01*
X443342Y60608D01*
X443017Y60256D01*
X442742Y59803D01*
X442517Y59250D01*
X442342Y58596D01*
X442217Y57842D01*
X442142Y56986D01*
X442117Y56031D01*
X437117D01*
X437092Y56986D01*
X437017Y57842D01*
X436892Y58596D01*
X436717Y59250D01*
X436492Y59803D01*
X436217Y60256D01*
X435892Y60608D01*
X435517Y60860D01*
X435092Y61011D01*
X434617Y61061D01*
X444617D01*
X444142Y61011D01*
D02*
G37*
G36*
X534525Y55011D02*
X534100Y54860D01*
X533725Y54608D01*
X533400Y54256D01*
X533125Y53803D01*
X532900Y53250D01*
X532725Y52596D01*
X532600Y51842D01*
X532525Y50986D01*
X532500Y50030D01*
X527500D01*
X527475Y50986D01*
X527400Y51842D01*
X527275Y52596D01*
X527100Y53250D01*
X526875Y53803D01*
X526600Y54256D01*
X526275Y54608D01*
X525900Y54860D01*
X525475Y55011D01*
X525000Y55061D01*
X535000D01*
X534525Y55011D01*
D02*
G37*
G36*
X504525D02*
X504100Y54860D01*
X503725Y54608D01*
X503400Y54256D01*
X503125Y53803D01*
X502900Y53250D01*
X502725Y52596D01*
X502600Y51842D01*
X502525Y50986D01*
X502500Y50030D01*
X497500D01*
X497475Y50986D01*
X497400Y51842D01*
X497275Y52596D01*
X497100Y53250D01*
X496875Y53803D01*
X496600Y54256D01*
X496275Y54608D01*
X495900Y54860D01*
X495475Y55011D01*
X495000Y55061D01*
X505000D01*
X504525Y55011D01*
D02*
G37*
G36*
X501768Y44232D02*
X501601Y44040D01*
X501474Y43835D01*
X501387Y43618D01*
X501339Y43388D01*
X501330Y43146D01*
X501361Y42891D01*
X501431Y42624D01*
X501540Y42344D01*
X501689Y42052D01*
X501877Y41747D01*
X490503Y42627D01*
X491147Y42779D01*
X491787Y42979D01*
X492422Y43226D01*
X493054Y43521D01*
X493680Y43863D01*
X494303Y44253D01*
X494921Y44690D01*
X495536Y45175D01*
X496751Y46286D01*
X501768Y44232D01*
D02*
G37*
G36*
X116002Y46174D02*
X116067Y46129D01*
X116555Y45885D01*
X117152Y45661D01*
X117856Y45457D01*
X118669Y45272D01*
X120621Y44961D01*
X115039Y39379D01*
X112858Y41905D01*
Y33000D01*
X112430Y33380D01*
X111931Y33720D01*
X111358Y34020D01*
X110715Y34280D01*
X109999Y34500D01*
X109211Y34680D01*
X108351Y34820D01*
X107419Y34920D01*
X105340Y35000D01*
Y45000D01*
X106415Y45020D01*
X108351Y45180D01*
X109211Y45320D01*
X109999Y45500D01*
X110154Y45548D01*
X110200Y47300D01*
X115200D01*
X115244Y47779D01*
X115376Y48211D01*
X115595Y48597D01*
X115903Y48936D01*
X116298Y49229D01*
X116781Y49475D01*
X117352Y49674D01*
X118010Y49826D01*
X118757Y49932D01*
X119591Y49992D01*
X116002Y46174D01*
D02*
G37*
G36*
X195116Y46159D02*
X196093Y46285D01*
X196709Y46201D01*
X196965Y45907D01*
X196859Y45404D01*
X196393Y44692D01*
X195566Y43770D01*
X194378Y42639D01*
X190919Y39747D01*
X188648Y37988D01*
X179500Y45000D01*
X180257Y45623D01*
X180935Y46281D01*
X181533Y46971D01*
X182052Y47696D01*
X182490Y48454D01*
X182849Y49246D01*
X183128Y50071D01*
X183328Y50931D01*
X183447Y51823D01*
X183487Y52750D01*
X195116Y46159D01*
D02*
G37*
G36*
X490503Y36373D02*
X490492Y36349D01*
X490387Y36328D01*
X490187Y36310D01*
X489016Y36269D01*
X486125Y36249D01*
X485909Y36984D01*
X484792Y37000D01*
Y40788D01*
X484656Y41250D01*
X484792Y41252D01*
Y42000D01*
X485708Y42006D01*
X489139Y42226D01*
X489595Y42307D01*
X489974Y42401D01*
X490277Y42508D01*
X490503Y42627D01*
Y36373D01*
D02*
G37*
G36*
X425936Y44025D02*
X426021Y43600D01*
X426225Y43225D01*
X426549Y42900D01*
X426992Y42625D01*
X427555Y42400D01*
X428237Y42225D01*
X429039Y42100D01*
X429961Y42025D01*
X431002Y42000D01*
X430862Y37000D01*
X430109Y36978D01*
X429375Y36910D01*
X428657Y36798D01*
X427958Y36640D01*
X427275Y36438D01*
X426610Y36190D01*
X425963Y35898D01*
X425333Y35561D01*
X424721Y35178D01*
X424126Y34751D01*
X425971Y44500D01*
X425936Y44025D01*
D02*
G37*
G36*
X127570Y46620D02*
X128069Y46280D01*
X128642Y45980D01*
X129285Y45720D01*
X130001Y45500D01*
X130789Y45320D01*
X131649Y45180D01*
X132581Y45080D01*
X134660Y45000D01*
Y35000D01*
X133584Y34980D01*
X131649Y34820D01*
X130789Y34680D01*
X130001Y34500D01*
X129285Y34280D01*
X128642Y34020D01*
X128069Y33720D01*
X127570Y33380D01*
X127141Y33000D01*
Y47000D01*
X127570Y46620D01*
D02*
G37*
G36*
X97570D02*
X98069Y46280D01*
X98642Y45980D01*
X99285Y45720D01*
X100001Y45500D01*
X100789Y45320D01*
X101649Y45180D01*
X102581Y45080D01*
X104660Y45000D01*
Y35000D01*
X103585Y34980D01*
X101649Y34820D01*
X100789Y34680D01*
X100001Y34500D01*
X99285Y34280D01*
X98642Y34020D01*
X98069Y33720D01*
X97570Y33380D01*
X97141Y33000D01*
Y47000D01*
X97570Y46620D01*
D02*
G37*
%LPC*%
G36*
X579750Y236593D02*
X576500D01*
Y217500D01*
X590593D01*
Y225750D01*
X590223Y228556D01*
X589140Y231171D01*
X587417Y233417D01*
X585171Y235140D01*
X582556Y236223D01*
X579750Y236593D01*
D02*
G37*
G36*
X571500D02*
X568250D01*
X565444Y236223D01*
X562829Y235140D01*
X560583Y233417D01*
X558860Y231171D01*
X557777Y228556D01*
X557407Y225750D01*
Y217500D01*
X571500D01*
Y236593D01*
D02*
G37*
G36*
X590593Y212500D02*
X576500D01*
Y193407D01*
X579750D01*
X582556Y193777D01*
X585171Y194860D01*
X587417Y196583D01*
X589140Y198829D01*
X590223Y201444D01*
X590593Y204250D01*
Y212500D01*
D02*
G37*
G36*
X571500D02*
X557407D01*
Y204250D01*
X557777Y201444D01*
X558860Y198829D01*
X560583Y196583D01*
X562829Y194860D01*
X565444Y193777D01*
X568250Y193407D01*
X571500D01*
Y212500D01*
D02*
G37*
G36*
X572612Y173000D02*
X569188D01*
X565882Y172114D01*
X562918Y170403D01*
X560498Y167982D01*
X558786Y165018D01*
X557900Y161712D01*
Y158288D01*
X558786Y154982D01*
X560498Y152018D01*
X562918Y149597D01*
X565882Y147886D01*
X569188Y147000D01*
X572612D01*
X575918Y147886D01*
X578882Y149597D01*
X581303Y152018D01*
X583014Y154982D01*
X583900Y158288D01*
Y161712D01*
X583014Y165018D01*
X581303Y167982D01*
X578882Y170403D01*
X575918Y172114D01*
X572612Y173000D01*
D02*
G37*
G36*
X403000Y117600D02*
X392500D01*
Y107100D01*
X403000D01*
Y117600D01*
D02*
G37*
G36*
X387500D02*
X377000D01*
Y107100D01*
X387500D01*
Y117600D01*
D02*
G37*
G36*
X403000Y102100D02*
X392500D01*
Y91600D01*
X403000D01*
Y102100D01*
D02*
G37*
G36*
X387500D02*
X377000D01*
Y91600D01*
X387500D01*
Y102100D01*
D02*
G37*
G36*
X500375Y28807D02*
X498250D01*
Y23000D01*
X506942D01*
X506829Y23854D01*
X506162Y25466D01*
X505100Y26850D01*
X503716Y27912D01*
X502104Y28579D01*
X500375Y28807D01*
D02*
G37*
G36*
X506942Y18000D02*
X498250D01*
Y12193D01*
X500375D01*
X502104Y12421D01*
X503716Y13088D01*
X505100Y14150D01*
X506162Y15534D01*
X506829Y17146D01*
X506942Y18000D01*
D02*
G37*
G36*
X431076Y13850D02*
X418000D01*
Y3774D01*
X422250D01*
X424534Y4075D01*
X426663Y4957D01*
X428491Y6359D01*
X429893Y8187D01*
X430775Y10316D01*
X431076Y12600D01*
Y13850D01*
D02*
G37*
G36*
X413000D02*
X399925D01*
Y12600D01*
X400225Y10316D01*
X401107Y8187D01*
X402509Y6359D01*
X404337Y4957D01*
X406466Y4075D01*
X408750Y3774D01*
X413000D01*
Y13850D01*
D02*
G37*
%LPD*%
D15*
X75000Y136850D02*
G03*
X74600Y137250I-400J0D01*
G01*
X45400Y140400D02*
G03*
X70800Y115000I25400J0D01*
G01*
X45000Y75000D02*
G03*
X39250Y69250I0J-5750D01*
G01*
X45000Y75000D02*
G03*
X50000Y80000I0J5000D01*
G01*
X70000Y115000D02*
G03*
X50000Y95000I0J-20000D01*
G01*
X90450Y115000D02*
G03*
X94908Y115451I0J22250D01*
G01*
D02*
G03*
X112700Y137250I-4458J21799D01*
G01*
Y146550D02*
G03*
X99250Y160000I-13450J0D01*
G01*
X184500Y69500D02*
G03*
X175000Y60000I0J-9500D01*
G01*
X160000Y94900D02*
G03*
X185400Y69500I25400J0D01*
G01*
X160000Y100000D02*
G03*
X144549Y115451I-15451J0D01*
G01*
X130000Y160000D02*
G03*
X115383Y174617I-14617J0D01*
G01*
X215000Y175000D02*
G03*
X200000Y160000I0J-15000D01*
G01*
X90000Y225000D02*
G03*
X75750Y210750I0J-14250D01*
G01*
X90000Y200000D02*
G03*
X80500Y209500I-9500J0D01*
G01*
X65000Y30000D02*
G03*
X85000Y10000I20000J0D01*
G01*
X20750Y74250D02*
G03*
X20000Y75000I-750J0D01*
G01*
X175000Y10000D02*
G03*
X185000Y20000I0J10000D01*
G01*
X195000Y30000D02*
G03*
X185000Y20000I0J-10000D01*
G01*
X312150Y67150D02*
G03*
X300000Y55000I0J-12150D01*
G01*
X275000Y30000D02*
G03*
X300000Y55000I0J25000D01*
G01*
X285000Y15000D02*
G03*
X305000Y35000I0J20000D01*
G01*
X311750Y41750D02*
G03*
X305000Y35000I0J-6750D01*
G01*
X10000Y110114D02*
G03*
X22727Y94808I15567J0D01*
G01*
X30500Y190500D02*
G03*
X20000Y180000I0J-10500D01*
G01*
D02*
G03*
X10000Y170000I0J-10000D01*
G01*
X112700Y47300D02*
G03*
X120000Y40000I7300J0D01*
G01*
X152250Y137250D02*
G03*
X155000Y140000I0J2750D01*
G01*
X40000Y170000D02*
G03*
X21000Y151000I0J-19000D01*
G01*
X60000Y160000D02*
G03*
X50000Y170000I-10000J0D01*
G01*
X40000D02*
G03*
X30000Y160000I0J-10000D01*
G01*
X85000Y175000D02*
G03*
X90000Y180000I0J5000D01*
G01*
X85000Y175000D02*
G03*
X80750Y170750I0J-4250D01*
G01*
X60000Y139150D02*
G03*
X61900Y137250I1900J0D01*
G01*
X390000Y155400D02*
Y210000D01*
X433500Y86500D02*
X439198D01*
X459055D01*
X420000Y100000D02*
X433500Y86500D01*
X420000Y100000D02*
Y125400D01*
X390000Y155400D02*
X420000Y125400D01*
X472354Y134750D02*
X498180D01*
X470684Y136420D02*
X472354Y134750D01*
X498180D02*
X499850Y136420D01*
X530000Y35750D02*
Y60750D01*
X528000Y30750D02*
Y33750D01*
X530000Y60750D02*
X531000D01*
X524250Y30000D02*
X527250D01*
X528000Y33750D02*
X530000Y35750D01*
X527250Y30000D02*
X528000Y30750D01*
X535209Y35750D02*
X539459Y40000D01*
X540000D01*
X530000Y35750D02*
X535209D01*
X590000Y65000D02*
Y121821D01*
X577071Y134750D02*
X590000Y121821D01*
X499850Y134750D02*
X577071D01*
X494625Y40625D02*
X500000Y46000D01*
X417750Y39500D02*
X469500D01*
X569500Y61000D02*
X570500Y60000D01*
X568500Y80000D02*
X569500Y79000D01*
Y61000D02*
Y79000D01*
X439198Y65500D02*
X439617Y65081D01*
Y55383D02*
Y65081D01*
Y55383D02*
X440000Y55000D01*
X459198Y65500D02*
X459617Y65081D01*
Y55383D02*
Y65081D01*
Y55383D02*
X460000Y55000D01*
X479198Y55802D02*
X480000Y55000D01*
X479198Y55802D02*
Y65500D01*
Y86357D02*
X492821D01*
X459198D02*
X479198D01*
X499000Y79250D02*
X530000D01*
X459055Y86500D02*
X459198Y86357D01*
X495750Y82500D02*
Y83428D01*
X492821Y86357D02*
X495750Y83428D01*
Y82500D02*
X499000Y79250D01*
X568500Y80000D02*
X568750Y80250D01*
X469500Y39500D02*
X495750D01*
X469500Y36500D02*
Y39500D01*
Y36500D02*
X481000Y25000D01*
X484656Y38750D02*
X494250D01*
X415500Y41750D02*
X417750Y39500D01*
X500000Y46000D02*
Y60750D01*
X75000Y126000D02*
Y136850D01*
X45400Y140400D02*
Y154600D01*
X39250Y60000D02*
Y69250D01*
X50000Y80000D02*
Y95000D01*
X70000Y115000D02*
X70800D01*
X90450D01*
X94908Y115451D02*
X144549D01*
X184500Y69500D02*
X185400D01*
X112700Y137250D02*
Y146550D01*
X160000Y94900D02*
Y100000D01*
X185400Y69500D02*
X190000D01*
X130000Y160000D02*
X140000D01*
X110383Y174617D02*
X115383D01*
X110000Y175000D02*
X110383Y174617D01*
X200000Y130000D02*
Y160000D01*
X75750Y209500D02*
Y210750D01*
Y209500D02*
X80500D01*
X20750Y60000D02*
Y74250D01*
X85000Y10000D02*
X175000D01*
X195000Y30000D02*
X275000D01*
X312150Y67150D02*
X324500D01*
X225000Y15000D02*
X285000D01*
X311750Y41750D02*
X324500D01*
X104250Y200000D02*
X120000D01*
X22727Y94808D02*
X22750D01*
X10000Y110114D02*
Y170000D01*
X530375Y79625D02*
X551500D01*
X112700Y47300D02*
Y82750D01*
X138100Y137250D02*
X152250D01*
X21000Y145000D02*
Y151000D01*
X30000Y120000D02*
Y160000D01*
X40000Y170000D02*
X50000D01*
X90000Y180000D02*
Y200000D01*
X80750Y160000D02*
Y170750D01*
X60000Y139150D02*
Y160000D01*
X22750Y94808D02*
X25567Y94547D01*
X30500Y190500D02*
X75750D01*
X390000Y210000D02*
X440000Y260000D01*
X530000Y79250D02*
X530375Y79625D01*
D17*
X530000Y60750D02*
D03*
Y79250D02*
D03*
X500000Y60750D02*
D03*
Y79250D02*
D03*
D18*
X524250Y30000D02*
D03*
X75750Y209500D02*
D03*
Y190500D02*
D03*
X104250Y200000D02*
D03*
X495750Y39500D02*
D03*
Y20500D02*
D03*
D19*
X80750Y160000D02*
D03*
X99250D02*
D03*
X20750Y60000D02*
D03*
X39250D02*
D03*
D20*
X30000Y92000D02*
D03*
Y120000D02*
D03*
D21*
X200000Y230000D02*
D03*
Y130000D02*
D03*
D22*
X140000Y160000D02*
D03*
Y220000D02*
D03*
D23*
X138100Y137250D02*
D03*
X125400D02*
D03*
X112700D02*
D03*
X100000D02*
D03*
X87300D02*
D03*
X74600D02*
D03*
X61900D02*
D03*
X138100Y82750D02*
D03*
X125400D02*
D03*
X112700D02*
D03*
X100000D02*
D03*
X87300D02*
D03*
X74600D02*
D03*
X61900D02*
D03*
D24*
X439198Y84500D02*
D03*
Y65500D02*
D03*
X459198Y84500D02*
D03*
Y65500D02*
D03*
X479198Y84500D02*
D03*
Y65500D02*
D03*
D25*
X568500Y80000D02*
D03*
X550000D02*
D03*
D26*
X549500Y60000D02*
D03*
X570500D02*
D03*
D27*
X324500Y67150D02*
D03*
Y41750D02*
D03*
Y16350D02*
D03*
X415500Y67150D02*
D03*
Y41750D02*
D03*
Y16350D02*
D03*
D28*
X480000Y284250D02*
D03*
Y255750D02*
D03*
D29*
Y237500D02*
D03*
Y202500D02*
D03*
D30*
X506000Y215000D02*
D03*
X574000D02*
D03*
D31*
X190000Y50500D02*
D03*
Y69500D02*
D03*
X210000Y50500D02*
D03*
Y69500D02*
D03*
X230000Y50500D02*
D03*
Y69500D02*
D03*
D57*
X295400Y155400D02*
G03*
X270000Y130000I0J-25400D01*
G01*
X285000Y60000D02*
G03*
X293527Y79451I-20521J20591D01*
G01*
X262010Y50500D02*
G03*
X285000Y60000I-0J32568D01*
G01*
X331348Y125681D02*
G03*
X293432Y81252I586J-38893D01*
G01*
X293527Y79451D02*
G03*
X293435Y81234I-9993J377D01*
G01*
X331348Y125681D02*
G03*
X339200Y130000I-382J9993D01*
G01*
X244600Y69500D02*
G03*
X270000Y94900I0J25400D01*
G01*
X140000Y200000D02*
G03*
X155000Y185000I15000J0D01*
G01*
X200000Y154600D02*
G03*
X169600Y185000I-30400J0D01*
G01*
X179500Y40000D02*
G03*
X190000Y50500I0J10500D01*
G01*
X200000Y234600D02*
G03*
X174600Y260000I-25400J0D01*
G01*
X295400Y155400D02*
X339200D01*
X230000Y50500D02*
X261978D01*
X293432Y81252D02*
X293435Y81234D01*
X261978Y50500D02*
X262010Y50500D01*
X339200Y130000D02*
X339200Y130000D01*
X459875Y269938D02*
X460832Y270894D01*
X477500Y284250D02*
X480000D01*
X464144Y270894D02*
X477500Y284250D01*
X460832Y270894D02*
X464144D01*
X230000Y69500D02*
X244600D01*
X270000Y94900D02*
Y130000D01*
X155000Y185000D02*
X169600D01*
X90000Y40000D02*
X120000D01*
X179500D01*
X140000Y200000D02*
Y220000D01*
X200000Y230000D02*
Y234600D01*
X120000Y260000D02*
X174600D01*
X90000D02*
X120000D01*
X210000Y50500D02*
X230000D01*
X190000D02*
X210000D01*
Y69500D02*
X230000D01*
X190000D02*
X210000D01*
D58*
X390000Y104600D02*
D03*
D59*
Y155400D02*
D03*
X339200Y130000D02*
D03*
Y155400D02*
D03*
D60*
X499850Y134750D02*
D03*
X474850D02*
D03*
X120000Y40000D02*
D03*
X90000D02*
D03*
Y260000D02*
D03*
X120000D02*
D03*
X499850Y159750D02*
D03*
Y109750D02*
D03*
X474850D02*
D03*
D61*
X20000Y180000D02*
D03*
X45400Y205400D02*
D03*
D62*
Y154600D02*
D03*
D63*
X570900Y110000D02*
D03*
Y160000D02*
D03*
D64*
X474850Y159750D02*
D03*
D65*
X440000Y234600D02*
D03*
Y260000D02*
D03*
Y209200D02*
D03*
X149500Y59000D02*
D03*
X58500Y59000D02*
D03*
X60500Y241000D02*
D03*
X151500Y241000D02*
D03*
X459875Y269938D02*
D03*
D66*
X440000Y127300D02*
D03*
Y152700D02*
D03*
X532700Y280000D02*
D03*
X507300D02*
D03*
D67*
X540000Y40000D02*
D03*
X590000Y65000D02*
D03*
X440000Y55000D02*
D03*
X460000D02*
D03*
X480000D02*
D03*
X481000Y25000D02*
D03*
X75000Y126000D02*
D03*
X110000Y175000D02*
D03*
X215000D02*
D03*
X175000Y60000D02*
D03*
X20000Y75000D02*
D03*
X65000Y30000D02*
D03*
X225000Y15000D02*
D03*
X120000Y200000D02*
D03*
X90000Y225000D02*
D03*
X155000Y140000D02*
D03*
X21000Y145000D02*
D03*
D68*
X570000Y30000D02*
D03*
Y270000D02*
D03*
X30000Y30000D02*
D03*
Y270000D02*
D03*
M02*
