G04*
G04 #@! TF.GenerationSoftware,Altium Limited,Altium Designer,23.3.1 (30)*
G04*
G04 Layer_Physical_Order=2*
G04 Layer_Color=16711680*
%FSLAX44Y44*%
%MOMM*%
G71*
G04*
G04 #@! TF.SameCoordinates,FAC3D44D-3572-4026-B01C-A32F10146FDD*
G04*
G04*
G04 #@! TF.FilePolarity,Positive*
G04*
G01*
G75*
%ADD15C,0.5000*%
%ADD61C,1.0000*%
%ADD62C,1.6000*%
%ADD63R,1.6000X1.6000*%
%ADD64C,1.5000*%
%ADD65R,1.6000X1.6000*%
%ADD66C,2.0000*%
%ADD67C,1.2000*%
G04:AMPARAMS|DCode=68|XSize=1.2mm|YSize=1.2mm|CornerRadius=0.3mm|HoleSize=0mm|Usage=FLASHONLY|Rotation=180.000|XOffset=0mm|YOffset=0mm|HoleType=Round|Shape=RoundedRectangle|*
%AMROUNDEDRECTD68*
21,1,1.2000,0.6000,0,0,180.0*
21,1,0.6000,1.2000,0,0,180.0*
1,1,0.6000,-0.3000,0.3000*
1,1,0.6000,0.3000,0.3000*
1,1,0.6000,0.3000,-0.3000*
1,1,0.6000,-0.3000,-0.3000*
%
%ADD68ROUNDEDRECTD68*%
%ADD69C,1.5240*%
G04:AMPARAMS|DCode=70|XSize=2mm|YSize=2mm|CornerRadius=0.5mm|HoleSize=0mm|Usage=FLASHONLY|Rotation=90.000|XOffset=0mm|YOffset=0mm|HoleType=Round|Shape=RoundedRectangle|*
%AMROUNDEDRECTD70*
21,1,2.0000,1.0000,0,0,90.0*
21,1,1.0000,2.0000,0,0,90.0*
1,1,1.0000,0.5000,0.5000*
1,1,1.0000,0.5000,-0.5000*
1,1,1.0000,-0.5000,-0.5000*
1,1,1.0000,-0.5000,0.5000*
%
%ADD70ROUNDEDRECTD70*%
%ADD71C,1.8000*%
%ADD72C,0.7000*%
%ADD73C,3.2000*%
%ADD74R,2.2000X1.3000*%
%ADD75R,2.8000X2.0000*%
G36*
X409895Y312565D02*
X407133D01*
X392875Y326823D01*
X393000Y327289D01*
Y330712D01*
X392114Y334018D01*
X390403Y336982D01*
X387982Y339403D01*
X385018Y341114D01*
X381712Y342000D01*
X378288D01*
X374982Y341114D01*
X372018Y339403D01*
X371069Y338453D01*
X369895Y338940D01*
Y421060D01*
X371069Y421547D01*
X372018Y420597D01*
X374982Y418886D01*
X377500Y418211D01*
Y431000D01*
Y443789D01*
X374982Y443114D01*
X372018Y441403D01*
X371069Y440453D01*
X369895Y440939D01*
Y460000D01*
X409895D01*
Y312565D01*
D02*
G37*
G36*
X500873Y273700D02*
X500126Y274422D01*
X499376Y275068D01*
X498623Y275638D01*
X497866Y276132D01*
X497106Y276550D01*
X496342Y276892D01*
X495575Y277158D01*
X494805Y277348D01*
X494031Y277462D01*
X493787Y277474D01*
X492976Y277400D01*
X492217Y277275D01*
X491521Y277100D01*
X490887Y276875D01*
X490317Y276600D01*
X489809Y276275D01*
X489363Y275900D01*
X488980Y275475D01*
X488660Y275000D01*
Y285000D01*
X488980Y284525D01*
X489363Y284100D01*
X489809Y283725D01*
X490317Y283400D01*
X490887Y283125D01*
X491521Y282900D01*
X492217Y282725D01*
X492976Y282600D01*
X493787Y282526D01*
X494031Y282538D01*
X494805Y282652D01*
X495575Y282842D01*
X496342Y283108D01*
X497106Y283450D01*
X497866Y283868D01*
X498623Y284362D01*
X499376Y284932D01*
X500126Y285578D01*
X500873Y286300D01*
Y273700D01*
D02*
G37*
G36*
X561340Y275000D02*
X561020Y275475D01*
X560637Y275900D01*
X560191Y276275D01*
X559683Y276600D01*
X559113Y276875D01*
X558479Y277100D01*
X557783Y277275D01*
X557024Y277400D01*
X556202Y277475D01*
X555318Y277500D01*
Y282500D01*
X556202Y282525D01*
X557024Y282600D01*
X557783Y282725D01*
X558479Y282900D01*
X559113Y283125D01*
X559683Y283400D01*
X560191Y283725D01*
X560637Y284100D01*
X561020Y284525D01*
X561340Y285000D01*
Y275000D01*
D02*
G37*
G36*
X539874Y285578D02*
X540624Y284932D01*
X541377Y284362D01*
X542134Y283868D01*
X542894Y283450D01*
X543658Y283108D01*
X544425Y282842D01*
X545195Y282652D01*
X545969Y282538D01*
X546746Y282500D01*
Y277500D01*
X545969Y277462D01*
X545195Y277348D01*
X544425Y277158D01*
X543658Y276892D01*
X542894Y276550D01*
X542134Y276132D01*
X541377Y275638D01*
X540624Y275068D01*
X539874Y274422D01*
X539127Y273700D01*
Y286300D01*
X539874Y285578D01*
D02*
G37*
G36*
X372018Y318597D02*
X374982Y316886D01*
X378288Y316000D01*
X381712D01*
X382177Y316125D01*
X397128Y301173D01*
X396642Y300000D01*
X398302D01*
X398651Y299651D01*
X400218Y298449D01*
X402042Y297693D01*
X403021Y297564D01*
X404000Y297435D01*
X404000Y297435D01*
X576867D01*
X602435Y271867D01*
Y113133D01*
X586867Y97565D01*
X585674D01*
X585148Y98835D01*
X586501Y100188D01*
X588143Y102645D01*
X589274Y105375D01*
X589850Y108273D01*
Y111227D01*
X589274Y114125D01*
X588143Y116855D01*
X586501Y119312D01*
X584412Y121401D01*
X584092Y121615D01*
Y122885D01*
X584412Y123099D01*
X586501Y125188D01*
X588143Y127645D01*
X589274Y130375D01*
X589850Y133273D01*
Y136227D01*
X589274Y139125D01*
X588143Y141855D01*
X586501Y144312D01*
X584412Y146401D01*
X581955Y148043D01*
X579225Y149173D01*
X576327Y149750D01*
X573373D01*
X570475Y149173D01*
X567745Y148043D01*
X565288Y146401D01*
X563199Y144312D01*
X562985Y143992D01*
X561715D01*
X561501Y144312D01*
X560745Y145068D01*
X560856Y146754D01*
X561982Y147618D01*
X563585Y149707D01*
X564593Y152139D01*
X564936Y154750D01*
Y164750D01*
X564593Y167360D01*
X563585Y169793D01*
X561982Y171882D01*
X559893Y173485D01*
X557461Y174493D01*
X554850Y174836D01*
X544850D01*
X542240Y174493D01*
X539807Y173485D01*
X537718Y171882D01*
X536115Y169793D01*
X535107Y167360D01*
X534764Y164750D01*
Y154750D01*
X535107Y152139D01*
X536115Y149707D01*
X537718Y147618D01*
X538844Y146754D01*
X538955Y145068D01*
X538199Y144312D01*
X536557Y141855D01*
X535426Y139125D01*
X534850Y136227D01*
Y133273D01*
X535426Y130375D01*
X536557Y127645D01*
X538199Y125188D01*
X540288Y123099D01*
X540608Y122885D01*
Y121615D01*
X540288Y121401D01*
X538199Y119312D01*
X536557Y116855D01*
X535426Y114125D01*
X534850Y111227D01*
Y108273D01*
X535426Y105375D01*
X536557Y102645D01*
X538199Y100188D01*
X540288Y98099D01*
X542745Y96457D01*
X545475Y95326D01*
X548373Y94750D01*
X549557D01*
X549575Y94726D01*
X559125Y85177D01*
X558879Y83701D01*
X557895Y83293D01*
X555438Y81651D01*
X553349Y79562D01*
X551707Y77105D01*
X550576Y74375D01*
X550000Y71477D01*
Y68523D01*
X550576Y65625D01*
X551707Y62895D01*
X551748Y62833D01*
X551281Y62337D01*
X551208Y62220D01*
X548009Y59021D01*
X546974Y57672D01*
X537407Y48105D01*
X536719Y47921D01*
X534781Y46802D01*
X533198Y45219D01*
X532079Y43281D01*
X531500Y41119D01*
Y38881D01*
X532079Y36719D01*
X533198Y34781D01*
X534781Y33198D01*
X536719Y32079D01*
X538881Y31500D01*
X541119D01*
X543281Y32079D01*
X545219Y33198D01*
X546802Y34781D01*
X547921Y36719D01*
X548105Y37407D01*
X558707Y48009D01*
X559742Y49358D01*
X563169Y52785D01*
X563273Y52848D01*
X563274Y52849D01*
X563275Y52850D01*
X564410Y53895D01*
X564779Y54189D01*
X565147Y54451D01*
X565464Y54649D01*
X565724Y54787D01*
X565923Y54874D01*
X566057Y54919D01*
X566129Y54936D01*
X566418Y54974D01*
X566522Y55009D01*
X569375Y55577D01*
X572105Y56707D01*
X574562Y58349D01*
X576651Y60438D01*
X577060Y61050D01*
X577301Y61258D01*
X577402Y61389D01*
X577481Y61424D01*
X577676Y61488D01*
X577972Y61558D01*
X578372Y61621D01*
X578873Y61664D01*
X579605Y61684D01*
X579743Y61715D01*
X593004D01*
X594284Y60977D01*
X596446Y60398D01*
X598684D01*
X600846Y60977D01*
X602784Y62096D01*
X604366Y63678D01*
X605485Y65617D01*
X606065Y67779D01*
Y70017D01*
X605485Y72178D01*
X604366Y74117D01*
X602784Y75699D01*
X600846Y76818D01*
X598684Y77397D01*
X596446D01*
X594383Y76845D01*
X580288D01*
X580219Y76864D01*
X580103Y76850D01*
X579989Y76876D01*
X579271Y76897D01*
X578811Y76940D01*
X578472Y76999D01*
X578320Y77039D01*
X578293Y77105D01*
X576651Y79562D01*
X575048Y81165D01*
X575574Y82435D01*
X590000D01*
X591958Y82693D01*
X593782Y83449D01*
X595349Y84651D01*
X615349Y104651D01*
X615349Y104651D01*
X616551Y106218D01*
X617307Y108042D01*
X617565Y110000D01*
X617565Y110000D01*
Y275000D01*
X617307Y276958D01*
X616551Y278782D01*
X615349Y280349D01*
X615349Y280349D01*
X596871Y298827D01*
X597357Y300000D01*
X680000D01*
Y25400D01*
Y22898D01*
X679024Y17991D01*
X677109Y13369D01*
X674330Y9208D01*
X670792Y5670D01*
X666631Y2891D01*
X662009Y976D01*
X657102Y0D01*
X370000D01*
Y141131D01*
X371173Y141617D01*
X376395Y136395D01*
X378049Y135290D01*
X380000Y134902D01*
X403885D01*
X405438Y133349D01*
X407895Y131707D01*
X410625Y130576D01*
X413523Y130000D01*
X416477D01*
X419375Y130576D01*
X422105Y131707D01*
X424562Y133349D01*
X425810Y134597D01*
X426600Y134523D01*
X427275Y133260D01*
X426954Y132704D01*
X426000Y129143D01*
Y125457D01*
X426954Y121896D01*
X428797Y118704D01*
X431404Y116097D01*
X434596Y114254D01*
X438157Y113300D01*
X441843D01*
X445404Y114254D01*
X448596Y116097D01*
X451023Y118524D01*
X451156Y118554D01*
X451549Y118614D01*
X452947Y118720D01*
X453789Y118733D01*
X453840Y118744D01*
X473831D01*
X476441Y119088D01*
X478874Y120096D01*
X480963Y121699D01*
X487132Y127868D01*
X498840Y139576D01*
X498883Y139604D01*
X500002Y140684D01*
X502118Y142504D01*
X503003Y143164D01*
X503866Y143738D01*
X504656Y144195D01*
X505364Y144541D01*
X505984Y144785D01*
X506510Y144939D01*
X507222Y145071D01*
X507603Y145224D01*
X509375Y145576D01*
X512105Y146707D01*
X514562Y148349D01*
X516651Y150438D01*
X518293Y152895D01*
X519423Y155625D01*
X519776Y157397D01*
X519929Y157778D01*
X520061Y158490D01*
X520215Y159016D01*
X520459Y159636D01*
X520805Y160344D01*
X521262Y161134D01*
X521836Y161997D01*
X522496Y162882D01*
X524316Y164998D01*
X525396Y166117D01*
X525424Y166160D01*
X552132Y192868D01*
X553735Y194957D01*
X554743Y197390D01*
X555086Y200000D01*
Y214477D01*
X555458Y214902D01*
X590000D01*
X591951Y215290D01*
X593605Y216395D01*
X598605Y221395D01*
X599710Y223049D01*
X600098Y225000D01*
Y245000D01*
X599710Y246951D01*
X598605Y248605D01*
X593605Y253605D01*
X591951Y254710D01*
X590000Y255098D01*
X557112D01*
X543288Y268922D01*
X543222Y269041D01*
X543303Y270645D01*
X543333Y270673D01*
X543829Y271100D01*
X544312Y271466D01*
X544759Y271758D01*
X545168Y271983D01*
X545539Y272148D01*
X545873Y272265D01*
X546180Y272340D01*
X546466Y272382D01*
X546995Y272408D01*
X547103Y272435D01*
X555037D01*
X555173Y272404D01*
X555898Y272384D01*
X556377Y272340D01*
X556745Y272279D01*
X557001Y272215D01*
X557090Y272183D01*
X557112Y272151D01*
X557385Y271880D01*
X558349Y270438D01*
X560438Y268349D01*
X562895Y266707D01*
X565625Y265576D01*
X568523Y265000D01*
X571477D01*
X574375Y265576D01*
X577105Y266707D01*
X579562Y268349D01*
X581651Y270438D01*
X583293Y272895D01*
X584423Y275625D01*
X585000Y278523D01*
Y281477D01*
X584423Y284375D01*
X583293Y287105D01*
X581651Y289562D01*
X579562Y291651D01*
X577105Y293293D01*
X574375Y294424D01*
X571477Y295000D01*
X568523D01*
X565625Y294424D01*
X562895Y293293D01*
X560438Y291651D01*
X558349Y289562D01*
X557385Y288120D01*
X557112Y287849D01*
X557090Y287817D01*
X557001Y287785D01*
X556745Y287721D01*
X556377Y287660D01*
X555898Y287616D01*
X555173Y287596D01*
X555037Y287565D01*
X547103D01*
X546995Y287592D01*
X546466Y287618D01*
X546180Y287660D01*
X545873Y287735D01*
X545539Y287852D01*
X545168Y288017D01*
X544759Y288242D01*
X544312Y288534D01*
X543829Y288900D01*
X543312Y289345D01*
X542671Y289965D01*
X542286Y290213D01*
X541296Y291203D01*
X538104Y293046D01*
X534543Y294000D01*
X530857D01*
X527296Y293046D01*
X524104Y291203D01*
X521497Y288596D01*
X520635Y287103D01*
X519365D01*
X518503Y288596D01*
X515896Y291203D01*
X512704Y293046D01*
X509143Y294000D01*
X505457D01*
X501896Y293046D01*
X498704Y291203D01*
X497714Y290213D01*
X497329Y289965D01*
X496688Y289345D01*
X496171Y288900D01*
X495688Y288534D01*
X495241Y288242D01*
X494832Y288017D01*
X494461Y287852D01*
X494127Y287735D01*
X493821Y287660D01*
X493746Y287649D01*
X493623Y287660D01*
X493255Y287721D01*
X492999Y287785D01*
X492910Y287817D01*
X492888Y287848D01*
X492615Y288120D01*
X491651Y289562D01*
X489562Y291651D01*
X487105Y293293D01*
X484375Y294424D01*
X481477Y295000D01*
X478523D01*
X475625Y294424D01*
X472895Y293293D01*
X470438Y291651D01*
X468349Y289562D01*
X466707Y287105D01*
X465577Y284375D01*
X465243Y282698D01*
X465217Y282645D01*
X463776Y281833D01*
X461521Y282438D01*
X458230D01*
X455051Y281586D01*
X452200Y279940D01*
X449873Y277613D01*
X448227Y274762D01*
X447389Y271634D01*
X447373Y271581D01*
X447086Y271378D01*
X446105Y271027D01*
X445235Y271550D01*
X444435Y272081D01*
X443867Y272511D01*
X443770Y272596D01*
X440987Y275987D01*
X437561Y278799D01*
X433838Y280788D01*
X433293Y282105D01*
X431651Y284562D01*
X429562Y286651D01*
X427105Y288293D01*
X424375Y289424D01*
X421477Y290000D01*
X418523D01*
X415625Y289424D01*
X412895Y288293D01*
X410438Y286651D01*
X408349Y284562D01*
X406707Y282105D01*
X405577Y279375D01*
X405000Y276477D01*
Y273523D01*
X405577Y270625D01*
X406707Y267895D01*
X408349Y265438D01*
X410438Y263349D01*
X412895Y261707D01*
X415625Y260576D01*
X418523Y260000D01*
X421477D01*
X424375Y260576D01*
X426230Y261345D01*
X427500Y260496D01*
Y258354D01*
X428352Y255175D01*
X429997Y252325D01*
X432325Y249998D01*
X435175Y248352D01*
X438354Y247500D01*
X441646D01*
X444825Y248352D01*
X447675Y249998D01*
X450003Y252325D01*
X451648Y255175D01*
X452486Y258304D01*
X452555Y258524D01*
X453600Y259127D01*
X455051Y258290D01*
X458230Y257438D01*
X459275D01*
X460587Y256293D01*
X461081Y255805D01*
X461129Y255773D01*
X464034Y252868D01*
X466123Y251265D01*
X468556Y250257D01*
X471166Y249914D01*
X504902D01*
Y240000D01*
X505290Y238049D01*
X506395Y236395D01*
X526395Y216395D01*
X528049Y215290D01*
X530000Y214902D01*
X534914D01*
Y204178D01*
X511160Y180424D01*
X511117Y180396D01*
X509998Y179316D01*
X507882Y177496D01*
X506997Y176836D01*
X506134Y176262D01*
X505344Y175805D01*
X504636Y175459D01*
X504016Y175215D01*
X503490Y175061D01*
X502778Y174929D01*
X502397Y174776D01*
X500625Y174424D01*
X497895Y173293D01*
X495438Y171651D01*
X493349Y169562D01*
X491707Y167105D01*
X490577Y164375D01*
X490224Y162603D01*
X490071Y162222D01*
X489939Y161510D01*
X489785Y160984D01*
X489541Y160364D01*
X489195Y159656D01*
X488738Y158866D01*
X488164Y158003D01*
X487504Y157118D01*
X485684Y155002D01*
X484604Y153883D01*
X484576Y153840D01*
X472868Y142132D01*
X469653Y138917D01*
X457786D01*
X457300Y140090D01*
X493605Y176395D01*
X494710Y178049D01*
X495098Y180000D01*
Y210000D01*
X494710Y211951D01*
X493605Y213605D01*
X483605Y223605D01*
X481951Y224710D01*
X480000Y225098D01*
X435000D01*
X433049Y224710D01*
X431395Y223605D01*
X426395Y218605D01*
X426395Y218605D01*
X410173Y202383D01*
X409000Y202869D01*
Y203250D01*
X371000D01*
X370000Y203902D01*
Y206098D01*
X371000Y206750D01*
X371270Y206750D01*
X387500D01*
Y221750D01*
X390000D01*
Y224250D01*
X409000D01*
Y232973D01*
X409562Y233349D01*
X411651Y235438D01*
X413293Y237895D01*
X414423Y240625D01*
X414797Y242500D01*
X400000D01*
Y245000D01*
D01*
Y242500D01*
X385203D01*
X385576Y240625D01*
X386655Y238020D01*
X386337Y237147D01*
X386125Y236750D01*
X371270D01*
X371000Y236750D01*
X370000Y237402D01*
Y300000D01*
X369895D01*
Y319060D01*
X371069Y319547D01*
X372018Y318597D01*
D02*
G37*
G36*
X439796Y269382D02*
X440032Y269119D01*
X440318Y268841D01*
X440656Y268549D01*
X441483Y267922D01*
X442512Y267239D01*
X443744Y266499D01*
X433578Y263874D01*
X433927Y264484D01*
X434447Y265590D01*
X434617Y266086D01*
X434727Y266544D01*
X434777Y266964D01*
X434767Y267346D01*
X434697Y267690D01*
X434568Y267996D01*
X434379Y268264D01*
X439611Y269632D01*
X439796Y269382D01*
D02*
G37*
G36*
X470492Y267745D02*
X464665Y259430D01*
X464058Y260030D01*
X461495Y262267D01*
X461248Y262412D01*
X461051Y262493D01*
X460906Y262509D01*
X467323Y270820D01*
X470492Y267745D01*
D02*
G37*
G36*
X128980Y259525D02*
X129363Y259100D01*
X129809Y258725D01*
X130317Y258400D01*
X130887Y258125D01*
X131521Y257900D01*
X132217Y257725D01*
X132976Y257600D01*
X133798Y257525D01*
X134682Y257500D01*
Y252500D01*
X133798Y252475D01*
X132976Y252400D01*
X132217Y252275D01*
X131521Y252100D01*
X130887Y251875D01*
X130317Y251600D01*
X129809Y251275D01*
X129363Y250900D01*
X128980Y250475D01*
X128660Y250000D01*
Y260000D01*
X128980Y259525D01*
D02*
G37*
G36*
X408299Y239360D02*
X408124Y238951D01*
X408024Y238583D01*
X407997Y238257D01*
X408045Y237971D01*
X408167Y237728D01*
X408363Y237525D01*
X408633Y237363D01*
X408978Y237243D01*
X409396Y237164D01*
X404051Y233771D01*
X403631Y233996D01*
X402787Y234379D01*
X402363Y234536D01*
X401508Y234782D01*
X401078Y234871D01*
X400214Y234981D01*
X399779Y235002D01*
X408548Y239810D01*
X408299Y239360D01*
D02*
G37*
G36*
X70507Y220115D02*
X70605Y220087D01*
X70645Y220042D01*
X70625Y219981D01*
X75625Y218268D01*
X75687Y218298D01*
X75779Y218283D01*
X75902Y218221D01*
X76054Y218113D01*
X76237Y217959D01*
X76449Y217759D01*
X77268Y216882D01*
X77601Y216498D01*
X68173Y219832D01*
X68683Y219923D01*
X70350Y220126D01*
X70507Y220115D01*
D02*
G37*
G36*
X524104Y268797D02*
X527296Y266954D01*
X530857Y266000D01*
X534543D01*
X538058Y266942D01*
X555000Y250000D01*
X590000D01*
X595000Y245000D01*
Y225000D01*
X590000Y220000D01*
X553147D01*
X550621Y217117D01*
X550276Y216551D01*
X550069Y216095D01*
X550000Y215747D01*
X547070Y218677D01*
X545000Y215750D01*
X540000D01*
X542293Y220000D01*
X530000D01*
X510000Y240000D01*
Y265000D01*
X511680Y266680D01*
X512704Y266954D01*
X515896Y268797D01*
X517099Y270000D01*
X522901D01*
X524104Y268797D01*
D02*
G37*
G36*
X45693Y213847D02*
X47109Y211895D01*
X47436Y211518D01*
X48055Y210898D01*
X48348Y210655D01*
X48630Y210456D01*
X40409Y208730D01*
X40679Y209187D01*
X40879Y209644D01*
X41010Y210100D01*
X41070Y210557D01*
X41061Y211013D01*
X40982Y211470D01*
X40834Y211926D01*
X40616Y212382D01*
X40328Y212839D01*
X39970Y213295D01*
X45311Y214447D01*
X45693Y213847D01*
D02*
G37*
G36*
X50080Y201564D02*
X49875Y201110D01*
X49737Y200654D01*
X49667Y200196D01*
X49665Y199736D01*
X49731Y199274D01*
X49866Y198810D01*
X50068Y198343D01*
X50338Y197875D01*
X50677Y197404D01*
X45366Y196334D01*
X45004Y196935D01*
X43638Y198903D01*
X43317Y199286D01*
X42700Y199920D01*
X42403Y200171D01*
X42115Y200379D01*
X50354Y202015D01*
X50080Y201564D01*
D02*
G37*
G36*
X126678Y194456D02*
X126274Y195002D01*
X125828Y195494D01*
X125338Y195932D01*
X124805Y196317D01*
X124229Y196646D01*
X123610Y196922D01*
X122948Y197145D01*
X122243Y197312D01*
X121495Y197426D01*
X120704Y197486D01*
X120228Y202499D01*
X121155Y202509D01*
X122778Y202653D01*
X123475Y202785D01*
X124094Y202958D01*
X124636Y203172D01*
X125102Y203427D01*
X125491Y203722D01*
X125802Y204058D01*
X126037Y204435D01*
X126678Y194456D01*
D02*
G37*
G36*
X141471Y192307D02*
X141236Y191913D01*
X141061Y191457D01*
X140947Y190939D01*
X140894Y190358D01*
X140901Y189715D01*
X140969Y189010D01*
X141286Y187411D01*
X141535Y186519D01*
X136589Y185572D01*
X136310Y186315D01*
X135992Y187001D01*
X135633Y187631D01*
X135235Y188204D01*
X134796Y188721D01*
X134318Y189182D01*
X133800Y189585D01*
X133243Y189933D01*
X132645Y190224D01*
X132008Y190458D01*
X141767Y192638D01*
X141471Y192307D01*
D02*
G37*
G36*
X17172Y174708D02*
X16787Y174907D01*
X16107Y175210D01*
X15813Y175315D01*
X15549Y175389D01*
X15316Y175432D01*
X15113Y175444D01*
X14940Y175425D01*
X14798Y175374D01*
X14686Y175293D01*
X13141Y180450D01*
X13269Y180546D01*
X13401Y180667D01*
X13536Y180815D01*
X13674Y180987D01*
X13816Y181185D01*
X14109Y181658D01*
X14415Y182234D01*
X14573Y182560D01*
X17172Y174708D01*
D02*
G37*
G36*
X521730Y169659D02*
X520547Y168435D01*
X518515Y166072D01*
X517666Y164933D01*
X516929Y163824D01*
X516303Y162744D01*
X515789Y161692D01*
X515387Y160669D01*
X515096Y159675D01*
X514916Y158710D01*
X503710Y169916D01*
X504675Y170096D01*
X505669Y170387D01*
X506692Y170789D01*
X507744Y171304D01*
X508824Y171929D01*
X509934Y172666D01*
X511072Y173515D01*
X513435Y175547D01*
X514659Y176730D01*
X521730Y169659D01*
D02*
G37*
G36*
X112525Y148798D02*
X112600Y147976D01*
X112725Y147217D01*
X112900Y146521D01*
X113125Y145887D01*
X113400Y145317D01*
X113725Y144809D01*
X114100Y144363D01*
X114525Y143980D01*
X115000Y143660D01*
X105000D01*
X105475Y143980D01*
X105900Y144363D01*
X106275Y144809D01*
X106600Y145317D01*
X106875Y145887D01*
X107100Y146521D01*
X107275Y147217D01*
X107400Y147976D01*
X107475Y148798D01*
X107500Y149683D01*
X112500D01*
X112525Y148798D01*
D02*
G37*
G36*
X49981Y149109D02*
X49510Y149071D01*
X49088Y148919D01*
X48716Y148654D01*
X48393Y148274D01*
X48120Y147781D01*
X47897Y147173D01*
X47723Y146452D01*
X47599Y145617D01*
X47525Y144668D01*
X47500Y143605D01*
X42500D01*
X42478Y144415D01*
X42411Y145176D01*
X42300Y145887D01*
X42145Y146549D01*
X41946Y147162D01*
X41702Y147725D01*
X41413Y148238D01*
X41081Y148702D01*
X40704Y149117D01*
X40282Y149482D01*
X49981Y149109D01*
D02*
G37*
G36*
X506290Y150084D02*
X505325Y149904D01*
X504331Y149613D01*
X503308Y149211D01*
X502256Y148696D01*
X501176Y148071D01*
X500066Y147334D01*
X498928Y146485D01*
X496566Y144453D01*
X495341Y143270D01*
X488270Y150341D01*
X489453Y151565D01*
X491485Y153928D01*
X492334Y155066D01*
X493071Y156176D01*
X493697Y157256D01*
X494211Y158308D01*
X494613Y159331D01*
X494904Y160325D01*
X495084Y161290D01*
X506290Y150084D01*
D02*
G37*
G36*
X490000Y210000D02*
Y180000D01*
X450000Y140000D01*
X446003D01*
X445404Y140346D01*
X441843Y141300D01*
X438157D01*
X434596Y140346D01*
X433997Y140000D01*
X380000D01*
X370000Y150000D01*
Y185000D01*
X380000Y195000D01*
X410000Y195000D01*
X430000Y215000D01*
X435000Y220000D01*
X480000D01*
X490000Y210000D01*
D02*
G37*
G36*
X47525Y138798D02*
X47600Y137976D01*
X47725Y137217D01*
X47900Y136521D01*
X48125Y135887D01*
X48400Y135317D01*
X48725Y134809D01*
X49100Y134363D01*
X49525Y133980D01*
X50000Y133660D01*
X40000D01*
X40475Y133980D01*
X40900Y134363D01*
X41275Y134809D01*
X41600Y135317D01*
X41875Y135887D01*
X42100Y136521D01*
X42275Y137217D01*
X42400Y137976D01*
X42475Y138798D01*
X42500Y139682D01*
X47500D01*
X47525Y138798D01*
D02*
G37*
G36*
X445518Y134455D02*
X445858Y134324D01*
X446281Y134208D01*
X446788Y134108D01*
X447379Y134023D01*
X448813Y133900D01*
X451593Y133831D01*
X453704Y123831D01*
X452712Y123814D01*
X450969Y123683D01*
X450219Y123567D01*
X449548Y123419D01*
X448959Y123238D01*
X448450Y123024D01*
X448021Y122777D01*
X447673Y122498D01*
X447405Y122185D01*
X445262Y134601D01*
X445518Y134455D01*
D02*
G37*
G36*
X574282Y73873D02*
X574632Y73434D01*
X575050Y73046D01*
X575534Y72710D01*
X576085Y72426D01*
X576702Y72194D01*
X577387Y72013D01*
X578138Y71884D01*
X578956Y71806D01*
X579840Y71780D01*
X579467Y66780D01*
X578583Y66756D01*
X577758Y66685D01*
X576991Y66565D01*
X576284Y66398D01*
X575635Y66183D01*
X575046Y65920D01*
X574515Y65609D01*
X574044Y65250D01*
X573631Y64844D01*
X573278Y64390D01*
X573998Y74364D01*
X574282Y73873D01*
D02*
G37*
G36*
X565759Y60029D02*
X565211Y59957D01*
X564652Y59826D01*
X564084Y59633D01*
X563506Y59381D01*
X562917Y59068D01*
X562318Y58695D01*
X561710Y58262D01*
X561090Y57769D01*
X559822Y56600D01*
X554992Y58842D01*
X555600Y59487D01*
X556112Y60112D01*
X556527Y60716D01*
X556847Y61298D01*
X557070Y61860D01*
X557197Y62402D01*
X557228Y62922D01*
X557163Y63421D01*
X557002Y63900D01*
X556744Y64357D01*
X565759Y60029D01*
D02*
G37*
%LPC*%
G36*
X382500Y443789D02*
Y433500D01*
X392789D01*
X392114Y436018D01*
X390403Y438982D01*
X387982Y441403D01*
X385018Y443114D01*
X382500Y443789D01*
D02*
G37*
G36*
X392789Y428500D02*
X382500D01*
Y418211D01*
X385018Y418886D01*
X387982Y420597D01*
X390403Y423018D01*
X392114Y425982D01*
X392789Y428500D01*
D02*
G37*
G36*
X402500Y259797D02*
Y247500D01*
X414797D01*
X414423Y249375D01*
X413293Y252105D01*
X411651Y254562D01*
X409562Y256651D01*
X407105Y258293D01*
X404375Y259424D01*
X402500Y259797D01*
D02*
G37*
G36*
X397500D02*
X395625Y259424D01*
X392895Y258293D01*
X390438Y256651D01*
X388349Y254562D01*
X386707Y252105D01*
X385576Y249375D01*
X385203Y247500D01*
X397500D01*
Y259797D01*
D02*
G37*
G36*
X652068Y251000D02*
X647932D01*
X643875Y250193D01*
X640053Y248610D01*
X636613Y246312D01*
X633688Y243387D01*
X631390Y239947D01*
X629807Y236126D01*
X629000Y232068D01*
Y227932D01*
X629807Y223874D01*
X631390Y220053D01*
X633688Y216613D01*
X636613Y213688D01*
X640053Y211390D01*
X643875Y209807D01*
X647932Y209000D01*
X652068D01*
X656125Y209807D01*
X659947Y211390D01*
X663387Y213688D01*
X666312Y216613D01*
X668610Y220053D01*
X670193Y223874D01*
X671000Y227932D01*
Y232068D01*
X670193Y236126D01*
X668610Y239947D01*
X666312Y243387D01*
X663387Y246312D01*
X659947Y248610D01*
X656125Y250193D01*
X652068Y251000D01*
D02*
G37*
G36*
X409000Y219250D02*
X392500D01*
Y206750D01*
X409000D01*
Y219250D01*
D02*
G37*
G36*
X647612Y173000D02*
X644189D01*
X640882Y172114D01*
X637918Y170403D01*
X635498Y167982D01*
X633786Y165018D01*
X632900Y161712D01*
Y158288D01*
X633786Y154982D01*
X635498Y152018D01*
X637918Y149597D01*
X640882Y147886D01*
X644189Y147000D01*
X647612D01*
X650918Y147886D01*
X653882Y149597D01*
X656303Y152018D01*
X658014Y154982D01*
X658900Y158288D01*
Y161712D01*
X658014Y165018D01*
X656303Y167982D01*
X653882Y170403D01*
X650918Y172114D01*
X647612Y173000D01*
D02*
G37*
G36*
X403000Y117600D02*
X392500D01*
Y107100D01*
X403000D01*
Y117600D01*
D02*
G37*
G36*
X387500D02*
X377000D01*
Y107100D01*
X387500D01*
Y117600D01*
D02*
G37*
G36*
X647612Y123000D02*
X644189D01*
X640882Y122114D01*
X637918Y120403D01*
X635498Y117982D01*
X633786Y115018D01*
X632900Y111712D01*
Y108288D01*
X633786Y104982D01*
X635498Y102018D01*
X637918Y99597D01*
X640882Y97886D01*
X644189Y97000D01*
X647612D01*
X650918Y97886D01*
X653882Y99597D01*
X656303Y102018D01*
X658014Y104982D01*
X658900Y108288D01*
Y111712D01*
X658014Y115018D01*
X656303Y117982D01*
X653882Y120403D01*
X650918Y122114D01*
X647612Y123000D01*
D02*
G37*
G36*
X403000Y102100D02*
X392500D01*
Y91600D01*
X403000D01*
Y102100D01*
D02*
G37*
G36*
X387500D02*
X377000D01*
Y91600D01*
X387500D01*
Y102100D01*
D02*
G37*
G36*
X482500Y63130D02*
Y57500D01*
X488130D01*
X487921Y58281D01*
X486802Y60219D01*
X485219Y61802D01*
X483281Y62921D01*
X482500Y63130D01*
D02*
G37*
G36*
X477500D02*
X476719Y62921D01*
X474781Y61802D01*
X473198Y60219D01*
X472079Y58281D01*
X471870Y57500D01*
X477500D01*
Y63130D01*
D02*
G37*
G36*
X462500D02*
Y57500D01*
X468130D01*
X467921Y58281D01*
X466802Y60219D01*
X465219Y61802D01*
X463281Y62921D01*
X462500Y63130D01*
D02*
G37*
G36*
X457500D02*
X456719Y62921D01*
X454781Y61802D01*
X453198Y60219D01*
X452079Y58281D01*
X451870Y57500D01*
X457500D01*
Y63130D01*
D02*
G37*
G36*
X442500D02*
Y57500D01*
X448130D01*
X447921Y58281D01*
X446802Y60219D01*
X445219Y61802D01*
X443281Y62921D01*
X442500Y63130D01*
D02*
G37*
G36*
X437500D02*
X436719Y62921D01*
X434781Y61802D01*
X433198Y60219D01*
X432079Y58281D01*
X431870Y57500D01*
X437500D01*
Y63130D01*
D02*
G37*
G36*
X488130Y52500D02*
X482500D01*
Y46870D01*
X483281Y47079D01*
X485219Y48198D01*
X486802Y49781D01*
X487921Y51719D01*
X488130Y52500D01*
D02*
G37*
G36*
X477500D02*
X471870D01*
X472079Y51719D01*
X473198Y49781D01*
X474781Y48198D01*
X476719Y47079D01*
X477500Y46870D01*
Y52500D01*
D02*
G37*
G36*
X468130D02*
X462500D01*
Y46870D01*
X463281Y47079D01*
X465219Y48198D01*
X466802Y49781D01*
X467921Y51719D01*
X468130Y52500D01*
D02*
G37*
G36*
X457500D02*
X451870D01*
X452079Y51719D01*
X453198Y49781D01*
X454781Y48198D01*
X456719Y47079D01*
X457500Y46870D01*
Y52500D01*
D02*
G37*
G36*
X448130D02*
X442500D01*
Y46870D01*
X443281Y47079D01*
X445219Y48198D01*
X446802Y49781D01*
X447921Y51719D01*
X448130Y52500D01*
D02*
G37*
G36*
X437500D02*
X431870D01*
X432079Y51719D01*
X433198Y49781D01*
X434781Y48198D01*
X436719Y47079D01*
X437500Y46870D01*
Y52500D01*
D02*
G37*
G36*
X496477Y50000D02*
X493523D01*
X490625Y49423D01*
X487895Y48293D01*
X485438Y46651D01*
X483349Y44562D01*
X481707Y42105D01*
X480577Y39375D01*
X480000Y36477D01*
Y35449D01*
X479908Y35071D01*
X479896Y34788D01*
X479891Y34759D01*
X479868Y34673D01*
X479813Y34523D01*
X479710Y34308D01*
X479550Y34031D01*
X479366Y33759D01*
X478951Y33251D01*
X477719Y32921D01*
X475781Y31802D01*
X474198Y30219D01*
X473079Y28281D01*
X472500Y26119D01*
Y23881D01*
X473079Y21719D01*
X474198Y19781D01*
X475781Y18198D01*
X477719Y17079D01*
X479881Y16500D01*
X482119D01*
X484281Y17079D01*
X486219Y18198D01*
X487802Y19781D01*
X488704Y21343D01*
X488727Y21362D01*
X490625Y20577D01*
X493523Y20000D01*
X496477D01*
X499375Y20577D01*
X502105Y21707D01*
X504562Y23349D01*
X506651Y25438D01*
X508293Y27895D01*
X509423Y30625D01*
X510000Y33523D01*
Y36477D01*
X509423Y39375D01*
X508293Y42105D01*
X506651Y44562D01*
X504562Y46651D01*
X502105Y48293D01*
X499375Y49423D01*
X496477Y50000D01*
D02*
G37*
%LPD*%
G36*
X490128Y26267D02*
X489634Y26492D01*
X489123Y26624D01*
X488595Y26664D01*
X488051Y26612D01*
X487489Y26467D01*
X486912Y26229D01*
X486317Y25899D01*
X485705Y25477D01*
X485077Y24962D01*
X484432Y24355D01*
X481822Y28816D01*
X482433Y29456D01*
X483461Y30712D01*
X483876Y31328D01*
X484227Y31936D01*
X484512Y32535D01*
X484732Y33127D01*
X484887Y33710D01*
X484977Y34286D01*
X485001Y34853D01*
X490128Y26267D01*
D02*
G37*
%LPC*%
G36*
X391712Y168400D02*
X388288D01*
X384982Y167514D01*
X382018Y165803D01*
X379597Y163382D01*
X377886Y160418D01*
X377000Y157112D01*
Y153688D01*
X377886Y150382D01*
X379597Y147418D01*
X382018Y144997D01*
X384982Y143286D01*
X388288Y142400D01*
X391712D01*
X395018Y143286D01*
X397982Y144997D01*
X400403Y147418D01*
X402114Y150382D01*
X403000Y153688D01*
Y157112D01*
X402114Y160418D01*
X400403Y163382D01*
X397982Y165803D01*
X395018Y167514D01*
X391712Y168400D01*
D02*
G37*
%LPD*%
D15*
X61953Y73640D02*
G03*
X55000Y75000I-6952J-17097D01*
G01*
X73453Y57819D02*
G03*
X73443Y57267I4986J-375D01*
G01*
X73453Y57819D02*
G03*
X62467Y73466I-14954J1181D01*
G01*
X73457Y56543D02*
G03*
X73443Y57267I-18457J0D01*
G01*
X70000Y45000D02*
G03*
X65000Y40000I0J-5000D01*
G01*
X70000Y45000D02*
G03*
X73457Y48457I0J3457D01*
G01*
X61953Y73640D02*
G03*
X62467Y73466I1860J4641D01*
G01*
X65000Y29985D02*
G03*
X85000Y10000I20000J14D01*
G01*
X45800Y155000D02*
G03*
X45400Y154600I0J-400D01*
G01*
D02*
G03*
X45000Y154200I0J-400D01*
G01*
X175000Y75000D02*
G03*
X160000Y90000I-15000J0D01*
G01*
X140000Y110000D02*
G03*
X160000Y90000I20000J0D01*
G01*
X225000Y10000D02*
G03*
X250000Y35000I0J25000D01*
G01*
X140000Y180000D02*
G03*
X120000Y200000I-20000J0D01*
G01*
X155000Y205000D02*
G03*
X135000Y225000I-20000J0D01*
G01*
X20000Y180000D02*
G03*
X10000Y170000I0J-10000D01*
G01*
X95000Y90000D02*
G03*
X100000Y95000I0J5000D01*
G01*
X10000Y115000D02*
G03*
X35000Y90000I25000J0D01*
G01*
X45400Y205400D02*
G03*
X60800Y190000I15400J0D01*
G01*
X45400Y205400D02*
G03*
X30800Y220000I-14600J0D01*
G01*
X110000Y110000D02*
G03*
X130000Y130000I0J20000D01*
G01*
X75000Y125000D02*
G03*
X90000Y110000I15000J0D01*
G01*
X130000Y165000D02*
G03*
X105000Y190000I-25000J0D01*
G01*
X440000Y260000D02*
G03*
X425000Y275000I-15000J0D01*
G01*
X400000Y245000D02*
G03*
X410400Y234600I10400J0D01*
G01*
X85000Y225000D02*
G03*
X70000Y210000I0J-15000D01*
G01*
X45400Y175000D02*
G03*
X20000Y149600I0J-25400D01*
G01*
Y75000D02*
X55000D01*
X73457Y48457D02*
Y56543D01*
X65000Y29985D02*
Y40000D01*
X549850Y134750D02*
X574850D01*
X45000Y125000D02*
Y154200D01*
X45800Y155000D02*
X75000D01*
X380000Y329000D02*
X404000Y305000D01*
X580000D02*
X610000Y275000D01*
X404000Y305000D02*
X580000D01*
X85000Y10000D02*
X225000D01*
X175000Y25000D02*
Y75000D01*
X140000Y110000D02*
Y180000D01*
X249617Y34617D02*
X250000Y35000D01*
X120000Y255000D02*
X140000D01*
X549850Y105691D02*
X554924Y100617D01*
Y100076D02*
X565000Y90000D01*
X590000D01*
X549850Y105691D02*
Y109750D01*
X554924Y100076D02*
Y100617D01*
X590000Y90000D02*
X610000Y110000D01*
Y275000D01*
X568584Y68898D02*
X568898D01*
X597182Y69280D02*
X597565Y68898D01*
X569280Y69280D02*
X597182D01*
X553358Y53358D02*
Y53672D01*
X540000Y40000D02*
X553358Y53358D01*
X568898Y68898D02*
X569280Y69280D01*
X553358Y53672D02*
X568584Y68898D01*
X532700Y280000D02*
X570000D01*
X570429D01*
X155000Y145000D02*
Y205000D01*
X90000Y225000D02*
X135000D01*
X45400Y175000D02*
X110000D01*
Y135000D02*
Y175000D01*
X10000Y115000D02*
Y170000D01*
X35000Y90000D02*
X95000D01*
X100000Y95000D02*
Y98500D01*
X393142Y190831D02*
X401500Y192269D01*
X481541Y25000D02*
X493271Y36729D01*
X20000Y220000D02*
X30800D01*
X481000Y25000D02*
X481541D01*
X545000Y215750D02*
X566000Y236750D01*
X570000D01*
X480000Y280000D02*
X507300D01*
X75000Y125000D02*
Y126000D01*
X90000Y110000D02*
X110000D01*
X130000Y130000D02*
Y165000D01*
X60800Y190000D02*
X105000D01*
X420000Y275000D02*
X425000D01*
X410400Y234600D02*
X440000D01*
X85000Y225000D02*
X90000D01*
X20000Y145000D02*
Y149600D01*
Y145000D02*
X21000D01*
D61*
X480000Y135000D02*
X545000Y200000D01*
X441531Y128831D02*
X473831D01*
X480000Y135000D01*
X440000Y127300D02*
X441531Y128831D01*
X545000Y200000D02*
Y215750D01*
Y235000D01*
X471166Y260000D02*
X515000D01*
X459875Y269938D02*
X461228D01*
X471166Y260000D01*
D62*
X380000Y329000D02*
D03*
Y431000D02*
D03*
X634000Y380000D02*
D03*
X390000Y155400D02*
D03*
X339200Y130000D02*
D03*
Y155400D02*
D03*
D63*
X126000Y380000D02*
D03*
D64*
X440000Y209200D02*
D03*
Y260000D02*
D03*
Y234600D02*
D03*
X149500Y59000D02*
D03*
X58500Y59000D02*
D03*
X54000Y310500D02*
D03*
X54000Y401500D02*
D03*
X459875Y269938D02*
D03*
D65*
X390000Y104600D02*
D03*
D66*
X75000Y155000D02*
D03*
X135000Y200000D02*
D03*
X565000Y70000D02*
D03*
X120000Y255000D02*
D03*
X20000Y220000D02*
D03*
X70000Y210000D02*
D03*
X110000Y135000D02*
D03*
X45000Y125000D02*
D03*
X505000Y160000D02*
D03*
X480000Y280000D02*
D03*
X420000Y275000D02*
D03*
X400000Y245000D02*
D03*
X570000Y280000D02*
D03*
X415000Y145000D02*
D03*
X495000Y35000D02*
D03*
X574850Y134750D02*
D03*
X549850D02*
D03*
X120000Y40000D02*
D03*
X90000D02*
D03*
X35000Y340000D02*
D03*
Y370000D02*
D03*
X574850Y159750D02*
D03*
Y109750D02*
D03*
X549850D02*
D03*
D67*
X20000Y180000D02*
D03*
X45400Y205400D02*
D03*
D68*
Y154600D02*
D03*
D69*
X645900Y110000D02*
D03*
Y160000D02*
D03*
D70*
X549850Y159750D02*
D03*
D71*
X440000Y127300D02*
D03*
Y152700D02*
D03*
X532700Y280000D02*
D03*
X507300D02*
D03*
D72*
X175000Y25000D02*
D03*
X250000Y35000D02*
D03*
X140000Y255000D02*
D03*
X597565Y68898D02*
D03*
X155000Y145000D02*
D03*
X110000Y175000D02*
D03*
X100000Y98500D02*
D03*
X540000Y40000D02*
D03*
X440000Y55000D02*
D03*
X460000D02*
D03*
X480000D02*
D03*
X481000Y25000D02*
D03*
X75000Y126000D02*
D03*
X20000Y75000D02*
D03*
X120000Y200000D02*
D03*
X90000Y225000D02*
D03*
X21000Y145000D02*
D03*
D73*
X650000Y230000D02*
D03*
X30000Y30000D02*
D03*
Y430000D02*
D03*
D74*
X526500Y258250D02*
D03*
X473567Y201683D02*
D03*
D75*
X570000Y236750D02*
D03*
Y203250D02*
D03*
X390000Y188250D02*
D03*
Y221750D02*
D03*
M02*
