M48
;Layer_Color=9474304
;FILE_FORMAT=2:4
METRIC,LZ
;TYPE=PLATED
T1F00S00C0.3000
T2F00S00C0.6000
T3F00S00C0.7000
T4F00S00C0.8000
T5F00S00C1.0000
T6F00S00C1.0200
T7F00S00C1.1000
T8F00S00C1.2000
T9F00S00C1.5000
T10F00S00C1.6000
T11F00S00C3.2000
%
T01
X065Y03
X02Y075
X021Y145
X075Y126
X11Y175
X12Y2
X09Y225
X155Y14
X215Y175
X175Y06
X225Y015
X44Y055
X46
X48
X481Y025
X54Y04
X59Y065
T02
X02Y18
X0454Y2054
Y1546
T03
X459875Y269938
T04
X3392Y13
Y1554
X39
Y1046
T05
X44Y2092
Y2346
Y26
T06
X09Y04
X12
Y26
X09
T07
X44Y1273
Y1527
X5073Y28
X5327
T08
X47485Y10975
Y13475
X49985
Y10975
Y15975
X47485
T09
X0585Y059
X1495Y059
X1515Y241
X0605Y241
T10
X5709Y11
Y16
T11
X03Y03
Y27
X57
Y03
M30
