M48
;Layer_Color=9474304
;FILE_FORMAT=2:4
METRIC,LZ
;TYPE=PLATED
T1F00S00C0.3000
T2F00S00C0.6000
T3F00S00C0.7000
T4F00S00C0.8000
T5F00S00C1.0000
T6F00S00C1.0200
T7F00S00C1.1000
T8F00S00C1.2000
T9F00S00C1.5000
T10F00S00C1.6000
T11F00S00C3.2000
%
T01
X02Y075
X021Y145
X075Y126
X1Y0985
X11Y175
X12Y2
X09Y225
X14Y255
X155Y145
X175Y025
X25Y035
X44Y055
X46
X48
X481Y025
X54Y04
X597565Y068898
T02
X02Y18
X0454Y2054
Y1546
T03
X459875Y269938
T04
X3392Y13
Y1554
X39
Y1046
X38Y329
X126Y38
X634
X38Y431
T05
X44Y2092
Y2346
Y26
T06
X09Y04
X12
X035Y34
Y37
T07
X44Y1273
Y1527
X5073Y28
X5327
T08
X54985Y10975
Y13475
X57485
Y10975
Y15975
X54985
T09
X0585Y059
X1495Y059
X054Y3105
X054Y4015
T10
X6459Y11
Y16
T11
X03Y03
X65Y23
X03Y43
M30
