G04*
G04 #@! TF.GenerationSoftware,Altium Limited,Altium Designer,23.9.2 (47)*
G04*
G04 Layer_Color=128*
%FSLAX44Y44*%
%MOMM*%
G71*
G04*
G04 #@! TF.SameCoordinates,03A059A7-E9F3-429E-8F7F-F25B64704540*
G04*
G04*
G04 #@! TF.FilePolarity,Positive*
G04*
G01*
G75*
%ADD14C,2.3000*%
%ADD18R,1.4500X1.6500*%
%ADD19R,1.6500X1.4500*%
%ADD20R,1.6000X1.2000*%
G04:AMPARAMS|DCode=24|XSize=1.6mm|YSize=1.4mm|CornerRadius=0.425mm|HoleSize=0mm|Usage=FLASHONLY|Rotation=270.000|XOffset=0mm|YOffset=0mm|HoleType=Round|Shape=RoundedRectangle|*
%AMROUNDEDRECTD24*
21,1,1.6000,0.5500,0,0,270.0*
21,1,0.7500,1.4000,0,0,270.0*
1,1,0.8500,-0.2750,-0.3750*
1,1,0.8500,-0.2750,0.3750*
1,1,0.8500,0.2750,0.3750*
1,1,0.8500,0.2750,-0.3750*
%
%ADD24ROUNDEDRECTD24*%
%ADD25R,1.5500X1.8500*%
G04:AMPARAMS|DCode=28|XSize=0.9mm|YSize=1.75mm|CornerRadius=0.201mm|HoleSize=0mm|Usage=FLASHONLY|Rotation=90.000|XOffset=0mm|YOffset=0mm|HoleType=Round|Shape=RoundedRectangle|*
%AMROUNDEDRECTD28*
21,1,0.9000,1.3480,0,0,90.0*
21,1,0.4980,1.7500,0,0,90.0*
1,1,0.4020,0.6740,0.2490*
1,1,0.4020,0.6740,-0.2490*
1,1,0.4020,-0.6740,-0.2490*
1,1,0.4020,-0.6740,0.2490*
%
%ADD28ROUNDEDRECTD28*%
G04:AMPARAMS|DCode=104|XSize=0.9mm|YSize=1.75mm|CornerRadius=0.3mm|HoleSize=0mm|Usage=FLASHONLY|Rotation=90.000|XOffset=0mm|YOffset=0mm|HoleType=Round|Shape=RoundedRectangle|*
%AMROUNDEDRECTD104*
21,1,0.9000,1.1500,0,0,90.0*
21,1,0.3000,1.7500,0,0,90.0*
1,1,0.6000,0.5750,0.1500*
1,1,0.6000,0.5750,-0.1500*
1,1,0.6000,-0.5750,-0.1500*
1,1,0.6000,-0.5750,0.1500*
%
%ADD104ROUNDEDRECTD104*%
G04:AMPARAMS|DCode=105|XSize=0.95mm|YSize=1.55mm|CornerRadius=0.3125mm|HoleSize=0mm|Usage=FLASHONLY|Rotation=270.000|XOffset=0mm|YOffset=0mm|HoleType=Round|Shape=RoundedRectangle|*
%AMROUNDEDRECTD105*
21,1,0.9500,0.9250,0,0,270.0*
21,1,0.3250,1.5500,0,0,270.0*
1,1,0.6250,-0.4625,-0.1625*
1,1,0.6250,-0.4625,0.1625*
1,1,0.6250,0.4625,0.1625*
1,1,0.6250,0.4625,-0.1625*
%
%ADD105ROUNDEDRECTD105*%
%ADD106R,1.2000X1.6000*%
G04:AMPARAMS|DCode=107|XSize=0.95mm|YSize=1.55mm|CornerRadius=0.3125mm|HoleSize=0mm|Usage=FLASHONLY|Rotation=180.000|XOffset=0mm|YOffset=0mm|HoleType=Round|Shape=RoundedRectangle|*
%AMROUNDEDRECTD107*
21,1,0.9500,0.9250,0,0,180.0*
21,1,0.3250,1.5500,0,0,180.0*
1,1,0.6250,-0.1625,0.4625*
1,1,0.6250,0.1625,0.4625*
1,1,0.6250,0.1625,-0.4625*
1,1,0.6250,-0.1625,-0.4625*
%
%ADD107ROUNDEDRECTD107*%
%ADD108R,1.8500X1.5500*%
%ADD109R,4.8000X5.9000*%
G04:AMPARAMS|DCode=110|XSize=1.4mm|YSize=1.2mm|CornerRadius=0.375mm|HoleSize=0mm|Usage=FLASHONLY|Rotation=270.000|XOffset=0mm|YOffset=0mm|HoleType=Round|Shape=RoundedRectangle|*
%AMROUNDEDRECTD110*
21,1,1.4000,0.4500,0,0,270.0*
21,1,0.6500,1.2000,0,0,270.0*
1,1,0.7500,-0.2250,-0.3250*
1,1,0.7500,-0.2250,0.3250*
1,1,0.7500,0.2250,0.3250*
1,1,0.7500,0.2250,-0.3250*
%
%ADD110ROUNDEDRECTD110*%
%ADD111R,1.8000X3.8000*%
D14*
X217500Y652500D02*
D03*
X572500Y737500D02*
D03*
X755000Y412500D02*
D03*
X812500Y377500D02*
D03*
X492500Y492500D02*
D03*
X490000Y455000D02*
D03*
X507500Y532500D02*
D03*
X667500Y407500D02*
D03*
X632500D02*
D03*
X377500Y422500D02*
D03*
X222500Y460000D02*
D03*
X152500Y327500D02*
D03*
X110000Y352500D02*
D03*
X570500Y361580D02*
D03*
X420000Y340000D02*
D03*
X520000Y362500D02*
D03*
X672500Y317500D02*
D03*
D18*
X354250Y472500D02*
D03*
X335750D02*
D03*
X650750Y537500D02*
D03*
X669250D02*
D03*
X244000Y502500D02*
D03*
X262500D02*
D03*
X801750Y552500D02*
D03*
X783250D02*
D03*
X354250Y440000D02*
D03*
X335750D02*
D03*
X248250Y650000D02*
D03*
X266750D02*
D03*
D19*
X195000Y313250D02*
D03*
Y331750D02*
D03*
X942500Y296750D02*
D03*
Y278250D02*
D03*
X887500Y238250D02*
D03*
Y256750D02*
D03*
X750000Y529250D02*
D03*
Y510750D02*
D03*
X145000Y441750D02*
D03*
Y423250D02*
D03*
D20*
X750000Y489500D02*
D03*
Y470500D02*
D03*
X802500Y449500D02*
D03*
Y430500D02*
D03*
X207500Y624500D02*
D03*
Y605500D02*
D03*
X229206Y624505D02*
D03*
Y605505D02*
D03*
X145000Y394500D02*
D03*
Y375500D02*
D03*
D24*
X522500Y590000D02*
D03*
X557500D02*
D03*
D25*
X310707Y388293D02*
D03*
X289707D02*
D03*
X105500Y377500D02*
D03*
X84500D02*
D03*
D28*
X362250Y303100D02*
D03*
Y290400D02*
D03*
Y277700D02*
D03*
Y265000D02*
D03*
Y252300D02*
D03*
Y239600D02*
D03*
Y226900D02*
D03*
X307750Y303100D02*
D03*
Y290400D02*
D03*
Y277700D02*
D03*
Y265000D02*
D03*
Y252300D02*
D03*
Y239600D02*
D03*
Y226900D02*
D03*
X407750Y431900D02*
D03*
Y444600D02*
D03*
Y457300D02*
D03*
Y470000D02*
D03*
Y482700D02*
D03*
Y495400D02*
D03*
Y508100D02*
D03*
X462250Y431900D02*
D03*
Y444600D02*
D03*
Y457300D02*
D03*
Y470000D02*
D03*
Y482700D02*
D03*
Y495400D02*
D03*
Y508100D02*
D03*
X409500Y738100D02*
D03*
Y725400D02*
D03*
Y712700D02*
D03*
Y700000D02*
D03*
Y687300D02*
D03*
Y674600D02*
D03*
Y661900D02*
D03*
X355000Y738100D02*
D03*
Y725400D02*
D03*
Y712700D02*
D03*
Y700000D02*
D03*
Y687300D02*
D03*
Y674600D02*
D03*
Y661900D02*
D03*
X520250Y431900D02*
D03*
Y444600D02*
D03*
Y457300D02*
D03*
Y470000D02*
D03*
Y482700D02*
D03*
Y495400D02*
D03*
Y508100D02*
D03*
X574750Y431900D02*
D03*
Y444600D02*
D03*
Y457300D02*
D03*
Y470000D02*
D03*
Y482700D02*
D03*
Y495400D02*
D03*
Y508100D02*
D03*
X632750Y431900D02*
D03*
Y444600D02*
D03*
Y457300D02*
D03*
Y470000D02*
D03*
Y482700D02*
D03*
Y495400D02*
D03*
Y508100D02*
D03*
X687250Y431900D02*
D03*
Y444600D02*
D03*
Y457300D02*
D03*
Y470000D02*
D03*
Y482700D02*
D03*
Y495400D02*
D03*
Y508100D02*
D03*
X705250Y264400D02*
D03*
Y277100D02*
D03*
Y289800D02*
D03*
Y302500D02*
D03*
Y315200D02*
D03*
Y327900D02*
D03*
Y340600D02*
D03*
X759750Y264400D02*
D03*
Y277100D02*
D03*
Y289800D02*
D03*
Y302500D02*
D03*
Y315200D02*
D03*
Y327900D02*
D03*
Y340600D02*
D03*
X195000Y351900D02*
D03*
Y364600D02*
D03*
Y377300D02*
D03*
Y390000D02*
D03*
Y402700D02*
D03*
Y415400D02*
D03*
Y428100D02*
D03*
X249500Y351900D02*
D03*
Y364600D02*
D03*
Y377300D02*
D03*
Y390000D02*
D03*
Y402700D02*
D03*
Y415400D02*
D03*
Y428100D02*
D03*
D104*
X802750Y480950D02*
D03*
Y493650D02*
D03*
Y506350D02*
D03*
Y519050D02*
D03*
X857250Y480950D02*
D03*
Y493650D02*
D03*
Y506350D02*
D03*
Y519050D02*
D03*
D105*
X941750Y247500D02*
D03*
X913250Y257000D02*
D03*
Y238000D02*
D03*
X112500Y431500D02*
D03*
Y412500D02*
D03*
X84000Y422000D02*
D03*
D106*
X290500Y462500D02*
D03*
X309500D02*
D03*
D107*
X345000Y388250D02*
D03*
X354500Y416750D02*
D03*
X335500D02*
D03*
D108*
X535000Y319500D02*
D03*
Y340500D02*
D03*
X475000Y319500D02*
D03*
Y340500D02*
D03*
X509996Y340496D02*
D03*
Y319496D02*
D03*
X450000Y340500D02*
D03*
Y319500D02*
D03*
X622500Y340500D02*
D03*
Y319500D02*
D03*
X570000Y340500D02*
D03*
Y319500D02*
D03*
X594996Y319496D02*
D03*
Y340496D02*
D03*
X647500Y319500D02*
D03*
Y340500D02*
D03*
X520000Y720500D02*
D03*
Y699500D02*
D03*
D109*
X237500Y712500D02*
D03*
X137500D02*
D03*
X735000Y700000D02*
D03*
X835000D02*
D03*
D110*
X267500Y620000D02*
D03*
X292900D02*
D03*
Y525000D02*
D03*
X267500D02*
D03*
D111*
X632500Y700000D02*
D03*
X572500D02*
D03*
M02*
