M48
;Layer_Color=9474304
;FILE_FORMAT=4:4
METRIC,LZ
;TYPE=PLATED
T01F00S00C0.3000
T02F00S00C0.5000
T03F00S00C0.8000
T04F00S00C0.9400
T05F00S00C1.0000
T06F00S00C1.0200
T07F00S00C1.1000
T08F00S00C1.2000
T09F00S00C1.3000
T10F00S00C1.5000
T11F00S00C3.2000
;TYPE=NON_PLATED
T12F00S00C1.3000
%
T01
X00175Y003175
X002275Y002825
X00286691Y00303276
X0028425Y0033925
X0039Y002475
X006075Y00355
X00665Y00345
X0068Y003775
X006875Y002925
X009575Y00295
X008375Y00495
X008025Y0057
X007044Y005081
X00670807Y00482311
X00670337Y00461884
X00655Y00495
X006975Y00415
X00555Y004575
X005425Y004525
X0054Y004675
X004175Y0042
X00295Y004175
X002425Y00485
X00185Y00445
X0012Y00485
X00355Y005075
X00285Y0066
X0024825Y006325
X003375Y007375
X0039Y007125
T02
X0004Y0024
X0006Y002325
X0008Y0024
X000875Y0026
X0008Y0028
X0006Y002875
X0004Y0028
X000325Y0026
X010125
X0102Y0024
X0104Y002325
X0106Y0024
X010675Y0026
X0106Y0028
X0104Y002875
X0102Y0028
Y0048
X0104Y004725
X0106Y0048
X010675Y005
X0106Y0052
X0104Y005275
X0102Y0052
X010125Y005
X000875
X0008Y0052
X0006Y005275
X0004Y0052
X000325Y005
X0004Y0048
X0006Y004725
X0008Y0048
T03
X00055Y003425
Y003679
Y003933
X0014Y006017
Y006271
Y006525
T04
X009248Y006458
X00747Y00595
X00493
X003152Y006458
T05
X008546Y00427
X0088
X009054
X0019125Y004888
Y005142
Y005904
Y006412
T06
X0103Y006825
Y007125
X0006
Y006825
T07
X008996Y0051
X00925
X009504
T08
X004625Y00251305
Y00276305
X004875
Y00251305
X005125
Y00276305
X005375
Y00251305
X005625
X005875
X006125
Y00276305
X006375
Y00251305
X005875Y00276305
X005625
X008175Y002518
X008425
X010207Y00595
Y0062
X000693
Y00595
T09
X0055Y002375
T10
X01011Y00651
X01011Y00742
X00079Y00744
X00079Y00653
T11
X0006Y0026
X0104
Y005
X0006
T12
X0083Y002384
X010341Y006075
X000559
M30
