M48
;Layer_Color=9474304
;FILE_FORMAT=2:4
METRIC,LZ
;TYPE=PLATED
T1F00S00C0.3000
%
T01
X1775Y13
X175Y1625
X1975Y32
X2175
X392Y24
X39247Y1973
X408546Y22
X42Y26
X4375Y2525
X4525Y2875
X473283Y315821
X466242Y327963
X4325Y3575
Y37
Y3825
X5225Y38
X555Y37
X5535Y3162
X54Y295
X52Y29
X55Y26
Y24
X53Y205
X4725Y2128
X4575Y17
X4475Y1375
X465Y1025
X485657Y082
X48Y075
X504564Y0805
X5325Y0925
X612Y095
X59Y13
X6025Y15
X68Y1725
X787914Y160414
X7775Y145
X78Y105
Y065
X715Y02
X4975Y0425
X46Y0225
X4125Y11
X575Y28
X61607Y27
X618164Y293164
X68Y3025
X705Y2725
X793Y2675
X7875Y385
X7275Y3875
X685Y395
X83Y3875
X88Y3775
X87Y300541
X855Y152
X835
X8Y1525
X83Y1195
X8475
X88Y12
X8925Y1025
X840366Y397549
X85Y41694
X65904Y44
X6125Y445
X6325Y3992
X55Y435
X5025Y4475
X4725Y4625
X475Y4775
X4975Y495
Y535
X4775Y5275
X4475Y4275
X4125Y445
X7025Y5175
X11Y3975
X0175Y41
M30
