M48
;Layer_Color=9474304
;FILE_FORMAT=4:4
METRIC,LZ
;TYPE=PLATED
T01F00S00C0.3000
%
T01
X008625Y00565
X008925Y0058
X0091Y0054
X0095Y0058
X0094Y0068
X00963Y006875
X010225Y00675
X010475
X008925Y006825
X00839Y00715
X00835Y0064
X00865Y007775
X0094Y007375
X0077Y006775
X00711119Y00676
X0068Y007025
X007325Y00715
X006975Y006225
X006175Y00555
X006Y0071
X00597883Y00862883
X006725Y008275
X00705Y009
X006925Y0098
X009425Y009775
X0093Y01005
X0101Y009875
X01028Y00945
X011025Y009575
X01105Y00975
M30
