M48
;Layer_Color=9474304
;FILE_FORMAT=2:4
METRIC,LZ
;TYPE=PLATED
T2F00S00C0.5000
T3F00S00C0.6000
T4F00S00C0.8000
T5F00S00C1.0000
T6F00S00C1.0200
T7F00S00C1.1000
T8F00S00C1.2000
T9F00S00C1.3000
T10F00S00C1.5000
T11F00S00C3.2000
%
T02
X38Y03
X3725Y05
X38Y07
X4Y0775
X42Y07
X4275Y05
X42Y03
X4Y0225
X83Y03
X8225Y05
X83Y07
X85Y0775
X87Y07
X8775Y05
X87Y03
X85Y0225
Y4725
X83Y48
X8225Y5
X83Y52
X85Y5275
X87Y52
X8775Y5
X87Y48
X42
X4275Y5
X42Y52
X4Y5275
Y4725
X38Y48
X3725Y5
X38Y52
T03
X1Y14
Y1908
X1254Y1654
T04
X2729Y3871
Y4379
X2221
Y4125
T05
X6291Y5205
X6545
X6799
T06
X04Y15
Y18
X05Y51
X08
X16
X19
T07
X7Y3523
Y3777
X7328Y5255
X7582
T08
X825Y18
X85
Y205
X825
Y23
X85
Y255
Y28
X825
Y255
Y305
X85
Y33
Y355
X825
Y33
T09
X811195Y2675
T10
X059Y1205
Y2115
X0205Y491
X1115
X1305
X2215
T11
X4Y05
X85
Y5
X4
M30
