M48
;Layer_Color=9474304
;FILE_FORMAT=2:4
METRIC,LZ
;TYPE=PLATED
T1F00S00C0.3000
T2F00S00C0.5000
T3F00S00C0.6000
T4F00S00C0.8000
T5F00S00C1.0000
T6F00S00C1.0200
T7F00S00C1.1000
T8F00S00C1.2000
T9F00S00C1.3000
T10F00S00C1.5000
T11F00S00C3.2000
%
T01
X1775Y13
X175Y1625
X1975Y32
X2175
X37Y265
X392Y24
X39247Y1973
X37Y205
X408546Y22
X42Y26
X4375Y2525
X46Y2725
Y3025
X465Y32
X473283Y315821
X465Y3325
X4645Y355699
X5Y345
X552874Y349162
X555Y37
X5225Y38
X435657Y378157
X41Y365
Y3525
X435Y3325
Y32
X405Y3025
X4145Y39661
X52Y29
X54Y295
X5535Y3162
X575Y28
X5675Y2525
X5485Y250287
X55Y26
Y24
X5825
X59Y2475
X5975Y2575
X6175Y2475
X61607Y27
X618164Y293164
X64Y29
X66Y315
X68Y3
X6775Y34
X6725Y35
X635Y375
X7225Y365
X7275Y3875
X7475Y385
X7775Y3325
X793Y2675
X75Y275
X705Y2725
X72Y205
X7225Y1725
X727Y1525
X7775Y145
X787914Y160414
X78Y105
Y065
X715Y02
X6075Y0225
X60049Y036119
X5975Y05
X5675Y0475
X55Y0575
X5425Y075
X565
X56Y0925
X5525
X5675Y0975
X5325Y0925
Y1125
X537909Y111216
X52Y105
X504564Y0805
X485657Y082
X48Y075
X465Y1025
X4475Y1375
X4375Y1275
X414437Y135733
X3975Y1375
X4125Y11
X4627Y153
X4925Y1675
X5475Y17
X545Y19
X53Y205
X5075Y2225
Y2375
X4725Y215
X595Y225
X6025Y15
X625Y155
X610466Y125
X59Y13
X612Y095
X68Y1725
Y2
X6825Y205
X6725Y2075
X55Y005
X4675Y0075
X46Y0225
X4975Y0425
X83Y1195
X8475
X88Y12
X8925Y1025
X8825Y0875
X855Y152
X835
X8Y1525
X8025Y35
X88Y3775
X87Y300541
X840366Y397549
X85Y41694
X8275Y445
X78Y46015
X6975Y445
X6905Y476942
X7025Y5175
X6575Y44
X63Y445
X6125
X6325Y3992
X5825Y40025
X55Y435
X525Y445
X5025Y4425
X4825Y44
X476136Y433636
X4775Y4675
X475Y4775
X4975Y4825
X4925Y52
X5Y5275
X4775
X43Y4625
X4125Y445
X11Y3975
X0175Y41
T02
X38Y03
X3725Y05
X38Y07
X4Y0775
X42Y07
X4275Y05
X42Y03
X4Y0225
X83Y03
X8225Y05
X83Y07
X85Y0775
X87Y07
X8775Y05
X87Y03
X85Y0225
Y4725
X83Y48
X8225Y5
X83Y52
X85Y5275
X87Y52
X8775Y5
X87Y48
X42
X4275Y5
X42Y52
X4Y5275
Y4725
X38Y48
X3725Y5
X38Y52
T03
X1Y14
Y1908
X1254Y1654
T04
X2729Y3871
Y4379
X2221
Y4125
T05
X6291Y5205
X6545
X6799
T06
X04Y15
Y18
X05Y51
X08
X16
X19
T07
X7Y3523
Y3777
X7328Y5255
X7582
T08
X825Y18
X85
Y205
X825
Y23
X85
Y255
Y28
X825
Y255
Y305
X85
Y33
Y355
X825
Y33
T09
X811195Y2675
T10
X059Y1205
Y2115
X0205Y491
X1115
X1305
X2215
T11
X4Y05
X85
Y5
X4
M30
