M48
;Layer_Color=9474304
;FILE_FORMAT=4:4
METRIC,LZ
;TYPE=PLATED
T01F00S00C0.3000
T02F00S00C0.5000
T03F00S00C0.6000
T04F00S00C0.8000
T05F00S00C1.0000
T06F00S00C1.0200
T07F00S00C1.1000
T08F00S00C1.2000
T09F00S00C1.3000
T10F00S00C1.5000
T11F00S00C3.2000
%
T01
X0092Y005325
X00955847Y00613113
X009675Y0061
X0096Y0063
X01044694Y00732845
X00815Y007325
X0064Y007275
X0036Y0074
X003475Y0075
X003125Y007375
X0032Y0071
X003175Y0054
X0033
X002775Y005225
X0033Y00805
Y008225
X0035065Y00805
X00315Y008625
X00445Y00845
X00855Y008725
X009525Y008975
X009825Y00865
X0098Y0097
X011Y008625
T02
X010575Y007725
X0105Y007925
X010775Y00765
X010975Y007725
X01105Y007925
X00655Y007935
X006475Y007735
X006275Y00766
X006075Y007735
X006Y007935
X006075Y008135
X006275Y00821
X006475Y008135
X010575Y008125
X010775Y0082
X010975Y008125
T03
X003323Y006321
Y006829
X003577Y006575
T04
X004346Y006525
Y006779
X004854
Y006271
X00501Y0093
X00755Y00879
Y00981
X01009Y0093
T05
X0081Y00815
X008354
X008608
T06
X0027Y006425
Y006725
X00275Y009725
X00305
X00385Y009725
X00415
T07
X009075Y006448
Y006702
X009598Y008225
X009852
T08
X0107Y005525
X01095
Y005775
Y006025
X0107
Y005775
Y006275
X01095
Y006525
X0107
Y006775
X01095
Y007025
Y007275
X0107
Y007025
T09
X01056195Y0064
T10
X00289Y00613
Y00704
X002455Y009535
X003365
X003555Y009535
X004465
T11
X010775Y007925
X006275Y007935
M30
