M48
;Layer_Color=9474304
;FILE_FORMAT=2:4
METRIC,LZ
;TYPE=PLATED
T1F00S00C0.3000
%
T01
X1775Y13
X175Y1625
X1975Y32
X2175
X37Y265
X392Y24
X39247Y1973
X408546Y22
X42Y26
X4375Y2525
X4725Y2128
X4575Y17
X4475Y1375
X3975
X4125Y11
X465Y1025
X485657Y082
X48Y075
X504564Y0805
X4975Y0425
X46Y0225
X55Y01
X612Y095
X59Y13
X6025Y15
X5475Y17
X53Y205
X54Y25
X55Y24
Y26
X54Y295
X52Y29
X5535Y3162
X473283Y315821
X4875Y3425
X5225Y38
X6625Y3475
X618164Y293164
X61607Y27
X68Y1725
X787914Y160414
X7775Y145
X78Y105
Y065
X715Y02
X793Y2675
X405Y3025
X87Y300541
X88Y3775
X855Y152
X835
X8Y1525
X83Y1195
X8475
X88Y12
X8925Y1025
X840366Y397549
X85Y41694
X65904Y44
X6325Y3992
X55Y435
X49Y4425
X43Y4625
X4775Y5275
X7025Y5175
X11Y3975
X0175Y41
M30
