M48
;Layer_Color=9474304
;FILE_FORMAT=2:4
METRIC,LZ
;TYPE=PLATED
T1F00S00C0.3000
%
T01
X5375Y0475
X5675Y0475
X5325Y1125
X5Y1675
X475Y1968
X47Y23
X475Y29
X519029Y328922
X4375Y345
X5975Y28
X6325Y29
X66Y315
X6775Y34
X7225Y365
X7475Y385
X7775Y3325
X7725Y2575
X75Y275
X78Y215
X72Y205
X6775Y2225
X675Y235
X6375Y23
X625Y155
X6125Y1225
X7675Y15
X8275Y445
X76Y4525
X6825Y4625
Y5
X63Y445
X52Y4475
X43Y445
M30
