M48
;Layer_Color=9474304
;FILE_FORMAT=2:4
METRIC,LZ
;TYPE=PLATED
T1F00S00C0.3000
%
T01
X37Y205
X44Y1925
X4839Y205
X5425Y2225
X5575Y2275
X5625Y2175
X566585Y239076
X5825Y24
Y2475
X59
Y255
X5825
X615Y245
X62Y2125
X6275Y21
X6425Y2075
X655Y1925
X6725Y2075
X72Y1775
X595Y225
X545Y19
X537909Y111216
X5325Y0925
X52Y095
X5525Y0925
X559322Y084676
X565Y075
X5775Y0775
X585Y085
X6Y09
X5925Y065
X5975Y05
X583601Y048635
X5675Y0475
X5525Y0625
X5425Y075
X5675Y0975
X59Y0325
X60049Y036119
X605Y02
X4675Y0075
X4375Y1275
X414437Y135733
X435Y32
X414701Y341518
X417184Y355316
X47Y3675
X5375Y37
X5907Y3675
X6575Y3775
X545Y28
X5425Y275
X8025Y35
X8925Y08
X705Y4525
X4675Y4425
X4175Y41
X495Y5275
X520192Y524376
M30
