M48
;Layer_Color=9474304
;FILE_FORMAT=4:4
METRIC,LZ
;TYPE=PLATED
T01F00S00C0.3000
T02F00S00C0.5000
T03F00S00C0.8000
T04F00S00C1.0000
T05F00S00C1.0200
T06F00S00C1.1000
T07F00S00C1.2000
T08F00S00C1.3000
T09F00S00C1.5000
T10F00S00C3.2000
%
T01
X0124Y00495
X01279081Y00535742
X01265Y0061
X01297
X01285Y00635
X01325594Y00637457
X01341244Y00652512
X01291419Y00689341
X01244014Y00683176
X0124Y00695
X01239519Y00708074
X01236533Y00732956
X01265Y00725
X01202Y0074
X01372Y0078
X0145Y00665
X01491926Y00700588
X01375Y00565
X0136
X0117Y0062
Y00675
X0113Y00695
X01105301Y00682597
X01065Y0069
X01055Y007176
X01Y00715
X00915Y0074
X0092516Y0064453
X00931495Y00586072
X00962Y006023
X0103Y00555
X01065Y0062
X0109
X01115
X01142176Y00733218
X0075Y008
X00575
X00956869Y00902647
X0097Y00935
X0094Y00985
X01055891Y00930347
X01070517Y00920166
X01122725Y00919909
X01122302Y00945858
X0112Y00895
X01213215Y00908033
X012Y0093
X01212Y009454
X01295Y00985
X01315Y0097
X0134775Y009581
X01347935Y00920165
X0135Y00854
X0124849Y00842143
X014Y00945
X01397102Y00958252
X015Y00955
T02
X01405Y00495
X013975Y00515
X01405Y00535
X01425Y005425
X01445Y00535
X014525Y00515
X01445Y00495
X01425Y004875
Y007725
X01445Y0078
X01405
X00945
X00925Y007725
X00905Y0078
Y00535
X00925Y005425
X00945Y00535
X009525Y00515
X00945Y00495
X00925Y004875
X00905Y00495
X008975Y00515
Y008
X00905Y0082
X00925Y008275
X00945Y0082
X009525Y008
X013975
X01405Y0082
X01425Y008275
X01445Y0082
X014525Y008
T03
X0065274Y007242
Y007496
Y00775
X00776Y00925
X0103Y00976
Y00874
X01284Y00925
T04
X008358Y0053875
X008612
X007596
X007088
X011192Y0081
X011446
X0117
T05
X0057Y0057
Y006
X005796Y0097155
X006096
T06
X0139Y006073
Y006327
X013027Y00775
X012773
X008677Y0062
X008423
T07
X0121Y00525
X01235
Y0055
X0121
X01185
Y00525
X0116
Y0055
X01135
X0111
X01085
Y00525
X0106
Y0055
X0111Y00525
X01135
T08
X011475Y00563805
T09
X00589Y005405
X00589Y006315
X005501Y0095255
X006411Y0095255
T10
X01425Y00515
X00925
Y008
X01425
M30
