M48
;Layer_Color=9474304
;FILE_FORMAT=4:4
METRIC,LZ
;TYPE=PLATED
T01F00S00C0.3000
%
T01
X008375Y0065
X00835Y007
X008625Y00695
X0086Y0068
X009375Y007025
X009925Y007
X00945Y006275
X009625Y00545
X010175Y005725
X010325Y0058
X007925Y006525
X0071Y006675
X007225Y0068
X00725Y00745
X006575Y0074
X00643251Y00692642
X006575Y006675
X006555Y00655
X006425Y00645
X006975Y006225
Y008175
M30
