M48
;Layer_Color=9474304
;FILE_FORMAT=4:4
METRIC,LZ
;TYPE=PLATED
T01F00S00C0.3000
%
T01
X008175Y00575
X008375Y00675
X009375Y006525
X01033433Y00653447
X00998Y0074095
X009875Y00745
X009925Y0078
X00955Y007925
X0095Y007675
X0091Y0054
X007475Y00625
X00766572Y0064855
X007225Y006475
X0071Y006425
X00685Y0075
X0064Y007275
X00775Y0073
X007425Y007775
X00755Y0081
X006725Y009175
X006125Y0096
X00945Y009525
X0104Y009325
X0107Y00945
X008925Y008675
M30
