M48
;Layer_Color=9474304
;FILE_FORMAT=4:4
METRIC,LZ
;TYPE=PLATED
T01F00S00C0.3000
T02F00S00C4.0000
T03F00S00C5.0000
%
T01
X00336103Y-00236195
X00346103
X00356103
X00366103
X00376103
X00386103
X00396103
X00406103
X00416103
X00426103
X00436103
X00446103
X00456103
X00466103
X00476103
X00486103
X00496103
X00506103
X00516103
X00511103Y-00226195
X00521103
X00526103Y-00216195
X00516103
X00506103
X00496103
X00486103
X00476103
X00466103
X00456103
X00446103
X00436103
X00426103
X00416103
X00411103Y-00226195
X00421103
X00431103
X00441103
X00451103
X00461103
X00471103
X00481103
X00491103
X00501103
Y-00206195
X00511103
X00521103
X00526103Y-00196195
X00516103
X00506103
X00496103
X00486103
X00476103
X00466103
X00456103
X00446103
X00441103Y-00206195
X00451103
X00461103
X00471103
X00481103
X00491103
Y-00186195
X00501103
X00511103
X00521103
X00506103Y-00176195
X00496103
X00486103
X00476103
X00466103
X00456103
X00446103
X00441103Y-00166195
X00451103
X00461103
X00471103
X00481103
X00491103
X00501103
X00486103Y-00156195
X00476103
X00466103
X00456103
X00446103
X00436103
X00426103
X00421103Y-00146195
X00431103
X00441103
X00451103
X00461103
X00471103
X00481103
X00466103Y-00136195
X00456103
X00446103
X00436103
X00426103
X00416103
X00406103
X00401103Y-00126195
X00411103
X00421103
X00431103
X00441103
X00451103
X00446103Y-00116195
X00436103
X00426103
X00416103
X00406103
X00396103
X00386103
X00381103Y-00106195
X00391103
X00401103
X00411103
X00421103
X00431103
X00426103Y-00096195
X00416103
X00406103
X00396103
X00386103
X00376103
X00366103
X00361103Y-00086195
X00371103
X00381103
X00391103
X00401103
X00411103
X00396103Y-00076195
X00386103
X00376103
X00366103
X00356103
X00346103
X00341103Y-00066195
X00351103
X00361103
X00371103
X00381103
X00391103
X00376103Y-00056195
X00366103
X00356103
X00346103
X00336103
X00341103Y-00046195
X00351103
X00361103
X00371103
X00356103Y-00114718
X00346103
X00336103
X00341103Y-00104718
Y-00124718
X00351103
X00361103
X00366103Y-00134718
X00376103
X00371103Y-00144718
X00381103
X00386103Y-00154718
X00396103
X00391103Y-00164718
X00401103
X00381103
X00371103
X00361103
X00366103Y-00154718
X00376103
X00356103
X00346103
X00336103
X00341103Y-00144718
X00351103
X00361103
X00356103Y-00134718
X00346103
X00336103
Y-00174718
X00346103
X00356103
X00366103
X00361103Y-00184718
X00371103
X00381103
X00391103
X00386103Y-00194718
X00376103
X00366103
X00356103
X00346103
X00336103
X00341103Y-00184718
X00351103
Y-00204718
X00361103
X00371103
X00381103
X00391103
Y-00226195
X00401103
X00381103
X00371103
X00361103
X00351103
X00341103
X00346103Y-00216195
X00356103
X00366103
X00376103
X00336103
X00431103Y-00206195
X00451103Y-00186195
X00461103
X00471103
X00481103
Y-00246195
X00491103
X00501103
X00511103
X00471103
X00461103
X00451103
X00441103
X00431103
X00421103
X00411103
X00326103Y-00236195
X00316103
X00306103
X00301103Y-00226195
X00311103
X00321103
X00331103
X00326103Y-00216195
X00316103
X00306103
X00296103
X00286103
X00276103
X00266103
X00256103
X00246103
X00236103
X00226103
X00216103
X00206103
X00196103
X00186103
X00176103
X00166103
X00156103
X00146103
X00136103
X00126103
X00116103
X00106103
X00096103
X00086103
X00076103
X00066103
X00056103
X00046103
X00036103
X00026103
X00016103
X00006103
X-00003897
X-00013897
X-00023897
X-00033897
X-00043897
X-00053897
X-00063897
X-00058897Y-00206195
X-00048897
X-00038897
X-00028897
X-00018897
X-00008897
X00001103
X00011103
X00021103
X00031103
X00041103
X00051103
X00061103
X00071103
X00081103
X00091103
X00101103
X00111103
X00121103
X00131103
X00141103
X00151103
X00161103
X00171103
X00181103
X00191103
X00201103
X00211103
X00221103
X00231103
X00241103
X00251103
X00261103
X00271103
X00281103
X00291103
X00296103Y-00194718
X00306103
X00316103
X00326103
X00321103Y-00184718
X00331103
X00326103Y-00174718
X00316103
X00306103
X00296103
X00286103
X00276103
X00266103
X00256103
X00246103
X00251103Y-00164718
X00261103
X00271103
X00281103
X00286103Y-00154718
X00296103
X00306103
X00316103
X00326103
X00321103Y-00144718
X00331103
X00326103Y-00134718
X00316103
X00306103
X00296103
X00286103
X00276103
X00266103
X00256103
X00246103
X00236103
X00226103
X00216103
X00206103
X00196103
X00186103
X00176103
X00166103
X00156103
X00151103Y-00144718
X00161103
X00171103
X00181103
X00191103
X00201103
X00211103
X00221103
X00231103
X00241103
X00251103
X00261103
X00271103
X00281103
X00291103
X00301103
X00311103
Y-00124718
X00321103
X00331103
X00326103Y-00114718
X00316103
X00306103
X00296103
X00286103
X00276103
X00266103
X00256103
X00246103
X00236103
X00226103
X00216103
X00206103
X00196103
X00186103
X00176103
X00166103
X00156103
X00151103Y-00104718
X00161103
X00171103
X00181103
X00191103
X00201103
X00211103
X00221103
X00231103
X00241103
X00251103
X00261103
X00271103
X00281103
X00291103
X00301103
X00311103
X00321103
X00331103
Y-00066195
X00326103Y-00056195
X00321103Y-00046195
X00331103
X00311103
X00301103
X00291103
X00281103
X00271103
X00276103Y-00054717
X00266103
X00256103
X00246103
X00236103
X00226103
X00216103
X00206103
X00196103
X00186103
X00176103
X00166103
X00156103
X00151103Y-00044717
X00161103
X00171103
X00181103
X00191103
X00201103
X00211103
X00221103
Y-00064717
X00231103
X00241103
X00251103
X00261103
X00271103
X00281103
X00291103
X00286103Y-00074718
X00276103
X00266103
X00256103
X00246103
X00236103
X00226103
X00221103Y-00084718
X00211103
X00201103
X00191103
X00181103
X00171103
X00161103
X00151103
X00141103
X00131103
X00121103
X00111103
X00101103
X00091103
X00081103
X00071103
X00061103
X00051103
X00041103
X00031103
X00021103
X00026103Y-00094718
X00036103
X00046103
X00056103
X00066103
X00076103
X00086103
X00096103
X00106103
X00116103
X00126103
X00136103
X00146103
X00156103
X00166103
X00176103
X00186103
X00196103
X00206103
X00216103
X00226103
X00236103
X00246103
X00256103
X00266103
X00271103Y-00084718
X00281103
X00291103
Y-00124718
X00301103
X00281103
X00271103
X00261103
X00251103
X00241103
X00231103
X00221103
X00211103
X00201103
X00191103
X00181103
X00171103
X00161103
X00141103Y-00104718
X00146103Y-00074718
X00156103
X00166103
X00176103
X00181103Y-00064717
X00191103
X00201103
X00211103
X00131103
X00121103
X00126103Y-00074718
X00136103
X00116103
X00106103
X00096103
X00086103
X00076103
X00066103
X00061103Y-00064717
X00071103
X00076103Y-00054717
X00086103
X00096103
X00091103Y-00044717
X00101103
X00081103
X00071103
X00061103
X00051103
X00041103
X00031103
X00036103Y-00054717
X00046103
X00056103
X00066103
X00051103Y-00064717
X00041103
X00031103
X00021103
X00011103
X00001103
X-00008897
X-00018897
X-00028897
X-00038897
X-00033897Y-00074718
X-00023897
X-00013897
X-00003897
X00006103
X00016103
X00026103
Y-00054717
X00016103
X00006103
X-00003897
X-00013897
X-00018897Y-00046195
X-00008897
X-00028897
X-00038897
X-00048897
X-00058897
Y-00104718
X-00048897
X-00038897
X-00028897
X-00018897
X-00008897
X00001103
X00011103
X00021103
X00031103
X00041103
X00051103
X00061103
X00071103
X00081103
X00091103
X00101103
X00096103Y-00114718
X00086103
X00076103
X00066103
X00056103
X00046103
X00036103
X00026103
X00016103
X00006103
X-00003897
X-00013897
X-00023897
X-00033897
X-00043897
X-00053897
X-00063897
X-00058897Y-00124718
X-00048897
X-00038897
X-00028897
X-00018897
X-00008897
X00001103
X00011103
X00021103
X00031103
X00041103
X00051103
X00061103
X00071103
X00081103
X00091103
X00086103Y-00134718
X00076103
X00066103
X00056103
X00046103
X00036103
X00026103
X00016103
X00006103
X-00003897
X-00013897
X-00023897
X-00033897
X-00043897
X-00053897
X-00063897
X-00058897Y-00144718
X-00048897
X-00038897
X-00028897
X-00018897
X-00008897
X00001103
X00011103
X00021103
X00031103
X00041103
X00051103
X00061103
X00071103
X00081103
X00091103
Y-00164718
X00101103
X00111103
X00121103
X00131103
X00141103
X00151103
X00161103
X00171103
X00181103
X00191103
X00196103Y-00174718
X00186103
X00176103
X00166103
X00156103
X00146103
X00136103
X00126103
X00116103
X00106103
X00096103
X00086103
X00076103
X00066103
X00056103
X00046103
X00036103
X00026103
X00016103
X00006103
X-00003897
X00001103Y-00164718
X00011103
X00021103
X00031103
X00041103
X00051103
X00061103
X00071103
X00081103
Y-00184718
X00091103
X00101103
X00111103
X00121103
X00131103
X00141103
X00151103
X00161103
X00171103
X00181103
X00191103
Y-00226195
X00201103
X00211103
X00221103
X00231103
X00241103
X00251103
X00261103
X00271103
X00281103
X00291103
X00286103Y-00194718
X00276103
X00266103
X00261103Y-00184718
X00271103
X00281103
X00291103
X00301103
X00311103
X00251103
X00266103Y-00154718
X00276103
X00226103
X00181103Y-00226195
X00171103
X00161103
X00151103
X00141103
X00131103
X00121103
X00111103
X00101103
X00091103
X00081103
X00071103
X00061103
X00051103
X00041103
X00031103
X00021103
X00011103
X00001103
X-00008897
X-00018897
X-00028897
X-00038897
X-00048897
X-00058897
X-00053897Y-00236195
X-00063897
Y-00194718
X-00058897Y-00184718
X-00053897Y-00174718
X-00063897
X-00058897Y-00164718
X-00063897Y-00154718
X-00023897
X00001103Y-00184718
X00011103
X00021103
X00031103
X00041103
X00051103
X00061103
X00071103
X00016103Y-00094718
X00006103
X-00003897
X-00013897
X-00023897
X-00028897Y-00084718
X-00038897
X-00068897Y-00104718
X-00078897
X-00088897
X-00098897
X-00093897Y-00114718
X-00083897
X-00073897
X-00078897Y-00124718
X-00068897
X-00073897Y-00134718
X-00083897
X-00093897
X-00103897
X-00113897
X-00123897
X-00133897
X-00148897
X-00158897
X-00153897Y-00124718
X-00143897
X-00138897Y-00114718
X-00128897
X-00123897Y-00104718
X-00113897
Y-00114718
X-00103897
X-00108897Y-00124718
X-00098897
X-00088897
Y-00144718
X-00078897
X-00068897
X-00073897Y-00154718
X-00083897
X-00093897
X-00103897
X-00113897
X-00123897
X-00133897
X-00143897
X-00153897
X-00158897Y-00164718
X-00148897
X-00138897
X-00128897
X-00118897
X-00113897Y-00174718
X-00103897
X-00093897
X-00083897
X-00073897
X-00078897Y-00184718
X-00068897
X-00073897Y-00194718
X-00083897
X-00093897
X-00103897
X-00113897
X-00123897
X-00133897
X-00143897
X-00138897Y-00184718
X-00128897
X-00118897
X-00108897
X-00098897
X-00088897
X-00078897Y-00206195
X-00068897
X-00073897Y-00216195
X-00083897
X-00093897
X-00103897
X-00113897
X-00123897
X-00133897
X-00143897
X-00153897
X-00163897
X-00168897Y-00226195
X-00158897
X-00148897
X-00138897
X-00128897
X-00118897
X-00108897
X-00098897
X-00088897
X-00078897
X-00068897
X-00073897Y-00236195
X-00083897
X-00093897
X-00103897
X-00113897
X-00123897
X-00133897
X-00143897
X-00153897
X-00163897
X-00173897
X-00183897
X-00193897
X-00203897
X-00213897
X-00218897Y-00246195
X-00208897
X-00198897
X-00188897
X-00178897
X-00168897
X-00158897
X-00178897Y-00226195
X-00188897
Y-00214718
X-00198897
X-00208897
X-00203897Y-00204718
X-00193897
X-00198897Y-00194718
X-00203897Y-00184718
X-00213897
X-00208897Y-00174718
X-00198897
X-00193897Y-00164718
X-00183897
X-00178897Y-00154718
X-00173897Y-00144718
X-00163897
X-00168897Y-00164718
X-00138897Y-00144718
X-00128897
X-00118897
X-00108897
X-00098897
X-00118897Y-00124718
Y-00094718
X-00108897
X-00103897Y-00084718
X-00093897
X-00088897Y-00074718
X-00098897Y-00066195
X-00108897
X-00118897
X-00128897
X-00138897
X-00133897Y-00076195
X-00123897
X-00113897
Y-00056195
X-00103897
X-00093897
X-00098897Y-00046195
X-00088897
X-00078897
X-00068897
X-00108897
X-00118897
X-00123897Y-00056195
X-00128897Y-00086195
X-00138897
X-00148897
X-00158897
X-00153897Y-00076195
X-00143897
Y-00096195
X-00133897
X-00153897
X-00163897
X-00173897
X-00178897Y-00106195
X-00168897
X-00158897
X-00148897
X-00193897Y-00116195
X-00208897Y-00126195
X-00213897Y-00136195
X-00228897Y-00146195
X-00233897Y-00156195
X-00248897Y-00166195
X-00253897Y-00176195
X-00258897Y-00186195
X-00248897
X-00243897Y-00196195
X-00253897
X-00263897
X-00268897Y-00186195
Y-00206195
X-00258897
X-00253897Y-00216195
X-00243897
X-00248897Y-00226195
X-00258897
X-00268897
X-00263897Y-00216195
Y-00236195
X-00253897
X-00258897Y-00246195
X-00248897
X-00138897Y-00204718
X-00123897Y-00174718
X-00068897Y-00164718
X-00073897Y-00036195
X-00083897
X-00093897
X-00103897
X-00098897Y-00026195
X-00088897
X-00078897
X-00068897
X-00073897Y-00016195
X-00083897
X-00068897Y-00006195
X-00058897
X-00048897
X-00038897
X-00028897
X-00023897Y-00016195
X-00033897
X-00043897
X-00053897
X-00063897
X-00058897Y-00026195
X-00048897
X-00038897
X-00028897
X-00018897
X-00008897
X00001103
X00011103
X00021103
X00031103
X00041103
X00051103
X00061103
X00071103
X00081103
X00086103Y-00034718
X00096103
Y-00016195
X00106103
X00116103
X00126103
X00136103
X00146103
X00156103
X00166103
X00176103
X00186103
X00196103
X00206103
X00216103
X00226103
X00221103Y-00006195
X00211103
X00201103
X00191103
X00181103
X00171103
X00161103
X00151103
X00141103
X00131103
X00121103
X00111103
X00101103
X00091103
X00081103
X00071103
X00061103
X00051103
X00041103
X00031103
X00036103Y00003805
X00046103
X00056103
X00066103
X00076103
X00086103
X00096103
X00106103
X00116103
X00126103
X00136103
X00146103
X00156103
X00166103
X00176103
X00186103
X00196103
X00206103
X00216103
X00211103Y00013806
X00221103
X00226103Y00023805
X00236103
X00231103Y00033805
X00241103
X00251103
X00261103
X00266103Y00023805
X00276103
X00286103
X00281103Y00013806
X00291103
X00301103
X00306103Y00003805
X00316103
X00311103Y-00006195
X00321103
X00326103Y-00016195
X00316103
X00306103
X00296103
X00286103
X00276103
X00271103Y-00026195
X00281103
X00291103
X00301103
X00311103
X00321103
X00331103
X00326103Y-00036195
X00316103
X00306103
X00296103
X00286103
X00276103
X00266103
X00256103
X00246103
X00236103
X00226103
X00216103
X00211103Y-00026195
X00221103
X00231103
X00241103
X00251103
X00261103
X00281103Y-00006195
X00291103
X00301103
X00296103Y00003805
X00286103
X00276103
X00271103Y00013806
X00256103Y00023805
X00236103Y00043805
X00226103
X00216103
X00206103
X00196103
X00186103
X00176103
X00166103
X00156103
X00146103
X00136103
X00126103
X00116103
X00106103
X00096103
X00086103
X00076103
X00066103
X00056103
X00046103
X00036103
X00026103
X00016103
X00011103Y00033805
X00021103
X00031103
X00041103
X00051103
X00061103
X00071103
X00081103
X00091103
X00101103
X00111103
X00121103
X00131103
X00141103
X00151103
X00161103
X00171103
X00181103
X00191103
X00201103
X00211103
X00221103
X00216103Y00023805
X00206103
X00196103
X00186103
X00176103
X00166103
X00156103
X00146103
X00136103
X00126103
X00116103
X00106103
X00096103
X00086103
X00076103
X00066103
X00056103
X00046103
X00036103
X00026103
X00016103
X00021103Y00013806
X00031103
X00041103
X00051103
X00061103
X00071103
X00081103
X00091103
X00101103
X00111103
X00121103
X00131103
X00141103
X00151103
X00161103
X00171103
X00181103
X00191103
X00201103
Y-00026195
X00191103
X00181103
X00171103
X00176103Y-00034718
X00166103
X00156103
X00076103
Y-00016195
X00086103
X00066103
X00056103
X00046103
X00036103
X00026103
Y00003805
Y-00036195
X00036103
X00016103
X00006103
X-00003897
X-00013897
X-00023897
X-00033897
X-00043897
X-00053897
X-00063897
Y00003805
X-00053897
X-00043897
X-00033897
X-00038897Y00013806
X-00028897
X-00023897Y00023805
X-00013897
X-00008897Y00033805
X00001103
X-00033897Y00023805
X-00048897Y00013806
X00336103Y-00016195
X00341103Y-00026195
X00346103Y-00036195
X00356103
X00336103
T02
X0Y0
X00248291
T03
X00124Y-00129
M30
