M48
;Layer_Color=9474304
;FILE_FORMAT=4:4
METRIC,LZ
;TYPE=PLATED
T01F00S00C0.3000
T02F00S00C1.0000
T03F00S00C1.0200
T04F00S00C1.1000
T05F00S00C1.2000
T06F00S00C1.3000
T07F00S00C1.5000
%
T01
X001Y00155
Y0025
T02
X00045Y0006627
X000704
X000958
T03
X00345Y00055
Y00085
T04
X001573Y00155
X001827
Y00186667
X001573
Y00218333
X001827
Y0025
X001573
X002396Y00255
X00265
Y00221667
X002396
Y00188333
X00265
Y00155
X002396
T05
X00105Y00325
Y0035
X0013
Y00325
X00155
Y0035
X0018
Y00325
X00205
Y0035
X0023
Y00325
X00255
Y0035
X0028
Y00325
T06
X001925Y00363805
T07
X00364Y000255
X00364Y001165
M30
