G04*
G04 #@! TF.GenerationSoftware,Altium Limited,Altium Designer,22.11.1 (43)*
G04*
G04 Layer_Color=2752767*
%FSLAX44Y44*%
%MOMM*%
G71*
G04*
G04 #@! TF.SameCoordinates,71FBA96F-98A1-49F9-A78B-1FB66A7A07A6*
G04*
G04*
G04 #@! TF.FilePolarity,Positive*
G04*
G01*
G75*
%ADD98C,0.1270*%
D98*
X514920Y89920D02*
Y100080D01*
X525080D01*
Y89920D01*
X514920D01*
X516952Y91952D02*
Y98048D01*
X523048D01*
Y91952D01*
X516952D01*
X595410Y31039D02*
Y41199D01*
X605570D01*
Y31039D01*
X595410D01*
X597442Y33071D02*
Y39167D01*
X603538D01*
Y33071D01*
X597442D01*
X599920Y14920D02*
Y25080D01*
X610080D01*
Y14920D01*
X599920D01*
X601952Y16952D02*
Y23048D01*
X608048D01*
Y16952D01*
X601952D01*
X547420Y57420D02*
Y67580D01*
X557580D01*
Y57420D01*
X547420D01*
X549452Y59452D02*
Y65548D01*
X555548D01*
Y59452D01*
X549452D01*
X584920Y27420D02*
Y37580D01*
X595080D01*
Y27420D01*
X584920D01*
X586952Y29452D02*
Y35548D01*
X593048D01*
Y29452D01*
X586952D01*
X594920Y84920D02*
Y95080D01*
X605080D01*
Y84920D01*
X594920D01*
X596952Y86952D02*
Y93048D01*
X603048D01*
Y86952D01*
X596952D01*
X562420Y92420D02*
Y102580D01*
X572580D01*
Y92420D01*
X562420D01*
X564452Y94452D02*
Y100548D01*
X570548D01*
Y94452D01*
X564452D01*
X532829Y106136D02*
Y116296D01*
X542989D01*
Y106136D01*
X532829D01*
X534861Y108168D02*
Y114264D01*
X540957D01*
Y108168D01*
X534861D01*
X527420Y87420D02*
Y97580D01*
X537580D01*
Y87420D01*
X527420D01*
X529452Y89452D02*
Y95548D01*
X535548D01*
Y89452D01*
X529452D01*
X547420Y87420D02*
Y97580D01*
X557580D01*
Y87420D01*
X547420D01*
X549452Y89452D02*
Y95548D01*
X555548D01*
Y89452D01*
X549452D01*
X572420Y72420D02*
Y82580D01*
X582580D01*
Y72420D01*
X572420D01*
X574452Y74452D02*
Y80548D01*
X580548D01*
Y74452D01*
X574452D01*
X592420Y44920D02*
Y55080D01*
X602580D01*
Y44920D01*
X592420D01*
X594452Y46952D02*
Y53048D01*
X600548D01*
Y46952D01*
X594452D01*
X578521Y43555D02*
Y53715D01*
X588681D01*
Y43555D01*
X578521D01*
X580553Y45587D02*
Y51683D01*
X586649D01*
Y45587D01*
X580553D01*
X559920Y69920D02*
Y80080D01*
X570080D01*
Y69920D01*
X559920D01*
X561952Y71952D02*
Y78048D01*
X568048D01*
Y71952D01*
X561952D01*
X579920Y79920D02*
Y90080D01*
X590080D01*
Y79920D01*
X579920D01*
X581952Y81952D02*
Y88048D01*
X588048D01*
Y81952D01*
X581952D01*
X554242Y79596D02*
Y89756D01*
X564402D01*
Y79596D01*
X554242D01*
X556274Y81628D02*
Y87724D01*
X562370D01*
Y81628D01*
X556274D01*
X537420Y69920D02*
Y80080D01*
X547580D01*
Y69920D01*
X537420D01*
X539452Y71952D02*
Y78048D01*
X545548D01*
Y71952D01*
X539452D01*
X609920Y239920D02*
Y250080D01*
X620080D01*
Y239920D01*
X609920D01*
X611952Y241952D02*
Y248048D01*
X618048D01*
Y241952D01*
X611952D01*
X539920Y274920D02*
Y285080D01*
X550080D01*
Y274920D01*
X539920D01*
X541952Y276952D02*
Y283048D01*
X548048D01*
Y276952D01*
X541952D01*
X552420Y222420D02*
Y232580D01*
X562580D01*
Y222420D01*
X552420D01*
X554452Y224452D02*
Y230548D01*
X560548D01*
Y224452D01*
X554452D01*
X557420Y212420D02*
Y222580D01*
X567580D01*
Y212420D01*
X557420D01*
X559452Y214452D02*
Y220548D01*
X565548D01*
Y214452D01*
X559452D01*
X714920Y172420D02*
Y182580D01*
X725080D01*
Y172420D01*
X714920D01*
X716952Y174452D02*
Y180548D01*
X723048D01*
Y174452D01*
X716952D01*
X649920Y187420D02*
Y197580D01*
X660080D01*
Y187420D01*
X649920D01*
X651952Y189452D02*
Y195548D01*
X658048D01*
Y189452D01*
X651952D01*
X667420Y202420D02*
Y212580D01*
X677580D01*
Y202420D01*
X667420D01*
X669452Y204452D02*
Y210548D01*
X675548D01*
Y204452D01*
X669452D01*
X637420Y202420D02*
Y212580D01*
X647580D01*
Y202420D01*
X637420D01*
X639452Y204452D02*
Y210548D01*
X645548D01*
Y204452D01*
X639452D01*
X622420Y204920D02*
Y215080D01*
X632580D01*
Y204920D01*
X622420D01*
X624452Y206952D02*
Y213048D01*
X630548D01*
Y206952D01*
X624452D01*
X614920Y207420D02*
Y217580D01*
X625080D01*
Y207420D01*
X614920D01*
X616952Y209452D02*
Y215548D01*
X623048D01*
Y209452D01*
X616952D01*
X589920Y219920D02*
Y230080D01*
X600080D01*
Y219920D01*
X589920D01*
X591952Y221952D02*
Y228048D01*
X598048D01*
Y221952D01*
X591952D01*
X584920Y242420D02*
Y252580D01*
X595080D01*
Y242420D01*
X584920D01*
X586952Y244452D02*
Y250548D01*
X593048D01*
Y244452D01*
X586952D01*
X584920Y249920D02*
Y260080D01*
X595080D01*
Y249920D01*
X584920D01*
X586952Y251952D02*
Y258048D01*
X593048D01*
Y251952D01*
X586952D01*
X577420Y234920D02*
Y245080D01*
X587580D01*
Y234920D01*
X577420D01*
X579452Y236952D02*
Y243048D01*
X585548D01*
Y236952D01*
X579452D01*
X577420Y242420D02*
Y252580D01*
X587580D01*
Y242420D01*
X577420D01*
X579452Y244452D02*
Y250548D01*
X585548D01*
Y244452D01*
X579452D01*
X577420Y249920D02*
Y260080D01*
X587580D01*
Y249920D01*
X577420D01*
X579452Y251952D02*
Y258048D01*
X585548D01*
Y251952D01*
X579452D01*
X489920Y522420D02*
Y532580D01*
X500080D01*
Y522420D01*
X489920D01*
X491952Y524452D02*
Y530548D01*
X498048D01*
Y524452D01*
X491952D01*
X478820Y199920D02*
Y210080D01*
X488980D01*
Y199920D01*
X478820D01*
X480852Y201952D02*
Y208048D01*
X486948D01*
Y201952D01*
X480852D01*
X464920Y362420D02*
Y372580D01*
X475080D01*
Y362420D01*
X464920D01*
X466952Y364452D02*
Y370548D01*
X473048D01*
Y364452D01*
X466952D01*
X585620Y362420D02*
Y372580D01*
X595780D01*
Y362420D01*
X585620D01*
X587652Y364452D02*
Y370548D01*
X593748D01*
Y364452D01*
X587652D01*
X412104Y350235D02*
Y360396D01*
X422264D01*
Y350235D01*
X412104D01*
X414136Y352267D02*
Y358363D01*
X420232D01*
Y352267D01*
X414136D01*
X409621Y336438D02*
Y346598D01*
X419781D01*
Y336438D01*
X409621D01*
X411653Y338470D02*
Y344566D01*
X417749D01*
Y338470D01*
X411653D01*
X432420Y122420D02*
Y132580D01*
X442580D01*
Y122420D01*
X432420D01*
X434452Y124452D02*
Y130548D01*
X440548D01*
Y124452D01*
X434452D01*
X887420Y74920D02*
Y85080D01*
X897580D01*
Y74920D01*
X887420D01*
X889452Y76952D02*
Y83048D01*
X895548D01*
Y76952D01*
X889452D01*
X364920Y199920D02*
Y210080D01*
X375080D01*
Y199920D01*
X364920D01*
X366952Y201952D02*
Y208048D01*
X373048D01*
Y201952D01*
X366952D01*
X699920Y447420D02*
Y457580D01*
X710080D01*
Y447420D01*
X699920D01*
X701952Y449452D02*
Y455548D01*
X708048D01*
Y449452D01*
X701952D01*
X462420Y2420D02*
Y12580D01*
X472580D01*
Y2420D01*
X462420D01*
X464452Y4452D02*
Y10548D01*
X470548D01*
Y4452D01*
X464452D01*
X587420Y59920D02*
Y70080D01*
X597580D01*
Y59920D01*
X587420D01*
X589452Y61952D02*
Y68048D01*
X595548D01*
Y61952D01*
X589452D01*
X562420Y42420D02*
Y52580D01*
X572580D01*
Y42420D01*
X562420D01*
X564452Y44452D02*
Y50548D01*
X570548D01*
Y44452D01*
X564452D01*
X537420Y217420D02*
Y227580D01*
X547580D01*
Y217420D01*
X537420D01*
X539452Y219452D02*
Y225548D01*
X545548D01*
Y219452D01*
X539452D01*
X409357Y130653D02*
Y140813D01*
X419517D01*
Y130653D01*
X409357D01*
X411389Y132685D02*
Y138781D01*
X417485D01*
Y132685D01*
X411389D01*
X434920Y187420D02*
Y197580D01*
X445080D01*
Y187420D01*
X434920D01*
X436952Y189452D02*
Y195548D01*
X443048D01*
Y189452D01*
X436952D01*
X539920Y184920D02*
Y195080D01*
X550080D01*
Y184920D01*
X539920D01*
X541952Y186952D02*
Y193048D01*
X548048D01*
Y186952D01*
X541952D01*
X561505Y233997D02*
Y244156D01*
X571665D01*
Y233997D01*
X561505D01*
X563537Y236028D02*
Y242125D01*
X569633D01*
Y236028D01*
X563537D01*
X537420Y269920D02*
Y280080D01*
X547580D01*
Y269920D01*
X537420D01*
X539452Y271952D02*
Y278048D01*
X545548D01*
Y271952D01*
X539452D01*
X652420Y372420D02*
Y382580D01*
X662580D01*
Y372420D01*
X652420D01*
X654452Y374452D02*
Y380548D01*
X660548D01*
Y374452D01*
X654452D01*
X532420Y364920D02*
Y375080D01*
X542580D01*
Y364920D01*
X532420D01*
X534452Y366952D02*
Y373048D01*
X540548D01*
Y366952D01*
X534452D01*
X462420Y437420D02*
Y447580D01*
X472580D01*
Y437420D01*
X462420D01*
X464452Y439452D02*
Y445548D01*
X470548D01*
Y439452D01*
X464452D01*
X429920Y314920D02*
Y325080D01*
X440080D01*
Y314920D01*
X429920D01*
X431952Y316952D02*
Y323048D01*
X438048D01*
Y316952D01*
X431952D01*
X412420Y404920D02*
Y415080D01*
X422580D01*
Y404920D01*
X412420D01*
X414452Y406952D02*
Y413048D01*
X420548D01*
Y406952D01*
X414452D01*
X515112Y519296D02*
Y529456D01*
X525272D01*
Y519296D01*
X515112D01*
X517145Y521328D02*
Y527424D01*
X523241D01*
Y521328D01*
X517145D01*
X797420Y344920D02*
Y355080D01*
X807580D01*
Y344920D01*
X797420D01*
X799452Y346952D02*
Y353048D01*
X805548D01*
Y346952D01*
X799452D01*
M02*
