G04*
G04 #@! TF.GenerationSoftware,Altium Limited,Altium Designer,22.11.1 (43)*
G04*
G04 Layer_Color=128*
%FSLAX44Y44*%
%MOMM*%
G71*
G04*
G04 #@! TF.SameCoordinates,71FBA96F-98A1-49F9-A78B-1FB66A7A07A6*
G04*
G04*
G04 #@! TF.FilePolarity,Positive*
G04*
G01*
G75*
%ADD98C,0.1270*%
D98*
X616664Y293164D02*
X619664D01*
X618164Y291664D02*
Y294664D01*
X614570Y270000D02*
X617570D01*
X616070Y268500D02*
Y271500D01*
X610500Y95000D02*
X613500D01*
X612000Y93500D02*
Y96500D01*
X588500Y130000D02*
X591500D01*
X590000Y128500D02*
Y131500D01*
X458500Y22500D02*
X461500D01*
X460000Y21000D02*
Y24000D01*
X484157Y82000D02*
X487157D01*
X485657Y80500D02*
Y83500D01*
X503064Y80500D02*
X506064D01*
X504564Y79000D02*
Y82000D01*
X464742Y327963D02*
X467742D01*
X466242Y326463D02*
Y329463D01*
X471000Y462500D02*
X474000D01*
X472500Y461000D02*
Y464000D01*
X473500Y477500D02*
X476500D01*
X475000Y476000D02*
Y479000D01*
X496000Y535000D02*
X499000D01*
X497500Y533500D02*
Y536500D01*
X553500Y370000D02*
X556500D01*
X555000Y368500D02*
Y371500D01*
X431000Y382500D02*
X434000D01*
X432500Y381000D02*
Y384000D01*
X446000Y427500D02*
X449000D01*
X447500Y426000D02*
Y429000D01*
X431000Y370000D02*
X434000D01*
X432500Y368500D02*
Y371500D01*
X431000Y357500D02*
X434000D01*
X432500Y356000D02*
Y359000D01*
X496000Y495000D02*
X499000D01*
X497500Y493500D02*
Y496500D01*
X476000Y527500D02*
X479000D01*
X477500Y526000D02*
Y529000D01*
X478500Y75000D02*
X481500D01*
X480000Y73500D02*
Y76500D01*
X463500Y102500D02*
X466500D01*
X465000Y101000D02*
Y104000D01*
X791500Y267500D02*
X794500D01*
X793000Y266000D02*
Y269000D01*
X798500Y152500D02*
X801500D01*
X800000Y151000D02*
Y154000D01*
X778500Y65000D02*
X781500D01*
X780000Y63500D02*
Y66500D01*
X891000Y102500D02*
X894000D01*
X892500Y101000D02*
Y104000D01*
X878500Y120000D02*
X881500D01*
X880000Y118500D02*
Y121500D01*
X713500Y20000D02*
X716500D01*
X715000Y18500D02*
Y21500D01*
X776000Y145000D02*
X779000D01*
X777500Y143500D02*
Y146500D01*
X786414Y160414D02*
X789414D01*
X787914Y158914D02*
Y161914D01*
X778500Y105000D02*
X781500D01*
X780000Y103500D02*
Y106500D01*
X878500Y377500D02*
X881500D01*
X880000Y376000D02*
Y379000D01*
X456000Y170000D02*
X459000D01*
X457500Y168500D02*
Y171500D01*
X173500Y162500D02*
X176500D01*
X175000Y161000D02*
Y164000D01*
X176000Y130000D02*
X179000D01*
X177500Y128500D02*
Y131500D01*
X548500Y435000D02*
X551500D01*
X550000Y433500D02*
Y436500D01*
X631000Y399200D02*
X634000D01*
X632500Y397700D02*
Y400700D01*
X683500Y395000D02*
X686500D01*
X685000Y393500D02*
Y396500D01*
X678500Y302500D02*
X681500D01*
X680000Y301000D02*
Y304000D01*
X703500Y272500D02*
X706500D01*
X705000Y271000D02*
Y274000D01*
X573500Y280000D02*
X576500D01*
X575000Y278500D02*
Y281500D01*
X531000Y92500D02*
X534000D01*
X532500Y91000D02*
Y94000D01*
X451000Y287500D02*
X454000D01*
X452500Y286000D02*
Y289000D01*
X411000Y445000D02*
X414000D01*
X412500Y443500D02*
Y446500D01*
X501000Y447500D02*
X504000D01*
X502500Y446000D02*
Y449000D01*
X611000Y445000D02*
X614000D01*
X612500Y443500D02*
Y446500D01*
X828500Y387500D02*
X831500D01*
X830000Y386000D02*
Y389000D01*
X786000Y385000D02*
X789000D01*
X787500Y383500D02*
Y386500D01*
X726000Y387500D02*
X729000D01*
X727500Y386000D02*
Y389000D01*
X848500Y416940D02*
X851500D01*
X850000Y415439D02*
Y418439D01*
X657540Y440000D02*
X660540D01*
X659040Y438500D02*
Y441500D01*
X436000Y252500D02*
X439000D01*
X437500Y251000D02*
Y254000D01*
X407046Y220000D02*
X410046D01*
X408546Y218500D02*
Y221500D01*
X390970Y197300D02*
X393970D01*
X392470Y195800D02*
Y198800D01*
X521000Y380000D02*
X524000D01*
X522500Y378500D02*
Y381500D01*
X471783Y315821D02*
X474783D01*
X473283Y314321D02*
Y317321D01*
X446000Y137500D02*
X449000D01*
X447500Y136000D02*
Y139000D01*
X471000Y212800D02*
X474000D01*
X472500Y211300D02*
Y214300D01*
X528500Y205000D02*
X531500D01*
X530000Y203500D02*
Y206500D01*
X548500Y240000D02*
X551500D01*
X550000Y238500D02*
Y241500D01*
X418500Y260000D02*
X421500D01*
X420000Y258500D02*
Y261500D01*
X548500Y260000D02*
X551500D01*
X550000Y258500D02*
Y261500D01*
X518500Y290000D02*
X521500D01*
X520000Y288500D02*
Y291500D01*
X538500Y295000D02*
X541500D01*
X540000Y293500D02*
Y296500D01*
X601000Y150000D02*
X604000D01*
X602500Y148500D02*
Y151500D01*
X678500Y172500D02*
X681500D01*
X680000Y171000D02*
Y174000D01*
X496000Y42500D02*
X499000D01*
X497500Y41000D02*
Y44000D01*
X411000Y110000D02*
X414000D01*
X412500Y108500D02*
Y111500D01*
X552000Y316200D02*
X555000D01*
X553500Y314700D02*
Y317700D01*
X846000Y119500D02*
X849000D01*
X847500Y118000D02*
Y121000D01*
X828500Y119500D02*
X831500D01*
X830000Y118000D02*
Y121000D01*
X216000Y320000D02*
X219000D01*
X217500Y318500D02*
Y321500D01*
X196000Y320000D02*
X199000D01*
X197500Y318500D02*
Y321500D01*
X16000Y410000D02*
X19000D01*
X17500Y408500D02*
Y411500D01*
X108500Y397500D02*
X111500D01*
X110000Y396000D02*
Y399000D01*
X390500Y240000D02*
X393500D01*
X392000Y238500D02*
Y241500D01*
X868500Y300541D02*
X871500D01*
X870000Y299041D02*
Y302041D01*
X833500Y152000D02*
X836500D01*
X835000Y150500D02*
Y153500D01*
X853500Y152000D02*
X856500D01*
X855000Y150500D02*
Y153500D01*
X701000Y517500D02*
X704000D01*
X702500Y516000D02*
Y519000D01*
X838866Y397549D02*
X841866D01*
X840366Y396049D02*
Y399049D01*
M02*
