G04*
G04 #@! TF.GenerationSoftware,Altium Limited,Altium Designer,23.0.1 (38)*
G04*
G04 Layer_Color=16711935*
%FSLAX44Y44*%
%MOMM*%
G71*
G04*
G04 #@! TF.SameCoordinates,A400D9DA-BE9D-43B9-9025-6262B0EBFE75*
G04*
G04*
G04 #@! TF.FilePolarity,Negative*
G04*
G01*
G75*
G04:AMPARAMS|DCode=39|XSize=0.8032mm|YSize=1.7532mm|CornerRadius=0.2516mm|HoleSize=0mm|Usage=FLASHONLY|Rotation=90.000|XOffset=0mm|YOffset=0mm|HoleType=Round|Shape=RoundedRectangle|*
%AMROUNDEDRECTD39*
21,1,0.8032,1.2500,0,0,90.0*
21,1,0.3000,1.7532,0,0,90.0*
1,1,0.5032,0.6250,0.1500*
1,1,0.5032,0.6250,-0.1500*
1,1,0.5032,-0.6250,-0.1500*
1,1,0.5032,-0.6250,0.1500*
%
%ADD39ROUNDEDRECTD39*%
G04:AMPARAMS|DCode=40|XSize=0.8032mm|YSize=1.7532mm|CornerRadius=0.2516mm|HoleSize=0mm|Usage=FLASHONLY|Rotation=0.000|XOffset=0mm|YOffset=0mm|HoleType=Round|Shape=RoundedRectangle|*
%AMROUNDEDRECTD40*
21,1,0.8032,1.2500,0,0,0.0*
21,1,0.3000,1.7532,0,0,0.0*
1,1,0.5032,0.1500,-0.6250*
1,1,0.5032,-0.1500,-0.6250*
1,1,0.5032,-0.1500,0.6250*
1,1,0.5032,0.1500,0.6250*
%
%ADD40ROUNDEDRECTD40*%
%ADD41C,1.2032*%
%ADD44R,1.5532X1.3532*%
%ADD45R,3.7032X1.7032*%
%ADD46R,1.1032X1.5032*%
G04:AMPARAMS|DCode=47|XSize=0.8032mm|YSize=1.6532mm|CornerRadius=0.2516mm|HoleSize=0mm|Usage=FLASHONLY|Rotation=0.000|XOffset=0mm|YOffset=0mm|HoleType=Round|Shape=RoundedRectangle|*
%AMROUNDEDRECTD47*
21,1,0.8032,1.1500,0,0,0.0*
21,1,0.3000,1.6532,0,0,0.0*
1,1,0.5032,0.1500,-0.5750*
1,1,0.5032,-0.1500,-0.5750*
1,1,0.5032,-0.1500,0.5750*
1,1,0.5032,0.1500,0.5750*
%
%ADD47ROUNDEDRECTD47*%
%ADD48R,1.5032X1.1032*%
%ADD59R,1.3532X1.5532*%
%ADD62C,1.8032*%
%ADD63R,1.8032X1.8032*%
%ADD64C,2.2032*%
G04:AMPARAMS|DCode=65|XSize=2.2032mm|YSize=2.2032mm|CornerRadius=0.6016mm|HoleSize=0mm|Usage=FLASHONLY|Rotation=180.000|XOffset=0mm|YOffset=0mm|HoleType=Round|Shape=RoundedRectangle|*
%AMROUNDEDRECTD65*
21,1,2.2032,1.0000,0,0,180.0*
21,1,1.0000,2.2032,0,0,180.0*
1,1,1.2032,-0.5000,0.5000*
1,1,1.2032,0.5000,0.5000*
1,1,1.2032,0.5000,-0.5000*
1,1,1.2032,-0.5000,-0.5000*
%
%ADD65ROUNDEDRECTD65*%
%ADD66C,7.2032*%
%ADD67C,1.7032*%
%ADD68R,1.4032X1.4032*%
%ADD69C,1.4032*%
G04:AMPARAMS|DCode=89|XSize=0.8032mm|YSize=1.6532mm|CornerRadius=0.2516mm|HoleSize=0mm|Usage=FLASHONLY|Rotation=270.000|XOffset=0mm|YOffset=0mm|HoleType=Round|Shape=RoundedRectangle|*
%AMROUNDEDRECTD89*
21,1,0.8032,1.1500,0,0,270.0*
21,1,0.3000,1.6532,0,0,270.0*
1,1,0.5032,-0.5750,-0.1500*
1,1,0.5032,-0.5750,0.1500*
1,1,0.5032,0.5750,0.1500*
1,1,0.5032,0.5750,-0.1500*
%
%ADD89ROUNDEDRECTD89*%
%ADD90R,2.1532X1.6032*%
%ADD91R,1.6032X2.1532*%
G04:AMPARAMS|DCode=92|XSize=0.8532mm|YSize=1.4532mm|CornerRadius=0.2641mm|HoleSize=0mm|Usage=FLASHONLY|Rotation=180.000|XOffset=0mm|YOffset=0mm|HoleType=Round|Shape=RoundedRectangle|*
%AMROUNDEDRECTD92*
21,1,0.8532,0.9250,0,0,180.0*
21,1,0.3250,1.4532,0,0,180.0*
1,1,0.5282,-0.1625,0.4625*
1,1,0.5282,0.1625,0.4625*
1,1,0.5282,0.1625,-0.4625*
1,1,0.5282,-0.1625,-0.4625*
%
%ADD92ROUNDEDRECTD92*%
%ADD93R,1.7032X3.7032*%
G36*
X672424Y44012D02*
X673885D01*
Y43953D01*
X674703D01*
Y43895D01*
X675346D01*
Y43836D01*
X675872D01*
Y43778D01*
X676397D01*
Y43719D01*
X676982D01*
Y43661D01*
X677391D01*
Y43602D01*
X677683D01*
Y43544D01*
X678092D01*
Y43486D01*
X678443D01*
Y43427D01*
X678793D01*
Y43369D01*
X679085D01*
Y43310D01*
X679378D01*
Y43252D01*
X679670D01*
Y43193D01*
X680020D01*
Y43135D01*
X680313D01*
Y43077D01*
X680546D01*
Y43018D01*
X680780D01*
Y42960D01*
X681014D01*
Y42901D01*
X681306D01*
Y42843D01*
X681598D01*
Y42784D01*
X681774D01*
Y42726D01*
X682007D01*
Y42667D01*
X682241D01*
Y42609D01*
X682475D01*
Y42551D01*
X682650D01*
Y42492D01*
X682825D01*
Y42434D01*
X683059D01*
Y42375D01*
X683293D01*
Y42317D01*
X683468D01*
Y42259D01*
X683702D01*
Y42200D01*
X683819D01*
Y42142D01*
X684052D01*
Y42083D01*
X684228D01*
Y42025D01*
X684403D01*
Y41966D01*
X684520D01*
Y41908D01*
X684695D01*
Y41849D01*
X684871D01*
Y41791D01*
X685046D01*
Y41733D01*
X685221D01*
Y41674D01*
X685338D01*
Y41616D01*
X685513D01*
Y41557D01*
X685688D01*
Y41499D01*
X685805D01*
Y41440D01*
X685981D01*
Y41382D01*
X686098D01*
Y41323D01*
X686214D01*
Y41265D01*
X686390D01*
Y41207D01*
X686507D01*
Y41148D01*
X686682D01*
Y41090D01*
X686799D01*
Y41031D01*
X686916D01*
Y40973D01*
X687091D01*
Y40915D01*
X687208D01*
Y40856D01*
X687325D01*
Y40798D01*
X687500D01*
Y40739D01*
X687617D01*
Y40681D01*
X687734D01*
Y40622D01*
X687851D01*
Y40564D01*
X687967D01*
Y40505D01*
X688084D01*
Y40447D01*
X688201D01*
Y40389D01*
X688318D01*
Y40330D01*
X688435D01*
Y40272D01*
X688610D01*
Y40213D01*
X688669D01*
Y40155D01*
X688785D01*
Y40096D01*
X688902D01*
Y40038D01*
X689019D01*
Y39980D01*
X689136D01*
Y39921D01*
X689253D01*
Y39863D01*
X689370D01*
Y39804D01*
X689428D01*
Y39687D01*
X689370D01*
Y39746D01*
X689195D01*
Y39804D01*
X689019D01*
Y39863D01*
X688902D01*
Y39921D01*
X688785D01*
Y39980D01*
X688610D01*
Y40038D01*
X688493D01*
Y40096D01*
X688376D01*
Y40155D01*
X688260D01*
Y40213D01*
X688084D01*
Y40272D01*
X687909D01*
Y40330D01*
X687792D01*
Y40389D01*
X687617D01*
Y40447D01*
X687500D01*
Y40505D01*
X687325D01*
Y40564D01*
X687149D01*
Y40622D01*
X686974D01*
Y40681D01*
X686799D01*
Y40739D01*
X686624D01*
Y40798D01*
X686448D01*
Y40856D01*
X686331D01*
Y40915D01*
X686156D01*
Y40973D01*
X685981D01*
Y41031D01*
X685805D01*
Y41090D01*
X685630D01*
Y41148D01*
X685455D01*
Y41207D01*
X685279D01*
Y41265D01*
X685104D01*
Y41323D01*
X684929D01*
Y41382D01*
X684695D01*
Y41440D01*
X684520D01*
Y41499D01*
X684345D01*
Y41557D01*
X684169D01*
Y41616D01*
X683994D01*
Y41674D01*
X683760D01*
Y41733D01*
X683585D01*
Y41791D01*
X683351D01*
Y41849D01*
X683176D01*
Y41908D01*
X682942D01*
Y41966D01*
X682708D01*
Y42025D01*
X682475D01*
Y42083D01*
X682241D01*
Y42142D01*
X682066D01*
Y42200D01*
X681774D01*
Y42259D01*
X681540D01*
Y42317D01*
X681306D01*
Y42375D01*
X681014D01*
Y42434D01*
X680780D01*
Y42492D01*
X680488D01*
Y42551D01*
X680196D01*
Y42609D01*
X679962D01*
Y42667D01*
X679670D01*
Y42726D01*
X679319D01*
Y42784D01*
X679027D01*
Y42843D01*
X678735D01*
Y42901D01*
X678443D01*
Y42960D01*
X678092D01*
Y43018D01*
X677741D01*
Y43077D01*
X677333D01*
Y43135D01*
X676982D01*
Y43193D01*
X676631D01*
Y43252D01*
X676164D01*
Y43310D01*
X675755D01*
Y43369D01*
X675287D01*
Y43427D01*
X674761D01*
Y43486D01*
X674294D01*
Y43544D01*
X673651D01*
Y43602D01*
X673008D01*
Y43661D01*
X672249D01*
Y43719D01*
X671489D01*
Y43778D01*
X670437D01*
Y43836D01*
X668859D01*
Y43895D01*
X668918D01*
Y43953D01*
X669210D01*
Y44012D01*
X670905D01*
Y44070D01*
X672424D01*
Y44012D01*
D02*
G37*
G36*
X662490Y37642D02*
X663834D01*
Y37584D01*
X664944D01*
Y37525D01*
X665704D01*
Y37467D01*
X666347D01*
Y37408D01*
X667048D01*
Y37350D01*
X667632D01*
Y37292D01*
X668217D01*
Y37233D01*
X668801D01*
Y37175D01*
X669152D01*
Y37116D01*
X669619D01*
Y37058D01*
X670145D01*
Y36999D01*
X670554D01*
Y36941D01*
X670905D01*
Y36883D01*
X671255D01*
Y36824D01*
X671664D01*
Y36766D01*
X672015D01*
Y36707D01*
X672424D01*
Y36649D01*
X672775D01*
Y36590D01*
X672833D01*
Y36474D01*
X671898D01*
Y36532D01*
X670788D01*
Y36590D01*
X669678D01*
Y36649D01*
X668158D01*
Y36707D01*
X666639D01*
Y36766D01*
X664944D01*
Y36824D01*
X659393D01*
Y36766D01*
X657406D01*
Y36707D01*
X655946D01*
Y36649D01*
X654777D01*
Y36590D01*
X653784D01*
Y36532D01*
X652965D01*
Y36474D01*
X652323D01*
Y36415D01*
X651621D01*
Y36357D01*
X650979D01*
Y36298D01*
X650394D01*
Y36240D01*
X649927D01*
Y36181D01*
X649459D01*
Y36123D01*
X648992D01*
Y36065D01*
X648524D01*
Y36006D01*
X648115D01*
Y35948D01*
X647823D01*
Y35772D01*
X647882D01*
Y35539D01*
X647940D01*
Y35363D01*
X647999D01*
Y35188D01*
X648057D01*
Y34954D01*
X648115D01*
Y34779D01*
X648174D01*
Y34604D01*
X648115D01*
Y34662D01*
X648057D01*
Y34720D01*
X647999D01*
Y34779D01*
X647940D01*
Y34896D01*
X647882D01*
Y34954D01*
X647823D01*
Y35071D01*
X647765D01*
Y35129D01*
X647706D01*
Y35246D01*
X647648D01*
Y35305D01*
X647589D01*
Y35422D01*
X647531D01*
Y35480D01*
X647473D01*
Y35597D01*
X647414D01*
Y35714D01*
X647356D01*
Y35772D01*
X647297D01*
Y35889D01*
X647239D01*
Y35948D01*
X647180D01*
Y36065D01*
X647122D01*
Y36123D01*
X647064D01*
Y36240D01*
X647005D01*
Y36298D01*
X646947D01*
Y36415D01*
X646888D01*
Y36474D01*
X646947D01*
Y36532D01*
X647180D01*
Y36590D01*
X647414D01*
Y36649D01*
X647706D01*
Y36707D01*
X647999D01*
Y36766D01*
X648291D01*
Y36824D01*
X648641D01*
Y36883D01*
X648992D01*
Y36941D01*
X649284D01*
Y36999D01*
X649693D01*
Y37058D01*
X650102D01*
Y37116D01*
X650570D01*
Y37175D01*
X650979D01*
Y37233D01*
X651388D01*
Y37292D01*
X651972D01*
Y37350D01*
X652498D01*
Y37408D01*
X653199D01*
Y37467D01*
X653784D01*
Y37525D01*
X654602D01*
Y37584D01*
X655537D01*
Y37642D01*
X657056D01*
Y37701D01*
X662490D01*
Y37642D01*
D02*
G37*
G36*
X636253Y37993D02*
X636662D01*
Y37934D01*
X637013D01*
Y37876D01*
X637247D01*
Y37817D01*
X637481D01*
Y37759D01*
X637656D01*
Y37701D01*
X637831D01*
Y37642D01*
X638006D01*
Y37584D01*
X638182D01*
Y37525D01*
X638357D01*
Y37467D01*
X638474D01*
Y37408D01*
X638591D01*
Y37350D01*
X638708D01*
Y37292D01*
X638824D01*
Y37233D01*
X638941D01*
Y37175D01*
X639058D01*
Y37116D01*
X639175D01*
Y37058D01*
X639292D01*
Y36999D01*
X639350D01*
Y36941D01*
X639467D01*
Y36883D01*
X639526D01*
Y36824D01*
X639642D01*
Y36766D01*
X639701D01*
Y36707D01*
X639818D01*
Y36649D01*
X639876D01*
Y36590D01*
X639993D01*
Y36532D01*
X640051D01*
Y36474D01*
X640110D01*
Y36415D01*
X640227D01*
Y36357D01*
X640285D01*
Y36298D01*
X640344D01*
Y36240D01*
X640402D01*
Y36181D01*
X640461D01*
Y36123D01*
X640519D01*
Y36065D01*
X640577D01*
Y36006D01*
X640636D01*
Y35948D01*
X640753D01*
Y35831D01*
X640811D01*
Y35772D01*
X640870D01*
Y35714D01*
X640928D01*
Y35597D01*
X640870D01*
Y35655D01*
X640811D01*
Y35714D01*
X640753D01*
Y35772D01*
X640636D01*
Y35831D01*
X640577D01*
Y35889D01*
X640519D01*
Y35948D01*
X640461D01*
Y36006D01*
X640344D01*
Y36065D01*
X640285D01*
Y36123D01*
X640227D01*
Y36181D01*
X640168D01*
Y36240D01*
X640051D01*
Y36298D01*
X639993D01*
Y36357D01*
X639876D01*
Y36415D01*
X639818D01*
Y36474D01*
X639701D01*
Y36532D01*
X639584D01*
Y36590D01*
X639526D01*
Y36649D01*
X639409D01*
Y36707D01*
X639292D01*
Y36766D01*
X639175D01*
Y36824D01*
X639058D01*
Y36883D01*
X638941D01*
Y36941D01*
X638766D01*
Y36999D01*
X638649D01*
Y37058D01*
X638532D01*
Y37116D01*
X638357D01*
Y37175D01*
X638182D01*
Y37233D01*
X638006D01*
Y37292D01*
X637831D01*
Y37350D01*
X637597D01*
Y37408D01*
X637364D01*
Y37467D01*
X637013D01*
Y37525D01*
X636545D01*
Y37584D01*
X635143D01*
Y37525D01*
X634617D01*
Y37467D01*
X634325D01*
Y37408D01*
X634033D01*
Y37350D01*
X633858D01*
Y37292D01*
X633682D01*
Y37233D01*
X633448D01*
Y37175D01*
X633273D01*
Y37116D01*
X633156D01*
Y37058D01*
X632981D01*
Y36999D01*
X632864D01*
Y36941D01*
X632747D01*
Y36883D01*
X632572D01*
Y36824D01*
X632514D01*
Y36766D01*
X632397D01*
Y36707D01*
X632280D01*
Y36649D01*
X632163D01*
Y36590D01*
X632046D01*
Y36532D01*
X631988D01*
Y36474D01*
X631871D01*
Y36415D01*
X631754D01*
Y36357D01*
X631696D01*
Y36298D01*
X631579D01*
Y36240D01*
X631520D01*
Y36181D01*
X631462D01*
Y36123D01*
X631345D01*
Y36065D01*
X631286D01*
Y36006D01*
X631228D01*
Y35948D01*
X631111D01*
Y35889D01*
X631053D01*
Y35831D01*
X630994D01*
Y35772D01*
X630936D01*
Y35714D01*
X630877D01*
Y35655D01*
X630819D01*
Y35597D01*
X630760D01*
Y35539D01*
X630702D01*
Y35480D01*
X630644D01*
Y35422D01*
X630585D01*
Y35363D01*
X630527D01*
Y35305D01*
X630468D01*
Y35246D01*
X630410D01*
Y35188D01*
X630351D01*
Y35129D01*
X630293D01*
Y35071D01*
X630235D01*
Y34954D01*
X630176D01*
Y34896D01*
X630118D01*
Y34837D01*
X630059D01*
Y34779D01*
X630001D01*
Y34662D01*
X629943D01*
Y34604D01*
X629884D01*
Y34545D01*
X629826D01*
Y34428D01*
X629767D01*
Y34370D01*
X629709D01*
Y34253D01*
X629650D01*
Y34195D01*
X629592D01*
Y34078D01*
X629533D01*
Y33961D01*
X629475D01*
Y33902D01*
X629417D01*
Y33786D01*
X629358D01*
Y33669D01*
X629300D01*
Y33552D01*
X629241D01*
Y33435D01*
X629183D01*
Y33318D01*
X629124D01*
Y33260D01*
Y33143D01*
X629066D01*
Y33026D01*
X629007D01*
Y32851D01*
X628949D01*
Y32734D01*
X628891D01*
Y32558D01*
X628832D01*
Y32325D01*
X628774D01*
Y32091D01*
X628715D01*
Y31857D01*
X628657D01*
Y31799D01*
X628598D01*
Y31740D01*
X628014D01*
Y31799D01*
X627897D01*
Y31974D01*
X627956D01*
Y32208D01*
X628014D01*
Y32383D01*
X628073D01*
Y32617D01*
X628131D01*
Y32792D01*
X628189D01*
Y32909D01*
X628248D01*
Y33084D01*
X628306D01*
Y33260D01*
X628365D01*
Y33377D01*
X628423D01*
Y33493D01*
X628482D01*
Y33610D01*
X628540D01*
Y33727D01*
X628598D01*
Y33844D01*
X628657D01*
Y33961D01*
X628715D01*
Y34078D01*
X628774D01*
Y34195D01*
X628832D01*
Y34311D01*
X628891D01*
Y34370D01*
X628949D01*
Y34487D01*
X629007D01*
Y34545D01*
X629066D01*
Y34662D01*
X629124D01*
Y34720D01*
X629183D01*
Y34837D01*
X629241D01*
Y34896D01*
X629300D01*
Y34954D01*
X629358D01*
Y35071D01*
X629417D01*
Y35129D01*
X629475D01*
Y35188D01*
X629533D01*
Y35305D01*
X629592D01*
Y35363D01*
X629650D01*
Y35422D01*
X629709D01*
Y35480D01*
X629767D01*
Y35539D01*
X629826D01*
Y35597D01*
X629884D01*
Y35655D01*
X629943D01*
Y35714D01*
X630001D01*
Y35772D01*
X630059D01*
Y35831D01*
X630118D01*
Y35889D01*
X630176D01*
Y35948D01*
X630235D01*
Y36006D01*
X630293D01*
Y36065D01*
X630351D01*
Y36123D01*
X630410D01*
Y36181D01*
X630468D01*
Y36240D01*
X630585D01*
Y36298D01*
X630644D01*
Y36357D01*
X630702D01*
Y36415D01*
X630760D01*
Y36474D01*
X630877D01*
Y36532D01*
X630936D01*
Y36590D01*
X630994D01*
Y36649D01*
X631111D01*
Y36707D01*
X631170D01*
Y36766D01*
X631286D01*
Y36824D01*
X631345D01*
Y36883D01*
X631462D01*
Y36941D01*
X631520D01*
Y36999D01*
X631637D01*
Y37058D01*
X631754D01*
Y37116D01*
X631871D01*
Y37175D01*
X631988D01*
Y37233D01*
X632105D01*
Y37292D01*
X632221D01*
Y37350D01*
X632338D01*
Y37408D01*
X632455D01*
Y37467D01*
X632630D01*
Y37525D01*
X632747D01*
Y37584D01*
X632923D01*
Y37642D01*
X633098D01*
Y37701D01*
X633273D01*
Y37759D01*
X633448D01*
Y37817D01*
X633682D01*
Y37876D01*
X633974D01*
Y37934D01*
X634325D01*
Y37993D01*
X634734D01*
Y38051D01*
X636253D01*
Y37993D01*
D02*
G37*
G36*
X668217Y50381D02*
X668743D01*
Y50322D01*
X669152D01*
Y50264D01*
X669561D01*
Y50205D01*
X669970D01*
Y50147D01*
X670320D01*
Y50089D01*
X670671D01*
Y50030D01*
X670905D01*
Y49972D01*
X671197D01*
Y49913D01*
X671489D01*
Y49855D01*
X671723D01*
Y49797D01*
X671956D01*
Y49738D01*
X672190D01*
Y49680D01*
X672366D01*
Y49621D01*
X672599D01*
Y49563D01*
X672833D01*
Y49504D01*
X673008D01*
Y49446D01*
X673242D01*
Y49387D01*
X673417D01*
Y49329D01*
X673593D01*
Y49271D01*
X673826D01*
Y49212D01*
X673943D01*
Y49154D01*
X674119D01*
Y49095D01*
X674294D01*
Y49037D01*
X674528D01*
Y48978D01*
X674703D01*
Y48920D01*
X674820D01*
Y48861D01*
X674995D01*
Y48803D01*
X675170D01*
Y48745D01*
X675287D01*
Y48686D01*
X675463D01*
Y48628D01*
X675579D01*
Y48569D01*
X675755D01*
Y48511D01*
X675930D01*
Y48453D01*
X676105D01*
Y48394D01*
X676222D01*
Y48336D01*
X676397D01*
Y48277D01*
X676514D01*
Y48219D01*
X676631D01*
Y48160D01*
X676807D01*
Y48102D01*
X676923D01*
Y48043D01*
X677040D01*
Y47985D01*
X677157D01*
Y47927D01*
X677333D01*
Y47868D01*
X677449D01*
Y47810D01*
X677566D01*
Y47751D01*
X677683D01*
Y47693D01*
X677858D01*
Y47634D01*
X677975D01*
Y47576D01*
X678092D01*
Y47517D01*
X678209D01*
Y47459D01*
X678326D01*
Y47401D01*
X678443D01*
Y47342D01*
X678560D01*
Y47284D01*
X678676D01*
Y47225D01*
X678793D01*
Y47167D01*
X678910D01*
Y47108D01*
X679085D01*
Y47050D01*
X679202D01*
Y46992D01*
X679319D01*
Y46933D01*
X679436D01*
Y46875D01*
X679553D01*
Y46816D01*
X679670D01*
Y46758D01*
X679787D01*
Y46700D01*
X679904D01*
Y46641D01*
X680020D01*
Y46583D01*
X680137D01*
Y46524D01*
X680254D01*
Y46466D01*
X680371D01*
Y46407D01*
X680488D01*
Y46349D01*
X680605D01*
Y46290D01*
X680722D01*
Y46232D01*
X680838D01*
Y46174D01*
X680955D01*
Y46115D01*
X681014D01*
Y46057D01*
X681131D01*
Y45998D01*
X681247D01*
Y45940D01*
X681364D01*
Y45881D01*
X681481D01*
Y45823D01*
X681598D01*
Y45764D01*
X681715D01*
Y45706D01*
X681832D01*
Y45648D01*
X681949D01*
Y45589D01*
X682007D01*
Y45531D01*
X682124D01*
Y45472D01*
X682241D01*
Y45414D01*
X682358D01*
Y45356D01*
X682475D01*
Y45297D01*
X682591D01*
Y45239D01*
X682708D01*
Y45180D01*
X682767D01*
Y45122D01*
X682942D01*
Y45063D01*
X683000D01*
Y45005D01*
X683118D01*
Y44946D01*
X683234D01*
Y44888D01*
X683351D01*
Y44830D01*
X683468D01*
Y44771D01*
X683585D01*
Y44713D01*
X683643D01*
Y44654D01*
X683760D01*
Y44596D01*
X683877D01*
Y44537D01*
X683994D01*
Y44479D01*
X684111D01*
Y44420D01*
X684169D01*
Y44362D01*
X684286D01*
Y44304D01*
X684403D01*
Y44245D01*
X684520D01*
Y44187D01*
X684637D01*
Y44128D01*
X684695D01*
Y44070D01*
X684812D01*
Y44012D01*
X684929D01*
Y43953D01*
X685046D01*
Y43895D01*
X685104D01*
Y43836D01*
X685221D01*
Y43778D01*
X685338D01*
Y43719D01*
X685455D01*
Y43661D01*
X685513D01*
Y43602D01*
X685630D01*
Y43544D01*
X685747D01*
Y43486D01*
X685864D01*
Y43427D01*
X685981D01*
Y43369D01*
X686039D01*
Y43310D01*
X686156D01*
Y43252D01*
X686273D01*
Y43193D01*
X686390D01*
Y43135D01*
X686448D01*
Y43077D01*
X686565D01*
Y43018D01*
X686682D01*
Y42960D01*
X686740D01*
Y42901D01*
X686857D01*
Y42843D01*
X686974D01*
Y42784D01*
X687091D01*
Y42726D01*
X687149D01*
Y42667D01*
X687266D01*
Y42609D01*
X687383D01*
Y42551D01*
X687500D01*
Y42492D01*
X687558D01*
Y42434D01*
X687675D01*
Y42375D01*
X687792D01*
Y42317D01*
X687909D01*
Y42259D01*
X687967D01*
Y42200D01*
X688084D01*
Y42142D01*
X688201D01*
Y42083D01*
X688260D01*
Y42025D01*
X688376D01*
Y41966D01*
X688493D01*
Y41908D01*
X688552D01*
Y41849D01*
X688669D01*
Y41791D01*
X688785D01*
Y41733D01*
X688902D01*
Y41674D01*
X688961D01*
Y41616D01*
X689078D01*
Y41557D01*
X689195D01*
Y41499D01*
X689311D01*
Y41440D01*
X689370D01*
Y41382D01*
X689487D01*
Y41323D01*
X689604D01*
Y41265D01*
X689721D01*
Y41207D01*
X689779D01*
Y41148D01*
X689896D01*
Y41090D01*
X690013D01*
Y41031D01*
X690071D01*
Y40973D01*
X690188D01*
Y40915D01*
X690305D01*
Y40856D01*
X690422D01*
Y40798D01*
X690480D01*
Y40739D01*
X690597D01*
Y40681D01*
X690714D01*
Y40622D01*
X690772D01*
Y40564D01*
X690889D01*
Y40505D01*
X691006D01*
Y40447D01*
X691065D01*
Y40389D01*
X691181D01*
Y40330D01*
X691298D01*
Y40272D01*
X691357D01*
Y40213D01*
X691473D01*
Y40155D01*
X691590D01*
Y40096D01*
X691649D01*
Y40038D01*
X691766D01*
Y39980D01*
X691882D01*
Y39921D01*
X691999D01*
Y39863D01*
X692058D01*
Y39804D01*
X692175D01*
Y39746D01*
X692292D01*
Y39687D01*
X692408D01*
Y39629D01*
X692467D01*
Y39571D01*
X692584D01*
Y39512D01*
X692701D01*
Y39454D01*
X692818D01*
Y39395D01*
X692934D01*
Y39337D01*
X693051D01*
Y39278D01*
X693168D01*
Y39220D01*
X693285D01*
Y39162D01*
X693343D01*
Y39103D01*
X693460D01*
Y39045D01*
X693577D01*
Y38986D01*
X693694D01*
Y38928D01*
X693811D01*
Y38869D01*
X693928D01*
Y38811D01*
X694045D01*
Y38752D01*
X694162D01*
Y38694D01*
X694278D01*
Y38636D01*
X694395D01*
Y38577D01*
X694512D01*
Y38519D01*
X694629D01*
Y38460D01*
X694746D01*
Y38402D01*
X694863D01*
Y38343D01*
X695038D01*
Y38285D01*
X695155D01*
Y38226D01*
X695272D01*
Y38168D01*
X695389D01*
Y38110D01*
X695505D01*
Y38051D01*
X695622D01*
Y37993D01*
X695798D01*
Y37934D01*
X695915D01*
Y37876D01*
X696090D01*
Y37817D01*
X696207D01*
Y37759D01*
X696323D01*
Y37701D01*
X696499D01*
Y37642D01*
X696616D01*
Y37584D01*
X696733D01*
Y37525D01*
X696791D01*
Y37467D01*
X696908D01*
Y37408D01*
X697025D01*
Y37350D01*
X697083D01*
Y37292D01*
X697142D01*
Y37233D01*
X697259D01*
Y37175D01*
X697317D01*
Y37116D01*
X697375D01*
Y37058D01*
X697434D01*
Y36999D01*
X697492D01*
Y36941D01*
X697551D01*
Y36883D01*
X697609D01*
Y36824D01*
X697667D01*
Y36766D01*
X697726D01*
Y36707D01*
X697784D01*
Y36649D01*
X697843D01*
Y36590D01*
X697901D01*
Y36474D01*
X697960D01*
Y36415D01*
X698018D01*
Y36357D01*
X698077D01*
Y36240D01*
X698135D01*
Y36123D01*
X698193D01*
Y36006D01*
X698252D01*
Y35889D01*
X698310D01*
Y35772D01*
X698369D01*
Y35305D01*
X698310D01*
Y35246D01*
X697784D01*
Y35305D01*
X694278D01*
Y35246D01*
X693343D01*
Y35188D01*
X692876D01*
Y35129D01*
X692467D01*
Y35071D01*
X692116D01*
Y35013D01*
X691824D01*
Y34954D01*
X691590D01*
Y34896D01*
X691415D01*
Y34837D01*
X691240D01*
Y34779D01*
X691123D01*
Y34720D01*
X691065D01*
Y34662D01*
X690948D01*
Y34604D01*
X690889D01*
Y34545D01*
X690772D01*
Y34662D01*
X690831D01*
Y34720D01*
X690889D01*
Y34779D01*
X691006D01*
Y34837D01*
X691065D01*
Y34896D01*
X691181D01*
Y34954D01*
X691298D01*
Y35013D01*
X691473D01*
Y35071D01*
X691649D01*
Y35129D01*
X691882D01*
Y35188D01*
X692116D01*
Y35246D01*
X692350D01*
Y35305D01*
X692759D01*
Y35363D01*
X693343D01*
Y35422D01*
X693986D01*
Y35480D01*
X694804D01*
Y35539D01*
X696499D01*
Y35597D01*
X696616D01*
Y35539D01*
X696733D01*
Y35597D01*
X696908D01*
Y35539D01*
X697142D01*
Y35597D01*
X697259D01*
Y35539D01*
X698077D01*
Y35714D01*
X698018D01*
Y35889D01*
X697960D01*
Y35948D01*
X697901D01*
Y36065D01*
X697843D01*
Y36123D01*
X697784D01*
Y36240D01*
X697726D01*
Y36298D01*
X697667D01*
Y36357D01*
X697609D01*
Y36474D01*
X697551D01*
Y36532D01*
X697492D01*
Y36590D01*
X697434D01*
Y36649D01*
X697375D01*
Y36707D01*
X697317D01*
Y36766D01*
X697200D01*
Y36824D01*
X697142D01*
Y36883D01*
X697083D01*
Y36941D01*
X697025D01*
Y36999D01*
X696908D01*
Y37058D01*
X696849D01*
Y37116D01*
X696733D01*
Y37175D01*
X696616D01*
Y37233D01*
X696499D01*
Y37292D01*
X696382D01*
Y37350D01*
X696265D01*
Y37408D01*
X696090D01*
Y37467D01*
X695973D01*
Y37525D01*
X695798D01*
Y37584D01*
X695681D01*
Y37642D01*
X695505D01*
Y37701D01*
X695389D01*
Y37759D01*
X695213D01*
Y37817D01*
X695096D01*
Y37876D01*
X694980D01*
Y37934D01*
X694863D01*
Y37993D01*
X694687D01*
Y38051D01*
X694570D01*
Y38110D01*
X694454D01*
Y38168D01*
X694337D01*
Y38226D01*
X694220D01*
Y38285D01*
X694045D01*
Y38343D01*
X693928D01*
Y38402D01*
X693811D01*
Y38460D01*
X693694D01*
Y38519D01*
X693577D01*
Y38577D01*
X693460D01*
Y38636D01*
X693343D01*
Y38694D01*
X693226D01*
Y38752D01*
X693110D01*
Y38811D01*
X692993D01*
Y38869D01*
X692876D01*
Y38928D01*
X692759D01*
Y38986D01*
X692642D01*
Y39045D01*
X692525D01*
Y39103D01*
X692408D01*
Y39162D01*
X692292D01*
Y39220D01*
X692175D01*
Y39278D01*
X692058D01*
Y39337D01*
X691999D01*
Y39395D01*
X691882D01*
Y39454D01*
X691766D01*
Y39512D01*
X691649D01*
Y39571D01*
X691532D01*
Y39629D01*
X691415D01*
Y39687D01*
X691298D01*
Y39746D01*
X691181D01*
Y39804D01*
X691123D01*
Y39863D01*
X691006D01*
Y39921D01*
X690889D01*
Y39980D01*
X690772D01*
Y40038D01*
X690655D01*
Y40096D01*
X690597D01*
Y40155D01*
X690480D01*
Y40213D01*
X690363D01*
Y40272D01*
X690246D01*
Y40330D01*
X690188D01*
Y40389D01*
X690071D01*
Y40447D01*
X689954D01*
Y40505D01*
X689896D01*
Y40564D01*
X689779D01*
Y40622D01*
X689662D01*
Y40681D01*
X689545D01*
Y40739D01*
X689428D01*
Y40798D01*
X689370D01*
Y40856D01*
X689253D01*
Y40915D01*
X689136D01*
Y40973D01*
X689019D01*
Y41031D01*
X688902D01*
Y41090D01*
X688785D01*
Y41148D01*
X688727D01*
Y41207D01*
X688610D01*
Y41265D01*
X688493D01*
Y41323D01*
X688376D01*
Y41382D01*
X688260D01*
Y41440D01*
X688201D01*
Y41499D01*
X688084D01*
Y41557D01*
X687967D01*
Y41616D01*
X687851D01*
Y41674D01*
X687734D01*
Y41733D01*
X687675D01*
Y41791D01*
X687558D01*
Y41849D01*
X687442D01*
Y41908D01*
X687325D01*
Y41966D01*
X687208D01*
Y42025D01*
X687149D01*
Y42083D01*
X687032D01*
Y42142D01*
X686916D01*
Y42200D01*
X686799D01*
Y42259D01*
X686740D01*
Y42317D01*
X686624D01*
Y42375D01*
X686507D01*
Y42434D01*
X686390D01*
Y42492D01*
X686273D01*
Y42551D01*
X686214D01*
Y42609D01*
X686098D01*
Y42667D01*
X685981D01*
Y42726D01*
X685864D01*
Y42784D01*
X685805D01*
Y42843D01*
X685688D01*
Y42901D01*
X685572D01*
Y42960D01*
X685455D01*
Y43018D01*
X685338D01*
Y43077D01*
X685221D01*
Y43135D01*
X685104D01*
Y43193D01*
X685046D01*
Y43252D01*
X684929D01*
Y43310D01*
X684812D01*
Y43369D01*
X684695D01*
Y43427D01*
X684578D01*
Y43486D01*
X684461D01*
Y43544D01*
X684403D01*
Y43602D01*
X684286D01*
Y43661D01*
X684169D01*
Y43719D01*
X684052D01*
Y43778D01*
X683935D01*
Y43836D01*
X683819D01*
Y43895D01*
X683702D01*
Y43953D01*
X683643D01*
Y44012D01*
X683527D01*
Y44070D01*
X683410D01*
Y44128D01*
X683293D01*
Y44187D01*
X683176D01*
Y44245D01*
X683059D01*
Y44304D01*
X682942D01*
Y44362D01*
X682884D01*
Y44420D01*
X682767D01*
Y44479D01*
X682650D01*
Y44537D01*
X682533D01*
Y44596D01*
X682416D01*
Y44654D01*
X682299D01*
Y44713D01*
X682182D01*
Y44771D01*
X682066D01*
Y44830D01*
X681949D01*
Y44888D01*
X681832D01*
Y44946D01*
X681715D01*
Y45005D01*
X681598D01*
Y45063D01*
X681481D01*
Y45122D01*
X681364D01*
Y45180D01*
X681247D01*
Y45239D01*
X681131D01*
Y45297D01*
X681014D01*
Y45356D01*
X680897D01*
Y45414D01*
X680780D01*
Y45472D01*
X680663D01*
Y45531D01*
X680546D01*
Y45589D01*
X680430D01*
Y45648D01*
X680313D01*
Y45706D01*
X680254D01*
Y45764D01*
X680079D01*
Y45823D01*
X679962D01*
Y45881D01*
X679845D01*
Y45940D01*
X679728D01*
Y45998D01*
X679611D01*
Y46057D01*
X679494D01*
Y46115D01*
X679378D01*
Y46174D01*
X679261D01*
Y46232D01*
X679144D01*
Y46290D01*
X679027D01*
Y46349D01*
X678910D01*
Y46407D01*
X678793D01*
Y46466D01*
X678618D01*
Y46524D01*
X678501D01*
Y46583D01*
X678384D01*
Y46641D01*
X678267D01*
Y46700D01*
X678150D01*
Y46758D01*
X678034D01*
Y46816D01*
X677917D01*
Y46875D01*
X677800D01*
Y46933D01*
X677625D01*
Y46992D01*
X677508D01*
Y47050D01*
X677391D01*
Y47108D01*
X677274D01*
Y47167D01*
X677099D01*
Y47225D01*
X676982D01*
Y47284D01*
X676807D01*
Y47342D01*
X676690D01*
Y47401D01*
X676573D01*
Y47459D01*
X676456D01*
Y47517D01*
X676281D01*
Y47576D01*
X676164D01*
Y47634D01*
X675988D01*
Y47693D01*
X675872D01*
Y47751D01*
X675696D01*
Y47810D01*
X675521D01*
Y47868D01*
X675346D01*
Y47927D01*
X675229D01*
Y47985D01*
X675053D01*
Y48043D01*
X674937D01*
Y48102D01*
X674761D01*
Y48160D01*
X674586D01*
Y48219D01*
X674411D01*
Y48277D01*
X674235D01*
Y48336D01*
X674060D01*
Y48394D01*
X673826D01*
Y48453D01*
X673709D01*
Y48511D01*
X673476D01*
Y48569D01*
X673300D01*
Y48628D01*
X673067D01*
Y48686D01*
X672891D01*
Y48745D01*
X672658D01*
Y48803D01*
X672482D01*
Y48861D01*
X672249D01*
Y48920D01*
X672015D01*
Y48978D01*
X671781D01*
Y49037D01*
X671547D01*
Y49095D01*
X671255D01*
Y49154D01*
X670963D01*
Y49212D01*
X670671D01*
Y49271D01*
X670379D01*
Y49329D01*
X670028D01*
Y49387D01*
X669678D01*
Y49446D01*
X669210D01*
Y49504D01*
X668684D01*
Y49563D01*
X668100D01*
Y49621D01*
X665353D01*
Y49563D01*
X664944D01*
Y49504D01*
X664828D01*
Y49387D01*
X664886D01*
Y49329D01*
X664944D01*
Y49271D01*
X665003D01*
Y49154D01*
X665061D01*
Y49095D01*
X665120D01*
Y49037D01*
X665178D01*
Y48920D01*
X665237D01*
Y48861D01*
X665295D01*
Y48745D01*
X665353D01*
Y48686D01*
X665412D01*
Y48628D01*
X665470D01*
Y48511D01*
X665529D01*
Y48453D01*
X665587D01*
Y48336D01*
X665646D01*
Y48277D01*
X665704D01*
Y48219D01*
X665762D01*
Y48102D01*
X665821D01*
Y48043D01*
X665879D01*
Y47985D01*
X665938D01*
Y47868D01*
X665996D01*
Y47810D01*
X666055D01*
Y47693D01*
X666113D01*
Y47634D01*
X666172D01*
Y47576D01*
X666230D01*
Y47459D01*
X666288D01*
Y47401D01*
X666347D01*
Y47342D01*
X666405D01*
Y47225D01*
X666464D01*
Y47167D01*
X666522D01*
Y47108D01*
X666581D01*
Y46992D01*
X666639D01*
Y46933D01*
X666697D01*
Y46816D01*
X666756D01*
Y46758D01*
X666814D01*
Y46700D01*
X666873D01*
Y46583D01*
X666931D01*
Y46524D01*
X666990D01*
Y46466D01*
X667048D01*
Y46407D01*
X667106D01*
Y46290D01*
X667165D01*
Y46232D01*
X667223D01*
Y46174D01*
X667282D01*
Y46057D01*
X667340D01*
Y45998D01*
X667399D01*
Y45940D01*
X667457D01*
Y45823D01*
X667515D01*
Y45764D01*
X667574D01*
Y45706D01*
X667632D01*
Y45589D01*
X667691D01*
Y45531D01*
X667749D01*
Y45414D01*
X667808D01*
Y45297D01*
X667866D01*
Y45122D01*
X667925D01*
Y44946D01*
X667983D01*
Y44362D01*
X667925D01*
Y44128D01*
X667866D01*
Y44012D01*
X667808D01*
Y43895D01*
X667749D01*
Y43778D01*
X667691D01*
Y43719D01*
X667632D01*
Y43602D01*
X667574D01*
Y43544D01*
X667515D01*
Y43486D01*
X667457D01*
Y43427D01*
X667399D01*
Y43369D01*
X667340D01*
Y43310D01*
X667282D01*
Y43252D01*
X667223D01*
Y43193D01*
X667165D01*
Y43135D01*
X667048D01*
Y43077D01*
X666990D01*
Y43018D01*
X666873D01*
Y42960D01*
X666814D01*
Y42901D01*
X666697D01*
Y42843D01*
X666639D01*
Y42784D01*
X666522D01*
Y42726D01*
X666405D01*
Y42667D01*
X666288D01*
Y42609D01*
X666172D01*
Y42551D01*
X666055D01*
Y42492D01*
X665938D01*
Y42434D01*
X665762D01*
Y42375D01*
X665646D01*
Y42317D01*
X665470D01*
Y42259D01*
X665353D01*
Y42200D01*
X665178D01*
Y42142D01*
X665003D01*
Y42083D01*
X664828D01*
Y42025D01*
X664652D01*
Y41966D01*
X664418D01*
Y41908D01*
X664185D01*
Y41849D01*
X663951D01*
Y41791D01*
X663717D01*
Y41733D01*
X663484D01*
Y41674D01*
X663191D01*
Y41616D01*
X662899D01*
Y41557D01*
X662665D01*
Y41499D01*
X662432D01*
Y41440D01*
X662140D01*
Y41382D01*
X661847D01*
Y41323D01*
X661555D01*
Y41265D01*
X661263D01*
Y41207D01*
X661029D01*
Y41148D01*
X660679D01*
Y41090D01*
X660387D01*
Y41031D01*
X660094D01*
Y40973D01*
X659802D01*
Y40915D01*
X659510D01*
Y40856D01*
X659159D01*
Y40798D01*
X658809D01*
Y40739D01*
X658517D01*
Y40681D01*
X658224D01*
Y40622D01*
X657874D01*
Y40564D01*
X657523D01*
Y40505D01*
X657173D01*
Y40447D01*
X656822D01*
Y40389D01*
X656530D01*
Y40330D01*
X656179D01*
Y40272D01*
X655829D01*
Y40213D01*
X655478D01*
Y40155D01*
X655069D01*
Y40096D01*
X654777D01*
Y40038D01*
X654426D01*
Y39980D01*
X654017D01*
Y39921D01*
X653667D01*
Y39863D01*
X653258D01*
Y39804D01*
X652965D01*
Y39746D01*
X652556D01*
Y39687D01*
X652147D01*
Y39629D01*
X651738D01*
Y39571D01*
X651388D01*
Y39512D01*
X651037D01*
Y39454D01*
X650628D01*
Y39395D01*
X650219D01*
Y39337D01*
X649810D01*
Y39278D01*
X649459D01*
Y39220D01*
X649050D01*
Y39162D01*
X648641D01*
Y39103D01*
X648115D01*
Y39045D01*
X647765D01*
Y38986D01*
X647356D01*
Y38928D01*
X646947D01*
Y38869D01*
X646479D01*
Y38811D01*
X646012D01*
Y38752D01*
X645603D01*
Y38694D01*
X645194D01*
Y38636D01*
X644434D01*
Y38694D01*
X644259D01*
Y38752D01*
X644142D01*
Y38811D01*
X644025D01*
Y38869D01*
X643967D01*
Y38928D01*
X643850D01*
Y38986D01*
X643791D01*
Y39045D01*
X643733D01*
Y39103D01*
X643674D01*
Y39220D01*
X643616D01*
Y39278D01*
X643558D01*
Y39395D01*
X643499D01*
Y39512D01*
X643441D01*
Y39629D01*
X643382D01*
Y39804D01*
X643324D01*
Y39921D01*
X643265D01*
Y40096D01*
X643207D01*
Y40213D01*
X642623D01*
Y40155D01*
X641688D01*
Y40096D01*
X640694D01*
Y40038D01*
X639526D01*
Y39980D01*
X638649D01*
Y39921D01*
X638006D01*
Y39863D01*
X637422D01*
Y39804D01*
X636779D01*
Y39746D01*
X636137D01*
Y39687D01*
X635435D01*
Y39629D01*
X634793D01*
Y39571D01*
X634383D01*
Y39512D01*
X633916D01*
Y39454D01*
X633448D01*
Y39395D01*
X632923D01*
Y39337D01*
X632514D01*
Y39278D01*
X632046D01*
Y39220D01*
X631637D01*
Y39162D01*
X631170D01*
Y39103D01*
X630702D01*
Y39045D01*
X630351D01*
Y38986D01*
X630059D01*
Y38928D01*
X629650D01*
Y38869D01*
X629300D01*
Y38811D01*
X628949D01*
Y38752D01*
X628540D01*
Y38694D01*
X628248D01*
Y38636D01*
X627897D01*
Y38577D01*
X627488D01*
Y38519D01*
X627196D01*
Y38460D01*
X626904D01*
Y38402D01*
X626612D01*
Y38343D01*
X626320D01*
Y38285D01*
X626027D01*
Y38226D01*
X625735D01*
Y38168D01*
X625443D01*
Y38110D01*
X625151D01*
Y38051D01*
X624859D01*
Y37993D01*
X624566D01*
Y37934D01*
X624274D01*
Y37876D01*
X624041D01*
Y37817D01*
X623749D01*
Y37759D01*
X623515D01*
Y37701D01*
X623281D01*
Y37642D01*
X623047D01*
Y37584D01*
X622813D01*
Y37525D01*
X622521D01*
Y37467D01*
X622288D01*
Y37408D01*
X622054D01*
Y37350D01*
X621820D01*
Y37292D01*
X621586D01*
Y37233D01*
X621353D01*
Y37175D01*
X621060D01*
Y37116D01*
X620827D01*
Y37058D01*
X620651D01*
Y36999D01*
X620418D01*
Y36941D01*
X620242D01*
Y36883D01*
X620009D01*
Y36824D01*
X619775D01*
Y36766D01*
X619600D01*
Y36707D01*
X619366D01*
Y36649D01*
X619191D01*
Y36590D01*
X618957D01*
Y36532D01*
X618723D01*
Y36474D01*
X618548D01*
Y36415D01*
X618314D01*
Y36357D01*
X618139D01*
Y36298D01*
X617905D01*
Y36240D01*
X617730D01*
Y36181D01*
X617554D01*
Y36123D01*
X617379D01*
Y36065D01*
X617204D01*
Y36006D01*
X616970D01*
Y35948D01*
X616853D01*
Y35889D01*
X616619D01*
Y35831D01*
X616444D01*
Y35772D01*
X616269D01*
Y35714D01*
X616094D01*
Y35655D01*
X615918D01*
Y35597D01*
X615743D01*
Y35539D01*
X615568D01*
Y35480D01*
X615392D01*
Y35422D01*
X615217D01*
Y35363D01*
X615042D01*
Y35305D01*
X614866D01*
Y35246D01*
X614691D01*
Y35188D01*
X614574D01*
Y35129D01*
X614399D01*
Y35071D01*
X614224D01*
Y35013D01*
X614048D01*
Y34954D01*
X613873D01*
Y34896D01*
X613698D01*
Y34837D01*
X613581D01*
Y34779D01*
X613406D01*
Y34720D01*
X613289D01*
Y34662D01*
X613114D01*
Y34604D01*
X612997D01*
Y34545D01*
X612821D01*
Y34487D01*
X612704D01*
Y34428D01*
X612529D01*
Y34370D01*
X612354D01*
Y34311D01*
X612237D01*
Y34253D01*
X612062D01*
Y34195D01*
X611945D01*
Y34136D01*
X611769D01*
Y34078D01*
X611653D01*
Y34019D01*
X611536D01*
Y33961D01*
X611360D01*
Y33902D01*
X611244D01*
Y33844D01*
X611127D01*
Y33786D01*
X610951D01*
Y33727D01*
X610835D01*
Y33669D01*
X610718D01*
Y33610D01*
X610542D01*
Y33552D01*
X610425D01*
Y33493D01*
X610309D01*
Y33435D01*
X610192D01*
Y33377D01*
X610075D01*
Y33318D01*
X609900D01*
Y33260D01*
X609783D01*
Y33201D01*
X609666D01*
Y33143D01*
X609549D01*
Y33084D01*
X609432D01*
Y33026D01*
X609257D01*
Y32967D01*
X609140D01*
Y32909D01*
X609023D01*
Y32851D01*
X608906D01*
Y32792D01*
X608789D01*
Y32734D01*
X608672D01*
Y32675D01*
X608556D01*
Y32617D01*
X608439D01*
Y32558D01*
X608380D01*
Y32500D01*
X608205D01*
Y32442D01*
X608088D01*
Y32383D01*
X607971D01*
Y32325D01*
X607913D01*
Y32266D01*
X607796D01*
Y32208D01*
X607679D01*
Y32149D01*
X607562D01*
Y32091D01*
X607445D01*
Y32032D01*
X607328D01*
Y31974D01*
X607270D01*
Y31916D01*
X607153D01*
Y31857D01*
X607036D01*
Y31799D01*
X606919D01*
Y31740D01*
X606861D01*
Y31682D01*
X606744D01*
Y31623D01*
X606627D01*
Y31565D01*
X606569D01*
Y31507D01*
X606510D01*
Y31448D01*
X606452D01*
Y31214D01*
X606510D01*
Y30981D01*
X606569D01*
Y30864D01*
X606627D01*
Y30747D01*
X606686D01*
Y30630D01*
X606744D01*
Y30513D01*
X606803D01*
Y30455D01*
X606861D01*
Y30338D01*
X606919D01*
Y30280D01*
X606978D01*
Y30221D01*
X607036D01*
Y30104D01*
X607095D01*
Y30046D01*
X607153D01*
Y29987D01*
X607212D01*
Y29929D01*
X607270D01*
Y29871D01*
X607328D01*
Y29812D01*
X607387D01*
Y29754D01*
X607445D01*
Y29695D01*
X607504D01*
Y29637D01*
X607562D01*
Y29578D01*
X607621D01*
Y29520D01*
X607679D01*
Y29461D01*
X607738D01*
Y29403D01*
X607796D01*
Y29344D01*
X607854D01*
Y29286D01*
X607913D01*
Y29228D01*
X607971D01*
Y29169D01*
X608030D01*
Y29111D01*
X608147D01*
Y29052D01*
X608205D01*
Y28994D01*
X608263D01*
Y28935D01*
X608322D01*
Y28877D01*
X608380D01*
Y28819D01*
X608497D01*
Y28760D01*
X608556D01*
Y28702D01*
X608614D01*
Y28643D01*
X608672D01*
Y28585D01*
X608789D01*
Y28526D01*
X608848D01*
Y28468D01*
X608906D01*
Y28410D01*
X609023D01*
Y28351D01*
X609081D01*
Y28293D01*
X609198D01*
Y28234D01*
X609257D01*
Y28176D01*
X609315D01*
Y28117D01*
X609432D01*
Y28059D01*
X609491D01*
Y28001D01*
X609607D01*
Y27942D01*
X609666D01*
Y27884D01*
X609783D01*
Y27825D01*
X609841D01*
Y27767D01*
X609958D01*
Y27708D01*
X610016D01*
Y27650D01*
X610133D01*
Y27592D01*
X610192D01*
Y27533D01*
X610309D01*
Y27475D01*
X610367D01*
Y27416D01*
X610484D01*
Y27358D01*
X610601D01*
Y27299D01*
X610659D01*
Y27241D01*
X610776D01*
Y27183D01*
X610835D01*
Y27124D01*
X610951D01*
Y27066D01*
X611068D01*
Y27007D01*
X611127D01*
Y26949D01*
X611244D01*
Y26890D01*
X611360D01*
Y26832D01*
X611419D01*
Y26773D01*
X611536D01*
Y26715D01*
X611653D01*
Y26657D01*
X611769D01*
Y26598D01*
X611828D01*
Y26540D01*
X611945D01*
Y26481D01*
X612062D01*
Y26423D01*
X612178D01*
Y26364D01*
X612295D01*
Y26306D01*
X612354D01*
Y26247D01*
X612471D01*
Y26189D01*
X612588D01*
Y26131D01*
X612704D01*
Y26072D01*
X612821D01*
Y26014D01*
X612938D01*
Y25955D01*
X613055D01*
Y25897D01*
X613114D01*
Y25838D01*
X613230D01*
Y25780D01*
X613347D01*
Y25722D01*
X613464D01*
Y25663D01*
X613581D01*
Y25605D01*
X613698D01*
Y25546D01*
X613815D01*
Y25488D01*
X613932D01*
Y25429D01*
X614048D01*
Y25371D01*
X614165D01*
Y25313D01*
X614282D01*
Y25254D01*
X614399D01*
Y25196D01*
X614516D01*
Y25137D01*
X614633D01*
Y25079D01*
X615801D01*
Y25020D01*
X617438D01*
Y24962D01*
X618957D01*
Y24904D01*
X621411D01*
Y24962D01*
X623047D01*
Y25020D01*
X624683D01*
Y25079D01*
X626320D01*
Y25137D01*
X627956D01*
Y25196D01*
X629592D01*
Y25254D01*
X631286D01*
Y25313D01*
X632923D01*
Y25371D01*
X634559D01*
Y25429D01*
X636253D01*
Y25488D01*
X641103D01*
Y27416D01*
X641162D01*
Y29929D01*
X641220D01*
Y30221D01*
X641279D01*
Y30396D01*
X641337D01*
Y30513D01*
X641395D01*
Y30689D01*
X641454D01*
Y30747D01*
X641512D01*
Y30864D01*
X641571D01*
Y30981D01*
X641629D01*
Y31039D01*
X641688D01*
Y31098D01*
X641746D01*
Y31156D01*
X641805D01*
Y31273D01*
X641863D01*
Y31331D01*
X641921D01*
Y31390D01*
X642038D01*
Y31448D01*
X642097D01*
Y31507D01*
X642155D01*
Y31565D01*
X642214D01*
Y31623D01*
X642330D01*
Y31682D01*
X642389D01*
Y31740D01*
X642506D01*
Y31799D01*
X642681D01*
Y31857D01*
X642798D01*
Y31916D01*
X642973D01*
Y31974D01*
X643382D01*
Y32032D01*
X643791D01*
Y31974D01*
X644142D01*
Y31916D01*
X644317D01*
Y31857D01*
X644492D01*
Y31799D01*
X644668D01*
Y31740D01*
X644785D01*
Y31682D01*
X644902D01*
Y31623D01*
X644960D01*
Y31565D01*
X645077D01*
Y31507D01*
X645135D01*
Y31448D01*
X645252D01*
Y31390D01*
X645311D01*
Y31331D01*
X645369D01*
Y31273D01*
X645427D01*
Y31214D01*
X645544D01*
Y31156D01*
X645603D01*
Y31098D01*
X645661D01*
Y31039D01*
X645720D01*
Y30981D01*
X645778D01*
Y30922D01*
X646012D01*
Y30981D01*
X646070D01*
Y33727D01*
X646129D01*
Y33786D01*
X646187D01*
Y33902D01*
X646246D01*
Y33961D01*
X646362D01*
Y34019D01*
X647473D01*
Y33961D01*
X647531D01*
Y33902D01*
X647589D01*
Y33844D01*
X647648D01*
Y33786D01*
X647706D01*
Y33727D01*
X647765D01*
Y26773D01*
X647706D01*
Y24319D01*
X647648D01*
Y24261D01*
X647589D01*
Y24144D01*
X647473D01*
Y24086D01*
X647414D01*
Y24027D01*
X646362D01*
Y24086D01*
X646246D01*
Y24144D01*
X646187D01*
Y24202D01*
X646129D01*
Y24261D01*
X646070D01*
Y24378D01*
X646012D01*
Y26131D01*
X646070D01*
Y28526D01*
X646012D01*
Y28877D01*
X645953D01*
Y29111D01*
X645895D01*
Y29228D01*
X645836D01*
Y29403D01*
X645778D01*
Y29520D01*
X645720D01*
Y29578D01*
X645661D01*
Y29695D01*
X645603D01*
Y29754D01*
X645544D01*
Y29871D01*
X645486D01*
Y29929D01*
X645427D01*
Y29987D01*
X645369D01*
Y30046D01*
X645311D01*
Y30104D01*
X645252D01*
Y30163D01*
X645194D01*
Y30221D01*
X645077D01*
Y30280D01*
X645018D01*
Y30338D01*
X644902D01*
Y30396D01*
X644785D01*
Y30455D01*
X644609D01*
Y30513D01*
X644376D01*
Y30572D01*
X643733D01*
Y30513D01*
X643558D01*
Y30455D01*
X643441D01*
Y30396D01*
X643382D01*
Y30338D01*
X643324D01*
Y30280D01*
X643207D01*
Y30221D01*
X643148D01*
Y30163D01*
X643090D01*
Y30046D01*
X643032D01*
Y29987D01*
X642973D01*
Y29871D01*
X642915D01*
Y29754D01*
X642856D01*
Y29637D01*
X642798D01*
Y29403D01*
X642739D01*
Y29111D01*
X642681D01*
Y24378D01*
X642623D01*
Y24319D01*
X642564D01*
Y24261D01*
X642506D01*
Y24202D01*
X642447D01*
Y24144D01*
X642330D01*
Y24086D01*
X641921D01*
Y24144D01*
X640811D01*
Y24202D01*
X639876D01*
Y24261D01*
X638766D01*
Y24319D01*
X637597D01*
Y24378D01*
X635727D01*
Y24436D01*
X633565D01*
Y24495D01*
X631462D01*
Y24553D01*
X629417D01*
Y24611D01*
X627313D01*
Y24670D01*
X625268D01*
Y24728D01*
X623164D01*
Y24787D01*
X621060D01*
Y24845D01*
X620359D01*
Y24787D01*
X620009D01*
Y24728D01*
X617963D01*
Y24670D01*
X615977D01*
Y24611D01*
X614516D01*
Y24670D01*
X614341D01*
Y24728D01*
X614224D01*
Y24787D01*
X614107D01*
Y24845D01*
X613990D01*
Y24904D01*
X613873D01*
Y24962D01*
X613756D01*
Y25020D01*
X613639D01*
Y25079D01*
X613522D01*
Y25137D01*
X613406D01*
Y25196D01*
X613289D01*
Y25254D01*
X613172D01*
Y25313D01*
X613055D01*
Y25371D01*
X612938D01*
Y25429D01*
X612821D01*
Y25488D01*
X612704D01*
Y25546D01*
X612588D01*
Y25605D01*
X612471D01*
Y25663D01*
X612354D01*
Y25722D01*
X612237D01*
Y25780D01*
X612120D01*
Y25838D01*
X612062D01*
Y25897D01*
X611945D01*
Y25955D01*
X611828D01*
Y26014D01*
X611711D01*
Y26072D01*
X611594D01*
Y26131D01*
X611477D01*
Y26189D01*
X611419D01*
Y26247D01*
X611302D01*
Y26306D01*
X611185D01*
Y26364D01*
X611068D01*
Y26423D01*
X610951D01*
Y26481D01*
X610893D01*
Y26540D01*
X610776D01*
Y26598D01*
X610659D01*
Y26657D01*
X610542D01*
Y26715D01*
X610484D01*
Y26773D01*
X610367D01*
Y26832D01*
X610309D01*
Y26890D01*
X610192D01*
Y26949D01*
X610075D01*
Y27007D01*
X610016D01*
Y27066D01*
X609900D01*
Y27124D01*
X609841D01*
Y27183D01*
X609724D01*
Y27241D01*
X609607D01*
Y27299D01*
X609549D01*
Y27358D01*
X609432D01*
Y27416D01*
X609374D01*
Y27475D01*
X609257D01*
Y27533D01*
X609198D01*
Y27592D01*
X609081D01*
Y27650D01*
X609023D01*
Y27708D01*
X608906D01*
Y27767D01*
X608848D01*
Y27825D01*
X608731D01*
Y27884D01*
X608672D01*
Y27942D01*
X608614D01*
Y28001D01*
X608497D01*
Y28059D01*
X608439D01*
Y28117D01*
X608322D01*
Y28176D01*
X608263D01*
Y28234D01*
X608205D01*
Y28293D01*
X608088D01*
Y28351D01*
X608030D01*
Y28410D01*
X607971D01*
Y28468D01*
X607913D01*
Y28526D01*
X607796D01*
Y28585D01*
X607738D01*
Y28643D01*
X607679D01*
Y28702D01*
X607621D01*
Y28760D01*
X607562D01*
Y28819D01*
X607445D01*
Y28877D01*
X607387D01*
Y28935D01*
X607328D01*
Y28994D01*
X607270D01*
Y29052D01*
X607212D01*
Y29111D01*
X607153D01*
Y29169D01*
X607095D01*
Y29228D01*
X607036D01*
Y29286D01*
X606978D01*
Y29344D01*
X606919D01*
Y29403D01*
X606861D01*
Y29461D01*
X606803D01*
Y29520D01*
X606744D01*
Y29578D01*
X606686D01*
Y29637D01*
X606627D01*
Y29754D01*
X606569D01*
Y29812D01*
X606510D01*
Y29871D01*
X606452D01*
Y29929D01*
X606394D01*
Y30046D01*
X606335D01*
Y30104D01*
X606277D01*
Y30221D01*
X606218D01*
Y30280D01*
X606160D01*
Y30396D01*
X606101D01*
Y30513D01*
X606043D01*
Y30630D01*
X605984D01*
Y30747D01*
X605926D01*
Y30864D01*
X605868D01*
Y31039D01*
X605809D01*
Y31623D01*
X605868D01*
Y31740D01*
X605926D01*
Y31857D01*
X605984D01*
Y31916D01*
X606043D01*
Y31974D01*
X606101D01*
Y32032D01*
X606160D01*
Y32091D01*
X606218D01*
Y32149D01*
X606335D01*
Y32208D01*
X606452D01*
Y32266D01*
X606510D01*
Y32325D01*
X606627D01*
Y32383D01*
X606744D01*
Y32442D01*
X606803D01*
Y32500D01*
X606919D01*
Y32558D01*
X607036D01*
Y32617D01*
X607153D01*
Y32675D01*
X607270D01*
Y32734D01*
X607328D01*
Y32792D01*
X607445D01*
Y32851D01*
X607562D01*
Y32909D01*
X607679D01*
Y32967D01*
X607796D01*
Y33026D01*
X607854D01*
Y33084D01*
X607971D01*
Y33143D01*
X608088D01*
Y33201D01*
X608205D01*
Y33260D01*
X608322D01*
Y33318D01*
X608439D01*
Y33377D01*
X608556D01*
Y33435D01*
X608672D01*
Y33493D01*
X608789D01*
Y33552D01*
X608906D01*
Y33610D01*
X609023D01*
Y33669D01*
X609140D01*
Y33727D01*
X609257D01*
Y33786D01*
X609374D01*
Y33844D01*
X609491D01*
Y33902D01*
X609607D01*
Y33961D01*
X609783D01*
Y34019D01*
X609900D01*
Y34078D01*
X610016D01*
Y34136D01*
X610133D01*
Y34195D01*
X610250D01*
Y34253D01*
X610367D01*
Y34311D01*
X610542D01*
Y34370D01*
X610659D01*
Y34428D01*
X610776D01*
Y34487D01*
X610893D01*
Y34545D01*
X611068D01*
Y34604D01*
X611185D01*
Y34662D01*
X611302D01*
Y34720D01*
X611419D01*
Y34779D01*
X611594D01*
Y34837D01*
X611711D01*
Y34896D01*
X611886D01*
Y34954D01*
X612003D01*
Y35013D01*
X612178D01*
Y35071D01*
X612295D01*
Y35129D01*
X612471D01*
Y35188D01*
X612588D01*
Y35246D01*
X612704D01*
Y35305D01*
X612880D01*
Y35363D01*
X612997D01*
Y35422D01*
X613172D01*
Y35480D01*
X613347D01*
Y35539D01*
X613464D01*
Y35597D01*
X613639D01*
Y35655D01*
X613815D01*
Y35714D01*
X613932D01*
Y35772D01*
X614107D01*
Y35831D01*
X614282D01*
Y35889D01*
X614399D01*
Y35948D01*
X614574D01*
Y36006D01*
X614750D01*
Y36065D01*
X614925D01*
Y36123D01*
X615042D01*
Y36181D01*
X615217D01*
Y36240D01*
X615392D01*
Y36298D01*
X615568D01*
Y36357D01*
X615743D01*
Y36415D01*
X615918D01*
Y36474D01*
X616094D01*
Y36532D01*
X616269D01*
Y36590D01*
X616444D01*
Y36649D01*
X616619D01*
Y36707D01*
X616795D01*
Y36766D01*
X616970D01*
Y36824D01*
X617145D01*
Y36883D01*
X617321D01*
Y36941D01*
X617496D01*
Y36999D01*
X617671D01*
Y37058D01*
X617905D01*
Y37116D01*
X618080D01*
Y37175D01*
X618256D01*
Y37233D01*
X618431D01*
Y37292D01*
X618665D01*
Y37350D01*
X618898D01*
Y37408D01*
X619074D01*
Y37467D01*
X619249D01*
Y37525D01*
X619483D01*
Y37584D01*
X619716D01*
Y37642D01*
X619892D01*
Y37701D01*
X620126D01*
Y37759D01*
X620301D01*
Y37817D01*
X620476D01*
Y37876D01*
X620710D01*
Y37934D01*
X620944D01*
Y37993D01*
X621177D01*
Y38051D01*
X621411D01*
Y38110D01*
X621645D01*
Y38168D01*
X621879D01*
Y38226D01*
X622112D01*
Y38285D01*
X622346D01*
Y38343D01*
X622580D01*
Y38402D01*
X622813D01*
Y38460D01*
X623106D01*
Y38519D01*
X623339D01*
Y38577D01*
X623515D01*
Y38636D01*
X623749D01*
Y38694D01*
X624041D01*
Y38752D01*
X624333D01*
Y38811D01*
X624625D01*
Y38869D01*
X624859D01*
Y38928D01*
X625151D01*
Y38986D01*
X625443D01*
Y39045D01*
X625735D01*
Y39103D01*
X626027D01*
Y39162D01*
X626261D01*
Y39220D01*
X626553D01*
Y39278D01*
X626845D01*
Y39337D01*
X627196D01*
Y39395D01*
X627488D01*
Y39454D01*
X627780D01*
Y39512D01*
X628189D01*
Y39571D01*
X628540D01*
Y39629D01*
X628891D01*
Y39687D01*
X629183D01*
Y39746D01*
X629533D01*
Y39804D01*
X629884D01*
Y39863D01*
X630235D01*
Y39921D01*
X630585D01*
Y39980D01*
X630936D01*
Y40038D01*
X631403D01*
Y40096D01*
X631812D01*
Y40155D01*
X632280D01*
Y40213D01*
X632747D01*
Y40272D01*
X633156D01*
Y40330D01*
X633565D01*
Y40389D01*
X634033D01*
Y40447D01*
X634500D01*
Y40505D01*
X635026D01*
Y40564D01*
X635611D01*
Y40622D01*
X636253D01*
Y40681D01*
X636896D01*
Y40739D01*
X637597D01*
Y40798D01*
X638123D01*
Y40856D01*
X638766D01*
Y40915D01*
X639701D01*
Y40973D01*
X640870D01*
Y41031D01*
X641921D01*
Y41090D01*
X642739D01*
Y41148D01*
X643850D01*
Y41031D01*
X643908D01*
Y40915D01*
Y40856D01*
X643967D01*
Y40681D01*
X644025D01*
Y40564D01*
X644083D01*
Y40389D01*
X644142D01*
Y40272D01*
X644200D01*
Y40096D01*
X644259D01*
Y39921D01*
X644317D01*
Y39804D01*
X644376D01*
Y39746D01*
X644434D01*
Y39687D01*
X644492D01*
Y39629D01*
X644609D01*
Y39571D01*
X645135D01*
Y39629D01*
X645544D01*
Y39687D01*
X645953D01*
Y39746D01*
X646362D01*
Y39804D01*
X646771D01*
Y39863D01*
X647239D01*
Y39921D01*
X647648D01*
Y39980D01*
X648057D01*
Y40038D01*
X648466D01*
Y40096D01*
X648875D01*
Y40155D01*
X649284D01*
Y40213D01*
X649693D01*
Y40272D01*
X650102D01*
Y40330D01*
X650511D01*
Y40389D01*
X650920D01*
Y40447D01*
X651271D01*
Y40505D01*
X651680D01*
Y40564D01*
X652030D01*
Y40622D01*
X652440D01*
Y40681D01*
X652849D01*
Y40739D01*
X653199D01*
Y40798D01*
X653608D01*
Y40856D01*
X653900D01*
Y40915D01*
X654309D01*
Y40973D01*
X654718D01*
Y41031D01*
X655069D01*
Y41090D01*
X655420D01*
Y41148D01*
X655712D01*
Y41207D01*
X656121D01*
Y41265D01*
X656471D01*
Y41323D01*
X656822D01*
Y41382D01*
X657114D01*
Y41440D01*
X657465D01*
Y41499D01*
X657815D01*
Y41557D01*
X658166D01*
Y41616D01*
X658458D01*
Y41674D01*
X658750D01*
Y41733D01*
X659101D01*
Y41791D01*
X659452D01*
Y41849D01*
X659744D01*
Y41908D01*
X660036D01*
Y41966D01*
X660328D01*
Y42025D01*
X660679D01*
Y42083D01*
X660971D01*
Y42142D01*
X661263D01*
Y42200D01*
X661555D01*
Y42259D01*
X661789D01*
Y42317D01*
X662081D01*
Y42375D01*
X662373D01*
Y42434D01*
X662665D01*
Y42492D01*
X662899D01*
Y42551D01*
X663191D01*
Y42609D01*
X663484D01*
Y42667D01*
X663717D01*
Y42726D01*
X663951D01*
Y42784D01*
X664126D01*
Y42843D01*
X664360D01*
Y42901D01*
X664594D01*
Y42960D01*
X664769D01*
Y43018D01*
X664944D01*
Y43077D01*
X665061D01*
Y43135D01*
X665237D01*
Y43193D01*
X665412D01*
Y43252D01*
X665529D01*
Y43310D01*
X665704D01*
Y43369D01*
X665821D01*
Y43427D01*
X665938D01*
Y43486D01*
X666055D01*
Y43544D01*
X666172D01*
Y43602D01*
X666230D01*
Y43661D01*
X666347D01*
Y43719D01*
X666464D01*
Y43778D01*
X666522D01*
Y43836D01*
X666581D01*
Y43895D01*
X666697D01*
Y43953D01*
X666756D01*
Y44012D01*
X666814D01*
Y44070D01*
X666873D01*
Y44128D01*
X666931D01*
Y44187D01*
X666990D01*
Y44304D01*
X667048D01*
Y44420D01*
X667106D01*
Y44771D01*
X667048D01*
Y44946D01*
X666990D01*
Y45063D01*
X666931D01*
Y45122D01*
X666873D01*
Y45239D01*
X666814D01*
Y45297D01*
X666756D01*
Y45414D01*
X666697D01*
Y45472D01*
X666639D01*
Y45531D01*
X666581D01*
Y45648D01*
X666522D01*
Y45706D01*
X666464D01*
Y45764D01*
X666405D01*
Y45881D01*
X666347D01*
Y45940D01*
X666288D01*
Y46057D01*
X666230D01*
Y46115D01*
X666172D01*
Y46174D01*
X666113D01*
Y46290D01*
X666055D01*
Y46349D01*
X665996D01*
Y46407D01*
X665938D01*
Y46524D01*
X665879D01*
Y46583D01*
X665821D01*
Y46641D01*
X665762D01*
Y46758D01*
X665704D01*
Y46816D01*
X665646D01*
Y46875D01*
X665587D01*
Y46992D01*
X665529D01*
Y47050D01*
X665470D01*
Y47167D01*
X665412D01*
Y47225D01*
X665353D01*
Y47284D01*
X665295D01*
Y47401D01*
X665237D01*
Y47459D01*
X665178D01*
Y47576D01*
X665120D01*
Y47634D01*
X665061D01*
Y47693D01*
X665003D01*
Y47810D01*
X664944D01*
Y47868D01*
X664886D01*
Y47985D01*
X664828D01*
Y48043D01*
X664769D01*
Y48102D01*
X664711D01*
Y48219D01*
X664652D01*
Y48277D01*
X664594D01*
Y48394D01*
X664535D01*
Y48453D01*
X664477D01*
Y48511D01*
X664418D01*
Y48628D01*
X664360D01*
Y48686D01*
X664302D01*
Y48803D01*
X664243D01*
Y48861D01*
X664185D01*
Y48978D01*
X664126D01*
Y49037D01*
X664068D01*
Y49095D01*
X664009D01*
Y49212D01*
X663951D01*
Y49271D01*
X663893D01*
Y49387D01*
X663834D01*
Y49446D01*
X663776D01*
Y49504D01*
X663717D01*
Y49621D01*
X663659D01*
Y49680D01*
X663600D01*
Y49797D01*
X663542D01*
Y49855D01*
X663484D01*
Y49913D01*
X663425D01*
Y50089D01*
X663542D01*
Y50147D01*
X663776D01*
Y50205D01*
X664068D01*
Y50264D01*
X664302D01*
Y50322D01*
X664652D01*
Y50381D01*
X665061D01*
Y50439D01*
X668217D01*
Y50381D01*
D02*
G37*
G36*
X627547Y30513D02*
X627605D01*
Y30455D01*
X627663D01*
Y26189D01*
X627605D01*
Y26072D01*
X627079D01*
Y26189D01*
X627021D01*
Y27650D01*
Y27708D01*
Y29286D01*
X626962D01*
Y29169D01*
X626904D01*
Y29052D01*
X626845D01*
Y28935D01*
X626787D01*
Y28877D01*
X626729D01*
Y28760D01*
X626670D01*
Y28643D01*
X626612D01*
Y28526D01*
X626553D01*
Y28410D01*
X626495D01*
Y28351D01*
X626436D01*
Y28234D01*
X626378D01*
Y28117D01*
X626320D01*
Y28059D01*
X626261D01*
Y27942D01*
X626203D01*
Y27825D01*
X626144D01*
Y27708D01*
X626086D01*
Y27650D01*
X626027D01*
Y27533D01*
X625969D01*
Y27416D01*
X625910D01*
Y27299D01*
X625852D01*
Y27241D01*
X625794D01*
Y27124D01*
X625735D01*
Y27007D01*
X625677D01*
Y26890D01*
X625618D01*
Y26832D01*
X625560D01*
Y26715D01*
X625502D01*
Y26598D01*
X625443D01*
Y26481D01*
X625385D01*
Y26423D01*
X625326D01*
Y26306D01*
X625268D01*
Y26189D01*
X625209D01*
Y26131D01*
X625151D01*
Y26072D01*
X624683D01*
Y26189D01*
X624625D01*
Y30455D01*
X624683D01*
Y30513D01*
X624742D01*
Y30572D01*
X625151D01*
Y30513D01*
X625209D01*
Y30396D01*
X625268D01*
Y27475D01*
X625209D01*
Y27299D01*
X625268D01*
Y27358D01*
X625326D01*
Y27475D01*
X625385D01*
Y27592D01*
X625443D01*
Y27708D01*
X625502D01*
Y27767D01*
X625560D01*
Y27884D01*
X625618D01*
Y28001D01*
X625677D01*
Y28117D01*
X625735D01*
Y28176D01*
X625794D01*
Y28293D01*
X625852D01*
Y28410D01*
X625910D01*
Y28526D01*
X625969D01*
Y28585D01*
X626027D01*
Y28702D01*
X626086D01*
Y28819D01*
X626144D01*
Y28935D01*
X626203D01*
Y28994D01*
X626261D01*
Y29111D01*
X626320D01*
Y29228D01*
X626378D01*
Y29344D01*
X626436D01*
Y29403D01*
X626495D01*
Y29520D01*
X626553D01*
Y29637D01*
X626612D01*
Y29754D01*
X626670D01*
Y29812D01*
X626729D01*
Y29929D01*
X626787D01*
Y30046D01*
X626845D01*
Y30163D01*
X626904D01*
Y30221D01*
X626962D01*
Y30338D01*
X627021D01*
Y30455D01*
X627079D01*
Y30513D01*
X627138D01*
Y30572D01*
X627547D01*
Y30513D01*
D02*
G37*
G36*
X632280D02*
X632455D01*
Y30455D01*
X632572D01*
Y30396D01*
X632630D01*
Y30338D01*
X632747D01*
Y30280D01*
X632806D01*
Y30221D01*
X632864D01*
Y30104D01*
X632923D01*
Y30046D01*
X632981D01*
Y29929D01*
X633040D01*
Y29520D01*
X633098D01*
Y27124D01*
X633040D01*
Y26715D01*
X632981D01*
Y26598D01*
X632923D01*
Y26481D01*
X632864D01*
Y26423D01*
X632806D01*
Y26364D01*
X632747D01*
Y26306D01*
X632689D01*
Y26247D01*
X632572D01*
Y26189D01*
X632514D01*
Y26131D01*
X632338D01*
Y26072D01*
X630877D01*
Y26131D01*
X630702D01*
Y26189D01*
X630585D01*
Y26247D01*
X630527D01*
Y26306D01*
X630410D01*
Y26364D01*
X630351D01*
Y26481D01*
X630293D01*
Y26540D01*
X630235D01*
Y26657D01*
X630176D01*
Y26832D01*
X630118D01*
Y27533D01*
X630176D01*
Y27592D01*
X630702D01*
Y27475D01*
X630760D01*
Y26832D01*
X630819D01*
Y26715D01*
X630936D01*
Y26657D01*
X631053D01*
Y26598D01*
X632105D01*
Y26657D01*
X632280D01*
Y26715D01*
X632338D01*
Y26773D01*
X632397D01*
Y26890D01*
X632455D01*
Y29754D01*
X632397D01*
Y29871D01*
X632338D01*
Y29929D01*
X632221D01*
Y29987D01*
X630936D01*
Y29929D01*
X630877D01*
Y29871D01*
X630819D01*
Y29812D01*
X630760D01*
Y29169D01*
X630702D01*
Y29052D01*
X630644D01*
Y28994D01*
X630235D01*
Y29052D01*
X630176D01*
Y29111D01*
X630118D01*
Y29754D01*
X630176D01*
Y29987D01*
X630235D01*
Y30046D01*
X630293D01*
Y30163D01*
X630351D01*
Y30221D01*
X630410D01*
Y30280D01*
X630468D01*
Y30338D01*
X630527D01*
Y30396D01*
X630644D01*
Y30455D01*
X630760D01*
Y30513D01*
X630936D01*
Y30572D01*
X632280D01*
Y30513D01*
D02*
G37*
G36*
X622930D02*
X623106D01*
Y30455D01*
X623281D01*
Y30396D01*
X623339D01*
Y30338D01*
X623456D01*
Y30280D01*
X623515D01*
Y30163D01*
X623573D01*
Y30104D01*
X623632D01*
Y29987D01*
X623690D01*
Y29871D01*
X623749D01*
Y26773D01*
X623690D01*
Y26598D01*
X623632D01*
Y26540D01*
X623573D01*
Y26423D01*
X623515D01*
Y26364D01*
X623456D01*
Y26306D01*
X623398D01*
Y26247D01*
X623281D01*
Y26189D01*
X623164D01*
Y26131D01*
X623047D01*
Y26072D01*
X621645D01*
Y26131D01*
X621469D01*
Y26189D01*
X621353D01*
Y26247D01*
X621294D01*
Y26306D01*
X621236D01*
Y26364D01*
X621177D01*
Y26423D01*
X621119D01*
Y26481D01*
X621060D01*
Y26540D01*
X621002D01*
Y26715D01*
X620944D01*
Y26949D01*
X620885D01*
Y28351D01*
X620944D01*
Y28410D01*
X621002D01*
Y28468D01*
X622288D01*
Y28410D01*
X622346D01*
Y28001D01*
X622288D01*
Y27942D01*
X621528D01*
Y26832D01*
X621586D01*
Y26773D01*
X621645D01*
Y26715D01*
X621703D01*
Y26657D01*
X621879D01*
Y26598D01*
X622813D01*
Y26657D01*
X622989D01*
Y26715D01*
X623047D01*
Y26773D01*
X623106D01*
Y26949D01*
X623164D01*
Y29695D01*
X623106D01*
Y29812D01*
X623047D01*
Y29929D01*
X622930D01*
Y29987D01*
X621762D01*
Y29929D01*
X621645D01*
Y29871D01*
X621586D01*
Y29754D01*
X621528D01*
Y29169D01*
X621469D01*
Y29111D01*
X621411D01*
Y29052D01*
X621002D01*
Y29111D01*
X620944D01*
Y29169D01*
X620885D01*
Y29695D01*
X620944D01*
Y29929D01*
X621002D01*
Y30046D01*
X621060D01*
Y30163D01*
X621119D01*
Y30221D01*
X621177D01*
Y30280D01*
X621236D01*
Y30338D01*
X621294D01*
Y30396D01*
X621411D01*
Y30455D01*
X621528D01*
Y30513D01*
X621703D01*
Y30572D01*
X622930D01*
Y30513D01*
D02*
G37*
G36*
X640285D02*
X640344D01*
Y26189D01*
X640285D01*
Y26072D01*
X639818D01*
Y26131D01*
X639759D01*
Y27007D01*
Y27066D01*
Y27825D01*
X638883D01*
Y27767D01*
X638824D01*
Y27650D01*
X638766D01*
Y27533D01*
X638708D01*
Y27416D01*
X638649D01*
Y27299D01*
X638591D01*
Y27124D01*
X638532D01*
Y27007D01*
X638474D01*
Y26890D01*
X638415D01*
Y26773D01*
X638357D01*
Y26657D01*
X638298D01*
Y26540D01*
X638240D01*
Y26423D01*
X638182D01*
Y26306D01*
X638123D01*
Y26189D01*
X638065D01*
Y26131D01*
X638006D01*
Y26072D01*
X637481D01*
Y26306D01*
X637539D01*
Y26423D01*
X637597D01*
Y26540D01*
X637656D01*
Y26657D01*
X637714D01*
Y26773D01*
X637773D01*
Y26890D01*
X637831D01*
Y27007D01*
X637890D01*
Y27124D01*
X637948D01*
Y27299D01*
X638006D01*
Y27416D01*
X638065D01*
Y27533D01*
X638123D01*
Y27650D01*
X638182D01*
Y27767D01*
X638240D01*
Y27884D01*
X638182D01*
Y27942D01*
X638065D01*
Y28001D01*
X637948D01*
Y28059D01*
X637890D01*
Y28117D01*
X637831D01*
Y28176D01*
X637773D01*
Y28234D01*
X637714D01*
Y28351D01*
X637656D01*
Y28526D01*
X637597D01*
Y29871D01*
X637656D01*
Y29987D01*
X637714D01*
Y30104D01*
X637773D01*
Y30163D01*
X637831D01*
Y30280D01*
X637890D01*
Y30338D01*
X638006D01*
Y30396D01*
X638065D01*
Y30455D01*
X638240D01*
Y30513D01*
X638415D01*
Y30572D01*
X640285D01*
Y30513D01*
D02*
G37*
G36*
X635611D02*
X635727D01*
Y30396D01*
X635786D01*
Y30221D01*
X635844D01*
Y29987D01*
X635903D01*
Y29812D01*
X635961D01*
Y29637D01*
X636020D01*
Y29461D01*
X636078D01*
Y29228D01*
X636137D01*
Y29052D01*
X636195D01*
Y28877D01*
X636253D01*
Y28643D01*
X636312D01*
Y28468D01*
X636370D01*
Y28293D01*
X636429D01*
Y28059D01*
X636487D01*
Y27884D01*
X636545D01*
Y27708D01*
X636604D01*
Y27533D01*
X636662D01*
Y27299D01*
X636721D01*
Y27124D01*
X636779D01*
Y26949D01*
X636838D01*
Y26773D01*
X636896D01*
Y26540D01*
X636954D01*
Y26364D01*
X637013D01*
Y26072D01*
X636487D01*
Y26131D01*
X636429D01*
Y26247D01*
X636370D01*
Y26481D01*
X636312D01*
Y26657D01*
X636253D01*
Y26832D01*
X636195D01*
Y26890D01*
Y26949D01*
Y27007D01*
X636137D01*
Y27124D01*
X636078D01*
Y27183D01*
X634559D01*
Y27124D01*
X634500D01*
Y26949D01*
X634442D01*
Y26773D01*
X634383D01*
Y26598D01*
X634325D01*
Y26423D01*
X634267D01*
Y26247D01*
X634208D01*
Y26131D01*
X634150D01*
Y26072D01*
X633682D01*
Y26131D01*
X633624D01*
Y26306D01*
X633682D01*
Y26481D01*
X633741D01*
Y26715D01*
X633799D01*
Y26890D01*
X633858D01*
Y27066D01*
X633916D01*
Y27241D01*
X633974D01*
Y27475D01*
X634033D01*
Y27650D01*
X634091D01*
Y27884D01*
X634150D01*
Y28059D01*
X634208D01*
Y28234D01*
X634267D01*
Y28468D01*
X634325D01*
Y28643D01*
X634383D01*
Y28819D01*
X634442D01*
Y28994D01*
X634500D01*
Y29169D01*
X634559D01*
Y29403D01*
X634617D01*
Y29578D01*
X634676D01*
Y29812D01*
X634734D01*
Y29987D01*
X634793D01*
Y30163D01*
X634851D01*
Y30338D01*
X634909D01*
Y30455D01*
X634968D01*
Y30513D01*
X635026D01*
Y30572D01*
X635611D01*
Y30513D01*
D02*
G37*
G36*
X629183D02*
X629241D01*
Y26131D01*
X629183D01*
Y26072D01*
X628715D01*
Y26131D01*
X628657D01*
Y29286D01*
Y29344D01*
Y30513D01*
X628774D01*
Y30572D01*
X629183D01*
Y30513D01*
D02*
G37*
G36*
X682884Y39337D02*
X683468D01*
Y39278D01*
X683819D01*
Y39220D01*
X684111D01*
Y39162D01*
X684345D01*
Y39103D01*
X684578D01*
Y39045D01*
X684812D01*
Y38986D01*
X684987D01*
Y38928D01*
X685163D01*
Y38869D01*
X685279D01*
Y38811D01*
X685455D01*
Y38752D01*
X685572D01*
Y38694D01*
X685747D01*
Y38636D01*
X685864D01*
Y38577D01*
X685981D01*
Y38519D01*
X686098D01*
Y38460D01*
X686214D01*
Y38402D01*
X686331D01*
Y38343D01*
X686448D01*
Y38285D01*
X686507D01*
Y38226D01*
X686624D01*
Y38168D01*
X686740D01*
Y38110D01*
X686799D01*
Y38051D01*
X686916D01*
Y37993D01*
X686974D01*
Y37934D01*
X687091D01*
Y37876D01*
X687149D01*
Y37817D01*
X687266D01*
Y37759D01*
X687325D01*
Y37701D01*
X687383D01*
Y37642D01*
X687500D01*
Y37584D01*
X687558D01*
Y37525D01*
X687617D01*
Y37467D01*
X687675D01*
Y37408D01*
X687734D01*
Y37350D01*
X687851D01*
Y37292D01*
X687909D01*
Y37233D01*
X687967D01*
Y37175D01*
X688026D01*
Y37116D01*
X688084D01*
Y37058D01*
X688143D01*
Y36999D01*
X688201D01*
Y36941D01*
X688260D01*
Y36883D01*
X688318D01*
Y36824D01*
X688376D01*
Y36766D01*
X688435D01*
Y36707D01*
X688493D01*
Y36649D01*
X688552D01*
Y36590D01*
X688610D01*
Y36532D01*
X688669D01*
Y36415D01*
X688727D01*
Y36357D01*
X688785D01*
Y36298D01*
X688844D01*
Y36240D01*
X688902D01*
Y36123D01*
X688961D01*
Y36065D01*
X689019D01*
Y36006D01*
X689078D01*
Y35948D01*
X689136D01*
Y35831D01*
X689195D01*
Y35772D01*
X689253D01*
Y35655D01*
X689311D01*
Y35597D01*
X689370D01*
Y35480D01*
X689428D01*
Y35422D01*
X689487D01*
Y35305D01*
X689545D01*
Y35188D01*
X689604D01*
Y35071D01*
X689662D01*
Y35013D01*
X689721D01*
Y34896D01*
X689779D01*
Y34779D01*
X689837D01*
Y34662D01*
X689896D01*
Y34545D01*
X689954D01*
Y34370D01*
X690013D01*
Y34253D01*
X690071D01*
Y34078D01*
X690129D01*
Y33961D01*
X690188D01*
Y33786D01*
X690246D01*
Y33610D01*
X690305D01*
Y33435D01*
X690363D01*
Y33201D01*
X690422D01*
Y33026D01*
X690480D01*
Y32734D01*
X690538D01*
Y32442D01*
X690597D01*
Y32032D01*
X690655D01*
Y31273D01*
X690714D01*
Y30747D01*
X690772D01*
Y30630D01*
X690831D01*
Y30572D01*
X690889D01*
Y30455D01*
X690948D01*
Y30396D01*
X691065D01*
Y30338D01*
X691181D01*
Y30280D01*
X691357D01*
Y30221D01*
X691473D01*
Y30163D01*
X691649D01*
Y30104D01*
X691882D01*
Y30046D01*
X692233D01*
Y30104D01*
X692350D01*
Y30163D01*
X692467D01*
Y30221D01*
X692525D01*
Y30280D01*
X692584D01*
Y30338D01*
X692701D01*
Y30396D01*
X692759D01*
Y30455D01*
X692818D01*
Y30513D01*
X692876D01*
Y30572D01*
X692934D01*
Y30630D01*
X692993D01*
Y30689D01*
X693051D01*
Y30747D01*
X693168D01*
Y30805D01*
X693226D01*
Y30864D01*
X693343D01*
Y30922D01*
X693402D01*
Y30981D01*
X693519D01*
Y31039D01*
X693636D01*
Y31098D01*
X693811D01*
Y31156D01*
X693986D01*
Y31214D01*
X694278D01*
Y31273D01*
X695447D01*
Y31214D01*
X695856D01*
Y31156D01*
X696148D01*
Y31098D01*
X696265D01*
Y31039D01*
X696323D01*
Y30981D01*
X696382D01*
Y30922D01*
X696440D01*
Y30864D01*
X696499D01*
Y30455D01*
X696440D01*
Y30221D01*
X696382D01*
Y30046D01*
X696323D01*
Y29637D01*
X696382D01*
Y29520D01*
X696440D01*
Y29461D01*
X696557D01*
Y29403D01*
X696674D01*
Y29344D01*
X696791D01*
Y29286D01*
X696966D01*
Y29228D01*
X697142D01*
Y29169D01*
X697317D01*
Y29111D01*
X697492D01*
Y29052D01*
X697667D01*
Y28994D01*
X697843D01*
Y28935D01*
X698018D01*
Y28877D01*
X698193D01*
Y28819D01*
X698369D01*
Y28760D01*
X698602D01*
Y28702D01*
X698778D01*
Y28643D01*
X698953D01*
Y28585D01*
X699128D01*
Y28526D01*
X699245D01*
Y28468D01*
X699420D01*
Y28410D01*
X699479D01*
Y28351D01*
X699596D01*
Y28293D01*
X699654D01*
Y28234D01*
X699713D01*
Y28117D01*
X699771D01*
Y28059D01*
X699830D01*
Y27825D01*
X699771D01*
Y27708D01*
X699713D01*
Y27650D01*
X699654D01*
Y27592D01*
X699537D01*
Y27533D01*
X699479D01*
Y27475D01*
X699012D01*
Y27533D01*
X698836D01*
Y27592D01*
X698661D01*
Y27650D01*
X698486D01*
Y27708D01*
X698310D01*
Y27767D01*
X698135D01*
Y27825D01*
X697960D01*
Y27884D01*
X697784D01*
Y27942D01*
X697609D01*
Y28001D01*
X697434D01*
Y28059D01*
X697259D01*
Y28117D01*
X697142D01*
Y28176D01*
X696966D01*
Y28234D01*
X696733D01*
Y28293D01*
X696557D01*
Y28351D01*
X696382D01*
Y28410D01*
X695973D01*
Y28351D01*
X695856D01*
Y28293D01*
X695798D01*
Y28234D01*
X695739D01*
Y28117D01*
X695681D01*
Y28001D01*
X695622D01*
Y27825D01*
X695564D01*
Y27650D01*
X695505D01*
Y27416D01*
X695447D01*
Y27241D01*
X695389D01*
Y27066D01*
X695330D01*
Y26832D01*
X695272D01*
Y26423D01*
X695330D01*
Y26306D01*
X695389D01*
Y26247D01*
X695447D01*
Y26189D01*
X695564D01*
Y26131D01*
X695739D01*
Y26072D01*
X695915D01*
Y26014D01*
X696090D01*
Y25955D01*
X696323D01*
Y25897D01*
X696499D01*
Y25838D01*
X696674D01*
Y25780D01*
X696849D01*
Y25722D01*
X697025D01*
Y25663D01*
X697200D01*
Y25605D01*
X697375D01*
Y25546D01*
X697551D01*
Y25488D01*
X697726D01*
Y25429D01*
X697901D01*
Y25371D01*
X698077D01*
Y25313D01*
X698252D01*
Y25254D01*
X698369D01*
Y25196D01*
X698486D01*
Y25137D01*
X698544D01*
Y25079D01*
X698602D01*
Y25020D01*
X698661D01*
Y24962D01*
X698719D01*
Y24845D01*
X698778D01*
Y24553D01*
X698719D01*
Y24495D01*
X698661D01*
Y24436D01*
X698602D01*
Y24378D01*
X698544D01*
Y24319D01*
X698427D01*
Y24261D01*
X698135D01*
Y24319D01*
X697843D01*
Y24378D01*
X697667D01*
Y24436D01*
X697492D01*
Y24495D01*
X697317D01*
Y24553D01*
X697142D01*
Y24611D01*
X696908D01*
Y24670D01*
X696733D01*
Y24728D01*
X696557D01*
Y24787D01*
X696382D01*
Y24845D01*
X696207D01*
Y24904D01*
X696031D01*
Y24962D01*
X695856D01*
Y25020D01*
X695681D01*
Y25079D01*
X695505D01*
Y25137D01*
X695330D01*
Y25196D01*
X694921D01*
Y25137D01*
X694863D01*
Y25079D01*
X694746D01*
Y24962D01*
X694687D01*
Y24904D01*
X694629D01*
Y24728D01*
X694570D01*
Y24553D01*
X694512D01*
Y24436D01*
X694454D01*
Y24378D01*
X694395D01*
Y24319D01*
X694337D01*
Y24261D01*
X694278D01*
Y24202D01*
X694220D01*
Y24144D01*
X693811D01*
Y24202D01*
X693694D01*
Y24261D01*
X693577D01*
Y24319D01*
X693460D01*
Y24378D01*
X693343D01*
Y24436D01*
X693226D01*
Y24495D01*
X693110D01*
Y24553D01*
X693051D01*
Y24611D01*
X692934D01*
Y24670D01*
X692818D01*
Y24728D01*
X692759D01*
Y24787D01*
X692701D01*
Y24845D01*
X692584D01*
Y24904D01*
X692525D01*
Y24962D01*
X692467D01*
Y25020D01*
X692408D01*
Y25079D01*
X692350D01*
Y25137D01*
X692292D01*
Y25196D01*
X692233D01*
Y25254D01*
X692175D01*
Y25313D01*
X692116D01*
Y25371D01*
X692058D01*
Y25488D01*
X691999D01*
Y25546D01*
X691941D01*
Y25605D01*
X691882D01*
Y25722D01*
X691824D01*
Y25838D01*
X691766D01*
Y25955D01*
X691707D01*
Y26072D01*
X691649D01*
Y26247D01*
X691590D01*
Y26540D01*
X691532D01*
Y27007D01*
X691473D01*
Y27183D01*
X691415D01*
Y27241D01*
X691357D01*
Y27358D01*
X691298D01*
Y27416D01*
X691181D01*
Y27475D01*
X691065D01*
Y27533D01*
X690948D01*
Y27592D01*
X690772D01*
Y27650D01*
X690538D01*
Y27708D01*
X690188D01*
Y27650D01*
X690071D01*
Y27592D01*
X690013D01*
Y27533D01*
X689954D01*
Y27475D01*
X689896D01*
Y27416D01*
X689837D01*
Y27299D01*
X689779D01*
Y27183D01*
X689721D01*
Y27066D01*
X689662D01*
Y27007D01*
X689604D01*
Y26890D01*
X689545D01*
Y26832D01*
X689487D01*
Y26715D01*
X689428D01*
Y26598D01*
X689370D01*
Y26540D01*
X689311D01*
Y26481D01*
X689253D01*
Y26364D01*
X689195D01*
Y26306D01*
X689136D01*
Y26189D01*
X689078D01*
Y26131D01*
X689019D01*
Y26072D01*
X688961D01*
Y25955D01*
X688902D01*
Y25897D01*
X688844D01*
Y25838D01*
X688785D01*
Y25780D01*
X688727D01*
Y25722D01*
X688669D01*
Y25605D01*
X688610D01*
Y25546D01*
X688552D01*
Y25488D01*
X688493D01*
Y25429D01*
X688435D01*
Y25371D01*
X688376D01*
Y25313D01*
X688318D01*
Y25254D01*
X688260D01*
Y25196D01*
X688201D01*
Y25137D01*
X688143D01*
Y25079D01*
X688084D01*
Y25020D01*
X688026D01*
Y24962D01*
X687967D01*
Y24904D01*
X687909D01*
Y24845D01*
X687851D01*
Y24787D01*
X687734D01*
Y24728D01*
X687675D01*
Y24670D01*
X687617D01*
Y24611D01*
X687558D01*
Y24553D01*
X687500D01*
Y24495D01*
X687383D01*
Y24436D01*
X687325D01*
Y24378D01*
X687266D01*
Y24319D01*
X687149D01*
Y24261D01*
X687091D01*
Y24202D01*
X686974D01*
Y24144D01*
X686916D01*
Y24086D01*
X686799D01*
Y24027D01*
X686682D01*
Y23969D01*
X686624D01*
Y23910D01*
X686507D01*
Y23852D01*
X686390D01*
Y23793D01*
X686273D01*
Y23735D01*
X686156D01*
Y23677D01*
X686039D01*
Y23618D01*
X685922D01*
Y23560D01*
X685805D01*
Y23501D01*
X685688D01*
Y23443D01*
X685572D01*
Y23384D01*
X685396D01*
Y23326D01*
X685279D01*
Y23267D01*
X685104D01*
Y23209D01*
X684929D01*
Y23151D01*
X684754D01*
Y23092D01*
X684578D01*
Y23034D01*
X684403D01*
Y22975D01*
X684169D01*
Y22917D01*
X683877D01*
Y22858D01*
X683585D01*
Y22800D01*
X683234D01*
Y22741D01*
X682825D01*
Y22683D01*
X681481D01*
Y22741D01*
X680955D01*
Y22800D01*
X680663D01*
Y22858D01*
X680371D01*
Y22917D01*
X680079D01*
Y22975D01*
X679845D01*
Y23034D01*
X679611D01*
Y23092D01*
X679436D01*
Y23151D01*
X679261D01*
Y23209D01*
X679085D01*
Y23267D01*
X678969D01*
Y23326D01*
X678793D01*
Y23384D01*
X678676D01*
Y23443D01*
X678560D01*
Y23501D01*
X678443D01*
Y23560D01*
X678326D01*
Y23618D01*
X678209D01*
Y23677D01*
X678092D01*
Y23735D01*
X677975D01*
Y23793D01*
X677858D01*
Y23852D01*
X677800D01*
Y23910D01*
X677683D01*
Y23969D01*
X677566D01*
Y24027D01*
X677508D01*
Y24086D01*
X677391D01*
Y24144D01*
X677333D01*
Y24202D01*
X677216D01*
Y24261D01*
X677157D01*
Y24319D01*
X677040D01*
Y24378D01*
X676982D01*
Y24436D01*
X676923D01*
Y24495D01*
X676865D01*
Y24553D01*
X676748D01*
Y24611D01*
X676690D01*
Y24670D01*
X676631D01*
Y24728D01*
X676573D01*
Y24787D01*
X676456D01*
Y24845D01*
X676397D01*
Y24904D01*
X676339D01*
Y24962D01*
X676281D01*
Y25020D01*
X676222D01*
Y25079D01*
X676164D01*
Y25137D01*
X676105D01*
Y25196D01*
X676047D01*
Y25254D01*
X675988D01*
Y25313D01*
X675930D01*
Y25371D01*
X675872D01*
Y25429D01*
X675813D01*
Y25488D01*
X675755D01*
Y25546D01*
X675696D01*
Y25605D01*
X675638D01*
Y25663D01*
X675579D01*
Y25780D01*
X675521D01*
Y25838D01*
X675463D01*
Y25897D01*
X675404D01*
Y25955D01*
X675346D01*
Y26072D01*
X675287D01*
Y26131D01*
X675229D01*
Y26189D01*
X675170D01*
Y26247D01*
X675112D01*
Y26364D01*
X675053D01*
Y26423D01*
X674995D01*
Y26540D01*
X674937D01*
Y26598D01*
X674878D01*
Y26715D01*
X674820D01*
Y26832D01*
X674761D01*
Y26890D01*
X674703D01*
Y27007D01*
X674644D01*
Y27124D01*
X674586D01*
Y27241D01*
X674528D01*
Y27299D01*
X674469D01*
Y27416D01*
X674411D01*
Y27533D01*
X674352D01*
Y27650D01*
X674294D01*
Y27825D01*
X674235D01*
Y27942D01*
X674177D01*
Y28117D01*
X674119D01*
Y28234D01*
X674060D01*
Y28410D01*
X674002D01*
Y28585D01*
X673943D01*
Y28643D01*
X674002D01*
Y28760D01*
X674060D01*
Y28819D01*
X674119D01*
Y28877D01*
X674177D01*
Y28935D01*
X674294D01*
Y28994D01*
X674469D01*
Y29052D01*
X674586D01*
Y29111D01*
X674761D01*
Y29169D01*
X674937D01*
Y29228D01*
X675112D01*
Y29286D01*
X675287D01*
Y29344D01*
X675521D01*
Y29403D01*
X675638D01*
Y29461D01*
X675813D01*
Y29520D01*
X676047D01*
Y29578D01*
X676456D01*
Y29520D01*
X676514D01*
Y29461D01*
X676573D01*
Y29403D01*
X676631D01*
Y29344D01*
X676690D01*
Y29286D01*
X676748D01*
Y29169D01*
X676807D01*
Y29111D01*
X676865D01*
Y28994D01*
X676923D01*
Y28877D01*
X676982D01*
Y28760D01*
X677040D01*
Y28643D01*
X677099D01*
Y28585D01*
X677157D01*
Y28468D01*
X677216D01*
Y28351D01*
X677274D01*
Y28293D01*
X677333D01*
Y28176D01*
X677391D01*
Y28117D01*
X677449D01*
Y28059D01*
X677508D01*
Y27942D01*
X677566D01*
Y27884D01*
X677625D01*
Y27825D01*
X677683D01*
Y27767D01*
X677741D01*
Y27650D01*
X677800D01*
Y27592D01*
X677858D01*
Y27533D01*
X677917D01*
Y27475D01*
X677975D01*
Y27416D01*
X678034D01*
Y27358D01*
X678092D01*
Y27299D01*
X678150D01*
Y27241D01*
X678209D01*
Y27183D01*
X678267D01*
Y27124D01*
X678326D01*
Y27066D01*
X678443D01*
Y27007D01*
X678501D01*
Y26949D01*
X678560D01*
Y26890D01*
X678676D01*
Y26832D01*
X678735D01*
Y26773D01*
X678793D01*
Y26715D01*
X678910D01*
Y26657D01*
X678969D01*
Y26598D01*
X679085D01*
Y26540D01*
X679202D01*
Y26481D01*
X679261D01*
Y26423D01*
X679378D01*
Y26364D01*
X679494D01*
Y26306D01*
X679553D01*
Y26247D01*
X679670D01*
Y26189D01*
X679845D01*
Y26131D01*
X679962D01*
Y26072D01*
X680079D01*
Y26014D01*
X680254D01*
Y25955D01*
X680430D01*
Y25897D01*
X680663D01*
Y25838D01*
X680897D01*
Y25780D01*
X681072D01*
Y25722D01*
X681423D01*
Y25663D01*
X682708D01*
Y25722D01*
X683176D01*
Y25780D01*
X683468D01*
Y25838D01*
X683702D01*
Y25897D01*
X683877D01*
Y25955D01*
X684111D01*
Y26014D01*
X684286D01*
Y26072D01*
X684403D01*
Y26131D01*
X684520D01*
Y26189D01*
X684637D01*
Y26247D01*
X684754D01*
Y26306D01*
X684871D01*
Y26364D01*
X684987D01*
Y26423D01*
X685104D01*
Y26481D01*
X685163D01*
Y26540D01*
X685279D01*
Y26598D01*
X685338D01*
Y26657D01*
X685396D01*
Y26715D01*
X685513D01*
Y26773D01*
X685572D01*
Y26832D01*
X685630D01*
Y26890D01*
X685688D01*
Y26949D01*
X685747D01*
Y27007D01*
X685805D01*
Y27066D01*
X685922D01*
Y27124D01*
X685981D01*
Y27183D01*
X686039D01*
Y27299D01*
X686098D01*
Y27358D01*
X686156D01*
Y27416D01*
X686214D01*
Y27475D01*
X686273D01*
Y27533D01*
X686331D01*
Y27592D01*
X686390D01*
Y27650D01*
X686448D01*
Y27708D01*
X686507D01*
Y27825D01*
X686565D01*
Y27884D01*
X686624D01*
Y28001D01*
X686682D01*
Y28059D01*
X686740D01*
Y28117D01*
X686799D01*
Y28234D01*
X686857D01*
Y28351D01*
X686916D01*
Y28468D01*
X686974D01*
Y28643D01*
X686916D01*
Y28760D01*
X686857D01*
Y28877D01*
X686740D01*
Y28935D01*
X686682D01*
Y28994D01*
X686507D01*
Y29052D01*
X686331D01*
Y29111D01*
X686098D01*
Y29169D01*
X685922D01*
Y29228D01*
X685747D01*
Y29286D01*
X685572D01*
Y29344D01*
X685338D01*
Y29403D01*
X685163D01*
Y29461D01*
X685046D01*
Y29520D01*
X684871D01*
Y29578D01*
X684695D01*
Y29637D01*
X684520D01*
Y29695D01*
X684286D01*
Y29754D01*
X684169D01*
Y29812D01*
X683994D01*
Y29871D01*
X683819D01*
Y29929D01*
X683585D01*
Y29987D01*
X683410D01*
Y30046D01*
X683234D01*
Y30104D01*
X683059D01*
Y30163D01*
X682884D01*
Y30221D01*
X682708D01*
Y30280D01*
X682475D01*
Y30338D01*
X682299D01*
Y30396D01*
X682124D01*
Y30455D01*
X681949D01*
Y30513D01*
X681715D01*
Y30572D01*
X681540D01*
Y30630D01*
X681364D01*
Y30689D01*
X681247D01*
Y30747D01*
X681014D01*
Y30805D01*
X680838D01*
Y30864D01*
X680605D01*
Y30922D01*
X680430D01*
Y30981D01*
X680254D01*
Y31039D01*
X680079D01*
Y31098D01*
X679904D01*
Y31156D01*
X679728D01*
Y31214D01*
X679553D01*
Y31273D01*
X679436D01*
Y31331D01*
X679261D01*
Y31390D01*
X679085D01*
Y31448D01*
X678910D01*
Y31507D01*
X678735D01*
Y31565D01*
X678560D01*
Y31623D01*
X678384D01*
Y31682D01*
X678150D01*
Y31740D01*
X678034D01*
Y31799D01*
X677858D01*
Y31857D01*
X677683D01*
Y31916D01*
X677449D01*
Y31974D01*
X677274D01*
Y32032D01*
X677099D01*
Y32091D01*
X676923D01*
Y32149D01*
X676748D01*
Y32208D01*
X676573D01*
Y32266D01*
X676397D01*
Y32325D01*
X676222D01*
Y32383D01*
X676047D01*
Y32442D01*
X675872D01*
Y32500D01*
X675638D01*
Y32558D01*
X675521D01*
Y32617D01*
X675346D01*
Y32675D01*
X675170D01*
Y32734D01*
X674937D01*
Y32792D01*
X674761D01*
Y32851D01*
X674586D01*
Y32909D01*
X674469D01*
Y32967D01*
X674411D01*
Y33026D01*
X674352D01*
Y33084D01*
X674294D01*
Y33318D01*
X674352D01*
Y33493D01*
X674411D01*
Y33669D01*
X674469D01*
Y33844D01*
X674528D01*
Y33961D01*
X674586D01*
Y34136D01*
X674644D01*
Y34253D01*
X674703D01*
Y34428D01*
X674761D01*
Y34545D01*
X674820D01*
Y34662D01*
X674878D01*
Y34779D01*
X674937D01*
Y34896D01*
X674995D01*
Y35013D01*
X675053D01*
Y35129D01*
X675112D01*
Y35246D01*
X675170D01*
Y35305D01*
X675229D01*
Y35422D01*
X675287D01*
Y35480D01*
X675346D01*
Y35597D01*
X675404D01*
Y35714D01*
X675463D01*
Y35772D01*
X675521D01*
Y35831D01*
X675579D01*
Y35948D01*
X675638D01*
Y36006D01*
X675696D01*
Y36065D01*
X675755D01*
Y36181D01*
X675813D01*
Y36240D01*
X675872D01*
Y36298D01*
X675930D01*
Y36357D01*
X675988D01*
Y36474D01*
X676047D01*
Y36532D01*
X676105D01*
Y36590D01*
X676164D01*
Y36649D01*
X676222D01*
Y36707D01*
X676281D01*
Y36766D01*
X676339D01*
Y36824D01*
X676397D01*
Y36883D01*
X676456D01*
Y36941D01*
X676514D01*
Y36999D01*
X676573D01*
Y37058D01*
X676631D01*
Y37116D01*
X676690D01*
Y37175D01*
X676748D01*
Y37233D01*
X676807D01*
Y37292D01*
X676865D01*
Y37350D01*
X676923D01*
Y37408D01*
X677040D01*
Y37467D01*
X677099D01*
Y37525D01*
X677157D01*
Y37584D01*
X677216D01*
Y37642D01*
X677333D01*
Y37701D01*
X677391D01*
Y37759D01*
X677449D01*
Y37817D01*
X677566D01*
Y37876D01*
X677625D01*
Y37934D01*
X677741D01*
Y37993D01*
X677800D01*
Y38051D01*
X677917D01*
Y38110D01*
X677975D01*
Y38168D01*
X678092D01*
Y38226D01*
X678209D01*
Y38285D01*
X678267D01*
Y38343D01*
X678384D01*
Y38402D01*
X678501D01*
Y38460D01*
X678618D01*
Y38519D01*
X678735D01*
Y38577D01*
X678852D01*
Y38636D01*
X678969D01*
Y38694D01*
X679144D01*
Y38752D01*
X679261D01*
Y38811D01*
X679436D01*
Y38869D01*
X679553D01*
Y38928D01*
X679728D01*
Y38986D01*
X679904D01*
Y39045D01*
X680137D01*
Y39103D01*
X680371D01*
Y39162D01*
X680546D01*
Y39220D01*
X680897D01*
Y39278D01*
X681306D01*
Y39337D01*
X682007D01*
Y39395D01*
X682884D01*
Y39337D01*
D02*
G37*
G36*
X652498Y32091D02*
X653024D01*
Y32032D01*
X653316D01*
Y31974D01*
X653550D01*
Y31916D01*
X653667D01*
Y31857D01*
X653842D01*
Y31799D01*
X653959D01*
Y31740D01*
X654076D01*
Y31682D01*
X654193D01*
Y31623D01*
X654309D01*
Y31565D01*
X654426D01*
Y31507D01*
X654485D01*
Y31448D01*
X654602D01*
Y31390D01*
X654660D01*
Y31331D01*
X654777D01*
Y31273D01*
X654835D01*
Y31214D01*
X654894D01*
Y31156D01*
X655011D01*
Y31098D01*
X655069D01*
Y31039D01*
X655127D01*
Y30981D01*
X655186D01*
Y30922D01*
X655244D01*
Y30864D01*
X655303D01*
Y30747D01*
X655361D01*
Y30689D01*
X655420D01*
Y30630D01*
X655478D01*
Y30572D01*
X655537D01*
Y30455D01*
X655595D01*
Y30396D01*
X655654D01*
Y30280D01*
X655712D01*
Y30163D01*
X655770D01*
Y30104D01*
X655829D01*
Y29987D01*
X655887D01*
Y29871D01*
X655946D01*
Y29695D01*
X656004D01*
Y29578D01*
X656062D01*
Y29403D01*
X656121D01*
Y29228D01*
X656179D01*
Y28994D01*
X656238D01*
Y28643D01*
X656296D01*
Y27416D01*
X656238D01*
Y27066D01*
X656179D01*
Y26832D01*
X656121D01*
Y26657D01*
X656062D01*
Y26540D01*
X656004D01*
Y26364D01*
X655946D01*
Y26247D01*
X655887D01*
Y26131D01*
X655829D01*
Y26072D01*
X655770D01*
Y25955D01*
X655712D01*
Y25838D01*
X655654D01*
Y25780D01*
X655595D01*
Y25663D01*
X655537D01*
Y25605D01*
X655478D01*
Y25546D01*
X655420D01*
Y25488D01*
X655361D01*
Y25371D01*
X655303D01*
Y25313D01*
X655244D01*
Y25254D01*
X655186D01*
Y25196D01*
X655127D01*
Y25137D01*
X655069D01*
Y25079D01*
X655011D01*
Y25020D01*
X654952D01*
Y24962D01*
X654894D01*
Y24904D01*
X654835D01*
Y24845D01*
X654718D01*
Y24787D01*
X654660D01*
Y24728D01*
X654602D01*
Y24670D01*
X654485D01*
Y24611D01*
X654426D01*
Y24553D01*
X654309D01*
Y24495D01*
X654193D01*
Y24436D01*
X654134D01*
Y24378D01*
X654017D01*
Y24319D01*
X653900D01*
Y24261D01*
X653784D01*
Y24202D01*
X653608D01*
Y24144D01*
X653433D01*
Y24086D01*
X648349D01*
Y24144D01*
X648291D01*
Y24202D01*
X648232D01*
Y24261D01*
X648174D01*
Y24378D01*
X648115D01*
Y25371D01*
X648174D01*
Y25429D01*
X648232D01*
Y25488D01*
X648291D01*
Y25546D01*
X648349D01*
Y25605D01*
X648408D01*
Y25663D01*
X649752D01*
Y25605D01*
X652615D01*
Y25663D01*
X652965D01*
Y25722D01*
X653141D01*
Y25780D01*
X653316D01*
Y25838D01*
X653433D01*
Y25897D01*
X653550D01*
Y25955D01*
X653608D01*
Y26014D01*
X653667D01*
Y26072D01*
X653725D01*
Y26131D01*
X653842D01*
Y26189D01*
X653900D01*
Y26306D01*
X654017D01*
Y26423D01*
X654076D01*
Y26481D01*
X654134D01*
Y26540D01*
X654193D01*
Y26598D01*
X654251D01*
Y26657D01*
X654309D01*
Y26715D01*
X654368D01*
Y26832D01*
X654426D01*
Y26890D01*
X654485D01*
Y27007D01*
X654543D01*
Y27124D01*
X654602D01*
Y27299D01*
X654660D01*
Y27475D01*
X654718D01*
Y27825D01*
X654777D01*
Y28468D01*
X654718D01*
Y28702D01*
X654660D01*
Y28935D01*
X654602D01*
Y29052D01*
X654543D01*
Y29169D01*
X654485D01*
Y29286D01*
X654426D01*
Y29403D01*
X654368D01*
Y29461D01*
X654309D01*
Y29520D01*
X654251D01*
Y29578D01*
X654193D01*
Y29695D01*
X654134D01*
Y29754D01*
X654076D01*
Y29812D01*
X654017D01*
Y29871D01*
X653900D01*
Y29929D01*
X653842D01*
Y29987D01*
X653784D01*
Y30046D01*
X653725D01*
Y30104D01*
X653608D01*
Y30163D01*
X653550D01*
Y30221D01*
X653433D01*
Y30280D01*
X653316D01*
Y30338D01*
X653199D01*
Y30396D01*
X653082D01*
Y30455D01*
X652849D01*
Y30513D01*
X652498D01*
Y30572D01*
X652089D01*
Y30513D01*
X651680D01*
Y30455D01*
X651446D01*
Y30396D01*
X651271D01*
Y30338D01*
X651096D01*
Y30280D01*
X650979D01*
Y30221D01*
X650803D01*
Y30163D01*
X650686D01*
Y30104D01*
X650570D01*
Y30046D01*
X650511D01*
Y29987D01*
X650219D01*
Y30046D01*
X650161D01*
Y30104D01*
X650102D01*
Y30163D01*
X650044D01*
Y31390D01*
X650102D01*
Y31507D01*
X650161D01*
Y31565D01*
X650219D01*
Y31623D01*
X650277D01*
Y31682D01*
X650336D01*
Y31740D01*
X650453D01*
Y31799D01*
X650628D01*
Y31857D01*
X650745D01*
Y31916D01*
X650920D01*
Y31974D01*
X651154D01*
Y32032D01*
X651446D01*
Y32091D01*
X651972D01*
Y32149D01*
X652498D01*
Y32091D01*
D02*
G37*
G36*
X663133Y31857D02*
X663425D01*
Y31799D01*
X663659D01*
Y31740D01*
X663893D01*
Y31682D01*
X664068D01*
Y31623D01*
X664185D01*
Y31565D01*
X664302D01*
Y31507D01*
X664418D01*
Y31448D01*
X664535D01*
Y31390D01*
X664652D01*
Y31331D01*
X664711D01*
Y31273D01*
X664769D01*
Y31214D01*
X664886D01*
Y31156D01*
X664944D01*
Y31098D01*
X665061D01*
Y31039D01*
X665120D01*
Y30981D01*
X665178D01*
Y30922D01*
X665237D01*
Y30864D01*
X665295D01*
Y30805D01*
X665353D01*
Y30747D01*
X665412D01*
Y30689D01*
X665470D01*
Y30630D01*
X665529D01*
Y30572D01*
X665587D01*
Y30455D01*
X665646D01*
Y30396D01*
X665704D01*
Y30338D01*
X665762D01*
Y30221D01*
X665821D01*
Y30163D01*
X665879D01*
Y30104D01*
X665938D01*
Y29987D01*
X665996D01*
Y29871D01*
X666055D01*
Y29754D01*
X666113D01*
Y29637D01*
X666172D01*
Y29520D01*
X666230D01*
Y29403D01*
X666288D01*
Y29228D01*
X666347D01*
Y28994D01*
X666405D01*
Y28819D01*
X666464D01*
Y28526D01*
X666522D01*
Y27066D01*
X666464D01*
Y26773D01*
X666405D01*
Y26598D01*
X666347D01*
Y26423D01*
X666288D01*
Y26189D01*
X666230D01*
Y26072D01*
X666172D01*
Y25897D01*
X666113D01*
Y25838D01*
X666055D01*
Y25722D01*
X665996D01*
Y25605D01*
X665938D01*
Y25546D01*
X665879D01*
Y25429D01*
X665821D01*
Y25371D01*
X665762D01*
Y25254D01*
X665704D01*
Y25196D01*
X665646D01*
Y25137D01*
X665587D01*
Y25079D01*
X665529D01*
Y25020D01*
X665470D01*
Y24904D01*
X665412D01*
Y24845D01*
X665353D01*
Y24787D01*
X665237D01*
Y24728D01*
X665178D01*
Y24670D01*
X665120D01*
Y24611D01*
X665061D01*
Y24553D01*
X664944D01*
Y24495D01*
X664886D01*
Y24436D01*
X664769D01*
Y24378D01*
X664652D01*
Y24319D01*
X664535D01*
Y24261D01*
X664360D01*
Y24202D01*
X664243D01*
Y24144D01*
X664009D01*
Y24086D01*
X663717D01*
Y24027D01*
X663308D01*
Y23969D01*
X661497D01*
Y24027D01*
X661321D01*
Y23969D01*
X661263D01*
Y24027D01*
X661146D01*
Y23969D01*
X661029D01*
Y24027D01*
X655303D01*
Y24086D01*
X655186D01*
Y24144D01*
X655127D01*
Y24202D01*
X655069D01*
Y24436D01*
X655127D01*
Y24495D01*
X655186D01*
Y24553D01*
X655303D01*
Y24611D01*
X655361D01*
Y24670D01*
X655420D01*
Y24728D01*
X655478D01*
Y24787D01*
X655537D01*
Y24904D01*
X655595D01*
Y24962D01*
X655654D01*
Y25020D01*
X655712D01*
Y25079D01*
X655770D01*
Y25137D01*
X655887D01*
Y25196D01*
X655946D01*
Y25254D01*
X656062D01*
Y25313D01*
X660094D01*
Y25254D01*
X662724D01*
Y25313D01*
X663133D01*
Y25371D01*
X663367D01*
Y25429D01*
X663484D01*
Y25488D01*
X663659D01*
Y25546D01*
X663776D01*
Y25605D01*
X663893D01*
Y25663D01*
X664009D01*
Y25722D01*
X664068D01*
Y25780D01*
X664185D01*
Y25838D01*
X664243D01*
Y25897D01*
X664302D01*
Y25955D01*
X664360D01*
Y26014D01*
X664418D01*
Y26072D01*
X664477D01*
Y26131D01*
X664535D01*
Y26189D01*
X664594D01*
Y26306D01*
X664652D01*
Y26364D01*
X664711D01*
Y26481D01*
X664769D01*
Y26598D01*
X664828D01*
Y26715D01*
X664886D01*
Y26832D01*
X664944D01*
Y27007D01*
X665003D01*
Y27299D01*
X664944D01*
Y27358D01*
X664886D01*
Y27416D01*
X664769D01*
Y27475D01*
X658984D01*
Y27533D01*
X658926D01*
Y27592D01*
X658809D01*
Y27708D01*
X658750D01*
Y27767D01*
X658692D01*
Y27884D01*
X658634D01*
Y28001D01*
X658692D01*
Y28468D01*
X658750D01*
Y28702D01*
X658809D01*
Y28935D01*
X658867D01*
Y29169D01*
X658926D01*
Y29344D01*
X658984D01*
Y29461D01*
X659043D01*
Y29637D01*
X659101D01*
Y29695D01*
X659159D01*
Y29871D01*
X659218D01*
Y29929D01*
X659276D01*
Y30046D01*
X659335D01*
Y30104D01*
X659393D01*
Y30221D01*
X659452D01*
Y30338D01*
X659510D01*
Y30396D01*
X659568D01*
Y30455D01*
X659627D01*
Y30513D01*
X659685D01*
Y30630D01*
X659744D01*
Y30689D01*
X659802D01*
Y30747D01*
X659861D01*
Y30805D01*
X659919D01*
Y30864D01*
X659978D01*
Y30922D01*
X660036D01*
Y30981D01*
X660153D01*
Y31039D01*
X660211D01*
Y31098D01*
X660270D01*
Y31156D01*
X660328D01*
Y31214D01*
X660445D01*
Y31273D01*
X660503D01*
Y31331D01*
X660620D01*
Y31390D01*
X660679D01*
Y31448D01*
X660796D01*
Y31507D01*
X660912D01*
Y31565D01*
X661029D01*
Y31623D01*
X661146D01*
Y31682D01*
X661321D01*
Y31740D01*
X661497D01*
Y31799D01*
X661731D01*
Y31857D01*
X661964D01*
Y31916D01*
X663133D01*
Y31857D01*
D02*
G37*
G36*
X671606Y33844D02*
X671781D01*
Y33786D01*
X671840D01*
Y33727D01*
X671898D01*
Y33552D01*
X671956D01*
Y33143D01*
X672015D01*
Y32617D01*
X671956D01*
Y32558D01*
X672015D01*
Y32442D01*
X671956D01*
Y31974D01*
X672015D01*
Y31857D01*
X672073D01*
Y31799D01*
X672132D01*
Y31740D01*
X672190D01*
Y31682D01*
X673476D01*
Y31623D01*
X673593D01*
Y31565D01*
X673709D01*
Y31507D01*
X673768D01*
Y31390D01*
X673826D01*
Y31273D01*
Y31214D01*
X673885D01*
Y31156D01*
X673826D01*
Y30338D01*
X673768D01*
Y30221D01*
X673709D01*
Y30163D01*
X673593D01*
Y30104D01*
X673476D01*
Y30046D01*
X672190D01*
Y29987D01*
X672073D01*
Y29929D01*
X672015D01*
Y29812D01*
X671956D01*
Y24378D01*
X671898D01*
Y24144D01*
X671840D01*
Y24086D01*
X671781D01*
Y24027D01*
X671723D01*
Y23969D01*
X671664D01*
Y23910D01*
X665704D01*
Y23969D01*
X665646D01*
Y24027D01*
X665587D01*
Y24319D01*
X665646D01*
Y24378D01*
X665704D01*
Y24436D01*
X665762D01*
Y24495D01*
X665821D01*
Y24553D01*
X665879D01*
Y24611D01*
X665938D01*
Y24670D01*
X665996D01*
Y24728D01*
X666055D01*
Y24787D01*
X666113D01*
Y24845D01*
X666172D01*
Y24904D01*
X666230D01*
Y24962D01*
X666288D01*
Y25020D01*
X666405D01*
Y25079D01*
X666464D01*
Y25137D01*
X666639D01*
Y25196D01*
X670028D01*
Y25254D01*
X670087D01*
Y25313D01*
X670145D01*
Y25371D01*
X670203D01*
Y25429D01*
X670262D01*
Y29871D01*
X670203D01*
Y29929D01*
X670145D01*
Y29987D01*
X670087D01*
Y30046D01*
X668567D01*
Y30104D01*
X668450D01*
Y30163D01*
X668334D01*
Y30280D01*
X668275D01*
Y30338D01*
X668217D01*
Y31390D01*
X668275D01*
Y31507D01*
X668334D01*
Y31565D01*
X668450D01*
Y31623D01*
X668567D01*
Y31682D01*
X670028D01*
Y31740D01*
X670145D01*
Y31799D01*
X670203D01*
Y31857D01*
X670262D01*
Y33552D01*
X670320D01*
Y33669D01*
X670379D01*
Y33727D01*
X670437D01*
Y33786D01*
X670496D01*
Y33844D01*
X670554D01*
Y33902D01*
X671606D01*
Y33844D01*
D02*
G37*
G36*
X694804Y19878D02*
X694746D01*
Y19820D01*
X694629D01*
Y19761D01*
X694512D01*
Y19703D01*
X694395D01*
Y19645D01*
X694278D01*
Y19586D01*
X694103D01*
Y19528D01*
X612120D01*
Y19586D01*
X612003D01*
Y19645D01*
X611886D01*
Y19703D01*
X611828D01*
Y19761D01*
X611711D01*
Y19820D01*
X611653D01*
Y19878D01*
X611477D01*
Y19937D01*
X694804D01*
Y19878D01*
D02*
G37*
%LPC*%
G36*
X639759Y29987D02*
X638415D01*
Y29929D01*
X638298D01*
Y29812D01*
X638240D01*
Y29754D01*
X638182D01*
Y29169D01*
Y29111D01*
Y28585D01*
X638240D01*
Y28526D01*
X638298D01*
Y28468D01*
X638357D01*
Y28410D01*
X638415D01*
Y28351D01*
X639759D01*
Y29987D01*
D02*
G37*
G36*
X635377Y29812D02*
X635318D01*
Y29754D01*
X635260D01*
Y29520D01*
X635201D01*
Y29344D01*
X635143D01*
Y29169D01*
X635085D01*
Y28994D01*
X635026D01*
Y28760D01*
X634968D01*
Y28526D01*
X634909D01*
Y28351D01*
X634851D01*
Y28176D01*
X634793D01*
Y28001D01*
X634734D01*
Y27767D01*
X634676D01*
Y27650D01*
X635961D01*
Y27825D01*
X635903D01*
Y28059D01*
X635844D01*
Y28234D01*
X635786D01*
Y28410D01*
X635727D01*
Y28643D01*
X635669D01*
Y28819D01*
X635611D01*
Y28994D01*
X635552D01*
Y29169D01*
X635494D01*
Y29403D01*
X635435D01*
Y29578D01*
X635377D01*
Y29812D01*
D02*
G37*
G36*
X683059Y36415D02*
X681657D01*
Y36357D01*
X681364D01*
Y36298D01*
X681131D01*
Y36240D01*
X680897D01*
Y36181D01*
X680722D01*
Y36123D01*
X680546D01*
Y36065D01*
X680430D01*
Y36006D01*
X680313D01*
Y35948D01*
X680196D01*
Y35889D01*
X680079D01*
Y35831D01*
X679962D01*
Y35772D01*
X679845D01*
Y35714D01*
X679728D01*
Y35655D01*
X679611D01*
Y35597D01*
X679553D01*
Y35539D01*
X679436D01*
Y35480D01*
X679378D01*
Y35422D01*
X679261D01*
Y35363D01*
X679202D01*
Y35305D01*
X679085D01*
Y35246D01*
X679027D01*
Y35188D01*
X678969D01*
Y35129D01*
X678852D01*
Y35071D01*
X678793D01*
Y35013D01*
X678735D01*
Y34954D01*
X678676D01*
Y34896D01*
X678618D01*
Y34837D01*
X678560D01*
Y34720D01*
X678501D01*
Y34545D01*
X678560D01*
Y34487D01*
X678618D01*
Y34428D01*
X678676D01*
Y34370D01*
X678793D01*
Y34311D01*
X678969D01*
Y34253D01*
X679085D01*
Y34195D01*
X679261D01*
Y34136D01*
X679436D01*
Y34078D01*
X679611D01*
Y34019D01*
X679787D01*
Y33961D01*
X680020D01*
Y33902D01*
X680196D01*
Y33844D01*
X680313D01*
Y33786D01*
X680488D01*
Y33727D01*
X680722D01*
Y33669D01*
X680897D01*
Y33610D01*
X681072D01*
Y33552D01*
X681247D01*
Y33493D01*
X681423D01*
Y33435D01*
X681657D01*
Y33377D01*
X681832D01*
Y33318D01*
X682007D01*
Y33260D01*
X682182D01*
Y33201D01*
X682358D01*
Y33143D01*
X682533D01*
Y33084D01*
X682708D01*
Y33026D01*
X682884D01*
Y32967D01*
X683000D01*
Y32909D01*
X683234D01*
Y32851D01*
X683410D01*
Y32792D01*
X683585D01*
Y32734D01*
X683760D01*
Y32675D01*
X683935D01*
Y32617D01*
X684111D01*
Y32558D01*
X684345D01*
Y32500D01*
X684520D01*
Y32442D01*
X684695D01*
Y32383D01*
X684871D01*
Y32325D01*
X685046D01*
Y32266D01*
X685279D01*
Y32208D01*
X685396D01*
Y32149D01*
X685572D01*
Y32091D01*
X685747D01*
Y32032D01*
X685922D01*
Y31974D01*
X686098D01*
Y31916D01*
X686273D01*
Y31857D01*
X686448D01*
Y31799D01*
X686624D01*
Y31740D01*
X686799D01*
Y31682D01*
X687032D01*
Y31623D01*
X687208D01*
Y31565D01*
X687383D01*
Y31623D01*
X687500D01*
Y31682D01*
X687558D01*
Y31799D01*
X687617D01*
Y31974D01*
X687558D01*
Y32266D01*
X687500D01*
Y32500D01*
X687442D01*
Y32734D01*
X687383D01*
Y32909D01*
X687325D01*
Y33026D01*
X687266D01*
Y33201D01*
X687208D01*
Y33318D01*
X687149D01*
Y33435D01*
X687091D01*
Y33552D01*
X687032D01*
Y33669D01*
X686974D01*
Y33786D01*
X686916D01*
Y33902D01*
X686857D01*
Y34019D01*
X686799D01*
Y34078D01*
X686740D01*
Y34195D01*
X686682D01*
Y34253D01*
X686624D01*
Y34311D01*
X686565D01*
Y34428D01*
X686507D01*
Y34487D01*
X686448D01*
Y34545D01*
X686390D01*
Y34604D01*
X686331D01*
Y34662D01*
X686273D01*
Y34779D01*
X686214D01*
Y34837D01*
X686156D01*
Y34896D01*
X686098D01*
Y34954D01*
X685981D01*
Y35013D01*
X685922D01*
Y35071D01*
X685864D01*
Y35129D01*
X685805D01*
Y35188D01*
X685747D01*
Y35246D01*
X685630D01*
Y35305D01*
X685572D01*
Y35363D01*
X685513D01*
Y35422D01*
X685396D01*
Y35480D01*
X685279D01*
Y35539D01*
X685221D01*
Y35597D01*
X685104D01*
Y35655D01*
X684987D01*
Y35714D01*
X684871D01*
Y35772D01*
X684754D01*
Y35831D01*
X684637D01*
Y35889D01*
X684520D01*
Y35948D01*
X684403D01*
Y36006D01*
X684228D01*
Y36065D01*
X684111D01*
Y36123D01*
X683935D01*
Y36181D01*
X683819D01*
Y36240D01*
X683585D01*
Y36298D01*
X683351D01*
Y36357D01*
X683059D01*
Y36415D01*
D02*
G37*
G36*
X662782Y30396D02*
X662373D01*
Y30338D01*
X662081D01*
Y30280D01*
X661847D01*
Y30221D01*
X661672D01*
Y30163D01*
X661555D01*
Y30104D01*
X661438D01*
Y30046D01*
X661380D01*
Y29987D01*
X661263D01*
Y29929D01*
X661146D01*
Y29871D01*
X661088D01*
Y29812D01*
X661029D01*
Y29754D01*
X660971D01*
Y29695D01*
X660912D01*
Y29637D01*
X660854D01*
Y29578D01*
X660796D01*
Y29520D01*
X660737D01*
Y29461D01*
X660679D01*
Y29403D01*
X660620D01*
Y29344D01*
X660562D01*
Y29228D01*
X660503D01*
Y29169D01*
X660445D01*
Y28994D01*
X660503D01*
Y28877D01*
X660620D01*
Y28819D01*
X664243D01*
Y28760D01*
X664594D01*
Y28819D01*
X664711D01*
Y28935D01*
X664769D01*
Y29111D01*
X664711D01*
Y29228D01*
X664652D01*
Y29286D01*
X664594D01*
Y29403D01*
X664535D01*
Y29461D01*
X664477D01*
Y29520D01*
X664418D01*
Y29578D01*
X664360D01*
Y29695D01*
X664302D01*
Y29754D01*
X664185D01*
Y29812D01*
X664126D01*
Y29871D01*
X664068D01*
Y29929D01*
X664009D01*
Y29987D01*
X663893D01*
Y30046D01*
X663776D01*
Y30104D01*
X663717D01*
Y30163D01*
X663542D01*
Y30221D01*
X663367D01*
Y30280D01*
X663133D01*
Y30338D01*
X662782D01*
Y30396D01*
D02*
G37*
%LPD*%
D39*
X752000Y225400D02*
D03*
Y238100D02*
D03*
Y212700D02*
D03*
Y200000D02*
D03*
Y187300D02*
D03*
Y174600D02*
D03*
Y161900D02*
D03*
X698000Y238100D02*
D03*
Y225400D02*
D03*
Y212700D02*
D03*
Y200000D02*
D03*
Y187300D02*
D03*
Y174600D02*
D03*
Y161900D02*
D03*
X620750Y229800D02*
D03*
Y242500D02*
D03*
Y217100D02*
D03*
Y204400D02*
D03*
Y191700D02*
D03*
Y179000D02*
D03*
Y166300D02*
D03*
X566750Y242500D02*
D03*
Y229800D02*
D03*
Y217100D02*
D03*
Y204400D02*
D03*
Y191700D02*
D03*
Y179000D02*
D03*
Y166300D02*
D03*
X487750Y230200D02*
D03*
Y242900D02*
D03*
Y217500D02*
D03*
Y204800D02*
D03*
Y192100D02*
D03*
Y179400D02*
D03*
Y166700D02*
D03*
X433750Y242900D02*
D03*
Y230200D02*
D03*
Y217500D02*
D03*
Y204800D02*
D03*
Y192100D02*
D03*
Y179400D02*
D03*
Y166700D02*
D03*
X540000Y370800D02*
D03*
Y332700D02*
D03*
X486000Y370800D02*
D03*
Y320000D02*
D03*
X512000Y520400D02*
D03*
Y533100D02*
D03*
Y507700D02*
D03*
Y495000D02*
D03*
Y482300D02*
D03*
Y469600D02*
D03*
Y456900D02*
D03*
X458000Y533100D02*
D03*
Y520400D02*
D03*
Y507700D02*
D03*
Y495000D02*
D03*
Y482300D02*
D03*
Y469600D02*
D03*
Y456900D02*
D03*
X396000Y320000D02*
D03*
Y332700D02*
D03*
Y345400D02*
D03*
Y358100D02*
D03*
Y370800D02*
D03*
Y383500D02*
D03*
Y396200D02*
D03*
X450000Y320000D02*
D03*
Y332700D02*
D03*
Y345400D02*
D03*
Y396200D02*
D03*
Y370800D02*
D03*
Y358100D02*
D03*
Y383500D02*
D03*
X540000Y396200D02*
D03*
Y383500D02*
D03*
Y358100D02*
D03*
Y345400D02*
D03*
Y320000D02*
D03*
X486000Y396200D02*
D03*
Y383500D02*
D03*
Y358100D02*
D03*
Y345400D02*
D03*
Y332700D02*
D03*
X596000Y320000D02*
D03*
Y332700D02*
D03*
Y345400D02*
D03*
Y358100D02*
D03*
Y370800D02*
D03*
Y383500D02*
D03*
Y396200D02*
D03*
X650000Y320000D02*
D03*
Y332700D02*
D03*
Y345400D02*
D03*
Y358100D02*
D03*
Y370800D02*
D03*
Y396200D02*
D03*
Y383500D02*
D03*
D40*
X491900Y72000D02*
D03*
X504600D02*
D03*
X517300D02*
D03*
X530000D02*
D03*
X542700D02*
D03*
X555400D02*
D03*
X568100D02*
D03*
X491900Y18000D02*
D03*
X504600D02*
D03*
X517300D02*
D03*
X530000D02*
D03*
X542700D02*
D03*
X555400D02*
D03*
X568100D02*
D03*
X734600Y352000D02*
D03*
X721900D02*
D03*
X747300D02*
D03*
X760000D02*
D03*
X772700D02*
D03*
X785400D02*
D03*
X798100D02*
D03*
X721900Y298000D02*
D03*
X734600D02*
D03*
X747300D02*
D03*
X760000D02*
D03*
X772700D02*
D03*
X785400D02*
D03*
X798100D02*
D03*
D41*
X434701Y150299D02*
D03*
X685000Y182500D02*
D03*
X767500Y200000D02*
D03*
X685000Y160000D02*
D03*
X550000Y220000D02*
D03*
X635000Y212500D02*
D03*
X570000Y152500D02*
D03*
X462500Y140000D02*
D03*
X504588Y210000D02*
D03*
X482500Y305000D02*
D03*
X462500Y62500D02*
D03*
X585000Y17501D02*
D03*
X100000Y220000D02*
D03*
X472500Y362500D02*
D03*
X467500Y340000D02*
D03*
X667500Y360000D02*
D03*
X712500Y390000D02*
D03*
X775000D02*
D03*
X715000Y365000D02*
D03*
X620000Y305000D02*
D03*
X655000Y407500D02*
D03*
X627500Y472500D02*
D03*
X542500Y307500D02*
D03*
X427500Y302500D02*
D03*
X440000Y265000D02*
D03*
X540000Y282500D02*
D03*
X650000Y212500D02*
D03*
X807500Y425000D02*
D03*
X565000Y390000D02*
D03*
X75000Y310000D02*
D03*
X160000Y120000D02*
D03*
X190500Y249550D02*
D03*
X90000Y340000D02*
D03*
X83750Y397500D02*
D03*
X160000Y320000D02*
D03*
X190000Y340000D02*
D03*
X168100Y220000D02*
D03*
X115000Y190000D02*
D03*
X405000Y130000D02*
D03*
X811195Y267500D02*
D03*
D44*
X480000Y93250D02*
D03*
Y111750D02*
D03*
X605000Y90750D02*
D03*
Y109250D02*
D03*
X675000Y269250D02*
D03*
Y250750D02*
D03*
X820000Y408650D02*
D03*
Y390150D02*
D03*
X797500Y408650D02*
D03*
Y390150D02*
D03*
X675000D02*
D03*
Y408650D02*
D03*
D45*
X50000Y330000D02*
D03*
Y390000D02*
D03*
D46*
X454250Y279400D02*
D03*
X473250D02*
D03*
X473250Y259400D02*
D03*
X454250D02*
D03*
X584250Y279400D02*
D03*
X603250D02*
D03*
Y259400D02*
D03*
X584250D02*
D03*
X715500Y272500D02*
D03*
X734500D02*
D03*
Y255000D02*
D03*
X715500D02*
D03*
X754500Y384400D02*
D03*
X735500D02*
D03*
Y404400D02*
D03*
X754500D02*
D03*
X430500Y431200D02*
D03*
X411500D02*
D03*
Y411200D02*
D03*
X430500D02*
D03*
X520500D02*
D03*
X501500D02*
D03*
Y431200D02*
D03*
X520500D02*
D03*
X630500D02*
D03*
X611500D02*
D03*
Y411200D02*
D03*
X630500D02*
D03*
D47*
X168100Y242750D02*
D03*
X155400D02*
D03*
X142700D02*
D03*
X130000D02*
D03*
X117300D02*
D03*
X104600D02*
D03*
X91900D02*
D03*
X168100Y297250D02*
D03*
X155400D02*
D03*
X142700D02*
D03*
X130000D02*
D03*
X117300D02*
D03*
X104600D02*
D03*
X91900D02*
D03*
D48*
X475000Y23000D02*
D03*
Y42000D02*
D03*
X700000Y311000D02*
D03*
Y330000D02*
D03*
X680000D02*
D03*
Y311000D02*
D03*
X500000Y93000D02*
D03*
Y112000D02*
D03*
X520000D02*
D03*
Y93000D02*
D03*
X200000Y439500D02*
D03*
Y420500D02*
D03*
X180000Y439500D02*
D03*
Y420500D02*
D03*
X160000Y439500D02*
D03*
Y420500D02*
D03*
D59*
X701500Y410000D02*
D03*
X720000D02*
D03*
X169250Y150000D02*
D03*
X150750D02*
D03*
X169250Y190000D02*
D03*
X150750D02*
D03*
X190750Y270000D02*
D03*
X209250D02*
D03*
D62*
X222100Y437900D02*
D03*
Y412500D02*
D03*
X272900Y437900D02*
D03*
D63*
Y387100D02*
D03*
D64*
X850000Y355000D02*
D03*
X825000Y330000D02*
D03*
X850000D02*
D03*
X825000Y305000D02*
D03*
X850000D02*
D03*
X825000Y280000D02*
D03*
X850000D02*
D03*
X825000Y255000D02*
D03*
X850000Y180000D02*
D03*
Y205000D02*
D03*
X825000D02*
D03*
Y230000D02*
D03*
Y355000D02*
D03*
X850000Y255000D02*
D03*
Y230000D02*
D03*
X758200Y525500D02*
D03*
X732800D02*
D03*
X700000Y352300D02*
D03*
Y377700D02*
D03*
X40000Y150000D02*
D03*
Y180000D02*
D03*
X80000Y510000D02*
D03*
X50000D02*
D03*
X190000D02*
D03*
X160000D02*
D03*
D65*
X825000Y180000D02*
D03*
D66*
X850000Y50000D02*
D03*
X400000Y500000D02*
D03*
Y50000D02*
D03*
X850000Y500000D02*
D03*
D67*
X679900Y520500D02*
D03*
X629100D02*
D03*
X654500D02*
D03*
D68*
X100000Y190800D02*
D03*
D69*
Y140000D02*
D03*
X125400Y165400D02*
D03*
D89*
X720250Y422050D02*
D03*
Y434750D02*
D03*
Y447450D02*
D03*
Y460150D02*
D03*
Y472850D02*
D03*
Y485550D02*
D03*
Y498250D02*
D03*
X774750Y422050D02*
D03*
Y434750D02*
D03*
Y447450D02*
D03*
Y460150D02*
D03*
Y472850D02*
D03*
Y485550D02*
D03*
Y498250D02*
D03*
D90*
X650000Y424500D02*
D03*
Y452500D02*
D03*
Y473500D02*
D03*
Y501500D02*
D03*
X800000Y529000D02*
D03*
Y501000D02*
D03*
X50000Y276000D02*
D03*
Y304000D02*
D03*
D91*
X671000Y499400D02*
D03*
X699000D02*
D03*
X671000Y461900D02*
D03*
X699000D02*
D03*
X839000Y445000D02*
D03*
X811000D02*
D03*
X138000Y320000D02*
D03*
X110000D02*
D03*
D92*
X190500Y224250D02*
D03*
X209500D02*
D03*
X200000Y195750D02*
D03*
X190500Y174250D02*
D03*
X209500D02*
D03*
X200000Y145750D02*
D03*
D93*
X110000Y360000D02*
D03*
X170000D02*
D03*
M02*
