G04*
G04 #@! TF.GenerationSoftware,Altium Limited,Altium Designer,23.9.2 (47)*
G04*
G04 Layer_Color=8388736*
%FSLAX44Y44*%
%MOMM*%
G71*
G04*
G04 #@! TF.SameCoordinates,1607B9EF-4730-45C7-A4D5-593DF947B7B5*
G04*
G04*
G04 #@! TF.FilePolarity,Negative*
G04*
G01*
G75*
G04:AMPARAMS|DCode=36|XSize=3.5032mm|YSize=2.5032mm|CornerRadius=0.6766mm|HoleSize=0mm|Usage=FLASHONLY|Rotation=0.000|XOffset=0mm|YOffset=0mm|HoleType=Round|Shape=RoundedRectangle|*
%AMROUNDEDRECTD36*
21,1,3.5032,1.1500,0,0,0.0*
21,1,2.1500,2.5032,0,0,0.0*
1,1,1.3532,1.0750,-0.5750*
1,1,1.3532,-1.0750,-0.5750*
1,1,1.3532,-1.0750,0.5750*
1,1,1.3532,1.0750,0.5750*
%
%ADD36ROUNDEDRECTD36*%
%ADD37R,1.5032X1.1032*%
%ADD38R,1.5532X1.3532*%
%ADD39C,1.2032*%
G04:AMPARAMS|DCode=40|XSize=5.8032mm|YSize=7.1032mm|CornerRadius=1.5016mm|HoleSize=0mm|Usage=FLASHONLY|Rotation=180.000|XOffset=0mm|YOffset=0mm|HoleType=Round|Shape=RoundedRectangle|*
%AMROUNDEDRECTD40*
21,1,5.8032,4.1000,0,0,180.0*
21,1,2.8000,7.1032,0,0,180.0*
1,1,3.0032,-1.4000,2.0500*
1,1,3.0032,1.4000,2.0500*
1,1,3.0032,1.4000,-2.0500*
1,1,3.0032,-1.4000,-2.0500*
%
%ADD40ROUNDEDRECTD40*%
G04:AMPARAMS|DCode=41|XSize=0.8532mm|YSize=1.2032mm|CornerRadius=0.2641mm|HoleSize=0mm|Usage=FLASHONLY|Rotation=0.000|XOffset=0mm|YOffset=0mm|HoleType=Round|Shape=RoundedRectangle|*
%AMROUNDEDRECTD41*
21,1,0.8532,0.6750,0,0,0.0*
21,1,0.3250,1.2032,0,0,0.0*
1,1,0.5282,0.1625,-0.3375*
1,1,0.5282,-0.1625,-0.3375*
1,1,0.5282,-0.1625,0.3375*
1,1,0.5282,0.1625,0.3375*
%
%ADD41ROUNDEDRECTD41*%
G04:AMPARAMS|DCode=42|XSize=1.5032mm|YSize=1.3032mm|CornerRadius=0.3766mm|HoleSize=0mm|Usage=FLASHONLY|Rotation=0.000|XOffset=0mm|YOffset=0mm|HoleType=Round|Shape=RoundedRectangle|*
%AMROUNDEDRECTD42*
21,1,1.5032,0.5500,0,0,0.0*
21,1,0.7500,1.3032,0,0,0.0*
1,1,0.7532,0.3750,-0.2750*
1,1,0.7532,-0.3750,-0.2750*
1,1,0.7532,-0.3750,0.2750*
1,1,0.7532,0.3750,0.2750*
%
%ADD42ROUNDEDRECTD42*%
%ADD43R,2.4032X1.5032*%
%ADD44R,2.2032X3.0032*%
G04:AMPARAMS|DCode=45|XSize=1.9532mm|YSize=1.4532mm|CornerRadius=0.4141mm|HoleSize=0mm|Usage=FLASHONLY|Rotation=180.000|XOffset=0mm|YOffset=0mm|HoleType=Round|Shape=RoundedRectangle|*
%AMROUNDEDRECTD45*
21,1,1.9532,0.6250,0,0,180.0*
21,1,1.1250,1.4532,0,0,180.0*
1,1,0.8282,-0.5625,0.3125*
1,1,0.8282,0.5625,0.3125*
1,1,0.8282,0.5625,-0.3125*
1,1,0.8282,-0.5625,-0.3125*
%
%ADD45ROUNDEDRECTD45*%
%ADD46R,3.7032X1.7032*%
G04:AMPARAMS|DCode=47|XSize=1.7032mm|YSize=2.3032mm|CornerRadius=0.4766mm|HoleSize=0mm|Usage=FLASHONLY|Rotation=90.000|XOffset=0mm|YOffset=0mm|HoleType=Round|Shape=RoundedRectangle|*
%AMROUNDEDRECTD47*
21,1,1.7032,1.3500,0,0,90.0*
21,1,0.7500,2.3032,0,0,90.0*
1,1,0.9532,0.6750,0.3750*
1,1,0.9532,0.6750,-0.3750*
1,1,0.9532,-0.6750,-0.3750*
1,1,0.9532,-0.6750,0.3750*
%
%ADD47ROUNDEDRECTD47*%
G04:AMPARAMS|DCode=48|XSize=0.8532mm|YSize=1.4532mm|CornerRadius=0.2641mm|HoleSize=0mm|Usage=FLASHONLY|Rotation=90.000|XOffset=0mm|YOffset=0mm|HoleType=Round|Shape=RoundedRectangle|*
%AMROUNDEDRECTD48*
21,1,0.8532,0.9250,0,0,90.0*
21,1,0.3250,1.4532,0,0,90.0*
1,1,0.5282,0.4625,0.1625*
1,1,0.5282,0.4625,-0.1625*
1,1,0.5282,-0.4625,-0.1625*
1,1,0.5282,-0.4625,0.1625*
%
%ADD48ROUNDEDRECTD48*%
G04:AMPARAMS|DCode=49|XSize=1.7032mm|YSize=3.2032mm|CornerRadius=0.4766mm|HoleSize=0mm|Usage=FLASHONLY|Rotation=180.000|XOffset=0mm|YOffset=0mm|HoleType=Round|Shape=RoundedRectangle|*
%AMROUNDEDRECTD49*
21,1,1.7032,2.2500,0,0,180.0*
21,1,0.7500,3.2032,0,0,180.0*
1,1,0.9532,-0.3750,1.1250*
1,1,0.9532,0.3750,1.1250*
1,1,0.9532,0.3750,-1.1250*
1,1,0.9532,-0.3750,-1.1250*
%
%ADD49ROUNDEDRECTD49*%
G04:AMPARAMS|DCode=50|XSize=6.7032mm|YSize=6.7032mm|CornerRadius=0.9141mm|HoleSize=0mm|Usage=FLASHONLY|Rotation=90.000|XOffset=0mm|YOffset=0mm|HoleType=Round|Shape=RoundedRectangle|*
%AMROUNDEDRECTD50*
21,1,6.7032,4.8750,0,0,90.0*
21,1,4.8750,6.7032,0,0,90.0*
1,1,1.8282,2.4375,2.4375*
1,1,1.8282,2.4375,-2.4375*
1,1,1.8282,-2.4375,-2.4375*
1,1,1.8282,-2.4375,2.4375*
%
%ADD50ROUNDEDRECTD50*%
G04:AMPARAMS|DCode=51|XSize=1.4032mm|YSize=1.3032mm|CornerRadius=0.3766mm|HoleSize=0mm|Usage=FLASHONLY|Rotation=0.000|XOffset=0mm|YOffset=0mm|HoleType=Round|Shape=RoundedRectangle|*
%AMROUNDEDRECTD51*
21,1,1.4032,0.5500,0,0,0.0*
21,1,0.6500,1.3032,0,0,0.0*
1,1,0.7532,0.3250,-0.2750*
1,1,0.7532,-0.3250,-0.2750*
1,1,0.7532,-0.3250,0.2750*
1,1,0.7532,0.3250,0.2750*
%
%ADD51ROUNDEDRECTD51*%
G04:AMPARAMS|DCode=52|XSize=6.7032mm|YSize=6.7032mm|CornerRadius=0.9141mm|HoleSize=0mm|Usage=FLASHONLY|Rotation=90.000|XOffset=0mm|YOffset=0mm|HoleType=Round|Shape=RoundedRectangle|*
%AMROUNDEDRECTD52*
21,1,6.7032,4.8750,0,0,90.0*
21,1,4.8750,6.7032,0,0,90.0*
1,1,1.8282,2.4375,2.4375*
1,1,1.8282,2.4375,-2.4375*
1,1,1.8282,-2.4375,-2.4375*
1,1,1.8282,-2.4375,2.4375*
%
%ADD52ROUNDEDRECTD52*%
G04:AMPARAMS|DCode=53|XSize=3.7032mm|YSize=1.7032mm|CornerRadius=0.4766mm|HoleSize=0mm|Usage=FLASHONLY|Rotation=0.000|XOffset=0mm|YOffset=0mm|HoleType=Round|Shape=RoundedRectangle|*
%AMROUNDEDRECTD53*
21,1,3.7032,0.7500,0,0,0.0*
21,1,2.7500,1.7032,0,0,0.0*
1,1,0.9532,1.3750,-0.3750*
1,1,0.9532,-1.3750,-0.3750*
1,1,0.9532,-1.3750,0.3750*
1,1,0.9532,1.3750,0.3750*
%
%ADD53ROUNDEDRECTD53*%
G04:AMPARAMS|DCode=54|XSize=1.5532mm|YSize=1.3532mm|CornerRadius=0.3891mm|HoleSize=0mm|Usage=FLASHONLY|Rotation=270.000|XOffset=0mm|YOffset=0mm|HoleType=Round|Shape=RoundedRectangle|*
%AMROUNDEDRECTD54*
21,1,1.5532,0.5750,0,0,270.0*
21,1,0.7750,1.3532,0,0,270.0*
1,1,0.7782,-0.2875,-0.3875*
1,1,0.7782,-0.2875,0.3875*
1,1,0.7782,0.2875,0.3875*
1,1,0.7782,0.2875,-0.3875*
%
%ADD54ROUNDEDRECTD54*%
G04:AMPARAMS|DCode=55|XSize=0.8032mm|YSize=1.6532mm|CornerRadius=0.2516mm|HoleSize=0mm|Usage=FLASHONLY|Rotation=90.000|XOffset=0mm|YOffset=0mm|HoleType=Round|Shape=RoundedRectangle|*
%AMROUNDEDRECTD55*
21,1,0.8032,1.1500,0,0,90.0*
21,1,0.3000,1.6532,0,0,90.0*
1,1,0.5032,0.5750,0.1500*
1,1,0.5032,0.5750,-0.1500*
1,1,0.5032,-0.5750,-0.1500*
1,1,0.5032,-0.5750,0.1500*
%
%ADD55ROUNDEDRECTD55*%
%ADD56R,1.7032X3.7032*%
%ADD57C,2.0032*%
G04:AMPARAMS|DCode=58|XSize=1.7032mm|YSize=1.7032mm|CornerRadius=0.4766mm|HoleSize=0mm|Usage=FLASHONLY|Rotation=180.000|XOffset=0mm|YOffset=0mm|HoleType=Round|Shape=RoundedRectangle|*
%AMROUNDEDRECTD58*
21,1,1.7032,0.7500,0,0,180.0*
21,1,0.7500,1.7032,0,0,180.0*
1,1,0.9532,-0.3750,0.3750*
1,1,0.9532,0.3750,0.3750*
1,1,0.9532,0.3750,-0.3750*
1,1,0.9532,-0.3750,-0.3750*
%
%ADD58ROUNDEDRECTD58*%
%ADD59C,1.7032*%
%ADD60C,7.2032*%
%ADD61C,2.2032*%
%ADD62R,2.2032X2.2032*%
%ADD63C,1.5032*%
%ADD64C,1.8032*%
%ADD65R,1.8032X1.8032*%
%ADD66R,1.4032X1.4032*%
%ADD67C,1.4032*%
D36*
X1295000Y586000D02*
D03*
Y654000D02*
D03*
D37*
X1015000Y575500D02*
D03*
Y594500D02*
D03*
X1082243Y701738D02*
D03*
Y678738D02*
D03*
X1000000Y694500D02*
D03*
Y675500D02*
D03*
X1015000D02*
D03*
Y694500D02*
D03*
D38*
X1045000Y669250D02*
D03*
Y650750D02*
D03*
Y680750D02*
D03*
Y699250D02*
D03*
X1155000Y610000D02*
D03*
Y591500D02*
D03*
X1128333Y610000D02*
D03*
Y591500D02*
D03*
X1101667Y610000D02*
D03*
Y591500D02*
D03*
X1075000Y610000D02*
D03*
Y591500D02*
D03*
Y645000D02*
D03*
Y626500D02*
D03*
X1101667Y645000D02*
D03*
Y626500D02*
D03*
X1128333Y645000D02*
D03*
Y626500D02*
D03*
X1155000Y645000D02*
D03*
Y626500D02*
D03*
X905000Y705000D02*
D03*
Y723500D02*
D03*
X925000Y710750D02*
D03*
Y729250D02*
D03*
X970000Y715750D02*
D03*
Y734250D02*
D03*
Y766074D02*
D03*
Y747574D02*
D03*
X1490000Y820750D02*
D03*
Y839250D02*
D03*
Y868500D02*
D03*
Y850000D02*
D03*
X1220000Y814250D02*
D03*
Y795750D02*
D03*
D39*
X1035000Y620000D02*
D03*
X1425000Y630000D02*
D03*
X1065000Y705000D02*
D03*
X1340000Y755000D02*
D03*
X1415000Y600000D02*
D03*
X1430000Y655000D02*
D03*
X1035000Y590000D02*
D03*
X890000Y740000D02*
D03*
X1070000Y785000D02*
D03*
X1510000Y800000D02*
D03*
X1512447Y846216D02*
D03*
X1365000Y835000D02*
D03*
X545000Y775000D02*
D03*
X755000Y505000D02*
D03*
X705000Y815000D02*
D03*
X1060000Y605000D02*
D03*
X690000Y780000D02*
D03*
X1455000Y695000D02*
D03*
X975000Y580000D02*
D03*
X1490000Y975000D02*
D03*
D40*
X640000Y630000D02*
D03*
Y530000D02*
D03*
X580000Y905000D02*
D03*
Y805000D02*
D03*
D41*
X1025000Y554000D02*
D03*
Y526000D02*
D03*
D42*
X1350000Y637500D02*
D03*
Y602500D02*
D03*
D43*
X1320000Y690000D02*
D03*
X1267067Y746567D02*
D03*
D44*
X1353250Y735000D02*
D03*
X1386750D02*
D03*
X1393250Y685000D02*
D03*
X1426750D02*
D03*
D45*
X1360000Y689250D02*
D03*
Y660750D02*
D03*
D46*
X1210000Y670000D02*
D03*
Y610000D02*
D03*
D47*
X749500Y827647D02*
D03*
Y802247D02*
D03*
Y776848D02*
D03*
X840500Y827647D02*
D03*
Y802247D02*
D03*
Y776848D02*
D03*
D48*
X905750Y694500D02*
D03*
Y675500D02*
D03*
X934250Y685000D02*
D03*
D49*
X1042860Y739000D02*
D03*
X997140D02*
D03*
X1467860Y899000D02*
D03*
X1422140D02*
D03*
D50*
X1020000Y804500D02*
D03*
D51*
X1235000Y794500D02*
D03*
Y815500D02*
D03*
D52*
X1445000Y964500D02*
D03*
D53*
X1385000Y990000D02*
D03*
Y930000D02*
D03*
Y915000D02*
D03*
Y855000D02*
D03*
D54*
X700750Y795000D02*
D03*
X719250D02*
D03*
D55*
X1012250Y615950D02*
D03*
Y628650D02*
D03*
Y641350D02*
D03*
Y654050D02*
D03*
X957750Y615950D02*
D03*
Y628650D02*
D03*
Y641350D02*
D03*
Y654050D02*
D03*
D56*
X1210000Y705000D02*
D03*
X1150000D02*
D03*
D57*
X867700Y620000D02*
D03*
X842300D02*
D03*
X1277300Y775000D02*
D03*
X1302700D02*
D03*
X1390000Y632700D02*
D03*
Y607300D02*
D03*
D58*
X861200Y538750D02*
D03*
D59*
X708800D02*
D03*
X835800D02*
D03*
X759600D02*
D03*
X1144600Y810000D02*
D03*
X1119200D02*
D03*
X1170000D02*
D03*
D60*
X925000Y515000D02*
D03*
X1425000D02*
D03*
Y800000D02*
D03*
X925000D02*
D03*
D61*
X1235000Y525000D02*
D03*
X1210000Y550000D02*
D03*
Y525000D02*
D03*
X1185000Y550000D02*
D03*
Y525000D02*
D03*
X1160000Y550000D02*
D03*
Y525000D02*
D03*
X1135000Y550000D02*
D03*
X1060000Y525000D02*
D03*
X1085000D02*
D03*
Y550000D02*
D03*
X1110000D02*
D03*
X1235000D02*
D03*
X1135000Y525000D02*
D03*
X1110000D02*
D03*
X570000Y570000D02*
D03*
Y600000D02*
D03*
X579600Y971550D02*
D03*
X609600D02*
D03*
D62*
X1060000Y550000D02*
D03*
D63*
X1147500Y563805D02*
D03*
D64*
X1284000Y925000D02*
D03*
X1030000Y976000D02*
D03*
Y874000D02*
D03*
D65*
X776000Y925000D02*
D03*
D66*
X652740Y775000D02*
D03*
D67*
Y749600D02*
D03*
Y724200D02*
D03*
M02*
