G04*
G04 #@! TF.GenerationSoftware,Altium Limited,Altium Designer,23.9.2 (47)*
G04*
G04 Layer_Physical_Order=2*
G04 Layer_Color=36540*
%FSLAX44Y44*%
%MOMM*%
G71*
G04*
G04 #@! TF.SameCoordinates,1607B9EF-4730-45C7-A4D5-593DF947B7B5*
G04*
G04*
G04 #@! TF.FilePolarity,Positive*
G04*
G01*
G75*
%ADD68C,0.5000*%
%ADD71C,1.8000*%
G04:AMPARAMS|DCode=72|XSize=1.5mm|YSize=1.5mm|CornerRadius=0.375mm|HoleSize=0mm|Usage=FLASHONLY|Rotation=180.000|XOffset=0mm|YOffset=0mm|HoleType=Round|Shape=RoundedRectangle|*
%AMROUNDEDRECTD72*
21,1,1.5000,0.7500,0,0,180.0*
21,1,0.7500,1.5000,0,0,180.0*
1,1,0.7500,-0.3750,0.3750*
1,1,0.7500,0.3750,0.3750*
1,1,0.7500,0.3750,-0.3750*
1,1,0.7500,-0.3750,-0.3750*
%
%ADD72ROUNDEDRECTD72*%
%ADD73C,1.5000*%
%ADD74C,7.0000*%
%ADD75C,2.0000*%
%ADD76R,2.0000X2.0000*%
%ADD77C,1.3000*%
%ADD78C,1.6000*%
%ADD79R,1.6000X1.6000*%
%ADD80R,1.2000X1.2000*%
%ADD81C,1.2000*%
%ADD82C,0.7000*%
G36*
X1520000Y975000D02*
Y493548D01*
X1488530Y462078D01*
X825000Y465000D01*
Y530076D01*
X826270Y530602D01*
X828125Y528747D01*
X830975Y527102D01*
X834154Y526250D01*
X837446D01*
X840625Y527102D01*
X842709Y528305D01*
X834032Y536982D01*
X835800Y538750D01*
X834032Y540518D01*
X842709Y549195D01*
X840625Y550398D01*
X837446Y551250D01*
X834154D01*
X830975Y550398D01*
X828125Y548752D01*
X826270Y546898D01*
X825000Y547424D01*
Y1010000D01*
X1485000D01*
X1520000Y975000D01*
D02*
G37*
%LPC*%
G36*
X1031712Y989000D02*
X1028288D01*
X1024982Y988114D01*
X1022725Y986811D01*
X1030000Y979536D01*
X1037275Y986811D01*
X1035018Y988114D01*
X1031712Y989000D01*
D02*
G37*
G36*
X1296094Y990500D02*
X1293906D01*
X1291884Y989663D01*
X1290337Y988115D01*
X1289500Y986094D01*
Y983906D01*
X1290337Y981885D01*
X1291884Y980337D01*
X1293906Y979500D01*
X1296094D01*
X1298116Y980337D01*
X1299663Y981885D01*
X1300500Y983906D01*
Y986094D01*
X1299663Y988115D01*
X1298116Y989663D01*
X1296094Y990500D01*
D02*
G37*
G36*
X941094D02*
X938906D01*
X936885Y989663D01*
X935337Y988115D01*
X934500Y986094D01*
Y983906D01*
X935337Y981885D01*
X936885Y980337D01*
X938906Y979500D01*
X941094D01*
X943115Y980337D01*
X944663Y981885D01*
X945500Y983906D01*
Y986094D01*
X944663Y988115D01*
X943115Y989663D01*
X941094Y990500D01*
D02*
G37*
G36*
X1040811Y983275D02*
X1033536Y976000D01*
X1040811Y968725D01*
X1042114Y970982D01*
X1043000Y974288D01*
Y977711D01*
X1042114Y981018D01*
X1040811Y983275D01*
D02*
G37*
G36*
X1019189Y983275D02*
X1017886Y981018D01*
X1017000Y977711D01*
Y974288D01*
X1017886Y970982D01*
X1019189Y968725D01*
X1026464Y976000D01*
X1019189Y983275D01*
D02*
G37*
G36*
X1316094Y975500D02*
X1313906D01*
X1311884Y974663D01*
X1310337Y973115D01*
X1309500Y971094D01*
Y968906D01*
X1310337Y966885D01*
X1311884Y965337D01*
X1313906Y964500D01*
X1316094D01*
X1318116Y965337D01*
X1319663Y966885D01*
X1320500Y968906D01*
Y971094D01*
X1319663Y973115D01*
X1318116Y974663D01*
X1316094Y975500D01*
D02*
G37*
G36*
X1030000Y972465D02*
X1022725Y965189D01*
X1024982Y963886D01*
X1028288Y963000D01*
X1031712D01*
X1035018Y963886D01*
X1037275Y965189D01*
X1030000Y972465D01*
D02*
G37*
G36*
X1398196Y963752D02*
X1396008D01*
X1393987Y962914D01*
X1392440Y961367D01*
X1391602Y959346D01*
Y957158D01*
X1392440Y955136D01*
X1393987Y953589D01*
X1396008Y952752D01*
X1398196D01*
X1400218Y953589D01*
X1401765Y955136D01*
X1402602Y957158D01*
Y959346D01*
X1401765Y961367D01*
X1400218Y962914D01*
X1398196Y963752D01*
D02*
G37*
G36*
X1348844Y963600D02*
X1346656D01*
X1344635Y962763D01*
X1343087Y961216D01*
X1342250Y959194D01*
Y957006D01*
X1343087Y954985D01*
X1344635Y953437D01*
X1346656Y952600D01*
X1348844D01*
X1350865Y953437D01*
X1352413Y954985D01*
X1353250Y957006D01*
Y959194D01*
X1352413Y961216D01*
X1350865Y962763D01*
X1348844Y963600D01*
D02*
G37*
G36*
X1501094Y960500D02*
X1498906D01*
X1496884Y959663D01*
X1495337Y958115D01*
X1494500Y956094D01*
Y953906D01*
X1495337Y951885D01*
X1496884Y950337D01*
X1498906Y949500D01*
X1501094D01*
X1503116Y950337D01*
X1504663Y951885D01*
X1505500Y953906D01*
Y956094D01*
X1504663Y958115D01*
X1503116Y959663D01*
X1501094Y960500D01*
D02*
G37*
G36*
X1213094Y950900D02*
X1210906D01*
X1208885Y950063D01*
X1207337Y948515D01*
X1206500Y946494D01*
Y944306D01*
X1207337Y942284D01*
X1208885Y940737D01*
X1210906Y939900D01*
X1213094D01*
X1215116Y940737D01*
X1216663Y942284D01*
X1217500Y944306D01*
Y946494D01*
X1216663Y948515D01*
X1215116Y950063D01*
X1213094Y950900D01*
D02*
G37*
G36*
X1401094Y950500D02*
X1398906D01*
X1396884Y949663D01*
X1395337Y948115D01*
X1394500Y946094D01*
Y943906D01*
X1395337Y941885D01*
X1396884Y940337D01*
X1398906Y939500D01*
X1401094D01*
X1403116Y940337D01*
X1404663Y941885D01*
X1405500Y943906D01*
Y946094D01*
X1404663Y948115D01*
X1403116Y949663D01*
X1401094Y950500D01*
D02*
G37*
G36*
X971094Y940500D02*
X968906D01*
X966885Y939663D01*
X965337Y938115D01*
X964500Y936094D01*
Y933906D01*
X965337Y931885D01*
X966885Y930337D01*
X968906Y929500D01*
X971094D01*
X973115Y930337D01*
X974663Y931885D01*
X975500Y933906D01*
Y936094D01*
X974663Y938115D01*
X973115Y939663D01*
X971094Y940500D01*
D02*
G37*
G36*
X1201094Y935500D02*
X1198906D01*
X1196885Y934663D01*
X1195337Y933115D01*
X1194500Y931094D01*
Y928906D01*
X1195337Y926885D01*
X1196885Y925337D01*
X1198906Y924500D01*
X1201094D01*
X1203115Y925337D01*
X1204663Y926885D01*
X1205500Y928906D01*
Y931094D01*
X1204663Y933115D01*
X1203115Y934663D01*
X1201094Y935500D01*
D02*
G37*
G36*
X1285316Y935000D02*
X1282684D01*
X1280140Y934318D01*
X1277860Y933002D01*
X1275998Y931140D01*
X1274681Y928860D01*
X1274000Y926317D01*
Y923683D01*
X1274681Y921140D01*
X1275998Y918860D01*
X1277860Y916998D01*
X1280140Y915682D01*
X1282684Y915000D01*
X1285316D01*
X1287860Y915682D01*
X1290140Y916998D01*
X1292002Y918860D01*
X1293318Y921140D01*
X1294000Y923683D01*
Y926317D01*
X1293318Y928860D01*
X1292002Y931140D01*
X1290140Y933002D01*
X1287860Y934318D01*
X1285316Y935000D01*
D02*
G37*
G36*
X1071610Y925666D02*
X1069423D01*
X1067401Y924829D01*
X1065854Y923281D01*
X1065016Y921260D01*
Y919072D01*
X1065854Y917050D01*
X1067401Y915503D01*
X1069423Y914666D01*
X1071610D01*
X1073632Y915503D01*
X1075179Y917050D01*
X1076016Y919072D01*
Y921260D01*
X1075179Y923281D01*
X1073632Y924829D01*
X1071610Y925666D01*
D02*
G37*
G36*
X1349029Y925665D02*
X1346841D01*
X1344819Y924828D01*
X1343272Y923281D01*
X1342435Y921259D01*
Y919071D01*
X1343272Y917050D01*
X1344819Y915502D01*
X1346841Y914665D01*
X1349029D01*
X1351050Y915502D01*
X1352597Y917050D01*
X1353435Y919071D01*
Y921259D01*
X1352597Y923281D01*
X1351050Y924828D01*
X1349029Y925665D01*
D02*
G37*
G36*
X1123819Y925409D02*
X1121631D01*
X1119609Y924572D01*
X1118062Y923025D01*
X1117225Y921003D01*
Y918815D01*
X1118062Y916794D01*
X1119609Y915247D01*
X1121631Y914409D01*
X1123819D01*
X1125840Y915247D01*
X1127387Y916794D01*
X1128225Y918815D01*
Y921003D01*
X1127387Y923025D01*
X1125840Y924572D01*
X1123819Y925409D01*
D02*
G37*
G36*
X1214309Y913533D02*
X1212121D01*
X1210099Y912695D01*
X1208552Y911148D01*
X1207715Y909127D01*
Y906939D01*
X1208552Y904917D01*
X1210099Y903370D01*
X1212121Y902533D01*
X1214309D01*
X1216330Y903370D01*
X1217878Y904917D01*
X1218715Y906939D01*
Y909127D01*
X1217878Y911148D01*
X1216330Y912695D01*
X1214309Y913533D01*
D02*
G37*
G36*
X957963Y908147D02*
X955775D01*
X953753Y907310D01*
X952206Y905763D01*
X951369Y903741D01*
Y901553D01*
X952206Y899532D01*
X953753Y897985D01*
X955775Y897147D01*
X957963D01*
X959984Y897985D01*
X961531Y899532D01*
X962369Y901553D01*
Y903741D01*
X961531Y905763D01*
X959984Y907310D01*
X957963Y908147D01*
D02*
G37*
G36*
X1249584Y847643D02*
X1247395D01*
X1245374Y846806D01*
X1243827Y845259D01*
X1242990Y843237D01*
Y841049D01*
X1243827Y839028D01*
X1245374Y837481D01*
X1247395Y836643D01*
X1249584D01*
X1251605Y837481D01*
X1253152Y839028D01*
X1253989Y841049D01*
Y843237D01*
X1253152Y845259D01*
X1251605Y846806D01*
X1249584Y847643D01*
D02*
G37*
G36*
X1146246Y822500D02*
X1142954D01*
X1139775Y821648D01*
X1137691Y820445D01*
X1144600Y813536D01*
X1151509Y820445D01*
X1149425Y821648D01*
X1146246Y822500D01*
D02*
G37*
G36*
X1428148Y840000D02*
X1421852D01*
X1415633Y839015D01*
X1409645Y837069D01*
X1404035Y834211D01*
X1398942Y830510D01*
X1398483Y830052D01*
X1425000Y803536D01*
X1451517Y830052D01*
X1451058Y830510D01*
X1445965Y834211D01*
X1440355Y837069D01*
X1434367Y839015D01*
X1428148Y840000D01*
D02*
G37*
G36*
X928148D02*
X921852D01*
X915633Y839015D01*
X909645Y837069D01*
X904035Y834211D01*
X898942Y830510D01*
X898484Y830052D01*
X925000Y803536D01*
X951516Y830052D01*
X951058Y830510D01*
X945965Y834211D01*
X940355Y837069D01*
X934367Y839015D01*
X928148Y840000D01*
D02*
G37*
G36*
X1155045Y816909D02*
X1148136Y810000D01*
X1155045Y803091D01*
X1156248Y805175D01*
X1157100Y808354D01*
Y811646D01*
X1156248Y814825D01*
X1155045Y816909D01*
D02*
G37*
G36*
X1134155Y816909D02*
X1132952Y814825D01*
X1132100Y811646D01*
Y808354D01*
X1132952Y805175D01*
X1134155Y803091D01*
X1141065Y810000D01*
X1134155Y816909D01*
D02*
G37*
G36*
X1171251Y819500D02*
X1168749D01*
X1166333Y818853D01*
X1164167Y817602D01*
X1162398Y815833D01*
X1161147Y813667D01*
X1160500Y811251D01*
Y808749D01*
X1161147Y806333D01*
X1162398Y804167D01*
X1164167Y802398D01*
X1166333Y801147D01*
X1168749Y800500D01*
X1171251D01*
X1173667Y801147D01*
X1175833Y802398D01*
X1177602Y804167D01*
X1178853Y806333D01*
X1179500Y808749D01*
Y811251D01*
X1178853Y813667D01*
X1177602Y815833D01*
X1175833Y817602D01*
X1173667Y818853D01*
X1171251Y819500D01*
D02*
G37*
G36*
X1120451D02*
X1117949D01*
X1115533Y818853D01*
X1113367Y817602D01*
X1111598Y815833D01*
X1110347Y813667D01*
X1109700Y811251D01*
Y808749D01*
X1110347Y806333D01*
X1111598Y804167D01*
X1113367Y802398D01*
X1115533Y801147D01*
X1117949Y800500D01*
X1120451D01*
X1122867Y801147D01*
X1125033Y802398D01*
X1126802Y804167D01*
X1128053Y806333D01*
X1128700Y808749D01*
Y811251D01*
X1128053Y813667D01*
X1126802Y815833D01*
X1125033Y817602D01*
X1122867Y818853D01*
X1120451Y819500D01*
D02*
G37*
G36*
X1144600Y806464D02*
X1137691Y799555D01*
X1139775Y798352D01*
X1142954Y797500D01*
X1146246D01*
X1149425Y798352D01*
X1151509Y799555D01*
X1144600Y806464D01*
D02*
G37*
G36*
X1455052Y826516D02*
X1428535Y800000D01*
X1455052Y773484D01*
X1455510Y773942D01*
X1459211Y779035D01*
X1462070Y784645D01*
X1464015Y790633D01*
X1465000Y796852D01*
Y803148D01*
X1464015Y809367D01*
X1462070Y815355D01*
X1459211Y820965D01*
X1455510Y826058D01*
X1455052Y826516D01*
D02*
G37*
G36*
X955052D02*
X928536Y800000D01*
X955052Y773484D01*
X955510Y773942D01*
X959211Y779035D01*
X962069Y784645D01*
X964015Y790633D01*
X965000Y796852D01*
Y803148D01*
X964015Y809367D01*
X962069Y815355D01*
X959211Y820965D01*
X955510Y826058D01*
X955052Y826516D01*
D02*
G37*
G36*
X1351094Y859500D02*
X1348906D01*
X1346884Y858663D01*
X1345337Y857115D01*
X1344500Y855094D01*
Y852906D01*
X1345337Y850884D01*
X1346884Y849337D01*
X1348906Y848500D01*
X1349011D01*
X1375412Y822100D01*
Y785915D01*
X1374142Y785066D01*
X1373094Y785500D01*
X1370906D01*
X1368884Y784663D01*
X1367337Y783115D01*
X1366500Y781094D01*
Y778906D01*
X1367337Y776885D01*
X1368884Y775337D01*
X1370906Y774500D01*
X1373094D01*
X1375116Y775337D01*
X1375777Y775999D01*
X1376756Y776756D01*
X1377474Y776037D01*
X1411756Y741756D01*
X1413244Y740761D01*
X1415000Y740412D01*
X1468100D01*
X1505412Y703100D01*
Y666900D01*
X1423100Y584588D01*
X1375000D01*
X1373244Y584239D01*
X1371756Y583244D01*
X1359011Y570500D01*
X1358906D01*
X1356884Y569663D01*
X1355337Y568116D01*
X1354500Y566094D01*
Y563906D01*
X1355337Y561884D01*
X1356884Y560337D01*
X1358906Y559500D01*
X1361094D01*
X1363116Y560337D01*
X1364663Y561884D01*
X1365500Y563906D01*
Y564011D01*
X1368509Y567020D01*
X1369586Y566301D01*
X1369500Y566094D01*
Y563906D01*
X1370337Y561884D01*
X1371884Y560337D01*
X1373906Y559500D01*
X1376094D01*
X1378116Y560337D01*
X1379663Y561884D01*
X1380500Y563906D01*
Y566094D01*
X1379663Y568116D01*
X1378116Y569663D01*
X1376094Y570500D01*
X1373906D01*
X1373699Y570414D01*
X1372979Y571491D01*
X1376900Y575412D01*
X1425000D01*
X1426756Y575761D01*
X1428244Y576756D01*
X1513244Y661756D01*
X1514239Y663244D01*
X1514588Y665000D01*
Y705000D01*
X1514239Y706756D01*
X1513244Y708244D01*
X1473244Y748244D01*
X1471756Y749239D01*
X1470000Y749588D01*
X1416900D01*
X1384588Y781900D01*
Y791334D01*
X1385858Y791434D01*
X1385985Y790633D01*
X1387930Y784645D01*
X1390789Y779035D01*
X1394490Y773942D01*
X1394948Y773484D01*
X1421465Y800000D01*
X1394948Y826516D01*
X1394490Y826058D01*
X1390789Y820965D01*
X1387930Y815355D01*
X1385985Y809367D01*
X1385858Y808566D01*
X1384588Y808666D01*
Y824000D01*
X1384239Y825756D01*
X1383244Y827244D01*
X1355500Y854989D01*
Y855094D01*
X1354663Y857115D01*
X1353116Y858663D01*
X1351094Y859500D01*
D02*
G37*
G36*
X894948Y826516D02*
X894490Y826058D01*
X890789Y820965D01*
X887931Y815355D01*
X885985Y809367D01*
X885000Y803148D01*
Y796852D01*
X885985Y790633D01*
X887931Y784645D01*
X890789Y779035D01*
X894490Y773942D01*
X894948Y773484D01*
X921464Y800000D01*
X894948Y826516D01*
D02*
G37*
G36*
X1304148Y786000D02*
X1301252D01*
X1298454Y785250D01*
X1295946Y783802D01*
X1293898Y781754D01*
X1292450Y779246D01*
X1291700Y776448D01*
Y773552D01*
X1292450Y770754D01*
X1293898Y768246D01*
X1295946Y766198D01*
X1298454Y764750D01*
X1301252Y764000D01*
X1304148D01*
X1306946Y764750D01*
X1309454Y766198D01*
X1311502Y768246D01*
X1312950Y770754D01*
X1313700Y773552D01*
Y776448D01*
X1312950Y779246D01*
X1311502Y781754D01*
X1309454Y783802D01*
X1306946Y785250D01*
X1304148Y786000D01*
D02*
G37*
G36*
X1278748D02*
X1275852D01*
X1273054Y785250D01*
X1270546Y783802D01*
X1268498Y781754D01*
X1267050Y779246D01*
X1266300Y776448D01*
Y773552D01*
X1267050Y770754D01*
X1268498Y768246D01*
X1270546Y766198D01*
X1273054Y764750D01*
X1275852Y764000D01*
X1278748D01*
X1281546Y764750D01*
X1284054Y766198D01*
X1286102Y768246D01*
X1287550Y770754D01*
X1288300Y773552D01*
Y776448D01*
X1287550Y779246D01*
X1286102Y781754D01*
X1284054Y783802D01*
X1281546Y785250D01*
X1278748Y786000D01*
D02*
G37*
G36*
X1425000Y796464D02*
X1398483Y769948D01*
X1398942Y769490D01*
X1404035Y765789D01*
X1409645Y762931D01*
X1415633Y760985D01*
X1421852Y760000D01*
X1428148D01*
X1434367Y760985D01*
X1440355Y762931D01*
X1445965Y765789D01*
X1451058Y769490D01*
X1451517Y769948D01*
X1425000Y796464D01*
D02*
G37*
G36*
X925000D02*
X898484Y769948D01*
X898942Y769490D01*
X904035Y765789D01*
X909645Y762931D01*
X915633Y760985D01*
X921852Y760000D01*
X928148D01*
X934367Y760985D01*
X940355Y762931D01*
X945965Y765789D01*
X951058Y769490D01*
X951516Y769948D01*
X925000Y796464D01*
D02*
G37*
G36*
X1123396Y951358D02*
X1121208D01*
X1119187Y950520D01*
X1117640Y948973D01*
X1116802Y946952D01*
Y946846D01*
X1076756Y906800D01*
X1075761Y905311D01*
X1075412Y903556D01*
Y781900D01*
X1043100Y749588D01*
X1037849D01*
X1037652Y749833D01*
X1037914Y751535D01*
X1038244Y751756D01*
X1059135Y772646D01*
X1060130Y774135D01*
X1060479Y775891D01*
Y927157D01*
X1060553Y927231D01*
X1061391Y929253D01*
Y931441D01*
X1060553Y933462D01*
X1059006Y935009D01*
X1056985Y935847D01*
X1054797D01*
X1052775Y935009D01*
X1051228Y933462D01*
X1050391Y931441D01*
Y929253D01*
X1051228Y927231D01*
X1051302Y927157D01*
Y777791D01*
X1033100Y759588D01*
X1000000D01*
X998244Y759239D01*
X996756Y758244D01*
X971756Y733244D01*
X970761Y731756D01*
X970412Y730000D01*
Y680000D01*
X970761Y678244D01*
X971756Y676756D01*
X1066756Y581756D01*
X1068244Y580761D01*
X1070000Y580412D01*
X1145000D01*
X1146756Y580761D01*
X1148244Y581756D01*
X1160553Y594064D01*
X1161547Y595553D01*
X1161897Y597309D01*
Y605408D01*
X1170989Y614500D01*
X1171094D01*
X1173115Y615337D01*
X1173190Y615412D01*
X1260838D01*
X1261364Y614142D01*
X1260337Y613116D01*
X1259500Y611094D01*
Y608906D01*
X1260337Y606884D01*
X1261885Y605337D01*
X1263906Y604500D01*
X1266094D01*
X1268115Y605337D01*
X1269663Y606884D01*
X1270500Y608906D01*
Y611094D01*
X1269663Y613116D01*
X1268636Y614142D01*
X1269162Y615412D01*
X1292838D01*
X1293364Y614142D01*
X1292337Y613116D01*
X1291500Y611094D01*
Y608906D01*
X1292337Y606884D01*
X1293884Y605337D01*
X1295906Y604500D01*
X1298094D01*
X1300116Y605337D01*
X1301663Y606884D01*
X1302500Y608906D01*
Y611094D01*
X1301663Y613116D01*
X1300636Y614142D01*
X1301162Y615412D01*
X1308137D01*
X1309892Y615761D01*
X1311381Y616756D01*
X1326582Y631957D01*
X1326688D01*
X1328709Y632794D01*
X1330256Y634342D01*
X1331094Y636363D01*
Y638551D01*
X1330256Y640573D01*
X1328709Y642120D01*
X1326688Y642957D01*
X1324500D01*
X1322478Y642120D01*
X1320931Y640573D01*
X1320094Y638551D01*
Y638446D01*
X1306236Y624588D01*
X1173190D01*
X1173115Y624663D01*
X1171094Y625500D01*
X1168906D01*
X1166885Y624663D01*
X1165337Y623116D01*
X1164500Y621094D01*
Y620989D01*
X1154064Y610553D01*
X1153070Y609064D01*
X1152720Y607309D01*
Y599209D01*
X1143100Y589588D01*
X1132848D01*
X1132652Y589833D01*
X1132914Y591535D01*
X1133244Y591756D01*
X1138244Y596756D01*
X1139239Y598244D01*
X1139588Y600000D01*
Y625000D01*
X1139239Y626756D01*
X1138244Y628244D01*
X1113244Y653244D01*
X1111756Y654239D01*
X1110000Y654588D01*
X1036900D01*
X994588Y696900D01*
Y710838D01*
X995858Y711364D01*
X996885Y710337D01*
X998906Y709500D01*
X1001094D01*
X1003115Y710337D01*
X1003190Y710412D01*
X1013100D01*
X1061756Y661756D01*
X1063244Y660761D01*
X1065000Y660412D01*
X1250000D01*
X1251756Y660761D01*
X1253244Y661756D01*
X1281649Y690161D01*
X1282919Y689635D01*
Y688222D01*
X1283499Y686060D01*
X1283903Y685360D01*
X1289651Y691109D01*
X1295400Y696858D01*
X1294700Y697262D01*
X1292538Y697841D01*
X1291126D01*
X1290600Y699111D01*
X1291900Y700412D01*
X1485614D01*
X1486426Y699600D01*
Y699494D01*
X1487263Y697473D01*
X1488810Y695926D01*
X1490832Y695088D01*
X1493020D01*
X1495041Y695926D01*
X1496588Y697473D01*
X1497426Y699494D01*
Y701682D01*
X1496588Y703704D01*
X1495041Y705251D01*
X1493020Y706088D01*
X1492914D01*
X1490759Y708244D01*
X1489270Y709239D01*
X1487514Y709588D01*
X1290000D01*
X1288244Y709239D01*
X1286756Y708244D01*
X1248100Y669588D01*
X1178157D01*
X1177424Y670858D01*
X1177921Y671719D01*
X1178500Y673881D01*
Y676119D01*
X1177921Y678281D01*
X1177516Y678981D01*
X1171768Y673232D01*
X1170000Y675000D01*
X1168232Y673232D01*
X1162484Y678981D01*
X1162079Y678281D01*
X1161500Y676119D01*
Y673881D01*
X1162079Y671719D01*
X1162576Y670858D01*
X1161843Y669588D01*
X1066900D01*
X1018244Y718244D01*
X1016756Y719239D01*
X1015000Y719588D01*
X1003190D01*
X1003115Y719663D01*
X1001094Y720500D01*
X998906D01*
X998699Y720414D01*
X997980Y721491D01*
X1006900Y730412D01*
X1050000D01*
X1051756Y730761D01*
X1053244Y731756D01*
X1098244Y776756D01*
X1099239Y778244D01*
X1099588Y780000D01*
Y868100D01*
X1120989Y889500D01*
X1121094D01*
X1123115Y890337D01*
X1124663Y891885D01*
X1125500Y893906D01*
Y896094D01*
X1124663Y898115D01*
X1123115Y899663D01*
X1121094Y900500D01*
X1118906D01*
X1116885Y899663D01*
X1115337Y898115D01*
X1114500Y896094D01*
Y895989D01*
X1091756Y873244D01*
X1090761Y871756D01*
X1090412Y870000D01*
Y781900D01*
X1048728Y740217D01*
X1047675Y740293D01*
X1047914Y741535D01*
X1048244Y741756D01*
X1083244Y776756D01*
X1084239Y778244D01*
X1084588Y780000D01*
Y901655D01*
X1123291Y940358D01*
X1123396D01*
X1125418Y941195D01*
X1126965Y942742D01*
X1127802Y944764D01*
Y946952D01*
X1126965Y948973D01*
X1125418Y950520D01*
X1123396Y951358D01*
D02*
G37*
G36*
X1203094Y745500D02*
X1200906D01*
X1198885Y744663D01*
X1197337Y743115D01*
X1196500Y741094D01*
Y738906D01*
X1197337Y736885D01*
X1198885Y735337D01*
X1200906Y734500D01*
X1203094D01*
X1205116Y735337D01*
X1206663Y736885D01*
X1207500Y738906D01*
Y741094D01*
X1206663Y743115D01*
X1205116Y744663D01*
X1203094Y745500D01*
D02*
G37*
G36*
X916094D02*
X913906D01*
X911885Y744663D01*
X910337Y743115D01*
X909500Y741094D01*
Y738906D01*
X910337Y736885D01*
X911885Y735337D01*
X913906Y734500D01*
X916094D01*
X918115Y735337D01*
X919663Y736885D01*
X920500Y738906D01*
Y741094D01*
X919663Y743115D01*
X918115Y744663D01*
X916094Y745500D01*
D02*
G37*
G36*
X1143270Y738718D02*
X1141082D01*
X1139061Y737881D01*
X1137514Y736334D01*
X1136676Y734312D01*
Y732124D01*
X1137514Y730103D01*
X1139061Y728556D01*
X1141082Y727718D01*
X1143270D01*
X1145292Y728556D01*
X1146839Y730103D01*
X1147676Y732124D01*
Y734312D01*
X1146839Y736334D01*
X1145292Y737881D01*
X1143270Y738718D01*
D02*
G37*
G36*
X1266094Y730500D02*
X1263906D01*
X1261885Y729663D01*
X1260337Y728115D01*
X1259500Y726094D01*
Y723906D01*
X1260337Y721885D01*
X1261885Y720337D01*
X1263906Y719500D01*
X1266094D01*
X1268115Y720337D01*
X1269663Y721885D01*
X1270500Y723906D01*
Y726094D01*
X1269663Y728115D01*
X1268115Y729663D01*
X1266094Y730500D01*
D02*
G37*
G36*
X1056094Y723100D02*
X1053906D01*
X1051885Y722263D01*
X1050337Y720715D01*
X1049500Y718694D01*
Y716506D01*
X1050337Y714484D01*
X1051885Y712937D01*
X1053906Y712100D01*
X1056094D01*
X1058115Y712937D01*
X1059663Y714484D01*
X1060500Y716506D01*
Y718694D01*
X1059663Y720715D01*
X1058115Y722263D01*
X1056094Y723100D01*
D02*
G37*
G36*
X1240613Y713574D02*
X1238425D01*
X1236403Y712737D01*
X1234856Y711189D01*
X1234019Y709168D01*
Y706980D01*
X1234856Y704958D01*
X1236403Y703411D01*
X1238425Y702574D01*
X1240613D01*
X1242634Y703411D01*
X1244181Y704958D01*
X1245019Y706980D01*
Y709168D01*
X1244181Y711189D01*
X1242634Y712737D01*
X1240613Y713574D01*
D02*
G37*
G36*
X1241094Y700500D02*
X1238906D01*
X1236885Y699663D01*
X1235337Y698115D01*
X1234500Y696094D01*
Y693906D01*
X1235337Y691885D01*
X1236885Y690337D01*
X1238906Y689500D01*
X1241094D01*
X1243115Y690337D01*
X1244663Y691885D01*
X1245500Y693906D01*
Y696094D01*
X1244663Y698115D01*
X1243115Y699663D01*
X1241094Y700500D01*
D02*
G37*
G36*
X1237627Y738456D02*
X1235439D01*
X1233418Y737619D01*
X1231871Y736072D01*
X1231033Y734050D01*
Y733945D01*
X1216677Y719588D01*
X1130000D01*
X1128244Y719239D01*
X1126756Y718244D01*
X1116756Y708244D01*
X1115761Y706756D01*
X1115412Y705000D01*
Y699197D01*
X1104312Y688097D01*
X1104207D01*
X1102186Y687260D01*
X1100638Y685713D01*
X1099801Y683691D01*
Y681503D01*
X1100638Y679482D01*
X1102186Y677934D01*
X1104207Y677097D01*
X1106395D01*
X1108417Y677934D01*
X1109964Y679482D01*
X1110801Y681503D01*
Y681609D01*
X1123230Y694037D01*
X1123389Y694035D01*
X1123902Y693975D01*
X1124567Y693745D01*
X1125337Y691885D01*
X1126885Y690337D01*
X1128906Y689500D01*
X1131094D01*
X1133115Y690337D01*
X1134663Y691885D01*
X1135500Y693906D01*
Y696094D01*
X1134663Y698115D01*
X1133115Y699663D01*
X1131094Y700500D01*
X1128906D01*
X1126885Y699663D01*
X1125858Y698636D01*
X1124588Y699162D01*
Y703100D01*
X1131900Y710412D01*
X1218577D01*
X1220333Y710761D01*
X1221822Y711756D01*
X1237522Y727456D01*
X1237627D01*
X1239649Y728294D01*
X1241196Y729841D01*
X1242033Y731862D01*
Y734050D01*
X1241196Y736072D01*
X1239649Y737619D01*
X1237627Y738456D01*
D02*
G37*
G36*
X1298936Y693322D02*
X1294955Y689341D01*
X1298936Y685360D01*
X1299340Y686060D01*
X1299919Y688222D01*
Y690460D01*
X1299340Y692622D01*
X1298936Y693322D01*
D02*
G37*
G36*
X1066094Y695500D02*
X1063906D01*
X1061885Y694663D01*
X1060337Y693115D01*
X1059500Y691094D01*
Y688906D01*
X1060337Y686885D01*
X1061885Y685337D01*
X1063906Y684500D01*
X1066094D01*
X1068115Y685337D01*
X1069663Y686885D01*
X1070500Y688906D01*
Y691094D01*
X1069663Y693115D01*
X1068115Y694663D01*
X1066094Y695500D01*
D02*
G37*
G36*
X1291419Y685806D02*
X1287438Y681825D01*
X1288138Y681420D01*
X1290300Y680841D01*
X1292538D01*
X1294700Y681420D01*
X1295400Y681825D01*
X1291419Y685806D01*
D02*
G37*
G36*
X1171119Y683500D02*
X1168881D01*
X1166719Y682921D01*
X1166019Y682516D01*
X1170000Y678536D01*
X1173981Y682516D01*
X1173281Y682921D01*
X1171119Y683500D01*
D02*
G37*
G36*
X1245108Y688676D02*
X1242920D01*
X1240899Y687838D01*
X1239352Y686291D01*
X1238514Y684270D01*
Y682082D01*
X1239352Y680060D01*
X1240899Y678513D01*
X1242920Y677676D01*
X1245108D01*
X1247130Y678513D01*
X1248677Y680060D01*
X1249514Y682082D01*
Y684270D01*
X1248677Y686291D01*
X1247130Y687838D01*
X1245108Y688676D01*
D02*
G37*
G36*
X1451094Y670500D02*
X1448906D01*
X1446884Y669663D01*
X1445337Y668115D01*
X1444500Y666094D01*
Y663906D01*
X1445337Y661885D01*
X1446884Y660337D01*
X1448906Y659500D01*
X1451094D01*
X1453116Y660337D01*
X1454663Y661885D01*
X1455500Y663906D01*
Y666094D01*
X1454663Y668115D01*
X1453116Y669663D01*
X1451094Y670500D01*
D02*
G37*
G36*
X1342338Y658012D02*
X1340150D01*
X1338128Y657175D01*
X1336581Y655627D01*
X1335744Y653606D01*
Y651418D01*
X1336581Y649396D01*
X1338128Y647849D01*
X1340150Y647012D01*
X1342338D01*
X1344359Y647849D01*
X1345906Y649396D01*
X1346744Y651418D01*
Y653606D01*
X1345906Y655627D01*
X1344359Y657175D01*
X1342338Y658012D01*
D02*
G37*
G36*
X926254Y650030D02*
X924066D01*
X922045Y649193D01*
X920498Y647645D01*
X919660Y645624D01*
Y643436D01*
X920498Y641414D01*
X922045Y639867D01*
X924066Y639030D01*
X926254D01*
X928276Y639867D01*
X929823Y641414D01*
X930660Y643436D01*
Y645624D01*
X929823Y647645D01*
X928276Y649193D01*
X926254Y650030D01*
D02*
G37*
G36*
X1286094Y640500D02*
X1283906D01*
X1281884Y639663D01*
X1280337Y638116D01*
X1279500Y636094D01*
Y633906D01*
X1280337Y631884D01*
X1281884Y630337D01*
X1283906Y629500D01*
X1286094D01*
X1288116Y630337D01*
X1289663Y631884D01*
X1290500Y633906D01*
Y636094D01*
X1289663Y638116D01*
X1288116Y639663D01*
X1286094Y640500D01*
D02*
G37*
G36*
X1391448Y643700D02*
X1388552D01*
X1385754Y642950D01*
X1383246Y641502D01*
X1381198Y639454D01*
X1379750Y636946D01*
X1379000Y634148D01*
Y631252D01*
X1379750Y628454D01*
X1381198Y625946D01*
X1383246Y623898D01*
X1385754Y622450D01*
X1388552Y621700D01*
X1391448D01*
X1394246Y622450D01*
X1396754Y623898D01*
X1398802Y625946D01*
X1400250Y628454D01*
X1401000Y631252D01*
Y634148D01*
X1400250Y636946D01*
X1398802Y639454D01*
X1396754Y641502D01*
X1394246Y642950D01*
X1391448Y643700D01*
D02*
G37*
G36*
X869148Y631000D02*
X866252D01*
X863454Y630250D01*
X860946Y628802D01*
X858898Y626754D01*
X857450Y624246D01*
X856700Y621448D01*
Y618552D01*
X857450Y615754D01*
X858898Y613246D01*
X860946Y611198D01*
X863454Y609750D01*
X866252Y609000D01*
X869148D01*
X871946Y609750D01*
X874454Y611198D01*
X876502Y613246D01*
X877950Y615754D01*
X878700Y618552D01*
Y621448D01*
X877950Y624246D01*
X876502Y626754D01*
X874454Y628802D01*
X871946Y630250D01*
X869148Y631000D01*
D02*
G37*
G36*
X843748D02*
X840852D01*
X838054Y630250D01*
X835546Y628802D01*
X833498Y626754D01*
X832050Y624246D01*
X831300Y621448D01*
Y618552D01*
X832050Y615754D01*
X833498Y613246D01*
X835546Y611198D01*
X838054Y609750D01*
X840852Y609000D01*
X843748D01*
X846546Y609750D01*
X849054Y611198D01*
X851102Y613246D01*
X852550Y615754D01*
X853300Y618552D01*
Y621448D01*
X852550Y624246D01*
X851102Y626754D01*
X849054Y628802D01*
X846546Y630250D01*
X843748Y631000D01*
D02*
G37*
G36*
X1391448Y618300D02*
X1388552D01*
X1385754Y617550D01*
X1383246Y616102D01*
X1381198Y614054D01*
X1379750Y611546D01*
X1379000Y608748D01*
Y605852D01*
X1379750Y603054D01*
X1381198Y600546D01*
X1383246Y598498D01*
X1385754Y597050D01*
X1388552Y596300D01*
X1391448D01*
X1394246Y597050D01*
X1396754Y598498D01*
X1398802Y600546D01*
X1400250Y603054D01*
X1401000Y605852D01*
Y608748D01*
X1400250Y611546D01*
X1398802Y614054D01*
X1396754Y616102D01*
X1394246Y617550D01*
X1391448Y618300D01*
D02*
G37*
G36*
X932589Y591572D02*
X930401D01*
X928380Y590734D01*
X926833Y589187D01*
X925995Y587166D01*
Y584978D01*
X926833Y582956D01*
X928380Y581409D01*
X930401Y580572D01*
X932589D01*
X934611Y581409D01*
X936158Y582956D01*
X936995Y584978D01*
Y587166D01*
X936158Y589187D01*
X934611Y590734D01*
X932589Y591572D01*
D02*
G37*
G36*
X1031317Y884000D02*
X1028683D01*
X1026140Y883318D01*
X1023860Y882002D01*
X1021998Y880140D01*
X1020682Y877860D01*
X1020000Y875316D01*
Y872683D01*
X1020682Y870140D01*
X1021998Y867860D01*
X1023860Y865998D01*
X1025412Y865102D01*
Y816900D01*
X946756Y738244D01*
X945761Y736756D01*
X945412Y735000D01*
Y650000D01*
X945761Y648244D01*
X946756Y646756D01*
X990412Y603100D01*
Y590000D01*
X990761Y588244D01*
X991756Y586756D01*
X1024500Y554011D01*
Y553906D01*
X1025337Y551884D01*
X1026885Y550337D01*
X1028906Y549500D01*
X1031094D01*
X1033115Y550337D01*
X1034663Y551884D01*
X1035500Y553906D01*
Y556094D01*
X1034663Y558116D01*
X1033115Y559663D01*
X1031094Y560500D01*
X1030989D01*
X999588Y591900D01*
Y605000D01*
X999239Y606756D01*
X998244Y608244D01*
X954588Y651900D01*
Y733100D01*
X1033244Y811756D01*
X1034239Y813244D01*
X1034588Y815000D01*
Y865102D01*
X1036140Y865998D01*
X1038002Y867860D01*
X1039318Y870140D01*
X1040000Y872683D01*
Y875316D01*
X1039318Y877860D01*
X1038002Y880140D01*
X1036140Y882002D01*
X1033860Y883318D01*
X1031317Y884000D01*
D02*
G37*
G36*
X846245Y545659D02*
X839335Y538750D01*
X846245Y531841D01*
X847448Y533925D01*
X848300Y537104D01*
Y540396D01*
X847448Y543575D01*
X846245Y545659D01*
D02*
G37*
G36*
X1280175Y541242D02*
X1277987D01*
X1275965Y540405D01*
X1274418Y538858D01*
X1273581Y536836D01*
Y534648D01*
X1274418Y532627D01*
X1275965Y531080D01*
X1277987Y530242D01*
X1280175D01*
X1282197Y531080D01*
X1283744Y532627D01*
X1284581Y534648D01*
Y536836D01*
X1283744Y538858D01*
X1282197Y540405D01*
X1280175Y541242D01*
D02*
G37*
G36*
X864950Y548363D02*
X857450D01*
X855207Y547916D01*
X853305Y546646D01*
X852034Y544743D01*
X851587Y542500D01*
Y535000D01*
X852034Y532757D01*
X853305Y530854D01*
X855207Y529584D01*
X857450Y529137D01*
X864950D01*
X867194Y529584D01*
X869096Y530854D01*
X870366Y532757D01*
X870813Y535000D01*
Y542500D01*
X870366Y544743D01*
X869096Y546646D01*
X867194Y547916D01*
X864950Y548363D01*
D02*
G37*
G36*
X1428148Y555000D02*
X1421852D01*
X1415633Y554015D01*
X1409645Y552070D01*
X1404035Y549211D01*
X1398942Y545510D01*
X1398483Y545052D01*
X1425000Y518535D01*
X1451517Y545052D01*
X1451058Y545510D01*
X1445965Y549211D01*
X1440355Y552070D01*
X1434367Y554015D01*
X1428148Y555000D01*
D02*
G37*
G36*
X928148D02*
X921852D01*
X915633Y554015D01*
X909645Y552070D01*
X904035Y549211D01*
X898942Y545510D01*
X898484Y545052D01*
X925000Y518535D01*
X951516Y545052D01*
X951058Y545510D01*
X945965Y549211D01*
X940355Y552070D01*
X934367Y554015D01*
X928148Y555000D01*
D02*
G37*
G36*
X1247231Y533695D02*
X1238536Y525000D01*
X1247231Y516305D01*
X1248293Y517895D01*
X1249424Y520625D01*
X1250000Y523523D01*
Y526477D01*
X1249424Y529375D01*
X1248293Y532105D01*
X1247231Y533695D01*
D02*
G37*
G36*
X963094Y607800D02*
X960906D01*
X958885Y606963D01*
X957337Y605415D01*
X956500Y603394D01*
Y601206D01*
X957337Y599184D01*
X957412Y599110D01*
Y578000D01*
X957761Y576244D01*
X958756Y574756D01*
X1051756Y481756D01*
X1053244Y480761D01*
X1055000Y480412D01*
X1120000D01*
X1121756Y480761D01*
X1123244Y481756D01*
X1155329Y513840D01*
X1155368Y513818D01*
X1158420Y513000D01*
X1161580D01*
X1164632Y513818D01*
X1167368Y515398D01*
X1169602Y517632D01*
X1171182Y520368D01*
X1171843Y522833D01*
X1173157D01*
X1173818Y520368D01*
X1175398Y517632D01*
X1177632Y515398D01*
X1180368Y513818D01*
X1183420Y513000D01*
X1186580D01*
X1189632Y513818D01*
X1192368Y515398D01*
X1194602Y517632D01*
X1196182Y520368D01*
X1196843Y522833D01*
X1198157D01*
X1198818Y520368D01*
X1200398Y517632D01*
X1202632Y515398D01*
X1205368Y513818D01*
X1208420Y513000D01*
X1211580D01*
X1214632Y513818D01*
X1217368Y515398D01*
X1219602Y517632D01*
X1220173Y518621D01*
X1221441Y518538D01*
X1221707Y517895D01*
X1222769Y516305D01*
X1233232Y526768D01*
X1243695Y537230D01*
X1242105Y538293D01*
X1241462Y538559D01*
X1241379Y539827D01*
X1242368Y540398D01*
X1244602Y542632D01*
X1246182Y545368D01*
X1247000Y548420D01*
Y551580D01*
X1246182Y554632D01*
X1244602Y557368D01*
X1242368Y559602D01*
X1239632Y561182D01*
X1236580Y562000D01*
X1233420D01*
X1230368Y561182D01*
X1227632Y559602D01*
X1225398Y557368D01*
X1223818Y554632D01*
X1223157Y552167D01*
X1221843D01*
X1221182Y554632D01*
X1219602Y557368D01*
X1217368Y559602D01*
X1214632Y561182D01*
X1211580Y562000D01*
X1208420D01*
X1205368Y561182D01*
X1202632Y559602D01*
X1200398Y557368D01*
X1198818Y554632D01*
X1198157Y552167D01*
X1196843D01*
X1196182Y554632D01*
X1194602Y557368D01*
X1192368Y559602D01*
X1189632Y561182D01*
X1186580Y562000D01*
X1183420D01*
X1180368Y561182D01*
X1177632Y559602D01*
X1175398Y557368D01*
X1173818Y554632D01*
X1173157Y552167D01*
X1171843D01*
X1171182Y554632D01*
X1169602Y557368D01*
X1167368Y559602D01*
X1164632Y561182D01*
X1161580Y562000D01*
X1158420D01*
X1156842Y561577D01*
X1155944Y562475D01*
X1156000Y562686D01*
Y564924D01*
X1155421Y567086D01*
X1154302Y569024D01*
X1152719Y570607D01*
X1150781Y571726D01*
X1148619Y572305D01*
X1146381D01*
X1144219Y571726D01*
X1142281Y570607D01*
X1140698Y569024D01*
X1139579Y567086D01*
X1139000Y564924D01*
Y562686D01*
X1139056Y562475D01*
X1138158Y561577D01*
X1136580Y562000D01*
X1133420D01*
X1130368Y561182D01*
X1127632Y559602D01*
X1125398Y557368D01*
X1123818Y554632D01*
X1123157Y552167D01*
X1121843D01*
X1121182Y554632D01*
X1119602Y557368D01*
X1117368Y559602D01*
X1114632Y561182D01*
X1111580Y562000D01*
X1108420D01*
X1105368Y561182D01*
X1102632Y559602D01*
X1100398Y557368D01*
X1098818Y554632D01*
X1098157Y552167D01*
X1096843D01*
X1096182Y554632D01*
X1094602Y557368D01*
X1092368Y559602D01*
X1089632Y561182D01*
X1086580Y562000D01*
X1083420D01*
X1080368Y561182D01*
X1077632Y559602D01*
X1075398Y557368D01*
X1073818Y554632D01*
X1073270Y552588D01*
X1072000Y552755D01*
Y562000D01*
X1048000D01*
Y538000D01*
X1057245D01*
X1057412Y536730D01*
X1055368Y536182D01*
X1052632Y534602D01*
X1050398Y532368D01*
X1048818Y529632D01*
X1048000Y526580D01*
Y523420D01*
X1048818Y520368D01*
X1050398Y517632D01*
X1052632Y515398D01*
X1055368Y513818D01*
X1058420Y513000D01*
X1061580D01*
X1064632Y513818D01*
X1067368Y515398D01*
X1069602Y517632D01*
X1071182Y520368D01*
X1071843Y522833D01*
X1073157D01*
X1073818Y520368D01*
X1075398Y517632D01*
X1077632Y515398D01*
X1080368Y513818D01*
X1083420Y513000D01*
X1086580D01*
X1089632Y513818D01*
X1092368Y515398D01*
X1094602Y517632D01*
X1096182Y520368D01*
X1096843Y522833D01*
X1098157D01*
X1098818Y520368D01*
X1100398Y517632D01*
X1102632Y515398D01*
X1105368Y513818D01*
X1108420Y513000D01*
X1111580D01*
X1114632Y513818D01*
X1117368Y515398D01*
X1119602Y517632D01*
X1121182Y520368D01*
X1121843Y522833D01*
X1123157D01*
X1123818Y520368D01*
X1125398Y517632D01*
X1127632Y515398D01*
X1130368Y513818D01*
X1133420Y513000D01*
X1136580D01*
X1139632Y513818D01*
X1141764Y515049D01*
X1142544Y514033D01*
X1118100Y489588D01*
X1056900D01*
X966588Y579901D01*
Y599110D01*
X966663Y599184D01*
X967500Y601206D01*
Y603394D01*
X966663Y605415D01*
X965116Y606963D01*
X963094Y607800D01*
D02*
G37*
G36*
X1235000Y521465D02*
X1226305Y512770D01*
X1227895Y511707D01*
X1230625Y510576D01*
X1233523Y510000D01*
X1236477D01*
X1239375Y510576D01*
X1242105Y511707D01*
X1243695Y512770D01*
X1235000Y521465D01*
D02*
G37*
G36*
X1241094Y500500D02*
X1238906D01*
X1236885Y499663D01*
X1235337Y498116D01*
X1234500Y496094D01*
Y493906D01*
X1235337Y491884D01*
X1236885Y490337D01*
X1238906Y489500D01*
X1241094D01*
X1243115Y490337D01*
X1244663Y491884D01*
X1245500Y493906D01*
Y496094D01*
X1244663Y498116D01*
X1243115Y499663D01*
X1241094Y500500D01*
D02*
G37*
G36*
X1455052Y541516D02*
X1428535Y515000D01*
X1455052Y488484D01*
X1455510Y488942D01*
X1459211Y494035D01*
X1462070Y499645D01*
X1464015Y505633D01*
X1465000Y511852D01*
Y518148D01*
X1464015Y524367D01*
X1462070Y530355D01*
X1459211Y535965D01*
X1455510Y541058D01*
X1455052Y541516D01*
D02*
G37*
G36*
X955052D02*
X928536Y515000D01*
X955052Y488484D01*
X955510Y488942D01*
X959211Y494035D01*
X962069Y499645D01*
X964015Y505633D01*
X965000Y511852D01*
Y518148D01*
X964015Y524367D01*
X962069Y530355D01*
X959211Y535965D01*
X955510Y541058D01*
X955052Y541516D01*
D02*
G37*
G36*
X1394948Y541516D02*
X1394490Y541058D01*
X1390789Y535965D01*
X1387930Y530355D01*
X1385985Y524367D01*
X1385000Y518148D01*
Y511852D01*
X1385985Y505633D01*
X1387930Y499645D01*
X1390789Y494035D01*
X1394490Y488942D01*
X1394948Y488484D01*
X1421465Y515000D01*
X1394948Y541516D01*
D02*
G37*
G36*
X894948D02*
X894490Y541058D01*
X890789Y535965D01*
X887931Y530355D01*
X885985Y524367D01*
X885000Y518148D01*
Y511852D01*
X885985Y505633D01*
X887931Y499645D01*
X890789Y494035D01*
X894490Y488942D01*
X894948Y488484D01*
X921464Y515000D01*
X894948Y541516D01*
D02*
G37*
G36*
X1425000Y511465D02*
X1398483Y484948D01*
X1398942Y484490D01*
X1404035Y480789D01*
X1409645Y477930D01*
X1415633Y475985D01*
X1421852Y475000D01*
X1428148D01*
X1434367Y475985D01*
X1440355Y477930D01*
X1445965Y480789D01*
X1451058Y484490D01*
X1451517Y484948D01*
X1425000Y511465D01*
D02*
G37*
G36*
X925000D02*
X898484Y484948D01*
X898942Y484490D01*
X904035Y480789D01*
X909645Y477930D01*
X915633Y475985D01*
X921852Y475000D01*
X928148D01*
X934367Y475985D01*
X940355Y477930D01*
X945965Y480789D01*
X951058Y484490D01*
X951516Y484948D01*
X925000Y511465D01*
D02*
G37*
%LPD*%
G36*
X1026756Y636756D02*
X1028244Y635761D01*
X1030000Y635412D01*
X1093100D01*
X1109500Y619011D01*
Y618906D01*
X1110337Y616884D01*
X1111885Y615337D01*
X1113906Y614500D01*
X1116094D01*
X1118115Y615337D01*
X1119663Y616884D01*
X1120500Y618906D01*
Y621094D01*
X1119663Y623116D01*
X1118115Y624663D01*
X1116094Y625500D01*
X1115989D01*
X1098244Y643244D01*
X1097914Y643465D01*
X1097652Y645167D01*
X1097849Y645412D01*
X1108100D01*
X1130412Y623100D01*
Y601900D01*
X1128100Y599588D01*
X1116900D01*
X1095500Y620989D01*
Y621094D01*
X1094663Y623116D01*
X1093115Y624663D01*
X1091094Y625500D01*
X1088906D01*
X1086885Y624663D01*
X1085337Y623116D01*
X1084500Y621094D01*
Y618906D01*
X1085337Y616884D01*
X1086885Y615337D01*
X1088906Y614500D01*
X1089011D01*
X1111756Y591756D01*
X1112086Y591535D01*
X1112348Y589833D01*
X1112152Y589588D01*
X1071900D01*
X980400Y681089D01*
X980437Y681278D01*
X981816Y681696D01*
X1026756Y636756D01*
D02*
G37*
%LPC*%
G36*
X1066094Y625500D02*
X1063906D01*
X1061885Y624663D01*
X1060337Y623116D01*
X1059500Y621094D01*
Y618906D01*
X1060337Y616884D01*
X1061885Y615337D01*
X1063906Y614500D01*
X1066094D01*
X1068115Y615337D01*
X1069663Y616884D01*
X1070500Y618906D01*
Y621094D01*
X1069663Y623116D01*
X1068115Y624663D01*
X1066094Y625500D01*
D02*
G37*
%LPD*%
D68*
X995000Y590000D02*
X1030000Y555000D01*
X995000Y590000D02*
Y605000D01*
X1030000Y815000D02*
Y874000D01*
X950000Y735000D02*
X1030000Y815000D01*
X950000Y650000D02*
Y735000D01*
Y650000D02*
X995000Y605000D01*
X1157309Y597309D02*
Y607309D01*
X1170000Y620000D01*
X1145000Y585000D02*
X1157309Y597309D01*
X1070000Y585000D02*
X1145000D01*
X975000Y680000D02*
X1070000Y585000D01*
X975000Y680000D02*
Y730000D01*
X1000000Y755000D01*
X1035000D01*
X1055891Y775891D02*
Y930347D01*
X1035000Y755000D02*
X1055891Y775891D01*
X1115000Y595000D02*
X1130000D01*
X1135000Y600000D01*
X1090000Y620000D02*
X1115000Y595000D01*
X1135000Y600000D02*
Y625000D01*
X1110000Y650000D02*
X1135000Y625000D01*
X1035000Y650000D02*
X1110000D01*
X990000Y695000D02*
X1035000Y650000D01*
X990000Y695000D02*
Y720000D01*
X1005000Y735000D02*
X1050000D01*
X990000Y720000D02*
X1005000Y735000D01*
X1050000D02*
X1095000Y780000D01*
Y870000D01*
X1120000Y895000D01*
X1360000Y565000D02*
X1375000Y580000D01*
X1360000Y565000D02*
Y565000D01*
X1375000Y580000D02*
X1425000D01*
X1510000Y665000D01*
Y705000D01*
X1470000Y745000D02*
X1510000Y705000D01*
X1380000Y780000D02*
X1415000Y745000D01*
X1470000D01*
X1380000Y780000D02*
Y824000D01*
X1350000Y854000D02*
X1380000Y824000D01*
X1055000Y485000D02*
X1120000D01*
X1160000Y525000D01*
X962000Y578000D02*
X1055000Y485000D01*
X962000Y578000D02*
Y602300D01*
X1095000Y640000D02*
X1115000Y620000D01*
X1030000Y640000D02*
X1095000D01*
X982929Y687071D02*
Y725000D01*
Y687071D02*
X1030000Y640000D01*
X982929Y725000D02*
X985000D01*
X1005000Y745000D01*
X1045000D01*
X1080000Y780000D01*
Y903556D01*
X1122302Y945858D01*
X1218577Y715000D02*
X1236533Y732956D01*
X1130000Y715000D02*
X1218577D01*
X1120000Y705000D02*
X1130000Y715000D01*
X1120000Y697296D02*
Y705000D01*
X1105301Y682597D02*
X1120000Y697296D01*
X1065000Y665000D02*
X1250000D01*
X1000000Y715000D02*
X1015000D01*
X1065000Y665000D01*
X1290000Y705000D02*
X1487514D01*
X1250000Y665000D02*
X1290000Y705000D01*
X1487514D02*
X1491926Y700588D01*
X1170000Y620000D02*
X1308137D01*
X1325594Y637457D01*
D71*
X867700Y620000D02*
D03*
X842300D02*
D03*
X1277300Y775000D02*
D03*
X1302700D02*
D03*
X1390000Y632700D02*
D03*
Y607300D02*
D03*
D72*
X861200Y538750D02*
D03*
D73*
X708800D02*
D03*
X835800D02*
D03*
X759600D02*
D03*
X1144600Y810000D02*
D03*
X1119200D02*
D03*
X1170000D02*
D03*
X589000Y540500D02*
D03*
X589000Y631500D02*
D03*
X550100Y952550D02*
D03*
X641100Y952550D02*
D03*
D74*
X925000Y515000D02*
D03*
X1425000D02*
D03*
Y800000D02*
D03*
X925000D02*
D03*
D75*
X1235000Y525000D02*
D03*
X1210000Y550000D02*
D03*
Y525000D02*
D03*
X1185000Y550000D02*
D03*
Y525000D02*
D03*
X1160000Y550000D02*
D03*
Y525000D02*
D03*
X1135000Y550000D02*
D03*
X1060000Y525000D02*
D03*
X1085000D02*
D03*
Y550000D02*
D03*
X1110000D02*
D03*
X1235000D02*
D03*
X1135000Y525000D02*
D03*
X1110000D02*
D03*
X570000Y570000D02*
D03*
Y600000D02*
D03*
X579600Y971550D02*
D03*
X609600D02*
D03*
D76*
X1060000Y550000D02*
D03*
D77*
X1147500Y563805D02*
D03*
D78*
X1284000Y925000D02*
D03*
X1030000Y976000D02*
D03*
Y874000D02*
D03*
D79*
X776000Y925000D02*
D03*
D80*
X652740Y775000D02*
D03*
D81*
Y749600D02*
D03*
Y724200D02*
D03*
D82*
X750000Y800000D02*
D03*
X925000Y542500D02*
D03*
X945000Y535000D02*
D03*
X952500Y515000D02*
D03*
X945000Y495000D02*
D03*
X925000Y487500D02*
D03*
X905000Y495000D02*
D03*
X897500Y515000D02*
D03*
X905000Y535000D02*
D03*
X1170000Y675000D02*
D03*
X1030000Y555000D02*
D03*
X970000Y935000D02*
D03*
X1405000Y535000D02*
D03*
X1397500Y515000D02*
D03*
X1405000Y495000D02*
D03*
X1425000Y487500D02*
D03*
X1445000Y495000D02*
D03*
X1452500Y515000D02*
D03*
X1445000Y535000D02*
D03*
X1425000Y542500D02*
D03*
X1291419Y689341D02*
D03*
X915000Y740000D02*
D03*
X925160Y644530D02*
D03*
X940000Y985000D02*
D03*
X1295000D02*
D03*
X1500000Y955000D02*
D03*
X1375000Y565000D02*
D03*
X1372000Y780000D02*
D03*
X1297000Y610000D02*
D03*
X1202000Y740000D02*
D03*
X1055000Y717600D02*
D03*
X931495Y586072D02*
D03*
X1279081Y535742D02*
D03*
X1265000Y610000D02*
D03*
X1055891Y930347D02*
D03*
X1120000Y895000D02*
D03*
X1347935Y920165D02*
D03*
X1360000Y565000D02*
D03*
X1350000Y854000D02*
D03*
X962000Y602300D02*
D03*
X1122302Y945858D02*
D03*
X956869Y902647D02*
D03*
X1341244Y652512D02*
D03*
X1285000Y635000D02*
D03*
X1244014Y683176D02*
D03*
X1315000Y970000D02*
D03*
X1347750Y958100D02*
D03*
X1240000Y695000D02*
D03*
X1400000Y945000D02*
D03*
X1397102Y958252D02*
D03*
X1265000Y725000D02*
D03*
X1239519Y708074D02*
D03*
X1236533Y732956D02*
D03*
X1105301Y682597D02*
D03*
X1142176Y733218D02*
D03*
X1065000Y690000D02*
D03*
X1130000Y695000D02*
D03*
X1070517Y920166D02*
D03*
X1213215Y908033D02*
D03*
X1122725Y919909D02*
D03*
X1212000Y945400D02*
D03*
X1000000Y715000D02*
D03*
X1491926Y700588D02*
D03*
X1240000Y495000D02*
D03*
X1450000Y665000D02*
D03*
X1325594Y637457D02*
D03*
X1248490Y842143D02*
D03*
X1200000Y930000D02*
D03*
X1170000Y620000D02*
D03*
X1115000D02*
D03*
X1090000D02*
D03*
X1065000D02*
D03*
X575000Y800000D02*
D03*
X1425000Y827500D02*
D03*
X1445000Y820000D02*
D03*
X1452500Y800000D02*
D03*
X1445000Y780000D02*
D03*
X1425000Y772500D02*
D03*
X1405000Y780000D02*
D03*
X1397500Y800000D02*
D03*
X1405000Y820000D02*
D03*
X905000D02*
D03*
X897500Y800000D02*
D03*
X905000Y780000D02*
D03*
X925000Y772500D02*
D03*
X945000Y780000D02*
D03*
X952500Y800000D02*
D03*
X945000Y820000D02*
D03*
X925000Y827500D02*
D03*
M02*
