G04*
G04 #@! TF.GenerationSoftware,Altium Limited,Altium Designer,23.0.1 (38)*
G04*
G04 Layer_Physical_Order=3*
G04 Layer_Color=16440176*
%FSLAX44Y44*%
%MOMM*%
G71*
G04*
G04 #@! TF.SameCoordinates,A400D9DA-BE9D-43B9-9025-6262B0EBFE75*
G04*
G04*
G04 #@! TF.FilePolarity,Positive*
G04*
G01*
G75*
%ADD18C,1.0000*%
%ADD71C,0.5000*%
%ADD75C,1.6000*%
%ADD76R,1.6000X1.6000*%
%ADD77C,2.0000*%
G04:AMPARAMS|DCode=78|XSize=2mm|YSize=2mm|CornerRadius=0.5mm|HoleSize=0mm|Usage=FLASHONLY|Rotation=180.000|XOffset=0mm|YOffset=0mm|HoleType=Round|Shape=RoundedRectangle|*
%AMROUNDEDRECTD78*
21,1,2.0000,1.0000,0,0,180.0*
21,1,1.0000,2.0000,0,0,180.0*
1,1,1.0000,-0.5000,0.5000*
1,1,1.0000,0.5000,0.5000*
1,1,1.0000,0.5000,-0.5000*
1,1,1.0000,-0.5000,-0.5000*
%
%ADD78ROUNDEDRECTD78*%
%ADD79C,7.0000*%
%ADD80C,1.5000*%
%ADD81R,1.2000X1.2000*%
%ADD82C,1.2000*%
%ADD83C,0.7000*%
G36*
X865858Y550002D02*
X865858Y550002D01*
X868096D01*
X872533Y549418D01*
X876856Y548260D01*
X880991Y546547D01*
X884867Y544309D01*
X888417Y541584D01*
X891582Y538420D01*
X894307Y534869D01*
X896544Y530993D01*
X898257Y526858D01*
X899416Y522535D01*
X900000Y518098D01*
X900000Y515860D01*
X900000Y108817D01*
X898730Y108291D01*
X897719Y109302D01*
X895781Y110421D01*
X893619Y111000D01*
X891381D01*
X889219Y110421D01*
X887281Y109302D01*
X885698Y107719D01*
X884579Y105781D01*
X884000Y103619D01*
Y101381D01*
X884579Y99219D01*
X885698Y97281D01*
X886518Y96462D01*
X885781Y95421D01*
X883619Y96000D01*
X881381D01*
X879219Y95421D01*
X877281Y94302D01*
X875698Y92719D01*
X874579Y90781D01*
X874000Y88619D01*
Y86381D01*
X874579Y84219D01*
X875698Y82281D01*
X874776Y81442D01*
X870964Y84211D01*
X865355Y87069D01*
X859367Y89015D01*
X853148Y90000D01*
X846852D01*
X840633Y89015D01*
X834645Y87069D01*
X829035Y84211D01*
X823942Y80510D01*
X819490Y76058D01*
X815789Y70964D01*
X812930Y65355D01*
X810985Y59367D01*
X810000Y53148D01*
Y46852D01*
X810985Y40633D01*
X812930Y34645D01*
X815789Y29035D01*
X819490Y23942D01*
X823942Y19490D01*
X829035Y15789D01*
X834645Y12930D01*
X840633Y10985D01*
X846852Y10000D01*
X853148D01*
X859367Y10985D01*
X865355Y12930D01*
X870964Y15789D01*
X876058Y19490D01*
X880510Y23942D01*
X884211Y29035D01*
X887069Y34645D01*
X889015Y40633D01*
X890000Y46852D01*
Y53148D01*
X889015Y59367D01*
X887069Y65355D01*
X884211Y70964D01*
X880510Y76058D01*
X877412Y79156D01*
X878192Y80172D01*
X879219Y79579D01*
X881381Y79000D01*
X883619D01*
X885781Y79579D01*
X887719Y80698D01*
X889302Y82281D01*
X890421Y84219D01*
X891000Y86381D01*
Y88619D01*
X890421Y90781D01*
X889302Y92719D01*
X888483Y93538D01*
X889219Y94579D01*
X891381Y94000D01*
X893619D01*
X895781Y94579D01*
X897719Y95698D01*
X898730Y96709D01*
X900000Y96183D01*
X900000Y34142D01*
X900000Y34142D01*
X900000Y31904D01*
X899416Y27467D01*
X898258Y23144D01*
X896545Y19009D01*
X894307Y15133D01*
X891582Y11582D01*
X888418Y8418D01*
X884867Y5693D01*
X880991Y3455D01*
X876856Y1743D01*
X872533Y584D01*
X868096Y0D01*
X865858D01*
X558198Y-0D01*
X557563Y1100D01*
X557921Y1719D01*
X558500Y3881D01*
Y6119D01*
X557921Y8281D01*
X557516Y8981D01*
X551768Y3232D01*
X550000Y5000D01*
X548232Y3232D01*
X542483Y8981D01*
X542079Y8281D01*
X541500Y6119D01*
Y3881D01*
X542079Y1719D01*
X542437Y1100D01*
X541802Y-0D01*
X473817Y-0D01*
X473291Y1270D01*
X474302Y2281D01*
X475421Y4219D01*
X476000Y6381D01*
Y8619D01*
X475421Y10781D01*
X474302Y12719D01*
X472719Y14302D01*
X470781Y15421D01*
X468619Y16000D01*
X467317D01*
X466791Y17270D01*
X466802Y17281D01*
X467921Y19219D01*
X468500Y21381D01*
Y23619D01*
X467921Y25781D01*
X467517Y26481D01*
X461768Y20732D01*
X456019Y14983D01*
X456719Y14579D01*
X458881Y14000D01*
X460183D01*
X460709Y12730D01*
X460699Y12719D01*
X459580Y10781D01*
X459000Y8619D01*
Y6381D01*
X459580Y4219D01*
X460699Y2281D01*
X461710Y1270D01*
X461184Y-0D01*
X360000D01*
Y39555D01*
X361270Y39757D01*
X362931Y34645D01*
X365789Y29035D01*
X369490Y23942D01*
X373942Y19490D01*
X379036Y15789D01*
X384646Y12930D01*
X390634Y10985D01*
X396852Y10000D01*
X403148D01*
X409367Y10985D01*
X415355Y12930D01*
X420965Y15789D01*
X426059Y19490D01*
X430510Y23942D01*
X434211Y29035D01*
X437070Y34645D01*
X439015Y40633D01*
X440000Y46852D01*
Y53148D01*
X439015Y59367D01*
X437070Y65355D01*
X434211Y70964D01*
X430510Y76058D01*
X426059Y80510D01*
X420965Y84211D01*
X415355Y87069D01*
X409367Y89015D01*
X403148Y90000D01*
X396852D01*
X390634Y89015D01*
X384646Y87069D01*
X379036Y84211D01*
X373942Y80510D01*
X369490Y76058D01*
X365789Y70964D01*
X362931Y65355D01*
X361270Y60243D01*
X360000Y60444D01*
Y489556D01*
X361270Y489757D01*
X362931Y484645D01*
X365789Y479035D01*
X369490Y473942D01*
X373942Y469490D01*
X379036Y465789D01*
X384646Y462930D01*
X390634Y460985D01*
X396852Y460000D01*
X403148D01*
X409367Y460985D01*
X415355Y462930D01*
X420736Y465672D01*
X421391Y465325D01*
X421829Y464847D01*
X421500Y463619D01*
Y461381D01*
X422079Y459219D01*
X422484Y458519D01*
X428232Y464268D01*
X433981Y470017D01*
X433281Y470421D01*
X431119Y471000D01*
X429365D01*
X428809Y472240D01*
X430510Y473942D01*
X434211Y479035D01*
X437070Y484645D01*
X439015Y490633D01*
X440000Y496852D01*
Y503148D01*
X439015Y509367D01*
X437070Y515355D01*
X434211Y520965D01*
X430510Y526058D01*
X426059Y530510D01*
X420965Y534211D01*
X415355Y537070D01*
X409367Y539015D01*
X403148Y540000D01*
X396852D01*
X390634Y539015D01*
X384646Y537070D01*
X379036Y534211D01*
X373942Y530510D01*
X369490Y526058D01*
X365789Y520965D01*
X362931Y515355D01*
X361270Y510243D01*
X360000Y510445D01*
Y550002D01*
X865858Y550002D01*
X865858Y550002D01*
D02*
G37*
%LPC*%
G36*
X759678Y540500D02*
X756723D01*
X753825Y539924D01*
X751095Y538793D01*
X748638Y537151D01*
X746549Y535062D01*
X746135Y534443D01*
X744865D01*
X744451Y535062D01*
X742362Y537151D01*
X739905Y538793D01*
X737176Y539924D01*
X734277Y540500D01*
X731323D01*
X728425Y539924D01*
X725695Y538793D01*
X723238Y537151D01*
X721149Y535062D01*
X719507Y532605D01*
X718377Y529875D01*
X717800Y526978D01*
Y524023D01*
X718377Y521125D01*
X719507Y518395D01*
X721149Y515938D01*
X723238Y513849D01*
X725695Y512207D01*
X728425Y511077D01*
X731323Y510500D01*
X734277D01*
X737176Y511077D01*
X739905Y512207D01*
X742362Y513849D01*
X744451Y515938D01*
X744865Y516557D01*
X746135D01*
X746549Y515938D01*
X748638Y513849D01*
X751095Y512207D01*
X753825Y511077D01*
X756723Y510500D01*
X759678D01*
X762576Y511077D01*
X765305Y512207D01*
X767762Y513849D01*
X769851Y515938D01*
X771493Y518395D01*
X772624Y521125D01*
X773200Y524023D01*
Y526978D01*
X772624Y529875D01*
X771493Y532605D01*
X769851Y535062D01*
X767762Y537151D01*
X765305Y538793D01*
X762576Y539924D01*
X759678Y540500D01*
D02*
G37*
G36*
X478619Y536000D02*
X476381D01*
X474219Y535421D01*
X473519Y535017D01*
X477500Y531036D01*
X481481Y535017D01*
X480781Y535421D01*
X478619Y536000D01*
D02*
G37*
G36*
X501119D02*
X498881D01*
X496719Y535421D01*
X494781Y534302D01*
X493198Y532719D01*
X492079Y530781D01*
X491500Y528619D01*
Y528500D01*
X491381D01*
X489219Y527921D01*
X487281Y526802D01*
X487270Y526791D01*
X486000Y527317D01*
Y528619D01*
X485421Y530781D01*
X485017Y531481D01*
X479268Y525732D01*
X473519Y519984D01*
X474219Y519579D01*
X476381Y519000D01*
X478619D01*
X480781Y519579D01*
X482719Y520698D01*
X482730Y520709D01*
X484000Y520183D01*
Y518881D01*
X484579Y516719D01*
X485698Y514781D01*
X487281Y513198D01*
X489219Y512079D01*
X491381Y511500D01*
X493619D01*
X495781Y512079D01*
X497719Y513198D01*
X499302Y514781D01*
X500003Y515996D01*
X500471Y516715D01*
X501705Y516605D01*
X502501Y516275D01*
X504435Y516020D01*
Y489382D01*
X503165Y488856D01*
X502719Y489302D01*
X500781Y490421D01*
X500093Y490605D01*
X490349Y500349D01*
X490349Y500349D01*
X488782Y501551D01*
X486958Y502307D01*
X485000Y502565D01*
X480000D01*
X478042Y502307D01*
X476218Y501551D01*
X474651Y500349D01*
X474651Y500349D01*
X443401Y469099D01*
X443401Y469099D01*
X442199Y467533D01*
X441443Y465708D01*
X441185Y463750D01*
Y449384D01*
X420687Y428885D01*
X419484Y427318D01*
X418729Y425494D01*
X418471Y423536D01*
Y405480D01*
X417201Y404686D01*
X415619Y405110D01*
X413381D01*
X411219Y404531D01*
X409281Y403411D01*
X407698Y401829D01*
X406579Y399891D01*
X406000Y397729D01*
Y395491D01*
X406579Y393329D01*
X407698Y391391D01*
X409281Y389808D01*
X411219Y388689D01*
X413381Y388110D01*
X415619D01*
X417201Y388534D01*
X418340Y387856D01*
X418490Y387632D01*
X418729Y385820D01*
X419484Y383995D01*
X420687Y382429D01*
X427552Y375564D01*
X427736Y374876D01*
X428855Y372938D01*
X430438Y371355D01*
X432376Y370236D01*
X434538Y369657D01*
X436776D01*
X438938Y370236D01*
X440876Y371355D01*
X442458Y372938D01*
X443577Y374876D01*
X444157Y377038D01*
Y379276D01*
X443577Y381438D01*
X442458Y383376D01*
X440876Y384958D01*
X438938Y386077D01*
X438250Y386262D01*
X433600Y390911D01*
Y420402D01*
X446262Y433064D01*
X447435Y432578D01*
Y365199D01*
X447693Y363241D01*
X448449Y361417D01*
X449651Y359850D01*
X456395Y353106D01*
X456579Y352418D01*
X457698Y350480D01*
X459281Y348898D01*
X461219Y347779D01*
X463381Y347199D01*
X465619D01*
X467781Y347779D01*
X469719Y348898D01*
X471301Y350480D01*
X472421Y352418D01*
X473000Y354580D01*
Y356818D01*
X472421Y358980D01*
X471301Y360918D01*
X469719Y362501D01*
X467781Y363620D01*
X467093Y363804D01*
X462565Y368332D01*
Y440205D01*
X463057Y441393D01*
X463315Y443351D01*
Y455116D01*
X469736Y461538D01*
X471487Y461493D01*
X472281Y460699D01*
X474219Y459580D01*
X474907Y459395D01*
X482935Y451367D01*
Y448500D01*
X481381D01*
X479219Y447921D01*
X478519Y447517D01*
X482935Y443101D01*
Y440435D01*
X482147Y439647D01*
X481356Y440438D01*
X479417Y441557D01*
X477255Y442136D01*
X476828D01*
X474983Y443981D01*
X474579Y443281D01*
X474215Y441921D01*
X472855Y441557D01*
X470917Y440438D01*
X469334Y438855D01*
X468215Y436917D01*
X467636Y434755D01*
Y432517D01*
X468215Y430355D01*
X469334Y428417D01*
X470917Y426834D01*
X472855Y425715D01*
X475017Y425136D01*
X477255D01*
X477435Y424998D01*
Y345633D01*
X471867Y340065D01*
X468898D01*
X468281Y340421D01*
X466119Y341000D01*
X463881D01*
X461719Y340421D01*
X459781Y339302D01*
X458198Y337719D01*
X457079Y335781D01*
X456500Y333619D01*
Y331381D01*
X457079Y329219D01*
X458198Y327281D01*
X459229Y326250D01*
X458198Y325219D01*
X457079Y323281D01*
X456500Y321119D01*
Y318881D01*
X457079Y316719D01*
X458198Y314781D01*
X459781Y313198D01*
X461478Y312218D01*
X461119Y311000D01*
X458881D01*
X456719Y310420D01*
X454781Y309301D01*
X453198Y307719D01*
X452079Y305781D01*
X451500Y303619D01*
Y301381D01*
X452079Y299219D01*
X453198Y297281D01*
X454781Y295698D01*
X456719Y294579D01*
X458881Y294000D01*
X461119D01*
X463281Y294579D01*
X465219Y295698D01*
X466802Y297281D01*
X467921Y299219D01*
X468500Y301381D01*
Y303619D01*
X467921Y305781D01*
X466802Y307719D01*
X465219Y309301D01*
X463522Y310281D01*
X463881Y311500D01*
X465963D01*
X466481Y310602D01*
X468064Y309019D01*
X470002Y307900D01*
X472164Y307321D01*
X474402D01*
X476564Y307900D01*
X478502Y309019D01*
X480084Y310602D01*
X481203Y312540D01*
X481783Y314702D01*
Y316940D01*
X481203Y319102D01*
X480084Y321040D01*
X478502Y322623D01*
X476564Y323742D01*
X476267Y323821D01*
X476352Y325113D01*
X476958Y325193D01*
X478782Y325949D01*
X480349Y327151D01*
X490349Y337151D01*
X491551Y338718D01*
X491883Y339519D01*
X492699Y339681D01*
X493317Y339662D01*
X494781Y338198D01*
X496719Y337079D01*
X498881Y336500D01*
X501119D01*
X503281Y337079D01*
X503981Y337483D01*
X498232Y343232D01*
X500000Y345000D01*
X498232Y346768D01*
X503981Y352517D01*
X503281Y352921D01*
X501119Y353500D01*
X498881D01*
X496719Y352921D01*
X494781Y351802D01*
X493835Y350855D01*
X492565Y351382D01*
Y428053D01*
X495849Y431337D01*
X497051Y432904D01*
X497539Y434083D01*
X498980Y434717D01*
X499219Y434579D01*
X501381Y434000D01*
X503619D01*
X504435Y433374D01*
Y413000D01*
X504693Y411042D01*
X505449Y409218D01*
X506651Y407651D01*
X524804Y389497D01*
X524147Y388359D01*
X523619Y388500D01*
X521381D01*
X519219Y387921D01*
X517281Y386802D01*
X515698Y385219D01*
X514579Y383281D01*
X514000Y381119D01*
Y378881D01*
X514579Y376719D01*
X515698Y374781D01*
X517281Y373199D01*
X519219Y372080D01*
X521381Y371500D01*
X523619D01*
X525781Y372080D01*
X527719Y373199D01*
X529301Y374781D01*
X530421Y376719D01*
X531000Y378881D01*
Y381119D01*
X530858Y381647D01*
X531997Y382305D01*
X546895Y367407D01*
X547079Y366719D01*
X548199Y364781D01*
X549781Y363198D01*
X551719Y362079D01*
X553881Y361500D01*
X556119D01*
X558281Y362079D01*
X560219Y363198D01*
X561802Y364781D01*
X562921Y366719D01*
X563500Y368881D01*
Y371119D01*
X562921Y373281D01*
X561802Y375219D01*
X560219Y376801D01*
X558281Y377920D01*
X557593Y378105D01*
X519565Y416133D01*
Y436857D01*
X520835Y437590D01*
X521719Y437079D01*
X523881Y436500D01*
X526119D01*
X528281Y437079D01*
X530219Y438198D01*
X531802Y439781D01*
X532921Y441719D01*
X533500Y443881D01*
Y446119D01*
X532921Y448281D01*
X531802Y450219D01*
X530219Y451802D01*
X528281Y452921D01*
X526119Y453500D01*
X523881D01*
X521719Y452921D01*
X520835Y452410D01*
X519565Y453143D01*
Y520408D01*
X519307Y522366D01*
X518551Y524190D01*
X517349Y525757D01*
X514175Y528931D01*
X512608Y530133D01*
X510784Y530889D01*
X508826Y531147D01*
X507710D01*
X506802Y532719D01*
X505219Y534302D01*
X503281Y535421D01*
X501119Y536000D01*
D02*
G37*
G36*
X681546Y533000D02*
X678254D01*
X675075Y532148D01*
X672225Y530502D01*
X669898Y528175D01*
X668252Y525325D01*
X667858Y523853D01*
X666543D01*
X666148Y525325D01*
X664503Y528175D01*
X662175Y530502D01*
X659325Y532148D01*
X656146Y533000D01*
X652854D01*
X649675Y532148D01*
X646825Y530502D01*
X644498Y528175D01*
X642852Y525325D01*
X642000Y522146D01*
Y518854D01*
X642852Y515675D01*
X644498Y512825D01*
X646825Y510497D01*
X649675Y508852D01*
X652854Y508000D01*
X656146D01*
X659325Y508852D01*
X662175Y510497D01*
X664503Y512825D01*
X666148Y515675D01*
X666543Y517147D01*
X667858D01*
X668252Y515675D01*
X669898Y512825D01*
X672225Y510497D01*
X675075Y508852D01*
X678254Y508000D01*
X681546D01*
X684725Y508852D01*
X687575Y510497D01*
X689903Y512825D01*
X691548Y515675D01*
X692400Y518854D01*
Y522146D01*
X691548Y525325D01*
X689903Y528175D01*
X687575Y530502D01*
X684725Y532148D01*
X681546Y533000D01*
D02*
G37*
G36*
X469984Y531481D02*
X469580Y530781D01*
X469000Y528619D01*
Y526381D01*
X469580Y524219D01*
X469984Y523519D01*
X473965Y527500D01*
X469984Y531481D01*
D02*
G37*
G36*
X703619Y526000D02*
X701381D01*
X699219Y525421D01*
X697281Y524302D01*
X695698Y522719D01*
X694579Y520781D01*
X694000Y518619D01*
Y516381D01*
X694579Y514219D01*
X695698Y512281D01*
X697281Y510698D01*
X699219Y509579D01*
X701381Y509000D01*
X703619D01*
X705781Y509579D01*
X707719Y510698D01*
X709302Y512281D01*
X710421Y514219D01*
X711000Y516381D01*
Y518619D01*
X710421Y520781D01*
X709302Y522719D01*
X707719Y524302D01*
X705781Y525421D01*
X703619Y526000D01*
D02*
G37*
G36*
X691619Y485442D02*
X689381D01*
X687219Y484862D01*
X685281Y483743D01*
X683698Y482161D01*
X682579Y480222D01*
X682000Y478061D01*
Y475822D01*
X682579Y473661D01*
X683698Y471722D01*
X685281Y470140D01*
X687219Y469021D01*
X689381Y468442D01*
X691619D01*
X693781Y469021D01*
X695719Y470140D01*
X697302Y471722D01*
X698421Y473661D01*
X699000Y475822D01*
Y478061D01*
X698421Y480222D01*
X697302Y482161D01*
X695719Y483743D01*
X693781Y484862D01*
X691619Y485442D01*
D02*
G37*
G36*
X853148Y540000D02*
X846852D01*
X840633Y539015D01*
X834645Y537070D01*
X829035Y534211D01*
X823942Y530510D01*
X819490Y526058D01*
X815789Y520965D01*
X812930Y515355D01*
X810985Y509367D01*
X810000Y503148D01*
Y496852D01*
X810985Y490633D01*
X812930Y484645D01*
X815789Y479035D01*
X819490Y473942D01*
X823942Y469490D01*
X829035Y465789D01*
X834645Y462930D01*
X840633Y460985D01*
X846852Y460000D01*
X853148D01*
X859367Y460985D01*
X865355Y462930D01*
X870964Y465789D01*
X876058Y469490D01*
X880510Y473942D01*
X884211Y479035D01*
X887069Y484645D01*
X889015Y490633D01*
X890000Y496852D01*
Y503148D01*
X889015Y509367D01*
X887069Y515355D01*
X884211Y520965D01*
X880510Y526058D01*
X876058Y530510D01*
X870964Y534211D01*
X865355Y537070D01*
X859367Y539015D01*
X853148Y540000D01*
D02*
G37*
G36*
X437517Y466481D02*
X433536Y462500D01*
X437517Y458519D01*
X437921Y459219D01*
X438500Y461381D01*
Y463619D01*
X437921Y465781D01*
X437517Y466481D01*
D02*
G37*
G36*
X430000Y458964D02*
X426019Y454983D01*
X426719Y454579D01*
X428881Y454000D01*
X431119D01*
X433281Y454579D01*
X433981Y454983D01*
X430000Y458964D01*
D02*
G37*
G36*
X781119Y468650D02*
X778881D01*
X776719Y468071D01*
X774781Y466952D01*
X773198Y465369D01*
X772079Y463431D01*
X771500Y461269D01*
Y459031D01*
X772079Y456869D01*
X773198Y454931D01*
X774781Y453348D01*
X776719Y452229D01*
X778881Y451650D01*
X781119D01*
X783281Y452229D01*
X785219Y453348D01*
X786802Y454931D01*
X787921Y456869D01*
X788500Y459031D01*
Y461269D01*
X787921Y463431D01*
X786802Y465369D01*
X785219Y466952D01*
X783281Y468071D01*
X781119Y468650D01*
D02*
G37*
G36*
X613619Y453500D02*
X611381D01*
X609219Y452921D01*
X608519Y452516D01*
X612500Y448535D01*
X616481Y452516D01*
X615781Y452921D01*
X613619Y453500D01*
D02*
G37*
G36*
X413619D02*
X411381D01*
X409219Y452921D01*
X408519Y452516D01*
X412500Y448535D01*
X416481Y452516D01*
X415781Y452921D01*
X413619Y453500D01*
D02*
G37*
G36*
X631119D02*
X628881D01*
X626719Y452921D01*
X624781Y451802D01*
X623199Y450219D01*
X622080Y448281D01*
X621908Y447639D01*
X620593D01*
X620421Y448281D01*
X620017Y448981D01*
X616036Y445000D01*
X620017Y441019D01*
X620421Y441719D01*
X620593Y442361D01*
X621908D01*
X622080Y441719D01*
X623199Y439781D01*
X624781Y438198D01*
X626719Y437079D01*
X628881Y436500D01*
X631119D01*
X633281Y437079D01*
X635219Y438198D01*
X636802Y439781D01*
X637921Y441719D01*
X638500Y443881D01*
Y446119D01*
X637921Y448281D01*
X636802Y450219D01*
X635219Y451802D01*
X633281Y452921D01*
X631119Y453500D01*
D02*
G37*
G36*
X420017Y448981D02*
X416036Y445000D01*
X420017Y441019D01*
X420421Y441719D01*
X421000Y443881D01*
Y446119D01*
X420421Y448281D01*
X420017Y448981D01*
D02*
G37*
G36*
X604984D02*
X604579Y448281D01*
X604000Y446119D01*
Y443881D01*
X604579Y441719D01*
X604984Y441019D01*
X608965Y445000D01*
X604984Y448981D01*
D02*
G37*
G36*
X404983D02*
X404579Y448281D01*
X404000Y446119D01*
Y443881D01*
X404579Y441719D01*
X404983Y441019D01*
X408965Y445000D01*
X404983Y448981D01*
D02*
G37*
G36*
X828619Y453500D02*
X826381D01*
X824219Y452921D01*
X822281Y451802D01*
X820698Y450219D01*
X819579Y448281D01*
X819000Y446119D01*
Y443881D01*
X819579Y441719D01*
X820698Y439781D01*
X822281Y438198D01*
X824219Y437079D01*
X826381Y436500D01*
X828619D01*
X830781Y437079D01*
X832719Y438198D01*
X834302Y439781D01*
X835421Y441719D01*
X836000Y443881D01*
Y446119D01*
X835421Y448281D01*
X834302Y450219D01*
X832719Y451802D01*
X830781Y452921D01*
X828619Y453500D01*
D02*
G37*
G36*
X698619D02*
X696381D01*
X694219Y452921D01*
X692281Y451802D01*
X690699Y450219D01*
X689579Y448281D01*
X689000Y446119D01*
Y443881D01*
X689579Y441719D01*
X690699Y439781D01*
X692281Y438198D01*
X694219Y437079D01*
X696381Y436500D01*
X698619D01*
X700781Y437079D01*
X702719Y438198D01*
X704302Y439781D01*
X705421Y441719D01*
X706000Y443881D01*
Y446119D01*
X705421Y448281D01*
X704302Y450219D01*
X702719Y451802D01*
X700781Y452921D01*
X698619Y453500D01*
D02*
G37*
G36*
X612500Y441464D02*
X608519Y437483D01*
X609219Y437079D01*
X611381Y436500D01*
X613619D01*
X615781Y437079D01*
X616481Y437483D01*
X612500Y441464D01*
D02*
G37*
G36*
X412500D02*
X408519Y437483D01*
X409219Y437079D01*
X411381Y436500D01*
X413619D01*
X415781Y437079D01*
X416481Y437483D01*
X412500Y441464D01*
D02*
G37*
G36*
X658619Y448500D02*
X656381D01*
X654219Y447921D01*
X652281Y446802D01*
X650698Y445219D01*
X649579Y443281D01*
X649000Y441119D01*
Y438881D01*
X649579Y436719D01*
X650698Y434781D01*
X652281Y433198D01*
X654219Y432079D01*
X656381Y431500D01*
X658619D01*
X660781Y432079D01*
X662719Y433198D01*
X664302Y434781D01*
X665421Y436719D01*
X666000Y438881D01*
Y441119D01*
X665421Y443281D01*
X664302Y445219D01*
X662719Y446802D01*
X660781Y447921D01*
X658619Y448500D01*
D02*
G37*
G36*
X551119Y443500D02*
X548881D01*
X546719Y442921D01*
X544781Y441802D01*
X543198Y440219D01*
X542079Y438281D01*
X541500Y436119D01*
Y433881D01*
X542079Y431719D01*
X543198Y429781D01*
X544781Y428198D01*
X546719Y427079D01*
X548881Y426500D01*
X551119D01*
X553281Y427079D01*
X555219Y428198D01*
X556802Y429781D01*
X557921Y431719D01*
X558500Y433881D01*
Y436119D01*
X557921Y438281D01*
X556802Y440219D01*
X555219Y441802D01*
X553281Y442921D01*
X551119Y443500D01*
D02*
G37*
G36*
X851119Y425439D02*
X848881D01*
X846719Y424860D01*
X844781Y423741D01*
X843198Y422159D01*
X842079Y420220D01*
X841500Y418059D01*
Y415820D01*
X842079Y413659D01*
X843198Y411720D01*
X844781Y410138D01*
X846719Y409019D01*
X848881Y408439D01*
X851119D01*
X853281Y409019D01*
X855219Y410138D01*
X856802Y411720D01*
X857921Y413659D01*
X858500Y415820D01*
Y418059D01*
X857921Y420220D01*
X856802Y422159D01*
X855219Y423741D01*
X853281Y424860D01*
X851119Y425439D01*
D02*
G37*
G36*
X583619Y408750D02*
X581381D01*
X579219Y408171D01*
X577281Y407052D01*
X575698Y405469D01*
X574579Y403531D01*
X574000Y401369D01*
Y399131D01*
X574579Y396969D01*
X575698Y395031D01*
X577281Y393448D01*
X579219Y392329D01*
X581381Y391750D01*
X583619D01*
X585781Y392329D01*
X587719Y393448D01*
X589302Y395031D01*
X590421Y396969D01*
X591000Y399131D01*
Y401369D01*
X590421Y403531D01*
X589302Y405469D01*
X587719Y407052D01*
X585781Y408171D01*
X583619Y408750D01*
D02*
G37*
G36*
X728619Y396000D02*
X726381D01*
X724219Y395421D01*
X723519Y395016D01*
X727500Y391035D01*
X731481Y395016D01*
X730781Y395421D01*
X728619Y396000D01*
D02*
G37*
G36*
X633619Y407700D02*
X631381D01*
X629219Y407121D01*
X627281Y406002D01*
X625698Y404419D01*
X624579Y402481D01*
X624000Y400319D01*
Y398081D01*
X624579Y395919D01*
X625698Y393981D01*
X627281Y392398D01*
X629219Y391279D01*
X631381Y390700D01*
X633619D01*
X635781Y391279D01*
X637719Y392398D01*
X639302Y393981D01*
X640421Y395919D01*
X641000Y398081D01*
Y400319D01*
X640421Y402481D01*
X639302Y404419D01*
X637719Y406002D01*
X635781Y407121D01*
X633619Y407700D01*
D02*
G37*
G36*
X841485Y406049D02*
X839247D01*
X837085Y405469D01*
X835146Y404350D01*
X833564Y402768D01*
X832445Y400830D01*
X831866Y398668D01*
Y396430D01*
X832445Y394268D01*
X833564Y392329D01*
X835146Y390747D01*
X837085Y389628D01*
X839247Y389049D01*
X841485D01*
X843646Y389628D01*
X845585Y390747D01*
X847167Y392329D01*
X848286Y394268D01*
X848866Y396430D01*
Y398668D01*
X848286Y400830D01*
X847167Y402768D01*
X845585Y404350D01*
X843646Y405469D01*
X841485Y406049D01*
D02*
G37*
G36*
X735017Y391481D02*
X731036Y387500D01*
X735017Y383519D01*
X735421Y384219D01*
X736000Y386381D01*
Y388619D01*
X735421Y390781D01*
X735017Y391481D01*
D02*
G37*
G36*
X719984D02*
X719579Y390781D01*
X719000Y388619D01*
Y386381D01*
X719579Y384219D01*
X719984Y383519D01*
X723965Y387500D01*
X719984Y391481D01*
D02*
G37*
G36*
X727500Y383964D02*
X723519Y379983D01*
X724219Y379579D01*
X726381Y379000D01*
X728619D01*
X730781Y379579D01*
X731481Y379983D01*
X727500Y383964D01*
D02*
G37*
G36*
X748619Y393500D02*
X746381D01*
X744219Y392921D01*
X742281Y391802D01*
X740698Y390219D01*
X739579Y388281D01*
X739000Y386119D01*
Y383881D01*
X739579Y381719D01*
X740698Y379781D01*
X742281Y378198D01*
X744219Y377079D01*
X746381Y376500D01*
X748619D01*
X750781Y377079D01*
X752719Y378198D01*
X754302Y379781D01*
X755421Y381719D01*
X756000Y383881D01*
Y386119D01*
X755421Y388281D01*
X754302Y390219D01*
X752719Y391802D01*
X750781Y392921D01*
X748619Y393500D01*
D02*
G37*
G36*
X881119Y386000D02*
X878881D01*
X876719Y385421D01*
X874781Y384302D01*
X873198Y382719D01*
X872079Y380781D01*
X871500Y378619D01*
Y376381D01*
X872079Y374219D01*
X873198Y372281D01*
X874781Y370698D01*
X876719Y369579D01*
X878881Y369000D01*
X881119D01*
X883281Y369579D01*
X885219Y370698D01*
X886802Y372281D01*
X887921Y374219D01*
X888500Y376381D01*
Y378619D01*
X887921Y380781D01*
X886802Y382719D01*
X885219Y384302D01*
X883281Y385421D01*
X881119Y386000D01*
D02*
G37*
G36*
X636119Y383500D02*
X633881D01*
X631719Y382921D01*
X629781Y381802D01*
X628198Y380219D01*
X627079Y378281D01*
X626500Y376119D01*
Y373881D01*
X627079Y371719D01*
X628198Y369781D01*
X629781Y368198D01*
X631719Y367079D01*
X633881Y366500D01*
X636119D01*
X638281Y367079D01*
X640219Y368198D01*
X641802Y369781D01*
X642921Y371719D01*
X643500Y373881D01*
Y376119D01*
X642921Y378281D01*
X641802Y380219D01*
X640219Y381802D01*
X638281Y382921D01*
X636119Y383500D01*
D02*
G37*
G36*
X851477Y370000D02*
X848522D01*
X845624Y369424D01*
X842895Y368293D01*
X840438Y366651D01*
X838349Y364562D01*
X838135Y364242D01*
X836865D01*
X836651Y364562D01*
X834562Y366651D01*
X832105Y368293D01*
X829376Y369424D01*
X826478Y370000D01*
X823523D01*
X820625Y369424D01*
X817895Y368293D01*
X815438Y366651D01*
X813349Y364562D01*
X811707Y362105D01*
X810577Y359375D01*
X810000Y356477D01*
Y356316D01*
X808730Y355790D01*
X807719Y356801D01*
X805781Y357920D01*
X803619Y358500D01*
X801381D01*
X799219Y357920D01*
X797281Y356801D01*
X795698Y355219D01*
X794579Y353281D01*
X794000Y351119D01*
Y348881D01*
X794579Y346719D01*
X795698Y344781D01*
X797281Y343198D01*
X799219Y342079D01*
X801381Y341500D01*
X803619D01*
X805781Y342079D01*
X807719Y343198D01*
X809302Y344781D01*
X810421Y346719D01*
X810590Y347352D01*
X810740Y347425D01*
X811952Y347528D01*
X813349Y345438D01*
X815438Y343349D01*
X815758Y343135D01*
Y341865D01*
X815438Y341652D01*
X813349Y339562D01*
X811707Y337105D01*
X810577Y334376D01*
X810000Y331478D01*
Y328523D01*
X810577Y325625D01*
X811707Y322895D01*
X813349Y320438D01*
X815438Y318349D01*
X815758Y318135D01*
Y316865D01*
X815438Y316651D01*
X813349Y314562D01*
X811707Y312105D01*
X810577Y309375D01*
X810000Y306478D01*
Y303523D01*
X810577Y300625D01*
X811707Y297895D01*
X813349Y295438D01*
X815438Y293349D01*
X815758Y293135D01*
Y291865D01*
X815438Y291651D01*
X813349Y289562D01*
X811707Y287105D01*
X810577Y284375D01*
X810000Y281477D01*
Y279000D01*
X809681D01*
X806756Y278216D01*
X804134Y276702D01*
X801992Y274561D01*
X801099Y273013D01*
X800541Y272887D01*
X799587Y272934D01*
X798219Y274302D01*
X796281Y275421D01*
X794119Y276000D01*
X791881D01*
X789719Y275421D01*
X787781Y274302D01*
X786199Y272719D01*
X785079Y270781D01*
X784500Y268619D01*
Y266381D01*
X785079Y264219D01*
X786199Y262281D01*
X787781Y260698D01*
X789719Y259579D01*
X791881Y259000D01*
X794119D01*
X796281Y259579D01*
X798219Y260698D01*
X799587Y262066D01*
X800541Y262113D01*
X801099Y261987D01*
X801992Y260439D01*
X804134Y258298D01*
X806756Y256784D01*
X809681Y256000D01*
X810000D01*
Y253523D01*
X810577Y250625D01*
X811707Y247895D01*
X813349Y245438D01*
X815438Y243349D01*
X815758Y243135D01*
Y241865D01*
X815438Y241651D01*
X813349Y239562D01*
X811707Y237105D01*
X810577Y234375D01*
X810000Y231477D01*
Y228523D01*
X810577Y225625D01*
X811707Y222895D01*
X813349Y220438D01*
X815438Y218349D01*
X815758Y218135D01*
Y216865D01*
X815438Y216652D01*
X813349Y214562D01*
X811707Y212106D01*
X810577Y209376D01*
X810000Y206478D01*
Y203523D01*
X810577Y200625D01*
X811707Y197895D01*
X813349Y195438D01*
X814105Y194682D01*
X813995Y192997D01*
X812868Y192132D01*
X811265Y190043D01*
X810257Y187611D01*
X809914Y185000D01*
Y175000D01*
X810257Y172390D01*
X811265Y169957D01*
X812868Y167868D01*
X814957Y166265D01*
X817390Y165258D01*
X820000Y164914D01*
X830000D01*
X832611Y165258D01*
X835043Y166265D01*
X837132Y167868D01*
X837996Y168994D01*
X839682Y169105D01*
X840438Y168349D01*
X842895Y166707D01*
X845624Y165577D01*
X848522Y165000D01*
X851477D01*
X854375Y165577D01*
X857105Y166707D01*
X859562Y168349D01*
X861651Y170438D01*
X863293Y172895D01*
X864423Y175625D01*
X865000Y178523D01*
Y181478D01*
X864423Y184375D01*
X863293Y187105D01*
X861651Y189562D01*
X859562Y191651D01*
X859242Y191865D01*
Y193135D01*
X859562Y193349D01*
X861651Y195438D01*
X863293Y197895D01*
X864423Y200625D01*
X865000Y203523D01*
Y206478D01*
X864423Y209376D01*
X863293Y212106D01*
X861651Y214562D01*
X859562Y216652D01*
X859242Y216865D01*
Y218135D01*
X859562Y218349D01*
X861651Y220438D01*
X863293Y222895D01*
X864423Y225625D01*
X865000Y228523D01*
Y231477D01*
X864423Y234375D01*
X863293Y237105D01*
X861651Y239562D01*
X859562Y241651D01*
X859242Y241865D01*
Y243135D01*
X859562Y243349D01*
X861651Y245438D01*
X863293Y247895D01*
X864423Y250625D01*
X865000Y253523D01*
Y256478D01*
X864423Y259376D01*
X863293Y262105D01*
X861651Y264562D01*
X859562Y266651D01*
X859242Y266865D01*
Y268135D01*
X859562Y268349D01*
X861651Y270438D01*
X863293Y272895D01*
X864423Y275625D01*
X865000Y278523D01*
Y281477D01*
X864423Y284375D01*
X863293Y287105D01*
X861651Y289562D01*
X859562Y291651D01*
X859242Y291865D01*
Y293135D01*
X859562Y293349D01*
X861651Y295438D01*
X861777Y295627D01*
X863046Y295585D01*
X863198Y295322D01*
X864781Y293740D01*
X866719Y292621D01*
X868881Y292041D01*
X871119D01*
X873281Y292621D01*
X875219Y293740D01*
X876802Y295322D01*
X877921Y297261D01*
X878500Y299422D01*
Y301660D01*
X877921Y303822D01*
X876802Y305761D01*
X875219Y307343D01*
X873281Y308462D01*
X871119Y309041D01*
X868881D01*
X866719Y308462D01*
X865767Y307913D01*
X864610Y308437D01*
X864423Y309375D01*
X863293Y312105D01*
X861651Y314562D01*
X859562Y316651D01*
X859242Y316865D01*
Y318135D01*
X859562Y318349D01*
X861651Y320438D01*
X863293Y322895D01*
X864423Y325625D01*
X865000Y328523D01*
Y331478D01*
X864423Y334376D01*
X863293Y337105D01*
X861651Y339562D01*
X859562Y341652D01*
X859242Y341865D01*
Y343135D01*
X859562Y343349D01*
X861651Y345438D01*
X863293Y347895D01*
X864423Y350625D01*
X865000Y353523D01*
Y356477D01*
X864423Y359375D01*
X863293Y362105D01*
X861651Y364562D01*
X859562Y366651D01*
X857105Y368293D01*
X854375Y369424D01*
X851477Y370000D01*
D02*
G37*
G36*
X723619Y373500D02*
X721381D01*
X719219Y372921D01*
X717281Y371802D01*
X715698Y370219D01*
X714579Y368281D01*
X714000Y366119D01*
Y363881D01*
X714579Y361719D01*
X715698Y359781D01*
X717281Y358198D01*
X719219Y357079D01*
X721381Y356500D01*
X723619D01*
X725781Y357079D01*
X727719Y358198D01*
X729302Y359781D01*
X730421Y361719D01*
X731000Y363881D01*
Y366119D01*
X730421Y368281D01*
X729302Y370219D01*
X727719Y371802D01*
X725781Y372921D01*
X723619Y373500D01*
D02*
G37*
G36*
X673619Y358500D02*
X671381D01*
X669219Y357921D01*
X668519Y357517D01*
X672500Y353535D01*
X676481Y357517D01*
X675781Y357921D01*
X673619Y358500D01*
D02*
G37*
G36*
X411119Y373500D02*
X408881D01*
X406719Y372921D01*
X404781Y371802D01*
X403199Y370219D01*
X402080Y368281D01*
X401500Y366119D01*
Y363881D01*
X402080Y361719D01*
X403199Y359781D01*
X404229Y358750D01*
X403199Y357719D01*
X402080Y355781D01*
X401500Y353619D01*
Y351381D01*
X402080Y349219D01*
X403199Y347281D01*
X404781Y345699D01*
X406719Y344579D01*
X408881Y344000D01*
X411119D01*
X413281Y344579D01*
X415219Y345699D01*
X416802Y347281D01*
X417921Y349219D01*
X418500Y351381D01*
Y353619D01*
X417921Y355781D01*
X416802Y357719D01*
X415771Y358750D01*
X416802Y359781D01*
X417921Y361719D01*
X418500Y363881D01*
Y366119D01*
X417921Y368281D01*
X416802Y370219D01*
X415219Y371802D01*
X413281Y372921D01*
X411119Y373500D01*
D02*
G37*
G36*
X507517Y348981D02*
X503535Y345000D01*
X507517Y341019D01*
X507921Y341719D01*
X508500Y343881D01*
Y346119D01*
X507921Y348281D01*
X507517Y348981D01*
D02*
G37*
G36*
X553993Y357662D02*
X551755D01*
X549594Y357082D01*
X547655Y355964D01*
X546073Y354381D01*
X544954Y352443D01*
X544374Y350281D01*
Y348043D01*
X544954Y345881D01*
X546073Y343943D01*
X547655Y342360D01*
X549594Y341241D01*
X551755Y340662D01*
X553993D01*
X556155Y341241D01*
X558093Y342360D01*
X559676Y343943D01*
X560795Y345881D01*
X561374Y348043D01*
Y350281D01*
X560795Y352443D01*
X559676Y354381D01*
X558093Y355964D01*
X556155Y357082D01*
X553993Y357662D01*
D02*
G37*
G36*
X701478Y392700D02*
X698523D01*
X695625Y392124D01*
X692895Y390993D01*
X690438Y389351D01*
X688349Y387262D01*
X686707Y384805D01*
X685577Y382075D01*
X685000Y379177D01*
Y376223D01*
X685577Y373325D01*
X686707Y370595D01*
X688349Y368138D01*
X690438Y366049D01*
X691057Y365635D01*
Y364365D01*
X690438Y363951D01*
X688349Y361862D01*
X686707Y359405D01*
X685577Y356675D01*
X685000Y353777D01*
Y350823D01*
X685577Y347925D01*
X686707Y345195D01*
X688349Y342738D01*
X690438Y340649D01*
X692895Y339007D01*
X695625Y337877D01*
X698523Y337300D01*
X701478D01*
X704376Y337877D01*
X707105Y339007D01*
X709562Y340649D01*
X711651Y342738D01*
X713293Y345195D01*
X714424Y347925D01*
X715000Y350823D01*
Y353777D01*
X714424Y356675D01*
X713293Y359405D01*
X711651Y361862D01*
X709562Y363951D01*
X708943Y364365D01*
Y365635D01*
X709562Y366049D01*
X711651Y368138D01*
X713293Y370595D01*
X714424Y373325D01*
X715000Y376223D01*
Y379177D01*
X714424Y382075D01*
X713293Y384805D01*
X711651Y387262D01*
X709562Y389351D01*
X707105Y390993D01*
X704376Y392124D01*
X701478Y392700D01*
D02*
G37*
G36*
X664984Y353981D02*
X664579Y353281D01*
X664000Y351119D01*
Y348881D01*
X664579Y346719D01*
X665698Y344781D01*
X667281Y343198D01*
X669219Y342079D01*
X669255Y342070D01*
X669000Y341119D01*
Y338881D01*
X669579Y336719D01*
X670698Y334781D01*
X672281Y333198D01*
X674219Y332079D01*
X676381Y331500D01*
X678619D01*
X680781Y332079D01*
X682719Y333198D01*
X684302Y334781D01*
X685421Y336719D01*
X686000Y338881D01*
Y341119D01*
X685421Y343281D01*
X684302Y345219D01*
X682719Y346801D01*
X680781Y347921D01*
X680745Y347930D01*
X681000Y348881D01*
Y351119D01*
X680421Y353281D01*
X680016Y353981D01*
X674268Y348232D01*
X672500Y350000D01*
X670732Y348232D01*
X664984Y353981D01*
D02*
G37*
G36*
X778619Y341000D02*
X776381D01*
X774219Y340421D01*
X772281Y339302D01*
X770698Y337719D01*
X769579Y335781D01*
X769000Y333619D01*
Y331381D01*
X769579Y329219D01*
X770698Y327281D01*
X772281Y325699D01*
X774219Y324580D01*
X776381Y324000D01*
X778619D01*
X780781Y324580D01*
X782719Y325699D01*
X784302Y327281D01*
X785421Y329219D01*
X786000Y331381D01*
Y333619D01*
X785421Y335781D01*
X784302Y337719D01*
X782719Y339302D01*
X780781Y340421D01*
X778619Y341000D01*
D02*
G37*
G36*
X436119D02*
X433881D01*
X431719Y340421D01*
X429781Y339302D01*
X428198Y337719D01*
X427079Y335781D01*
X426500Y333619D01*
Y331381D01*
X427079Y329219D01*
X428198Y327281D01*
X429229Y326250D01*
X428198Y325219D01*
X427079Y323281D01*
X426500Y321119D01*
Y318881D01*
X427079Y316719D01*
X428198Y314781D01*
X429781Y313198D01*
X431719Y312079D01*
X433881Y311500D01*
X436119D01*
X438281Y312079D01*
X440219Y313198D01*
X441802Y314781D01*
X442921Y316719D01*
X443500Y318881D01*
Y321119D01*
X442921Y323281D01*
X441802Y325219D01*
X440770Y326250D01*
X441802Y327281D01*
X442921Y329219D01*
X443500Y331381D01*
Y333619D01*
X442921Y335781D01*
X441802Y337719D01*
X440219Y339302D01*
X438281Y340421D01*
X436119Y341000D01*
D02*
G37*
G36*
X554619Y324700D02*
X552381D01*
X550219Y324121D01*
X548281Y323002D01*
X546698Y321419D01*
X545579Y319481D01*
X545000Y317319D01*
Y315081D01*
X545579Y312919D01*
X546698Y310981D01*
X548281Y309398D01*
X550219Y308279D01*
X552381Y307700D01*
X554619D01*
X556781Y308279D01*
X558719Y309398D01*
X560302Y310981D01*
X561421Y312919D01*
X562000Y315081D01*
Y317319D01*
X561421Y319481D01*
X560302Y321419D01*
X558719Y323002D01*
X556781Y324121D01*
X554619Y324700D01*
D02*
G37*
G36*
X661119Y323500D02*
X658881D01*
X656719Y322921D01*
X654781Y321802D01*
X653198Y320219D01*
X652079Y318281D01*
X651500Y316119D01*
Y313881D01*
X652079Y311719D01*
X653198Y309781D01*
X654781Y308198D01*
X656719Y307079D01*
X658881Y306500D01*
X661119D01*
X663281Y307079D01*
X665219Y308198D01*
X666802Y309781D01*
X667921Y311719D01*
X668500Y313881D01*
Y316119D01*
X667921Y318281D01*
X666802Y320219D01*
X665219Y321802D01*
X663281Y322921D01*
X661119Y323500D01*
D02*
G37*
G36*
X681119Y308500D02*
X678881D01*
X676719Y307921D01*
X676019Y307516D01*
X680000Y303535D01*
X683981Y307516D01*
X683281Y307921D01*
X681119Y308500D01*
D02*
G37*
G36*
X687517Y303981D02*
X683536Y300000D01*
X687517Y296019D01*
X687921Y296719D01*
X688500Y298881D01*
Y301119D01*
X687921Y303281D01*
X687517Y303981D01*
D02*
G37*
G36*
X672484D02*
X672079Y303281D01*
X671500Y301119D01*
Y298881D01*
X672079Y296719D01*
X672484Y296019D01*
X676465Y300000D01*
X672484Y303981D01*
D02*
G37*
G36*
X406119Y311000D02*
X403881D01*
X401719Y310420D01*
X399781Y309301D01*
X398198Y307719D01*
X397079Y305781D01*
X396500Y303619D01*
Y301381D01*
X397079Y299219D01*
X398198Y297281D01*
X399781Y295698D01*
X401719Y294579D01*
X403881Y294000D01*
X406119D01*
X408281Y294579D01*
X410219Y295698D01*
X411802Y297281D01*
X412921Y299219D01*
X413500Y301381D01*
Y303619D01*
X412921Y305781D01*
X411802Y307719D01*
X410219Y309301D01*
X408281Y310420D01*
X406119Y311000D01*
D02*
G37*
G36*
X680000Y296464D02*
X676019Y292483D01*
X676719Y292079D01*
X678881Y291500D01*
X681119D01*
X683281Y292079D01*
X683981Y292483D01*
X680000Y296464D01*
D02*
G37*
G36*
X541119Y303500D02*
X538881D01*
X536719Y302921D01*
X534781Y301802D01*
X533198Y300219D01*
X532079Y298281D01*
X531500Y296119D01*
Y293881D01*
X532079Y291719D01*
X533198Y289781D01*
X534781Y288199D01*
X536719Y287079D01*
X538881Y286500D01*
X541119D01*
X543281Y287079D01*
X545219Y288199D01*
X546802Y289781D01*
X547921Y291719D01*
X548500Y293881D01*
Y296119D01*
X547921Y298281D01*
X546802Y300219D01*
X545219Y301802D01*
X543281Y302921D01*
X541119Y303500D01*
D02*
G37*
G36*
X619283Y301664D02*
X617045D01*
X614883Y301084D01*
X612945Y299965D01*
X611362Y298383D01*
X610243Y296445D01*
X609664Y294283D01*
Y292045D01*
X610243Y289883D01*
X611362Y287945D01*
X612945Y286362D01*
X614883Y285243D01*
X617045Y284664D01*
X619283D01*
X621445Y285243D01*
X623383Y286362D01*
X624966Y287945D01*
X626085Y289883D01*
X626664Y292045D01*
Y294283D01*
X626085Y296445D01*
X624966Y298383D01*
X623383Y299965D01*
X621445Y301084D01*
X619283Y301664D01*
D02*
G37*
G36*
X576119Y288500D02*
X573881D01*
X571719Y287921D01*
X571019Y287516D01*
X575000Y283535D01*
X578981Y287516D01*
X578281Y287921D01*
X576119Y288500D01*
D02*
G37*
G36*
X641119Y298500D02*
X638881D01*
X636719Y297921D01*
X634781Y296802D01*
X633199Y295219D01*
X632080Y293281D01*
X631500Y291119D01*
Y288881D01*
X632080Y286719D01*
X633199Y284781D01*
X634781Y283198D01*
X636719Y282079D01*
X638881Y281500D01*
X641119D01*
X643281Y282079D01*
X645219Y283198D01*
X646802Y284781D01*
X647921Y286719D01*
X648500Y288881D01*
Y291119D01*
X647921Y293281D01*
X646802Y295219D01*
X645219Y296802D01*
X643281Y297921D01*
X641119Y298500D01*
D02*
G37*
G36*
X521119D02*
X518881D01*
X516719Y297921D01*
X514781Y296802D01*
X513198Y295219D01*
X512079Y293281D01*
X511500Y291119D01*
Y288881D01*
X512079Y286719D01*
X513198Y284781D01*
X514781Y283198D01*
X516719Y282079D01*
X518881Y281500D01*
X521119D01*
X523281Y282079D01*
X525219Y283198D01*
X526802Y284781D01*
X527921Y286719D01*
X528500Y288881D01*
Y291119D01*
X527921Y293281D01*
X526802Y295219D01*
X525219Y296802D01*
X523281Y297921D01*
X521119Y298500D01*
D02*
G37*
G36*
X706119Y281000D02*
X703881D01*
X701719Y280421D01*
X701019Y280016D01*
X705000Y276035D01*
X708981Y280016D01*
X708281Y280421D01*
X706119Y281000D01*
D02*
G37*
G36*
X461119D02*
X458881D01*
X456719Y280421D01*
X456019Y280016D01*
X460000Y276035D01*
X463981Y280016D01*
X463281Y280421D01*
X461119Y281000D01*
D02*
G37*
G36*
X582517Y283981D02*
X578536Y280000D01*
X582517Y276019D01*
X582921Y276719D01*
X583500Y278881D01*
Y281119D01*
X582921Y283281D01*
X582517Y283981D01*
D02*
G37*
G36*
X567484D02*
X567079Y283281D01*
X566500Y281119D01*
Y278881D01*
X567079Y276719D01*
X567484Y276019D01*
X571465Y280000D01*
X567484Y283981D01*
D02*
G37*
G36*
X575000Y276464D02*
X571019Y272483D01*
X571719Y272079D01*
X573881Y271500D01*
X576119D01*
X578281Y272079D01*
X578981Y272483D01*
X575000Y276464D01*
D02*
G37*
G36*
X371119Y273500D02*
X368881D01*
X366719Y272921D01*
X366019Y272517D01*
X370000Y268536D01*
X373981Y272517D01*
X373281Y272921D01*
X371119Y273500D01*
D02*
G37*
G36*
X712516Y276481D02*
X708535Y272500D01*
X712516Y268519D01*
X712921Y269219D01*
X713500Y271381D01*
Y273619D01*
X712921Y275781D01*
X712516Y276481D01*
D02*
G37*
G36*
X467517D02*
X463536Y272500D01*
X467517Y268519D01*
X467921Y269219D01*
X468500Y271381D01*
Y273619D01*
X467921Y275781D01*
X467517Y276481D01*
D02*
G37*
G36*
X697483D02*
X697079Y275781D01*
X696500Y273619D01*
Y271381D01*
X697079Y269219D01*
X697483Y268519D01*
X701464Y272500D01*
X697483Y276481D01*
D02*
G37*
G36*
X452484D02*
X452079Y275781D01*
X451500Y273619D01*
Y271381D01*
X452079Y269219D01*
X452484Y268519D01*
X456465Y272500D01*
X452484Y276481D01*
D02*
G37*
G36*
X751119Y283500D02*
X748881D01*
X746719Y282921D01*
X744781Y281802D01*
X743198Y280219D01*
X742079Y278281D01*
X741500Y276119D01*
Y273881D01*
X742079Y271719D01*
X743198Y269781D01*
X744781Y268199D01*
X746719Y267080D01*
X748881Y266500D01*
X751119D01*
X753281Y267080D01*
X755219Y268199D01*
X756802Y269781D01*
X757921Y271719D01*
X758500Y273881D01*
Y276119D01*
X757921Y278281D01*
X756802Y280219D01*
X755219Y281802D01*
X753281Y282921D01*
X751119Y283500D01*
D02*
G37*
G36*
X705000Y268964D02*
X701019Y264983D01*
X701719Y264579D01*
X703881Y264000D01*
X706119D01*
X708281Y264579D01*
X708981Y264983D01*
X705000Y268964D01*
D02*
G37*
G36*
X460000D02*
X456019Y264983D01*
X456719Y264579D01*
X458881Y264000D01*
X461119D01*
X463281Y264579D01*
X463981Y264983D01*
X460000Y268964D01*
D02*
G37*
G36*
X617189Y278500D02*
X614951D01*
X612789Y277921D01*
X610851Y276802D01*
X609268Y275219D01*
X608149Y273281D01*
X607570Y271119D01*
Y268881D01*
X608149Y266719D01*
X609268Y264781D01*
X610851Y263198D01*
X612789Y262079D01*
X614951Y261500D01*
X617189D01*
X619351Y262079D01*
X621289Y263198D01*
X622872Y264781D01*
X623991Y266719D01*
X624570Y268881D01*
Y271119D01*
X623991Y273281D01*
X622872Y275219D01*
X621289Y276802D01*
X619351Y277921D01*
X617189Y278500D01*
D02*
G37*
G36*
X377516Y268981D02*
X373535Y265000D01*
X377516Y261019D01*
X377920Y261719D01*
X378500Y263881D01*
Y266119D01*
X377920Y268281D01*
X377516Y268981D01*
D02*
G37*
G36*
X362483D02*
X362079Y268281D01*
X361500Y266119D01*
Y263881D01*
X362079Y261719D01*
X362483Y261019D01*
X366464Y265000D01*
X362483Y268981D01*
D02*
G37*
G36*
X370000Y261465D02*
X366019Y257484D01*
X366719Y257080D01*
X368881Y256500D01*
X371119D01*
X373281Y257080D01*
X373981Y257484D01*
X370000Y261465D01*
D02*
G37*
G36*
X421119Y268500D02*
X418881D01*
X416719Y267921D01*
X414781Y266802D01*
X413199Y265219D01*
X412079Y263281D01*
X411500Y261119D01*
Y258881D01*
X412079Y256719D01*
X413199Y254781D01*
X414781Y253198D01*
X416719Y252079D01*
X418881Y251500D01*
X421119D01*
X423281Y252079D01*
X425219Y253198D01*
X426802Y254781D01*
X427921Y256719D01*
X428500Y258881D01*
Y261119D01*
X427921Y263281D01*
X426802Y265219D01*
X425219Y266802D01*
X423281Y267921D01*
X421119Y268500D01*
D02*
G37*
G36*
X568619Y261000D02*
X566381D01*
X564219Y260421D01*
X562281Y259302D01*
X560698Y257719D01*
X559579Y255781D01*
X559000Y253619D01*
Y251381D01*
X559579Y249219D01*
X560698Y247281D01*
X562281Y245698D01*
X564219Y244579D01*
X566381Y244000D01*
X568619D01*
X570781Y244579D01*
X572719Y245698D01*
X574302Y247281D01*
X575421Y249219D01*
X576000Y251381D01*
Y253619D01*
X575421Y255781D01*
X574302Y257719D01*
X572719Y259302D01*
X570781Y260421D01*
X568619Y261000D01*
D02*
G37*
G36*
X438619D02*
X436381D01*
X434219Y260421D01*
X432281Y259302D01*
X430698Y257719D01*
X429579Y255781D01*
X429000Y253619D01*
Y251381D01*
X429579Y249219D01*
X430698Y247281D01*
X432281Y245698D01*
X434219Y244579D01*
X436381Y244000D01*
X438619D01*
X440781Y244579D01*
X442719Y245698D01*
X444301Y247281D01*
X445420Y249219D01*
X446000Y251381D01*
Y253619D01*
X445420Y255781D01*
X444301Y257719D01*
X442719Y259302D01*
X440781Y260421D01*
X438619Y261000D01*
D02*
G37*
G36*
X618619Y256000D02*
X616381D01*
X614219Y255421D01*
X612281Y254302D01*
X610698Y252719D01*
X609579Y250781D01*
X609000Y248619D01*
Y246381D01*
X609579Y244219D01*
X610698Y242281D01*
X612281Y240698D01*
X614219Y239579D01*
X616381Y239000D01*
X618619D01*
X620781Y239579D01*
X622719Y240698D01*
X624302Y242281D01*
X625421Y244219D01*
X626000Y246381D01*
Y248619D01*
X625421Y250781D01*
X624302Y252719D01*
X622719Y254302D01*
X620781Y255421D01*
X618619Y256000D01*
D02*
G37*
G36*
X598619Y266000D02*
X596381D01*
X594219Y265421D01*
X592281Y264302D01*
X590698Y262719D01*
X589579Y260781D01*
X589000Y258619D01*
Y256381D01*
X589045Y256214D01*
X588881Y256000D01*
X586719Y255421D01*
X584781Y254302D01*
X583198Y252719D01*
X582079Y250781D01*
X581500Y248619D01*
Y248500D01*
X581381D01*
X579219Y247921D01*
X577281Y246802D01*
X575699Y245219D01*
X574580Y243281D01*
X574000Y241119D01*
Y238881D01*
X574580Y236719D01*
X575699Y234781D01*
X577281Y233198D01*
X579219Y232079D01*
X581381Y231500D01*
X583619D01*
X585781Y232079D01*
X587719Y233198D01*
X589302Y234781D01*
X590421Y236719D01*
X591000Y238881D01*
Y239000D01*
X591119D01*
X593281Y239579D01*
X595219Y240699D01*
X596801Y242281D01*
X597921Y244219D01*
X598500Y246381D01*
Y248619D01*
X598455Y248786D01*
X598619Y249000D01*
X600781Y249579D01*
X602719Y250698D01*
X604302Y252281D01*
X605421Y254219D01*
X606000Y256381D01*
Y258619D01*
X605421Y260781D01*
X604302Y262719D01*
X602719Y264302D01*
X600781Y265421D01*
X598619Y266000D01*
D02*
G37*
G36*
X551119Y268500D02*
X548881D01*
X546719Y267921D01*
X544781Y266802D01*
X543198Y265219D01*
X542079Y263281D01*
X541500Y261119D01*
Y258881D01*
X542079Y256719D01*
X542384Y256192D01*
X541698Y255506D01*
X540579Y253568D01*
X540000Y251406D01*
Y249168D01*
X540579Y247006D01*
X541698Y245068D01*
X542594Y244172D01*
X542079Y243281D01*
X541500Y241119D01*
Y238881D01*
X542079Y236719D01*
X543198Y234781D01*
X544781Y233198D01*
X546719Y232079D01*
X548881Y231500D01*
X551119D01*
X553281Y232079D01*
X555219Y233198D01*
X556802Y234781D01*
X557921Y236719D01*
X558500Y238881D01*
Y241119D01*
X557921Y243281D01*
X556802Y245219D01*
X555906Y246115D01*
X556421Y247006D01*
X557000Y249168D01*
Y251406D01*
X556421Y253568D01*
X556116Y254095D01*
X556802Y254781D01*
X557921Y256719D01*
X558500Y258881D01*
Y261119D01*
X557921Y263281D01*
X556802Y265219D01*
X555219Y266802D01*
X553281Y267921D01*
X551119Y268500D01*
D02*
G37*
G36*
X393119Y248500D02*
X390881D01*
X388719Y247921D01*
X386781Y246802D01*
X385199Y245219D01*
X384080Y243281D01*
X383500Y241119D01*
Y238881D01*
X384080Y236719D01*
X385199Y234781D01*
X386781Y233198D01*
X388719Y232079D01*
X390881Y231500D01*
X393119D01*
X395281Y232079D01*
X397219Y233198D01*
X398802Y234781D01*
X399921Y236719D01*
X400500Y238881D01*
Y241119D01*
X399921Y243281D01*
X398802Y245219D01*
X397219Y246802D01*
X395281Y247921D01*
X393119Y248500D01*
D02*
G37*
G36*
X596119Y233500D02*
X593881D01*
X591719Y232920D01*
X589781Y231801D01*
X588198Y230219D01*
X587079Y228281D01*
X586500Y226119D01*
Y223881D01*
X587079Y221719D01*
X588198Y219781D01*
X589781Y218198D01*
X591719Y217079D01*
X593881Y216500D01*
X596119D01*
X598281Y217079D01*
X600219Y218198D01*
X601802Y219781D01*
X602921Y221719D01*
X603500Y223881D01*
Y226119D01*
X602921Y228281D01*
X601802Y230219D01*
X600219Y231801D01*
X598281Y232920D01*
X596119Y233500D01*
D02*
G37*
G36*
X508619Y246000D02*
X506381D01*
X504219Y245421D01*
X502281Y244302D01*
X500698Y242719D01*
X499579Y240781D01*
X499000Y238619D01*
Y236381D01*
X499579Y234219D01*
X500698Y232281D01*
X502237Y230743D01*
X502391Y230557D01*
Y229443D01*
X502237Y229258D01*
X500698Y227719D01*
X499579Y225781D01*
X499000Y223619D01*
Y221381D01*
X499579Y219219D01*
X500698Y217281D01*
X502281Y215698D01*
X504219Y214579D01*
X506381Y214000D01*
X508619D01*
X510781Y214579D01*
X512719Y215698D01*
X514302Y217281D01*
X515421Y219219D01*
X516000Y221381D01*
Y223619D01*
X515421Y225781D01*
X514302Y227719D01*
X512763Y229258D01*
X512609Y229443D01*
Y230557D01*
X512763Y230743D01*
X514302Y232281D01*
X515421Y234219D01*
X516000Y236381D01*
Y238619D01*
X515421Y240781D01*
X514302Y242719D01*
X512719Y244302D01*
X510781Y245421D01*
X508619Y246000D01*
D02*
G37*
G36*
X409665Y228500D02*
X407427D01*
X405265Y227921D01*
X403327Y226802D01*
X401744Y225219D01*
X400625Y223281D01*
X400046Y221119D01*
Y218881D01*
X400625Y216719D01*
X401744Y214781D01*
X403327Y213198D01*
X405265Y212079D01*
X407427Y211500D01*
X409665D01*
X411827Y212079D01*
X413765Y213198D01*
X415348Y214781D01*
X416466Y216719D01*
X417046Y218881D01*
Y221119D01*
X416466Y223281D01*
X415348Y225219D01*
X413765Y226802D01*
X411827Y227921D01*
X409665Y228500D01*
D02*
G37*
G36*
X473619Y223500D02*
X471381D01*
X469219Y222921D01*
X467281Y221801D01*
X465698Y220219D01*
X464579Y218281D01*
X464000Y216119D01*
Y213881D01*
X464579Y211719D01*
X465698Y209781D01*
X467281Y208198D01*
X469219Y207079D01*
X471381Y206500D01*
X473619D01*
X475781Y207079D01*
X477719Y208198D01*
X479302Y209781D01*
X480421Y211719D01*
X481000Y213881D01*
Y216119D01*
X480421Y218281D01*
X479302Y220219D01*
X477719Y221801D01*
X475781Y222921D01*
X473619Y223500D01*
D02*
G37*
G36*
X721119Y213500D02*
X718881D01*
X716719Y212921D01*
X714781Y211801D01*
X713198Y210219D01*
X712079Y208281D01*
X711500Y206119D01*
Y203881D01*
X712079Y201719D01*
X713198Y199781D01*
X714781Y198198D01*
X716719Y197079D01*
X718881Y196500D01*
X721119D01*
X723281Y197079D01*
X725219Y198198D01*
X726802Y199781D01*
X727921Y201719D01*
X728500Y203881D01*
Y206119D01*
X727921Y208281D01*
X726802Y210219D01*
X725219Y211801D01*
X723281Y212921D01*
X721119Y213500D01*
D02*
G37*
G36*
X531119D02*
X528881D01*
X526719Y212921D01*
X524781Y211801D01*
X523198Y210219D01*
X522079Y208281D01*
X521500Y206119D01*
Y203881D01*
X522079Y201719D01*
X523198Y199781D01*
X524781Y198198D01*
X526719Y197079D01*
X528881Y196500D01*
X531119D01*
X533281Y197079D01*
X535219Y198198D01*
X536802Y199781D01*
X537921Y201719D01*
X538500Y203881D01*
Y206119D01*
X537921Y208281D01*
X536802Y210219D01*
X535219Y211801D01*
X533281Y212921D01*
X531119Y213500D01*
D02*
G37*
G36*
X371119D02*
X368881D01*
X366719Y212921D01*
X364781Y211801D01*
X363198Y210219D01*
X362079Y208281D01*
X361500Y206119D01*
Y203881D01*
X362079Y201719D01*
X363198Y199781D01*
X364781Y198198D01*
X366719Y197079D01*
X368881Y196500D01*
X371119D01*
X373281Y197079D01*
X375219Y198198D01*
X376801Y199781D01*
X377920Y201719D01*
X378500Y203881D01*
Y206119D01*
X377920Y208281D01*
X376801Y210219D01*
X375219Y211801D01*
X373281Y212921D01*
X371119Y213500D01*
D02*
G37*
G36*
X673619Y216000D02*
X671381D01*
X669219Y215421D01*
X667281Y214302D01*
X665698Y212719D01*
X664579Y210781D01*
X664000Y208619D01*
Y206381D01*
X664579Y204219D01*
X665698Y202281D01*
X667281Y200699D01*
X669219Y199580D01*
X671381Y199000D01*
X671500D01*
Y198881D01*
X672079Y196719D01*
X673198Y194781D01*
X674781Y193198D01*
X676719Y192079D01*
X678881Y191500D01*
X681119D01*
X683281Y192079D01*
X685219Y193198D01*
X686802Y194781D01*
X687921Y196719D01*
X688500Y198881D01*
Y198979D01*
X689302Y199781D01*
X690421Y201719D01*
X691000Y203881D01*
Y206119D01*
X690421Y208281D01*
X689302Y210219D01*
X687719Y211801D01*
X685781Y212921D01*
X683619Y213500D01*
X681381D01*
X679219Y212921D01*
X679144Y212877D01*
X677719Y214302D01*
X675781Y215421D01*
X673619Y216000D01*
D02*
G37*
G36*
X393589Y205800D02*
X391351D01*
X389189Y205221D01*
X387251Y204102D01*
X385668Y202519D01*
X384549Y200581D01*
X383970Y198419D01*
Y196181D01*
X384549Y194019D01*
X385668Y192081D01*
X387251Y190498D01*
X389189Y189379D01*
X391351Y188800D01*
X393589D01*
X395751Y189379D01*
X397689Y190498D01*
X399271Y192081D01*
X400390Y194019D01*
X400970Y196181D01*
Y198419D01*
X400390Y200581D01*
X399271Y202519D01*
X397689Y204102D01*
X395751Y205221D01*
X393589Y205800D01*
D02*
G37*
G36*
X546119Y198500D02*
X543881D01*
X541719Y197921D01*
X539781Y196802D01*
X538199Y195219D01*
X537079Y193281D01*
X536500Y191119D01*
Y188881D01*
X537079Y186719D01*
X538199Y184781D01*
X539781Y183198D01*
X541719Y182079D01*
X543881Y181500D01*
X546119D01*
X548281Y182079D01*
X550219Y183198D01*
X551802Y184781D01*
X552921Y186719D01*
X553500Y188881D01*
Y191119D01*
X552921Y193281D01*
X551802Y195219D01*
X550219Y196802D01*
X548281Y197921D01*
X546119Y198500D01*
D02*
G37*
G36*
X548619Y178500D02*
X546381D01*
X544219Y177921D01*
X543519Y177517D01*
X547500Y173536D01*
X551481Y177517D01*
X550781Y177921D01*
X548619Y178500D01*
D02*
G37*
G36*
X555017Y173981D02*
X551036Y170000D01*
X555017Y166019D01*
X555421Y166719D01*
X556000Y168881D01*
Y171119D01*
X555421Y173281D01*
X555017Y173981D01*
D02*
G37*
G36*
X539983D02*
X539579Y173281D01*
X539000Y171119D01*
Y168881D01*
X539579Y166719D01*
X539983Y166019D01*
X543965Y170000D01*
X539983Y173981D01*
D02*
G37*
G36*
X681119Y181000D02*
X678881D01*
X676719Y180421D01*
X674781Y179302D01*
X673198Y177719D01*
X672079Y175781D01*
X671500Y173619D01*
Y171381D01*
X672079Y169219D01*
X673198Y167281D01*
X674781Y165698D01*
X676719Y164579D01*
X678881Y164000D01*
X681119D01*
X683281Y164579D01*
X685219Y165698D01*
X686802Y167281D01*
X687921Y169219D01*
X688500Y171381D01*
Y173619D01*
X687921Y175781D01*
X686802Y177719D01*
X685219Y179302D01*
X683281Y180421D01*
X681119Y181000D01*
D02*
G37*
G36*
X723619Y181000D02*
X721381D01*
X719219Y180421D01*
X717281Y179302D01*
X715698Y177719D01*
X714579Y175781D01*
X714000Y173619D01*
Y171381D01*
X714579Y169219D01*
X715698Y167281D01*
X717281Y165698D01*
X719219Y164579D01*
X721381Y164000D01*
X723619D01*
X725781Y164579D01*
X727719Y165698D01*
X729302Y167281D01*
X730421Y169219D01*
X731000Y171381D01*
Y173619D01*
X730421Y175781D01*
X729302Y177719D01*
X727719Y179302D01*
X725781Y180421D01*
X723619Y181000D01*
D02*
G37*
G36*
X547500Y166465D02*
X543519Y162484D01*
X544219Y162079D01*
X546381Y161500D01*
X548619D01*
X550781Y162079D01*
X551481Y162484D01*
X547500Y166465D01*
D02*
G37*
G36*
X493619Y176000D02*
X491381D01*
X489219Y175420D01*
X487281Y174301D01*
X485698Y172719D01*
X484579Y170781D01*
X484000Y168619D01*
Y166381D01*
X484579Y164219D01*
X485698Y162281D01*
X487281Y160698D01*
X489219Y159579D01*
X491381Y159000D01*
X493619D01*
X495781Y159579D01*
X497719Y160698D01*
X499302Y162281D01*
X500421Y164219D01*
X501000Y166381D01*
Y168619D01*
X500421Y170781D01*
X499302Y172719D01*
X497719Y174301D01*
X495781Y175420D01*
X493619Y176000D01*
D02*
G37*
G36*
X626119Y163500D02*
X623881D01*
X621719Y162921D01*
X619781Y161802D01*
X618198Y160219D01*
X617079Y158281D01*
X616500Y156119D01*
Y153881D01*
X617079Y151719D01*
X618198Y149781D01*
X619781Y148198D01*
X621719Y147079D01*
X623881Y146500D01*
X626119D01*
X628281Y147079D01*
X630219Y148198D01*
X631802Y149781D01*
X632921Y151719D01*
X633500Y153881D01*
Y156119D01*
X632921Y158281D01*
X631802Y160219D01*
X630219Y161802D01*
X628281Y162921D01*
X626119Y163500D01*
D02*
G37*
G36*
X463819Y161500D02*
X461581D01*
X459419Y160921D01*
X457481Y159802D01*
X455898Y158219D01*
X454779Y156281D01*
X454200Y154119D01*
Y151881D01*
X454779Y149719D01*
X455898Y147781D01*
X457481Y146198D01*
X459419Y145079D01*
X461581Y144500D01*
X463819D01*
X465981Y145079D01*
X467919Y146198D01*
X469502Y147781D01*
X470621Y149719D01*
X471200Y151881D01*
Y154119D01*
X470621Y156281D01*
X469502Y158219D01*
X467919Y159802D01*
X465981Y160921D01*
X463819Y161500D01*
D02*
G37*
G36*
X789033Y168914D02*
X786795D01*
X784633Y168334D01*
X782695Y167215D01*
X781112Y165633D01*
X779993Y163695D01*
X779414Y161533D01*
Y159295D01*
X779993Y157133D01*
X781112Y155195D01*
X782695Y153612D01*
X784633Y152493D01*
X786795Y151914D01*
X789033D01*
X790230Y152234D01*
X791500Y151381D01*
X791508Y151351D01*
X792079Y149219D01*
X793198Y147281D01*
X794781Y145698D01*
X796719Y144579D01*
X798881Y144000D01*
X801119D01*
X803281Y144579D01*
X805219Y145698D01*
X806802Y147281D01*
X807921Y149219D01*
X808500Y151381D01*
Y153619D01*
X807921Y155781D01*
X806802Y157719D01*
X805219Y159302D01*
X803281Y160421D01*
X801119Y161000D01*
X798881D01*
X797684Y160679D01*
X796414Y161533D01*
X796406Y161563D01*
X795835Y163695D01*
X794716Y165633D01*
X793133Y167215D01*
X791195Y168334D01*
X789033Y168914D01*
D02*
G37*
G36*
X728119Y161000D02*
X725881D01*
X723719Y160421D01*
X721781Y159302D01*
X720198Y157719D01*
X719079Y155781D01*
X718500Y153619D01*
Y151381D01*
X719079Y149219D01*
X720198Y147281D01*
X721781Y145698D01*
X723719Y144579D01*
X725881Y144000D01*
X728119D01*
X730281Y144579D01*
X732219Y145698D01*
X733802Y147281D01*
X734921Y149219D01*
X735500Y151381D01*
Y153619D01*
X734921Y155781D01*
X733802Y157719D01*
X732219Y159302D01*
X730281Y160421D01*
X728119Y161000D01*
D02*
G37*
G36*
X856119Y160500D02*
X853881D01*
X851719Y159921D01*
X849781Y158802D01*
X848198Y157219D01*
X847079Y155281D01*
X846500Y153119D01*
Y150881D01*
X847079Y148719D01*
X848198Y146781D01*
X849781Y145198D01*
X851719Y144080D01*
X853881Y143500D01*
X856119D01*
X858281Y144080D01*
X860219Y145198D01*
X861802Y146781D01*
X862921Y148719D01*
X863500Y150881D01*
Y153119D01*
X862921Y155281D01*
X861802Y157219D01*
X860219Y158802D01*
X858281Y159921D01*
X856119Y160500D01*
D02*
G37*
G36*
X836119D02*
X833881D01*
X831719Y159921D01*
X829781Y158802D01*
X828198Y157219D01*
X827079Y155281D01*
X826500Y153119D01*
Y150881D01*
X827079Y148719D01*
X828198Y146781D01*
X829781Y145198D01*
X831719Y144080D01*
X833881Y143500D01*
X836119D01*
X838281Y144080D01*
X840219Y145198D01*
X841802Y146781D01*
X842921Y148719D01*
X843500Y150881D01*
Y153119D01*
X842921Y155281D01*
X841802Y157219D01*
X840219Y158802D01*
X838281Y159921D01*
X836119Y160500D01*
D02*
G37*
G36*
X603619Y158500D02*
X601381D01*
X599219Y157921D01*
X597281Y156802D01*
X595699Y155219D01*
X594580Y153281D01*
X594000Y151119D01*
Y148881D01*
X594580Y146719D01*
X595699Y144781D01*
X597281Y143198D01*
X599219Y142079D01*
X601381Y141500D01*
X603619D01*
X605781Y142079D01*
X607719Y143198D01*
X609302Y144781D01*
X610421Y146719D01*
X611000Y148881D01*
Y151119D01*
X610421Y153281D01*
X609302Y155219D01*
X607719Y156802D01*
X605781Y157921D01*
X603619Y158500D01*
D02*
G37*
G36*
X398619Y146000D02*
X396381D01*
X394219Y145421D01*
X393519Y145016D01*
X397500Y141035D01*
X401481Y145016D01*
X400781Y145421D01*
X398619Y146000D01*
D02*
G37*
G36*
X415556Y144233D02*
X413317D01*
X411156Y143654D01*
X409217Y142535D01*
X407635Y140952D01*
X406989Y139834D01*
X405626Y140013D01*
X405421Y140781D01*
X405016Y141481D01*
X401035Y137500D01*
X405165Y133371D01*
X406310Y133220D01*
X406516Y132452D01*
X407635Y130514D01*
X409217Y128931D01*
X411156Y127812D01*
X413317Y127233D01*
X415556D01*
X417717Y127812D01*
X419656Y128931D01*
X421238Y130514D01*
X422357Y132452D01*
X422937Y134614D01*
Y136852D01*
X422357Y139014D01*
X421238Y140952D01*
X419656Y142535D01*
X417717Y143654D01*
X415556Y144233D01*
D02*
G37*
G36*
X778619Y153500D02*
X776381D01*
X774219Y152921D01*
X772281Y151802D01*
X770698Y150219D01*
X769579Y148281D01*
X769000Y146119D01*
Y143881D01*
X769579Y141719D01*
X770698Y139781D01*
X772281Y138198D01*
X774219Y137079D01*
X776381Y136500D01*
X778619D01*
X780781Y137079D01*
X782719Y138198D01*
X784302Y139781D01*
X785421Y141719D01*
X786000Y143881D01*
Y146119D01*
X785421Y148281D01*
X784302Y150219D01*
X782719Y151802D01*
X780781Y152921D01*
X778619Y153500D01*
D02*
G37*
G36*
X389983Y141481D02*
X389579Y140781D01*
X389000Y138619D01*
Y136381D01*
X389579Y134219D01*
X389983Y133519D01*
X393964Y137500D01*
X389983Y141481D01*
D02*
G37*
G36*
X397500Y133964D02*
X393519Y129983D01*
X394219Y129579D01*
X396381Y129000D01*
X398619D01*
X400781Y129579D01*
X401481Y129983D01*
X397500Y133964D01*
D02*
G37*
G36*
X848619Y128000D02*
X846381D01*
X844219Y127421D01*
X842281Y126302D01*
X840698Y124719D01*
X839579Y122781D01*
X839407Y122139D01*
X838092D01*
X837921Y122781D01*
X836802Y124719D01*
X835219Y126302D01*
X833281Y127421D01*
X831119Y128000D01*
X828881D01*
X826719Y127421D01*
X824781Y126302D01*
X823198Y124719D01*
X822079Y122781D01*
X821500Y120619D01*
Y118381D01*
X822079Y116219D01*
X823198Y114281D01*
X824781Y112698D01*
X826719Y111579D01*
X828881Y111000D01*
X831119D01*
X833281Y111579D01*
X835219Y112698D01*
X836802Y114281D01*
X837921Y116219D01*
X838092Y116861D01*
X839407D01*
X839579Y116219D01*
X840698Y114281D01*
X842281Y112698D01*
X844219Y111579D01*
X846381Y111000D01*
X848619D01*
X850781Y111579D01*
X852719Y112698D01*
X854302Y114281D01*
X855421Y116219D01*
X856000Y118381D01*
Y120619D01*
X855421Y122781D01*
X854302Y124719D01*
X852719Y126302D01*
X850781Y127421D01*
X848619Y128000D01*
D02*
G37*
G36*
X591119Y138500D02*
X588881D01*
X586719Y137921D01*
X584781Y136802D01*
X583198Y135219D01*
X582079Y133281D01*
X581500Y131119D01*
Y128881D01*
X582079Y126719D01*
X583198Y124781D01*
X584781Y123199D01*
X586719Y122079D01*
X588881Y121500D01*
X591119D01*
X593281Y122079D01*
X595219Y123199D01*
X596801Y124781D01*
X597921Y126719D01*
X598500Y128881D01*
Y131119D01*
X597921Y133281D01*
X596801Y135219D01*
X595219Y136802D01*
X593281Y137921D01*
X591119Y138500D01*
D02*
G37*
G36*
X448619Y146000D02*
X446381D01*
X444219Y145421D01*
X442281Y144302D01*
X440699Y142719D01*
X439580Y140781D01*
X439000Y138619D01*
Y137212D01*
X438710Y136290D01*
X437788Y136000D01*
X436381D01*
X434219Y135421D01*
X432281Y134302D01*
X430698Y132719D01*
X429579Y130781D01*
X429000Y128619D01*
Y126381D01*
X429579Y124219D01*
X430698Y122281D01*
X432281Y120698D01*
X434219Y119579D01*
X436381Y119000D01*
X438619D01*
X440781Y119579D01*
X442719Y120698D01*
X444301Y122281D01*
X445420Y124219D01*
X446000Y126381D01*
Y127787D01*
X446290Y128710D01*
X447212Y129000D01*
X448619D01*
X450781Y129579D01*
X452719Y130698D01*
X454302Y132281D01*
X455421Y134219D01*
X456000Y136381D01*
Y138619D01*
X455421Y140781D01*
X454302Y142719D01*
X452719Y144302D01*
X450781Y145421D01*
X448619Y146000D01*
D02*
G37*
G36*
X611585Y133500D02*
X609347D01*
X607185Y132921D01*
X605247Y131802D01*
X603664Y130219D01*
X602545Y128281D01*
X601966Y126119D01*
Y123881D01*
X602545Y121719D01*
X603664Y119781D01*
X605247Y118198D01*
X607185Y117079D01*
X609347Y116500D01*
X611585D01*
X613747Y117079D01*
X615685Y118198D01*
X617267Y119781D01*
X618387Y121719D01*
X618966Y123881D01*
Y126119D01*
X618387Y128281D01*
X617267Y130219D01*
X615685Y131802D01*
X613747Y132921D01*
X611585Y133500D01*
D02*
G37*
G36*
X533619Y121000D02*
X531381D01*
X529219Y120420D01*
X527281Y119301D01*
X525698Y117719D01*
X524579Y115780D01*
X524082Y113925D01*
X523752Y113511D01*
X522730Y113068D01*
X521119Y113500D01*
X518881D01*
X516719Y112921D01*
X514781Y111802D01*
X513198Y110219D01*
X512079Y108281D01*
X511500Y106119D01*
Y103881D01*
X512079Y101719D01*
X513198Y99781D01*
X514781Y98198D01*
X516719Y97079D01*
X518881Y96500D01*
X521119D01*
X523281Y97079D01*
X524153Y97583D01*
X525083Y96653D01*
X524579Y95781D01*
X524000Y93619D01*
Y91381D01*
X524579Y89219D01*
X524983Y88519D01*
X530732Y94268D01*
X536481Y100016D01*
X535781Y100420D01*
X533619Y101000D01*
X531381D01*
X529219Y100420D01*
X528347Y99917D01*
X527417Y100847D01*
X527921Y101719D01*
X528418Y103575D01*
X528748Y103988D01*
X529770Y104431D01*
X531381Y104000D01*
X533409D01*
X534628Y103296D01*
X536790Y102717D01*
X539028D01*
X541190Y103296D01*
X543128Y104415D01*
X544711Y105997D01*
X545830Y107936D01*
X546409Y110097D01*
Y112336D01*
X545830Y114497D01*
X544711Y116436D01*
X543128Y118018D01*
X541190Y119137D01*
X539028Y119716D01*
X537000D01*
X535781Y120420D01*
X533619Y121000D01*
D02*
G37*
G36*
X881119Y128500D02*
X878881D01*
X876719Y127921D01*
X874781Y126801D01*
X873198Y125219D01*
X872079Y123281D01*
X871500Y121119D01*
Y118881D01*
X872079Y116719D01*
X873198Y114781D01*
X874781Y113198D01*
X876719Y112079D01*
X878881Y111500D01*
X881119D01*
X883281Y112079D01*
X885219Y113198D01*
X886802Y114781D01*
X887921Y116719D01*
X888500Y118881D01*
Y121119D01*
X887921Y123281D01*
X886802Y125219D01*
X885219Y126801D01*
X883281Y127921D01*
X881119Y128500D01*
D02*
G37*
G36*
X413619Y118500D02*
X411381D01*
X409219Y117921D01*
X407281Y116802D01*
X405698Y115219D01*
X404579Y113281D01*
X404000Y111119D01*
Y108881D01*
X404579Y106719D01*
X405698Y104781D01*
X407281Y103198D01*
X409219Y102079D01*
X411381Y101500D01*
X413619D01*
X415781Y102079D01*
X417719Y103198D01*
X419302Y104781D01*
X420421Y106719D01*
X421000Y108881D01*
Y111119D01*
X420421Y113281D01*
X419302Y115219D01*
X417719Y116802D01*
X415781Y117921D01*
X413619Y118500D01*
D02*
G37*
G36*
X568619Y106000D02*
X566381D01*
X564219Y105421D01*
X562281Y104302D01*
X560698Y102719D01*
X559706Y101000D01*
X558881D01*
X556719Y100421D01*
X556250Y100150D01*
X555781Y100421D01*
X553619Y101000D01*
X551381D01*
X549219Y100421D01*
X547281Y99302D01*
X545698Y97719D01*
X544579Y95781D01*
X544000Y93619D01*
Y91381D01*
X544579Y89219D01*
X545698Y87281D01*
X547281Y85698D01*
X549219Y84579D01*
X551381Y84000D01*
X553619D01*
X555781Y84579D01*
X556250Y84850D01*
X556719Y84579D01*
X558881Y84000D01*
X561119D01*
X561478Y82782D01*
X559781Y81802D01*
X558199Y80219D01*
X557079Y78281D01*
X556500Y76119D01*
Y73881D01*
X557079Y71719D01*
X558199Y69781D01*
X559781Y68198D01*
X561719Y67079D01*
X563881Y66500D01*
X566119D01*
X568281Y67079D01*
X570219Y68198D01*
X571802Y69781D01*
X572921Y71719D01*
X573500Y73881D01*
Y76119D01*
X572921Y78281D01*
X571802Y80219D01*
X570219Y81802D01*
X568281Y82921D01*
X566119Y83500D01*
X563881D01*
X563522Y84719D01*
X565219Y85698D01*
X566802Y87281D01*
X567794Y89000D01*
X568619D01*
X570781Y89579D01*
X572719Y90698D01*
X574302Y92281D01*
X575421Y94219D01*
X576000Y96381D01*
Y98619D01*
X575421Y100781D01*
X574302Y102719D01*
X572719Y104302D01*
X570781Y105421D01*
X568619Y106000D01*
D02*
G37*
G36*
X781119Y113500D02*
X778881D01*
X776719Y112921D01*
X774781Y111802D01*
X773198Y110219D01*
X772079Y108281D01*
X771500Y106119D01*
Y103881D01*
X772079Y101719D01*
X773198Y99781D01*
X774781Y98198D01*
X776719Y97079D01*
X778881Y96500D01*
X781119D01*
X783281Y97079D01*
X785219Y98198D01*
X786802Y99781D01*
X787921Y101719D01*
X788500Y103881D01*
Y106119D01*
X787921Y108281D01*
X786802Y110219D01*
X785219Y111802D01*
X783281Y112921D01*
X781119Y113500D01*
D02*
G37*
G36*
X466119Y111000D02*
X463881D01*
X461719Y110420D01*
X459781Y109301D01*
X458198Y107719D01*
X457079Y105780D01*
X456500Y103619D01*
Y101381D01*
X457079Y99219D01*
X458198Y97281D01*
X459781Y95698D01*
X461719Y94579D01*
X463881Y94000D01*
X466119D01*
X468281Y94579D01*
X470219Y95698D01*
X471801Y97281D01*
X472921Y99219D01*
X473500Y101381D01*
Y103619D01*
X472921Y105780D01*
X471801Y107719D01*
X470219Y109301D01*
X468281Y110420D01*
X466119Y111000D01*
D02*
G37*
G36*
X540016Y96481D02*
X536035Y92500D01*
X540016Y88519D01*
X540421Y89219D01*
X541000Y91381D01*
Y93619D01*
X540421Y95781D01*
X540016Y96481D01*
D02*
G37*
G36*
X613119Y103500D02*
X610881D01*
X608719Y102921D01*
X606781Y101802D01*
X605198Y100219D01*
X604079Y98281D01*
X603500Y96119D01*
Y93881D01*
X604079Y91719D01*
X605198Y89781D01*
X606781Y88198D01*
X608719Y87079D01*
X610881Y86500D01*
X613119D01*
X615281Y87079D01*
X617219Y88198D01*
X618801Y89781D01*
X619921Y91719D01*
X620500Y93881D01*
Y96119D01*
X619921Y98281D01*
X618801Y100219D01*
X617219Y101802D01*
X615281Y102921D01*
X613119Y103500D01*
D02*
G37*
G36*
X532500Y88964D02*
X528519Y84983D01*
X529219Y84579D01*
X531381Y84000D01*
X533619D01*
X535781Y84579D01*
X536481Y84983D01*
X532500Y88964D01*
D02*
G37*
G36*
X505683Y89000D02*
X503445D01*
X501283Y88421D01*
X499345Y87302D01*
X497762Y85719D01*
X496643Y83781D01*
X496064Y81619D01*
Y79381D01*
X496643Y77219D01*
X497762Y75281D01*
X499345Y73699D01*
X501283Y72579D01*
X503445Y72000D01*
X505683D01*
X507845Y72579D01*
X509783Y73699D01*
X511366Y75281D01*
X512485Y77219D01*
X513064Y79381D01*
Y81619D01*
X512485Y83781D01*
X511366Y85719D01*
X509783Y87302D01*
X507845Y88421D01*
X505683Y89000D01*
D02*
G37*
G36*
X543619Y83500D02*
X541381D01*
X539219Y82921D01*
X537281Y81802D01*
X535698Y80219D01*
X534579Y78281D01*
X534000Y76119D01*
Y73881D01*
X534579Y71719D01*
X535698Y69781D01*
X537281Y68198D01*
X539219Y67079D01*
X541381Y66500D01*
X543619D01*
X545781Y67079D01*
X547719Y68198D01*
X549301Y69781D01*
X550420Y71719D01*
X551000Y73881D01*
Y76119D01*
X550420Y78281D01*
X549301Y80219D01*
X547719Y81802D01*
X545781Y82921D01*
X543619Y83500D01*
D02*
G37*
G36*
X486776Y90500D02*
X484538D01*
X482376Y89921D01*
X480438Y88802D01*
X478856Y87219D01*
X477736Y85281D01*
X477157Y83119D01*
Y83038D01*
X476719Y82921D01*
X474781Y81802D01*
X473198Y80219D01*
X472079Y78281D01*
X471500Y76119D01*
Y73881D01*
X472079Y71719D01*
X473198Y69781D01*
X474781Y68198D01*
X476719Y67079D01*
X478881Y66500D01*
X481119D01*
X483281Y67079D01*
X485219Y68198D01*
X486802Y69781D01*
X487921Y71719D01*
X488500Y73881D01*
Y73962D01*
X488938Y74080D01*
X490876Y75199D01*
X492459Y76781D01*
X493578Y78720D01*
X494157Y80881D01*
Y83119D01*
X493578Y85281D01*
X492459Y87219D01*
X490876Y88802D01*
X488938Y89921D01*
X486776Y90500D01*
D02*
G37*
G36*
X781119Y73500D02*
X778881D01*
X776719Y72921D01*
X774781Y71802D01*
X773198Y70219D01*
X772079Y68281D01*
X771500Y66119D01*
Y63881D01*
X772079Y61719D01*
X773198Y59781D01*
X774781Y58198D01*
X776719Y57079D01*
X778881Y56500D01*
X781119D01*
X783281Y57079D01*
X785219Y58198D01*
X786802Y59781D01*
X787921Y61719D01*
X788500Y63881D01*
Y66119D01*
X787921Y68281D01*
X786802Y70219D01*
X785219Y71802D01*
X783281Y72921D01*
X781119Y73500D01*
D02*
G37*
G36*
X551119Y66000D02*
X548881D01*
X546719Y65421D01*
X544781Y64302D01*
X543198Y62719D01*
X542079Y60781D01*
X541500Y58619D01*
Y56381D01*
X542079Y54219D01*
X543198Y52281D01*
X544781Y50698D01*
X546719Y49579D01*
X548881Y49000D01*
X551119D01*
X553281Y49579D01*
X555219Y50698D01*
X556802Y52281D01*
X557921Y54219D01*
X558500Y56381D01*
Y58619D01*
X557921Y60781D01*
X556802Y62719D01*
X555219Y64302D01*
X553281Y65421D01*
X551119Y66000D01*
D02*
G37*
G36*
X568619Y56000D02*
X566381D01*
X564219Y55421D01*
X562281Y54302D01*
X560698Y52719D01*
X559579Y50781D01*
X559000Y48619D01*
Y46381D01*
X559579Y44219D01*
X560698Y42281D01*
X562281Y40698D01*
X564219Y39579D01*
X566381Y39000D01*
X568619D01*
X570781Y39579D01*
X572719Y40698D01*
X574302Y42281D01*
X575421Y44219D01*
X576000Y46381D01*
Y48619D01*
X575421Y50781D01*
X574302Y52719D01*
X572719Y54302D01*
X570781Y55421D01*
X568619Y56000D01*
D02*
G37*
G36*
X498619Y51000D02*
X496381D01*
X494219Y50420D01*
X492281Y49302D01*
X490699Y47719D01*
X489579Y45781D01*
X489000Y43619D01*
Y41381D01*
X489579Y39219D01*
X490699Y37281D01*
X492281Y35698D01*
X494219Y34579D01*
X496381Y34000D01*
X498619D01*
X500781Y34579D01*
X502719Y35698D01*
X504302Y37281D01*
X505421Y39219D01*
X506000Y41381D01*
Y43619D01*
X505421Y45781D01*
X504302Y47719D01*
X502719Y49302D01*
X500781Y50420D01*
X498619Y51000D01*
D02*
G37*
G36*
X461119Y31000D02*
X458881D01*
X456719Y30421D01*
X456019Y30016D01*
X460000Y26035D01*
X463981Y30016D01*
X463281Y30421D01*
X461119Y31000D01*
D02*
G37*
G36*
X452484Y26481D02*
X452079Y25781D01*
X451500Y23619D01*
Y21381D01*
X452079Y19219D01*
X452484Y18519D01*
X456465Y22500D01*
X452484Y26481D01*
D02*
G37*
G36*
X598619Y58500D02*
X596381D01*
X594219Y57921D01*
X592281Y56802D01*
X590698Y55219D01*
X589579Y53281D01*
X589000Y51119D01*
Y48881D01*
X589579Y46719D01*
X590698Y44781D01*
X592281Y43198D01*
X593214Y42659D01*
X593689Y41338D01*
X592570Y39400D01*
X591991Y37238D01*
Y35000D01*
X592570Y32838D01*
X593689Y30900D01*
X595271Y29317D01*
X597210Y28198D01*
X599200Y27665D01*
X600005Y26519D01*
X599579Y25781D01*
X599000Y23619D01*
Y21381D01*
X599579Y19219D01*
X600698Y17281D01*
X602281Y15698D01*
X604219Y14579D01*
X606381Y14000D01*
X608619D01*
X610781Y14579D01*
X612719Y15698D01*
X614302Y17281D01*
X615421Y19219D01*
X616000Y21381D01*
Y23619D01*
X615421Y25781D01*
X614302Y27719D01*
X612719Y29302D01*
X610781Y30421D01*
X608790Y30954D01*
X607985Y32100D01*
X608411Y32838D01*
X608991Y35000D01*
Y37238D01*
X608411Y39400D01*
X607292Y41338D01*
X605710Y42920D01*
X604776Y43459D01*
X604302Y44781D01*
X605421Y46719D01*
X606000Y48881D01*
Y51119D01*
X605421Y53281D01*
X604302Y55219D01*
X602719Y56802D01*
X600781Y57921D01*
X598619Y58500D01*
D02*
G37*
G36*
X716119Y28500D02*
X713881D01*
X711719Y27921D01*
X709781Y26802D01*
X708198Y25219D01*
X707079Y23281D01*
X706500Y21119D01*
Y18881D01*
X707079Y16719D01*
X708198Y14781D01*
X709781Y13198D01*
X711719Y12079D01*
X713881Y11500D01*
X716119D01*
X718281Y12079D01*
X720219Y13198D01*
X721802Y14781D01*
X722921Y16719D01*
X723500Y18881D01*
Y21119D01*
X722921Y23281D01*
X721802Y25219D01*
X720219Y26802D01*
X718281Y27921D01*
X716119Y28500D01*
D02*
G37*
G36*
X551119Y13500D02*
X548881D01*
X546719Y12921D01*
X546019Y12517D01*
X550000Y8536D01*
X553981Y12517D01*
X553281Y12921D01*
X551119Y13500D01*
D02*
G37*
%LPD*%
D18*
X811195Y267500D02*
D03*
D71*
X502500Y430000D02*
Y442500D01*
X500000Y427500D02*
X502500Y430000D01*
X485000Y342500D02*
Y431186D01*
X475000Y332500D02*
X485000Y342500D01*
X465000Y332500D02*
X475000D01*
X455000Y365199D02*
Y442601D01*
X455750Y458250D02*
X475000Y477500D01*
X455750Y443351D02*
Y458250D01*
X455000Y442601D02*
X455750Y443351D01*
X455000Y365199D02*
X464500Y355699D01*
X485000Y431186D02*
X490500Y436686D01*
Y454501D01*
X477500Y467500D02*
X490500Y454501D01*
X426036Y387778D02*
Y423536D01*
Y387778D02*
X435679Y378134D01*
X426036Y423536D02*
X448750Y446250D01*
X485000Y495000D02*
X497500Y482500D01*
X480000Y495000D02*
X485000D01*
X500000Y527500D02*
X500541D01*
X504459Y523582D02*
X508826D01*
X512000Y413000D02*
Y520408D01*
X500541Y527500D02*
X504459Y523582D01*
X508826D02*
X512000Y520408D01*
X448750Y446250D02*
Y463750D01*
X480000Y495000D01*
X512000Y413000D02*
X555000Y370000D01*
D75*
X222100Y437900D02*
D03*
Y412500D02*
D03*
X272900Y437900D02*
D03*
D76*
Y387100D02*
D03*
D77*
X850000Y355000D02*
D03*
X825000Y330000D02*
D03*
X850000D02*
D03*
X825000Y305000D02*
D03*
X850000D02*
D03*
X825000Y280000D02*
D03*
X850000D02*
D03*
X825000Y255000D02*
D03*
X850000Y180000D02*
D03*
Y205000D02*
D03*
X825000D02*
D03*
Y230000D02*
D03*
Y355000D02*
D03*
X850000Y255000D02*
D03*
Y230000D02*
D03*
X758200Y525500D02*
D03*
X732800D02*
D03*
X700000Y352300D02*
D03*
Y377700D02*
D03*
X40000Y150000D02*
D03*
Y180000D02*
D03*
X80000Y510000D02*
D03*
X50000D02*
D03*
X190000D02*
D03*
X160000D02*
D03*
D78*
X825000Y180000D02*
D03*
D79*
X850000Y50000D02*
D03*
X400000Y500000D02*
D03*
Y50000D02*
D03*
X850000Y500000D02*
D03*
D80*
X679900Y520500D02*
D03*
X629100D02*
D03*
X654500D02*
D03*
X59000Y120500D02*
D03*
Y211500D02*
D03*
X111500Y491000D02*
D03*
X20500D02*
D03*
X221500D02*
D03*
X130500D02*
D03*
D81*
X100000Y190800D02*
D03*
D82*
Y140000D02*
D03*
X125400Y165400D02*
D03*
D83*
X464500Y355699D02*
D03*
X465000Y332500D02*
D03*
X435657Y378157D02*
D03*
X617500Y247500D02*
D03*
X672500Y350000D02*
D03*
X582500Y400250D02*
D03*
X610466Y125000D02*
D03*
X476136Y433636D02*
D03*
X462700Y153000D02*
D03*
X552874Y349162D02*
D03*
X690500Y476942D02*
D03*
X657500Y440000D02*
D03*
X727000Y152500D02*
D03*
X722500Y172500D02*
D03*
X465000Y320000D02*
D03*
X780000Y460150D02*
D03*
X500000Y345000D02*
D03*
X477500Y467500D02*
D03*
X460000Y272500D02*
D03*
Y302500D02*
D03*
X497500Y482500D02*
D03*
X525000Y445000D02*
D03*
X697500D02*
D03*
X635000Y375000D02*
D03*
X882500Y87500D02*
D03*
X550000Y57500D02*
D03*
Y5000D02*
D03*
X410000Y352500D02*
D03*
Y365000D02*
D03*
X435000Y332500D02*
D03*
X502500Y442500D02*
D03*
X482500Y440000D02*
D03*
X500000Y527500D02*
D03*
X492500Y520000D02*
D03*
X414500Y396610D02*
D03*
X507500Y237500D02*
D03*
Y222500D02*
D03*
X420000Y260000D02*
D03*
X405000Y302500D02*
D03*
X705000Y272500D02*
D03*
X750000Y275000D02*
D03*
X680000Y300000D02*
D03*
X540000Y295000D02*
D03*
X520000Y290000D02*
D03*
X550000Y260000D02*
D03*
X597500Y257500D02*
D03*
X618164Y293164D02*
D03*
X575000Y280000D02*
D03*
X616070Y270000D02*
D03*
X640000Y290000D02*
D03*
X437500Y127500D02*
D03*
X408546Y220000D02*
D03*
X397500Y137500D02*
D03*
X437500Y252500D02*
D03*
X492500Y167500D02*
D03*
X447500Y137500D02*
D03*
X530000Y205000D02*
D03*
X472500Y215000D02*
D03*
X590000Y130000D02*
D03*
Y247500D02*
D03*
X545000Y190000D02*
D03*
X547500Y170000D02*
D03*
X550000Y240000D02*
D03*
X602500Y150000D02*
D03*
X595000Y225000D02*
D03*
X582500Y240000D02*
D03*
X414437Y135733D02*
D03*
X680000Y172500D02*
D03*
X625000Y155000D02*
D03*
X720000Y205000D02*
D03*
X567500Y252500D02*
D03*
X682500Y205000D02*
D03*
X672500Y207500D02*
D03*
X680000Y200000D02*
D03*
X548500Y250287D02*
D03*
X560000Y92500D02*
D03*
X612000Y95000D02*
D03*
X520000Y105000D02*
D03*
X600490Y36119D02*
D03*
X607500Y22500D02*
D03*
X567500Y97500D02*
D03*
X537909Y111216D02*
D03*
X552500Y92500D02*
D03*
X597500Y50000D02*
D03*
X565000Y75000D02*
D03*
X542500D02*
D03*
X460000Y22500D02*
D03*
X485657Y82000D02*
D03*
X504564Y80500D02*
D03*
X475000Y477500D02*
D03*
X555000Y370000D02*
D03*
X477500Y527500D02*
D03*
X480000Y75000D02*
D03*
X465000Y102500D02*
D03*
X793000Y267500D02*
D03*
X800000Y152500D02*
D03*
X677500Y340000D02*
D03*
X780000Y65000D02*
D03*
X892500Y102500D02*
D03*
X880000Y120000D02*
D03*
X715000Y20000D02*
D03*
X777500Y145000D02*
D03*
X787914Y160414D02*
D03*
X780000Y105000D02*
D03*
X880000Y377500D02*
D03*
X722500Y365000D02*
D03*
X175000Y162500D02*
D03*
X177500Y130000D02*
D03*
X550000Y435000D02*
D03*
X632500Y399200D02*
D03*
X370000Y265000D02*
D03*
Y205000D02*
D03*
X467500Y7500D02*
D03*
X567500Y47500D02*
D03*
X435000Y320000D02*
D03*
X430000Y462500D02*
D03*
X660000Y315000D02*
D03*
X532500Y112500D02*
D03*
Y92500D02*
D03*
X412500Y445000D02*
D03*
X630000D02*
D03*
X612500D02*
D03*
X802500Y350000D02*
D03*
X777500Y332500D02*
D03*
X827500Y445000D02*
D03*
X747500Y385000D02*
D03*
X727500Y387500D02*
D03*
X850000Y416940D02*
D03*
X392470Y197300D02*
D03*
X522500Y380000D02*
D03*
X473283Y315821D02*
D03*
X497500Y42500D02*
D03*
X412500Y110000D02*
D03*
X553500Y316200D02*
D03*
X847500Y119500D02*
D03*
X830000D02*
D03*
X217500Y320000D02*
D03*
X197500D02*
D03*
X17500Y410000D02*
D03*
X110000Y397500D02*
D03*
X392000Y240000D02*
D03*
X870000Y300541D02*
D03*
X835000Y152000D02*
D03*
X855000D02*
D03*
X702500Y517500D02*
D03*
X840366Y397549D02*
D03*
X850000Y77500D02*
D03*
X870000Y70000D02*
D03*
X877500Y50000D02*
D03*
X870000Y30000D02*
D03*
X850000Y22500D02*
D03*
X830000Y30000D02*
D03*
X822500Y50000D02*
D03*
X830000Y70000D02*
D03*
X400000Y527500D02*
D03*
X420000Y520000D02*
D03*
X427500Y500000D02*
D03*
X420000Y480000D02*
D03*
X400000Y472500D02*
D03*
X380000Y480000D02*
D03*
X372500Y500000D02*
D03*
X380000Y520000D02*
D03*
Y70000D02*
D03*
X372500Y50000D02*
D03*
X380000Y30000D02*
D03*
X400000Y22500D02*
D03*
X420000Y30000D02*
D03*
X427500Y50000D02*
D03*
X420000Y70000D02*
D03*
X400000Y77500D02*
D03*
X830000Y520000D02*
D03*
X822500Y500000D02*
D03*
X830000Y480000D02*
D03*
X850000Y472500D02*
D03*
X870000Y480000D02*
D03*
X877500Y500000D02*
D03*
X870000Y520000D02*
D03*
X850000Y527500D02*
D03*
M02*
