G04*
G04 #@! TF.GenerationSoftware,Altium Limited,Altium Designer,23.9.2 (47)*
G04*
G04 Layer_Physical_Order=3*
G04 Layer_Color=16440176*
%FSLAX44Y44*%
%MOMM*%
G71*
G04*
G04 #@! TF.SameCoordinates,1607B9EF-4730-45C7-A4D5-593DF947B7B5*
G04*
G04*
G04 #@! TF.FilePolarity,Positive*
G04*
G01*
G75*
%ADD68C,0.5000*%
%ADD71C,1.8000*%
G04:AMPARAMS|DCode=72|XSize=1.5mm|YSize=1.5mm|CornerRadius=0.375mm|HoleSize=0mm|Usage=FLASHONLY|Rotation=180.000|XOffset=0mm|YOffset=0mm|HoleType=Round|Shape=RoundedRectangle|*
%AMROUNDEDRECTD72*
21,1,1.5000,0.7500,0,0,180.0*
21,1,0.7500,1.5000,0,0,180.0*
1,1,0.7500,-0.3750,0.3750*
1,1,0.7500,0.3750,0.3750*
1,1,0.7500,0.3750,-0.3750*
1,1,0.7500,-0.3750,-0.3750*
%
%ADD72ROUNDEDRECTD72*%
%ADD73C,1.5000*%
%ADD74C,7.0000*%
%ADD75C,2.0000*%
%ADD76R,2.0000X2.0000*%
%ADD77C,1.3000*%
%ADD78C,1.6000*%
%ADD79R,1.6000X1.6000*%
%ADD80R,1.2000X1.2000*%
%ADD81C,1.2000*%
%ADD82C,0.7000*%
G36*
X1522500Y975000D02*
Y490000D01*
X1497500Y465000D01*
X825000D01*
Y1010000D01*
X1487500D01*
X1522500Y975000D01*
D02*
G37*
%LPC*%
G36*
X1296119Y993500D02*
X1293881D01*
X1291719Y992921D01*
X1291019Y992516D01*
X1295000Y988536D01*
X1298981Y992516D01*
X1298281Y992921D01*
X1296119Y993500D01*
D02*
G37*
G36*
X941119D02*
X938881D01*
X936719Y992921D01*
X936019Y992516D01*
X940000Y988536D01*
X943981Y992516D01*
X943281Y992921D01*
X941119Y993500D01*
D02*
G37*
G36*
X1302516Y988981D02*
X1298535Y985000D01*
X1302516Y981019D01*
X1302921Y981719D01*
X1303500Y983881D01*
Y986119D01*
X1302921Y988281D01*
X1302516Y988981D01*
D02*
G37*
G36*
X947516D02*
X943536Y985000D01*
X947516Y981019D01*
X947921Y981719D01*
X948500Y983881D01*
Y986119D01*
X947921Y988281D01*
X947516Y988981D01*
D02*
G37*
G36*
X1287484D02*
X1287079Y988281D01*
X1286500Y986119D01*
Y983881D01*
X1287079Y981719D01*
X1287484Y981019D01*
X1291465Y985000D01*
X1287484Y988981D01*
D02*
G37*
G36*
X932484D02*
X932079Y988281D01*
X931500Y986119D01*
Y983881D01*
X932079Y981719D01*
X932484Y981019D01*
X936464Y985000D01*
X932484Y988981D01*
D02*
G37*
G36*
X1295000Y981464D02*
X1291019Y977484D01*
X1291719Y977079D01*
X1293881Y976500D01*
X1296119D01*
X1298281Y977079D01*
X1298981Y977484D01*
X1295000Y981464D01*
D02*
G37*
G36*
X940000D02*
X936019Y977484D01*
X936719Y977079D01*
X938881Y976500D01*
X941119D01*
X943281Y977079D01*
X943981Y977484D01*
X940000Y981464D01*
D02*
G37*
G36*
X1031317Y986000D02*
X1028683D01*
X1026140Y985319D01*
X1023860Y984002D01*
X1021998Y982140D01*
X1020682Y979860D01*
X1020000Y977317D01*
Y974684D01*
X1020682Y972140D01*
X1021998Y969860D01*
X1023860Y967998D01*
X1026140Y966682D01*
X1028683Y966000D01*
X1031317D01*
X1033860Y966682D01*
X1036140Y967998D01*
X1038002Y969860D01*
X1039318Y972140D01*
X1040000Y974684D01*
Y977317D01*
X1039318Y979860D01*
X1038002Y982140D01*
X1036140Y984002D01*
X1033860Y985319D01*
X1031317Y986000D01*
D02*
G37*
G36*
X1501119Y963500D02*
X1498881D01*
X1496719Y962921D01*
X1496019Y962516D01*
X1500000Y958536D01*
X1503981Y962516D01*
X1503281Y962921D01*
X1501119Y963500D01*
D02*
G37*
G36*
X1398196Y963752D02*
X1396008D01*
X1393987Y962914D01*
X1393912Y962840D01*
X1393252D01*
X1391496Y962491D01*
X1390007Y961496D01*
X1361756Y933244D01*
X1360761Y931756D01*
X1360412Y930000D01*
Y806900D01*
X1303100Y749588D01*
X1265000D01*
X1263244Y749239D01*
X1261756Y748244D01*
X1236274Y722763D01*
X1235280Y721275D01*
X1234931Y719519D01*
Y711264D01*
X1234856Y711189D01*
X1234019Y709168D01*
Y706980D01*
X1234856Y704958D01*
X1236403Y703411D01*
X1238425Y702574D01*
X1240613D01*
X1242634Y703411D01*
X1244181Y704958D01*
X1245019Y706980D01*
Y709168D01*
X1244181Y711189D01*
X1244107Y711264D01*
Y717618D01*
X1266900Y740412D01*
X1272152D01*
X1272348Y740167D01*
X1272086Y738465D01*
X1271756Y738244D01*
X1264011Y730500D01*
X1263906D01*
X1261885Y729663D01*
X1260337Y728115D01*
X1259500Y726094D01*
Y723906D01*
X1260337Y721885D01*
X1261885Y720337D01*
X1263906Y719500D01*
X1266094D01*
X1268115Y720337D01*
X1269663Y721885D01*
X1270500Y723906D01*
Y724011D01*
X1276900Y730412D01*
X1315000D01*
X1316756Y730761D01*
X1318244Y731756D01*
X1362932Y776443D01*
X1364418Y776133D01*
X1364483Y776019D01*
X1370232Y781768D01*
X1375981Y787516D01*
X1375867Y787582D01*
X1375556Y789068D01*
X1378244Y791756D01*
X1379239Y793244D01*
X1379588Y795000D01*
Y928100D01*
X1391518Y940029D01*
X1397628D01*
X1398906Y939500D01*
X1401094D01*
X1403116Y940337D01*
X1404663Y941885D01*
X1405500Y943906D01*
Y946094D01*
X1404663Y948115D01*
X1403116Y949663D01*
X1401094Y950500D01*
X1398906D01*
X1396884Y949663D01*
X1396427Y949205D01*
X1392354D01*
X1391867Y950379D01*
X1394758Y953270D01*
X1396008Y952752D01*
X1398196D01*
X1400218Y953589D01*
X1401765Y955136D01*
X1402602Y957158D01*
Y959346D01*
X1401765Y961367D01*
X1400218Y962914D01*
X1398196Y963752D01*
D02*
G37*
G36*
X1316094Y975500D02*
X1313906D01*
X1311884Y974663D01*
X1310337Y973115D01*
X1309500Y971094D01*
Y968906D01*
X1310337Y966885D01*
X1310412Y966810D01*
Y866900D01*
X1206756Y763244D01*
X1205761Y761756D01*
X1205412Y760000D01*
Y749201D01*
X1204142Y748226D01*
X1203119Y748500D01*
X1200881D01*
X1198719Y747921D01*
X1198019Y747516D01*
X1203768Y741768D01*
X1202000Y740000D01*
X1203768Y738232D01*
X1198019Y732484D01*
X1198719Y732079D01*
X1200881Y731500D01*
X1203119D01*
X1204142Y731774D01*
X1205412Y730799D01*
Y700000D01*
X1205761Y698244D01*
X1206756Y696756D01*
X1223580Y679931D01*
X1225069Y678937D01*
X1226824Y678587D01*
X1240824D01*
X1240899Y678513D01*
X1242920Y677676D01*
X1245108D01*
X1247130Y678513D01*
X1248677Y680060D01*
X1249514Y682082D01*
Y684270D01*
X1248677Y686291D01*
X1247130Y687838D01*
X1245108Y688676D01*
X1242920D01*
X1240899Y687838D01*
X1240824Y687764D01*
X1228725D01*
X1215217Y701272D01*
X1215293Y702325D01*
X1216535Y702086D01*
X1216756Y701756D01*
X1226373Y692138D01*
X1227861Y691144D01*
X1229617Y690795D01*
X1236427D01*
X1236885Y690337D01*
X1238906Y689500D01*
X1241094D01*
X1243115Y690337D01*
X1244663Y691885D01*
X1245500Y693906D01*
Y696094D01*
X1244663Y698115D01*
X1243115Y699663D01*
X1241094Y700500D01*
X1238906D01*
X1237628Y699971D01*
X1231518D01*
X1224588Y706900D01*
Y758100D01*
X1333244Y866756D01*
X1334239Y868244D01*
X1334588Y870000D01*
Y948100D01*
X1339618Y953129D01*
X1345379D01*
X1346656Y952600D01*
X1348844D01*
X1350865Y953437D01*
X1352413Y954985D01*
X1353250Y957006D01*
Y959194D01*
X1352413Y961216D01*
X1350865Y962763D01*
X1348844Y963600D01*
X1346656D01*
X1344635Y962763D01*
X1344177Y962306D01*
X1337717D01*
X1335961Y961956D01*
X1334473Y960962D01*
X1326756Y953244D01*
X1325761Y951756D01*
X1325412Y950000D01*
Y871900D01*
X1320762Y867250D01*
X1319588Y867736D01*
Y966810D01*
X1319663Y966885D01*
X1320500Y968906D01*
Y971094D01*
X1319663Y973115D01*
X1318116Y974663D01*
X1316094Y975500D01*
D02*
G37*
G36*
X1507516Y958981D02*
X1503535Y955000D01*
X1507516Y951019D01*
X1507921Y951719D01*
X1508500Y953881D01*
Y956119D01*
X1507921Y958281D01*
X1507516Y958981D01*
D02*
G37*
G36*
X1492484D02*
X1492079Y958281D01*
X1491500Y956119D01*
Y953881D01*
X1492079Y951719D01*
X1492484Y951019D01*
X1496465Y955000D01*
X1492484Y958981D01*
D02*
G37*
G36*
X1500000Y951464D02*
X1496019Y947484D01*
X1496719Y947079D01*
X1498881Y946500D01*
X1501119D01*
X1503281Y947079D01*
X1503981Y947484D01*
X1500000Y951464D01*
D02*
G37*
G36*
X1123396Y951358D02*
X1121208D01*
X1119187Y950520D01*
X1117640Y948973D01*
X1116802Y946952D01*
Y944764D01*
X1117640Y942742D01*
X1119187Y941195D01*
X1121208Y940358D01*
X1123396D01*
X1125418Y941195D01*
X1126965Y942742D01*
X1127802Y944764D01*
Y946952D01*
X1126965Y948973D01*
X1125418Y950520D01*
X1123396Y951358D01*
D02*
G37*
G36*
X1213094Y950900D02*
X1210906D01*
X1208885Y950063D01*
X1207337Y948515D01*
X1206500Y946494D01*
Y944306D01*
X1207337Y942284D01*
X1208885Y940737D01*
X1210906Y939900D01*
X1213094D01*
X1215116Y940737D01*
X1216663Y942284D01*
X1217500Y944306D01*
Y946494D01*
X1216663Y948515D01*
X1215116Y950063D01*
X1213094Y950900D01*
D02*
G37*
G36*
X1056985Y935847D02*
X1054797D01*
X1052775Y935009D01*
X1051228Y933462D01*
X1050391Y931441D01*
Y929253D01*
X1051228Y927231D01*
X1052775Y925684D01*
X1054797Y924847D01*
X1056985D01*
X1059006Y925684D01*
X1060553Y927231D01*
X1061391Y929253D01*
Y931441D01*
X1060553Y933462D01*
X1059006Y935009D01*
X1056985Y935847D01*
D02*
G37*
G36*
X1201094Y935500D02*
X1198906D01*
X1196885Y934663D01*
X1195337Y933115D01*
X1194500Y931094D01*
Y928906D01*
X1195337Y926885D01*
X1196885Y925337D01*
X1198906Y924500D01*
X1201094D01*
X1203115Y925337D01*
X1204663Y926885D01*
X1205500Y928906D01*
Y931094D01*
X1204663Y933115D01*
X1203115Y934663D01*
X1201094Y935500D01*
D02*
G37*
G36*
X1285316Y935000D02*
X1282684D01*
X1280140Y934318D01*
X1277860Y933002D01*
X1275998Y931140D01*
X1274681Y928860D01*
X1274000Y926317D01*
Y923683D01*
X1274681Y921140D01*
X1275998Y918860D01*
X1277860Y916998D01*
X1280140Y915682D01*
X1282684Y915000D01*
X1285316D01*
X1287860Y915682D01*
X1290140Y916998D01*
X1292002Y918860D01*
X1293318Y921140D01*
X1294000Y923683D01*
Y926317D01*
X1293318Y928860D01*
X1292002Y931140D01*
X1290140Y933002D01*
X1287860Y934318D01*
X1285316Y935000D01*
D02*
G37*
G36*
X1071610Y925666D02*
X1069423D01*
X1067401Y924829D01*
X1065854Y923281D01*
X1065016Y921260D01*
Y919072D01*
X1065854Y917050D01*
X1067401Y915503D01*
X1069423Y914666D01*
X1071610D01*
X1073632Y915503D01*
X1075179Y917050D01*
X1076016Y919072D01*
Y921260D01*
X1075179Y923281D01*
X1073632Y924829D01*
X1071610Y925666D01*
D02*
G37*
G36*
X1123819Y925409D02*
X1121631D01*
X1119609Y924572D01*
X1118062Y923025D01*
X1117225Y921003D01*
Y918815D01*
X1118062Y916794D01*
X1119609Y915247D01*
X1121631Y914409D01*
X1123819D01*
X1125840Y915247D01*
X1127387Y916794D01*
X1128225Y918815D01*
Y921003D01*
X1127387Y923025D01*
X1125840Y924572D01*
X1123819Y925409D01*
D02*
G37*
G36*
X1214309Y913533D02*
X1212121D01*
X1210099Y912695D01*
X1208552Y911148D01*
X1207715Y909127D01*
Y906939D01*
X1208552Y904917D01*
X1210099Y903370D01*
X1212121Y902533D01*
X1214309D01*
X1216330Y903370D01*
X1217878Y904917D01*
X1218715Y906939D01*
Y909127D01*
X1217878Y911148D01*
X1216330Y912695D01*
X1214309Y913533D01*
D02*
G37*
G36*
X1121094Y900500D02*
X1118906D01*
X1116885Y899663D01*
X1115337Y898115D01*
X1114500Y896094D01*
Y893906D01*
X1115337Y891885D01*
X1116885Y890337D01*
X1118906Y889500D01*
X1121094D01*
X1123115Y890337D01*
X1124663Y891885D01*
X1125500Y893906D01*
Y896094D01*
X1124663Y898115D01*
X1123115Y899663D01*
X1121094Y900500D01*
D02*
G37*
G36*
X1031317Y884000D02*
X1028683D01*
X1026140Y883318D01*
X1023860Y882002D01*
X1021998Y880140D01*
X1020682Y877860D01*
X1020000Y875316D01*
Y872683D01*
X1020682Y870140D01*
X1021998Y867860D01*
X1023860Y865998D01*
X1026140Y864681D01*
X1028683Y864000D01*
X1031317D01*
X1033860Y864681D01*
X1036140Y865998D01*
X1038002Y867860D01*
X1039318Y870140D01*
X1040000Y872683D01*
Y875316D01*
X1039318Y877860D01*
X1038002Y880140D01*
X1036140Y882002D01*
X1033860Y883318D01*
X1031317Y884000D01*
D02*
G37*
G36*
X1351094Y859500D02*
X1348906D01*
X1346884Y858663D01*
X1345337Y857115D01*
X1344500Y855094D01*
Y852906D01*
X1345337Y850884D01*
X1346884Y849337D01*
X1348906Y848500D01*
X1351094D01*
X1353116Y849337D01*
X1354663Y850884D01*
X1355500Y852906D01*
Y855094D01*
X1354663Y857115D01*
X1353116Y858663D01*
X1351094Y859500D01*
D02*
G37*
G36*
X1249584Y847643D02*
X1247395D01*
X1245374Y846806D01*
X1243827Y845259D01*
X1242990Y843237D01*
Y841049D01*
X1243827Y839028D01*
X1245374Y837481D01*
X1247395Y836643D01*
X1249584D01*
X1251605Y837481D01*
X1253152Y839028D01*
X1253989Y841049D01*
Y843237D01*
X1253152Y845259D01*
X1251605Y846806D01*
X1249584Y847643D01*
D02*
G37*
G36*
X1120846Y822500D02*
X1117554D01*
X1114375Y821648D01*
X1112291Y820445D01*
X1119200Y813536D01*
X1126109Y820445D01*
X1124025Y821648D01*
X1120846Y822500D01*
D02*
G37*
G36*
X1129645Y816909D02*
X1122736Y810000D01*
X1129645Y803091D01*
X1130848Y805175D01*
X1131700Y808354D01*
Y811646D01*
X1130848Y814825D01*
X1129645Y816909D01*
D02*
G37*
G36*
X1108755Y816909D02*
X1107552Y814825D01*
X1106700Y811646D01*
Y808354D01*
X1107552Y805175D01*
X1108755Y803091D01*
X1115665Y810000D01*
X1108755Y816909D01*
D02*
G37*
G36*
X1171251Y819500D02*
X1168749D01*
X1166333Y818853D01*
X1164167Y817602D01*
X1162398Y815833D01*
X1161147Y813667D01*
X1160500Y811251D01*
Y808749D01*
X1161147Y806333D01*
X1162398Y804167D01*
X1164167Y802398D01*
X1166333Y801147D01*
X1168749Y800500D01*
X1171251D01*
X1173667Y801147D01*
X1175833Y802398D01*
X1177602Y804167D01*
X1178853Y806333D01*
X1179500Y808749D01*
Y811251D01*
X1178853Y813667D01*
X1177602Y815833D01*
X1175833Y817602D01*
X1173667Y818853D01*
X1171251Y819500D01*
D02*
G37*
G36*
X1145851D02*
X1143349D01*
X1140933Y818853D01*
X1138767Y817602D01*
X1136998Y815833D01*
X1135747Y813667D01*
X1135100Y811251D01*
Y808749D01*
X1135747Y806333D01*
X1136998Y804167D01*
X1138767Y802398D01*
X1140933Y801147D01*
X1143349Y800500D01*
X1145851D01*
X1148267Y801147D01*
X1150433Y802398D01*
X1152202Y804167D01*
X1153453Y806333D01*
X1154100Y808749D01*
Y811251D01*
X1153453Y813667D01*
X1152202Y815833D01*
X1150433Y817602D01*
X1148267Y818853D01*
X1145851Y819500D01*
D02*
G37*
G36*
X1119200Y806464D02*
X1112291Y799555D01*
X1114375Y798352D01*
X1117554Y797500D01*
X1120846D01*
X1124025Y798352D01*
X1126109Y799555D01*
X1119200Y806464D01*
D02*
G37*
G36*
X1379516Y783981D02*
X1375535Y780000D01*
X1379516Y776019D01*
X1379921Y776719D01*
X1380500Y778881D01*
Y781119D01*
X1379921Y783281D01*
X1379516Y783981D01*
D02*
G37*
G36*
X1372000Y776464D02*
X1368019Y772484D01*
X1368719Y772079D01*
X1370881Y771500D01*
X1373119D01*
X1375281Y772079D01*
X1375981Y772484D01*
X1372000Y776464D01*
D02*
G37*
G36*
X1304148Y786000D02*
X1301252D01*
X1298454Y785250D01*
X1295946Y783802D01*
X1293898Y781754D01*
X1292450Y779246D01*
X1291700Y776448D01*
Y773552D01*
X1292450Y770754D01*
X1293898Y768246D01*
X1295946Y766198D01*
X1298454Y764750D01*
X1301252Y764000D01*
X1304148D01*
X1306946Y764750D01*
X1309454Y766198D01*
X1311502Y768246D01*
X1312950Y770754D01*
X1313700Y773552D01*
Y776448D01*
X1312950Y779246D01*
X1311502Y781754D01*
X1309454Y783802D01*
X1306946Y785250D01*
X1304148Y786000D01*
D02*
G37*
G36*
X1278748D02*
X1275852D01*
X1273054Y785250D01*
X1270546Y783802D01*
X1268498Y781754D01*
X1267050Y779246D01*
X1266300Y776448D01*
Y773552D01*
X1267050Y770754D01*
X1268498Y768246D01*
X1270546Y766198D01*
X1273054Y764750D01*
X1275852Y764000D01*
X1278748D01*
X1281546Y764750D01*
X1284054Y766198D01*
X1286102Y768246D01*
X1287550Y770754D01*
X1288300Y773552D01*
Y776448D01*
X1287550Y779246D01*
X1286102Y781754D01*
X1284054Y783802D01*
X1281546Y785250D01*
X1278748Y786000D01*
D02*
G37*
G36*
X1427912Y837000D02*
X1422088D01*
X1416336Y836089D01*
X1410797Y834289D01*
X1405608Y831645D01*
X1400896Y828222D01*
X1396778Y824104D01*
X1393355Y819392D01*
X1390711Y814203D01*
X1388911Y808664D01*
X1388000Y802912D01*
Y797088D01*
X1388911Y791336D01*
X1390711Y785797D01*
X1393355Y780608D01*
X1396778Y775896D01*
X1400896Y771778D01*
X1405608Y768355D01*
X1410797Y765711D01*
X1416336Y763911D01*
X1422088Y763000D01*
X1427912D01*
X1433664Y763911D01*
X1439203Y765711D01*
X1444392Y768355D01*
X1449104Y771778D01*
X1453222Y775896D01*
X1456645Y780608D01*
X1459289Y785797D01*
X1461089Y791336D01*
X1462000Y797088D01*
Y802912D01*
X1461089Y808664D01*
X1459289Y814203D01*
X1456645Y819392D01*
X1453222Y824104D01*
X1449104Y828222D01*
X1444392Y831645D01*
X1439203Y834289D01*
X1433664Y836089D01*
X1427912Y837000D01*
D02*
G37*
G36*
X927912D02*
X922088D01*
X916336Y836089D01*
X910797Y834289D01*
X905608Y831645D01*
X900896Y828222D01*
X896778Y824104D01*
X893355Y819392D01*
X890711Y814203D01*
X888911Y808664D01*
X888000Y802912D01*
Y797088D01*
X888911Y791336D01*
X890711Y785797D01*
X893355Y780608D01*
X896778Y775896D01*
X900896Y771778D01*
X905608Y768355D01*
X910797Y765711D01*
X916336Y763911D01*
X922088Y763000D01*
X927912D01*
X933664Y763911D01*
X939203Y765711D01*
X944392Y768355D01*
X949104Y771778D01*
X953222Y775896D01*
X956645Y780608D01*
X959289Y785797D01*
X961089Y791336D01*
X962000Y797088D01*
Y802912D01*
X961089Y808664D01*
X959289Y814203D01*
X956645Y819392D01*
X953222Y824104D01*
X949104Y828222D01*
X944392Y831645D01*
X939203Y834289D01*
X933664Y836089D01*
X927912Y837000D01*
D02*
G37*
G36*
X916119Y748500D02*
X913881D01*
X911719Y747921D01*
X911019Y747516D01*
X915000Y743536D01*
X918981Y747516D01*
X918281Y747921D01*
X916119Y748500D01*
D02*
G37*
G36*
X922516Y743981D02*
X918536Y740000D01*
X922516Y736019D01*
X922921Y736719D01*
X923500Y738881D01*
Y741119D01*
X922921Y743281D01*
X922516Y743981D01*
D02*
G37*
G36*
X1194483D02*
X1194079Y743281D01*
X1193500Y741119D01*
Y738881D01*
X1194079Y736719D01*
X1194483Y736019D01*
X1198465Y740000D01*
X1194483Y743981D01*
D02*
G37*
G36*
X907484D02*
X907079Y743281D01*
X906500Y741119D01*
Y738881D01*
X907079Y736719D01*
X907484Y736019D01*
X911464Y740000D01*
X907484Y743981D01*
D02*
G37*
G36*
X915000Y736464D02*
X911019Y732484D01*
X911719Y732079D01*
X913881Y731500D01*
X916119D01*
X918281Y732079D01*
X918981Y732484D01*
X915000Y736464D01*
D02*
G37*
G36*
X1143270Y738718D02*
X1141082D01*
X1139061Y737881D01*
X1138986Y737806D01*
X1108218D01*
X1106462Y737457D01*
X1104974Y736462D01*
X1064011Y695500D01*
X1063906D01*
X1061885Y694663D01*
X1060337Y693115D01*
X1059500Y691094D01*
Y688906D01*
X1060337Y686885D01*
X1061885Y685337D01*
X1063906Y684500D01*
X1066094D01*
X1068115Y685337D01*
X1069663Y686885D01*
X1070500Y688906D01*
Y689011D01*
X1110119Y728630D01*
X1138986D01*
X1139061Y728556D01*
X1141082Y727718D01*
X1143270D01*
X1145292Y728556D01*
X1146839Y730103D01*
X1147676Y732124D01*
Y734312D01*
X1146839Y736334D01*
X1145292Y737881D01*
X1143270Y738718D01*
D02*
G37*
G36*
X1237627Y738456D02*
X1235439D01*
X1233418Y737619D01*
X1231871Y736072D01*
X1231033Y734050D01*
Y731862D01*
X1231871Y729841D01*
X1233418Y728294D01*
X1235439Y727456D01*
X1237627D01*
X1239649Y728294D01*
X1241196Y729841D01*
X1242033Y731862D01*
Y734050D01*
X1241196Y736072D01*
X1239649Y737619D01*
X1237627Y738456D01*
D02*
G37*
G36*
X1056119Y726100D02*
X1053881D01*
X1051719Y725521D01*
X1051019Y725117D01*
X1055000Y721135D01*
X1058981Y725117D01*
X1058281Y725521D01*
X1056119Y726100D01*
D02*
G37*
G36*
X1062516Y721581D02*
X1058536Y717600D01*
X1062516Y713619D01*
X1062921Y714319D01*
X1063500Y716481D01*
Y718719D01*
X1062921Y720881D01*
X1062516Y721581D01*
D02*
G37*
G36*
X1047484D02*
X1047079Y720881D01*
X1046500Y718719D01*
Y716481D01*
X1047079Y714319D01*
X1047484Y713619D01*
X1051464Y717600D01*
X1047484Y721581D01*
D02*
G37*
G36*
X1001094Y720500D02*
X998906D01*
X996885Y719663D01*
X995337Y718115D01*
X994500Y716094D01*
Y713906D01*
X995337Y711885D01*
X996885Y710337D01*
X998906Y709500D01*
X1001094D01*
X1003115Y710337D01*
X1004663Y711885D01*
X1005500Y713906D01*
Y716094D01*
X1004663Y718115D01*
X1003115Y719663D01*
X1001094Y720500D01*
D02*
G37*
G36*
X1055000Y714064D02*
X1051019Y710083D01*
X1051719Y709679D01*
X1053881Y709100D01*
X1056119D01*
X1058281Y709679D01*
X1058981Y710083D01*
X1055000Y714064D01*
D02*
G37*
G36*
X1493020Y706088D02*
X1490832D01*
X1488810Y705251D01*
X1487263Y703704D01*
X1486426Y701682D01*
Y699494D01*
X1487263Y697473D01*
X1488810Y695926D01*
X1490832Y695088D01*
X1493020D01*
X1495041Y695926D01*
X1496588Y697473D01*
X1497426Y699494D01*
Y701682D01*
X1496588Y703704D01*
X1495041Y705251D01*
X1493020Y706088D01*
D02*
G37*
G36*
X1131094Y700500D02*
X1128906D01*
X1126885Y699663D01*
X1125337Y698115D01*
X1124500Y696094D01*
Y693906D01*
X1125337Y691885D01*
X1126885Y690337D01*
X1128906Y689500D01*
X1131094D01*
X1133115Y690337D01*
X1134663Y691885D01*
X1135500Y693906D01*
Y696094D01*
X1134663Y698115D01*
X1133115Y699663D01*
X1131094Y700500D01*
D02*
G37*
G36*
X1292513Y694841D02*
X1290325D01*
X1288304Y694004D01*
X1286757Y692457D01*
X1285919Y690435D01*
Y688247D01*
X1286757Y686226D01*
X1288304Y684678D01*
X1290325Y683841D01*
X1292513D01*
X1294535Y684678D01*
X1296082Y686226D01*
X1296919Y688247D01*
Y690435D01*
X1296082Y692457D01*
X1294535Y694004D01*
X1292513Y694841D01*
D02*
G37*
G36*
X1106395Y688097D02*
X1104207D01*
X1102186Y687260D01*
X1100638Y685713D01*
X1099801Y683691D01*
Y681503D01*
X1100638Y679482D01*
X1102186Y677934D01*
X1104207Y677097D01*
X1106395D01*
X1108417Y677934D01*
X1109964Y679482D01*
X1110801Y681503D01*
Y683691D01*
X1109964Y685713D01*
X1108417Y687260D01*
X1106395Y688097D01*
D02*
G37*
G36*
X1171094Y680500D02*
X1168906D01*
X1166885Y679663D01*
X1165337Y678115D01*
X1164500Y676094D01*
Y673906D01*
X1165337Y671885D01*
X1166885Y670337D01*
X1168906Y669500D01*
X1171094D01*
X1173115Y670337D01*
X1174663Y671885D01*
X1175500Y673906D01*
Y676094D01*
X1174663Y678115D01*
X1173115Y679663D01*
X1171094Y680500D01*
D02*
G37*
G36*
X1451094Y670500D02*
X1448906D01*
X1446884Y669663D01*
X1445337Y668115D01*
X1444500Y666094D01*
Y663906D01*
X1445337Y661885D01*
X1446884Y660337D01*
X1448906Y659500D01*
X1451094D01*
X1453116Y660337D01*
X1454663Y661885D01*
X1455500Y663906D01*
Y666094D01*
X1454663Y668115D01*
X1453116Y669663D01*
X1451094Y670500D01*
D02*
G37*
G36*
X926279Y653030D02*
X924041D01*
X921879Y652451D01*
X921179Y652046D01*
X925160Y648065D01*
X929141Y652046D01*
X928441Y652451D01*
X926279Y653030D01*
D02*
G37*
G36*
X1405000Y979588D02*
X1385000D01*
X1383244Y979239D01*
X1381756Y978244D01*
X1344690Y941179D01*
X1343696Y939690D01*
X1343347Y937935D01*
Y923355D01*
X1343272Y923281D01*
X1342435Y921259D01*
Y919071D01*
X1343272Y917050D01*
X1344819Y915502D01*
X1346841Y914665D01*
X1349029D01*
X1351050Y915502D01*
X1352597Y917050D01*
X1353435Y919071D01*
Y921259D01*
X1352597Y923281D01*
X1352523Y923355D01*
Y936034D01*
X1386900Y970412D01*
X1403100D01*
X1410412Y963100D01*
Y916900D01*
X1396756Y903244D01*
X1395761Y901756D01*
X1395412Y900000D01*
Y890000D01*
X1395761Y888244D01*
X1396756Y886756D01*
X1505412Y778100D01*
Y646900D01*
X1438100Y579588D01*
X1381900D01*
X1358244Y603244D01*
X1356756Y604239D01*
X1355000Y604588D01*
X1321900D01*
X1308244Y618244D01*
X1290500Y635989D01*
Y636094D01*
X1289663Y638116D01*
X1288116Y639663D01*
X1286094Y640500D01*
X1283906D01*
X1281884Y639663D01*
X1280337Y638116D01*
X1279500Y636094D01*
Y633906D01*
X1280337Y631884D01*
X1281884Y630337D01*
X1283906Y629500D01*
X1284011D01*
X1294297Y619214D01*
X1293968Y617988D01*
X1293719Y617921D01*
X1293019Y617517D01*
X1298768Y611768D01*
X1297000Y610000D01*
X1298768Y608232D01*
X1293019Y602483D01*
X1293719Y602079D01*
X1295881Y601500D01*
X1298119D01*
X1299142Y601774D01*
X1300412Y600799D01*
Y552848D01*
X1300168Y552652D01*
X1298465Y552914D01*
X1298244Y553244D01*
X1259588Y591900D01*
Y605838D01*
X1260858Y606364D01*
X1261885Y605337D01*
X1263906Y604500D01*
X1266094D01*
X1268115Y605337D01*
X1269663Y606884D01*
X1270500Y608906D01*
Y611094D01*
X1269663Y613116D01*
X1268115Y614663D01*
X1266094Y615500D01*
X1263906D01*
X1261885Y614663D01*
X1260858Y613636D01*
X1259588Y614162D01*
Y623100D01*
X1284412Y647924D01*
X1338054D01*
X1338128Y647849D01*
X1340150Y647012D01*
X1342338D01*
X1344359Y647849D01*
X1345906Y649396D01*
X1346744Y651418D01*
Y653606D01*
X1345906Y655627D01*
X1344359Y657175D01*
X1342338Y658012D01*
X1340150D01*
X1338128Y657175D01*
X1338054Y657100D01*
X1282512D01*
X1280756Y656751D01*
X1279268Y655756D01*
X1251756Y628244D01*
X1250761Y626756D01*
X1250412Y625000D01*
Y590000D01*
X1250761Y588244D01*
X1251756Y586756D01*
X1290412Y548100D01*
Y506900D01*
X1273100Y489588D01*
X1244162D01*
X1243636Y490858D01*
X1244663Y491884D01*
X1245500Y493906D01*
Y496094D01*
X1244663Y498116D01*
X1243115Y499663D01*
X1241094Y500500D01*
X1238906D01*
X1236885Y499663D01*
X1235337Y498116D01*
X1234500Y496094D01*
Y493906D01*
X1235337Y491884D01*
X1236364Y490858D01*
X1235838Y489588D01*
X1201900D01*
X1177456Y514033D01*
X1178236Y515049D01*
X1180368Y513818D01*
X1183420Y513000D01*
X1186580D01*
X1189632Y513818D01*
X1192368Y515398D01*
X1194602Y517632D01*
X1196182Y520368D01*
X1196843Y522833D01*
X1198157D01*
X1198818Y520368D01*
X1200398Y517632D01*
X1202632Y515398D01*
X1205368Y513818D01*
X1208420Y513000D01*
X1211580D01*
X1214632Y513818D01*
X1217368Y515398D01*
X1219602Y517632D01*
X1221182Y520368D01*
X1221843Y522833D01*
X1223157D01*
X1223818Y520368D01*
X1225398Y517632D01*
X1227632Y515398D01*
X1230368Y513818D01*
X1233420Y513000D01*
X1236580D01*
X1239632Y513818D01*
X1242368Y515398D01*
X1244602Y517632D01*
X1246182Y520368D01*
X1247000Y523420D01*
Y526580D01*
X1246182Y529632D01*
X1244602Y532368D01*
X1242368Y534602D01*
X1239632Y536182D01*
X1237167Y536843D01*
Y538157D01*
X1239632Y538818D01*
X1242368Y540398D01*
X1244602Y542632D01*
X1246182Y545368D01*
X1247000Y548420D01*
Y551580D01*
X1246182Y554632D01*
X1244602Y557368D01*
X1242368Y559602D01*
X1239632Y561182D01*
X1236580Y562000D01*
X1233420D01*
X1230368Y561182D01*
X1227632Y559602D01*
X1225398Y557368D01*
X1223818Y554632D01*
X1223157Y552167D01*
X1221843D01*
X1221182Y554632D01*
X1219602Y557368D01*
X1217368Y559602D01*
X1214632Y561182D01*
X1211580Y562000D01*
X1208420D01*
X1205368Y561182D01*
X1202632Y559602D01*
X1200398Y557368D01*
X1198818Y554632D01*
X1198157Y552167D01*
X1196843D01*
X1196182Y554632D01*
X1194602Y557368D01*
X1192368Y559602D01*
X1189632Y561182D01*
X1186580Y562000D01*
X1183420D01*
X1180368Y561182D01*
X1177632Y559602D01*
X1175398Y557368D01*
X1173818Y554632D01*
X1173157Y552167D01*
X1171843D01*
X1171182Y554632D01*
X1169602Y557368D01*
X1167368Y559602D01*
X1164632Y561182D01*
X1161580Y562000D01*
X1158420D01*
X1156842Y561577D01*
X1155944Y562475D01*
X1156000Y562686D01*
Y564924D01*
X1155421Y567086D01*
X1154302Y569024D01*
X1152719Y570607D01*
X1150781Y571726D01*
X1148619Y572305D01*
X1146381D01*
X1144219Y571726D01*
X1142281Y570607D01*
X1140698Y569024D01*
X1139579Y567086D01*
X1139000Y564924D01*
Y562686D01*
X1139056Y562475D01*
X1138158Y561577D01*
X1136580Y562000D01*
X1133420D01*
X1130368Y561182D01*
X1127632Y559602D01*
X1125398Y557368D01*
X1123818Y554632D01*
X1123157Y552167D01*
X1121843D01*
X1121182Y554632D01*
X1119602Y557368D01*
X1117368Y559602D01*
X1114632Y561182D01*
X1111580Y562000D01*
X1108420D01*
X1105368Y561182D01*
X1102632Y559602D01*
X1100398Y557368D01*
X1098818Y554632D01*
X1098157Y552167D01*
X1096843D01*
X1096182Y554632D01*
X1094602Y557368D01*
X1092368Y559602D01*
X1089632Y561182D01*
X1086580Y562000D01*
X1083420D01*
X1080368Y561182D01*
X1077632Y559602D01*
X1075398Y557368D01*
X1073818Y554632D01*
X1073270Y552588D01*
X1072000Y552755D01*
Y562000D01*
X1048000D01*
Y538000D01*
X1057245D01*
X1057412Y536730D01*
X1055368Y536182D01*
X1052632Y534602D01*
X1050398Y532368D01*
X1048818Y529632D01*
X1048000Y526580D01*
Y523420D01*
X1048818Y520368D01*
X1050049Y518236D01*
X1049033Y517456D01*
X1019588Y546900D01*
Y844516D01*
X1019239Y846272D01*
X1018244Y847760D01*
X962369Y903636D01*
Y903741D01*
X961531Y905763D01*
X959984Y907310D01*
X957963Y908147D01*
X955775D01*
X953753Y907310D01*
X952206Y905763D01*
X951369Y903741D01*
Y901553D01*
X952206Y899532D01*
X953753Y897985D01*
X955775Y897147D01*
X955880D01*
X1010412Y842615D01*
Y545000D01*
X1010761Y543244D01*
X1011756Y541756D01*
X1051756Y501756D01*
X1053244Y500761D01*
X1055000Y500412D01*
X1070000D01*
X1071756Y500761D01*
X1073244Y501756D01*
X1083370Y511881D01*
X1084117Y513000D01*
X1086580D01*
X1089632Y513818D01*
X1092368Y515398D01*
X1094602Y517632D01*
X1096182Y520368D01*
X1096843Y522833D01*
X1098157D01*
X1098818Y520368D01*
X1100398Y517632D01*
X1102632Y515398D01*
X1105368Y513818D01*
X1108420Y513000D01*
X1111580D01*
X1114632Y513818D01*
X1114671Y513840D01*
X1156756Y471756D01*
X1158244Y470761D01*
X1160000Y470412D01*
X1280000D01*
X1281756Y470761D01*
X1283244Y471756D01*
X1308244Y496756D01*
X1309239Y498244D01*
X1309588Y500000D01*
Y602264D01*
X1310762Y602750D01*
X1316756Y596756D01*
X1318244Y595761D01*
X1320000Y595412D01*
X1353100D01*
X1373820Y574692D01*
X1373356Y573359D01*
X1371719Y572921D01*
X1371019Y572517D01*
X1376768Y566768D01*
X1382516Y561019D01*
X1382921Y561719D01*
X1383500Y563881D01*
Y566119D01*
X1382921Y568281D01*
X1382424Y569142D01*
X1383157Y570412D01*
X1440000D01*
X1441756Y570761D01*
X1443244Y571756D01*
X1513244Y641756D01*
X1514239Y643244D01*
X1514588Y645000D01*
Y780000D01*
X1514239Y781756D01*
X1513244Y783244D01*
X1404588Y891900D01*
Y898100D01*
X1418244Y911756D01*
X1419239Y913244D01*
X1419588Y915000D01*
Y965000D01*
X1419239Y966756D01*
X1418244Y968244D01*
X1408244Y978244D01*
X1406756Y979239D01*
X1405000Y979588D01*
D02*
G37*
G36*
X932677Y648511D02*
X928696Y644530D01*
X932677Y640549D01*
X933081Y641249D01*
X933660Y643411D01*
Y645649D01*
X933081Y647811D01*
X932677Y648511D01*
D02*
G37*
G36*
X917644D02*
X917240Y647811D01*
X916660Y645649D01*
Y643411D01*
X917240Y641249D01*
X917644Y640549D01*
X921625Y644530D01*
X917644Y648511D01*
D02*
G37*
G36*
X925160Y640994D02*
X921179Y637013D01*
X921879Y636609D01*
X924041Y636030D01*
X926279D01*
X928441Y636609D01*
X929141Y637013D01*
X925160Y640994D01*
D02*
G37*
G36*
X1326688Y642957D02*
X1324500D01*
X1322478Y642120D01*
X1320931Y640573D01*
X1320094Y638551D01*
Y636363D01*
X1320931Y634342D01*
X1322478Y632794D01*
X1324500Y631957D01*
X1326688D01*
X1328709Y632794D01*
X1330256Y634342D01*
X1331094Y636363D01*
Y638551D01*
X1330256Y640573D01*
X1328709Y642120D01*
X1326688Y642957D01*
D02*
G37*
G36*
X869543Y634000D02*
X865857D01*
X862296Y633046D01*
X859693Y631543D01*
X867700Y623535D01*
X875707Y631543D01*
X873104Y633046D01*
X869543Y634000D01*
D02*
G37*
G36*
X1391448Y643700D02*
X1388552D01*
X1385754Y642950D01*
X1383246Y641502D01*
X1381198Y639454D01*
X1379750Y636946D01*
X1379000Y634148D01*
Y631252D01*
X1379750Y628454D01*
X1381198Y625946D01*
X1383246Y623898D01*
X1385754Y622450D01*
X1388552Y621700D01*
X1391448D01*
X1394246Y622450D01*
X1396754Y623898D01*
X1398802Y625946D01*
X1400250Y628454D01*
X1401000Y631252D01*
Y634148D01*
X1400250Y636946D01*
X1398802Y639454D01*
X1396754Y641502D01*
X1394246Y642950D01*
X1391448Y643700D01*
D02*
G37*
G36*
X1171094Y625500D02*
X1168906D01*
X1166885Y624663D01*
X1165337Y623116D01*
X1164500Y621094D01*
Y618906D01*
X1165337Y616884D01*
X1166885Y615337D01*
X1168906Y614500D01*
X1171094D01*
X1173115Y615337D01*
X1174663Y616884D01*
X1175500Y618906D01*
Y621094D01*
X1174663Y623116D01*
X1173115Y624663D01*
X1171094Y625500D01*
D02*
G37*
G36*
X1116094D02*
X1113906D01*
X1111885Y624663D01*
X1110337Y623116D01*
X1109500Y621094D01*
Y618906D01*
X1110337Y616884D01*
X1111885Y615337D01*
X1113906Y614500D01*
X1116094D01*
X1118115Y615337D01*
X1119663Y616884D01*
X1120500Y618906D01*
Y621094D01*
X1119663Y623116D01*
X1118115Y624663D01*
X1116094Y625500D01*
D02*
G37*
G36*
X1091094D02*
X1088906D01*
X1086885Y624663D01*
X1085337Y623116D01*
X1084500Y621094D01*
Y618906D01*
X1085337Y616884D01*
X1086885Y615337D01*
X1088906Y614500D01*
X1091094D01*
X1093115Y615337D01*
X1094663Y616884D01*
X1095500Y618906D01*
Y621094D01*
X1094663Y623116D01*
X1093115Y624663D01*
X1091094Y625500D01*
D02*
G37*
G36*
X971094Y940500D02*
X968906D01*
X966885Y939663D01*
X965337Y938115D01*
X964500Y936094D01*
Y933906D01*
X965337Y931885D01*
X965412Y931810D01*
Y905000D01*
X965761Y903244D01*
X966756Y901756D01*
X1030412Y838100D01*
Y650000D01*
X1030761Y648244D01*
X1031756Y646756D01*
X1059500Y619011D01*
Y618906D01*
X1060337Y616884D01*
X1061885Y615337D01*
X1063906Y614500D01*
X1066094D01*
X1068115Y615337D01*
X1069663Y616884D01*
X1070500Y618906D01*
Y621094D01*
X1069663Y623116D01*
X1068115Y624663D01*
X1066094Y625500D01*
X1065989D01*
X1039588Y651900D01*
Y840000D01*
X1039239Y841756D01*
X1038244Y843244D01*
X974588Y906900D01*
Y931810D01*
X974663Y931885D01*
X975500Y933906D01*
Y936094D01*
X974663Y938115D01*
X973115Y939663D01*
X971094Y940500D01*
D02*
G37*
G36*
X843748Y631000D02*
X840852D01*
X838054Y630250D01*
X835546Y628802D01*
X833498Y626754D01*
X832050Y624246D01*
X831300Y621448D01*
Y618552D01*
X832050Y615754D01*
X833498Y613246D01*
X835546Y611198D01*
X838054Y609750D01*
X840852Y609000D01*
X843748D01*
X846546Y609750D01*
X849054Y611198D01*
X851102Y613246D01*
X852550Y615754D01*
X852790Y616647D01*
X854105D01*
X854654Y614596D01*
X856157Y611993D01*
X864164Y620000D01*
X856157Y628007D01*
X854654Y625404D01*
X854105Y623353D01*
X852790D01*
X852550Y624246D01*
X851102Y626754D01*
X849054Y628802D01*
X846546Y630250D01*
X843748Y631000D01*
D02*
G37*
G36*
X879243Y628007D02*
X871236Y620000D01*
X879243Y611993D01*
X880746Y614596D01*
X881700Y618157D01*
Y621843D01*
X880746Y625404D01*
X879243Y628007D01*
D02*
G37*
G36*
X1289483Y613981D02*
X1289079Y613281D01*
X1288500Y611119D01*
Y608881D01*
X1289079Y606719D01*
X1289483Y606019D01*
X1293465Y610000D01*
X1289483Y613981D01*
D02*
G37*
G36*
X867700Y616464D02*
X859693Y608457D01*
X862296Y606954D01*
X865857Y606000D01*
X869543D01*
X873104Y606954D01*
X875707Y608457D01*
X867700Y616464D01*
D02*
G37*
G36*
X963094Y607800D02*
X960906D01*
X958885Y606963D01*
X957337Y605415D01*
X956500Y603394D01*
Y601206D01*
X957337Y599184D01*
X958885Y597637D01*
X960906Y596800D01*
X963094D01*
X965116Y597637D01*
X966663Y599184D01*
X967500Y601206D01*
Y603394D01*
X966663Y605415D01*
X965116Y606963D01*
X963094Y607800D01*
D02*
G37*
G36*
X1391448Y618300D02*
X1388552D01*
X1385754Y617550D01*
X1383246Y616102D01*
X1381198Y614054D01*
X1379750Y611546D01*
X1379000Y608748D01*
Y605852D01*
X1379750Y603054D01*
X1381198Y600546D01*
X1383246Y598498D01*
X1385754Y597050D01*
X1388552Y596300D01*
X1391448D01*
X1394246Y597050D01*
X1396754Y598498D01*
X1398802Y600546D01*
X1400250Y603054D01*
X1401000Y605852D01*
Y608748D01*
X1400250Y611546D01*
X1398802Y614054D01*
X1396754Y616102D01*
X1394246Y617550D01*
X1391448Y618300D01*
D02*
G37*
G36*
X932614Y594572D02*
X930376D01*
X928214Y593993D01*
X927514Y593588D01*
X931495Y589607D01*
X935476Y593588D01*
X934776Y593993D01*
X932614Y594572D01*
D02*
G37*
G36*
X939012Y590053D02*
X935031Y586072D01*
X939012Y582091D01*
X939416Y582791D01*
X939995Y584953D01*
Y587191D01*
X939416Y589353D01*
X939012Y590053D01*
D02*
G37*
G36*
X923979D02*
X923575Y589353D01*
X922995Y587191D01*
Y584953D01*
X923575Y582791D01*
X923979Y582091D01*
X927960Y586072D01*
X923979Y590053D01*
D02*
G37*
G36*
X931495Y582536D02*
X927514Y578555D01*
X928214Y578151D01*
X930376Y577572D01*
X932614D01*
X934776Y578151D01*
X935476Y578555D01*
X931495Y582536D01*
D02*
G37*
G36*
X1361094Y570500D02*
X1358906D01*
X1356884Y569663D01*
X1355337Y568116D01*
X1354500Y566094D01*
Y563906D01*
X1355337Y561884D01*
X1356884Y560337D01*
X1358906Y559500D01*
X1361094D01*
X1363116Y560337D01*
X1364663Y561884D01*
X1365305Y563435D01*
X1366643Y563347D01*
X1367079Y561719D01*
X1367484Y561019D01*
X1371465Y565000D01*
X1367484Y568981D01*
X1367079Y568281D01*
X1366643Y566653D01*
X1365305Y566565D01*
X1364663Y568116D01*
X1363116Y569663D01*
X1361094Y570500D01*
D02*
G37*
G36*
X1375000Y561465D02*
X1371019Y557483D01*
X1371719Y557079D01*
X1373881Y556500D01*
X1376119D01*
X1378281Y557079D01*
X1378981Y557483D01*
X1375000Y561465D01*
D02*
G37*
G36*
X1031094Y560500D02*
X1028906D01*
X1026885Y559663D01*
X1025337Y558116D01*
X1024500Y556094D01*
Y553906D01*
X1025337Y551884D01*
X1026885Y550337D01*
X1028906Y549500D01*
X1031094D01*
X1033115Y550337D01*
X1034663Y551884D01*
X1035500Y553906D01*
Y556094D01*
X1034663Y558116D01*
X1033115Y559663D01*
X1031094Y560500D01*
D02*
G37*
G36*
X1280175Y541242D02*
X1277987D01*
X1275965Y540405D01*
X1274418Y538858D01*
X1273581Y536836D01*
Y534648D01*
X1274418Y532627D01*
X1275965Y531080D01*
X1277987Y530242D01*
X1280175D01*
X1282197Y531080D01*
X1283744Y532627D01*
X1284581Y534648D01*
Y536836D01*
X1283744Y538858D01*
X1282197Y540405D01*
X1280175Y541242D01*
D02*
G37*
G36*
X837051Y548250D02*
X834549D01*
X832133Y547603D01*
X829967Y546352D01*
X828198Y544583D01*
X826947Y542417D01*
X826300Y540001D01*
Y537499D01*
X826947Y535083D01*
X828198Y532917D01*
X829967Y531148D01*
X832133Y529897D01*
X834549Y529250D01*
X837051D01*
X839467Y529897D01*
X841633Y531148D01*
X843402Y532917D01*
X844653Y535083D01*
X845300Y537499D01*
Y540001D01*
X844653Y542417D01*
X843402Y544583D01*
X841633Y546352D01*
X839467Y547603D01*
X837051Y548250D01*
D02*
G37*
G36*
X864950Y548363D02*
X857450D01*
X855207Y547916D01*
X853305Y546646D01*
X852034Y544743D01*
X851587Y542500D01*
Y535000D01*
X852034Y532757D01*
X853305Y530854D01*
X855207Y529584D01*
X857450Y529137D01*
X864950D01*
X867194Y529584D01*
X869096Y530854D01*
X870366Y532757D01*
X870813Y535000D01*
Y542500D01*
X870366Y544743D01*
X869096Y546646D01*
X867194Y547916D01*
X864950Y548363D01*
D02*
G37*
G36*
X1427912Y552000D02*
X1422088D01*
X1416336Y551089D01*
X1410797Y549289D01*
X1405608Y546645D01*
X1400896Y543222D01*
X1396778Y539104D01*
X1393355Y534392D01*
X1390711Y529203D01*
X1388911Y523664D01*
X1388000Y517912D01*
Y512088D01*
X1388911Y506336D01*
X1390711Y500797D01*
X1393355Y495608D01*
X1396778Y490896D01*
X1400896Y486778D01*
X1405608Y483355D01*
X1410797Y480711D01*
X1416336Y478911D01*
X1422088Y478000D01*
X1427912D01*
X1433664Y478911D01*
X1439203Y480711D01*
X1444392Y483355D01*
X1449104Y486778D01*
X1453222Y490896D01*
X1456645Y495608D01*
X1459289Y500797D01*
X1461089Y506336D01*
X1462000Y512088D01*
Y517912D01*
X1461089Y523664D01*
X1459289Y529203D01*
X1456645Y534392D01*
X1453222Y539104D01*
X1449104Y543222D01*
X1444392Y546645D01*
X1439203Y549289D01*
X1433664Y551089D01*
X1427912Y552000D01*
D02*
G37*
G36*
X927912D02*
X922088D01*
X916336Y551089D01*
X910797Y549289D01*
X905608Y546645D01*
X900896Y543222D01*
X896778Y539104D01*
X893355Y534392D01*
X890711Y529203D01*
X888911Y523664D01*
X888000Y517912D01*
Y512088D01*
X888911Y506336D01*
X890711Y500797D01*
X893355Y495608D01*
X896778Y490896D01*
X900896Y486778D01*
X905608Y483355D01*
X910797Y480711D01*
X916336Y478911D01*
X922088Y478000D01*
X927912D01*
X933664Y478911D01*
X939203Y480711D01*
X944392Y483355D01*
X949104Y486778D01*
X953222Y490896D01*
X956645Y495608D01*
X959289Y500797D01*
X961089Y506336D01*
X962000Y512088D01*
Y517912D01*
X961089Y523664D01*
X959289Y529203D01*
X956645Y534392D01*
X953222Y539104D01*
X949104Y543222D01*
X944392Y546645D01*
X939203Y549289D01*
X933664Y551089D01*
X927912Y552000D01*
D02*
G37*
%LPD*%
G36*
X1370412Y802152D02*
Y796900D01*
X1313100Y739588D01*
X1307848D01*
X1307652Y739833D01*
X1307914Y741535D01*
X1308244Y741756D01*
X1368244Y801756D01*
X1368465Y802086D01*
X1370167Y802348D01*
X1370412Y802152D01*
D02*
G37*
G36*
X1148818Y520368D02*
X1150398Y517632D01*
X1152632Y515398D01*
X1155368Y513818D01*
X1158420Y513000D01*
X1161580D01*
X1164632Y513818D01*
X1164671Y513840D01*
X1196756Y481756D01*
X1197086Y481535D01*
X1197348Y479832D01*
X1197152Y479588D01*
X1161900D01*
X1127456Y514033D01*
X1128236Y515049D01*
X1130368Y513818D01*
X1133420Y513000D01*
X1136580D01*
X1139632Y513818D01*
X1142368Y515398D01*
X1144602Y517632D01*
X1146182Y520368D01*
X1146843Y522833D01*
X1148157D01*
X1148818Y520368D01*
D02*
G37*
D68*
X1035000Y650000D02*
Y840000D01*
X970000Y905000D02*
X1035000Y840000D01*
X970000Y905000D02*
Y935000D01*
X1015000Y545000D02*
X1055000Y505000D01*
X956869Y902647D02*
X1015000Y844516D01*
Y545000D02*
Y844516D01*
X1400000Y890000D02*
X1510000Y780000D01*
X1440000Y575000D02*
X1510000Y645000D01*
Y780000D01*
X1385000Y975000D02*
X1405000D01*
X1415000Y965000D01*
X1347935Y937935D02*
X1385000Y975000D01*
X1305000Y615000D02*
X1320000Y600000D01*
X1285000Y635000D02*
X1305000Y615000D01*
X1347935Y920165D02*
Y937935D01*
X1400000Y900000D02*
X1415000Y915000D01*
Y965000D01*
X1400000Y890000D02*
Y900000D01*
X1355000Y600000D02*
X1380000Y575000D01*
X1440000D01*
X1320000Y600000D02*
X1355000D01*
X1080126Y516067D02*
X1085000Y520941D01*
X1055000Y505000D02*
X1070000D01*
X1085000Y520941D02*
Y525000D01*
X1080126Y515126D02*
Y516067D01*
X1070000Y505000D02*
X1080126Y515126D01*
X1110000Y525000D02*
X1160000Y475000D01*
X1280000D01*
X1305000Y500000D01*
X1160000Y525000D02*
X1200000Y485000D01*
X1275000D01*
X1295000Y505000D01*
X1035000Y650000D02*
X1065000Y620000D01*
X1295000Y505000D02*
Y550000D01*
X1255000Y590000D02*
X1295000Y550000D01*
X1255000Y590000D02*
Y625000D01*
X1282512Y652512D02*
X1341244D01*
X1255000Y625000D02*
X1282512Y652512D01*
X1305000Y500000D02*
Y615000D01*
X1226824Y683176D02*
X1244014D01*
X1210000Y700000D02*
X1226824Y683176D01*
X1210000Y760000D02*
X1315000Y865000D01*
Y970000D01*
X1210000Y700000D02*
Y760000D01*
X1347367Y957717D02*
X1347750Y958100D01*
X1337717Y957717D02*
X1347367D01*
X1330000Y950000D02*
X1337717Y957717D01*
X1330000Y870000D02*
Y950000D01*
X1220000Y760000D02*
X1330000Y870000D01*
X1220000Y705000D02*
Y760000D01*
Y705000D02*
X1229617Y695383D01*
X1239617D02*
X1240000Y695000D01*
X1229617Y695383D02*
X1239617D01*
X1375000Y930000D02*
X1389617Y944617D01*
X1399617D01*
X1400000Y945000D01*
X1393252Y958252D02*
X1397102D01*
X1365000Y930000D02*
X1393252Y958252D01*
X1365000Y805000D02*
Y930000D01*
X1305000Y745000D02*
X1365000Y805000D01*
X1265000Y745000D02*
X1305000D01*
X1239519Y719519D02*
X1265000Y745000D01*
X1239519Y708074D02*
Y719519D01*
X1265000Y725000D02*
X1275000Y735000D01*
X1315000D01*
X1375000Y795000D02*
Y930000D01*
X1315000Y735000D02*
X1375000Y795000D01*
X1108218Y733218D02*
X1142176D01*
X1065000Y690000D02*
X1108218Y733218D01*
D71*
X867700Y620000D02*
D03*
X842300D02*
D03*
X1277300Y775000D02*
D03*
X1302700D02*
D03*
X1390000Y632700D02*
D03*
Y607300D02*
D03*
D72*
X861200Y538750D02*
D03*
D73*
X708800D02*
D03*
X835800D02*
D03*
X759600D02*
D03*
X1144600Y810000D02*
D03*
X1119200D02*
D03*
X1170000D02*
D03*
X589000Y540500D02*
D03*
X589000Y631500D02*
D03*
X550100Y952550D02*
D03*
X641100Y952550D02*
D03*
D74*
X925000Y515000D02*
D03*
X1425000D02*
D03*
Y800000D02*
D03*
X925000D02*
D03*
D75*
X1235000Y525000D02*
D03*
X1210000Y550000D02*
D03*
Y525000D02*
D03*
X1185000Y550000D02*
D03*
Y525000D02*
D03*
X1160000Y550000D02*
D03*
Y525000D02*
D03*
X1135000Y550000D02*
D03*
X1060000Y525000D02*
D03*
X1085000D02*
D03*
Y550000D02*
D03*
X1110000D02*
D03*
X1235000D02*
D03*
X1135000Y525000D02*
D03*
X1110000D02*
D03*
X570000Y570000D02*
D03*
Y600000D02*
D03*
X579600Y971550D02*
D03*
X609600D02*
D03*
D76*
X1060000Y550000D02*
D03*
D77*
X1147500Y563805D02*
D03*
D78*
X1284000Y925000D02*
D03*
X1030000Y976000D02*
D03*
Y874000D02*
D03*
D79*
X776000Y925000D02*
D03*
D80*
X652740Y775000D02*
D03*
D81*
Y749600D02*
D03*
Y724200D02*
D03*
D82*
X750000Y800000D02*
D03*
X925000Y542500D02*
D03*
X945000Y535000D02*
D03*
X952500Y515000D02*
D03*
X945000Y495000D02*
D03*
X925000Y487500D02*
D03*
X905000Y495000D02*
D03*
X897500Y515000D02*
D03*
X905000Y535000D02*
D03*
X1170000Y675000D02*
D03*
X1030000Y555000D02*
D03*
X970000Y935000D02*
D03*
X1405000Y535000D02*
D03*
X1397500Y515000D02*
D03*
X1405000Y495000D02*
D03*
X1425000Y487500D02*
D03*
X1445000Y495000D02*
D03*
X1452500Y515000D02*
D03*
X1445000Y535000D02*
D03*
X1425000Y542500D02*
D03*
X1291419Y689341D02*
D03*
X915000Y740000D02*
D03*
X925160Y644530D02*
D03*
X940000Y985000D02*
D03*
X1295000D02*
D03*
X1500000Y955000D02*
D03*
X1375000Y565000D02*
D03*
X1372000Y780000D02*
D03*
X1297000Y610000D02*
D03*
X1202000Y740000D02*
D03*
X1055000Y717600D02*
D03*
X931495Y586072D02*
D03*
X1279081Y535742D02*
D03*
X1265000Y610000D02*
D03*
X1055891Y930347D02*
D03*
X1120000Y895000D02*
D03*
X1347935Y920165D02*
D03*
X1360000Y565000D02*
D03*
X1350000Y854000D02*
D03*
X962000Y602300D02*
D03*
X1122302Y945858D02*
D03*
X956869Y902647D02*
D03*
X1341244Y652512D02*
D03*
X1285000Y635000D02*
D03*
X1244014Y683176D02*
D03*
X1315000Y970000D02*
D03*
X1347750Y958100D02*
D03*
X1240000Y695000D02*
D03*
X1400000Y945000D02*
D03*
X1397102Y958252D02*
D03*
X1265000Y725000D02*
D03*
X1239519Y708074D02*
D03*
X1236533Y732956D02*
D03*
X1105301Y682597D02*
D03*
X1142176Y733218D02*
D03*
X1065000Y690000D02*
D03*
X1130000Y695000D02*
D03*
X1070517Y920166D02*
D03*
X1213215Y908033D02*
D03*
X1122725Y919909D02*
D03*
X1212000Y945400D02*
D03*
X1000000Y715000D02*
D03*
X1491926Y700588D02*
D03*
X1240000Y495000D02*
D03*
X1450000Y665000D02*
D03*
X1325594Y637457D02*
D03*
X1248490Y842143D02*
D03*
X1200000Y930000D02*
D03*
X1170000Y620000D02*
D03*
X1115000D02*
D03*
X1090000D02*
D03*
X1065000D02*
D03*
X575000Y800000D02*
D03*
X1425000Y827500D02*
D03*
X1445000Y820000D02*
D03*
X1452500Y800000D02*
D03*
X1445000Y780000D02*
D03*
X1425000Y772500D02*
D03*
X1405000Y780000D02*
D03*
X1397500Y800000D02*
D03*
X1405000Y820000D02*
D03*
X905000D02*
D03*
X897500Y800000D02*
D03*
X905000Y780000D02*
D03*
X925000Y772500D02*
D03*
X945000Y780000D02*
D03*
X952500Y800000D02*
D03*
X945000Y820000D02*
D03*
X925000Y827500D02*
D03*
M02*
