G04*
G04 #@! TF.GenerationSoftware,Altium Limited,Altium Designer,22.11.1 (43)*
G04*
G04 Layer_Color=32768*
%FSLAX44Y44*%
%MOMM*%
G71*
G04*
G04 #@! TF.SameCoordinates,71FBA96F-98A1-49F9-A78B-1FB66A7A07A6*
G04*
G04*
G04 #@! TF.FilePolarity,Positive*
G04*
G01*
G75*
%ADD13C,0.1000*%
%ADD14C,0.2000*%
%ADD15C,0.2540*%
%ADD94C,0.0500*%
%ADD95R,0.8070X6.0000*%
D13*
X576570Y214600D02*
Y284600D01*
X636570Y244600D02*
Y254600D01*
X631570Y249600D02*
X641570D01*
X576570Y284600D02*
X699070D01*
X576570Y214600D02*
X699070D01*
Y284600D01*
X576320Y55000D02*
Y125000D01*
X636320Y85000D02*
Y95000D01*
X631320Y90000D02*
X641320D01*
X576320Y125000D02*
X698820D01*
X576320Y55000D02*
X698820D01*
Y125000D01*
X562500Y117500D02*
Y127500D01*
X557500Y122500D02*
X567500D01*
X590000Y295750D02*
Y305750D01*
X585000Y300750D02*
X595000D01*
X485000Y513000D02*
Y517000D01*
X483000Y515000D02*
X487000D01*
X485000Y495500D02*
Y499500D01*
X483000Y497500D02*
X487000D01*
X495000Y87500D02*
X505000D01*
X500000Y82500D02*
Y92500D01*
X453000Y82500D02*
X457000D01*
X455000Y80500D02*
Y84500D01*
X745000Y130000D02*
X755000D01*
X750000Y125000D02*
Y135000D01*
X450000Y255000D02*
Y265000D01*
X445000Y260000D02*
X455000D01*
X240000Y125000D02*
Y135000D01*
X235000Y130000D02*
X245000D01*
X453000Y50000D02*
X457000D01*
X455000Y48000D02*
Y52000D01*
X380000Y125000D02*
Y135000D01*
X375000Y130000D02*
X385000D01*
X648000Y360000D02*
X652000D01*
X650000Y358000D02*
Y362000D01*
X628000Y360000D02*
X632000D01*
X630000Y358000D02*
Y362000D01*
X774500Y345500D02*
Y355500D01*
X769500Y350500D02*
X779500D01*
X845000Y415000D02*
Y425000D01*
X840000Y420000D02*
X850000D01*
X731500Y486500D02*
X759500D01*
X731500Y504500D02*
X759500D01*
Y486500D02*
Y504500D01*
X731500Y486500D02*
Y504500D01*
X745500Y490500D02*
Y500500D01*
X740500Y495500D02*
X750500D01*
X744500Y455500D02*
Y465500D01*
X739500Y460500D02*
X749500D01*
X734500Y380250D02*
X794500D01*
X734500Y440250D02*
X794500D01*
Y380250D02*
Y440250D01*
X734500Y380250D02*
Y440250D01*
X764500Y405250D02*
Y415250D01*
X759500Y410250D02*
X769500D01*
X699500Y420500D02*
X709500D01*
X704500Y415500D02*
Y425500D01*
X545000Y500000D02*
X555000D01*
X550000Y495000D02*
Y505000D01*
X520000Y495000D02*
Y505000D01*
X515000Y500000D02*
X525000D01*
X476250Y434250D02*
X480250D01*
X478250Y432250D02*
Y436250D01*
X476250Y414250D02*
X480250D01*
X478250Y412250D02*
Y416250D01*
Y349250D02*
Y359250D01*
X473250Y354250D02*
X483250D01*
X520000Y35000D02*
Y45000D01*
X515000Y40000D02*
X525000D01*
X750000Y285000D02*
Y295000D01*
X745000Y290000D02*
X755000D01*
X110268Y45000D02*
Y55000D01*
X105268Y50000D02*
X115268D01*
X528000Y260000D02*
X532000D01*
X530000Y258000D02*
Y262000D01*
X508000Y260000D02*
X512000D01*
X510000Y258000D02*
Y262000D01*
X528000Y180000D02*
X532000D01*
X530000Y178000D02*
Y182000D01*
X508000Y180000D02*
X512000D01*
X510000Y178000D02*
Y182000D01*
X450000Y175000D02*
Y185000D01*
X445000Y180000D02*
X455000D01*
X376900Y257000D02*
X386900D01*
X381900Y252000D02*
Y262000D01*
X376900Y347000D02*
X386900D01*
X381900Y342000D02*
Y352000D01*
Y214000D02*
Y220000D01*
X378900Y217000D02*
X384900D01*
X379900Y307000D02*
X383900D01*
X381900Y305000D02*
Y309000D01*
X515000Y20000D02*
X525000D01*
X520000Y15000D02*
Y25000D01*
X477000Y30000D02*
X483000D01*
X480000Y27000D02*
Y33000D01*
X570000Y355000D02*
Y365000D01*
X565000Y360000D02*
X575000D01*
X432000Y95000D02*
X448000D01*
X432000Y125000D02*
X448000D01*
Y95000D02*
Y125000D01*
X432000Y95000D02*
Y125000D01*
X435000Y110000D02*
X445000D01*
X440000Y105000D02*
Y115000D01*
X880000Y95750D02*
Y105750D01*
X875000Y100750D02*
X885000D01*
X860000Y95750D02*
Y105750D01*
X855000Y100750D02*
X865000D01*
X840000Y95000D02*
Y105000D01*
X835000Y100000D02*
X845000D01*
X820000Y95000D02*
Y105000D01*
X815000Y100000D02*
X825000D01*
X840000Y135000D02*
Y145000D01*
X835000Y140000D02*
X845000D01*
X820000Y135000D02*
Y145000D01*
X815000Y140000D02*
X825000D01*
X860000Y135000D02*
Y145000D01*
X855000Y140000D02*
X865000D01*
X880000Y135000D02*
Y145000D01*
X875000Y140000D02*
X885000D01*
X745000Y50000D02*
X755000D01*
X750000Y45000D02*
Y55000D01*
X745000Y210000D02*
X755000D01*
X750000Y205000D02*
Y215000D01*
X150000Y365000D02*
Y375000D01*
X145000Y370000D02*
X155000D01*
X379998Y428000D02*
Y432000D01*
X377998Y430000D02*
X381998D01*
X404998Y428000D02*
Y432000D01*
X402998Y430000D02*
X406998D01*
X429998Y428000D02*
Y432000D01*
X427998Y430000D02*
X431998D01*
X62300Y370000D02*
X72300D01*
X67300Y365000D02*
Y375000D01*
X586735Y231766D02*
Y236431D01*
X585569Y237598D01*
X583237D01*
X582070Y236431D01*
Y231766D01*
X583237Y230600D01*
X585569D01*
X584403Y232932D02*
X586735Y230600D01*
X585569D02*
X586735Y231766D01*
X589068Y236431D02*
X590234Y237598D01*
X592567D01*
X593733Y236431D01*
Y235265D01*
X592567Y234099D01*
X593733Y232932D01*
Y231766D01*
X592567Y230600D01*
X590234D01*
X589068Y231766D01*
Y232932D01*
X590234Y234099D01*
X589068Y235265D01*
Y236431D01*
X590234Y234099D02*
X592567D01*
X596066Y236431D02*
X597232Y237598D01*
X599565D01*
X600731Y236431D01*
Y231766D01*
X599565Y230600D01*
X597232D01*
X596066Y231766D01*
Y236431D01*
X603063Y230600D02*
X605396D01*
X604230D01*
Y237598D01*
X603063Y236431D01*
X586485Y72166D02*
Y76831D01*
X585319Y77998D01*
X582986D01*
X581820Y76831D01*
Y72166D01*
X582986Y71000D01*
X585319D01*
X584153Y73333D02*
X586485Y71000D01*
X585319D02*
X586485Y72166D01*
X588818Y71000D02*
X591150D01*
X589984D01*
Y77998D01*
X588818Y76831D01*
X594649D02*
X595816Y77998D01*
X598148D01*
X599314Y76831D01*
Y72166D01*
X598148Y71000D01*
X595816D01*
X594649Y72166D01*
Y76831D01*
X601647D02*
X602813Y77998D01*
X605146D01*
X606312Y76831D01*
Y72166D01*
X605146Y71000D01*
X602813D01*
X601647Y72166D01*
Y76831D01*
X608645Y71000D02*
X610977D01*
X609811D01*
Y77998D01*
X608645Y76831D01*
X554000Y139000D02*
X560998D01*
Y135501D01*
X559831Y134335D01*
X557499D01*
X556333Y135501D01*
Y139000D01*
Y136667D02*
X554000Y134335D01*
Y132002D02*
Y129670D01*
Y130836D01*
X560998D01*
X559831Y132002D01*
Y126171D02*
X560998Y125005D01*
Y122672D01*
X559831Y121506D01*
X555166D01*
X554000Y122672D01*
Y125005D01*
X555166Y126171D01*
X559831D01*
Y119173D02*
X560998Y118007D01*
Y115674D01*
X559831Y114508D01*
X555166D01*
X554000Y115674D01*
Y118007D01*
X555166Y119173D01*
X559831D01*
X554000Y108676D02*
X560998D01*
X557499Y112175D01*
Y107510D01*
X581500Y317250D02*
X588498D01*
Y313751D01*
X587331Y312585D01*
X584999D01*
X583833Y313751D01*
Y317250D01*
Y314917D02*
X581500Y312585D01*
X587331Y310252D02*
X588498Y309086D01*
Y306753D01*
X587331Y305587D01*
X586165D01*
X584999Y306753D01*
X583833Y305587D01*
X582666D01*
X581500Y306753D01*
Y309086D01*
X582666Y310252D01*
X583833D01*
X584999Y309086D01*
X586165Y310252D01*
X587331D01*
X584999Y309086D02*
Y306753D01*
X587331Y303255D02*
X588498Y302088D01*
Y299756D01*
X587331Y298589D01*
X582666D01*
X581500Y299756D01*
Y302088D01*
X582666Y303255D01*
X587331D01*
X581500Y292758D02*
X588498D01*
X584999Y296257D01*
Y291591D01*
X240748Y451250D02*
X233750D01*
Y447751D01*
X234916Y446585D01*
X239582D01*
X240748Y447751D01*
Y451250D01*
X239582Y439587D02*
X240748Y440753D01*
Y443086D01*
X239582Y444252D01*
X234916D01*
X233750Y443086D01*
Y440753D01*
X234916Y439587D01*
X240748Y437254D02*
X233750D01*
Y433756D01*
X234916Y432589D01*
X239582D01*
X240748Y433756D01*
Y437254D01*
X239582Y425592D02*
X240748Y426758D01*
Y429090D01*
X239582Y430257D01*
X234916D01*
X233750Y429090D01*
Y426758D01*
X234916Y425592D01*
Y423259D02*
X233750Y422093D01*
Y419760D01*
X234916Y418594D01*
X239582D01*
X240748Y419760D01*
Y422093D01*
X239582Y423259D01*
X238415D01*
X237249Y422093D01*
Y418594D01*
X239582Y416261D02*
X240748Y415095D01*
Y412762D01*
X239582Y411596D01*
X234916D01*
X233750Y412762D01*
Y415095D01*
X234916Y416261D01*
X239582D01*
X233750Y409263D02*
Y406931D01*
Y408097D01*
X240748D01*
X239582Y409263D01*
X474665Y513831D02*
X473499Y514998D01*
X471166D01*
X470000Y513831D01*
Y509166D01*
X471166Y508000D01*
X473499D01*
X474665Y509166D01*
X481663Y514998D02*
X479330Y513831D01*
X476998Y511499D01*
Y509166D01*
X478164Y508000D01*
X480497D01*
X481663Y509166D01*
Y510333D01*
X480497Y511499D01*
X476998D01*
X483996Y513831D02*
X485162Y514998D01*
X487494D01*
X488661Y513831D01*
Y509166D01*
X487494Y508000D01*
X485162D01*
X483996Y509166D01*
Y513831D01*
X490993Y514998D02*
X495658D01*
Y513831D01*
X490993Y509166D01*
Y508000D01*
X495335Y498669D02*
X496501Y497502D01*
X498834D01*
X500000Y498669D01*
Y503334D01*
X498834Y504500D01*
X496501D01*
X495335Y503334D01*
X488337Y497502D02*
X490670Y498669D01*
X493002Y501001D01*
Y503334D01*
X491836Y504500D01*
X489503D01*
X488337Y503334D01*
Y502167D01*
X489503Y501001D01*
X493002D01*
X486004Y498669D02*
X484838Y497502D01*
X482506D01*
X481339Y498669D01*
Y503334D01*
X482506Y504500D01*
X484838D01*
X486004Y503334D01*
Y498669D01*
X479007D02*
X477840Y497502D01*
X475508D01*
X474342Y498669D01*
Y499835D01*
X475508Y501001D01*
X474342Y502167D01*
Y503334D01*
X475508Y504500D01*
X477840D01*
X479007Y503334D01*
Y502167D01*
X477840Y501001D01*
X479007Y499835D01*
Y498669D01*
X477840Y501001D02*
X475508D01*
X496248Y116750D02*
X490416D01*
X489250Y115584D01*
Y113251D01*
X490416Y112085D01*
X496248D01*
X490416Y109752D02*
X489250Y108586D01*
Y106253D01*
X490416Y105087D01*
X495081D01*
X496248Y106253D01*
Y108586D01*
X495081Y109752D01*
X493915D01*
X492749Y108586D01*
Y105087D01*
X495081Y102754D02*
X496248Y101588D01*
Y99256D01*
X495081Y98089D01*
X490416D01*
X489250Y99256D01*
Y101588D01*
X490416Y102754D01*
X495081D01*
Y95757D02*
X496248Y94590D01*
Y92258D01*
X495081Y91091D01*
X493915D01*
X492749Y92258D01*
Y93424D01*
Y92258D01*
X491583Y91091D01*
X490416D01*
X489250Y92258D01*
Y94590D01*
X490416Y95757D01*
X444665Y81332D02*
X443499Y82498D01*
X441167D01*
X440000Y81332D01*
Y76667D01*
X441167Y75500D01*
X443499D01*
X444665Y76667D01*
X446998D02*
X448164Y75500D01*
X450497D01*
X451663Y76667D01*
Y81332D01*
X450497Y82498D01*
X448164D01*
X446998Y81332D01*
Y80165D01*
X448164Y78999D01*
X451663D01*
X453996Y75500D02*
X456328D01*
X455162D01*
Y82498D01*
X453996Y81332D01*
X464492Y75500D02*
X459827D01*
X464492Y80165D01*
Y81332D01*
X463326Y82498D01*
X460994D01*
X459827Y81332D01*
X834697Y236915D02*
Y234583D01*
Y235749D01*
X840529D01*
X841695Y234583D01*
Y233417D01*
X840529Y232250D01*
X841695Y239248D02*
Y241581D01*
Y240414D01*
X834697D01*
X835863Y239248D01*
X758500Y113500D02*
X751502D01*
Y116999D01*
X752669Y118165D01*
X755001D01*
X756167Y116999D01*
Y113500D01*
Y115833D02*
X758500Y118165D01*
Y120498D02*
Y122830D01*
Y121664D01*
X751502D01*
X752669Y120498D01*
Y126329D02*
X751502Y127495D01*
Y129828D01*
X752669Y130994D01*
X757334D01*
X758500Y129828D01*
Y127495D01*
X757334Y126329D01*
X752669D01*
Y133327D02*
X751502Y134493D01*
Y136826D01*
X752669Y137992D01*
X757334D01*
X758500Y136826D01*
Y134493D01*
X757334Y133327D01*
X752669D01*
X758500Y140325D02*
Y142657D01*
Y141491D01*
X751502D01*
X752669Y140325D01*
X436248Y294750D02*
X430416D01*
X429250Y293584D01*
Y291251D01*
X430416Y290085D01*
X436248D01*
X429250Y284253D02*
X436248D01*
X432749Y287752D01*
Y283087D01*
X435081Y280755D02*
X436248Y279588D01*
Y277256D01*
X435081Y276089D01*
X430416D01*
X429250Y277256D01*
Y279588D01*
X430416Y280755D01*
X435081D01*
X429250Y269092D02*
Y273757D01*
X433915Y269092D01*
X435081D01*
X436248Y270258D01*
Y272590D01*
X435081Y273757D01*
X614000Y490748D02*
Y483750D01*
X617499D01*
X618665Y484916D01*
Y489581D01*
X617499Y490748D01*
X614000D01*
X625663Y489581D02*
X624497Y490748D01*
X622164D01*
X620998Y489581D01*
Y484916D01*
X622164Y483750D01*
X624497D01*
X625663Y484916D01*
X627995Y490748D02*
Y483750D01*
X631494D01*
X632661Y484916D01*
Y489581D01*
X631494Y490748D01*
X627995D01*
X639658Y489581D02*
X638492Y490748D01*
X636160D01*
X634993Y489581D01*
Y484916D01*
X636160Y483750D01*
X638492D01*
X639658Y484916D01*
X641991Y483750D02*
X644324D01*
X643157D01*
Y490748D01*
X641991Y489581D01*
X647822D02*
X648989Y490748D01*
X651321D01*
X652488Y489581D01*
Y484916D01*
X651321Y483750D01*
X648989D01*
X647822Y484916D01*
Y489581D01*
X654820Y483750D02*
X657153D01*
X655986D01*
Y490748D01*
X654820Y489581D01*
X191000Y101498D02*
Y95666D01*
X192166Y94500D01*
X194499D01*
X195665Y95666D01*
Y101498D01*
X197998Y95666D02*
X199164Y94500D01*
X201497D01*
X202663Y95666D01*
Y100331D01*
X201497Y101498D01*
X199164D01*
X197998Y100331D01*
Y99165D01*
X199164Y97999D01*
X202663D01*
X204995Y100331D02*
X206162Y101498D01*
X208494D01*
X209661Y100331D01*
Y95666D01*
X208494Y94500D01*
X206162D01*
X204995Y95666D01*
Y100331D01*
X216658Y94500D02*
X211993D01*
X216658Y99165D01*
Y100331D01*
X215492Y101498D01*
X213160D01*
X211993Y100331D01*
X456169Y39665D02*
X455002Y38499D01*
Y36166D01*
X456169Y35000D01*
X460834D01*
X462000Y36166D01*
Y38499D01*
X460834Y39665D01*
Y41998D02*
X462000Y43164D01*
Y45497D01*
X460834Y46663D01*
X456169D01*
X455002Y45497D01*
Y43164D01*
X456169Y41998D01*
X457335D01*
X458501Y43164D01*
Y46663D01*
X462000Y48995D02*
Y51328D01*
Y50162D01*
X455002D01*
X456169Y48995D01*
Y54827D02*
X455002Y55993D01*
Y58326D01*
X456169Y59492D01*
X460834D01*
X462000Y58326D01*
Y55993D01*
X460834Y54827D01*
X456169D01*
X388500Y113500D02*
X381502D01*
Y116999D01*
X382669Y118165D01*
X385001D01*
X386167Y116999D01*
Y113500D01*
Y115833D02*
X388500Y118165D01*
X387334Y120498D02*
X388500Y121664D01*
Y123997D01*
X387334Y125163D01*
X382669D01*
X381502Y123997D01*
Y121664D01*
X382669Y120498D01*
X383835D01*
X385001Y121664D01*
Y125163D01*
X388500Y127495D02*
Y129828D01*
Y128662D01*
X381502D01*
X382669Y127495D01*
Y133327D02*
X381502Y134493D01*
Y136826D01*
X382669Y137992D01*
X383835D01*
X385001Y136826D01*
Y135660D01*
Y136826D01*
X386167Y137992D01*
X387334D01*
X388500Y136826D01*
Y134493D01*
X387334Y133327D01*
X648831Y370335D02*
X649998Y371501D01*
Y373834D01*
X648831Y375000D01*
X644166D01*
X643000Y373834D01*
Y371501D01*
X644166Y370335D01*
X643000Y363337D02*
Y368002D01*
X647665Y363337D01*
X648831D01*
X649998Y364503D01*
Y366836D01*
X648831Y368002D01*
Y361004D02*
X649998Y359838D01*
Y357506D01*
X648831Y356339D01*
X644166D01*
X643000Y357506D01*
Y359838D01*
X644166Y361004D01*
X648831D01*
X643000Y349342D02*
Y354007D01*
X647665Y349342D01*
X648831D01*
X649998Y350508D01*
Y352840D01*
X648831Y354007D01*
X631169Y349665D02*
X630002Y348499D01*
Y346166D01*
X631169Y345000D01*
X635834D01*
X637000Y346166D01*
Y348499D01*
X635834Y349665D01*
X637000Y356663D02*
Y351998D01*
X632335Y356663D01*
X631169D01*
X630002Y355497D01*
Y353164D01*
X631169Y351998D01*
Y358996D02*
X630002Y360162D01*
Y362494D01*
X631169Y363661D01*
X635834D01*
X637000Y362494D01*
Y360162D01*
X635834Y358996D01*
X631169D01*
X637000Y365993D02*
Y368326D01*
Y367160D01*
X630002D01*
X631169Y365993D01*
X798085Y360168D02*
X799251Y359002D01*
X801584D01*
X802750Y360168D01*
Y364834D01*
X801584Y366000D01*
X799251D01*
X798085Y364834D01*
X795752Y366000D02*
X793420D01*
X794586D01*
Y359002D01*
X795752Y360168D01*
X789921D02*
X788755Y359002D01*
X786422D01*
X785256Y360168D01*
Y364834D01*
X786422Y366000D01*
X788755D01*
X789921Y364834D01*
Y360168D01*
X778258Y366000D02*
X782923D01*
X778258Y361335D01*
Y360168D01*
X779424Y359002D01*
X781757D01*
X782923Y360168D01*
X888250Y441752D02*
Y448750D01*
X884751D01*
X883585Y447584D01*
Y442919D01*
X884751Y441752D01*
X888250D01*
X881252Y448750D02*
X878920D01*
X880086D01*
Y441752D01*
X881252Y442919D01*
X875421D02*
X874255Y441752D01*
X871922D01*
X870756Y442919D01*
Y447584D01*
X871922Y448750D01*
X874255D01*
X875421Y447584D01*
Y442919D01*
X868423Y448750D02*
X866090D01*
X867257D01*
Y441752D01*
X868423Y442919D01*
X721000Y491998D02*
Y485000D01*
X724499D01*
X725665Y486166D01*
Y490831D01*
X724499Y491998D01*
X721000D01*
X727998Y485000D02*
X730330D01*
X729164D01*
Y491998D01*
X727998Y490831D01*
X733829D02*
X734995Y491998D01*
X737328D01*
X738494Y490831D01*
Y486166D01*
X737328Y485000D01*
X734995D01*
X733829Y486166D01*
Y490831D01*
X745492Y485000D02*
X740827D01*
X745492Y489665D01*
Y490831D01*
X744326Y491998D01*
X741993D01*
X740827Y490831D01*
X765035Y530002D02*
X767367D01*
X766201D01*
Y535834D01*
X767367Y537000D01*
X768534D01*
X769700Y535834D01*
X762702Y537000D02*
X760370D01*
X761536D01*
Y530002D01*
X762702Y531169D01*
X756871D02*
X755704Y530002D01*
X753372D01*
X752206Y531169D01*
Y535834D01*
X753372Y537000D01*
X755704D01*
X756871Y535834D01*
Y531169D01*
X749873Y537000D02*
X747540D01*
X748707D01*
Y530002D01*
X749873Y531169D01*
X761835Y464002D02*
X766500D01*
Y467501D01*
X764167D01*
X766500D01*
Y471000D01*
X759502D02*
X757170D01*
X758336D01*
Y464002D01*
X759502Y465168D01*
X753671D02*
X752505Y464002D01*
X750172D01*
X749006Y465168D01*
Y469834D01*
X750172Y471000D01*
X752505D01*
X753671Y469834D01*
Y465168D01*
X746673Y471000D02*
X744341D01*
X745507D01*
Y464002D01*
X746673Y465168D01*
X724000Y407498D02*
Y400500D01*
X728665D01*
X730998D02*
X733330D01*
X732164D01*
Y407498D01*
X730998Y406331D01*
X736829D02*
X737996Y407498D01*
X740328D01*
X741494Y406331D01*
Y401666D01*
X740328Y400500D01*
X737996D01*
X736829Y401666D01*
Y406331D01*
X743827Y400500D02*
X746160D01*
X744993D01*
Y407498D01*
X743827Y406331D01*
X695498Y384535D02*
Y386867D01*
Y385701D01*
X689666D01*
X688500Y386867D01*
Y388034D01*
X689666Y389200D01*
X688500Y382202D02*
Y379870D01*
Y381036D01*
X695498D01*
X694332Y382202D01*
Y376371D02*
X695498Y375205D01*
Y372872D01*
X694332Y371706D01*
X689666D01*
X688500Y372872D01*
Y375205D01*
X689666Y376371D01*
X694332D01*
X688500Y364708D02*
Y369373D01*
X693165Y364708D01*
X694332D01*
X695498Y365874D01*
Y368207D01*
X694332Y369373D01*
X694831Y444085D02*
X695998Y445251D01*
Y447584D01*
X694831Y448750D01*
X690166D01*
X689000Y447584D01*
Y445251D01*
X690166Y444085D01*
X689000Y441752D02*
Y439420D01*
Y440586D01*
X695998D01*
X694831Y441752D01*
Y435921D02*
X695998Y434754D01*
Y432422D01*
X694831Y431256D01*
X690166D01*
X689000Y432422D01*
Y434754D01*
X690166Y435921D01*
X694831D01*
X689000Y428923D02*
Y426590D01*
Y427757D01*
X695998D01*
X694831Y428923D01*
X558500Y483500D02*
X551502D01*
Y486999D01*
X552668Y488165D01*
X555001D01*
X556167Y486999D01*
Y483500D01*
Y485833D02*
X558500Y488165D01*
Y490498D02*
Y492830D01*
Y491664D01*
X551502D01*
X552668Y490498D01*
Y496329D02*
X551502Y497495D01*
Y499828D01*
X552668Y500994D01*
X557334D01*
X558500Y499828D01*
Y497495D01*
X557334Y496329D01*
X552668D01*
X558500Y503327D02*
Y505659D01*
Y504493D01*
X551502D01*
X552668Y503327D01*
X518248Y519250D02*
X511250D01*
Y515751D01*
X512416Y514585D01*
X517081D01*
X518248Y515751D01*
Y519250D01*
X511250Y512252D02*
Y509920D01*
Y511086D01*
X518248D01*
X517081Y512252D01*
Y506421D02*
X518248Y505255D01*
Y502922D01*
X517081Y501756D01*
X512416D01*
X511250Y502922D01*
Y505255D01*
X512416Y506421D01*
X517081D01*
Y499423D02*
X518248Y498257D01*
Y495924D01*
X517081Y494758D01*
X515915D01*
X514749Y495924D01*
Y497090D01*
Y495924D01*
X513583Y494758D01*
X512416D01*
X511250Y495924D01*
Y498257D01*
X512416Y499423D01*
X467915Y433082D02*
X466749Y434248D01*
X464416D01*
X463250Y433082D01*
Y428416D01*
X464416Y427250D01*
X466749D01*
X467915Y428416D01*
X470248Y433082D02*
X471414Y434248D01*
X473747D01*
X474913Y433082D01*
Y431915D01*
X473747Y430749D01*
X472580D01*
X473747D01*
X474913Y429583D01*
Y428416D01*
X473747Y427250D01*
X471414D01*
X470248Y428416D01*
X477245Y433082D02*
X478412Y434248D01*
X480744D01*
X481911Y433082D01*
Y428416D01*
X480744Y427250D01*
X478412D01*
X477245Y428416D01*
Y433082D01*
X488908Y427250D02*
X484243D01*
X488908Y431915D01*
Y433082D01*
X487742Y434248D01*
X485410D01*
X484243Y433082D01*
X488585Y415419D02*
X489751Y414252D01*
X492084D01*
X493250Y415419D01*
Y420084D01*
X492084Y421250D01*
X489751D01*
X488585Y420084D01*
X486252Y415419D02*
X485086Y414252D01*
X482753D01*
X481587Y415419D01*
Y416585D01*
X482753Y417751D01*
X483920D01*
X482753D01*
X481587Y418917D01*
Y420084D01*
X482753Y421250D01*
X485086D01*
X486252Y420084D01*
X479254Y415419D02*
X478088Y414252D01*
X475756D01*
X474589Y415419D01*
Y420084D01*
X475756Y421250D01*
X478088D01*
X479254Y420084D01*
Y415419D01*
X472257Y421250D02*
X469924D01*
X471090D01*
Y414252D01*
X472257Y415419D01*
X443500Y340498D02*
Y334666D01*
X444666Y333500D01*
X446999D01*
X448165Y334666D01*
Y340498D01*
X450498Y339332D02*
X451664Y340498D01*
X453997D01*
X455163Y339332D01*
Y338165D01*
X453997Y336999D01*
X452830D01*
X453997D01*
X455163Y335833D01*
Y334666D01*
X453997Y333500D01*
X451664D01*
X450498Y334666D01*
X457495Y339332D02*
X458662Y340498D01*
X460994D01*
X462161Y339332D01*
Y334666D01*
X460994Y333500D01*
X458662D01*
X457495Y334666D01*
Y339332D01*
X464493Y333500D02*
X466826D01*
X465659D01*
Y340498D01*
X464493Y339332D01*
X503500Y31500D02*
Y38498D01*
X506999D01*
X508165Y37331D01*
Y34999D01*
X506999Y33833D01*
X503500D01*
X505833D02*
X508165Y31500D01*
X510498Y32666D02*
X511664Y31500D01*
X513997D01*
X515163Y32666D01*
Y37331D01*
X513997Y38498D01*
X511664D01*
X510498Y37331D01*
Y36165D01*
X511664Y34999D01*
X515163D01*
X517495Y37331D02*
X518662Y38498D01*
X520994D01*
X522161Y37331D01*
Y32666D01*
X520994Y31500D01*
X518662D01*
X517495Y32666D01*
Y37331D01*
X524493Y31500D02*
X526826D01*
X525660D01*
Y38498D01*
X524493Y37331D01*
X758500Y273500D02*
X751502D01*
Y276999D01*
X752669Y278165D01*
X755001D01*
X756167Y276999D01*
Y273500D01*
Y275833D02*
X758500Y278165D01*
X752669Y280498D02*
X751502Y281664D01*
Y283997D01*
X752669Y285163D01*
X753835D01*
X755001Y283997D01*
X756167Y285163D01*
X757334D01*
X758500Y283997D01*
Y281664D01*
X757334Y280498D01*
X756167D01*
X755001Y281664D01*
X753835Y280498D01*
X752669D01*
X755001Y281664D02*
Y283997D01*
X752669Y287495D02*
X751502Y288662D01*
Y290994D01*
X752669Y292161D01*
X757334D01*
X758500Y290994D01*
Y288662D01*
X757334Y287495D01*
X752669D01*
X758500Y294493D02*
Y296826D01*
Y295660D01*
X751502D01*
X752669Y294493D01*
X53336Y128165D02*
Y125833D01*
Y126999D01*
X59167D01*
X60334Y125833D01*
Y124666D01*
X59167Y123500D01*
X61500Y130498D02*
Y135163D01*
X53336Y137495D02*
Y142161D01*
Y139828D01*
X60334D01*
X54502Y149158D02*
X53336Y147992D01*
Y145660D01*
X54502Y144493D01*
X55669D01*
X56835Y145660D01*
Y147992D01*
X58001Y149158D01*
X59167D01*
X60334Y147992D01*
Y145660D01*
X59167Y144493D01*
X56835Y151491D02*
Y156156D01*
X127603Y52336D02*
X132268D01*
Y55835D01*
X129935D01*
X132268D01*
Y59334D01*
X125270Y60500D02*
X120605D01*
X118272Y52336D02*
X113607D01*
X115940D01*
Y59334D01*
X106609Y53502D02*
X107776Y52336D01*
X110108D01*
X111275Y53502D01*
Y54668D01*
X110108Y55835D01*
X107776D01*
X106609Y57001D01*
Y58167D01*
X107776Y59334D01*
X110108D01*
X111275Y58167D01*
X104277Y55835D02*
X99612D01*
X528831Y270335D02*
X529998Y271501D01*
Y273834D01*
X528831Y275000D01*
X524166D01*
X523000Y273834D01*
Y271501D01*
X524166Y270335D01*
X523000Y264503D02*
X529998D01*
X526499Y268002D01*
Y263337D01*
X528831Y261004D02*
X529998Y259838D01*
Y257506D01*
X528831Y256339D01*
X524166D01*
X523000Y257506D01*
Y259838D01*
X524166Y261004D01*
X528831D01*
X529998Y249342D02*
X528831Y251674D01*
X526499Y254007D01*
X524166D01*
X523000Y252840D01*
Y250508D01*
X524166Y249342D01*
X525333D01*
X526499Y250508D01*
Y254007D01*
X511169Y249665D02*
X510002Y248499D01*
Y246166D01*
X511169Y245000D01*
X515834D01*
X517000Y246166D01*
Y248499D01*
X515834Y249665D01*
X517000Y255497D02*
X510002D01*
X513501Y251998D01*
Y256663D01*
X511169Y258995D02*
X510002Y260162D01*
Y262494D01*
X511169Y263661D01*
X515834D01*
X517000Y262494D01*
Y260162D01*
X515834Y258995D01*
X511169D01*
X510002Y270658D02*
Y265993D01*
X513501D01*
X512335Y268326D01*
Y269492D01*
X513501Y270658D01*
X515834D01*
X517000Y269492D01*
Y267160D01*
X515834Y265993D01*
X528831Y190335D02*
X529998Y191501D01*
Y193834D01*
X528831Y195000D01*
X524166D01*
X523000Y193834D01*
Y191501D01*
X524166Y190335D01*
X523000Y184503D02*
X529998D01*
X526499Y188002D01*
Y183337D01*
X528831Y181004D02*
X529998Y179838D01*
Y177506D01*
X528831Y176339D01*
X524166D01*
X523000Y177506D01*
Y179838D01*
X524166Y181004D01*
X528831D01*
X523000Y170508D02*
X529998D01*
X526499Y174007D01*
Y169342D01*
X511169Y169665D02*
X510002Y168499D01*
Y166166D01*
X511169Y165000D01*
X515834D01*
X517000Y166166D01*
Y168499D01*
X515834Y169665D01*
X517000Y175497D02*
X510002D01*
X513501Y171998D01*
Y176663D01*
X511169Y178995D02*
X510002Y180162D01*
Y182494D01*
X511169Y183661D01*
X515834D01*
X517000Y182494D01*
Y180162D01*
X515834Y178995D01*
X511169D01*
Y185993D02*
X510002Y187160D01*
Y189492D01*
X511169Y190658D01*
X512335D01*
X513501Y189492D01*
Y188326D01*
Y189492D01*
X514667Y190658D01*
X515834D01*
X517000Y189492D01*
Y187160D01*
X515834Y185993D01*
X437498Y209000D02*
X431666D01*
X430500Y207834D01*
Y205501D01*
X431666Y204335D01*
X437498D01*
X430500Y198503D02*
X437498D01*
X433999Y202002D01*
Y197337D01*
X436331Y195005D02*
X437498Y193838D01*
Y191506D01*
X436331Y190339D01*
X431666D01*
X430500Y191506D01*
Y193838D01*
X431666Y195005D01*
X436331D01*
X430500Y188007D02*
Y185674D01*
Y186840D01*
X437498D01*
X436331Y188007D01*
X390400Y240500D02*
X383402D01*
Y243999D01*
X384568Y245165D01*
X386901D01*
X388067Y243999D01*
Y240500D01*
Y242833D02*
X390400Y245165D01*
Y250997D02*
X383402D01*
X386901Y247498D01*
Y252163D01*
X384568Y254496D02*
X383402Y255662D01*
Y257994D01*
X384568Y259161D01*
X389234D01*
X390400Y257994D01*
Y255662D01*
X389234Y254496D01*
X384568D01*
X390400Y266159D02*
Y261493D01*
X385735Y266159D01*
X384568D01*
X383402Y264992D01*
Y262660D01*
X384568Y261493D01*
X373400Y363500D02*
X380398D01*
Y360001D01*
X379231Y358835D01*
X376899D01*
X375732Y360001D01*
Y363500D01*
Y361167D02*
X373400Y358835D01*
Y353003D02*
X380398D01*
X376899Y356502D01*
Y351837D01*
X379231Y349505D02*
X380398Y348338D01*
Y346006D01*
X379231Y344839D01*
X374566D01*
X373400Y346006D01*
Y348338D01*
X374566Y349505D01*
X379231D01*
X373400Y342507D02*
Y340174D01*
Y341340D01*
X380398D01*
X379231Y342507D01*
X383069Y204665D02*
X381902Y203499D01*
Y201166D01*
X383069Y200000D01*
X387734D01*
X388900Y201166D01*
Y203499D01*
X387734Y204665D01*
X388900Y210497D02*
X381902D01*
X385401Y206998D01*
Y211663D01*
X383069Y213995D02*
X381902Y215162D01*
Y217494D01*
X383069Y218661D01*
X387734D01*
X388900Y217494D01*
Y215162D01*
X387734Y213995D01*
X383069D01*
X388900Y225658D02*
Y220993D01*
X384235Y225658D01*
X383069D01*
X381902Y224492D01*
Y222160D01*
X383069Y220993D01*
X383069Y296665D02*
X381902Y295499D01*
Y293166D01*
X383069Y292000D01*
X387734D01*
X388900Y293166D01*
Y295499D01*
X387734Y296665D01*
X388900Y302497D02*
X381902D01*
X385401Y298998D01*
Y303663D01*
X383069Y305996D02*
X381902Y307162D01*
Y309494D01*
X383069Y310661D01*
X387734D01*
X388900Y309494D01*
Y307162D01*
X387734Y305996D01*
X383069D01*
X388900Y312993D02*
Y315326D01*
Y314160D01*
X381902D01*
X383069Y312993D01*
X536500Y28500D02*
Y21502D01*
X533001D01*
X531835Y22669D01*
Y25001D01*
X533001Y26167D01*
X536500D01*
X534167D02*
X531835Y28500D01*
X529502Y27334D02*
X528336Y28500D01*
X526003D01*
X524837Y27334D01*
Y22669D01*
X526003Y21502D01*
X528336D01*
X529502Y22669D01*
Y23835D01*
X528336Y25001D01*
X524837D01*
X522504Y22669D02*
X521338Y21502D01*
X519006D01*
X517839Y22669D01*
Y27334D01*
X519006Y28500D01*
X521338D01*
X522504Y27334D01*
Y22669D01*
X510841Y28500D02*
X515507D01*
X510841Y23835D01*
Y22669D01*
X512008Y21502D01*
X514340D01*
X515507Y22669D01*
X481169Y17665D02*
X480002Y16499D01*
Y14166D01*
X481169Y13000D01*
X485834D01*
X487000Y14166D01*
Y16499D01*
X485834Y17665D01*
Y19998D02*
X487000Y21164D01*
Y23497D01*
X485834Y24663D01*
X481169D01*
X480002Y23497D01*
Y21164D01*
X481169Y19998D01*
X482335D01*
X483501Y21164D01*
Y24663D01*
X481169Y26995D02*
X480002Y28162D01*
Y30494D01*
X481169Y31661D01*
X485834D01*
X487000Y30494D01*
Y28162D01*
X485834Y26995D01*
X481169D01*
X487000Y33993D02*
Y36326D01*
Y35159D01*
X480002D01*
X481169Y33993D01*
X556248Y394750D02*
X550416D01*
X549250Y393584D01*
Y391251D01*
X550416Y390085D01*
X556248D01*
X549250Y383087D02*
Y387752D01*
X553915Y383087D01*
X555081D01*
X556248Y384253D01*
Y386586D01*
X555081Y387752D01*
Y380755D02*
X556248Y379588D01*
Y377256D01*
X555081Y376089D01*
X550416D01*
X549250Y377256D01*
Y379588D01*
X550416Y380755D01*
X555081D01*
X549250Y373757D02*
Y371424D01*
Y372590D01*
X556248D01*
X555081Y373757D01*
X420165Y92166D02*
Y96832D01*
X418999Y97998D01*
X416666D01*
X415500Y96832D01*
Y92166D01*
X416666Y91000D01*
X418999D01*
X417833Y93333D02*
X420165Y91000D01*
X418999D02*
X420165Y92166D01*
X422498D02*
X423664Y91000D01*
X425997D01*
X427163Y92166D01*
Y96832D01*
X425997Y97998D01*
X423664D01*
X422498Y96832D01*
Y95665D01*
X423664Y94499D01*
X427163D01*
X429496Y96832D02*
X430662Y97998D01*
X432994D01*
X434161Y96832D01*
Y92166D01*
X432994Y91000D01*
X430662D01*
X429496Y92166D01*
Y96832D01*
X436493D02*
X437660Y97998D01*
X439992D01*
X441158Y96832D01*
Y95665D01*
X439992Y94499D01*
X438826D01*
X439992D01*
X441158Y93333D01*
Y92166D01*
X439992Y91000D01*
X437660D01*
X436493Y92166D01*
X871500Y117250D02*
X878498D01*
Y113751D01*
X877331Y112585D01*
X874999D01*
X873833Y113751D01*
Y117250D01*
Y114917D02*
X871500Y112585D01*
X878498Y105587D02*
Y110252D01*
X874999D01*
X876165Y107920D01*
Y106753D01*
X874999Y105587D01*
X872666D01*
X871500Y106753D01*
Y109086D01*
X872666Y110252D01*
X851500Y117250D02*
X858498D01*
Y113751D01*
X857331Y112585D01*
X854999D01*
X853833Y113751D01*
Y117250D01*
Y114917D02*
X851500Y112585D01*
X858498Y105587D02*
X857331Y107920D01*
X854999Y110252D01*
X852666D01*
X851500Y109086D01*
Y106753D01*
X852666Y105587D01*
X853833D01*
X854999Y106753D01*
Y110252D01*
X831500Y116500D02*
X838498D01*
Y113001D01*
X837331Y111835D01*
X834999D01*
X833833Y113001D01*
Y116500D01*
Y114167D02*
X831500Y111835D01*
X838498Y109502D02*
Y104837D01*
X837331D01*
X832666Y109502D01*
X831500D01*
X811500Y116500D02*
X818498D01*
Y113001D01*
X817331Y111835D01*
X814999D01*
X813833Y113001D01*
Y116500D01*
Y114167D02*
X811500Y111835D01*
X817331Y109502D02*
X818498Y108336D01*
Y106003D01*
X817331Y104837D01*
X816165D01*
X814999Y106003D01*
X813833Y104837D01*
X812666D01*
X811500Y106003D01*
Y108336D01*
X812666Y109502D01*
X813833D01*
X814999Y108336D01*
X816165Y109502D01*
X817331D01*
X814999Y108336D02*
Y106003D01*
X831500Y156500D02*
X838498D01*
Y153001D01*
X837331Y151835D01*
X834999D01*
X833832Y153001D01*
Y156500D01*
Y154167D02*
X831500Y151835D01*
X837331Y149502D02*
X838498Y148336D01*
Y146003D01*
X837331Y144837D01*
X836165D01*
X834999Y146003D01*
Y147170D01*
Y146003D01*
X833832Y144837D01*
X832666D01*
X831500Y146003D01*
Y148336D01*
X832666Y149502D01*
X811500Y156500D02*
X818498D01*
Y153001D01*
X817331Y151835D01*
X814999D01*
X813833Y153001D01*
Y156500D01*
Y154167D02*
X811500Y151835D01*
Y146003D02*
X818498D01*
X814999Y149502D01*
Y144837D01*
X851500Y156500D02*
X858498D01*
Y153001D01*
X857331Y151835D01*
X854999D01*
X853833Y153001D01*
Y156500D01*
Y154167D02*
X851500Y151835D01*
Y144837D02*
Y149502D01*
X856165Y144837D01*
X857331D01*
X858498Y146003D01*
Y148336D01*
X857331Y149502D01*
X871500Y156500D02*
X878498D01*
Y153001D01*
X877331Y151835D01*
X874999D01*
X873833Y153001D01*
Y156500D01*
Y154167D02*
X871500Y151835D01*
Y149502D02*
Y147170D01*
Y148336D01*
X878498D01*
X877331Y149502D01*
X758500Y33500D02*
X751502D01*
Y36999D01*
X752669Y38165D01*
X755001D01*
X756167Y36999D01*
Y33500D01*
Y35833D02*
X758500Y38165D01*
Y40498D02*
Y42830D01*
Y41664D01*
X751502D01*
X752669Y40498D01*
Y46329D02*
X751502Y47495D01*
Y49828D01*
X752669Y50994D01*
X757334D01*
X758500Y49828D01*
Y47495D01*
X757334Y46329D01*
X752669D01*
Y53327D02*
X751502Y54493D01*
Y56826D01*
X752669Y57992D01*
X757334D01*
X758500Y56826D01*
Y54493D01*
X757334Y53327D01*
X752669D01*
X758500Y64990D02*
Y60325D01*
X753835Y64990D01*
X752669D01*
X751502Y63824D01*
Y61491D01*
X752669Y60325D01*
X758500Y193500D02*
X751502D01*
Y196999D01*
X752669Y198165D01*
X755001D01*
X756167Y196999D01*
Y193500D01*
Y195833D02*
X758500Y198165D01*
X752669Y200498D02*
X751502Y201664D01*
Y203997D01*
X752669Y205163D01*
X753835D01*
X755001Y203997D01*
X756167Y205163D01*
X757334D01*
X758500Y203997D01*
Y201664D01*
X757334Y200498D01*
X756167D01*
X755001Y201664D01*
X753835Y200498D01*
X752669D01*
X755001Y201664D02*
Y203997D01*
X752669Y207495D02*
X751502Y208662D01*
Y210994D01*
X752669Y212161D01*
X757334D01*
X758500Y210994D01*
Y208662D01*
X757334Y207495D01*
X752669D01*
X758500Y219158D02*
Y214493D01*
X753835Y219158D01*
X752669D01*
X751502Y217992D01*
Y215660D01*
X752669Y214493D01*
X152336Y352665D02*
Y348000D01*
X155835D01*
Y350332D01*
Y348000D01*
X159333D01*
X160500Y354997D02*
Y359663D01*
X152336Y361995D02*
Y364328D01*
Y363161D01*
X159333D01*
Y361995D01*
Y364328D01*
Y367827D02*
X152336D01*
X159333Y372492D01*
X152336D01*
Y374824D02*
X157001D01*
X159333Y377157D01*
X157001Y379490D01*
X152336D01*
X160500Y381822D02*
Y386487D01*
X152336Y388820D02*
X159333D01*
Y393485D01*
X378829Y440334D02*
X379996Y441501D01*
Y443833D01*
X378829Y445000D01*
X374164D01*
X372998Y443833D01*
Y441501D01*
X374164Y440334D01*
Y438002D02*
X372998Y436836D01*
Y434503D01*
X374164Y433337D01*
X378829D01*
X379996Y434503D01*
Y436836D01*
X378829Y438002D01*
X377663D01*
X376497Y436836D01*
Y433337D01*
X378829Y431004D02*
X379996Y429838D01*
Y427505D01*
X378829Y426339D01*
X374164D01*
X372998Y427505D01*
Y429838D01*
X374164Y431004D01*
X378829D01*
X372998Y419341D02*
Y424006D01*
X377663Y419341D01*
X378829D01*
X379996Y420507D01*
Y422840D01*
X378829Y424006D01*
X403829Y440334D02*
X404996Y441501D01*
Y443833D01*
X403829Y445000D01*
X399164D01*
X397998Y443833D01*
Y441501D01*
X399164Y440334D01*
Y438002D02*
X397998Y436836D01*
Y434503D01*
X399164Y433337D01*
X403829D01*
X404996Y434503D01*
Y436836D01*
X403829Y438002D01*
X402663D01*
X401497Y436836D01*
Y433337D01*
X403829Y431004D02*
X404996Y429838D01*
Y427505D01*
X403829Y426339D01*
X399164D01*
X397998Y427505D01*
Y429838D01*
X399164Y431004D01*
X403829D01*
Y424006D02*
X404996Y422840D01*
Y420507D01*
X403829Y419341D01*
X402663D01*
X401497Y420507D01*
Y421674D01*
Y420507D01*
X400330Y419341D01*
X399164D01*
X397998Y420507D01*
Y422840D01*
X399164Y424006D01*
X428829Y440334D02*
X429996Y441501D01*
Y443833D01*
X428829Y445000D01*
X424164D01*
X422998Y443833D01*
Y441501D01*
X424164Y440334D01*
Y438002D02*
X422998Y436836D01*
Y434503D01*
X424164Y433337D01*
X428829D01*
X429996Y434503D01*
Y436836D01*
X428829Y438002D01*
X427663D01*
X426497Y436836D01*
Y433337D01*
X428829Y431004D02*
X429996Y429838D01*
Y427505D01*
X428829Y426339D01*
X424164D01*
X422998Y427505D01*
Y429838D01*
X424164Y431004D01*
X428829D01*
X422998Y420507D02*
X429996D01*
X426497Y424006D01*
Y419341D01*
X88700Y155650D02*
Y162648D01*
X92199D01*
X93365Y161481D01*
Y159149D01*
X92199Y157983D01*
X88700D01*
X91033D02*
X93365Y155650D01*
X95698Y156816D02*
X96864Y155650D01*
X99197D01*
X100363Y156816D01*
Y161481D01*
X99197Y162648D01*
X96864D01*
X95698Y161481D01*
Y160315D01*
X96864Y159149D01*
X100363D01*
X102696Y161481D02*
X103862Y162648D01*
X106194D01*
X107361Y161481D01*
Y156816D01*
X106194Y155650D01*
X103862D01*
X102696Y156816D01*
Y161481D01*
X109693D02*
X110859Y162648D01*
X113192D01*
X114358Y161481D01*
Y160315D01*
X113192Y159149D01*
X112026D01*
X113192D01*
X114358Y157983D01*
Y156816D01*
X113192Y155650D01*
X110859D01*
X109693Y156816D01*
X69636Y352665D02*
Y348000D01*
X73135D01*
Y350333D01*
Y348000D01*
X76634D01*
X77800Y354998D02*
Y359663D01*
X69636Y361996D02*
Y364328D01*
Y363162D01*
X76634D01*
Y361996D01*
Y364328D01*
Y367827D02*
X69636D01*
X76634Y372492D01*
X69636D01*
Y374825D02*
X74302D01*
X76634Y377158D01*
X74302Y379490D01*
X69636D01*
X77800Y381823D02*
Y386488D01*
X76634Y388820D02*
X69636D01*
Y392319D01*
X70803Y393486D01*
X73135D01*
X74302Y392319D01*
Y388820D01*
Y391153D02*
X76634Y393486D01*
X28167Y496664D02*
X25834D01*
X27001D01*
Y490833D01*
X25834Y489666D01*
X24668D01*
X23502Y490833D01*
X30499Y488500D02*
X35164D01*
X37497Y496664D02*
X42162D01*
X39830D01*
Y489666D01*
X49160Y495498D02*
X47994Y496664D01*
X45661D01*
X44495Y495498D01*
Y494332D01*
X45661Y493165D01*
X47994D01*
X49160Y491999D01*
Y490833D01*
X47994Y489666D01*
X45661D01*
X44495Y490833D01*
X51493Y493165D02*
X56158D01*
X53825Y495498D02*
Y490833D01*
X58490Y488500D02*
X63156D01*
X65488Y496664D02*
X67821D01*
X66654D01*
Y489666D01*
X65488D01*
X67821D01*
X71320D02*
Y496664D01*
X75985Y489666D01*
Y496664D01*
X78317D02*
Y491999D01*
X80650Y489666D01*
X82983Y491999D01*
Y496664D01*
X85315Y488500D02*
X89980D01*
X92313Y489666D02*
Y496664D01*
X95812D01*
X96978Y495498D01*
Y493165D01*
X95812Y491999D01*
X92313D01*
X94645D02*
X96978Y489666D01*
X138165Y496664D02*
X135833D01*
X136999D01*
Y490832D01*
X135833Y489666D01*
X134666D01*
X133500Y490832D01*
X140498Y488500D02*
X145163D01*
X147495Y496664D02*
X152161D01*
X149828D01*
Y489666D01*
X159158Y495498D02*
X157992Y496664D01*
X155660D01*
X154493Y495498D01*
Y494331D01*
X155660Y493165D01*
X157992D01*
X159158Y491999D01*
Y490832D01*
X157992Y489666D01*
X155660D01*
X154493Y490832D01*
X161491Y493165D02*
X166156D01*
X163824Y495498D02*
Y490832D01*
X168489Y488500D02*
X173154D01*
X175487Y496664D02*
X177819D01*
X176653D01*
Y489666D01*
X175487D01*
X177819D01*
X181318D02*
Y496664D01*
X185983Y489666D01*
Y496664D01*
X188316D02*
Y491999D01*
X190648Y489666D01*
X192981Y491999D01*
Y496664D01*
X195313Y488500D02*
X199979D01*
X202311Y496664D02*
Y489666D01*
X206976D01*
D14*
X736768Y525750D02*
X755018D01*
X745950Y516115D02*
Y534365D01*
X691135Y365450D02*
X709385D01*
X699750Y356268D02*
Y374518D01*
X40330Y183736D02*
Y201986D01*
X30695Y192804D02*
X48945D01*
X92804Y501055D02*
Y519305D01*
X83736Y509670D02*
X101986D01*
X202804Y501055D02*
Y519305D01*
X193736Y509670D02*
X211986D01*
D15*
X596500Y455500D02*
Y540750D01*
X712500Y455500D02*
Y540750D01*
X596500D02*
X712500D01*
X596500Y455500D02*
X712500D01*
D94*
X581070Y229600D02*
X632070D01*
X581070Y269600D02*
X632070D01*
Y229600D02*
Y269600D01*
X581070Y229600D02*
Y269600D01*
X580820Y70000D02*
X631820D01*
X580820Y110000D02*
X631820D01*
Y70000D02*
Y110000D01*
X580820Y70000D02*
Y110000D01*
X553000Y105000D02*
Y140000D01*
X572000Y105000D02*
Y140000D01*
X553000Y105000D02*
X572000D01*
X553000Y140000D02*
X572000D01*
X580500Y283250D02*
Y318250D01*
X599500Y283250D02*
Y318250D01*
X580500Y283250D02*
X599500D01*
X580500Y318250D02*
X599500D01*
X205650Y371900D02*
Y454400D01*
X289400Y371900D02*
Y454400D01*
X205650Y371900D02*
X289400D01*
X205650Y454400D02*
X289400D01*
X247150Y406150D02*
Y421150D01*
X239650Y413650D02*
X254650D01*
X469000Y507000D02*
X501000D01*
X469000Y523000D02*
X501000D01*
Y507000D02*
Y523000D01*
X469000Y507000D02*
Y523000D01*
Y505500D02*
X501000D01*
X469000Y489500D02*
X501000D01*
X469000D02*
Y505500D01*
X501000Y489500D02*
Y505500D01*
X472500Y50500D02*
Y124500D01*
X527500Y50500D02*
Y124500D01*
X472500Y50500D02*
X527500D01*
X472500Y124500D02*
X527500D01*
X475250Y117750D02*
X524501D01*
X475250Y57250D02*
X524501D01*
Y117750D01*
X475250Y57250D02*
Y117750D01*
X439000Y74500D02*
Y90500D01*
X471000Y74500D02*
Y90500D01*
X439000D02*
X471000D01*
X439000Y74500D02*
X471000D01*
X830250Y267000D02*
X845250D01*
X838000Y259500D02*
Y274500D01*
X821749Y162750D02*
X865195D01*
X821749Y372001D02*
X865195D01*
X821749Y162750D02*
Y372001D01*
X865195Y162750D02*
Y372001D01*
X808000Y163000D02*
X865195D01*
X808000Y372001D02*
X865195D01*
X808000Y163000D02*
Y372001D01*
X865195Y163000D02*
Y372001D01*
X740500Y112500D02*
X759500D01*
X740500Y147500D02*
X759500D01*
X740500Y112500D02*
Y147500D01*
X759500Y112500D02*
Y147500D01*
X403500Y297000D02*
X496500D01*
X403500Y223000D02*
X496500D01*
Y297000D01*
X403500Y223000D02*
Y297000D01*
X406500Y290250D02*
X493250D01*
X406500Y229750D02*
X493250D01*
Y290250D01*
X406500Y229750D02*
Y290250D01*
X181500Y88500D02*
X298500D01*
X181500Y171500D02*
X298500D01*
Y88500D02*
Y171500D01*
X181500Y88500D02*
Y171500D01*
X189250Y93250D02*
Y166502D01*
X291001Y93250D02*
Y166502D01*
X189250D02*
X291001D01*
X189250Y93250D02*
X291001D01*
X463000Y34000D02*
Y66000D01*
X447000Y34000D02*
Y66000D01*
X463000D01*
X447000Y34000D02*
X463000D01*
X389500Y112500D02*
Y147500D01*
X370500Y112500D02*
Y147500D01*
X389500D01*
X370500Y112500D02*
X389500D01*
X642000Y344000D02*
Y376000D01*
X658000Y344000D02*
Y376000D01*
X642000Y344000D02*
X658000D01*
X642000Y376000D02*
X658000D01*
X638000Y344000D02*
Y376000D01*
X622000Y344000D02*
Y376000D01*
X638000D01*
X622000Y344000D02*
X638000D01*
X745250Y367000D02*
X803750D01*
X745250Y334000D02*
X803750D01*
X745250D02*
Y367000D01*
X803750Y334000D02*
Y367000D01*
X796750Y454000D02*
X893250D01*
X796750Y386000D02*
X893250D01*
X796750D02*
Y454000D01*
X893250Y386000D02*
Y454000D01*
X889250Y390500D02*
Y449750D01*
X800500Y390500D02*
Y449750D01*
Y390500D02*
X889250D01*
X800500Y449750D02*
X889250D01*
X720000Y484000D02*
X771000D01*
X720000Y506750D02*
X771000D01*
Y484000D02*
Y506750D01*
X720000Y484000D02*
Y506750D01*
X720699Y538000D02*
X770700D01*
X720699Y512499D02*
X770700D01*
X720699D02*
Y538000D01*
X770700Y512499D02*
Y538000D01*
X721500Y472000D02*
X767500D01*
X721500Y449000D02*
X767500D01*
X721500D02*
Y472000D01*
X767500Y449000D02*
Y472000D01*
X761250Y452749D02*
Y468500D01*
X726249Y452749D02*
Y468500D01*
Y452749D02*
X761250D01*
X726249Y468500D02*
X761250D01*
X722000Y447250D02*
X804500D01*
X722000Y373000D02*
Y447250D01*
Y373000D02*
X804500D01*
Y447250D01*
X687500Y390200D02*
X713001D01*
X687500Y340200D02*
X713001D01*
Y390200D01*
X687500Y340200D02*
Y390200D01*
X688000Y391250D02*
Y449750D01*
X721000Y391250D02*
Y449750D01*
X688000Y391250D02*
X721000D01*
X688000Y449750D02*
X721000D01*
X540500Y482500D02*
X559500D01*
X540500Y517500D02*
X559500D01*
X540500Y482500D02*
Y517500D01*
X559500Y482500D02*
Y517500D01*
X512000Y482749D02*
Y517750D01*
X528001Y482749D02*
Y517750D01*
X512000Y482749D02*
X528001D01*
X512000Y517750D02*
X528001D01*
X510000Y520250D02*
X530000D01*
X510000Y479750D02*
X530000D01*
Y520250D01*
X510000Y479750D02*
Y520250D01*
X462250Y426250D02*
Y442250D01*
X494250Y426250D02*
Y442250D01*
X462250D02*
X494250D01*
X462250Y426250D02*
X494250D01*
Y406250D02*
Y422250D01*
X462250Y406250D02*
Y422250D01*
Y406250D02*
X494250D01*
X462250Y422250D02*
X494250D01*
X448000Y310750D02*
X508500D01*
X448000Y397500D02*
X508500D01*
Y310750D02*
Y397500D01*
X448000Y310750D02*
Y397500D01*
X441250Y307750D02*
X515250D01*
X441250Y400750D02*
X515250D01*
Y307750D02*
Y400750D01*
X441250Y307750D02*
Y400750D01*
X502500Y30500D02*
Y49500D01*
X537500Y30500D02*
Y49500D01*
X502500D02*
X537500D01*
X502500Y30500D02*
X537500D01*
X759500Y272500D02*
Y307500D01*
X740500Y272500D02*
Y307500D01*
X759500D01*
X740500Y272500D02*
X759500D01*
X10000Y117000D02*
X65000D01*
X10000Y215000D02*
X65000D01*
X10000Y117000D02*
Y215000D01*
X65000Y117000D02*
Y215000D01*
X10000Y117000D02*
X65000D01*
X10000Y215000D02*
X65000D01*
X10000Y117000D02*
Y215000D01*
X65000Y117000D02*
Y215000D01*
X268Y20000D02*
Y80000D01*
X127018Y42249D02*
Y58000D01*
X92018Y42249D02*
Y58000D01*
Y42249D02*
X127018D01*
X92018Y58000D02*
X127018D01*
X268Y20000D02*
X220268D01*
Y80000D01*
X268D02*
X220268D01*
X522000Y244000D02*
Y276000D01*
X538000Y244000D02*
Y276000D01*
X522000Y244000D02*
X538000D01*
X522000Y276000D02*
X538000D01*
X518000Y244000D02*
Y276000D01*
X502000Y244000D02*
Y276000D01*
X518000D01*
X502000Y244000D02*
X518000D01*
X522000Y164000D02*
Y196000D01*
X538000Y164000D02*
Y196000D01*
X522000Y164000D02*
X538000D01*
X522000Y196000D02*
X538000D01*
X518000Y164000D02*
Y196000D01*
X502000Y164000D02*
Y196000D01*
X518000D01*
X502000Y164000D02*
X518000D01*
X406750Y149750D02*
Y210000D01*
X493500Y149750D02*
Y210000D01*
X406750Y149750D02*
X493500D01*
X406750Y210000D02*
X493500D01*
X403500Y217000D02*
X496500D01*
X403500Y143000D02*
X496500D01*
Y217000D01*
X403500Y143000D02*
Y217000D01*
X372400Y239500D02*
X391400D01*
X372400Y274500D02*
X391400D01*
X372400Y239500D02*
Y274500D01*
X391400Y239500D02*
Y274500D01*
X372400Y364500D02*
X391400D01*
X372400Y329500D02*
X391400D01*
Y364500D01*
X372400Y329500D02*
Y364500D01*
X373900Y199000D02*
X389900D01*
X373900Y235000D02*
X389900D01*
X373900Y199000D02*
Y235000D01*
X389900Y199000D02*
Y235000D01*
Y291000D02*
Y323000D01*
X373900Y291000D02*
Y323000D01*
X389900D01*
X373900Y291000D02*
X389900D01*
X502500Y29500D02*
X537500D01*
X502500Y10500D02*
X537500D01*
X502500D02*
Y29500D01*
X537500Y10500D02*
Y29500D01*
X488000Y12000D02*
Y48000D01*
X472000Y12000D02*
Y48000D01*
X488000D01*
X472000Y12000D02*
X488000D01*
X523500Y397000D02*
X616500D01*
X523500Y323000D02*
X616500D01*
Y397000D01*
X523500Y323000D02*
Y397000D01*
X526500Y390250D02*
X613251D01*
X526500Y329749D02*
X613251D01*
Y390250D01*
X526500Y329749D02*
Y390250D01*
X414500Y90000D02*
Y130000D01*
X465500Y90000D02*
Y130000D01*
X414500D02*
X465500D01*
X414500Y90000D02*
X465500D01*
X870500Y83250D02*
Y118250D01*
X889500Y83250D02*
Y118250D01*
X870500Y83250D02*
X889500D01*
X870500Y118250D02*
X889500D01*
X850500Y83250D02*
Y118250D01*
X869500Y83250D02*
Y118250D01*
X850500Y83250D02*
X869500D01*
X850500Y118250D02*
X869500D01*
X830500Y82500D02*
Y117500D01*
X849500Y82500D02*
Y117500D01*
X830500Y82500D02*
X849500D01*
X830500Y117500D02*
X849500D01*
X810500Y82500D02*
Y117500D01*
X829500Y82500D02*
Y117500D01*
X810500Y82500D02*
X829500D01*
X810500Y117500D02*
X829500D01*
X830500Y122500D02*
Y157500D01*
X849500Y122500D02*
Y157500D01*
X830500Y122500D02*
X849500D01*
X830500Y157500D02*
X849500D01*
X810500Y122500D02*
Y157500D01*
X829500Y122500D02*
Y157500D01*
X810500Y122500D02*
X829500D01*
X810500Y157500D02*
X829500D01*
X850500Y122500D02*
Y157500D01*
X869500Y122500D02*
Y157500D01*
X850500Y122500D02*
X869500D01*
X850500Y157500D02*
X869500D01*
X870500Y122500D02*
Y157500D01*
X889500Y122500D02*
Y157500D01*
X870500Y122500D02*
X889500D01*
X870500Y157500D02*
X889500D01*
X740500Y32500D02*
X759500D01*
X740500Y67500D02*
X759500D01*
X740500Y32500D02*
Y67500D01*
X759500Y32500D02*
Y67500D01*
X740500Y192500D02*
X759500D01*
X740500Y227500D02*
X759500D01*
X740500Y192500D02*
Y227500D01*
X759500Y192500D02*
Y227500D01*
X180000Y260000D02*
Y480000D01*
X120000Y260000D02*
X180000D01*
X120000D02*
Y480000D01*
X158000Y353250D02*
Y388251D01*
X142250Y353250D02*
Y388251D01*
X158000D01*
X142250Y353250D02*
X158000D01*
X120000Y480000D02*
X180000D01*
X371998Y446000D02*
X387998D01*
X371998Y414000D02*
X387998D01*
Y446000D01*
X371998Y414000D02*
Y446000D01*
X396998D02*
X412998D01*
X396998Y414000D02*
X412998D01*
Y446000D01*
X396998Y414000D02*
Y446000D01*
X421998D02*
X437998D01*
X421998Y414000D02*
X437998D01*
Y446000D01*
X421998Y414000D02*
Y446000D01*
X88500Y118050D02*
Y213551D01*
X137001Y118050D02*
Y213551D01*
X88500D02*
X137001D01*
X88500Y118050D02*
X137001D01*
X37300Y480000D02*
X97300D01*
X59550Y353250D02*
X75300D01*
X59550Y388251D02*
X75300D01*
X59550Y353250D02*
Y388251D01*
X75300Y353250D02*
Y388251D01*
X37300Y260000D02*
Y480000D01*
Y260000D02*
X97300D01*
Y480000D01*
X17000Y485000D02*
X115000D01*
X17000Y540000D02*
X115000D01*
Y485000D02*
Y540000D01*
X17000Y485000D02*
Y540000D01*
Y485000D02*
X115000D01*
X17000Y540000D02*
X115000D01*
Y485000D02*
Y540000D01*
X17000Y485000D02*
Y540000D01*
X127000Y485000D02*
X225000D01*
X127000Y540000D02*
X225000D01*
Y485000D02*
Y540000D01*
X127000Y485000D02*
Y540000D01*
Y485000D02*
X225000D01*
X127000Y540000D02*
X225000D01*
Y485000D02*
Y540000D01*
X127000Y485000D02*
Y540000D01*
D95*
X738536Y410250D02*
D03*
M02*
