G04*
G04 #@! TF.GenerationSoftware,Altium Limited,Altium Designer,23.9.2 (47)*
G04*
G04 Layer_Physical_Order=4*
G04 Layer_Color=16711680*
%FSLAX44Y44*%
%MOMM*%
G71*
G04*
G04 #@! TF.SameCoordinates,1607B9EF-4730-45C7-A4D5-593DF947B7B5*
G04*
G04*
G04 #@! TF.FilePolarity,Positive*
G04*
G01*
G75*
%ADD17R,1.3000X0.9000*%
%ADD18R,1.3500X1.1500*%
%ADD19C,1.0000*%
G04:AMPARAMS|DCode=28|XSize=0.65mm|YSize=1.25mm|CornerRadius=0.1625mm|HoleSize=0mm|Usage=FLASHONLY|Rotation=90.000|XOffset=0mm|YOffset=0mm|HoleType=Round|Shape=RoundedRectangle|*
%AMROUNDEDRECTD28*
21,1,0.6500,0.9250,0,0,90.0*
21,1,0.3250,1.2500,0,0,90.0*
1,1,0.3250,0.4625,0.1625*
1,1,0.3250,0.4625,-0.1625*
1,1,0.3250,-0.4625,-0.1625*
1,1,0.3250,-0.4625,0.1625*
%
%ADD28ROUNDEDRECTD28*%
G04:AMPARAMS|DCode=32|XSize=3.5mm|YSize=1.5mm|CornerRadius=0.375mm|HoleSize=0mm|Usage=FLASHONLY|Rotation=0.000|XOffset=0mm|YOffset=0mm|HoleType=Round|Shape=RoundedRectangle|*
%AMROUNDEDRECTD32*
21,1,3.5000,0.7500,0,0,0.0*
21,1,2.7500,1.5000,0,0,0.0*
1,1,0.7500,1.3750,-0.3750*
1,1,0.7500,-1.3750,-0.3750*
1,1,0.7500,-1.3750,0.3750*
1,1,0.7500,1.3750,0.3750*
%
%ADD32ROUNDEDRECTD32*%
G04:AMPARAMS|DCode=34|XSize=0.6mm|YSize=1.45mm|CornerRadius=0.15mm|HoleSize=0mm|Usage=FLASHONLY|Rotation=90.000|XOffset=0mm|YOffset=0mm|HoleType=Round|Shape=RoundedRectangle|*
%AMROUNDEDRECTD34*
21,1,0.6000,1.1500,0,0,90.0*
21,1,0.3000,1.4500,0,0,90.0*
1,1,0.3000,0.5750,0.1500*
1,1,0.3000,0.5750,-0.1500*
1,1,0.3000,-0.5750,-0.1500*
1,1,0.3000,-0.5750,0.1500*
%
%ADD34ROUNDEDRECTD34*%
%ADD68C,0.5000*%
%ADD69C,1.0000*%
%ADD71C,1.8000*%
G04:AMPARAMS|DCode=72|XSize=1.5mm|YSize=1.5mm|CornerRadius=0.375mm|HoleSize=0mm|Usage=FLASHONLY|Rotation=180.000|XOffset=0mm|YOffset=0mm|HoleType=Round|Shape=RoundedRectangle|*
%AMROUNDEDRECTD72*
21,1,1.5000,0.7500,0,0,180.0*
21,1,0.7500,1.5000,0,0,180.0*
1,1,0.7500,-0.3750,0.3750*
1,1,0.7500,0.3750,0.3750*
1,1,0.7500,0.3750,-0.3750*
1,1,0.7500,-0.3750,-0.3750*
%
%ADD72ROUNDEDRECTD72*%
%ADD73C,1.5000*%
%ADD74C,7.0000*%
%ADD75C,2.0000*%
%ADD76R,2.0000X2.0000*%
%ADD77C,1.3000*%
%ADD78C,1.6000*%
%ADD79R,1.6000X1.6000*%
%ADD80R,1.2000X1.2000*%
%ADD81C,1.2000*%
%ADD82C,0.7000*%
%ADD83R,1.2000X2.0000*%
%ADD84R,0.9000X1.3000*%
G04:AMPARAMS|DCode=85|XSize=0.6mm|YSize=1.55mm|CornerRadius=0.15mm|HoleSize=0mm|Usage=FLASHONLY|Rotation=90.000|XOffset=0mm|YOffset=0mm|HoleType=Round|Shape=RoundedRectangle|*
%AMROUNDEDRECTD85*
21,1,0.6000,1.2500,0,0,90.0*
21,1,0.3000,1.5500,0,0,90.0*
1,1,0.3000,0.6250,0.1500*
1,1,0.3000,0.6250,-0.1500*
1,1,0.3000,-0.6250,-0.1500*
1,1,0.3000,-0.6250,0.1500*
%
%ADD85ROUNDEDRECTD85*%
%ADD86R,1.9500X1.4000*%
%ADD87R,1.4000X1.9500*%
G04:AMPARAMS|DCode=88|XSize=0.6mm|YSize=1.45mm|CornerRadius=0.15mm|HoleSize=0mm|Usage=FLASHONLY|Rotation=0.000|XOffset=0mm|YOffset=0mm|HoleType=Round|Shape=RoundedRectangle|*
%AMROUNDEDRECTD88*
21,1,0.6000,1.1500,0,0,0.0*
21,1,0.3000,1.4500,0,0,0.0*
1,1,0.3000,0.1500,-0.5750*
1,1,0.3000,-0.1500,-0.5750*
1,1,0.3000,-0.1500,0.5750*
1,1,0.3000,0.1500,0.5750*
%
%ADD88ROUNDEDRECTD88*%
G04:AMPARAMS|DCode=89|XSize=1.35mm|YSize=1.15mm|CornerRadius=0.2875mm|HoleSize=0mm|Usage=FLASHONLY|Rotation=0.000|XOffset=0mm|YOffset=0mm|HoleType=Round|Shape=RoundedRectangle|*
%AMROUNDEDRECTD89*
21,1,1.3500,0.5750,0,0,0.0*
21,1,0.7750,1.1500,0,0,0.0*
1,1,0.5750,0.3875,-0.2875*
1,1,0.5750,-0.3875,-0.2875*
1,1,0.5750,-0.3875,0.2875*
1,1,0.5750,0.3875,0.2875*
%
%ADD89ROUNDEDRECTD89*%
G04:AMPARAMS|DCode=90|XSize=1.95mm|YSize=1.4mm|CornerRadius=0.35mm|HoleSize=0mm|Usage=FLASHONLY|Rotation=0.000|XOffset=0mm|YOffset=0mm|HoleType=Round|Shape=RoundedRectangle|*
%AMROUNDEDRECTD90*
21,1,1.9500,0.7000,0,0,0.0*
21,1,1.2500,1.4000,0,0,0.0*
1,1,0.7000,0.6250,-0.3500*
1,1,0.7000,-0.6250,-0.3500*
1,1,0.7000,-0.6250,0.3500*
1,1,0.7000,0.6250,0.3500*
%
%ADD90ROUNDEDRECTD90*%
G36*
X577525Y735044D02*
X577600Y734189D01*
X577725Y733434D01*
X577900Y732780D01*
X578002Y732529D01*
X580000D01*
X579525Y732479D01*
X579100Y732328D01*
X578725Y732076D01*
X578423Y731749D01*
X578725Y731422D01*
X579100Y731170D01*
X579525Y731019D01*
X580000Y730969D01*
X578002D01*
X577900Y730718D01*
X577725Y730064D01*
X577600Y729309D01*
X577525Y728454D01*
X577500Y727498D01*
X572500D01*
X572475Y728454D01*
X572400Y729309D01*
X572275Y730064D01*
X572100Y730718D01*
X571998Y730969D01*
X570000D01*
X570475Y731019D01*
X570900Y731170D01*
X571275Y731422D01*
X571577Y731749D01*
X571275Y732076D01*
X570900Y732328D01*
X570475Y732478D01*
X570000Y732529D01*
X571998D01*
X572100Y732780D01*
X572275Y733434D01*
X572400Y734189D01*
X572475Y735044D01*
X572500Y735999D01*
X577500D01*
X577525Y735044D01*
D02*
G37*
G36*
X590000Y742500D02*
X590979Y742515D01*
X593536Y742734D01*
X594263Y742866D01*
X594926Y743026D01*
X595527Y743216D01*
X596064Y743436D01*
X596539Y743684D01*
X596950Y743962D01*
Y736038D01*
X596539Y736316D01*
X596064Y736564D01*
X595527Y736784D01*
X594926Y736974D01*
X594263Y737134D01*
X593536Y737266D01*
X591894Y737441D01*
X590979Y737485D01*
X590000Y737500D01*
Y742500D01*
D02*
G37*
G36*
X605303Y742923D02*
X605228Y742790D01*
X605162Y742626D01*
X605106Y742433D01*
X605060Y742209D01*
X605024Y741954D01*
X604982Y741355D01*
X604977Y741009D01*
X604995Y740228D01*
X598711Y744831D01*
X599145Y744951D01*
X600487Y745401D01*
X600724Y745507D01*
X600922Y745610D01*
X601081Y745710D01*
X601201Y745808D01*
X601282Y745902D01*
X605303Y742923D01*
D02*
G37*
G36*
X657168Y903591D02*
X656852Y902711D01*
X655746Y898928D01*
X655693Y898548D01*
X655677Y898238D01*
X655698Y898000D01*
X650141Y899059D01*
X650074Y899054D01*
X650054Y899158D01*
X650081Y899372D01*
X650154Y899697D01*
X650443Y900674D01*
X651583Y903947D01*
X657168Y903591D01*
D02*
G37*
G36*
X605495Y847095D02*
X605781Y846114D01*
X606121Y844442D01*
X607464Y835281D01*
X604889Y834954D01*
X604868Y841638D01*
X604886Y844111D01*
X605083Y846984D01*
X605262Y847385D01*
X605495Y847095D01*
D02*
G37*
G36*
X680911Y831268D02*
X680846Y831022D01*
X680788Y830688D01*
X680738Y830266D01*
X680635Y828477D01*
X680600Y825901D01*
X675600D01*
X675596Y826847D01*
X675354Y831022D01*
X675289Y831268D01*
X675216Y831427D01*
X680984D01*
X680911Y831268D01*
D02*
G37*
G36*
X617487Y831382D02*
X617492Y830994D01*
X617500Y826506D01*
X612500Y825633D01*
X612492Y826523D01*
X612304Y829391D01*
X612218Y829936D01*
X612116Y830412D01*
X611998Y830819D01*
X611865Y831157D01*
X611716Y831427D01*
X617484D01*
X617487Y831382D01*
D02*
G37*
G36*
X604898Y832000D02*
X604802Y827012D01*
X604682Y825553D01*
X604515Y824783D01*
X604299Y824703D01*
X602956Y831281D01*
X602500Y834650D01*
X604889Y834954D01*
X604898Y832000D01*
D02*
G37*
G36*
X628428Y805254D02*
X627619Y805491D01*
X626842Y805657D01*
X626097Y805752D01*
X625385Y805775D01*
X624704Y805727D01*
X624055Y805608D01*
X623438Y805418D01*
X622854Y805156D01*
X622301Y804822D01*
X621781Y804418D01*
X620797Y809884D01*
X625825Y812752D01*
X628428Y805254D01*
D02*
G37*
G36*
X707479Y819507D02*
X707452Y818685D01*
X707514Y817158D01*
X707605Y816452D01*
X707735Y815786D01*
X707847Y815369D01*
X709618Y815104D01*
X709123Y815004D01*
X708605Y814833D01*
X708099Y814607D01*
X708112Y814569D01*
X708360Y814019D01*
X708646Y813508D01*
X708973Y813036D01*
X705809Y813023D01*
X705668Y812906D01*
X704332Y811635D01*
X703960Y811240D01*
X702017Y809079D01*
X702157Y805887D01*
X701669Y806191D01*
X701145Y806453D01*
X700584Y806674D01*
X699986Y806854D01*
X699351Y806993D01*
X698679Y807091D01*
X697970Y807148D01*
X696441Y807138D01*
X695621Y807071D01*
X695329Y812071D01*
X695570Y812105D01*
X694960Y812720D01*
X695351Y812424D01*
X695797Y812267D01*
X696298Y812250D01*
X696627Y812322D01*
X696572Y812334D01*
X697277Y813126D01*
X698349Y814477D01*
X698715Y815036D01*
X698969Y815518D01*
X699109Y815922D01*
X699136Y816248D01*
X699050Y816497D01*
X698851Y816669D01*
X698540Y816763D01*
X702054Y816237D01*
X702157Y816795D01*
X702378Y818563D01*
X702471Y819562D01*
X707479Y819507D01*
D02*
G37*
G36*
X686814Y814402D02*
X689202Y813165D01*
X690240Y812731D01*
X691172Y812421D01*
X691999Y812234D01*
X692722Y812171D01*
X693339Y812231D01*
X693852Y812414D01*
X694260Y812720D01*
X688475Y806725D01*
X688301Y806949D01*
X688056Y807204D01*
X687741Y807490D01*
X686900Y808156D01*
X685778Y808945D01*
X683568Y810362D01*
X685462Y815206D01*
X686814Y814402D01*
D02*
G37*
G36*
X705219Y790100D02*
X704323Y789784D01*
X700703Y788255D01*
X700393Y788061D01*
X700167Y787885D01*
X700025Y787725D01*
X698875Y793751D01*
X699084Y793734D01*
X699368Y793753D01*
X699726Y793807D01*
X700159Y793896D01*
X701907Y794374D01*
X704328Y795169D01*
X705219Y790100D01*
D02*
G37*
G36*
X1522500Y975000D02*
Y490000D01*
X1497500Y465000D01*
X825000D01*
Y532456D01*
X825355Y531841D01*
X832264Y538750D01*
X825355Y545659D01*
X825000Y545044D01*
Y1010000D01*
X1487500D01*
X1522500Y975000D01*
D02*
G37*
%LPC*%
G36*
X893500Y995464D02*
Y983536D01*
X899464Y989500D01*
X893500Y995464D01*
D02*
G37*
G36*
X1031712Y989000D02*
X1028288D01*
X1024982Y988114D01*
X1022725Y986811D01*
X1030000Y979536D01*
X1037275Y986811D01*
X1035018Y988114D01*
X1031712Y989000D01*
D02*
G37*
G36*
X927964Y999000D02*
X908500D01*
Y999000D01*
X897036D01*
X904768Y991268D01*
X903000Y989500D01*
X904768Y987732D01*
X897036Y980000D01*
X916500D01*
Y980000D01*
X925011D01*
X922011Y977000D01*
X911500D01*
Y977000D01*
X896500D01*
Y973088D01*
X893500D01*
X891744Y972739D01*
X890256Y971744D01*
X886756Y968244D01*
X885761Y966756D01*
X885412Y965000D01*
Y957929D01*
X885761Y956173D01*
X886756Y954685D01*
X891085Y950356D01*
X892573Y949361D01*
X894321Y949013D01*
X895384Y948303D01*
X896750Y948031D01*
X909250D01*
X910616Y948303D01*
X911773Y949077D01*
X912547Y950234D01*
X912819Y951600D01*
Y954600D01*
X912547Y955966D01*
X911773Y957123D01*
X910616Y957897D01*
X909250Y958169D01*
X902598D01*
X902500Y958188D01*
X896229D01*
X894588Y959829D01*
Y963100D01*
X895400Y963912D01*
X903000D01*
X903443Y964000D01*
X913500D01*
Y964000D01*
X928500D01*
Y970511D01*
X937904Y979915D01*
X938906Y979500D01*
X941094D01*
X943115Y980337D01*
X944663Y981885D01*
X945500Y983906D01*
Y986094D01*
X944663Y988115D01*
X943115Y989663D01*
X941094Y990500D01*
X938906D01*
X936885Y989663D01*
X936810Y989588D01*
X936500D01*
X934744Y989239D01*
X933256Y988244D01*
X931500Y986489D01*
Y995464D01*
X923768Y987732D01*
X920232Y991268D01*
X927964Y999000D01*
D02*
G37*
G36*
X1040811Y983275D02*
X1033536Y976000D01*
X1040811Y968725D01*
X1042114Y970982D01*
X1043000Y974288D01*
Y977711D01*
X1042114Y981018D01*
X1040811Y983275D01*
D02*
G37*
G36*
X1019189Y983275D02*
X1017886Y981018D01*
X1017000Y977711D01*
Y974288D01*
X1017886Y970982D01*
X1019189Y968725D01*
X1026464Y976000D01*
X1019189Y983275D01*
D02*
G37*
G36*
X1475000Y1009588D02*
X980000D01*
X978244Y1009239D01*
X976756Y1008244D01*
X936756Y968244D01*
X935761Y966756D01*
X935412Y965000D01*
Y910000D01*
X935761Y908244D01*
X936756Y906756D01*
X941756Y901756D01*
X941756Y901756D01*
X943554Y899957D01*
X942832Y898877D01*
X942483Y897121D01*
Y892929D01*
X942832Y891173D01*
X943827Y889685D01*
X946756Y886756D01*
X947990Y885931D01*
X948227Y885577D01*
X949384Y884803D01*
X949465Y884787D01*
X949053Y884733D01*
X948275Y884410D01*
X954018Y878668D01*
X952250Y876900D01*
X954018Y875132D01*
X948275Y869390D01*
X949053Y869067D01*
X950750Y868844D01*
X963250D01*
X964947Y869067D01*
X965725Y869390D01*
X959982Y875132D01*
X961750Y876900D01*
X959982Y878668D01*
X965725Y884410D01*
X964947Y884733D01*
X964535Y884787D01*
X964616Y884803D01*
X965773Y885577D01*
X966547Y886734D01*
X966819Y888100D01*
Y891100D01*
X966547Y892466D01*
X965773Y893623D01*
X964616Y894397D01*
X963250Y894669D01*
X951820D01*
X951659Y894829D01*
Y895220D01*
X953670Y897231D01*
X955571D01*
X955775Y897147D01*
X957963D01*
X958166Y897231D01*
X963250D01*
X964616Y897503D01*
X965773Y898277D01*
X966547Y899434D01*
X966819Y900800D01*
Y903443D01*
X990412Y879849D01*
Y865000D01*
X990761Y863244D01*
X991756Y861756D01*
X1011756Y841756D01*
X1013244Y840761D01*
X1015000Y840412D01*
X1055000D01*
X1056756Y840761D01*
X1058244Y841756D01*
X1088244Y871756D01*
X1089239Y873244D01*
X1089588Y875000D01*
Y890000D01*
X1089239Y891756D01*
X1088244Y893244D01*
X1083244Y898244D01*
X1081756Y899239D01*
X1080000Y899588D01*
X1074654D01*
X1074250Y899669D01*
X1064670D01*
X1062107Y902231D01*
X1074250D01*
X1075616Y902503D01*
X1076676Y903212D01*
X1077800D01*
X1079556Y903561D01*
X1081044Y904556D01*
X1088244Y911756D01*
X1089239Y913244D01*
X1089588Y915000D01*
Y922073D01*
X1104915Y906747D01*
X1106403Y905752D01*
X1108159Y905403D01*
X1112261D01*
X1112453Y904434D01*
X1113227Y903277D01*
X1114384Y902503D01*
X1115750Y902231D01*
X1128250D01*
X1129616Y902503D01*
X1130773Y903277D01*
X1131547Y904434D01*
X1131819Y905800D01*
Y908800D01*
X1131547Y910166D01*
X1130773Y911323D01*
X1129616Y912097D01*
X1128250Y912369D01*
X1118670D01*
X1117803Y913235D01*
X1116315Y914230D01*
X1114559Y914579D01*
X1110060D01*
X1088244Y936394D01*
X1079227Y945412D01*
X1109150D01*
X1110906Y945761D01*
X1112181Y946613D01*
Y943900D01*
X1112453Y942534D01*
X1113227Y941377D01*
X1114384Y940603D01*
X1115750Y940331D01*
X1128250D01*
X1129616Y940603D01*
X1130773Y941377D01*
X1131547Y942534D01*
X1131819Y943900D01*
Y946900D01*
X1131547Y948266D01*
X1130773Y949423D01*
X1129616Y950197D01*
X1128250Y950469D01*
X1125470D01*
X1125418Y950520D01*
X1123396Y951358D01*
X1121208D01*
X1119187Y950520D01*
X1119135Y950469D01*
X1116107D01*
X1118670Y953031D01*
X1128250D01*
X1129616Y953303D01*
X1130773Y954077D01*
X1131547Y955234D01*
X1131819Y956600D01*
Y959600D01*
X1131547Y960966D01*
X1130773Y962123D01*
X1129616Y962897D01*
X1128250Y963169D01*
X1115750D01*
X1114384Y962897D01*
X1113227Y962123D01*
X1112453Y960966D01*
X1112181Y959600D01*
Y959520D01*
X1107250Y954588D01*
X1080452D01*
X1080583Y954903D01*
X1080806Y956600D01*
Y959600D01*
X1080583Y961297D01*
X1080260Y962075D01*
X1074518Y956332D01*
X1070982Y959868D01*
X1076725Y965610D01*
X1075947Y965933D01*
X1074250Y966156D01*
X1061750D01*
X1060053Y965933D01*
X1059275Y965610D01*
X1065018Y959868D01*
X1063250Y958100D01*
X1065018Y956332D01*
X1059275Y950590D01*
X1060053Y950267D01*
X1060465Y950213D01*
X1060384Y950197D01*
X1059227Y949423D01*
X1059173Y949344D01*
X1058144Y949139D01*
X1056656Y948144D01*
X1053100Y944588D01*
X1045311D01*
X1044298Y945601D01*
X1042702Y946523D01*
X1040922Y947000D01*
X1039078D01*
X1037298Y946523D01*
X1035702Y945601D01*
X1034399Y944298D01*
X1033477Y942702D01*
X1033000Y940922D01*
Y939078D01*
X1033477Y937298D01*
X1034399Y935702D01*
X1035702Y934399D01*
X1037298Y933477D01*
X1039078Y933000D01*
X1040922D01*
X1042702Y933477D01*
X1044298Y934399D01*
X1045311Y935412D01*
X1053747D01*
X1052775Y935009D01*
X1051228Y933462D01*
X1050391Y931441D01*
Y929253D01*
X1051228Y927231D01*
X1052775Y925684D01*
X1054797Y924847D01*
X1056985D01*
X1059006Y925684D01*
X1060553Y927231D01*
X1060711Y927612D01*
X1067500D01*
X1067598Y927631D01*
X1074250D01*
X1075616Y927903D01*
X1076773Y928677D01*
X1077547Y929834D01*
X1077819Y931200D01*
Y933843D01*
X1080412Y931249D01*
Y916900D01*
X1075900Y912388D01*
X1068500D01*
X1068401Y912369D01*
X1062107D01*
X1064670Y914931D01*
X1068782D01*
X1069423Y914666D01*
X1071610D01*
X1072252Y914931D01*
X1074250D01*
X1075616Y915203D01*
X1076773Y915977D01*
X1077547Y917134D01*
X1077819Y918500D01*
Y921500D01*
X1077547Y922866D01*
X1076773Y924023D01*
X1075616Y924797D01*
X1074250Y925069D01*
X1073053D01*
X1071610Y925666D01*
X1069423D01*
X1067980Y925069D01*
X1061750D01*
X1060384Y924797D01*
X1059227Y924023D01*
X1058453Y922866D01*
X1058181Y921500D01*
Y921420D01*
X1056349Y919588D01*
X1045311D01*
X1044298Y920601D01*
X1042702Y921523D01*
X1040922Y922000D01*
X1039078D01*
X1037298Y921523D01*
X1035702Y920601D01*
X1034399Y919298D01*
X1033477Y917702D01*
X1033000Y915922D01*
Y914078D01*
X1033477Y912298D01*
X1034399Y910702D01*
X1035702Y909399D01*
X1037298Y908477D01*
X1039078Y908000D01*
X1040922D01*
X1042702Y908477D01*
X1044298Y909399D01*
X1045311Y910412D01*
X1058250D01*
X1058674Y910496D01*
X1058453Y910166D01*
X1058181Y908800D01*
Y905800D01*
X1058446Y904470D01*
X1057850Y904588D01*
X1050311D01*
X1049298Y905601D01*
X1047702Y906523D01*
X1045922Y907000D01*
X1044078D01*
X1042298Y906523D01*
X1040702Y905601D01*
X1039399Y904298D01*
X1038477Y902702D01*
X1038000Y900922D01*
Y899078D01*
X1038477Y897298D01*
X1039399Y895702D01*
X1040702Y894399D01*
X1042298Y893477D01*
X1044078Y893000D01*
X1045922D01*
X1047702Y893477D01*
X1049298Y894399D01*
X1050311Y895412D01*
X1055949D01*
X1058181Y893180D01*
Y893100D01*
X1058453Y891734D01*
X1059227Y890577D01*
X1060384Y889803D01*
X1061750Y889531D01*
X1074250D01*
X1075616Y889803D01*
X1076527Y890412D01*
X1078100D01*
X1080412Y888100D01*
Y876900D01*
X1053100Y849588D01*
X1016900D01*
X999588Y866900D01*
Y881750D01*
X999239Y883506D01*
X998803Y884159D01*
X1000412Y882550D01*
Y870000D01*
X1000761Y868244D01*
X1001756Y866756D01*
X1016756Y851756D01*
X1018244Y850761D01*
X1020000Y850412D01*
X1035000D01*
X1036756Y850761D01*
X1038244Y851756D01*
X1063300Y876812D01*
X1067500D01*
X1067598Y876831D01*
X1074250D01*
X1075616Y877103D01*
X1076773Y877877D01*
X1077547Y879034D01*
X1077819Y880400D01*
Y883400D01*
X1077547Y884766D01*
X1076773Y885923D01*
X1075616Y886697D01*
X1074250Y886969D01*
X1064670D01*
X1063394Y888244D01*
X1061906Y889239D01*
X1060150Y889588D01*
X1055311D01*
X1054298Y890601D01*
X1052702Y891523D01*
X1050922Y892000D01*
X1049078D01*
X1047298Y891523D01*
X1045702Y890601D01*
X1044399Y889298D01*
X1043477Y887702D01*
X1043000Y885922D01*
Y884078D01*
X1043477Y882298D01*
X1044399Y880702D01*
X1045702Y879399D01*
X1047298Y878477D01*
X1049078Y878000D01*
X1050922D01*
X1051727Y878216D01*
X1033100Y859588D01*
X1021900D01*
X1009588Y871900D01*
Y884450D01*
X1009239Y886206D01*
X1008244Y887694D01*
X966819Y929120D01*
Y929200D01*
X966547Y930566D01*
X966327Y930895D01*
X966885Y930337D01*
X968906Y929500D01*
X971094D01*
X973115Y930337D01*
X974663Y931885D01*
X975500Y933906D01*
Y936094D01*
X974663Y938115D01*
X973115Y939663D01*
X971094Y940500D01*
X970989D01*
X969588Y941900D01*
Y950000D01*
X969239Y951756D01*
X968244Y953244D01*
X966801Y954688D01*
X966547Y955966D01*
X965773Y957123D01*
X964616Y957897D01*
X963250Y958169D01*
X950750D01*
X949384Y957897D01*
X948227Y957123D01*
X947453Y955966D01*
X947181Y954600D01*
Y951600D01*
X947453Y950234D01*
X948227Y949077D01*
X949384Y948303D01*
X950750Y948031D01*
X960412D01*
Y945469D01*
X950750D01*
X949384Y945197D01*
X948227Y944423D01*
X947453Y943266D01*
X947181Y941900D01*
Y938900D01*
X947453Y937534D01*
X948227Y936377D01*
X949384Y935603D01*
X950750Y935331D01*
X963180D01*
X964500Y934011D01*
Y933906D01*
X965263Y932065D01*
X964616Y932497D01*
X963250Y932769D01*
X950750D01*
X949384Y932497D01*
X948227Y931723D01*
X947453Y930566D01*
X947181Y929200D01*
Y926200D01*
X947453Y924834D01*
X948227Y923677D01*
X949384Y922903D01*
X950750Y922631D01*
X960330D01*
X962893Y920069D01*
X950750D01*
X949384Y919797D01*
X948227Y919023D01*
X947453Y917866D01*
X947181Y916500D01*
Y913500D01*
X947453Y912134D01*
X948227Y910977D01*
X949384Y910203D01*
X950750Y909931D01*
X960330D01*
X962893Y907369D01*
X959842D01*
X957963Y908147D01*
X955775D01*
X953942Y907388D01*
X949100D01*
X948244Y908244D01*
X948244Y908244D01*
X944588Y911900D01*
Y963100D01*
X981900Y1000412D01*
X1148500D01*
Y988536D01*
X1156232Y996268D01*
X1159768Y992732D01*
X1152036Y985000D01*
X1171500D01*
Y985000D01*
X1180011D01*
X1177011Y982000D01*
X1166500D01*
Y982000D01*
X1151500D01*
Y977347D01*
X1150598Y976744D01*
X1146927Y973073D01*
X1145932Y971585D01*
X1145583Y969829D01*
Y961179D01*
X1145932Y959423D01*
X1146927Y957935D01*
X1148181Y956680D01*
Y956600D01*
X1148453Y955234D01*
X1149227Y954077D01*
X1150384Y953303D01*
X1151750Y953031D01*
X1164250D01*
X1165616Y953303D01*
X1166773Y954077D01*
X1167547Y955234D01*
X1167819Y956600D01*
Y959600D01*
X1167547Y960966D01*
X1166773Y962123D01*
X1165616Y962897D01*
X1164250Y963169D01*
X1154759D01*
Y967928D01*
X1155742Y968912D01*
X1158000D01*
X1158443Y969000D01*
X1168500D01*
Y969000D01*
X1183500D01*
Y975511D01*
X1188400Y980412D01*
X1291810D01*
X1291884Y980337D01*
X1293906Y979500D01*
X1296094D01*
X1298116Y980337D01*
X1299663Y981885D01*
X1300500Y983906D01*
Y984011D01*
X1301151Y984662D01*
X1306250D01*
Y981500D01*
X1323750D01*
Y984662D01*
X1326250D01*
Y981500D01*
X1343750D01*
Y997000D01*
X1326250D01*
Y993838D01*
X1323750D01*
Y997000D01*
X1306250D01*
Y993838D01*
X1299250D01*
X1297494Y993489D01*
X1296006Y992494D01*
X1294011Y990500D01*
X1293906D01*
X1291884Y989663D01*
X1291810Y989588D01*
X1186500D01*
Y1000412D01*
X1358019D01*
Y988536D01*
X1365751Y996268D01*
X1369286Y992732D01*
X1361554Y985000D01*
X1389545D01*
X1386545Y982000D01*
X1361019D01*
Y973943D01*
X1360930Y973500D01*
Y972580D01*
X1360761Y972327D01*
X1360412Y970571D01*
Y960000D01*
X1360761Y958244D01*
X1361756Y956756D01*
X1388556Y929956D01*
X1390044Y928961D01*
X1391800Y928612D01*
X1394074D01*
X1395134Y927903D01*
X1396500Y927631D01*
X1408000D01*
X1409366Y927903D01*
X1410523Y928677D01*
X1411297Y929834D01*
X1411569Y931200D01*
Y934200D01*
X1411297Y935566D01*
X1410523Y936723D01*
X1409366Y937497D01*
X1408000Y937769D01*
X1401848D01*
X1401750Y937788D01*
X1393701D01*
X1369588Y961900D01*
Y969000D01*
X1393033D01*
Y975511D01*
X1402184Y984662D01*
X1411250D01*
Y981500D01*
X1428750D01*
Y984662D01*
X1431250D01*
Y981500D01*
X1442261D01*
X1445261Y978500D01*
X1431250D01*
Y968489D01*
X1428750Y965989D01*
Y978500D01*
X1411250D01*
Y978175D01*
X1410601Y979298D01*
X1409298Y980601D01*
X1407702Y981523D01*
X1405922Y982000D01*
X1404078D01*
X1402298Y981523D01*
X1400702Y980601D01*
X1399399Y979298D01*
X1398477Y977702D01*
X1398000Y975922D01*
Y974078D01*
X1398477Y972298D01*
X1399399Y970702D01*
X1400702Y969399D01*
X1402298Y968477D01*
X1404078Y968000D01*
X1404158D01*
X1406537Y965621D01*
Y964625D01*
X1405080Y963169D01*
X1399604D01*
X1398196Y963752D01*
X1396008D01*
X1393987Y962914D01*
X1392440Y961367D01*
X1391602Y959346D01*
Y957158D01*
X1392440Y955136D01*
X1393987Y953589D01*
X1396008Y952752D01*
X1398196D01*
X1398872Y953031D01*
X1408000D01*
X1409366Y953303D01*
X1410523Y954077D01*
X1411297Y955234D01*
X1411569Y956600D01*
Y956680D01*
X1414369Y959481D01*
X1417889Y963000D01*
X1425761D01*
X1412749Y949988D01*
X1409678D01*
X1409366Y950197D01*
X1408000Y950469D01*
X1401170D01*
X1401094Y950500D01*
X1398906D01*
X1398830Y950469D01*
X1396500D01*
X1395134Y950197D01*
X1393977Y949423D01*
X1393203Y948266D01*
X1392932Y946900D01*
Y943900D01*
X1393203Y942534D01*
X1393977Y941377D01*
X1395134Y940603D01*
X1396500Y940331D01*
X1396899D01*
X1398906Y939500D01*
X1401094D01*
X1403101Y940331D01*
X1408000D01*
X1408404Y940412D01*
X1430000D01*
X1431756Y940761D01*
X1433244Y941756D01*
X1434489Y943000D01*
X1435922D01*
X1437702Y943477D01*
X1439298Y944399D01*
X1440601Y945702D01*
X1441523Y947298D01*
X1442000Y949078D01*
Y950922D01*
X1441523Y952702D01*
X1440601Y954298D01*
X1439298Y955601D01*
X1437702Y956523D01*
X1435922Y957000D01*
X1434078D01*
X1432298Y956523D01*
X1432212Y956473D01*
X1438739Y963000D01*
X1448750D01*
Y975011D01*
X1474936Y948826D01*
X1476424Y947831D01*
X1476770Y947762D01*
Y938570D01*
X1500270D01*
Y949500D01*
X1501094D01*
X1503116Y950337D01*
X1504663Y951885D01*
X1505412Y953693D01*
Y866900D01*
X1498100Y859588D01*
X1481900D01*
X1475433Y866055D01*
X1499734D01*
X1489502Y876288D01*
X1491270Y878055D01*
X1489502Y879823D01*
X1499734Y890055D01*
X1477306D01*
X1487538Y879823D01*
X1484002Y876288D01*
X1473770Y886520D01*
Y881458D01*
X1473244Y882244D01*
X1456838Y898651D01*
Y899500D01*
X1456750Y899943D01*
Y913000D01*
X1433250D01*
Y899943D01*
X1433244Y899911D01*
X1432921Y899588D01*
X1420701D01*
X1417577Y902712D01*
X1420947D01*
X1422703Y903061D01*
X1423031Y903281D01*
X1424078Y903000D01*
X1425922D01*
X1427702Y903477D01*
X1429298Y904399D01*
X1430601Y905702D01*
X1431523Y907298D01*
X1432000Y909078D01*
Y910922D01*
X1431523Y912702D01*
X1430601Y914298D01*
X1429488Y915412D01*
X1464689D01*
X1465702Y914399D01*
X1467298Y913477D01*
X1469078Y913000D01*
X1470922D01*
X1472038Y913299D01*
X1476770Y908567D01*
Y897055D01*
X1500270D01*
Y910570D01*
Y928570D01*
X1476770D01*
Y921780D01*
X1476523Y922702D01*
X1475601Y924298D01*
X1474298Y925601D01*
X1472702Y926523D01*
X1470922Y927000D01*
X1469078D01*
X1467298Y926523D01*
X1465702Y925601D01*
X1464689Y924588D01*
X1409678D01*
X1409366Y924797D01*
X1408000Y925069D01*
X1396500D01*
X1395134Y924797D01*
X1394074Y924088D01*
X1389500D01*
X1387744Y923739D01*
X1386256Y922744D01*
X1366756Y903244D01*
X1364588Y901077D01*
Y903871D01*
X1364239Y905627D01*
X1363244Y907115D01*
X1360315Y910044D01*
X1358827Y911039D01*
X1357071Y911388D01*
X1355926D01*
X1354866Y912097D01*
X1353500Y912369D01*
X1342357D01*
X1344920Y914931D01*
X1346198D01*
X1346841Y914665D01*
X1349029D01*
X1349671Y914931D01*
X1353500D01*
X1354866Y915203D01*
X1356023Y915977D01*
X1356797Y917134D01*
X1357069Y918500D01*
Y921500D01*
X1356797Y922866D01*
X1356023Y924023D01*
X1354866Y924797D01*
X1354785Y924813D01*
X1355197Y924867D01*
X1355975Y925190D01*
X1350232Y930932D01*
X1352000Y932700D01*
X1350232Y934468D01*
X1355975Y940210D01*
X1355197Y940533D01*
X1354785Y940587D01*
X1354866Y940603D01*
X1356023Y941377D01*
X1356797Y942534D01*
X1357069Y943900D01*
Y946900D01*
X1356797Y948266D01*
X1356023Y949423D01*
X1354866Y950197D01*
X1353500Y950469D01*
X1347348D01*
X1347250Y950488D01*
X1342751D01*
X1330239Y963000D01*
X1334662D01*
Y962350D01*
X1335011Y960594D01*
X1336006Y959106D01*
X1338432Y956680D01*
Y956600D01*
X1338703Y955234D01*
X1339477Y954077D01*
X1340634Y953303D01*
X1342000Y953031D01*
X1345614D01*
X1346656Y952600D01*
X1348844D01*
X1349886Y953031D01*
X1353500D01*
X1354866Y953303D01*
X1356023Y954077D01*
X1356797Y955234D01*
X1357069Y956600D01*
Y958502D01*
X1357088Y958600D01*
Y960949D01*
X1358244Y962106D01*
X1359239Y963594D01*
X1359588Y965350D01*
Y969571D01*
X1359239Y971327D01*
X1358244Y972815D01*
X1356996Y974064D01*
X1357000Y974078D01*
Y975922D01*
X1356523Y977702D01*
X1355601Y979298D01*
X1354298Y980601D01*
X1352702Y981523D01*
X1350922Y982000D01*
X1349078D01*
X1347298Y981523D01*
X1345702Y980601D01*
X1344399Y979298D01*
X1343750Y978175D01*
Y978500D01*
X1326250D01*
Y966989D01*
X1323750Y969489D01*
Y978500D01*
X1306250D01*
Y963000D01*
X1317261D01*
X1325181Y955080D01*
X1324399Y954298D01*
X1323477Y952702D01*
X1323000Y950922D01*
Y949078D01*
X1323477Y947298D01*
X1324399Y945702D01*
X1325702Y944399D01*
X1327298Y943477D01*
X1329078Y943000D01*
X1330922D01*
X1332702Y943477D01*
X1334298Y944399D01*
X1335080Y945181D01*
X1337606Y942656D01*
X1339094Y941661D01*
X1339316Y941617D01*
X1339477Y941377D01*
X1340634Y940603D01*
X1340715Y940587D01*
X1340303Y940533D01*
X1339525Y940210D01*
X1345268Y934468D01*
X1341732Y930932D01*
X1335990Y936675D01*
X1335667Y935897D01*
X1335444Y934200D01*
Y934113D01*
X1335256Y934239D01*
X1333500Y934588D01*
X1315901D01*
X1299494Y950994D01*
X1298006Y951989D01*
X1298000Y951990D01*
Y966750D01*
X1280000D01*
Y943250D01*
X1293057D01*
X1293500Y943162D01*
X1294350D01*
X1310756Y926756D01*
X1312244Y925761D01*
X1314000Y925412D01*
X1331599D01*
X1337011Y920000D01*
X1336600Y919588D01*
X1325311D01*
X1324298Y920601D01*
X1322702Y921523D01*
X1320922Y922000D01*
X1319078D01*
X1317298Y921523D01*
X1315702Y920601D01*
X1314399Y919298D01*
X1313477Y917702D01*
X1313000Y915922D01*
Y914078D01*
X1313477Y912298D01*
X1314399Y910702D01*
X1315702Y909399D01*
X1317298Y908477D01*
X1319078Y908000D01*
X1320922D01*
X1322702Y908477D01*
X1324298Y909399D01*
X1325311Y910412D01*
X1338500D01*
X1338924Y910496D01*
X1338703Y910166D01*
X1338432Y908800D01*
Y905800D01*
X1338703Y904434D01*
X1339477Y903277D01*
X1340634Y902503D01*
X1342000Y902231D01*
X1348152D01*
X1348250Y902212D01*
X1355171D01*
X1355412Y901971D01*
Y899032D01*
X1354866Y899397D01*
X1353500Y899669D01*
X1342000D01*
X1341596Y899588D01*
X1330000D01*
X1328244Y899239D01*
X1326756Y898244D01*
X1325511Y897000D01*
X1324078D01*
X1322298Y896523D01*
X1320702Y895601D01*
X1319399Y894298D01*
X1318477Y892702D01*
X1318000Y890922D01*
Y889078D01*
X1318477Y887298D01*
X1319399Y885702D01*
X1320702Y884399D01*
X1322298Y883477D01*
X1324078Y883000D01*
X1325922D01*
X1327702Y883477D01*
X1329298Y884399D01*
X1330412Y885512D01*
Y866250D01*
X1330761Y864494D01*
X1331756Y863006D01*
X1338250Y856511D01*
Y845000D01*
X1361750D01*
Y863000D01*
X1344739D01*
X1339588Y868150D01*
Y877802D01*
X1340634Y877103D01*
X1342000Y876831D01*
X1353500D01*
X1354866Y877103D01*
X1356023Y877877D01*
X1356797Y879034D01*
X1357069Y880400D01*
Y880580D01*
X1363244Y886756D01*
X1371900Y895412D01*
X1388100D01*
X1391656Y891856D01*
X1393144Y890861D01*
X1393885Y890714D01*
X1393977Y890577D01*
X1395134Y889803D01*
X1396500Y889531D01*
X1408000D01*
X1409366Y889803D01*
X1410523Y890577D01*
X1411297Y891734D01*
X1411569Y893100D01*
Y895743D01*
X1415556Y891756D01*
X1417044Y890761D01*
X1418800Y890412D01*
X1434821D01*
X1436577Y890761D01*
X1438065Y891756D01*
X1440994Y894685D01*
X1441205Y895000D01*
X1448010D01*
X1448011Y894994D01*
X1449006Y893506D01*
X1454511Y888000D01*
X1433786D01*
X1444018Y877768D01*
X1440482Y874232D01*
X1430250Y884464D01*
Y879000D01*
X1414739D01*
X1411569Y882170D01*
Y883400D01*
X1411297Y884766D01*
X1410523Y885923D01*
X1409366Y886697D01*
X1408000Y886969D01*
X1396500D01*
X1395134Y886697D01*
X1393977Y885923D01*
X1393203Y884766D01*
X1392932Y883400D01*
Y880400D01*
X1393203Y879034D01*
X1393977Y877877D01*
X1395134Y877103D01*
X1396500Y876831D01*
X1403930D01*
X1408250Y872511D01*
Y861000D01*
X1423010D01*
X1423011Y860994D01*
X1424006Y859506D01*
X1429511Y854000D01*
X1408786D01*
X1419018Y843768D01*
X1415482Y840232D01*
X1405250Y850464D01*
Y834830D01*
X1404035Y834211D01*
X1398942Y830510D01*
X1398483Y830052D01*
X1425000Y803536D01*
X1451517Y830052D01*
X1451058Y830510D01*
X1445965Y834211D01*
X1440355Y837069D01*
X1434750Y838891D01*
Y848761D01*
X1470412Y813100D01*
Y776900D01*
X1448100Y754588D01*
X1416900D01*
X1407429Y764060D01*
X1409645Y762931D01*
X1415633Y760985D01*
X1421852Y760000D01*
X1428148D01*
X1434367Y760985D01*
X1440355Y762931D01*
X1445965Y765789D01*
X1451058Y769490D01*
X1451517Y769948D01*
X1423232Y798232D01*
X1394948Y826516D01*
X1394490Y826058D01*
X1390789Y820965D01*
X1387930Y815355D01*
X1385985Y809367D01*
X1385000Y803148D01*
Y796852D01*
X1385985Y790633D01*
X1387930Y784645D01*
X1390789Y779035D01*
X1394020Y774588D01*
X1373307D01*
X1375116Y775337D01*
X1376663Y776885D01*
X1377500Y778906D01*
Y781094D01*
X1376663Y783115D01*
X1375116Y784663D01*
X1373094Y785500D01*
X1372447D01*
X1369703Y788244D01*
X1368215Y789239D01*
X1366459Y789588D01*
X1360000D01*
X1358244Y789239D01*
X1356756Y788244D01*
X1353100Y784588D01*
X1349000D01*
Y798500D01*
Y814000D01*
X1361214D01*
X1350982Y824232D01*
X1352750Y826000D01*
X1350982Y827768D01*
X1361214Y838000D01*
X1338786D01*
X1349018Y827768D01*
X1345482Y824232D01*
X1335250Y834464D01*
Y821500D01*
X1333535D01*
X1341268Y813768D01*
X1337732Y810232D01*
X1330000Y817964D01*
Y798500D01*
Y789989D01*
X1327000Y792989D01*
Y801500D01*
Y818500D01*
X1318943D01*
X1318500Y818588D01*
X1318401D01*
X1316283Y820705D01*
X1314795Y821700D01*
X1313039Y822049D01*
X1308897D01*
X1308590Y821988D01*
X1302500D01*
X1302401Y821969D01*
X1295750D01*
X1294384Y821697D01*
X1293227Y820923D01*
X1292453Y819766D01*
X1292181Y818400D01*
Y815400D01*
X1292453Y814034D01*
X1293227Y812877D01*
X1294384Y812103D01*
X1295750Y811831D01*
X1308250D01*
X1309616Y812103D01*
X1310768Y812873D01*
X1311138D01*
X1313256Y810756D01*
X1314000Y810258D01*
Y801500D01*
Y786500D01*
X1320511D01*
X1330256Y776756D01*
X1331744Y775761D01*
X1333500Y775412D01*
X1355000D01*
X1356756Y775761D01*
X1358244Y776756D01*
X1361900Y780412D01*
X1364558D01*
X1366808Y778162D01*
X1367337Y776885D01*
X1368884Y775337D01*
X1370693Y774588D01*
X1370000D01*
X1368244Y774239D01*
X1366756Y773244D01*
X1346756Y753244D01*
X1345761Y751756D01*
X1345412Y750000D01*
Y661900D01*
X1344273Y660761D01*
X1343982Y660703D01*
X1342493Y659709D01*
X1340796Y658012D01*
X1340150D01*
X1338128Y657175D01*
X1336581Y655627D01*
X1335744Y653606D01*
Y653332D01*
X1335580Y653169D01*
X1330750D01*
X1329386Y652897D01*
X1338244Y661756D01*
X1339239Y663244D01*
X1339588Y665000D01*
Y695000D01*
X1339239Y696756D01*
X1338244Y698244D01*
X1288244Y748244D01*
X1286756Y749239D01*
X1285000Y749588D01*
X1266900D01*
X1238244Y778244D01*
X1238244Y778244D01*
X1230793Y785696D01*
X1229305Y786690D01*
X1227549Y787039D01*
X1219878D01*
X1239594Y806756D01*
X1244670Y811831D01*
X1254250D01*
X1255616Y812103D01*
X1256773Y812877D01*
X1257547Y814034D01*
X1257819Y815400D01*
Y818400D01*
X1257547Y819766D01*
X1256773Y820923D01*
X1255616Y821697D01*
X1254250Y821969D01*
X1241750D01*
X1240384Y821697D01*
X1239227Y820923D01*
X1238453Y819766D01*
X1238181Y818400D01*
Y818320D01*
X1234449Y814588D01*
X1220311D01*
X1219298Y815601D01*
X1217702Y816523D01*
X1215922Y817000D01*
X1214078D01*
X1212298Y816523D01*
X1210702Y815601D01*
X1209399Y814298D01*
X1208477Y812702D01*
X1208000Y810922D01*
Y809078D01*
X1208477Y807298D01*
X1209399Y805702D01*
X1210702Y804399D01*
X1212298Y803477D01*
X1214078Y803000D01*
X1215922D01*
X1217702Y803477D01*
X1219298Y804399D01*
X1220311Y805412D01*
X1225273D01*
X1214449Y794588D01*
X1165000D01*
X1163244Y794239D01*
X1161756Y793244D01*
X1136784Y768273D01*
X1137000Y769078D01*
Y770922D01*
X1136523Y772702D01*
X1135601Y774298D01*
X1134298Y775601D01*
X1132702Y776523D01*
X1130922Y777000D01*
X1129078D01*
X1127298Y776523D01*
X1125702Y775601D01*
X1124588Y774488D01*
Y790000D01*
X1124239Y791756D01*
X1123244Y793244D01*
X1115079Y801410D01*
X1115533Y801147D01*
X1117949Y800500D01*
X1120451D01*
X1122867Y801147D01*
X1125033Y802398D01*
X1126802Y804167D01*
X1128053Y806333D01*
X1128700Y808749D01*
Y811251D01*
X1128053Y813667D01*
X1126802Y815833D01*
X1125033Y817602D01*
X1122867Y818853D01*
X1120451Y819500D01*
X1117949D01*
X1115533Y818853D01*
X1113367Y817602D01*
X1111598Y815833D01*
X1110879Y814588D01*
X1101900D01*
X1079588Y836900D01*
Y841937D01*
X1083787Y846136D01*
Y837160D01*
X1091519Y844892D01*
X1095055Y841357D01*
X1087322Y833625D01*
X1118251D01*
X1110519Y841357D01*
X1112287Y843125D01*
X1110519Y844893D01*
X1118251Y852625D01*
X1090275D01*
X1093276Y855625D01*
X1118787D01*
Y857536D01*
X1127071D01*
X1128827Y857886D01*
X1130315Y858880D01*
X1133244Y861809D01*
X1134239Y863298D01*
X1134588Y865054D01*
Y878650D01*
X1134239Y880406D01*
X1133244Y881894D01*
X1131819Y883320D01*
Y883400D01*
X1131547Y884766D01*
X1130773Y885923D01*
X1129616Y886697D01*
X1128250Y886969D01*
X1115750D01*
X1114384Y886697D01*
X1113227Y885923D01*
X1112453Y884766D01*
X1112181Y883400D01*
Y880400D01*
X1112453Y879034D01*
X1113227Y877877D01*
X1114384Y877103D01*
X1115750Y876831D01*
X1125330D01*
X1125412Y876749D01*
Y866954D01*
X1125171Y866713D01*
X1118787D01*
Y868625D01*
X1086787D01*
Y862113D01*
X1071756Y847082D01*
X1070761Y845594D01*
X1070412Y843838D01*
Y835000D01*
X1070761Y833244D01*
X1071756Y831756D01*
X1088923Y814588D01*
X1019627D01*
X975971Y858244D01*
X974482Y859239D01*
X972726Y859588D01*
X885000D01*
X883244Y859239D01*
X881756Y858244D01*
X846756Y823244D01*
X845761Y821756D01*
X845412Y820000D01*
Y768500D01*
X843500D01*
Y757989D01*
X839056Y753544D01*
X838061Y752056D01*
X837712Y750300D01*
Y744500D01*
X834300D01*
Y720500D01*
X843811D01*
X851866Y712445D01*
X851866Y712445D01*
X876250Y688061D01*
Y672500D01*
X860236D01*
X869468Y663268D01*
X865932Y659732D01*
X856700Y668964D01*
Y646036D01*
X865932Y655268D01*
X869468Y651732D01*
X860236Y642500D01*
X876250D01*
Y635039D01*
X871564Y630353D01*
X869148Y631000D01*
X866252D01*
X863454Y630250D01*
X860946Y628802D01*
X858898Y626754D01*
X857450Y624246D01*
X856700Y621448D01*
Y618552D01*
X857450Y615754D01*
X858898Y613246D01*
X860946Y611198D01*
X863454Y609750D01*
X866252Y609000D01*
X869148D01*
X871946Y609750D01*
X874454Y611198D01*
X876502Y613246D01*
X877950Y615754D01*
X878700Y618552D01*
Y621448D01*
X878053Y623864D01*
X884082Y629894D01*
X885077Y631382D01*
X885426Y633138D01*
Y689962D01*
X885077Y691718D01*
X884082Y693206D01*
X859789Y717500D01*
X875164D01*
X865932Y726732D01*
X869468Y730268D01*
X878700Y721036D01*
Y743964D01*
X869468Y734732D01*
X867700Y736500D01*
X865932Y734732D01*
X856700Y743964D01*
Y720589D01*
X850300Y726989D01*
Y744500D01*
X846888D01*
Y748400D01*
X849989Y751500D01*
X856500D01*
Y768500D01*
X854588D01*
Y818100D01*
X886900Y850412D01*
X970826D01*
X1004318Y816920D01*
X971286D01*
X979018Y809188D01*
X977250Y807420D01*
X979018Y805652D01*
X971286Y797920D01*
X999158D01*
X996158Y794920D01*
X970750D01*
Y792517D01*
X967929D01*
X966173Y792168D01*
X964685Y791173D01*
X963953Y790441D01*
X964015Y790633D01*
X965000Y796852D01*
Y803148D01*
X964015Y809367D01*
X962069Y815355D01*
X959211Y820965D01*
X955510Y826058D01*
X955052Y826516D01*
X928536Y800000D01*
X955052Y773484D01*
X955510Y773942D01*
X959211Y779035D01*
X960412Y781392D01*
Y776350D01*
X960761Y774594D01*
X961756Y773106D01*
X963181Y771680D01*
Y771600D01*
X963453Y770234D01*
X964227Y769077D01*
X965384Y768303D01*
X966750Y768031D01*
X979250D01*
X980616Y768303D01*
X981773Y769077D01*
X982547Y770234D01*
X982819Y771600D01*
Y774600D01*
X982547Y775966D01*
X981773Y777123D01*
X980616Y777897D01*
X979250Y778169D01*
X969670D01*
X969588Y778251D01*
Y783100D01*
X969829Y783341D01*
X970750D01*
Y781920D01*
X1002646D01*
Y788431D01*
X1019627Y805412D01*
X1098100D01*
X1115412Y788100D01*
Y779000D01*
X1093500D01*
Y779000D01*
X1082036D01*
X1089768Y771268D01*
X1088000Y769500D01*
X1089768Y767732D01*
X1082036Y760000D01*
X1101500D01*
Y760000D01*
X1110011D01*
X1107011Y757000D01*
X1096500D01*
Y757000D01*
X1081500D01*
Y749635D01*
X1076756Y744891D01*
X1075761Y743402D01*
X1075412Y741646D01*
Y735000D01*
X1075761Y733244D01*
X1076756Y731756D01*
X1078156Y730356D01*
X1078547Y730095D01*
X1079227Y729077D01*
X1080384Y728303D01*
X1081750Y728031D01*
X1094250D01*
X1095616Y728303D01*
X1096773Y729077D01*
X1097547Y730234D01*
X1097819Y731600D01*
Y734600D01*
X1097547Y735966D01*
X1096773Y737123D01*
X1095616Y737897D01*
X1094250Y738169D01*
X1087598D01*
X1087500Y738188D01*
X1084588D01*
Y739746D01*
X1088842Y744000D01*
X1098500D01*
Y744000D01*
X1112511D01*
X1106756Y738244D01*
X1105761Y736756D01*
X1105412Y735000D01*
Y714150D01*
X1097819Y706557D01*
Y709200D01*
X1097547Y710566D01*
X1096773Y711723D01*
X1095616Y712497D01*
X1094250Y712769D01*
X1081750D01*
X1080384Y712497D01*
X1079227Y711723D01*
X1078453Y710566D01*
X1078181Y709200D01*
Y709120D01*
X1064561Y695500D01*
X1063906D01*
X1061885Y694663D01*
X1060337Y693115D01*
X1059500Y691094D01*
Y688906D01*
X1060337Y686885D01*
X1061885Y685337D01*
X1063906Y684500D01*
X1066094D01*
X1068115Y685337D01*
X1069663Y686885D01*
X1070186Y688147D01*
X1078181Y696143D01*
Y693500D01*
X1078453Y692134D01*
X1079227Y690977D01*
X1080384Y690203D01*
X1081750Y689931D01*
X1094250D01*
X1095616Y690203D01*
X1096773Y690977D01*
X1097547Y692134D01*
X1097819Y693500D01*
Y693580D01*
X1113244Y709006D01*
X1114239Y710494D01*
X1114588Y712250D01*
Y733100D01*
X1117483Y735994D01*
Y732929D01*
X1117832Y731173D01*
X1118827Y729685D01*
X1130856Y717656D01*
X1132344Y716661D01*
X1133143Y716502D01*
X1133227Y716377D01*
X1134384Y715603D01*
X1135750Y715331D01*
X1148250D01*
X1149616Y715603D01*
X1150773Y716377D01*
X1151547Y717534D01*
X1151819Y718900D01*
Y721900D01*
X1151547Y723266D01*
X1150773Y724423D01*
X1149616Y725197D01*
X1148250Y725469D01*
X1141599D01*
X1141500Y725488D01*
X1136001D01*
X1126659Y734829D01*
Y735171D01*
X1169352Y777863D01*
X1183500D01*
Y763536D01*
X1191232Y771268D01*
X1194768Y767732D01*
X1187036Y760000D01*
X1206500D01*
Y760000D01*
X1217964D01*
X1210232Y767732D01*
X1213768Y771268D01*
X1221500Y763536D01*
Y777863D01*
X1225648D01*
X1231756Y771756D01*
X1231756Y771756D01*
X1261756Y741756D01*
X1263244Y740761D01*
X1265000Y740412D01*
X1283100D01*
X1330412Y693100D01*
Y666900D01*
X1311756Y648244D01*
X1310761Y646756D01*
X1310412Y645000D01*
Y635000D01*
X1310761Y633244D01*
X1311756Y631756D01*
X1323667Y619845D01*
X1325155Y618850D01*
X1326911Y618501D01*
X1328490D01*
X1329384Y617903D01*
X1330750Y617631D01*
X1343250D01*
X1344616Y617903D01*
X1345773Y618677D01*
X1346547Y619834D01*
X1346819Y621200D01*
Y624200D01*
X1346547Y625566D01*
X1345773Y626723D01*
X1344616Y627497D01*
X1343250Y627769D01*
X1330750D01*
X1330290Y627677D01*
X1328812D01*
X1324532Y631957D01*
X1324704D01*
X1325895Y631161D01*
X1327651Y630812D01*
X1329072D01*
X1329384Y630603D01*
X1330750Y630331D01*
X1343250D01*
X1344616Y630603D01*
X1345773Y631377D01*
X1346547Y632534D01*
X1346819Y633900D01*
Y636900D01*
X1346547Y638266D01*
X1345773Y639423D01*
X1344616Y640197D01*
X1343250Y640469D01*
X1330750D01*
X1330334Y640386D01*
X1330256Y640573D01*
X1328709Y642120D01*
X1326688Y642957D01*
X1324500D01*
X1322478Y642120D01*
X1320931Y640573D01*
X1320094Y638551D01*
Y636395D01*
X1319588Y636900D01*
Y643100D01*
X1327453Y650964D01*
X1327181Y649600D01*
Y646600D01*
X1327453Y645234D01*
X1328227Y644077D01*
X1329384Y643303D01*
X1330750Y643031D01*
X1343250D01*
X1344616Y643303D01*
X1345773Y644077D01*
X1346547Y645234D01*
X1346819Y646600D01*
Y649600D01*
X1346577Y650815D01*
X1347929Y652168D01*
X1348220Y652226D01*
X1349709Y653220D01*
X1353244Y656756D01*
X1354239Y658244D01*
X1354588Y660000D01*
Y748100D01*
X1371900Y765412D01*
X1393100D01*
X1399335Y759177D01*
X1369886D01*
X1377618Y751444D01*
X1375850Y749677D01*
X1377618Y747909D01*
X1369886Y740177D01*
X1400574D01*
X1392842Y747909D01*
X1396378Y751444D01*
X1404110Y743712D01*
Y754401D01*
X1411756Y746756D01*
X1413244Y745761D01*
X1415000Y745412D01*
X1450000D01*
X1451756Y745761D01*
X1453244Y746756D01*
X1478244Y771756D01*
X1479239Y773244D01*
X1479588Y775000D01*
Y815000D01*
X1479239Y816756D01*
X1478244Y818244D01*
X1450669Y845819D01*
X1451523Y847298D01*
X1452000Y849078D01*
Y850922D01*
X1451523Y852702D01*
X1450601Y854298D01*
X1449298Y855601D01*
X1447702Y856523D01*
X1445922Y857000D01*
X1444078D01*
X1442298Y856523D01*
X1440819Y855669D01*
X1432489Y864000D01*
X1456214D01*
X1445982Y874232D01*
X1449518Y877768D01*
X1459750Y867536D01*
Y882761D01*
X1465412Y877100D01*
Y865000D01*
X1465761Y863244D01*
X1466756Y861756D01*
X1476756Y851756D01*
X1478244Y850761D01*
X1480000Y850412D01*
X1500000D01*
X1501756Y850761D01*
X1503244Y851756D01*
X1513244Y861756D01*
X1514239Y863244D01*
X1514588Y865000D01*
Y970000D01*
X1514239Y971756D01*
X1513244Y973244D01*
X1478244Y1008244D01*
X1476756Y1009239D01*
X1475000Y1009588D01*
D02*
G37*
G36*
X1030000Y972465D02*
X1022725Y965189D01*
X1024982Y963886D01*
X1028288Y963000D01*
X1031712D01*
X1035018Y963886D01*
X1037275Y965189D01*
X1030000Y972465D01*
D02*
G37*
G36*
X1269464Y969750D02*
X1252535D01*
X1261000Y961285D01*
X1269464Y969750D01*
D02*
G37*
G36*
X1230922Y972000D02*
X1229078D01*
X1227298Y971523D01*
X1225702Y970601D01*
X1224399Y969298D01*
X1224014Y968632D01*
X1222693D01*
X1220938Y968282D01*
X1219449Y967288D01*
X1215330Y963169D01*
X1205750D01*
X1204384Y962897D01*
X1203227Y962123D01*
X1202453Y960966D01*
X1202181Y959600D01*
Y959520D01*
X1198827Y956165D01*
X1197832Y954677D01*
X1197483Y952921D01*
Y947929D01*
X1197832Y946173D01*
X1198827Y944685D01*
X1201756Y941756D01*
X1203244Y940761D01*
X1205000Y940412D01*
X1205346D01*
X1205750Y940331D01*
X1209865D01*
X1210906Y939900D01*
X1213094D01*
X1214136Y940331D01*
X1218250D01*
X1219616Y940603D01*
X1220773Y941377D01*
X1221547Y942534D01*
X1221819Y943900D01*
Y946900D01*
X1221547Y948266D01*
X1220773Y949423D01*
X1219616Y950197D01*
X1218250Y950469D01*
X1214136D01*
X1213094Y950900D01*
X1210906D01*
X1209865Y950469D01*
X1206659D01*
Y951021D01*
X1208670Y953031D01*
X1218250D01*
X1219616Y953303D01*
X1220773Y954077D01*
X1221547Y955234D01*
X1221819Y956600D01*
Y956680D01*
X1224594Y959455D01*
X1225645D01*
X1225702Y959399D01*
X1227298Y958477D01*
X1229078Y958000D01*
X1230922D01*
X1232702Y958477D01*
X1234298Y959399D01*
X1235601Y960702D01*
X1236523Y962298D01*
X1237000Y964078D01*
Y965922D01*
X1236523Y967702D01*
X1235601Y969298D01*
X1234298Y970601D01*
X1232702Y971523D01*
X1230922Y972000D01*
D02*
G37*
G36*
X1055740Y962075D02*
X1055417Y961297D01*
X1055194Y959600D01*
Y956600D01*
X1055417Y954903D01*
X1055740Y954125D01*
X1059715Y958100D01*
X1055740Y962075D01*
D02*
G37*
G36*
X1249000Y966214D02*
Y943785D01*
X1259232Y954018D01*
X1261000Y952250D01*
X1262768Y954018D01*
X1273000Y943785D01*
Y966214D01*
X1262768Y955982D01*
X1261000Y957750D01*
X1259232Y955982D01*
X1249000Y966214D01*
D02*
G37*
G36*
X1164250Y950469D02*
X1151750D01*
X1150384Y950197D01*
X1149227Y949423D01*
X1148453Y948266D01*
X1148181Y946900D01*
Y943900D01*
X1148453Y942534D01*
X1149227Y941377D01*
X1150384Y940603D01*
X1151750Y940331D01*
X1164250D01*
X1165616Y940603D01*
X1166773Y941377D01*
X1167547Y942534D01*
X1167819Y943900D01*
Y946900D01*
X1167547Y948266D01*
X1166773Y949423D01*
X1165616Y950197D01*
X1164250Y950469D01*
D02*
G37*
G36*
X1261000Y948714D02*
X1252536Y940250D01*
X1269464D01*
X1261000Y948714D01*
D02*
G37*
G36*
X909250Y945469D02*
X896750D01*
X895384Y945197D01*
X894227Y944423D01*
X893453Y943266D01*
X893181Y941900D01*
Y938900D01*
X893453Y937534D01*
X894227Y936377D01*
X895384Y935603D01*
X896750Y935331D01*
X909250D01*
X910616Y935603D01*
X911773Y936377D01*
X912547Y937534D01*
X912819Y938900D01*
Y941900D01*
X912547Y943266D01*
X911773Y944423D01*
X910616Y945197D01*
X909250Y945469D01*
D02*
G37*
G36*
X1359510Y936675D02*
X1355535Y932700D01*
X1359510Y928725D01*
X1359833Y929503D01*
X1360056Y931200D01*
Y934200D01*
X1359833Y935897D01*
X1359510Y936675D01*
D02*
G37*
G36*
X1164250Y937769D02*
X1151750D01*
X1150384Y937497D01*
X1149227Y936723D01*
X1148453Y935566D01*
X1148181Y934200D01*
Y931200D01*
X1148453Y929834D01*
X1149227Y928677D01*
X1150384Y927903D01*
X1151750Y927631D01*
X1164250D01*
X1165616Y927903D01*
X1166773Y928677D01*
X1167547Y929834D01*
X1167819Y931200D01*
Y934200D01*
X1167547Y935566D01*
X1166773Y936723D01*
X1165616Y937497D01*
X1164250Y937769D01*
D02*
G37*
G36*
X1128250D02*
X1115750D01*
X1114384Y937497D01*
X1113227Y936723D01*
X1112453Y935566D01*
X1112181Y934200D01*
Y931200D01*
X1112453Y929834D01*
X1113227Y928677D01*
X1114384Y927903D01*
X1115750Y927631D01*
X1125330D01*
X1127893Y925069D01*
X1124641D01*
X1123819Y925409D01*
X1121631D01*
X1120808Y925069D01*
X1115750D01*
X1114384Y924797D01*
X1113227Y924023D01*
X1112453Y922866D01*
X1112181Y921500D01*
Y918500D01*
X1112453Y917134D01*
X1113227Y915977D01*
X1114384Y915203D01*
X1115750Y914931D01*
X1120370D01*
X1121631Y914409D01*
X1123819D01*
X1125079Y914931D01*
X1128250D01*
X1129616Y915203D01*
X1130773Y915977D01*
X1131547Y917134D01*
X1131819Y918500D01*
Y921143D01*
X1135412Y917550D01*
Y905000D01*
X1135761Y903244D01*
X1136756Y901756D01*
X1146756Y891756D01*
X1148244Y890761D01*
X1149250Y890561D01*
X1150384Y889803D01*
X1151750Y889531D01*
X1158401D01*
X1158500Y889512D01*
X1163999D01*
X1165412Y888100D01*
Y887229D01*
X1165171Y886988D01*
X1158500D01*
X1158401Y886969D01*
X1151750D01*
X1150384Y886697D01*
X1149227Y885923D01*
X1148453Y884766D01*
X1148181Y883400D01*
Y880400D01*
X1148453Y879034D01*
X1149227Y877877D01*
X1150384Y877103D01*
X1151750Y876831D01*
X1161330D01*
X1165160Y873001D01*
X1164158Y872000D01*
X1164078D01*
X1162298Y871523D01*
X1160702Y870601D01*
X1159399Y869298D01*
X1158477Y867702D01*
X1158000Y865922D01*
Y864078D01*
X1158477Y862298D01*
X1159399Y860702D01*
X1160702Y859399D01*
X1162298Y858477D01*
X1164078Y858000D01*
X1165922D01*
X1167702Y858477D01*
X1169298Y859399D01*
X1170601Y860702D01*
X1171523Y862298D01*
X1172000Y864078D01*
Y865922D01*
X1171801Y866665D01*
X1172997Y867861D01*
X1173991Y869350D01*
X1174341Y871105D01*
Y874898D01*
X1173991Y876653D01*
X1172997Y878142D01*
X1171149Y879989D01*
X1173244Y882085D01*
X1174239Y883573D01*
X1174588Y885329D01*
Y888973D01*
X1201806Y861756D01*
X1203294Y860761D01*
X1205050Y860412D01*
X1231349D01*
X1238181Y853580D01*
Y853500D01*
X1238453Y852134D01*
X1239227Y850977D01*
X1240384Y850203D01*
X1241750Y849931D01*
X1254250D01*
X1255616Y850203D01*
X1256773Y850977D01*
X1257547Y852134D01*
X1257819Y853500D01*
Y856500D01*
X1257547Y857866D01*
X1256773Y859023D01*
X1255616Y859797D01*
X1255535Y859813D01*
X1255947Y859867D01*
X1256725Y860190D01*
X1250982Y865932D01*
X1252750Y867700D01*
X1250982Y869468D01*
X1256725Y875210D01*
X1255947Y875533D01*
X1255535Y875587D01*
X1255616Y875603D01*
X1256773Y876377D01*
X1257547Y877534D01*
X1257819Y878900D01*
Y881900D01*
X1257547Y883266D01*
X1256773Y884423D01*
X1255616Y885197D01*
X1255535Y885213D01*
X1255947Y885267D01*
X1256725Y885590D01*
X1250982Y891332D01*
X1252750Y893100D01*
X1250982Y894868D01*
X1256725Y900610D01*
X1255947Y900933D01*
X1254250Y901156D01*
X1241750D01*
X1240053Y900933D01*
X1239275Y900610D01*
X1245018Y894868D01*
X1243250Y893100D01*
X1245018Y891332D01*
X1239275Y885590D01*
X1240053Y885267D01*
X1240465Y885213D01*
X1240384Y885197D01*
X1239227Y884423D01*
X1238453Y883266D01*
X1238181Y881900D01*
Y878900D01*
X1238453Y877534D01*
X1239227Y876377D01*
X1240384Y875603D01*
X1240465Y875587D01*
X1240053Y875533D01*
X1239275Y875210D01*
X1245018Y869468D01*
X1241482Y865932D01*
X1235740Y871675D01*
X1235417Y870897D01*
X1235194Y869200D01*
Y869113D01*
X1235006Y869239D01*
X1233250Y869588D01*
X1206951D01*
X1167819Y908720D01*
Y908800D01*
X1167547Y910166D01*
X1166773Y911323D01*
X1165616Y912097D01*
X1164250Y912369D01*
X1151750D01*
X1150384Y912097D01*
X1149227Y911323D01*
X1148453Y910166D01*
X1148181Y908800D01*
Y905800D01*
X1148453Y904434D01*
X1149227Y903277D01*
X1150384Y902503D01*
X1151750Y902231D01*
X1161330D01*
X1163893Y899669D01*
X1151820D01*
X1144588Y906900D01*
Y919450D01*
X1144239Y921206D01*
X1143244Y922694D01*
X1131819Y934120D01*
Y934200D01*
X1131547Y935566D01*
X1130773Y936723D01*
X1129616Y937497D01*
X1128250Y937769D01*
D02*
G37*
G36*
X1218250D02*
X1205750D01*
X1204384Y937497D01*
X1203324Y936788D01*
X1202200D01*
X1200444Y936439D01*
X1199039Y935500D01*
X1198906D01*
X1196885Y934663D01*
X1195337Y933115D01*
X1194500Y931094D01*
Y928906D01*
X1195337Y926885D01*
X1196885Y925337D01*
X1198906Y924500D01*
X1201094D01*
X1203115Y925337D01*
X1204663Y926885D01*
X1204964Y927612D01*
X1211500D01*
X1211598Y927631D01*
X1218250D01*
X1219616Y927903D01*
X1220773Y928677D01*
X1221547Y929834D01*
X1221819Y931200D01*
Y934200D01*
X1221547Y935566D01*
X1220773Y936723D01*
X1219616Y937497D01*
X1218250Y937769D01*
D02*
G37*
G36*
X909250Y932769D02*
X896750D01*
X895384Y932497D01*
X894227Y931723D01*
X893453Y930566D01*
X893181Y929200D01*
Y926200D01*
X893453Y924834D01*
X894227Y923677D01*
X895384Y922903D01*
X896750Y922631D01*
X909250D01*
X910616Y922903D01*
X911773Y923677D01*
X912547Y924834D01*
X912819Y926200D01*
Y929200D01*
X912547Y930566D01*
X911773Y931723D01*
X910616Y932497D01*
X909250Y932769D01*
D02*
G37*
G36*
X1285316Y935000D02*
X1282684D01*
X1280140Y934318D01*
X1277860Y933002D01*
X1275998Y931140D01*
X1274681Y928860D01*
X1274000Y926317D01*
Y923683D01*
X1274681Y921140D01*
X1275998Y918860D01*
X1277860Y916998D01*
X1280140Y915682D01*
X1282684Y915000D01*
X1285316D01*
X1287860Y915682D01*
X1290140Y916998D01*
X1292002Y918860D01*
X1293318Y921140D01*
X1294000Y923683D01*
Y926317D01*
X1293318Y928860D01*
X1292002Y931140D01*
X1290140Y933002D01*
X1287860Y934318D01*
X1285316Y935000D01*
D02*
G37*
G36*
X1164250Y925069D02*
X1151750D01*
X1150384Y924797D01*
X1149227Y924023D01*
X1148453Y922866D01*
X1148181Y921500D01*
Y918500D01*
X1148453Y917134D01*
X1149227Y915977D01*
X1150384Y915203D01*
X1151750Y914931D01*
X1164250D01*
X1165616Y915203D01*
X1166773Y915977D01*
X1167547Y917134D01*
X1167819Y918500D01*
Y921500D01*
X1167547Y922866D01*
X1166773Y924023D01*
X1165616Y924797D01*
X1164250Y925069D01*
D02*
G37*
G36*
X909250Y920069D02*
X896750D01*
X895384Y919797D01*
X894227Y919023D01*
X893453Y917866D01*
X893181Y916500D01*
Y913500D01*
X893453Y912134D01*
X894227Y910977D01*
X895384Y910203D01*
X896750Y909931D01*
X909250D01*
X910616Y910203D01*
X911773Y910977D01*
X912547Y912134D01*
X912819Y913500D01*
Y916500D01*
X912547Y917866D01*
X911773Y919023D01*
X910616Y919797D01*
X909250Y920069D01*
D02*
G37*
G36*
Y907369D02*
X896750D01*
X895384Y907097D01*
X894227Y906323D01*
X893453Y905166D01*
X893181Y903800D01*
Y900800D01*
X893453Y899434D01*
X894227Y898277D01*
X895384Y897503D01*
X896750Y897231D01*
X909250D01*
X910616Y897503D01*
X911773Y898277D01*
X912547Y899434D01*
X912819Y900800D01*
Y903800D01*
X912547Y905166D01*
X911773Y906323D01*
X910616Y907097D01*
X909250Y907369D01*
D02*
G37*
G36*
X1121094Y900500D02*
X1118906D01*
X1116899Y899669D01*
X1115750D01*
X1114384Y899397D01*
X1113227Y898623D01*
X1112453Y897466D01*
X1112181Y896100D01*
Y893100D01*
X1112453Y891734D01*
X1113227Y890577D01*
X1114384Y889803D01*
X1115750Y889531D01*
X1118830D01*
X1118906Y889500D01*
X1121094D01*
X1121170Y889531D01*
X1128250D01*
X1129616Y889803D01*
X1130773Y890577D01*
X1131547Y891734D01*
X1131819Y893100D01*
Y896100D01*
X1131547Y897466D01*
X1130773Y898623D01*
X1129616Y899397D01*
X1128250Y899669D01*
X1123101D01*
X1121094Y900500D01*
D02*
G37*
G36*
X1235740Y897075D02*
X1235417Y896297D01*
X1235194Y894600D01*
Y891600D01*
X1235417Y889903D01*
X1235740Y889125D01*
X1239714Y893100D01*
X1235740Y897075D01*
D02*
G37*
G36*
X1260260Y897075D02*
X1256285Y893100D01*
X1260260Y889125D01*
X1260583Y889903D01*
X1260806Y891600D01*
Y894600D01*
X1260583Y896297D01*
X1260260Y897075D01*
D02*
G37*
G36*
X1308250Y898169D02*
X1295750D01*
X1294384Y897897D01*
X1293227Y897123D01*
X1292453Y895966D01*
X1292181Y894600D01*
Y891600D01*
X1292453Y890234D01*
X1293227Y889077D01*
X1294384Y888303D01*
X1295750Y888031D01*
X1308250D01*
X1309616Y888303D01*
X1310773Y889077D01*
X1311547Y890234D01*
X1311819Y891600D01*
Y894600D01*
X1311547Y895966D01*
X1310773Y897123D01*
X1309616Y897897D01*
X1308250Y898169D01*
D02*
G37*
G36*
X909250Y894669D02*
X896750D01*
X895384Y894397D01*
X894227Y893623D01*
X893453Y892466D01*
X893181Y891100D01*
Y888100D01*
X893453Y886734D01*
X894227Y885577D01*
X895384Y884803D01*
X896750Y884531D01*
X909250D01*
X910616Y884803D01*
X911773Y885577D01*
X912547Y886734D01*
X912819Y888100D01*
Y891100D01*
X912547Y892466D01*
X911773Y893623D01*
X910616Y894397D01*
X909250Y894669D01*
D02*
G37*
G36*
X1224260Y885875D02*
X1220285Y881900D01*
X1224260Y877925D01*
X1224583Y878703D01*
X1224806Y880400D01*
Y883400D01*
X1224583Y885097D01*
X1224260Y885875D01*
D02*
G37*
G36*
X1199740Y885875D02*
X1199417Y885097D01*
X1199194Y883400D01*
Y880400D01*
X1199417Y878703D01*
X1199740Y877925D01*
X1203715Y881900D01*
X1199740Y885875D01*
D02*
G37*
G36*
X1308250Y885469D02*
X1295750D01*
X1294384Y885197D01*
X1293227Y884423D01*
X1292453Y883266D01*
X1292181Y881900D01*
Y878900D01*
X1292453Y877534D01*
X1293227Y876377D01*
X1294384Y875603D01*
X1295750Y875331D01*
X1308250D01*
X1309616Y875603D01*
X1310773Y876377D01*
X1311547Y877534D01*
X1311819Y878900D01*
Y881900D01*
X1311547Y883266D01*
X1310773Y884423D01*
X1309616Y885197D01*
X1308250Y885469D01*
D02*
G37*
G36*
X1214309Y913533D02*
X1212121D01*
X1210099Y912695D01*
X1209773Y912369D01*
X1205750D01*
X1204384Y912097D01*
X1203227Y911323D01*
X1202453Y910166D01*
X1202181Y908800D01*
Y908720D01*
X1198827Y905365D01*
X1197832Y903877D01*
X1197483Y902121D01*
Y897929D01*
X1197832Y896173D01*
X1198827Y894685D01*
X1201756Y891756D01*
X1202990Y890931D01*
X1203227Y890577D01*
X1204384Y889803D01*
X1204465Y889787D01*
X1204053Y889733D01*
X1203275Y889410D01*
X1209018Y883668D01*
X1207250Y881900D01*
X1209018Y880132D01*
X1203275Y874390D01*
X1204053Y874067D01*
X1205750Y873844D01*
X1218250D01*
X1219947Y874067D01*
X1220725Y874390D01*
X1214982Y880132D01*
X1216750Y881900D01*
X1214982Y883668D01*
X1220725Y889410D01*
X1219947Y889733D01*
X1219535Y889787D01*
X1219616Y889803D01*
X1220773Y890577D01*
X1221547Y891734D01*
X1221819Y893100D01*
Y896100D01*
X1221547Y897466D01*
X1220773Y898623D01*
X1219616Y899397D01*
X1218250Y899669D01*
X1206820D01*
X1206659Y899829D01*
Y900221D01*
X1208670Y902231D01*
X1218250D01*
X1219616Y902503D01*
X1220773Y903277D01*
X1221547Y904434D01*
X1221819Y905800D01*
Y908800D01*
X1221547Y910166D01*
X1220773Y911323D01*
X1219616Y912097D01*
X1218250Y912369D01*
X1216657D01*
X1216330Y912695D01*
X1214309Y913533D01*
D02*
G37*
G36*
X969260Y880875D02*
X965285Y876900D01*
X969260Y872925D01*
X969583Y873703D01*
X969806Y875400D01*
Y878400D01*
X969583Y880097D01*
X969260Y880875D01*
D02*
G37*
G36*
X944740Y880875D02*
X944417Y880097D01*
X944194Y878400D01*
Y875400D01*
X944417Y873703D01*
X944740Y872925D01*
X948715Y876900D01*
X944740Y880875D01*
D02*
G37*
G36*
X909250Y881969D02*
X896750D01*
X895384Y881697D01*
X894227Y880923D01*
X893453Y879766D01*
X893181Y878400D01*
Y875400D01*
X893453Y874034D01*
X894227Y872877D01*
X895384Y872103D01*
X896750Y871831D01*
X909250D01*
X910616Y872103D01*
X911773Y872877D01*
X912547Y874034D01*
X912819Y875400D01*
Y878400D01*
X912547Y879766D01*
X911773Y880923D01*
X910616Y881697D01*
X909250Y881969D01*
D02*
G37*
G36*
X1503270Y886520D02*
X1494805Y878055D01*
X1503270Y869591D01*
Y886520D01*
D02*
G37*
G36*
X1031317Y884000D02*
X1028683D01*
X1026140Y883318D01*
X1023860Y882002D01*
X1021998Y880140D01*
X1020682Y877860D01*
X1020000Y875316D01*
Y872683D01*
X1020682Y870140D01*
X1021998Y867860D01*
X1023860Y865998D01*
X1026140Y864681D01*
X1028683Y864000D01*
X1031317D01*
X1033860Y864681D01*
X1036140Y865998D01*
X1038002Y867860D01*
X1039318Y870140D01*
X1040000Y872683D01*
Y875316D01*
X1039318Y877860D01*
X1038002Y880140D01*
X1036140Y882002D01*
X1033860Y883318D01*
X1031317Y884000D01*
D02*
G37*
G36*
X1260260Y871675D02*
X1256285Y867700D01*
X1260260Y863725D01*
X1260583Y864503D01*
X1260806Y866200D01*
Y869200D01*
X1260583Y870897D01*
X1260260Y871675D01*
D02*
G37*
G36*
X1308250Y872769D02*
X1295750D01*
X1294384Y872497D01*
X1293227Y871723D01*
X1292453Y870566D01*
X1292181Y869200D01*
Y866200D01*
X1292453Y864834D01*
X1293227Y863677D01*
X1294384Y862903D01*
X1295750Y862631D01*
X1308250D01*
X1309616Y862903D01*
X1310773Y863677D01*
X1311547Y864834D01*
X1311819Y866200D01*
Y869200D01*
X1311547Y870566D01*
X1310773Y871723D01*
X1309616Y872497D01*
X1308250Y872769D01*
D02*
G37*
G36*
Y860069D02*
X1295750D01*
X1294384Y859797D01*
X1293227Y859023D01*
X1292453Y857866D01*
X1292181Y856500D01*
Y853500D01*
X1292453Y852134D01*
X1293227Y850977D01*
X1294384Y850203D01*
X1295750Y849931D01*
X1308250D01*
X1309616Y850203D01*
X1310773Y850977D01*
X1311547Y852134D01*
X1311819Y853500D01*
Y856500D01*
X1311547Y857866D01*
X1310773Y859023D01*
X1309616Y859797D01*
X1308250Y860069D01*
D02*
G37*
G36*
Y847369D02*
X1295750D01*
X1294384Y847097D01*
X1293227Y846323D01*
X1292453Y845166D01*
X1292181Y843800D01*
Y840800D01*
X1292453Y839434D01*
X1293227Y838277D01*
X1294384Y837503D01*
X1295750Y837231D01*
X1308250D01*
X1309616Y837503D01*
X1310773Y838277D01*
X1311547Y839434D01*
X1311819Y840800D01*
Y843800D01*
X1311547Y845166D01*
X1310773Y846323D01*
X1309616Y847097D01*
X1308250Y847369D01*
D02*
G37*
G36*
X1121787Y849089D02*
X1115822Y843125D01*
X1121787Y837160D01*
Y849089D01*
D02*
G37*
G36*
X1249584Y847643D02*
X1247395D01*
X1246732Y847369D01*
X1241750D01*
X1240384Y847097D01*
X1239227Y846323D01*
X1238453Y845166D01*
X1238181Y843800D01*
Y840800D01*
X1238453Y839434D01*
X1239227Y838277D01*
X1240384Y837503D01*
X1241750Y837231D01*
X1245976D01*
X1247395Y836643D01*
X1249584D01*
X1251003Y837231D01*
X1254250D01*
X1255616Y837503D01*
X1256773Y838277D01*
X1257547Y839434D01*
X1257819Y840800D01*
Y843800D01*
X1257547Y845166D01*
X1256773Y846323D01*
X1255616Y847097D01*
X1254250Y847369D01*
X1250247D01*
X1249584Y847643D01*
D02*
G37*
G36*
X1308250Y834669D02*
X1295750D01*
X1294384Y834397D01*
X1293227Y833623D01*
X1292453Y832466D01*
X1292181Y831100D01*
Y828100D01*
X1292453Y826734D01*
X1293227Y825577D01*
X1294384Y824803D01*
X1295750Y824531D01*
X1308250D01*
X1309616Y824803D01*
X1310773Y825577D01*
X1311547Y826734D01*
X1311819Y828100D01*
Y831100D01*
X1311547Y832466D01*
X1310773Y833623D01*
X1309616Y834397D01*
X1308250Y834669D01*
D02*
G37*
G36*
X1218250Y925069D02*
X1205750D01*
X1204384Y924797D01*
X1203227Y924023D01*
X1202453Y922866D01*
X1202181Y921500D01*
Y918500D01*
X1202453Y917134D01*
X1203227Y915977D01*
X1204384Y915203D01*
X1205750Y914931D01*
X1218250D01*
X1219616Y915203D01*
X1219928Y915412D01*
X1243100D01*
X1265412Y893100D01*
Y846900D01*
X1253199Y834688D01*
X1248500D01*
X1248401Y834669D01*
X1241750D01*
X1240384Y834397D01*
X1239227Y833623D01*
X1238453Y832466D01*
X1238181Y831100D01*
Y828100D01*
X1238453Y826734D01*
X1239227Y825577D01*
X1240384Y824803D01*
X1241750Y824531D01*
X1254250D01*
X1255616Y824803D01*
X1256773Y825577D01*
X1257050Y825991D01*
X1258344Y826856D01*
X1273244Y841756D01*
X1274239Y843244D01*
X1274588Y845000D01*
Y895000D01*
X1274239Y896756D01*
X1273244Y898244D01*
X1248244Y923244D01*
X1246756Y924239D01*
X1245000Y924588D01*
X1219928D01*
X1219616Y924797D01*
X1218250Y925069D01*
D02*
G37*
G36*
X1364750Y834464D02*
X1356286Y826000D01*
X1364750Y817536D01*
Y834464D01*
D02*
G37*
G36*
X1146246Y822500D02*
X1142954D01*
X1139775Y821648D01*
X1137691Y820445D01*
X1144600Y813536D01*
X1151509Y820445D01*
X1149425Y821648D01*
X1146246Y822500D01*
D02*
G37*
G36*
X928148Y840000D02*
X921852D01*
X915633Y839015D01*
X909645Y837069D01*
X904035Y834211D01*
X898942Y830510D01*
X898484Y830052D01*
X925000Y803536D01*
X951516Y830052D01*
X951058Y830510D01*
X945965Y834211D01*
X940355Y837069D01*
X934367Y839015D01*
X928148Y840000D01*
D02*
G37*
G36*
X1155045Y816909D02*
X1148136Y810000D01*
X1155045Y803091D01*
X1156248Y805175D01*
X1157100Y808354D01*
Y811646D01*
X1156248Y814825D01*
X1155045Y816909D01*
D02*
G37*
G36*
X1134155Y816909D02*
X1132952Y814825D01*
X1132100Y811646D01*
Y808354D01*
X1132952Y805175D01*
X1134155Y803091D01*
X1141065Y810000D01*
X1134155Y816909D01*
D02*
G37*
G36*
X967750Y813384D02*
Y801456D01*
X973715Y807420D01*
X967750Y813384D01*
D02*
G37*
G36*
X1171251Y819500D02*
X1168749D01*
X1166333Y818853D01*
X1164167Y817602D01*
X1162398Y815833D01*
X1161147Y813667D01*
X1160500Y811251D01*
Y808749D01*
X1161147Y806333D01*
X1162398Y804167D01*
X1164167Y802398D01*
X1166333Y801147D01*
X1168749Y800500D01*
X1171251D01*
X1173667Y801147D01*
X1175833Y802398D01*
X1177602Y804167D01*
X1178853Y806333D01*
X1179500Y808749D01*
Y811251D01*
X1178853Y813667D01*
X1177602Y815833D01*
X1175833Y817602D01*
X1173667Y818853D01*
X1171251Y819500D01*
D02*
G37*
G36*
X1144600Y806464D02*
X1137691Y799555D01*
X1139775Y798352D01*
X1142954Y797500D01*
X1146246D01*
X1149425Y798352D01*
X1151509Y799555D01*
X1144600Y806464D01*
D02*
G37*
G36*
X1455052Y826516D02*
X1428535Y800000D01*
X1455052Y773484D01*
X1455510Y773942D01*
X1459211Y779035D01*
X1462070Y784645D01*
X1464015Y790633D01*
X1465000Y796852D01*
Y803148D01*
X1464015Y809367D01*
X1462070Y815355D01*
X1459211Y820965D01*
X1455510Y826058D01*
X1455052Y826516D01*
D02*
G37*
G36*
X894948Y826516D02*
X894490Y826058D01*
X890789Y820965D01*
X887931Y815355D01*
X885985Y809367D01*
X885000Y803148D01*
Y796852D01*
X885985Y790633D01*
X887931Y784645D01*
X890789Y779035D01*
X894490Y773942D01*
X894948Y773484D01*
X921464Y800000D01*
X894948Y826516D01*
D02*
G37*
G36*
X1033250Y778169D02*
X1020750D01*
X1019384Y777897D01*
X1018227Y777123D01*
X1017453Y775966D01*
X1017181Y774600D01*
Y771600D01*
X1017453Y770234D01*
X1018227Y769077D01*
X1019384Y768303D01*
X1020750Y768031D01*
X1033250D01*
X1034616Y768303D01*
X1035773Y769077D01*
X1036547Y770234D01*
X1036819Y771600D01*
Y774600D01*
X1036547Y775966D01*
X1035773Y777123D01*
X1034616Y777897D01*
X1033250Y778169D01*
D02*
G37*
G36*
X874965Y771500D02*
X863036D01*
X869000Y765536D01*
X874965Y771500D01*
D02*
G37*
G36*
X1304148Y786000D02*
X1301252D01*
X1298454Y785250D01*
X1295946Y783802D01*
X1293898Y781754D01*
X1292450Y779246D01*
X1291700Y776448D01*
Y773552D01*
X1292450Y770754D01*
X1293898Y768246D01*
X1295946Y766198D01*
X1298454Y764750D01*
X1301252Y764000D01*
X1304148D01*
X1306946Y764750D01*
X1309454Y766198D01*
X1311502Y768246D01*
X1312950Y770754D01*
X1313700Y773552D01*
Y776448D01*
X1312950Y779246D01*
X1311502Y781754D01*
X1309454Y783802D01*
X1306946Y785250D01*
X1304148Y786000D01*
D02*
G37*
G36*
X1278748D02*
X1275852D01*
X1273054Y785250D01*
X1270546Y783802D01*
X1268498Y781754D01*
X1267050Y779246D01*
X1266300Y776448D01*
Y773552D01*
X1267050Y770754D01*
X1268498Y768246D01*
X1270546Y766198D01*
X1273054Y764750D01*
X1275852Y764000D01*
X1278748D01*
X1281546Y764750D01*
X1284054Y766198D01*
X1286102Y768246D01*
X1287550Y770754D01*
X1288300Y773552D01*
Y776448D01*
X1287550Y779246D01*
X1286102Y781754D01*
X1284054Y783802D01*
X1281546Y785250D01*
X1278748Y786000D01*
D02*
G37*
G36*
X1078500Y775464D02*
Y763536D01*
X1084464Y769500D01*
X1078500Y775464D01*
D02*
G37*
G36*
X925000Y796464D02*
X898484Y769948D01*
X898942Y769490D01*
X904035Y765789D01*
X909645Y762931D01*
X915633Y760985D01*
X921852Y760000D01*
X928148D01*
X934367Y760985D01*
X940355Y762931D01*
X945965Y765789D01*
X951058Y769490D01*
X951516Y769948D01*
X925000Y796464D01*
D02*
G37*
G36*
X1033250Y765469D02*
X1020750D01*
X1019384Y765197D01*
X1018227Y764423D01*
X1017453Y763266D01*
X1017181Y761900D01*
Y758900D01*
X1017453Y757534D01*
X1018227Y756377D01*
X1019384Y755603D01*
X1020750Y755331D01*
X1033250D01*
X1034616Y755603D01*
X1035773Y756377D01*
X1036547Y757534D01*
X1036819Y758900D01*
Y761900D01*
X1036547Y763266D01*
X1035773Y764423D01*
X1034616Y765197D01*
X1033250Y765469D01*
D02*
G37*
G36*
X859500Y767964D02*
Y752036D01*
X867232Y759768D01*
X869000Y758000D01*
X870768Y759768D01*
X878500Y752036D01*
Y767964D01*
X870768Y760232D01*
X869000Y762000D01*
X867232Y760232D01*
X859500Y767964D01*
D02*
G37*
G36*
X869000Y754464D02*
X863036Y748500D01*
X874965D01*
X869000Y754464D01*
D02*
G37*
G36*
X1366350Y755641D02*
Y743712D01*
X1372315Y749677D01*
X1366350Y755641D01*
D02*
G37*
G36*
X875164Y747500D02*
X860236D01*
X867700Y740036D01*
X875164Y747500D01*
D02*
G37*
G36*
X1160922Y747000D02*
X1159078D01*
X1157298Y746523D01*
X1155702Y745601D01*
X1154399Y744298D01*
X1154014Y743632D01*
X1152693D01*
X1150938Y743282D01*
X1149449Y742288D01*
X1145330Y738169D01*
X1144597D01*
X1143270Y738718D01*
X1141082D01*
X1139755Y738169D01*
X1135750D01*
X1134384Y737897D01*
X1133227Y737123D01*
X1132453Y735966D01*
X1132181Y734600D01*
Y731600D01*
X1132453Y730234D01*
X1133227Y729077D01*
X1134384Y728303D01*
X1135750Y728031D01*
X1140326D01*
X1141082Y727718D01*
X1143270D01*
X1144026Y728031D01*
X1148250D01*
X1149616Y728303D01*
X1150773Y729077D01*
X1151547Y730234D01*
X1151819Y731600D01*
Y731680D01*
X1154594Y734455D01*
X1155645D01*
X1155702Y734399D01*
X1157298Y733477D01*
X1159078Y733000D01*
X1160922D01*
X1162702Y733477D01*
X1164298Y734399D01*
X1165601Y735702D01*
X1166523Y737298D01*
X1167000Y739078D01*
Y740922D01*
X1166523Y742702D01*
X1165601Y744298D01*
X1164298Y745601D01*
X1162702Y746523D01*
X1160922Y747000D01*
D02*
G37*
G36*
X948750Y752000D02*
X931250D01*
Y748838D01*
X919791D01*
X918035Y748489D01*
X916547Y747494D01*
X914553Y745500D01*
X913906D01*
X911885Y744663D01*
X910337Y743115D01*
X909500Y741094D01*
Y738906D01*
X910337Y736885D01*
X911885Y735337D01*
X913906Y734500D01*
X916094D01*
X918115Y735337D01*
X919663Y736885D01*
X920192Y738162D01*
X921692Y739662D01*
X931250D01*
Y736500D01*
X948750D01*
Y752000D01*
D02*
G37*
G36*
X1218500Y757000D02*
X1201500D01*
Y757000D01*
X1186500D01*
Y755088D01*
X1180500D01*
X1178744Y754739D01*
X1177256Y753744D01*
X1171756Y748244D01*
X1170761Y746756D01*
X1170412Y745000D01*
Y738750D01*
X1170761Y736994D01*
X1171756Y735506D01*
X1175181Y732080D01*
Y732000D01*
X1175453Y730634D01*
X1176227Y729477D01*
X1177384Y728703D01*
X1178750Y728431D01*
X1191250D01*
X1192616Y728703D01*
X1193773Y729477D01*
X1194547Y730634D01*
X1194819Y732000D01*
Y735000D01*
X1194547Y736366D01*
X1193773Y737523D01*
X1192616Y738297D01*
X1191250Y738569D01*
X1181670D01*
X1179588Y740650D01*
Y743100D01*
X1182401Y745912D01*
X1186500D01*
Y744000D01*
X1198222D01*
X1197337Y743115D01*
X1196500Y741094D01*
Y738906D01*
X1197337Y736885D01*
X1198885Y735337D01*
X1200906Y734500D01*
X1203094D01*
X1205116Y735337D01*
X1206663Y736885D01*
X1207500Y738906D01*
Y739147D01*
X1209244Y740892D01*
X1210239Y742380D01*
X1210561Y744000D01*
X1218500D01*
Y757000D01*
D02*
G37*
G36*
X1495922Y742000D02*
X1494078D01*
X1492298Y741523D01*
X1490702Y740601D01*
X1489399Y739298D01*
X1488477Y737702D01*
X1488000Y735922D01*
Y735339D01*
X1485349Y732688D01*
X1479928D01*
X1479616Y732897D01*
X1478250Y733169D01*
X1465750D01*
X1464384Y732897D01*
X1463227Y732123D01*
X1462453Y730966D01*
X1462181Y729600D01*
Y726600D01*
X1462453Y725234D01*
X1463227Y724077D01*
X1464384Y723303D01*
X1465750Y723031D01*
X1472402D01*
X1472500Y723012D01*
X1480500D01*
X1500412Y703100D01*
Y661900D01*
X1318100Y479588D01*
X1096077D01*
X1130329Y513840D01*
X1130368Y513818D01*
X1133420Y513000D01*
X1136580D01*
X1139632Y513818D01*
X1139671Y513840D01*
X1171756Y481756D01*
X1173244Y480761D01*
X1175000Y480412D01*
X1305000D01*
X1306756Y480761D01*
X1308244Y481756D01*
X1363244Y536756D01*
X1364239Y538244D01*
X1364588Y540000D01*
Y561810D01*
X1364663Y561884D01*
X1365500Y563906D01*
Y566094D01*
X1364663Y568116D01*
X1364588Y568190D01*
Y579050D01*
X1364239Y580806D01*
X1363244Y582294D01*
X1346819Y598720D01*
Y598800D01*
X1346547Y600166D01*
X1345773Y601323D01*
X1344616Y602097D01*
X1343250Y602369D01*
X1330750D01*
X1329384Y602097D01*
X1328227Y601323D01*
X1327453Y600166D01*
X1327181Y598800D01*
Y595800D01*
X1327453Y594434D01*
X1328227Y593277D01*
X1329384Y592503D01*
X1330750Y592231D01*
X1340330D01*
X1342893Y589669D01*
X1330750D01*
X1329384Y589397D01*
X1328227Y588623D01*
X1327453Y587466D01*
X1327181Y586100D01*
Y586020D01*
X1305750Y564588D01*
X1276900D01*
X1238244Y603244D01*
X1236756Y604239D01*
X1235000Y604588D01*
X1136900D01*
X1126077Y615412D01*
X1129689D01*
X1130702Y614399D01*
X1132298Y613477D01*
X1134078Y613000D01*
X1135922D01*
X1137702Y613477D01*
X1139298Y614399D01*
X1140601Y615702D01*
X1141523Y617298D01*
X1142000Y619078D01*
Y620922D01*
X1141523Y622702D01*
X1140601Y624298D01*
X1139298Y625601D01*
X1137702Y626523D01*
X1135922Y627000D01*
X1134078D01*
X1132298Y626523D01*
X1130702Y625601D01*
X1129689Y624588D01*
X1118190D01*
X1118115Y624663D01*
X1116094Y625500D01*
X1113906D01*
X1111885Y624663D01*
X1110337Y623116D01*
X1109500Y621094D01*
Y618906D01*
X1110337Y616884D01*
X1111885Y615337D01*
X1113906Y614500D01*
X1114011D01*
X1131756Y596756D01*
X1133244Y595761D01*
X1135000Y595412D01*
X1233100D01*
X1271756Y556756D01*
X1273244Y555761D01*
X1275000Y555412D01*
X1307650D01*
X1309406Y555761D01*
X1310894Y556756D01*
X1324234Y570095D01*
X1324417Y568703D01*
X1324740Y567925D01*
X1330482Y573668D01*
X1334018Y570132D01*
X1328275Y564390D01*
X1329053Y564067D01*
X1330750Y563844D01*
X1343250D01*
X1344947Y564067D01*
X1345725Y564390D01*
X1339982Y570132D01*
X1341750Y571900D01*
X1339982Y573668D01*
X1345725Y579410D01*
X1344947Y579733D01*
X1344534Y579787D01*
X1344616Y579803D01*
X1345773Y580577D01*
X1346547Y581734D01*
X1346819Y583100D01*
Y585743D01*
X1355412Y577150D01*
Y568190D01*
X1355337Y568116D01*
X1354500Y566094D01*
Y563906D01*
X1355337Y561884D01*
X1355412Y561810D01*
Y541900D01*
X1303100Y489588D01*
X1241307D01*
X1243115Y490337D01*
X1244663Y491884D01*
X1245192Y493162D01*
X1246485Y494455D01*
X1250645D01*
X1250702Y494399D01*
X1252298Y493477D01*
X1254078Y493000D01*
X1255922D01*
X1257702Y493477D01*
X1259298Y494399D01*
X1260601Y495702D01*
X1261523Y497298D01*
X1262000Y499078D01*
Y500922D01*
X1261523Y502702D01*
X1260601Y504298D01*
X1259298Y505601D01*
X1257702Y506523D01*
X1255922Y507000D01*
X1254078D01*
X1252298Y506523D01*
X1250702Y505601D01*
X1249399Y504298D01*
X1249014Y503632D01*
X1244585D01*
X1242829Y503282D01*
X1241340Y502288D01*
X1239553Y500500D01*
X1238906D01*
X1236885Y499663D01*
X1236810Y499588D01*
X1216900D01*
X1196160Y520329D01*
X1196182Y520368D01*
X1197000Y523420D01*
Y526580D01*
X1196182Y529632D01*
X1194602Y532368D01*
X1192368Y534602D01*
X1189632Y536182D01*
X1186580Y537000D01*
X1183420D01*
X1180368Y536182D01*
X1177632Y534602D01*
X1175398Y532368D01*
X1173818Y529632D01*
X1173000Y526580D01*
Y523420D01*
X1173818Y520368D01*
X1175398Y517632D01*
X1177632Y515398D01*
X1180368Y513818D01*
X1183420Y513000D01*
X1186580D01*
X1189632Y513818D01*
X1189671Y513840D01*
X1211756Y491756D01*
X1213244Y490761D01*
X1215000Y490412D01*
X1236810D01*
X1236885Y490337D01*
X1238693Y489588D01*
X1176900D01*
X1146160Y520329D01*
X1146182Y520368D01*
X1147000Y523420D01*
Y526580D01*
X1146182Y529632D01*
X1144602Y532368D01*
X1142368Y534602D01*
X1139632Y536182D01*
X1136580Y537000D01*
X1133420D01*
X1130368Y536182D01*
X1127632Y534602D01*
X1125398Y532368D01*
X1123818Y529632D01*
X1123000Y526580D01*
Y523420D01*
X1123818Y520368D01*
X1123840Y520329D01*
X1090491Y486979D01*
X1078468D01*
X1105329Y513840D01*
X1105368Y513818D01*
X1108420Y513000D01*
X1111580D01*
X1114632Y513818D01*
X1117368Y515398D01*
X1119602Y517632D01*
X1121182Y520368D01*
X1122000Y523420D01*
Y526580D01*
X1121182Y529632D01*
X1119602Y532368D01*
X1117368Y534602D01*
X1114632Y536182D01*
X1111580Y537000D01*
X1108420D01*
X1105368Y536182D01*
X1102632Y534602D01*
X1100398Y532368D01*
X1098818Y529632D01*
X1098000Y526580D01*
Y523420D01*
X1098818Y520368D01*
X1098840Y520329D01*
X1073100Y494588D01*
X1051900D01*
X1009588Y536900D01*
Y610000D01*
X1009239Y611756D01*
X1008244Y613244D01*
X990544Y630944D01*
X989056Y631939D01*
X987300Y632288D01*
X969928D01*
X969616Y632497D01*
X968250Y632769D01*
X955750D01*
X954384Y632497D01*
X953227Y631723D01*
X952453Y630566D01*
X952181Y629200D01*
Y626200D01*
X952453Y624834D01*
X953227Y623677D01*
X954384Y622903D01*
X955750Y622631D01*
X968250D01*
X969616Y622903D01*
X969928Y623112D01*
X985399D01*
X1000412Y608100D01*
Y535000D01*
X1000509Y534509D01*
X999588Y535430D01*
Y605000D01*
X999239Y606756D01*
X998244Y608244D01*
X988244Y618244D01*
X986756Y619239D01*
X985000Y619588D01*
X969928D01*
X969616Y619797D01*
X968250Y620069D01*
X955750D01*
X954384Y619797D01*
X953227Y619023D01*
X952453Y617866D01*
X952181Y616500D01*
Y613500D01*
X952453Y612134D01*
X953227Y610977D01*
X954384Y610203D01*
X955750Y609931D01*
X968250D01*
X969616Y610203D01*
X969928Y610412D01*
X983100D01*
X990412Y603100D01*
Y533530D01*
X990761Y531774D01*
X991756Y530286D01*
X1042453Y479588D01*
X1041900D01*
X963244Y558244D01*
X961756Y559239D01*
X960000Y559588D01*
X906900D01*
X895584Y570904D01*
Y626246D01*
X898181Y628843D01*
Y626200D01*
X898453Y624834D01*
X899227Y623677D01*
X900384Y622903D01*
X901750Y622631D01*
X914250D01*
X915412Y622863D01*
Y621900D01*
X913580Y620069D01*
X901750D01*
X900384Y619797D01*
X899227Y619023D01*
X898453Y617866D01*
X898181Y616500D01*
Y613500D01*
X898453Y612134D01*
X899227Y610977D01*
X900384Y610203D01*
X901750Y609931D01*
X914250D01*
X915616Y610203D01*
X916321Y610675D01*
X916756Y610761D01*
X918244Y611756D01*
X923244Y616756D01*
X954501Y648012D01*
X961500D01*
X961599Y648031D01*
X968250D01*
X969616Y648303D01*
X970773Y649077D01*
X971547Y650234D01*
X971819Y651600D01*
Y651680D01*
X974594Y654455D01*
X975645D01*
X975702Y654399D01*
X977298Y653477D01*
X979078Y653000D01*
X980922D01*
X982702Y653477D01*
X984298Y654399D01*
X985601Y655702D01*
X986523Y657298D01*
X987000Y659078D01*
Y660922D01*
X986523Y662702D01*
X985601Y664298D01*
X984298Y665601D01*
X982702Y666523D01*
X980922Y667000D01*
X979078D01*
X977298Y666523D01*
X975702Y665601D01*
X974399Y664298D01*
X974014Y663632D01*
X972693D01*
X970938Y663282D01*
X969449Y662288D01*
X965330Y658169D01*
X955750D01*
X954384Y657897D01*
X953324Y657188D01*
X952600D01*
X950844Y656839D01*
X949356Y655844D01*
X922385Y628874D01*
X920315Y630944D01*
X918827Y631939D01*
X917071Y632288D01*
X915928D01*
X915616Y632497D01*
X914250Y632769D01*
X902107D01*
X904670Y635331D01*
X914250D01*
X915616Y635603D01*
X916773Y636377D01*
X917547Y637534D01*
X917819Y638900D01*
Y641900D01*
X917547Y643266D01*
X916773Y644423D01*
X915616Y645197D01*
X914250Y645469D01*
X901750D01*
X900384Y645197D01*
X899227Y644423D01*
X898453Y643266D01*
X898181Y641900D01*
Y641820D01*
X887752Y631390D01*
X886757Y629902D01*
X886408Y628146D01*
Y569004D01*
X886757Y567248D01*
X887752Y565760D01*
X901756Y551756D01*
X903244Y550761D01*
X905000Y550412D01*
X906392D01*
X904035Y549211D01*
X898942Y545510D01*
X898484Y545052D01*
X925000Y518535D01*
X951516Y545052D01*
X951058Y545510D01*
X945965Y549211D01*
X943608Y550412D01*
X958100D01*
X1036756Y471756D01*
X1038244Y470761D01*
X1040000Y470412D01*
X1320000D01*
X1321756Y470761D01*
X1323244Y471756D01*
X1508244Y656756D01*
X1509239Y658244D01*
X1509588Y660000D01*
Y705000D01*
X1509239Y706756D01*
X1508244Y708244D01*
X1491064Y725425D01*
X1493732Y728093D01*
X1494078Y728000D01*
X1495922D01*
X1497702Y728477D01*
X1499298Y729399D01*
X1500601Y730702D01*
X1501523Y732298D01*
X1502000Y734078D01*
Y735922D01*
X1501523Y737702D01*
X1500601Y739298D01*
X1499298Y740601D01*
X1497702Y741523D01*
X1495922Y742000D01*
D02*
G37*
G36*
X979250Y765469D02*
X966750D01*
X965384Y765197D01*
X964227Y764423D01*
X963453Y763266D01*
X963181Y761900D01*
Y758900D01*
X963453Y757534D01*
X964227Y756377D01*
X965384Y755603D01*
X966750Y755331D01*
X979250D01*
X980616Y755603D01*
X980928Y755812D01*
X994949D01*
X1017181Y733580D01*
Y733500D01*
X1017453Y732134D01*
X1018227Y730977D01*
X1019384Y730203D01*
X1020750Y729931D01*
X1033250D01*
X1034616Y730203D01*
X1034928Y730412D01*
X1040000D01*
X1041756Y730761D01*
X1043244Y731756D01*
X1049489Y738000D01*
X1050922D01*
X1052702Y738477D01*
X1054298Y739399D01*
X1055601Y740702D01*
X1056523Y742298D01*
X1057000Y744078D01*
Y745922D01*
X1056523Y747702D01*
X1055601Y749298D01*
X1054298Y750601D01*
X1052702Y751523D01*
X1050922Y752000D01*
X1049078D01*
X1047298Y751523D01*
X1045702Y750601D01*
X1044399Y749298D01*
X1043477Y747702D01*
X1043000Y745922D01*
Y744489D01*
X1038100Y739588D01*
X1034928D01*
X1034616Y739797D01*
X1033250Y740069D01*
X1023670D01*
X1021107Y742631D01*
X1033250D01*
X1034616Y742903D01*
X1035773Y743677D01*
X1036547Y744834D01*
X1036819Y746200D01*
Y749200D01*
X1036547Y750566D01*
X1035773Y751723D01*
X1034616Y752497D01*
X1033250Y752769D01*
X1020750D01*
X1019384Y752497D01*
X1018227Y751723D01*
X1017453Y750566D01*
X1017181Y749200D01*
Y746557D01*
X1000094Y763644D01*
X998606Y764639D01*
X996850Y764988D01*
X980928D01*
X980616Y765197D01*
X979250Y765469D01*
D02*
G37*
G36*
X1235922Y757000D02*
X1234078D01*
X1232298Y756523D01*
X1230702Y755601D01*
X1229399Y754298D01*
X1228477Y752702D01*
X1228000Y750922D01*
Y749489D01*
X1223827Y745315D01*
X1222832Y743827D01*
X1222483Y742071D01*
Y737929D01*
X1222832Y736173D01*
X1223827Y734685D01*
X1226756Y731756D01*
X1228244Y730761D01*
X1229541Y730503D01*
X1230227Y729477D01*
X1231384Y728703D01*
X1232750Y728431D01*
X1233280D01*
X1233418Y728294D01*
X1235439Y727456D01*
X1237627D01*
X1239649Y728294D01*
X1239787Y728431D01*
X1245250D01*
X1246616Y728703D01*
X1247773Y729477D01*
X1248547Y730634D01*
X1248819Y732000D01*
Y735000D01*
X1248547Y736366D01*
X1247773Y737523D01*
X1246616Y738297D01*
X1245250Y738569D01*
X1237249D01*
X1236245Y739239D01*
X1234490Y739588D01*
X1231900D01*
X1231659Y739829D01*
Y740171D01*
X1234489Y743000D01*
X1235922D01*
X1237702Y743477D01*
X1239298Y744399D01*
X1240601Y745702D01*
X1241523Y747298D01*
X1242000Y749078D01*
Y750922D01*
X1241523Y752702D01*
X1240601Y754298D01*
X1239298Y755601D01*
X1237702Y756523D01*
X1235922Y757000D01*
D02*
G37*
G36*
X1266094Y730500D02*
X1263906D01*
X1261885Y729663D01*
X1260337Y728115D01*
X1259808Y726838D01*
X1258358Y725388D01*
X1246928D01*
X1246616Y725597D01*
X1245250Y725869D01*
X1232750D01*
X1231384Y725597D01*
X1230227Y724823D01*
X1229453Y723666D01*
X1229181Y722300D01*
Y719300D01*
X1229453Y717934D01*
X1230227Y716777D01*
X1231384Y716003D01*
X1232750Y715731D01*
X1245250D01*
X1246616Y716003D01*
X1246928Y716212D01*
X1260259D01*
X1262015Y716561D01*
X1263503Y717556D01*
X1265447Y719500D01*
X1266094D01*
X1268115Y720337D01*
X1269663Y721885D01*
X1270500Y723906D01*
Y726094D01*
X1269663Y728115D01*
X1268115Y729663D01*
X1266094Y730500D01*
D02*
G37*
G36*
X1065922Y732000D02*
X1064078D01*
X1062298Y731523D01*
X1060702Y730601D01*
X1059399Y729298D01*
X1058477Y727702D01*
X1058000Y725922D01*
Y724078D01*
X1058477Y722298D01*
X1059019Y721359D01*
X1058115Y722263D01*
X1056094Y723100D01*
X1053906D01*
X1051885Y722263D01*
X1050337Y720715D01*
X1049500Y718694D01*
Y716506D01*
X1050337Y714484D01*
X1051885Y712937D01*
X1053906Y712100D01*
X1056094D01*
X1058115Y712937D01*
X1059663Y714484D01*
X1060500Y716506D01*
Y718694D01*
X1059859Y720242D01*
X1060702Y719399D01*
X1062298Y718477D01*
X1064078Y718000D01*
X1065922D01*
X1066665Y718199D01*
X1067709Y717156D01*
X1069197Y716161D01*
X1069594Y716082D01*
X1049588Y696077D01*
Y712619D01*
X1049239Y714374D01*
X1048244Y715863D01*
X1039063Y725044D01*
X1037574Y726039D01*
X1035819Y726388D01*
X1035676D01*
X1034616Y727097D01*
X1033250Y727369D01*
X1020750D01*
X1019384Y727097D01*
X1018227Y726323D01*
X1017453Y725166D01*
X1017181Y723800D01*
Y720800D01*
X1017453Y719434D01*
X1018227Y718277D01*
X1019384Y717503D01*
X1020750Y717231D01*
X1027402D01*
X1027500Y717212D01*
X1033918D01*
X1040412Y710718D01*
Y690000D01*
Y689400D01*
X1037261Y686250D01*
X1026250D01*
Y683838D01*
X1024114D01*
X1023849Y684298D01*
X1022546Y685601D01*
X1020949Y686523D01*
X1019169Y687000D01*
X1017326D01*
X1015546Y686523D01*
X1013949Y685601D01*
X1012646Y684298D01*
X1011724Y682702D01*
X1011247Y680922D01*
Y679078D01*
X1011724Y677298D01*
X1012646Y675702D01*
X1013949Y674399D01*
X1015546Y673477D01*
X1017326Y673000D01*
X1019169D01*
X1020949Y673477D01*
X1022546Y674399D01*
X1022809Y674662D01*
X1026250D01*
Y670750D01*
X1043750D01*
Y679761D01*
X1048244Y684256D01*
X1049017Y685412D01*
X1050000D01*
X1051756Y685761D01*
X1053244Y686756D01*
X1081820Y715331D01*
X1094250D01*
X1095616Y715603D01*
X1096773Y716377D01*
X1097547Y717534D01*
X1097819Y718900D01*
Y721900D01*
X1097547Y723266D01*
X1096773Y724423D01*
X1095616Y725197D01*
X1094250Y725469D01*
X1081750D01*
X1080384Y725197D01*
X1080072Y724988D01*
X1072853D01*
X1072000Y725842D01*
Y725922D01*
X1071523Y727702D01*
X1070601Y729298D01*
X1069298Y730601D01*
X1067702Y731523D01*
X1065922Y732000D01*
D02*
G37*
G36*
X1401110Y737177D02*
X1369350D01*
Y730665D01*
X1366756Y728071D01*
X1365761Y726582D01*
X1365412Y724826D01*
Y680000D01*
X1365761Y678244D01*
X1366756Y676756D01*
X1415412Y628100D01*
Y596900D01*
X1403100Y584588D01*
X1382929D01*
X1381173Y584239D01*
X1379685Y583244D01*
X1372138Y575698D01*
X1371144Y574210D01*
X1370795Y572454D01*
Y568573D01*
X1370337Y568116D01*
X1369500Y566094D01*
Y563906D01*
X1370337Y561884D01*
X1371884Y560337D01*
X1373906Y559500D01*
X1376094D01*
X1378116Y560337D01*
X1379663Y561884D01*
X1380500Y563906D01*
Y566094D01*
X1379971Y567371D01*
Y570553D01*
X1384829Y575412D01*
X1405000D01*
X1406756Y575761D01*
X1408244Y576756D01*
X1423244Y591756D01*
X1424239Y593244D01*
X1424588Y595000D01*
Y630000D01*
X1424239Y631756D01*
X1423244Y633244D01*
X1374588Y681900D01*
Y722926D01*
X1375839Y724177D01*
X1393874D01*
X1396295Y721756D01*
X1397783Y720761D01*
X1399539Y720412D01*
X1410150D01*
X1411906Y720761D01*
X1413394Y721756D01*
X1414670Y723031D01*
X1424250D01*
X1425616Y723303D01*
X1426773Y724077D01*
X1427547Y725234D01*
X1427819Y726600D01*
Y729600D01*
X1427547Y730966D01*
X1426773Y732123D01*
X1425616Y732897D01*
X1424250Y733169D01*
X1411750D01*
X1410384Y732897D01*
X1409227Y732123D01*
X1408453Y730966D01*
X1408181Y729600D01*
Y729588D01*
X1401440D01*
X1401110Y729918D01*
Y737177D01*
D02*
G37*
G36*
X1191250Y725869D02*
X1178750D01*
X1177384Y725597D01*
X1176227Y724823D01*
X1175453Y723666D01*
X1175181Y722300D01*
Y719300D01*
X1175453Y717934D01*
X1176227Y716777D01*
X1177384Y716003D01*
X1178750Y715731D01*
X1191250D01*
X1192616Y716003D01*
X1193773Y716777D01*
X1194547Y717934D01*
X1194819Y719300D01*
Y722300D01*
X1194547Y723666D01*
X1193773Y724823D01*
X1192616Y725597D01*
X1191250Y725869D01*
D02*
G37*
G36*
X1478250Y720469D02*
X1465750D01*
X1464384Y720197D01*
X1463227Y719423D01*
X1462453Y718266D01*
X1462181Y716900D01*
Y714257D01*
X1461123Y715315D01*
X1459635Y716310D01*
X1457879Y716659D01*
X1431900D01*
X1430315Y718244D01*
X1428827Y719239D01*
X1427071Y719588D01*
X1426527D01*
X1425616Y720197D01*
X1424250Y720469D01*
X1411750D01*
X1410384Y720197D01*
X1409227Y719423D01*
X1409173Y719344D01*
X1408144Y719139D01*
X1406656Y718144D01*
X1390511Y702000D01*
X1389078D01*
X1387298Y701523D01*
X1385702Y700601D01*
X1384399Y699298D01*
X1383477Y697702D01*
X1383000Y695922D01*
Y694078D01*
X1383477Y692298D01*
X1384399Y690702D01*
X1385702Y689399D01*
X1387298Y688477D01*
X1389078Y688000D01*
X1390922D01*
X1392702Y688477D01*
X1394298Y689399D01*
X1395601Y690702D01*
X1396523Y692298D01*
X1397000Y694078D01*
Y695511D01*
X1411801Y710312D01*
X1418300D01*
X1418398Y710331D01*
X1424250D01*
X1424654Y710412D01*
X1425171D01*
X1425412Y710171D01*
Y707537D01*
X1424250Y707769D01*
X1411750D01*
X1410384Y707497D01*
X1409227Y706723D01*
X1408453Y705566D01*
X1408181Y704200D01*
Y701200D01*
X1408453Y699834D01*
X1409227Y698677D01*
X1410384Y697903D01*
X1411750Y697631D01*
X1424250D01*
X1425616Y697903D01*
X1425928Y698112D01*
X1427071D01*
X1428827Y698461D01*
X1430315Y699456D01*
X1433244Y702385D01*
X1434239Y703873D01*
X1434588Y705629D01*
Y707483D01*
X1455979D01*
X1462181Y701280D01*
Y701200D01*
X1462453Y699834D01*
X1463227Y698677D01*
X1464384Y697903D01*
X1465750Y697631D01*
X1478250D01*
X1479616Y697903D01*
X1480773Y698677D01*
X1481547Y699834D01*
X1481819Y701200D01*
Y704200D01*
X1481817Y704209D01*
X1486426Y699600D01*
Y699494D01*
X1487263Y697473D01*
X1487338Y697399D01*
Y691534D01*
X1487298Y691523D01*
X1485702Y690601D01*
X1484399Y689298D01*
X1483477Y687702D01*
X1483000Y685922D01*
Y684078D01*
X1483477Y682298D01*
X1484399Y680702D01*
X1485702Y679399D01*
X1487298Y678477D01*
X1489078Y678000D01*
X1490922D01*
X1492702Y678477D01*
X1494298Y679399D01*
X1495601Y680702D01*
X1496523Y682298D01*
X1497000Y684078D01*
Y685922D01*
X1496523Y687702D01*
X1496514Y687717D01*
Y697399D01*
X1496588Y697473D01*
X1497426Y699494D01*
Y701682D01*
X1496588Y703704D01*
X1495041Y705251D01*
X1493020Y706088D01*
X1492914D01*
X1481748Y717255D01*
X1481547Y718266D01*
X1480773Y719423D01*
X1479616Y720197D01*
X1478250Y720469D01*
D02*
G37*
G36*
X955922Y767000D02*
X954078D01*
X952298Y766523D01*
X950702Y765601D01*
X949399Y764298D01*
X948477Y762702D01*
X948000Y760922D01*
Y759078D01*
X948477Y757298D01*
X949399Y755702D01*
X950702Y754399D01*
X950841Y754318D01*
Y747821D01*
X951190Y746065D01*
X952185Y744577D01*
X960136Y736625D01*
X956756Y733244D01*
X955761Y731756D01*
X955412Y730000D01*
Y715000D01*
X955761Y713244D01*
X956756Y711756D01*
X961656Y706856D01*
X963144Y705861D01*
X964173Y705656D01*
X964227Y705577D01*
X965384Y704803D01*
X966750Y704531D01*
X979250D01*
X980616Y704803D01*
X981773Y705577D01*
X982547Y706734D01*
X982819Y708100D01*
Y711100D01*
X982547Y712466D01*
X981773Y713623D01*
X980616Y714397D01*
X979250Y714669D01*
X972598D01*
X972500Y714688D01*
X966801D01*
X964588Y716900D01*
Y718035D01*
X965384Y717503D01*
X966750Y717231D01*
X979250D01*
X980616Y717503D01*
X980928Y717712D01*
X990258D01*
X994808Y713162D01*
X995337Y711885D01*
X996885Y710337D01*
X998906Y709500D01*
X1001094D01*
X1003115Y710337D01*
X1004663Y711885D01*
X1005500Y713906D01*
Y716094D01*
X1004663Y718115D01*
X1003115Y719663D01*
X1001094Y720500D01*
X1000447D01*
X995403Y725544D01*
X993915Y726539D01*
X993175Y726686D01*
X993244Y726756D01*
X994239Y728244D01*
X994588Y730000D01*
Y742071D01*
X994239Y743827D01*
X993244Y745315D01*
X988115Y750444D01*
X986627Y751439D01*
X984871Y751788D01*
X981676D01*
X980616Y752497D01*
X979250Y752769D01*
X966750D01*
X965384Y752497D01*
X964227Y751723D01*
X963453Y750566D01*
X963181Y749200D01*
Y746557D01*
X960017Y749722D01*
Y755118D01*
X960601Y755702D01*
X961523Y757298D01*
X962000Y759078D01*
Y760922D01*
X961523Y762702D01*
X960601Y764298D01*
X959298Y765601D01*
X957702Y766523D01*
X955922Y767000D01*
D02*
G37*
G36*
X1017584Y704124D02*
X1017472Y704078D01*
X1017229Y703891D01*
X1017584Y704124D01*
D02*
G37*
G36*
X1191250Y713169D02*
X1178750D01*
X1177384Y712897D01*
X1176227Y712123D01*
X1175453Y710966D01*
X1175181Y709600D01*
Y706600D01*
X1175453Y705234D01*
X1176227Y704077D01*
X1177384Y703303D01*
X1178750Y703031D01*
X1191250D01*
X1192616Y703303D01*
X1193773Y704077D01*
X1194547Y705234D01*
X1194819Y706600D01*
Y709600D01*
X1194547Y710966D01*
X1193773Y712123D01*
X1192616Y712897D01*
X1191250Y713169D01*
D02*
G37*
G36*
X1240613Y713574D02*
X1238425D01*
X1237447Y713169D01*
X1232750D01*
X1231384Y712897D01*
X1230227Y712123D01*
X1229453Y710966D01*
X1229181Y709600D01*
Y706600D01*
X1229453Y705234D01*
X1230227Y704077D01*
X1231384Y703303D01*
X1232750Y703031D01*
X1237320D01*
X1238425Y702574D01*
X1240613D01*
X1241718Y703031D01*
X1245250D01*
X1246616Y703303D01*
X1247773Y704077D01*
X1248547Y705234D01*
X1248819Y706600D01*
Y709600D01*
X1248547Y710966D01*
X1247773Y712123D01*
X1246616Y712897D01*
X1245250Y713169D01*
X1241591D01*
X1240613Y713574D01*
D02*
G37*
G36*
X1039260Y700875D02*
X1035286Y696900D01*
X1039260Y692925D01*
X1039583Y693703D01*
X1039806Y695400D01*
Y698400D01*
X1039583Y700097D01*
X1039260Y700875D01*
D02*
G37*
G36*
X1014740Y700875D02*
X1014417Y700097D01*
X1014194Y698400D01*
Y695400D01*
X1014417Y693703D01*
X1014740Y692925D01*
X1018715Y696900D01*
X1014740Y700875D01*
D02*
G37*
G36*
X1191250Y700469D02*
X1178750D01*
X1177384Y700197D01*
X1176227Y699423D01*
X1175453Y698266D01*
X1175181Y696900D01*
Y693900D01*
X1175453Y692534D01*
X1176227Y691377D01*
X1177384Y690603D01*
X1178750Y690331D01*
X1191250D01*
X1192616Y690603D01*
X1193773Y691377D01*
X1194547Y692534D01*
X1194819Y693900D01*
Y696900D01*
X1194547Y698266D01*
X1193773Y699423D01*
X1192616Y700197D01*
X1191250Y700469D01*
D02*
G37*
G36*
X1241094Y700500D02*
X1238906D01*
X1238830Y700469D01*
X1232750D01*
X1231384Y700197D01*
X1230227Y699423D01*
X1229453Y698266D01*
X1229181Y696900D01*
Y693900D01*
X1229453Y692534D01*
X1230227Y691377D01*
X1231384Y690603D01*
X1232750Y690331D01*
X1236899D01*
X1238906Y689500D01*
X1241094D01*
X1243101Y690331D01*
X1245250D01*
X1246616Y690603D01*
X1247773Y691377D01*
X1248547Y692534D01*
X1248819Y693900D01*
Y696900D01*
X1248547Y698266D01*
X1247773Y699423D01*
X1246616Y700197D01*
X1245250Y700469D01*
X1241170D01*
X1241094Y700500D01*
D02*
G37*
G36*
X1033250Y714669D02*
X1020750D01*
X1019384Y714397D01*
X1018324Y713688D01*
X1015539D01*
X1013783Y713339D01*
X1012294Y712344D01*
X1001756Y701806D01*
X1000761Y700317D01*
X1000412Y698561D01*
Y674500D01*
X1000761Y672744D01*
X1001756Y671256D01*
X1011412Y661600D01*
Y661500D01*
X1011500Y661057D01*
Y653000D01*
X1026250D01*
Y652250D01*
X1043750D01*
Y667750D01*
X1026250D01*
Y666000D01*
X1019742D01*
X1019244Y666744D01*
X1009588Y676401D01*
Y696661D01*
X1017439Y704512D01*
X1018520D01*
X1018275Y704410D01*
X1024018Y698668D01*
X1022250Y696900D01*
X1024018Y695132D01*
X1018275Y689390D01*
X1019053Y689067D01*
X1020750Y688844D01*
X1033250D01*
X1034947Y689067D01*
X1035725Y689390D01*
X1029982Y695132D01*
X1031750Y696900D01*
X1029982Y698668D01*
X1035725Y704410D01*
X1034947Y704733D01*
X1034535Y704787D01*
X1034616Y704803D01*
X1035773Y705577D01*
X1036547Y706734D01*
X1036819Y708100D01*
Y711100D01*
X1036547Y712466D01*
X1035773Y713623D01*
X1034616Y714397D01*
X1033250Y714669D01*
D02*
G37*
G36*
X1106395Y688097D02*
X1104207D01*
X1102186Y687260D01*
X1101963Y687037D01*
X1095706D01*
X1095616Y687097D01*
X1094250Y687369D01*
X1081750D01*
X1080384Y687097D01*
X1079227Y686323D01*
X1078453Y685166D01*
X1078398Y684886D01*
X1065511Y672000D01*
X1064078D01*
X1062298Y671523D01*
X1060702Y670601D01*
X1059399Y669298D01*
X1058477Y667702D01*
X1058000Y665922D01*
Y664078D01*
X1058477Y662298D01*
X1059399Y660702D01*
X1060702Y659399D01*
X1062298Y658477D01*
X1064078Y658000D01*
X1065922D01*
X1067702Y658477D01*
X1069298Y659399D01*
X1070601Y660702D01*
X1071523Y662298D01*
X1072000Y664078D01*
Y665511D01*
X1075194Y668705D01*
Y668100D01*
X1075417Y666403D01*
X1075740Y665625D01*
X1081482Y671368D01*
X1085018Y667832D01*
X1079275Y662090D01*
X1080053Y661767D01*
X1080465Y661713D01*
X1080384Y661697D01*
X1079227Y660923D01*
X1078453Y659766D01*
X1078181Y658400D01*
Y655400D01*
X1078453Y654034D01*
X1079227Y652877D01*
X1080384Y652103D01*
X1081750Y651831D01*
X1094250D01*
X1095616Y652103D01*
X1096773Y652877D01*
X1097547Y654034D01*
X1097819Y655400D01*
Y658400D01*
X1097547Y659766D01*
X1096773Y660923D01*
X1095616Y661697D01*
X1095535Y661713D01*
X1095947Y661767D01*
X1096725Y662090D01*
X1090982Y667832D01*
X1092750Y669600D01*
X1090982Y671368D01*
X1096725Y677110D01*
X1095947Y677433D01*
X1095535Y677487D01*
X1095616Y677503D01*
X1096150Y677860D01*
X1102364D01*
X1104207Y677097D01*
X1106395D01*
X1108417Y677934D01*
X1109964Y679482D01*
X1110801Y681503D01*
Y683691D01*
X1109964Y685713D01*
X1108417Y687260D01*
X1106395Y688097D01*
D02*
G37*
G36*
X1478250Y695069D02*
X1465750D01*
X1464384Y694797D01*
X1463227Y694023D01*
X1462453Y692866D01*
X1462181Y691500D01*
Y688500D01*
X1462453Y687134D01*
X1463227Y685977D01*
X1464384Y685203D01*
X1465750Y684931D01*
X1478250D01*
X1479616Y685203D01*
X1480773Y685977D01*
X1481547Y687134D01*
X1481819Y688500D01*
Y691500D01*
X1481547Y692866D01*
X1480773Y694023D01*
X1479616Y694797D01*
X1478250Y695069D01*
D02*
G37*
G36*
X893500Y690464D02*
Y678536D01*
X899464Y684500D01*
X893500Y690464D01*
D02*
G37*
G36*
X1154260Y686275D02*
X1150286Y682300D01*
X1154260Y678325D01*
X1154583Y679103D01*
X1154806Y680800D01*
Y683800D01*
X1154583Y685497D01*
X1154260Y686275D01*
D02*
G37*
G36*
X948750Y733500D02*
X931250D01*
Y718000D01*
X931500D01*
Y710000D01*
X941557D01*
X942000Y709912D01*
X943600D01*
X950511Y703000D01*
X932036D01*
X939768Y695268D01*
X936232Y691732D01*
X928500Y699464D01*
Y694000D01*
X908500D01*
Y694000D01*
X897036D01*
X904768Y686268D01*
X903000Y684500D01*
X904768Y682732D01*
X897036Y675000D01*
X916500D01*
Y675000D01*
X927964D01*
X920232Y682732D01*
X923768Y686268D01*
X931500Y678536D01*
Y684000D01*
X947964D01*
X940232Y691732D01*
X943768Y695268D01*
X951500Y687536D01*
Y702011D01*
X959186Y694325D01*
X957712Y692851D01*
X956718Y691363D01*
X956679Y691165D01*
X955702Y690601D01*
X954399Y689298D01*
X953477Y687702D01*
X953000Y685922D01*
Y684078D01*
X953477Y682298D01*
X954399Y680702D01*
X955702Y679399D01*
X957298Y678477D01*
X959078Y678000D01*
X960922D01*
X962702Y678477D01*
X964298Y679399D01*
X965601Y680702D01*
X966523Y682298D01*
X967000Y684078D01*
Y685922D01*
X966523Y687702D01*
X966163Y688325D01*
X969670Y691831D01*
X979250D01*
X980616Y692103D01*
X981773Y692877D01*
X982547Y694034D01*
X982819Y695400D01*
Y698400D01*
X982547Y699766D01*
X981773Y700923D01*
X980616Y701697D01*
X979250Y701969D01*
X968848D01*
X968750Y701988D01*
X964501D01*
X948744Y717744D01*
X948500Y717908D01*
Y718000D01*
X948750D01*
Y733500D01*
D02*
G37*
G36*
X1245108Y688676D02*
X1242920D01*
X1240899Y687838D01*
X1240829Y687769D01*
X1232750D01*
X1231384Y687497D01*
X1230227Y686723D01*
X1229453Y685566D01*
X1229181Y684200D01*
Y681200D01*
X1229453Y679834D01*
X1230227Y678677D01*
X1231384Y677903D01*
X1232750Y677631D01*
X1245250D01*
X1246616Y677903D01*
X1247773Y678677D01*
X1248547Y679834D01*
X1248571Y679954D01*
X1248677Y680060D01*
X1249514Y682082D01*
Y684270D01*
X1248677Y686291D01*
X1247130Y687838D01*
X1245108Y688676D01*
D02*
G37*
G36*
X1306500Y685464D02*
X1300535Y679500D01*
X1306500Y673536D01*
Y685464D01*
D02*
G37*
G36*
X1268500Y685464D02*
Y673536D01*
X1274464Y679500D01*
X1268500Y685464D01*
D02*
G37*
G36*
X1478250Y682369D02*
X1465750D01*
X1464384Y682097D01*
X1463227Y681323D01*
X1462453Y680166D01*
X1462181Y678800D01*
Y675800D01*
X1462453Y674434D01*
X1463227Y673277D01*
X1464384Y672503D01*
X1465750Y672231D01*
X1478250D01*
X1479616Y672503D01*
X1480773Y673277D01*
X1481547Y674434D01*
X1481819Y675800D01*
Y678800D01*
X1481547Y680166D01*
X1480773Y681323D01*
X1479616Y682097D01*
X1478250Y682369D01*
D02*
G37*
G36*
X1424250D02*
X1411750D01*
X1410384Y682097D01*
X1409227Y681323D01*
X1408453Y680166D01*
X1408181Y678800D01*
Y675800D01*
X1408453Y674434D01*
X1409227Y673277D01*
X1410384Y672503D01*
X1411750Y672231D01*
X1424250D01*
X1425616Y672503D01*
X1426773Y673277D01*
X1427547Y674434D01*
X1427819Y675800D01*
Y678800D01*
X1427547Y680166D01*
X1426773Y681323D01*
X1425616Y682097D01*
X1424250Y682369D01*
D02*
G37*
G36*
X1100260Y673575D02*
X1096286Y669600D01*
X1100260Y665625D01*
X1100583Y666403D01*
X1100806Y668100D01*
Y671100D01*
X1100583Y672797D01*
X1100260Y673575D01*
D02*
G37*
G36*
X1424250Y669669D02*
X1411750D01*
X1410384Y669397D01*
X1409227Y668623D01*
X1408453Y667466D01*
X1408181Y666100D01*
Y663100D01*
X1408453Y661734D01*
X1409227Y660577D01*
X1410384Y659803D01*
X1411750Y659531D01*
X1424250D01*
X1425616Y659803D01*
X1426773Y660577D01*
X1427547Y661734D01*
X1427819Y663100D01*
Y666100D01*
X1427547Y667466D01*
X1426773Y668623D01*
X1425616Y669397D01*
X1424250Y669669D01*
D02*
G37*
G36*
Y695069D02*
X1411750D01*
X1410384Y694797D01*
X1409227Y694023D01*
X1408453Y692866D01*
X1408181Y691500D01*
Y688500D01*
X1408453Y687134D01*
X1409227Y685977D01*
X1410384Y685203D01*
X1411750Y684931D01*
X1423580D01*
X1444500Y664011D01*
Y663906D01*
X1445337Y661885D01*
X1446884Y660337D01*
X1448906Y659500D01*
X1451094D01*
X1453116Y660337D01*
X1454663Y661885D01*
X1455500Y663906D01*
Y666094D01*
X1454663Y668115D01*
X1453116Y669663D01*
X1451094Y670500D01*
X1450989D01*
X1428244Y693244D01*
X1426756Y694239D01*
X1426322Y694325D01*
X1425616Y694797D01*
X1424250Y695069D01*
D02*
G37*
G36*
X1148250Y712769D02*
X1135750D01*
X1134384Y712497D01*
X1134072Y712288D01*
X1127700D01*
X1125944Y711939D01*
X1124456Y710944D01*
X1116756Y703244D01*
X1115761Y701756D01*
X1115412Y700000D01*
Y655000D01*
X1115761Y653244D01*
X1116756Y651756D01*
X1126756Y641756D01*
X1128244Y640761D01*
X1130000Y640412D01*
X1245000D01*
X1246756Y640761D01*
X1248244Y641756D01*
X1263244Y656756D01*
X1264239Y658244D01*
X1264588Y660000D01*
Y688100D01*
X1271900Y695412D01*
X1285469D01*
X1284618Y694560D01*
X1283499Y692622D01*
X1282919Y690460D01*
Y689000D01*
X1272036D01*
X1279768Y681268D01*
X1278000Y679500D01*
X1279768Y677732D01*
X1272036Y670000D01*
X1283500D01*
Y670000D01*
X1302964D01*
X1295232Y677732D01*
X1297000Y679500D01*
X1295232Y681268D01*
X1302964Y689000D01*
X1299919D01*
Y690460D01*
X1299340Y692622D01*
X1298221Y694560D01*
X1297369Y695412D01*
X1308100D01*
X1320412Y683100D01*
Y671900D01*
X1303500Y654989D01*
Y667000D01*
X1288500D01*
Y667000D01*
X1271500D01*
Y663914D01*
X1270062Y663628D01*
X1268574Y662633D01*
X1266756Y660815D01*
X1265761Y659327D01*
X1265412Y657571D01*
Y651529D01*
X1265761Y649773D01*
X1266756Y648285D01*
X1269685Y645356D01*
X1271173Y644361D01*
X1272929Y644012D01*
X1274324D01*
X1275384Y643303D01*
X1276750Y643031D01*
X1289250D01*
X1290412Y643262D01*
Y640238D01*
X1289250Y640469D01*
X1286170D01*
X1286094Y640500D01*
X1283906D01*
X1283830Y640469D01*
X1276750D01*
X1275384Y640197D01*
X1274227Y639423D01*
X1273453Y638266D01*
X1273181Y636900D01*
Y634257D01*
X1269194Y638244D01*
X1267706Y639239D01*
X1265950Y639588D01*
X1105000D01*
X1103244Y639239D01*
X1101756Y638244D01*
X1089011Y625500D01*
X1088906D01*
X1086885Y624663D01*
X1085337Y623116D01*
X1084500Y621094D01*
Y618906D01*
X1085337Y616884D01*
X1086885Y615337D01*
X1088906Y614500D01*
X1089011D01*
X1094331Y609181D01*
X1093477Y607702D01*
X1093000Y605922D01*
Y604078D01*
X1093477Y602298D01*
X1094399Y600702D01*
X1095702Y599399D01*
X1097298Y598477D01*
X1099078Y598000D01*
X1100922D01*
X1102702Y598477D01*
X1104298Y599399D01*
X1105601Y600702D01*
X1106523Y602298D01*
X1107000Y604078D01*
Y605922D01*
X1106523Y607702D01*
X1105601Y609298D01*
X1104298Y610601D01*
X1103625Y610990D01*
X1103282Y612713D01*
X1102288Y614201D01*
X1096489Y620000D01*
X1106900Y630412D01*
X1264050D01*
X1273181Y621280D01*
Y621200D01*
X1273453Y619834D01*
X1274227Y618677D01*
X1275384Y617903D01*
X1276750Y617631D01*
X1289250D01*
X1290616Y617903D01*
X1291773Y618677D01*
X1292412Y619632D01*
Y613190D01*
X1292363Y613141D01*
X1291773Y614023D01*
X1290616Y614797D01*
X1289250Y615069D01*
X1276750D01*
X1275384Y614797D01*
X1275072Y614588D01*
X1268190D01*
X1268115Y614663D01*
X1266094Y615500D01*
X1263906D01*
X1261885Y614663D01*
X1260337Y613116D01*
X1259500Y611094D01*
Y608906D01*
X1260337Y606884D01*
X1261885Y605337D01*
X1263906Y604500D01*
X1266094D01*
X1268115Y605337D01*
X1268190Y605412D01*
X1275072D01*
X1275384Y605203D01*
X1276750Y604931D01*
X1289250D01*
X1290616Y605203D01*
X1291773Y605977D01*
X1292363Y606859D01*
X1293884Y605337D01*
X1295906Y604500D01*
X1298094D01*
X1300116Y605337D01*
X1301663Y606884D01*
X1302500Y608906D01*
Y611094D01*
X1301663Y613116D01*
X1301588Y613190D01*
Y623250D01*
X1301239Y625006D01*
X1300244Y626494D01*
X1299838Y626900D01*
Y639875D01*
X1299588Y641132D01*
Y654000D01*
X1302511D01*
X1301756Y653244D01*
X1300761Y651756D01*
X1300412Y650000D01*
Y630000D01*
X1300761Y628244D01*
X1301756Y626756D01*
X1321756Y606756D01*
X1323244Y605761D01*
X1325000Y605412D01*
X1329072D01*
X1329384Y605203D01*
X1330750Y604931D01*
X1343250D01*
X1344616Y605203D01*
X1345773Y605977D01*
X1346547Y607134D01*
X1346819Y608500D01*
Y611500D01*
X1346547Y612866D01*
X1345773Y614023D01*
X1344616Y614797D01*
X1343250Y615069D01*
X1330750D01*
X1329384Y614797D01*
X1329072Y614588D01*
X1326900D01*
X1309588Y631900D01*
Y648100D01*
X1328244Y666756D01*
X1329239Y668244D01*
X1329588Y670000D01*
Y685000D01*
X1329239Y686756D01*
X1328244Y688244D01*
X1313244Y703244D01*
X1311756Y704239D01*
X1310000Y704588D01*
X1270000D01*
X1268244Y704239D01*
X1266756Y703244D01*
X1256756Y693244D01*
X1255761Y691756D01*
X1255412Y690000D01*
Y661900D01*
X1251806Y658295D01*
Y658800D01*
X1251583Y660497D01*
X1251260Y661275D01*
X1245518Y655532D01*
X1241982Y659068D01*
X1247725Y664810D01*
X1246947Y665133D01*
X1246535Y665187D01*
X1246616Y665203D01*
X1247773Y665977D01*
X1248547Y667134D01*
X1248819Y668500D01*
Y671500D01*
X1248547Y672866D01*
X1247773Y674023D01*
X1246616Y674797D01*
X1245250Y675069D01*
X1232750D01*
X1231384Y674797D01*
X1230227Y674023D01*
X1229453Y672866D01*
X1229181Y671500D01*
Y668500D01*
X1229453Y667134D01*
X1230227Y665977D01*
X1231384Y665203D01*
X1231465Y665187D01*
X1231053Y665133D01*
X1230275Y664810D01*
X1236018Y659068D01*
X1234250Y657300D01*
X1236018Y655532D01*
X1230275Y649790D01*
X1230761Y649588D01*
X1151204D01*
X1151528Y649722D01*
X1152886Y650764D01*
X1153928Y652122D01*
X1154583Y653703D01*
X1154806Y655400D01*
Y658400D01*
X1154583Y660097D01*
X1154260Y660875D01*
X1148518Y655132D01*
X1144982Y658668D01*
X1150725Y664410D01*
X1149947Y664733D01*
X1149535Y664787D01*
X1149616Y664803D01*
X1150773Y665577D01*
X1151547Y666734D01*
X1151819Y668100D01*
Y671100D01*
X1151547Y672466D01*
X1150773Y673623D01*
X1149616Y674397D01*
X1149535Y674413D01*
X1149947Y674467D01*
X1150725Y674790D01*
X1144982Y680532D01*
X1146750Y682300D01*
X1144982Y684068D01*
X1150725Y689810D01*
X1149947Y690133D01*
X1149535Y690187D01*
X1149616Y690203D01*
X1149928Y690412D01*
X1153100D01*
X1158000Y685511D01*
Y684078D01*
X1158477Y682298D01*
X1159399Y680702D01*
X1160702Y679399D01*
X1162219Y678523D01*
X1162079Y678281D01*
X1161500Y676119D01*
Y673881D01*
X1162079Y671719D01*
X1162484Y671019D01*
X1168232Y676768D01*
X1171768Y673232D01*
X1166019Y667484D01*
X1166719Y667079D01*
X1168881Y666500D01*
X1171119D01*
X1173281Y667079D01*
X1175219Y668198D01*
X1175238Y668217D01*
X1175453Y667134D01*
X1176227Y665977D01*
X1177384Y665203D01*
X1178750Y664931D01*
X1191250D01*
X1192616Y665203D01*
X1193773Y665977D01*
X1194547Y667134D01*
X1194819Y668500D01*
Y671500D01*
X1194547Y672866D01*
X1193773Y674023D01*
X1192616Y674797D01*
X1191250Y675069D01*
X1178750D01*
X1178500Y675019D01*
Y676119D01*
X1178058Y677769D01*
X1178750Y677631D01*
X1191250D01*
X1192616Y677903D01*
X1193773Y678677D01*
X1194547Y679834D01*
X1194819Y681200D01*
Y684200D01*
X1194547Y685566D01*
X1193773Y686723D01*
X1192616Y687497D01*
X1191250Y687769D01*
X1178750D01*
X1177384Y687497D01*
X1176227Y686723D01*
X1175453Y685566D01*
X1175181Y684200D01*
Y681824D01*
X1173281Y682921D01*
X1171796Y683318D01*
X1172000Y684078D01*
Y685922D01*
X1171523Y687702D01*
X1170601Y689298D01*
X1169298Y690601D01*
X1167702Y691523D01*
X1165922Y692000D01*
X1164489D01*
X1158244Y698244D01*
X1156756Y699239D01*
X1155000Y699588D01*
X1149928D01*
X1149616Y699797D01*
X1148250Y700069D01*
X1135750D01*
X1134384Y699797D01*
X1134072Y699588D01*
X1133190D01*
X1133115Y699663D01*
X1131094Y700500D01*
X1128906D01*
X1126885Y699663D01*
X1125337Y698115D01*
X1124588Y696307D01*
Y698100D01*
X1129601Y703112D01*
X1134072D01*
X1134384Y702903D01*
X1135750Y702631D01*
X1145330D01*
X1146206Y701756D01*
X1147694Y700761D01*
X1149450Y700412D01*
X1159689D01*
X1160702Y699399D01*
X1162298Y698477D01*
X1164078Y698000D01*
X1165922D01*
X1167702Y698477D01*
X1169298Y699399D01*
X1170601Y700702D01*
X1171523Y702298D01*
X1172000Y704078D01*
Y705922D01*
X1171523Y707702D01*
X1170601Y709298D01*
X1169298Y710601D01*
X1167702Y711523D01*
X1165922Y712000D01*
X1164078D01*
X1162298Y711523D01*
X1160702Y710601D01*
X1159689Y709588D01*
X1151741D01*
X1151547Y710566D01*
X1150773Y711723D01*
X1149616Y712497D01*
X1148250Y712769D01*
D02*
G37*
G36*
X1226740Y661275D02*
X1226417Y660497D01*
X1226194Y658800D01*
Y655800D01*
X1226417Y654103D01*
X1226740Y653325D01*
X1230714Y657300D01*
X1226740Y661275D01*
D02*
G37*
G36*
X1191250Y662369D02*
X1178750D01*
X1177384Y662097D01*
X1176227Y661323D01*
X1175453Y660166D01*
X1175181Y658800D01*
Y655800D01*
X1175453Y654434D01*
X1176227Y653277D01*
X1177384Y652503D01*
X1178750Y652231D01*
X1191250D01*
X1192616Y652503D01*
X1193773Y653277D01*
X1194547Y654434D01*
X1194819Y655800D01*
Y658800D01*
X1194547Y660166D01*
X1193773Y661323D01*
X1192616Y662097D01*
X1191250Y662369D01*
D02*
G37*
G36*
X1459740Y655875D02*
X1459417Y655097D01*
X1459194Y653400D01*
Y650400D01*
X1459417Y648703D01*
X1459740Y647925D01*
X1463714Y651900D01*
X1459740Y655875D01*
D02*
G37*
G36*
X1484260Y655875D02*
X1480285Y651900D01*
X1484260Y647925D01*
X1484583Y648703D01*
X1484806Y650400D01*
Y653400D01*
X1484583Y655097D01*
X1484260Y655875D01*
D02*
G37*
G36*
X1424250Y656969D02*
X1411750D01*
X1410384Y656697D01*
X1409227Y655923D01*
X1408453Y654766D01*
X1408181Y653400D01*
Y650400D01*
X1408453Y649034D01*
X1409227Y647877D01*
X1410384Y647103D01*
X1411750Y646831D01*
X1424250D01*
X1425616Y647103D01*
X1426773Y647877D01*
X1427547Y649034D01*
X1427819Y650400D01*
Y653400D01*
X1427547Y654766D01*
X1426773Y655923D01*
X1425616Y656697D01*
X1424250Y656969D01*
D02*
G37*
G36*
X1478250Y669669D02*
X1465750D01*
X1464384Y669397D01*
X1463227Y668623D01*
X1462453Y667466D01*
X1462181Y666100D01*
Y663100D01*
X1462453Y661734D01*
X1463227Y660577D01*
X1464384Y659803D01*
X1464465Y659787D01*
X1464053Y659733D01*
X1463275Y659410D01*
X1469018Y653668D01*
X1467250Y651900D01*
X1469018Y650132D01*
X1463275Y644390D01*
X1464053Y644067D01*
X1465750Y643844D01*
X1478250D01*
X1479947Y644067D01*
X1480725Y644390D01*
X1474982Y650132D01*
X1476750Y651900D01*
X1474982Y653668D01*
X1480725Y659410D01*
X1479947Y659733D01*
X1479535Y659787D01*
X1479616Y659803D01*
X1480773Y660577D01*
X1481547Y661734D01*
X1481819Y663100D01*
Y666100D01*
X1481547Y667466D01*
X1480773Y668623D01*
X1479616Y669397D01*
X1478250Y669669D01*
D02*
G37*
G36*
X928500Y672000D02*
X911500D01*
Y672000D01*
X896500D01*
Y659000D01*
X901912D01*
Y658169D01*
X901750D01*
X900384Y657897D01*
X899227Y657123D01*
X898453Y655966D01*
X898181Y654600D01*
Y651600D01*
X898453Y650234D01*
X899227Y649077D01*
X900384Y648303D01*
X901750Y648031D01*
X914250D01*
X915616Y648303D01*
X916773Y649077D01*
X917547Y650234D01*
X917819Y651600D01*
Y654600D01*
X917547Y655966D01*
X916773Y657123D01*
X915616Y657897D01*
X914250Y658169D01*
X911088D01*
Y659000D01*
X913500D01*
Y659000D01*
X919924D01*
X920412Y658270D01*
Y647438D01*
X919660Y645624D01*
Y643436D01*
X920498Y641414D01*
X922045Y639867D01*
X924066Y639030D01*
X926254D01*
X928276Y639867D01*
X929823Y641414D01*
X930660Y643436D01*
Y645624D01*
X929823Y647645D01*
X929588Y647880D01*
Y660000D01*
X929239Y661756D01*
X928588Y662730D01*
Y663500D01*
X928500Y663943D01*
Y672000D01*
D02*
G37*
G36*
X1008500Y646464D02*
Y634536D01*
X1014464Y640500D01*
X1008500Y646464D01*
D02*
G37*
G36*
X1031500Y646464D02*
X1025536Y640500D01*
X1031500Y634536D01*
Y646464D01*
D02*
G37*
G36*
X1027964Y650000D02*
X1012036D01*
X1019768Y642268D01*
X1018000Y640500D01*
X1019768Y638732D01*
X1012036Y631000D01*
X1027964D01*
X1020232Y638732D01*
X1022000Y640500D01*
X1020232Y642268D01*
X1027964Y650000D01*
D02*
G37*
G36*
X1391448Y643700D02*
X1388552D01*
X1385754Y642950D01*
X1383246Y641502D01*
X1381198Y639454D01*
X1379750Y636946D01*
X1379000Y634148D01*
Y631252D01*
X1379750Y628454D01*
X1381198Y625946D01*
X1383246Y623898D01*
X1385754Y622450D01*
X1388552Y621700D01*
X1391448D01*
X1394246Y622450D01*
X1396754Y623898D01*
X1398802Y625946D01*
X1400250Y628454D01*
X1401000Y631252D01*
Y634148D01*
X1400250Y636946D01*
X1398802Y639454D01*
X1396754Y641502D01*
X1394246Y642950D01*
X1391448Y643700D01*
D02*
G37*
G36*
X1066094Y625500D02*
X1063906D01*
X1061885Y624663D01*
X1060337Y623116D01*
X1059500Y621094D01*
Y618906D01*
X1060337Y616884D01*
X1061885Y615337D01*
X1063906Y614500D01*
X1066094D01*
X1068115Y615337D01*
X1069663Y616884D01*
X1070500Y618906D01*
Y621094D01*
X1069663Y623116D01*
X1068115Y624663D01*
X1066094Y625500D01*
D02*
G37*
G36*
X1171094D02*
X1168906D01*
X1166885Y624663D01*
X1165337Y623116D01*
X1164500Y621094D01*
Y618906D01*
X1165337Y616884D01*
X1166885Y615337D01*
X1168906Y614500D01*
X1171094D01*
X1172200Y614958D01*
X1173000Y614158D01*
Y614078D01*
X1173477Y612298D01*
X1174399Y610702D01*
X1175702Y609399D01*
X1177298Y608477D01*
X1179078Y608000D01*
X1180922D01*
X1182702Y608477D01*
X1184298Y609399D01*
X1185601Y610702D01*
X1186523Y612298D01*
X1187000Y614078D01*
Y615922D01*
X1186523Y617702D01*
X1185601Y619298D01*
X1184298Y620601D01*
X1182702Y621523D01*
X1180922Y622000D01*
X1179078D01*
X1178335Y621801D01*
X1177274Y622862D01*
X1175786Y623856D01*
X1174030Y624206D01*
X1173573D01*
X1173115Y624663D01*
X1171094Y625500D01*
D02*
G37*
G36*
X963094Y607800D02*
X960906D01*
X959865Y607369D01*
X955750D01*
X954384Y607097D01*
X953227Y606323D01*
X952453Y605166D01*
X952181Y603800D01*
Y600800D01*
X952453Y599434D01*
X953227Y598277D01*
X954384Y597503D01*
X955750Y597231D01*
X959865D01*
X960906Y596800D01*
X963094D01*
X964136Y597231D01*
X968250D01*
X969616Y597503D01*
X970773Y598277D01*
X971547Y599434D01*
X971819Y600800D01*
Y603800D01*
X971547Y605166D01*
X970773Y606323D01*
X969616Y607097D01*
X968250Y607369D01*
X964136D01*
X963094Y607800D01*
D02*
G37*
G36*
X1391448Y618300D02*
X1388552D01*
X1385754Y617550D01*
X1383246Y616102D01*
X1381198Y614054D01*
X1379750Y611546D01*
X1379000Y608748D01*
Y605852D01*
X1379750Y603054D01*
X1381198Y600546D01*
X1383246Y598498D01*
X1385754Y597050D01*
X1388552Y596300D01*
X1391448D01*
X1394246Y597050D01*
X1396754Y598498D01*
X1398802Y600546D01*
X1400250Y603054D01*
X1401000Y605852D01*
Y608748D01*
X1400250Y611546D01*
X1398802Y614054D01*
X1396754Y616102D01*
X1394246Y617550D01*
X1391448Y618300D01*
D02*
G37*
G36*
X1289250Y602369D02*
X1276750D01*
X1275384Y602097D01*
X1274227Y601323D01*
X1273453Y600166D01*
X1273181Y598800D01*
Y595800D01*
X1273453Y594434D01*
X1274227Y593277D01*
X1275384Y592503D01*
X1276750Y592231D01*
X1289250D01*
X1290616Y592503D01*
X1291773Y593277D01*
X1292547Y594434D01*
X1292819Y595800D01*
Y598800D01*
X1292547Y600166D01*
X1291773Y601323D01*
X1290616Y602097D01*
X1289250Y602369D01*
D02*
G37*
G36*
X914250Y607369D02*
X901750D01*
X900384Y607097D01*
X899227Y606323D01*
X898453Y605166D01*
X898181Y603800D01*
Y600800D01*
X898453Y599434D01*
X899227Y598277D01*
X900384Y597503D01*
X901750Y597231D01*
X911330D01*
X913341Y595221D01*
Y594829D01*
X913180Y594669D01*
X901750D01*
X900384Y594397D01*
X899227Y593623D01*
X898453Y592466D01*
X898181Y591100D01*
Y588100D01*
X898453Y586734D01*
X899227Y585577D01*
X900384Y584803D01*
X901750Y584531D01*
X914250D01*
X915616Y584803D01*
X916773Y585577D01*
X917010Y585931D01*
X918244Y586756D01*
X920025Y588536D01*
X925351Y583210D01*
X926840Y582216D01*
X927756Y582033D01*
X928380Y581409D01*
X930401Y580572D01*
X932589D01*
X934611Y581409D01*
X936158Y582956D01*
X936995Y584978D01*
Y587166D01*
X936158Y589187D01*
X934611Y590734D01*
X932589Y591572D01*
X930401D01*
X930094Y591445D01*
X921173Y600365D01*
X917819Y603720D01*
Y603800D01*
X917547Y605166D01*
X916773Y606323D01*
X915616Y607097D01*
X914250Y607369D01*
D02*
G37*
G36*
X1289250Y589669D02*
X1276750D01*
X1275384Y589397D01*
X1274227Y588623D01*
X1273453Y587466D01*
X1273181Y586100D01*
Y583100D01*
X1273453Y581734D01*
X1274227Y580577D01*
X1275384Y579803D01*
X1276750Y579531D01*
X1289250D01*
X1290616Y579803D01*
X1291773Y580577D01*
X1292547Y581734D01*
X1292819Y583100D01*
Y586100D01*
X1292547Y587466D01*
X1291773Y588623D01*
X1290616Y589397D01*
X1289250Y589669D01*
D02*
G37*
G36*
X949740Y580875D02*
X949417Y580097D01*
X949194Y578400D01*
Y575400D01*
X949417Y573703D01*
X949740Y572925D01*
X953715Y576900D01*
X949740Y580875D01*
D02*
G37*
G36*
X974260Y580875D02*
X970285Y576900D01*
X974260Y572925D01*
X974583Y573703D01*
X974806Y575400D01*
Y578400D01*
X974583Y580097D01*
X974260Y580875D01*
D02*
G37*
G36*
X914250Y581969D02*
X901750D01*
X900384Y581697D01*
X899227Y580923D01*
X898453Y579766D01*
X898181Y578400D01*
Y575400D01*
X898453Y574034D01*
X899227Y572877D01*
X900384Y572103D01*
X901750Y571831D01*
X914250D01*
X915616Y572103D01*
X916773Y572877D01*
X917547Y574034D01*
X917819Y575400D01*
Y578400D01*
X917547Y579766D01*
X916773Y580923D01*
X915616Y581697D01*
X914250Y581969D01*
D02*
G37*
G36*
X846464Y576500D02*
X834536D01*
X840500Y570536D01*
X846464Y576500D01*
D02*
G37*
G36*
X968250Y594669D02*
X955750D01*
X954384Y594397D01*
X953227Y593623D01*
X952453Y592466D01*
X952181Y591100D01*
Y588100D01*
X952453Y586734D01*
X953227Y585577D01*
X954384Y584803D01*
X954465Y584787D01*
X954053Y584733D01*
X953275Y584410D01*
X959018Y578668D01*
X957250Y576900D01*
X959018Y575132D01*
X953275Y569390D01*
X954053Y569067D01*
X955750Y568844D01*
X968250D01*
X969947Y569067D01*
X970725Y569390D01*
X964982Y575132D01*
X966750Y576900D01*
X964982Y578668D01*
X970725Y584410D01*
X969947Y584733D01*
X969535Y584787D01*
X969616Y584803D01*
X970773Y585577D01*
X971547Y586734D01*
X971819Y588100D01*
Y591100D01*
X971547Y592466D01*
X970773Y593623D01*
X969616Y594397D01*
X968250Y594669D01*
D02*
G37*
G36*
X1349260Y575875D02*
X1345285Y571900D01*
X1349260Y567925D01*
X1349583Y568703D01*
X1349806Y570400D01*
Y573400D01*
X1349583Y575097D01*
X1349260Y575875D01*
D02*
G37*
G36*
X1289250Y576969D02*
X1276750D01*
X1275384Y576697D01*
X1274227Y575923D01*
X1273453Y574766D01*
X1273181Y573400D01*
Y570400D01*
X1273453Y569034D01*
X1274227Y567877D01*
X1275384Y567103D01*
X1276750Y566831D01*
X1289250D01*
X1290616Y567103D01*
X1291773Y567877D01*
X1292547Y569034D01*
X1292819Y570400D01*
Y573400D01*
X1292547Y574766D01*
X1291773Y575923D01*
X1290616Y576697D01*
X1289250Y576969D01*
D02*
G37*
G36*
X1148619Y572305D02*
X1146381D01*
X1144219Y571726D01*
X1142281Y570607D01*
X1140698Y569024D01*
X1139579Y567086D01*
X1139000Y564924D01*
Y562686D01*
X1139385Y561248D01*
X1136580Y562000D01*
X1133420D01*
X1130368Y561182D01*
X1127632Y559602D01*
X1125398Y557368D01*
X1123818Y554632D01*
X1123000Y551580D01*
Y548420D01*
X1123818Y545368D01*
X1125398Y542632D01*
X1127632Y540398D01*
X1130368Y538818D01*
X1133420Y538000D01*
X1136580D01*
X1139632Y538818D01*
X1142368Y540398D01*
X1144602Y542632D01*
X1146182Y545368D01*
X1147000Y548420D01*
Y551580D01*
X1146182Y554632D01*
X1145686Y555491D01*
X1146381Y555305D01*
X1148619D01*
X1149314Y555491D01*
X1148818Y554632D01*
X1148000Y551580D01*
Y548420D01*
X1148818Y545368D01*
X1150398Y542632D01*
X1152632Y540398D01*
X1155368Y538818D01*
X1158420Y538000D01*
X1161580D01*
X1164632Y538818D01*
X1167368Y540398D01*
X1169602Y542632D01*
X1171182Y545368D01*
X1172000Y548420D01*
Y551580D01*
X1171182Y554632D01*
X1169602Y557368D01*
X1167368Y559602D01*
X1164632Y561182D01*
X1161580Y562000D01*
X1158420D01*
X1155615Y561248D01*
X1156000Y562686D01*
Y564924D01*
X1155421Y567086D01*
X1154302Y569024D01*
X1152719Y570607D01*
X1150781Y571726D01*
X1148619Y572305D01*
D02*
G37*
G36*
X831000Y572965D02*
Y557035D01*
X838732Y564768D01*
X840500Y563000D01*
X842268Y564768D01*
X850000Y557036D01*
Y572964D01*
X842268Y565232D01*
X840500Y567000D01*
X838732Y565232D01*
X831000Y572965D01*
D02*
G37*
G36*
X840500Y559464D02*
X834536Y553500D01*
X846464D01*
X840500Y559464D01*
D02*
G37*
G36*
X1031094Y560500D02*
X1028906D01*
X1026885Y559663D01*
X1025337Y558116D01*
X1024500Y556094D01*
Y553906D01*
X1025337Y551884D01*
X1026885Y550337D01*
X1028906Y549500D01*
X1031094D01*
X1033115Y550337D01*
X1034663Y551884D01*
X1035500Y553906D01*
Y556094D01*
X1034663Y558116D01*
X1033115Y559663D01*
X1031094Y560500D01*
D02*
G37*
G36*
X837446Y551250D02*
X834154D01*
X830975Y550398D01*
X828891Y549195D01*
X835800Y542285D01*
X842709Y549195D01*
X840625Y550398D01*
X837446Y551250D01*
D02*
G37*
G36*
X1186580Y562000D02*
X1183420D01*
X1180368Y561182D01*
X1177632Y559602D01*
X1175398Y557368D01*
X1173818Y554632D01*
X1173000Y551580D01*
Y548420D01*
X1173818Y545368D01*
X1175398Y542632D01*
X1177632Y540398D01*
X1180368Y538818D01*
X1183420Y538000D01*
X1186580D01*
X1189632Y538818D01*
X1192368Y540398D01*
X1194602Y542632D01*
X1196182Y545368D01*
X1197000Y548420D01*
Y551580D01*
X1196182Y554632D01*
X1194602Y557368D01*
X1192368Y559602D01*
X1189632Y561182D01*
X1186580Y562000D01*
D02*
G37*
G36*
X1111580D02*
X1108420D01*
X1105368Y561182D01*
X1102632Y559602D01*
X1100398Y557368D01*
X1098818Y554632D01*
X1098000Y551580D01*
Y548420D01*
X1098818Y545368D01*
X1100398Y542632D01*
X1102632Y540398D01*
X1105368Y538818D01*
X1108420Y538000D01*
X1111580D01*
X1114632Y538818D01*
X1117368Y540398D01*
X1119602Y542632D01*
X1121182Y545368D01*
X1122000Y548420D01*
Y551580D01*
X1121182Y554632D01*
X1119602Y557368D01*
X1117368Y559602D01*
X1114632Y561182D01*
X1111580Y562000D01*
D02*
G37*
G36*
X1086580D02*
X1083420D01*
X1080368Y561182D01*
X1077632Y559602D01*
X1075398Y557368D01*
X1073818Y554632D01*
X1073000Y551580D01*
Y548420D01*
X1073818Y545368D01*
X1075398Y542632D01*
X1077632Y540398D01*
X1080368Y538818D01*
X1083420Y538000D01*
X1086580D01*
X1089632Y538818D01*
X1092368Y540398D01*
X1094602Y542632D01*
X1096182Y545368D01*
X1097000Y548420D01*
Y551580D01*
X1096182Y554632D01*
X1094602Y557368D01*
X1092368Y559602D01*
X1089632Y561182D01*
X1086580Y562000D01*
D02*
G37*
G36*
X1072000D02*
X1048000D01*
Y538000D01*
X1072000D01*
Y562000D01*
D02*
G37*
G36*
X846245Y545659D02*
X839335Y538750D01*
X846245Y531841D01*
X847448Y533925D01*
X848300Y537104D01*
Y540396D01*
X847448Y543575D01*
X846245Y545659D01*
D02*
G37*
G36*
X1229823Y589588D02*
X1210000D01*
X1208244Y589239D01*
X1206756Y588244D01*
X1196756Y578244D01*
X1195761Y576756D01*
X1195412Y575000D01*
Y564059D01*
X1195761Y562303D01*
X1196756Y560815D01*
X1200326Y557244D01*
X1198818Y554632D01*
X1198000Y551580D01*
Y548420D01*
X1198818Y545368D01*
X1200398Y542632D01*
X1202632Y540398D01*
X1205368Y538818D01*
X1208420Y538000D01*
X1211580D01*
X1214632Y538818D01*
X1217368Y540398D01*
X1219602Y542632D01*
X1221182Y545368D01*
X1222000Y548420D01*
Y551580D01*
X1221182Y554632D01*
X1219602Y557368D01*
X1217368Y559602D01*
X1214632Y561182D01*
X1211580Y562000D01*
X1208548D01*
X1204588Y565959D01*
Y573100D01*
X1211900Y580412D01*
X1227923D01*
X1273581Y534754D01*
Y534648D01*
X1274418Y532627D01*
X1275965Y531080D01*
X1277987Y530242D01*
X1280175D01*
X1282197Y531080D01*
X1283744Y532627D01*
X1284581Y534648D01*
Y536836D01*
X1283744Y538858D01*
X1282197Y540405D01*
X1280175Y541242D01*
X1280070D01*
X1233068Y588244D01*
X1231579Y589239D01*
X1229823Y589588D01*
D02*
G37*
G36*
X850300Y669500D02*
X834300D01*
Y645500D01*
X837712D01*
Y630053D01*
X835546Y628802D01*
X833498Y626754D01*
X832050Y624246D01*
X831300Y621448D01*
Y618552D01*
X832050Y615754D01*
X833498Y613246D01*
X835546Y611198D01*
X838054Y609750D01*
X840852Y609000D01*
X843748D01*
X846164Y609647D01*
X854912Y600900D01*
Y573500D01*
X853000D01*
Y556500D01*
X855762D01*
Y548027D01*
X855207Y547916D01*
X853305Y546646D01*
X852034Y544743D01*
X851587Y542500D01*
Y535000D01*
X852034Y532757D01*
X853305Y530854D01*
X855207Y529584D01*
X857450Y529137D01*
X864950D01*
X867194Y529584D01*
X869096Y530854D01*
X870366Y532757D01*
X870813Y535000D01*
Y542500D01*
X870366Y544743D01*
X869096Y546646D01*
X867194Y547916D01*
X864950Y548363D01*
X864938D01*
Y556500D01*
X866000D01*
Y573500D01*
X864088D01*
Y602800D01*
X863739Y604556D01*
X862744Y606044D01*
X852653Y616136D01*
X853300Y618552D01*
Y621448D01*
X852550Y624246D01*
X851102Y626754D01*
X849054Y628802D01*
X846888Y630053D01*
Y645500D01*
X850300D01*
Y669500D01*
D02*
G37*
G36*
X1236580Y562000D02*
X1233420D01*
X1230368Y561182D01*
X1227632Y559602D01*
X1225398Y557368D01*
X1223818Y554632D01*
X1223000Y551580D01*
Y548420D01*
X1223818Y545368D01*
X1225398Y542632D01*
X1227632Y540398D01*
X1229864Y539109D01*
X1227895Y538293D01*
X1226305Y537230D01*
X1235000Y528535D01*
X1243695Y537230D01*
X1242105Y538293D01*
X1240136Y539109D01*
X1242368Y540398D01*
X1244602Y542632D01*
X1246182Y545368D01*
X1247000Y548420D01*
Y551580D01*
X1246182Y554632D01*
X1244602Y557368D01*
X1242368Y559602D01*
X1239632Y561182D01*
X1236580Y562000D01*
D02*
G37*
G36*
X835800Y535214D02*
X828891Y528305D01*
X830975Y527102D01*
X834154Y526250D01*
X837446D01*
X840625Y527102D01*
X842709Y528305D01*
X835800Y535214D01*
D02*
G37*
G36*
X1428148Y555000D02*
X1421852D01*
X1415633Y554015D01*
X1409645Y552070D01*
X1404035Y549211D01*
X1398942Y545510D01*
X1398483Y545052D01*
X1425000Y518535D01*
X1451517Y545052D01*
X1451058Y545510D01*
X1445965Y549211D01*
X1440355Y552070D01*
X1434367Y554015D01*
X1428148Y555000D01*
D02*
G37*
G36*
X1247231Y533695D02*
X1238536Y525000D01*
X1247231Y516305D01*
X1248293Y517895D01*
X1249424Y520625D01*
X1250000Y523523D01*
Y526477D01*
X1249424Y529375D01*
X1248293Y532105D01*
X1247231Y533695D01*
D02*
G37*
G36*
X1211580Y537000D02*
X1208420D01*
X1205368Y536182D01*
X1202632Y534602D01*
X1200398Y532368D01*
X1198818Y529632D01*
X1198000Y526580D01*
Y523420D01*
X1198818Y520368D01*
X1200398Y517632D01*
X1202632Y515398D01*
X1205368Y513818D01*
X1208420Y513000D01*
X1211580D01*
X1214632Y513818D01*
X1217368Y515398D01*
X1219602Y517632D01*
X1220891Y519864D01*
X1221707Y517895D01*
X1222769Y516305D01*
X1231464Y525000D01*
X1222769Y533695D01*
X1221707Y532105D01*
X1220891Y530136D01*
X1219602Y532368D01*
X1217368Y534602D01*
X1214632Y536182D01*
X1211580Y537000D01*
D02*
G37*
G36*
X1161580D02*
X1158420D01*
X1155368Y536182D01*
X1152632Y534602D01*
X1150398Y532368D01*
X1148818Y529632D01*
X1148000Y526580D01*
Y523420D01*
X1148818Y520368D01*
X1150398Y517632D01*
X1152632Y515398D01*
X1155368Y513818D01*
X1158420Y513000D01*
X1161580D01*
X1164632Y513818D01*
X1167368Y515398D01*
X1169602Y517632D01*
X1171182Y520368D01*
X1172000Y523420D01*
Y526580D01*
X1171182Y529632D01*
X1169602Y532368D01*
X1167368Y534602D01*
X1164632Y536182D01*
X1161580Y537000D01*
D02*
G37*
G36*
X1061580D02*
X1058420D01*
X1055368Y536182D01*
X1052632Y534602D01*
X1050398Y532368D01*
X1048818Y529632D01*
X1048000Y526580D01*
Y523420D01*
X1048818Y520368D01*
X1050398Y517632D01*
X1052632Y515398D01*
X1055368Y513818D01*
X1058420Y513000D01*
X1061580D01*
X1064632Y513818D01*
X1067368Y515398D01*
X1069602Y517632D01*
X1071182Y520368D01*
X1072000Y523420D01*
Y526580D01*
X1071182Y529632D01*
X1069602Y532368D01*
X1067368Y534602D01*
X1064632Y536182D01*
X1061580Y537000D01*
D02*
G37*
G36*
X1235000Y521465D02*
X1226305Y512770D01*
X1227895Y511707D01*
X1230625Y510576D01*
X1233523Y510000D01*
X1236477D01*
X1239375Y510576D01*
X1242105Y511707D01*
X1243695Y512770D01*
X1235000Y521465D01*
D02*
G37*
G36*
X968250Y645469D02*
X955750D01*
X954384Y645197D01*
X953227Y644423D01*
X952453Y643266D01*
X952181Y641900D01*
Y638900D01*
X952453Y637534D01*
X953227Y636377D01*
X954384Y635603D01*
X955750Y635331D01*
X962402D01*
X962500Y635312D01*
X962598Y635331D01*
X968250D01*
X969616Y635603D01*
X969928Y635812D01*
X987700D01*
X1010412Y613100D01*
Y545000D01*
X1010761Y543244D01*
X1011756Y541756D01*
X1051756Y501756D01*
X1053244Y500761D01*
X1055000Y500412D01*
X1070000D01*
X1071756Y500761D01*
X1073244Y501756D01*
X1083370Y511881D01*
X1084117Y513000D01*
X1086580D01*
X1089632Y513818D01*
X1092368Y515398D01*
X1094602Y517632D01*
X1096182Y520368D01*
X1097000Y523420D01*
Y526580D01*
X1096182Y529632D01*
X1094602Y532368D01*
X1092368Y534602D01*
X1089632Y536182D01*
X1086580Y537000D01*
X1083420D01*
X1080368Y536182D01*
X1077632Y534602D01*
X1075398Y532368D01*
X1073818Y529632D01*
X1073000Y526580D01*
Y523420D01*
X1073818Y520368D01*
X1075398Y517632D01*
X1075770Y517259D01*
X1068100Y509588D01*
X1056900D01*
X1019588Y546900D01*
Y615000D01*
X1019239Y616756D01*
X1018244Y618244D01*
X992844Y643644D01*
X991356Y644639D01*
X989600Y644988D01*
X969928D01*
X969616Y645197D01*
X968250Y645469D01*
D02*
G37*
G36*
X1455052Y541516D02*
X1428535Y515000D01*
X1455052Y488484D01*
X1455510Y488942D01*
X1459211Y494035D01*
X1462070Y499645D01*
X1464015Y505633D01*
X1465000Y511852D01*
Y518148D01*
X1464015Y524367D01*
X1462070Y530355D01*
X1459211Y535965D01*
X1455510Y541058D01*
X1455052Y541516D01*
D02*
G37*
G36*
X955052D02*
X928536Y515000D01*
X955052Y488484D01*
X955510Y488942D01*
X959211Y494035D01*
X962069Y499645D01*
X964015Y505633D01*
X965000Y511852D01*
Y518148D01*
X964015Y524367D01*
X962069Y530355D01*
X959211Y535965D01*
X955510Y541058D01*
X955052Y541516D01*
D02*
G37*
G36*
X1394948Y541516D02*
X1394490Y541058D01*
X1390789Y535965D01*
X1387930Y530355D01*
X1385985Y524367D01*
X1385000Y518148D01*
Y511852D01*
X1385985Y505633D01*
X1387930Y499645D01*
X1390789Y494035D01*
X1394490Y488942D01*
X1394948Y488484D01*
X1421465Y515000D01*
X1394948Y541516D01*
D02*
G37*
G36*
X894948D02*
X894490Y541058D01*
X890789Y535965D01*
X887931Y530355D01*
X885985Y524367D01*
X885000Y518148D01*
Y511852D01*
X885985Y505633D01*
X887931Y499645D01*
X890789Y494035D01*
X894490Y488942D01*
X894948Y488484D01*
X921464Y515000D01*
X894948Y541516D01*
D02*
G37*
G36*
X1425000Y511465D02*
X1398483Y484948D01*
X1398942Y484490D01*
X1404035Y480789D01*
X1409645Y477930D01*
X1415633Y475985D01*
X1421852Y475000D01*
X1428148D01*
X1434367Y475985D01*
X1440355Y477930D01*
X1445965Y480789D01*
X1451058Y484490D01*
X1451517Y484948D01*
X1425000Y511465D01*
D02*
G37*
G36*
X925000D02*
X898484Y484948D01*
X898942Y484490D01*
X904035Y480789D01*
X909645Y477930D01*
X915633Y475985D01*
X921852Y475000D01*
X928148D01*
X934367Y475985D01*
X940355Y477930D01*
X945965Y480789D01*
X951058Y484490D01*
X951516Y484948D01*
X925000Y511465D01*
D02*
G37*
%LPD*%
G36*
X1505412Y968100D02*
Y956307D01*
X1504663Y958115D01*
X1503116Y959663D01*
X1501094Y960500D01*
X1498906D01*
X1496884Y959663D01*
X1496810Y959588D01*
X1495950D01*
X1494194Y959239D01*
X1492706Y958244D01*
X1491031Y956570D01*
X1484463D01*
X1484020Y956658D01*
X1480080D01*
X1448750Y987989D01*
Y997000D01*
X1431250D01*
Y993838D01*
X1428750D01*
Y997000D01*
X1411250D01*
Y993838D01*
X1400283D01*
X1398527Y993489D01*
X1397039Y992494D01*
X1396033Y991489D01*
Y1000412D01*
X1473100D01*
X1505412Y968100D01*
D02*
G37*
G36*
X1419399Y914298D02*
X1418477Y912702D01*
X1418259Y911888D01*
X1409678D01*
X1409366Y912097D01*
X1408000Y912369D01*
X1396500D01*
X1395134Y912097D01*
X1393977Y911323D01*
X1393203Y910166D01*
X1392932Y908800D01*
Y905800D01*
X1393203Y904434D01*
X1393977Y903277D01*
X1395134Y902503D01*
X1396500Y902231D01*
X1405080D01*
X1407643Y899669D01*
X1401848D01*
X1401750Y899688D01*
X1396801D01*
X1393244Y903244D01*
X1391756Y904239D01*
X1390000Y904588D01*
X1381077D01*
X1391400Y914912D01*
X1401750D01*
X1401848Y914931D01*
X1408000D01*
X1409366Y915203D01*
X1409678Y915412D01*
X1420512D01*
X1419399Y914298D01*
D02*
G37*
G36*
X1125337Y691885D02*
X1126885Y690337D01*
X1128906Y689500D01*
X1131094D01*
X1133115Y690337D01*
X1133190Y690412D01*
X1134072D01*
X1134384Y690203D01*
X1134465Y690187D01*
X1134053Y690133D01*
X1133275Y689810D01*
X1139018Y684068D01*
X1137250Y682300D01*
X1139018Y680532D01*
X1133275Y674790D01*
X1134053Y674467D01*
X1134465Y674413D01*
X1134384Y674397D01*
X1133227Y673623D01*
X1132453Y672466D01*
X1132181Y671100D01*
Y668100D01*
X1132453Y666734D01*
X1133227Y665577D01*
X1134384Y664803D01*
X1134465Y664787D01*
X1134053Y664733D01*
X1133275Y664410D01*
X1139018Y658668D01*
X1135482Y655132D01*
X1129740Y660875D01*
X1129417Y660097D01*
X1129194Y658400D01*
Y655400D01*
X1129417Y653703D01*
X1130072Y652122D01*
X1131114Y650764D01*
X1132472Y649722D01*
X1132796Y649588D01*
X1131900D01*
X1124588Y656900D01*
Y693693D01*
X1125337Y691885D01*
D02*
G37*
%LPC*%
G36*
X1129740Y686275D02*
X1129417Y685497D01*
X1129194Y683800D01*
Y680800D01*
X1129417Y679103D01*
X1129740Y678325D01*
X1133715Y682300D01*
X1129740Y686275D01*
D02*
G37*
%LPD*%
D17*
X1020000Y659500D02*
D03*
Y640500D02*
D03*
X979250Y788420D02*
D03*
Y807420D02*
D03*
X994146D02*
D03*
Y788420D02*
D03*
X1105000Y769500D02*
D03*
Y750500D02*
D03*
X1090000Y750500D02*
D03*
Y769500D02*
D03*
X1195000Y750500D02*
D03*
Y769500D02*
D03*
X1210000Y769500D02*
D03*
Y750500D02*
D03*
X905000Y665500D02*
D03*
Y684500D02*
D03*
X940000Y716500D02*
D03*
Y693500D02*
D03*
X1377850Y730677D02*
D03*
Y749677D02*
D03*
X1369519Y975500D02*
D03*
Y994500D02*
D03*
X1384533D02*
D03*
Y975500D02*
D03*
X1160000Y975500D02*
D03*
Y994500D02*
D03*
X1175000Y994500D02*
D03*
Y975500D02*
D03*
X1095287Y843125D02*
D03*
Y862125D02*
D03*
X1110287D02*
D03*
Y843125D02*
D03*
X905000Y970500D02*
D03*
Y989500D02*
D03*
X920000Y989500D02*
D03*
Y970500D02*
D03*
X1392610Y730677D02*
D03*
Y749677D02*
D03*
X1280000Y660500D02*
D03*
Y679500D02*
D03*
X1295000Y679500D02*
D03*
Y660500D02*
D03*
X920000Y665500D02*
D03*
Y684500D02*
D03*
D18*
X1035000Y660000D02*
D03*
Y678500D02*
D03*
X940000Y744250D02*
D03*
Y725750D02*
D03*
X1420000Y989250D02*
D03*
Y970750D02*
D03*
X1440000Y989250D02*
D03*
Y970750D02*
D03*
X1315000Y989250D02*
D03*
Y970750D02*
D03*
X1335000Y989250D02*
D03*
Y970750D02*
D03*
D19*
X1065000Y725000D02*
D03*
X1050000Y745000D02*
D03*
X1405000Y975000D02*
D03*
X1018248Y680000D02*
D03*
X1040000Y940000D02*
D03*
X1165000Y705000D02*
D03*
Y685000D02*
D03*
X1130000Y770000D02*
D03*
X1235000Y750000D02*
D03*
X1180000Y615000D02*
D03*
X1135000Y620000D02*
D03*
X1100000Y605000D02*
D03*
X960000Y685000D02*
D03*
X1390000Y695000D02*
D03*
X1490000Y685000D02*
D03*
X1425000Y910000D02*
D03*
X1445000Y850000D02*
D03*
X1325000Y890000D02*
D03*
X1435000Y950000D02*
D03*
X1350000Y975000D02*
D03*
X1330000Y950000D02*
D03*
X1165000Y865000D02*
D03*
X1230000Y965000D02*
D03*
X1045000Y900000D02*
D03*
X1050000Y885000D02*
D03*
X1040000Y915000D02*
D03*
X1255000Y500000D02*
D03*
X600000Y740000D02*
D03*
X1320000Y915000D02*
D03*
X980000Y660000D02*
D03*
X630000Y810000D02*
D03*
X1495000Y735000D02*
D03*
X1065000Y665000D02*
D03*
X955000Y760000D02*
D03*
X1160000Y740000D02*
D03*
X1470000Y920000D02*
D03*
X1215000Y810000D02*
D03*
X705000D02*
D03*
D28*
X665750Y800000D02*
D03*
X694250Y790500D02*
D03*
Y809500D02*
D03*
D32*
X575000Y740000D02*
D03*
Y800000D02*
D03*
D34*
X1347750Y881900D02*
D03*
Y894600D02*
D03*
Y907300D02*
D03*
Y920000D02*
D03*
Y932700D02*
D03*
Y945400D02*
D03*
Y958100D02*
D03*
X1402250Y881900D02*
D03*
Y894600D02*
D03*
Y907300D02*
D03*
Y920000D02*
D03*
Y932700D02*
D03*
Y945400D02*
D03*
Y958100D02*
D03*
D68*
X758997Y811003D02*
G03*
X745000Y825000I-13997J0D01*
G01*
X729100D02*
G03*
X720000Y815900I0J-9100D01*
G01*
X694600Y790500D02*
G03*
X720000Y815900I0J25400D01*
G01*
X754500Y548188D02*
G03*
X759600Y543088I5100J0D01*
G01*
X720000Y884600D02*
G03*
X694600Y910000I-25400J0D01*
G01*
X665000D02*
G03*
X652700Y897700I0J-12300D01*
G01*
X627340Y696000D02*
G03*
X652740Y721400I0J25400D01*
G01*
X725000Y775000D02*
G03*
X750000Y800000I0J25000D01*
G01*
X615000Y785000D02*
G03*
X651617Y748383I36617J0D01*
G01*
X735500Y739600D02*
G03*
X710100Y765000I-25400J0D01*
G01*
X652740Y775000D02*
G03*
X662740Y765000I10000J0D01*
G01*
X705000Y839250D02*
G03*
X689250Y855000I-15750J0D01*
G01*
X669950D02*
G03*
X654145Y844661I0J-17250D01*
G01*
X665750Y790400D02*
G03*
X681150Y775000I15400J0D01*
G01*
X708800Y543088D02*
G03*
X735000Y569288I0J26200D01*
G01*
X1155000Y670000D02*
G03*
X1142700Y682300I-12300J0D01*
G01*
X1142000Y656900D02*
G03*
X1155000Y669900I0J13000D01*
G01*
X1151900Y656900D02*
G03*
X1170000Y675000I0J18100D01*
G01*
X605000Y834650D02*
G03*
X601900Y837750I-3100J0D01*
G01*
X630000Y810000D02*
G03*
X615000Y795000I0J-15000D01*
G01*
X595000Y740000D02*
G03*
X605000Y750000I0J10000D01*
G01*
X615000Y837350D02*
G03*
X614600Y837750I-400J0D01*
G01*
X1490000Y685000D02*
G03*
X1491926Y686926I0J1926D01*
G01*
X678100Y825650D02*
G03*
X694250Y809500I16150J0D01*
G01*
D02*
G03*
X705000Y820250I0J10750D01*
G01*
X842300Y750300D02*
X850000Y758000D01*
X842300Y732500D02*
Y750300D01*
X850000Y758000D02*
Y760000D01*
X842300Y620000D02*
Y657500D01*
Y620000D02*
X859500Y602800D01*
Y565000D02*
Y602800D01*
X861200Y542450D02*
X864223D01*
X860350Y539600D02*
Y564150D01*
Y539600D02*
X861200Y538750D01*
X859500Y565000D02*
X860350Y564150D01*
X842300Y728500D02*
X855110Y715690D01*
X855110D01*
X880838Y689962D01*
Y633138D02*
Y689962D01*
X867700Y620000D02*
X880838Y633138D01*
X1291500Y658500D02*
X1295000Y655000D01*
X850000Y760000D02*
Y820000D01*
X864223Y542450D02*
X865428Y543655D01*
X758997Y622000D02*
Y811003D01*
X754500Y617503D02*
X758997Y622000D01*
X754500Y615503D02*
Y617503D01*
Y590000D02*
Y617503D01*
X729100Y825000D02*
X745000D01*
X720000Y815900D02*
Y884600D01*
X754500Y548188D02*
Y590000D01*
X665000Y910000D02*
X694600D01*
X694250Y790500D02*
X694600D01*
X652700Y892250D02*
Y897700D01*
X575000Y696000D02*
X627340D01*
X681150Y775000D02*
X725000D01*
X1120000Y762929D02*
Y790000D01*
X1100000Y810000D02*
X1120000Y790000D01*
X1100000Y810000D02*
Y810000D01*
X1107000Y750500D02*
X1116500Y760000D01*
X1117071D01*
X1120000Y762929D01*
X1100000Y810000D02*
X1119200D01*
X850000Y820000D02*
X885000Y855000D01*
X972726D01*
X1017726Y810000D01*
X1034250Y679250D02*
X1035000Y678500D01*
X1018248Y680000D02*
X1018997Y679250D01*
X1034250D01*
X1045000Y687500D02*
Y690000D01*
X1035000Y678500D02*
X1036000D01*
X1045000Y687500D01*
Y690000D02*
X1050000D01*
X1027500Y721800D02*
X1035819D01*
X1045000Y712619D01*
Y690000D02*
Y712619D01*
X1027000Y722300D02*
X1027500Y721800D01*
X1036250Y659750D02*
Y660250D01*
X1005000Y698561D02*
X1015539Y709100D01*
X1026500D01*
X1005000Y674500D02*
Y698561D01*
X1026500Y709100D02*
X1027000Y709600D01*
X1034750Y659750D02*
X1035000Y660000D01*
X1020000Y659500D02*
X1020250Y659750D01*
X1034750D01*
X652740Y721400D02*
Y724200D01*
X615000Y785000D02*
Y795000D01*
X662740Y765000D02*
X710100D01*
X735500Y615503D02*
Y739600D01*
X735000Y569288D02*
Y615503D01*
X652700Y776092D02*
Y837750D01*
X669950Y855000D02*
X689250D01*
X653200Y842500D02*
X654145Y844661D01*
X905000Y665500D02*
X906500Y664000D01*
X907000Y653100D02*
X908000D01*
X906500Y653600D02*
Y664000D01*
Y653600D02*
X907000Y653100D01*
X1022000Y640500D02*
X1035000Y627500D01*
X1020000Y640500D02*
X1022000D01*
X1035000Y595000D02*
Y627500D01*
Y595000D02*
X1044250Y585750D01*
X1050000D01*
X1050750Y585000D01*
X1117250Y958100D02*
X1122000D01*
X1072750Y945400D02*
X1085000Y933150D01*
X1108159Y909991D01*
X1114559D01*
X1117250Y907300D02*
X1122000D01*
X1114559Y909991D02*
X1117250Y907300D01*
X1073250Y947071D02*
X1076179Y950000D01*
X1072750Y945400D02*
X1073250Y945900D01*
X1109150Y950000D02*
X1117250Y958100D01*
X1076179Y950000D02*
X1109150D01*
X1073250Y945900D02*
Y947071D01*
X1068000Y907300D02*
X1068500Y907800D01*
X1077800D02*
X1085000Y915000D01*
Y933150D01*
X1068500Y907800D02*
X1077800D01*
X1068000Y945400D02*
X1072750D01*
X1059900Y944900D02*
X1067500D01*
X1055000Y940000D02*
X1059900Y944900D01*
X1040000Y940000D02*
X1055000D01*
X1067500Y944900D02*
X1068000Y945400D01*
X1155000Y669900D02*
Y670000D01*
X1142000Y656900D02*
X1151900D01*
X1142000Y682300D02*
X1142700D01*
X1208000Y750500D02*
X1208000Y750500D01*
X1206000Y748500D02*
X1208000Y750500D01*
X1210000D01*
X1195000D02*
X1208000D01*
X665750Y790400D02*
Y800000D01*
X615000Y795000D02*
Y837350D01*
X605000Y750000D02*
Y834650D01*
X965000Y940000D02*
Y950000D01*
X957000Y940400D02*
X957400Y940000D01*
X965000D01*
X970000Y935000D01*
X1130000Y755000D02*
X1165000Y790000D01*
X1216350D01*
X1236350Y810000D01*
X1348250Y906800D02*
X1357071D01*
X1352500Y882500D02*
X1360000Y890000D01*
X1347750Y881900D02*
X1352000D01*
X1352500Y882400D01*
X1360000Y890000D02*
Y903871D01*
X1357071Y906800D02*
X1360000Y903871D01*
Y890000D02*
X1370000Y900000D01*
X1352500Y882400D02*
Y882500D01*
X1370000Y900000D02*
X1390000D01*
X1347750Y907300D02*
X1348250Y906800D01*
X1289841Y689341D02*
X1291419D01*
X1280000Y679500D02*
X1289841Y689341D01*
X1295000Y679500D02*
X1295000Y679500D01*
X1280000Y679500D02*
X1295000D01*
X1175000Y994500D02*
X1175000Y994500D01*
X1160000Y994500D02*
X1175000D01*
X905000Y684500D02*
X920000D01*
X905000Y684500D02*
X905000Y684500D01*
X915000Y740000D02*
X915541D01*
X919791Y744250D02*
X940000D01*
X915541Y740000D02*
X919791Y744250D01*
X979250Y807420D02*
X994146D01*
X1095287Y843125D02*
X1110287D01*
X1339250Y962350D02*
Y967500D01*
X1336000Y970750D02*
X1339250Y967500D01*
X1343500Y958100D02*
X1347750D01*
X1339250Y962350D02*
X1343500Y958100D01*
X1335000Y970750D02*
X1336000D01*
X1347750Y958100D02*
X1352000D01*
X1352500Y958600D02*
Y962850D01*
X1355000Y965350D02*
Y969571D01*
X1352500Y962850D02*
X1355000Y965350D01*
X1350000Y974571D02*
Y975000D01*
X1352000Y958100D02*
X1352500Y958600D01*
X1350000Y974571D02*
X1355000Y969571D01*
X1080000Y735000D02*
Y741646D01*
X925160Y644530D02*
Y644840D01*
X925000Y645000D02*
X925160Y644840D01*
X925000Y645000D02*
Y660000D01*
X920000Y665500D02*
X922000D01*
X924000Y663500D01*
Y661000D02*
Y663500D01*
Y661000D02*
X925000Y660000D01*
X922000Y970500D02*
X936500Y985000D01*
X940000D01*
X920000Y970500D02*
X922000D01*
X1075000Y835000D02*
X1100000Y810000D01*
X1075000Y843838D02*
X1093287Y862125D01*
X1075000Y835000D02*
Y843838D01*
X1093287Y862125D02*
X1095287D01*
X1177000Y975500D02*
X1186500Y985000D01*
X1295000D01*
X1175000Y975500D02*
X1177000D01*
X1299250Y989250D02*
X1315000D01*
X1295000Y985000D02*
X1299250Y989250D01*
X1495950Y955000D02*
X1500000D01*
X1488520Y947570D02*
X1495950Y955000D01*
X1386533Y975500D02*
X1400283Y989250D01*
X1384533Y975500D02*
X1386533D01*
X1400283Y989250D02*
X1420000D01*
X1478180Y952070D02*
X1484020D01*
X1488520Y947570D01*
X1440000Y989250D02*
X1441000D01*
X1478180Y952070D01*
X1420000Y989250D02*
X1440000D01*
X1369519Y994500D02*
X1384533D01*
X1315000Y989250D02*
X1335000D01*
X1375000Y565000D02*
X1375383Y565383D01*
Y572454D01*
X1382929Y580000D02*
X1405000D01*
X1375383Y572454D02*
X1382929Y580000D01*
X1405000D02*
X1420000Y595000D01*
Y630000D01*
X1370000Y680000D02*
X1420000Y630000D01*
X1370000Y680000D02*
Y724826D01*
X1375850Y730677D02*
X1377850D01*
X1370000Y724826D02*
X1375850Y730677D01*
X1371459Y780000D02*
X1372000D01*
X1366459Y785000D02*
X1371459Y780000D01*
X1360000Y785000D02*
X1366459D01*
X1355000Y780000D02*
X1360000Y785000D01*
X1333500Y780000D02*
X1355000D01*
X1320500Y793000D02*
Y795000D01*
Y793000D02*
X1333500Y780000D01*
X1297000Y610000D02*
Y623250D01*
X1295250Y625000D02*
X1297000Y623250D01*
X1295250Y625000D02*
Y639875D01*
X1295000Y640125D02*
X1295250Y639875D01*
X1295000Y640125D02*
Y655000D01*
X1282000Y658500D02*
X1291500D01*
X1280000Y660500D02*
X1282000Y658500D01*
X1202000Y740136D02*
X1206000Y744136D01*
X1208000Y750500D02*
X1210000D01*
X1206000Y744136D02*
Y748500D01*
X1202000Y740000D02*
Y740136D01*
X1017726Y810000D02*
X1100000D01*
X1105000Y750500D02*
X1107000D01*
X1105000Y769500D02*
X1105000Y769500D01*
X1090000Y769500D02*
X1105000D01*
X1090000Y750500D02*
X1105000D01*
X1088000D02*
X1090000D01*
X1087500Y733600D02*
X1088000Y733100D01*
X1081400Y733600D02*
X1087500D01*
X1080000Y735000D02*
X1081400Y733600D01*
X1080000Y741646D02*
X1086000Y747646D01*
Y748500D02*
X1088000Y750500D01*
X1086000Y747646D02*
Y748500D01*
X1105000Y750500D02*
X1105000Y750500D01*
X1055000Y717600D02*
X1055165Y717765D01*
X994146Y788420D02*
X996146D01*
X1017726Y810000D01*
X917929Y597121D02*
X928596Y586455D01*
X912750Y602300D02*
X917929Y597121D01*
X928596Y586455D02*
X931113D01*
X908000Y602300D02*
X912750D01*
X931113Y586455D02*
X931495Y586072D01*
X1369519Y975500D02*
X1384533D01*
X1367519D02*
X1369519D01*
X1392610Y730677D02*
X1394610D01*
X1377850D02*
X1392610D01*
X1320500Y810000D02*
Y812000D01*
Y795000D02*
Y810000D01*
X1200000Y575000D02*
X1210000Y585000D01*
X1200000Y564059D02*
Y575000D01*
X1210000Y585000D02*
X1229823D01*
X1279081Y535742D01*
X1200000Y564059D02*
X1210000Y554059D01*
Y550000D02*
Y554059D01*
X1491926Y686926D02*
Y700588D01*
X1152693Y739043D02*
X1159043D01*
X1142176Y733218D02*
X1146868D01*
X1152693Y739043D01*
X1159043D02*
X1160000Y740000D01*
X1215000Y810000D02*
X1236350D01*
X1243250Y816900D01*
X1248000D01*
X1402650Y945000D02*
X1430000D01*
X1402250Y945400D02*
X1402650Y945000D01*
X1435000Y950000D02*
Y950000D01*
X1430000Y945000D02*
X1435000Y950000D01*
X1411125Y962725D02*
X1415750Y967350D01*
X1406500Y958100D02*
X1411125Y962725D01*
X1405000Y973647D02*
X1411125Y967522D01*
X1405000Y973647D02*
Y975000D01*
X1411125Y962725D02*
Y967522D01*
X1227071Y742071D02*
X1235000Y750000D01*
X1227071Y737929D02*
X1230000Y735000D01*
X1235000Y750000D02*
X1235000D01*
X1227071Y737929D02*
Y742071D01*
X1234490Y735000D02*
X1236533Y732956D01*
X1230000Y735000D02*
X1234490D01*
X1307650Y560000D02*
X1332250Y584600D01*
X1275000Y560000D02*
X1307650D01*
X1235000Y600000D02*
X1275000Y560000D01*
X1135000Y600000D02*
X1235000D01*
X1265000Y610000D02*
X1283000D01*
X1222693Y964043D02*
X1229043D01*
X1212000Y958100D02*
X1216750D01*
X1222693Y964043D01*
X1229043D02*
X1230000Y965000D01*
X1061400Y881400D02*
X1063750D01*
X1067500D01*
X1050000Y885000D02*
X1060150D01*
X1063750Y881400D01*
X1063416Y920166D02*
X1070517D01*
X1040000Y915000D02*
X1058250D01*
X1063416Y920166D01*
X1057850Y900000D02*
X1063250Y894600D01*
X1045000Y900000D02*
X1057850D01*
X1063250Y894600D02*
X1068000D01*
X1158000Y881900D02*
X1162750D01*
X1169753Y871105D02*
Y874898D01*
X1165000Y866353D02*
X1169753Y871105D01*
X1162750Y881900D02*
X1169753Y874898D01*
X1165000Y865000D02*
Y866353D01*
X1065000Y690000D02*
X1065000D01*
X1070953Y720400D02*
X1088000D01*
X1066353Y725000D02*
X1070953Y720400D01*
X1065000Y725000D02*
X1066353D01*
X1127700Y707700D02*
X1146750D01*
X1149450Y705000D02*
X1165000D01*
X1146750Y707700D02*
X1149450Y705000D01*
X1130000Y755000D02*
Y770000D01*
X1110000Y735000D02*
X1130000Y755000D01*
X1142000Y695000D02*
X1155000D01*
X1165000Y685000D01*
X1065000Y665000D02*
X1081800Y681800D01*
X1087500D01*
X1088000Y682300D01*
X1027000Y735000D02*
X1040000D01*
X1050000Y745000D01*
X955429Y747821D02*
Y759571D01*
Y747821D02*
X966625Y736625D01*
X965000Y735000D02*
X968250D01*
X955000Y760000D02*
X955429Y759571D01*
X968250Y735000D02*
X973000D01*
X960000Y685000D02*
X960957Y685957D01*
Y689607D01*
X967750Y696400D01*
Y696400D01*
X962600Y697400D02*
X968750D01*
X967750Y696400D02*
X968750Y697400D01*
X1487250Y728100D02*
X1494150Y735000D01*
X1495000D01*
X1472000Y728100D02*
X1487250D01*
X1418300Y714900D02*
X1418400Y715000D01*
X1409900Y714900D02*
X1418300D01*
X1390000Y695000D02*
X1409900Y714900D01*
X1406500Y907300D02*
X1420947D01*
X1402250D02*
X1406500D01*
X1423647Y910000D02*
X1425000D01*
X1420947Y907300D02*
X1423647Y910000D01*
X1240541Y495000D02*
X1244585Y499043D01*
X1240000Y495000D02*
X1240541D01*
X1254043Y499043D02*
X1255000Y500000D01*
X1244585Y499043D02*
X1254043D01*
X1422750Y870000D02*
X1427250Y865500D01*
Y862750D02*
X1475000Y815000D01*
X1427250Y862750D02*
Y865500D01*
X1417250Y870000D02*
X1422750D01*
X1475000Y775000D02*
Y815000D01*
X1347036Y895000D02*
X1347593Y894443D01*
X1330000Y895000D02*
X1347036D01*
X1325000Y890000D02*
X1330000Y895000D01*
X1325000Y890000D02*
X1325000D01*
X1343500Y920000D02*
X1343665Y920165D01*
X1338500Y915000D02*
X1343500Y920000D01*
X1343665Y920165D02*
X1347935D01*
X1320000Y915000D02*
X1338500D01*
X972693Y659043D02*
X979043D01*
X980000Y660000D01*
X962000Y653100D02*
X966750D01*
X972693Y659043D01*
X1174030Y619617D02*
X1178647Y615000D01*
X1170383Y619617D02*
X1174030D01*
X1178647Y615000D02*
X1180000D01*
X1170000Y620000D02*
X1170383Y619617D01*
X1115000Y620000D02*
X1135000D01*
X1099043Y605957D02*
X1100000Y605000D01*
X1090000Y620000D02*
X1099043Y610957D01*
Y605957D02*
Y610957D01*
X1057200Y932200D02*
X1067500D01*
X1068000Y932700D01*
X1120000Y895000D02*
X1121600D01*
X1122000Y894600D01*
X1360000Y540000D02*
Y579050D01*
X1305000Y485000D02*
X1360000Y540000D01*
X1341750Y597300D02*
X1360000Y579050D01*
X1337000Y597300D02*
X1341750D01*
X1080126Y516067D02*
X1085000Y520941D01*
X1080126Y515126D02*
Y516067D01*
X1015000Y545000D02*
X1055000Y505000D01*
X1085000Y520941D02*
Y525000D01*
X1055000Y505000D02*
X1070000D01*
X1080126Y515126D01*
X1092391Y482391D02*
X1135000Y525000D01*
X1175000Y485000D01*
X1305000D01*
X947200Y902800D02*
X956716D01*
X945000Y905000D02*
X947200Y902800D01*
X940000Y910000D02*
X945000Y905000D01*
Y905000D02*
Y905000D01*
X940000Y910000D02*
Y965000D01*
X980000Y1005000D01*
X1475000D01*
X1510000Y970000D01*
Y865000D02*
Y970000D01*
X1500000Y855000D02*
X1510000Y865000D01*
X1480000Y855000D02*
X1500000D01*
X1470000Y865000D02*
X1480000Y855000D01*
X1470000Y865000D02*
Y879000D01*
X1452250Y896750D02*
Y899500D01*
Y896750D02*
X1470000Y879000D01*
X1445000Y904000D02*
X1447750D01*
X1452250Y899500D01*
X1437750D02*
X1442250Y904000D01*
X1418800Y895000D02*
X1434821D01*
X1406500Y907300D02*
X1418800Y895000D01*
X1442250Y904000D02*
X1445000D01*
X1437750Y897929D02*
Y899500D01*
X1434821Y895000D02*
X1437750Y897929D01*
X1341785Y652512D02*
X1345737Y656464D01*
X1346465D01*
X1350000Y660000D01*
X1341244Y652512D02*
X1341785D01*
X1350000Y660000D02*
Y750000D01*
X1370000Y770000D01*
X1395000D01*
X1415000Y750000D01*
X1450000D01*
X1475000Y775000D01*
X1122302Y945702D02*
Y945858D01*
X1122000Y945400D02*
X1122302Y945702D01*
X947071Y892929D02*
Y897121D01*
Y892929D02*
X950000Y890000D01*
X952597Y902647D02*
X956869D01*
X947071Y897121D02*
X952597Y902647D01*
X956600Y890000D02*
X957000Y889600D01*
X950000Y890000D02*
X956600D01*
X1341244Y652344D02*
Y652512D01*
X1337000Y648100D02*
X1341244Y652344D01*
X1389500Y919500D02*
X1401750D01*
X1370000Y900000D02*
X1389500Y919500D01*
X1471825Y920000D02*
X1485770Y906055D01*
X1239000Y682700D02*
X1239476Y683176D01*
X1244014D01*
X1239600Y695400D02*
X1240000Y695000D01*
X1239000Y695400D02*
X1239600D01*
X1402250Y945400D02*
X1414650D01*
X1435750Y966500D01*
X1260259Y720800D02*
X1264459Y725000D01*
X1239000Y720800D02*
X1260259D01*
X1264459Y725000D02*
X1265000D01*
X1239026Y708074D02*
X1239519D01*
X1239000Y708100D02*
X1239026Y708074D01*
X1088149Y682449D02*
X1105153D01*
X1105301Y682597D01*
X1088000Y682300D02*
X1088149Y682449D01*
X1065000Y690000D02*
X1065550D01*
X1083250Y707700D02*
X1088000D01*
X1065550Y690000D02*
X1083250Y707700D01*
X1130000Y695000D02*
X1142000D01*
X1212482Y907300D02*
X1213215Y908033D01*
X1212000Y907300D02*
X1212482D01*
X999459Y715000D02*
X1000000D01*
X973000Y722300D02*
X992159D01*
X999459Y715000D01*
X1477114Y715400D02*
X1491926Y700588D01*
X1472000Y715400D02*
X1477114D01*
X1396610Y727929D02*
Y728677D01*
Y727929D02*
X1399539Y725000D01*
X1410150D02*
X1413250Y728100D01*
X1418000D01*
X1394610Y730677D02*
X1396610Y728677D01*
X1399539Y725000D02*
X1410150D01*
X1185000Y525000D02*
X1215000Y495000D01*
X1240000D01*
X1425000Y690000D02*
X1450000Y665000D01*
X1418000Y690000D02*
X1425000D01*
X1505000Y660000D02*
Y705000D01*
X1472500Y727600D02*
X1482400D01*
X1505000Y705000D01*
X1327651Y635400D02*
X1337000D01*
X1325594Y637457D02*
X1327651Y635400D01*
X1377850Y749677D02*
X1392610D01*
X1342750Y818750D02*
Y821500D01*
X1347250Y826000D01*
X1341500Y817500D02*
X1342750Y818750D01*
X1341500Y812000D02*
Y817500D01*
X1339500Y810000D02*
X1341500Y812000D01*
X1347250Y826000D02*
X1350000D01*
X1339500Y795000D02*
Y810000D01*
X1365519Y973500D02*
X1367519Y975500D01*
X1365519Y971090D02*
Y973500D01*
X1365000Y960000D02*
Y970571D01*
Y960000D02*
X1391800Y933200D01*
X1365000Y970571D02*
X1365519Y971090D01*
X1195000Y769500D02*
X1210000D01*
X1210000Y769500D01*
X1229050Y881900D02*
X1232050D01*
X1229050D02*
X1243250Y867700D01*
X1212000Y881900D02*
X1229050D01*
X1243250Y867700D02*
X1248000D01*
X1232050Y881900D02*
X1243250Y893100D01*
X1248000D01*
X1200000Y930000D02*
X1202200Y932200D01*
X1211500D02*
X1212000Y932700D01*
X1202200Y932200D02*
X1211500D01*
X962000Y615000D02*
X985000D01*
X995000Y605000D01*
Y533530D02*
Y605000D01*
Y533530D02*
X1046139Y482391D01*
X1092391D01*
X1050000Y490000D02*
X1075000D01*
X1005000Y535000D02*
X1050000Y490000D01*
X1005000Y535000D02*
Y610000D01*
X962000Y627700D02*
X987300D01*
X1005000Y610000D01*
X989600Y640400D02*
X1015000Y615000D01*
X962000Y640400D02*
X989600D01*
X1015000Y545000D02*
Y615000D01*
X960000Y555000D02*
X1040000Y475000D01*
X1320000D01*
X905000Y555000D02*
X960000D01*
X890996Y569004D02*
Y628146D01*
Y569004D02*
X905000Y555000D01*
X890996Y628146D02*
X903250Y640400D01*
X1472000Y728100D02*
X1472500Y727600D01*
X1305000Y630000D02*
X1325000Y610000D01*
X1305000Y650000D02*
X1325000Y670000D01*
X1305000Y630000D02*
Y650000D01*
X1310000Y700000D02*
X1325000Y685000D01*
X1270000Y700000D02*
X1310000D01*
X1325000Y670000D02*
Y685000D01*
X1315000Y635000D02*
Y645000D01*
X1326911Y623089D02*
X1336611D01*
X1315000Y635000D02*
X1326911Y623089D01*
X1336611D02*
X1337000Y622700D01*
X1315000Y645000D02*
X1335000Y665000D01*
Y695000D01*
X1278889Y659389D02*
X1280000Y660500D01*
X1270000Y651529D02*
Y657571D01*
X1271818Y659389D02*
X1278889D01*
X1270000Y657571D02*
X1271818Y659389D01*
X1270000Y651529D02*
X1272929Y648600D01*
X1282500D01*
X1283000Y648100D01*
X1120000Y700000D02*
X1127700Y707700D01*
X1120000Y655000D02*
Y700000D01*
Y655000D02*
X1130000Y645000D01*
X1245000D01*
X1260000Y660000D02*
Y690000D01*
X1245000Y645000D02*
X1260000Y660000D01*
Y690000D02*
X1270000Y700000D01*
X1325000Y610000D02*
X1337000D01*
X1122071Y737071D02*
X1167451Y782451D01*
X1227549D02*
X1235000Y775000D01*
X1167451Y782451D02*
X1227549D01*
X1134100Y720900D02*
X1141500D01*
X1122071Y732929D02*
Y737071D01*
Y732929D02*
X1134100Y720900D01*
X1141500D02*
X1142000Y720400D01*
X1110000Y712250D02*
Y735000D01*
X1092750Y695000D02*
X1110000Y712250D01*
X1235000Y775000D02*
X1235000D01*
X1265000Y745000D02*
X1285000D01*
X1335000Y695000D01*
X1235000Y775000D02*
X1265000Y745000D01*
X1391800Y933200D02*
X1401750D01*
X1402250Y932700D01*
X1333500Y930000D02*
X1343500Y920000D01*
X1293500Y947750D02*
X1296250D01*
X1314000Y930000D01*
X1333500D01*
X1289000Y952250D02*
Y955000D01*
Y952250D02*
X1293500Y947750D01*
X1435750Y966500D02*
Y967500D01*
X1439000Y970750D02*
X1440000D01*
X1435750Y967500D02*
X1439000Y970750D01*
X1415750Y967350D02*
Y967500D01*
X1419000Y970750D02*
X1420000D01*
X1402250Y958100D02*
X1406500D01*
X1415750Y967500D02*
X1419000Y970750D01*
X1340850Y945900D02*
X1347250D01*
X1316000Y970750D02*
X1340850Y945900D01*
X1347250D02*
X1347750Y945400D01*
X1337929Y894443D02*
X1347593D01*
X1335000Y866250D02*
Y891514D01*
X1337929Y894443D01*
X1335000Y866250D02*
X1347250Y854000D01*
X1350000D01*
X1390000Y900000D02*
X1394900Y895100D01*
X1485770Y906055D02*
X1488520D01*
X1402250Y920000D02*
X1471825D01*
X1401750Y919500D02*
X1402250Y920000D01*
X1401750Y895100D02*
X1402250Y894600D01*
X1394900Y895100D02*
X1401750D01*
X1407000Y880250D02*
Y881400D01*
X1406500Y881900D02*
X1407000Y881400D01*
Y880250D02*
X1417250Y870000D01*
X1402250Y881900D02*
X1406500D01*
X1302000Y816900D02*
X1302500Y817400D01*
X1308836D02*
X1308897Y817461D01*
X1313039D02*
X1316500Y814000D01*
X1318500D02*
X1320500Y812000D01*
X1302500Y817400D02*
X1308836D01*
X1308897Y817461D02*
X1313039D01*
X1316500Y814000D02*
X1318500D01*
X1088000Y695000D02*
X1092750D01*
X1075000Y490000D02*
X1110000Y525000D01*
X1320000Y475000D02*
X1505000Y660000D01*
X903250Y640400D02*
X908000D01*
X902500Y953600D02*
X903000Y953100D01*
X890000Y957929D02*
Y965000D01*
X894329Y953600D02*
X902500D01*
X890000Y957929D02*
X894329Y953600D01*
X890000Y965000D02*
X893500Y968500D01*
X903000D02*
X905000Y970500D01*
X893500Y968500D02*
X903000D01*
X905000Y970500D02*
X920000D01*
X920000Y970500D01*
X1068000Y894600D02*
X1068400Y895000D01*
X1080000D01*
X1085000Y890000D01*
Y875000D02*
Y890000D01*
X1055000Y845000D02*
X1085000Y875000D01*
X1015000Y845000D02*
X1055000D01*
X995000Y865000D02*
X1015000Y845000D01*
X995000Y865000D02*
Y881750D01*
X957000Y915000D02*
X961750D01*
X995000Y881750D01*
X1035000Y855000D02*
X1061400Y881400D01*
X1020000Y855000D02*
X1035000D01*
X1005000Y870000D02*
X1020000Y855000D01*
X1005000Y870000D02*
Y884450D01*
X957000Y927700D02*
X961750D01*
X1005000Y884450D01*
X1158000Y894600D02*
X1158500Y894100D01*
X1157600Y895000D02*
X1158000Y894600D01*
X1150000Y895000D02*
X1157600D01*
X1140000Y905000D02*
X1150000Y895000D01*
X1140000Y905000D02*
Y919450D01*
X1122000Y932700D02*
X1126750D01*
X1140000Y919450D01*
X1430000Y712071D02*
X1457879D01*
X1467250Y702700D02*
X1472000D01*
X1457879Y712071D02*
X1467250Y702700D01*
X1418000D02*
X1427071D01*
X1430000Y705629D01*
Y712071D01*
X1418400Y715000D02*
X1427071D01*
X1430000Y712071D01*
X957000Y953100D02*
X961900D01*
X965000Y950000D01*
X1248500Y830100D02*
X1255100D01*
X1248000Y829600D02*
X1248500Y830100D01*
X1270000Y845000D02*
Y895000D01*
X1255100Y830100D02*
X1270000Y845000D01*
X1245000Y920000D02*
X1270000Y895000D01*
X1212000Y920000D02*
X1245000D01*
X1243250Y855000D02*
X1248000D01*
X1233250Y865000D02*
X1243250Y855000D01*
X1205050Y865000D02*
X1233250D01*
X1158000Y907300D02*
X1162750D01*
X1205050Y865000D01*
X1126750Y881900D02*
X1130000Y878650D01*
Y865054D02*
Y878650D01*
X1110287Y862125D02*
X1127071D01*
X1130000Y865054D01*
X1122000Y881900D02*
X1126750D01*
X1095287Y862125D02*
X1110287D01*
X1175000Y975500D02*
X1175000Y975500D01*
X1160000Y975500D02*
X1175000D01*
X1153842Y973500D02*
X1158000D01*
X1160000Y975500D01*
X1150171Y969829D02*
X1153842Y973500D01*
X1150171Y961179D02*
X1153250Y958100D01*
X1150171Y961179D02*
Y969829D01*
X1153250Y958100D02*
X1158000D01*
X1210000Y750500D02*
X1210000Y750500D01*
X1175000Y745000D02*
X1180500Y750500D01*
X1195000D01*
X1175000Y738750D02*
X1180250Y733500D01*
X1175000Y738750D02*
Y745000D01*
X1180250Y733500D02*
X1185000D01*
X979250Y788420D02*
X994146D01*
X965000Y785000D02*
X967929Y787929D01*
X978759D02*
X979250Y788420D01*
X967929Y787929D02*
X978759D01*
X965000Y776350D02*
X968250Y773100D01*
X965000Y776350D02*
Y785000D01*
X968250Y773100D02*
X973000D01*
X1005000Y674500D02*
X1016000Y663500D01*
X1207250Y958100D02*
X1212000D01*
X1202071Y952921D02*
X1207250Y958100D01*
X1202071Y947929D02*
X1205000Y945000D01*
X1202071Y947929D02*
Y952921D01*
X1205000Y945000D02*
X1211600D01*
X1212000Y945400D01*
X1207250Y907300D02*
X1212000D01*
X1202071Y902121D02*
X1207250Y907300D01*
X1202071Y897929D02*
Y902121D01*
Y897929D02*
X1205000Y895000D01*
X1211600D01*
X1212000Y894600D01*
X1158500Y894100D02*
X1165900D01*
X1170000Y890000D01*
X1167071Y882400D02*
X1170000Y885329D01*
Y890000D01*
X1158500Y882400D02*
X1167071D01*
X1158000Y881900D02*
X1158500Y882400D01*
X1016000Y661500D02*
X1018000Y659500D01*
X1020000D01*
X1016000Y661500D02*
Y663500D01*
X1080000Y720000D02*
X1087600D01*
X1088000Y720400D01*
X1050000Y690000D02*
X1080000Y720000D01*
X996850Y760400D02*
X1022250Y735000D01*
X973000Y760400D02*
X996850D01*
X1022250Y735000D02*
X1027000D01*
X973000Y747700D02*
X973500Y747200D01*
X984871D02*
X990000Y742071D01*
X973500Y747200D02*
X984871D01*
X982800Y722800D02*
X990000Y730000D01*
Y742071D01*
X973500Y722800D02*
X982800D01*
X973000Y722300D02*
X973500Y722800D01*
X964900Y710100D02*
X972500D01*
X960000Y715000D02*
X964900Y710100D01*
X972500D02*
X973000Y709600D01*
X960000Y715000D02*
Y730000D01*
X965000Y735000D01*
X940000Y716500D02*
Y725750D01*
X942000Y714500D02*
X945500D01*
X940000Y716500D02*
X942000Y714500D01*
X945500D02*
X962600Y697400D01*
X905000Y665500D02*
X905000Y665500D01*
X920000D01*
X917929Y592929D02*
Y597121D01*
X915000Y590000D02*
X917929Y592929D01*
X908400Y590000D02*
X915000D01*
X908000Y589600D02*
X908400Y590000D01*
X962000Y627700D02*
X962089Y627611D01*
X962000Y640400D02*
X962500Y639900D01*
X962000Y602300D02*
X966750D01*
X952600Y652600D02*
X961500D01*
X962000Y653100D01*
X920000Y620000D02*
X952600Y652600D01*
X908000Y627700D02*
X917071D01*
X920000Y624771D01*
X915000Y615000D02*
X920000Y620000D01*
Y624771D01*
X908000Y615000D02*
X915000D01*
X1090000Y620000D02*
X1105000Y635000D01*
X1265950D01*
X1278250Y622700D02*
X1283000D01*
X1265950Y635000D02*
X1278250Y622700D01*
X1115000Y620000D02*
X1135000Y600000D01*
X1332250Y584600D02*
X1337000D01*
X1278250Y648100D02*
X1283000D01*
X652700Y837750D02*
X653200Y842500D01*
X705000Y820250D02*
Y820750D01*
X678100Y825650D02*
Y837750D01*
X575000Y740000D02*
X595000D01*
X575000Y724000D02*
Y740000D01*
D69*
X575000Y800000D02*
X575000D01*
Y800000D02*
Y800000D01*
D71*
X867700Y620000D02*
D03*
X842300D02*
D03*
X1277300Y775000D02*
D03*
X1302700D02*
D03*
X1390000Y632700D02*
D03*
Y607300D02*
D03*
D72*
X861200Y538750D02*
D03*
D73*
X708800D02*
D03*
X835800D02*
D03*
X759600D02*
D03*
X1144600Y810000D02*
D03*
X1119200D02*
D03*
X1170000D02*
D03*
X589000Y540500D02*
D03*
X589000Y631500D02*
D03*
X550100Y952550D02*
D03*
X641100Y952550D02*
D03*
D74*
X925000Y515000D02*
D03*
X1425000D02*
D03*
Y800000D02*
D03*
X925000D02*
D03*
D75*
X1235000Y525000D02*
D03*
X1210000Y550000D02*
D03*
Y525000D02*
D03*
X1185000Y550000D02*
D03*
Y525000D02*
D03*
X1160000Y550000D02*
D03*
Y525000D02*
D03*
X1135000Y550000D02*
D03*
X1060000Y525000D02*
D03*
X1085000D02*
D03*
Y550000D02*
D03*
X1110000D02*
D03*
X1235000D02*
D03*
X1135000Y525000D02*
D03*
X1110000D02*
D03*
X570000Y570000D02*
D03*
Y600000D02*
D03*
X579600Y971550D02*
D03*
X609600D02*
D03*
D76*
X1060000Y550000D02*
D03*
D77*
X1147500Y563805D02*
D03*
D78*
X1284000Y925000D02*
D03*
X1030000Y976000D02*
D03*
Y874000D02*
D03*
D79*
X776000Y925000D02*
D03*
D80*
X652740Y775000D02*
D03*
D81*
Y749600D02*
D03*
Y724200D02*
D03*
D82*
X750000Y800000D02*
D03*
X925000Y542500D02*
D03*
X945000Y535000D02*
D03*
X952500Y515000D02*
D03*
X945000Y495000D02*
D03*
X925000Y487500D02*
D03*
X905000Y495000D02*
D03*
X897500Y515000D02*
D03*
X905000Y535000D02*
D03*
X1170000Y675000D02*
D03*
X1030000Y555000D02*
D03*
X970000Y935000D02*
D03*
X1405000Y535000D02*
D03*
X1397500Y515000D02*
D03*
X1405000Y495000D02*
D03*
X1425000Y487500D02*
D03*
X1445000Y495000D02*
D03*
X1452500Y515000D02*
D03*
X1445000Y535000D02*
D03*
X1425000Y542500D02*
D03*
X1291419Y689341D02*
D03*
X915000Y740000D02*
D03*
X925160Y644530D02*
D03*
X940000Y985000D02*
D03*
X1295000D02*
D03*
X1500000Y955000D02*
D03*
X1375000Y565000D02*
D03*
X1372000Y780000D02*
D03*
X1297000Y610000D02*
D03*
X1202000Y740000D02*
D03*
X1055000Y717600D02*
D03*
X931495Y586072D02*
D03*
X1279081Y535742D02*
D03*
X1265000Y610000D02*
D03*
X1055891Y930347D02*
D03*
X1120000Y895000D02*
D03*
X1347935Y920165D02*
D03*
X1360000Y565000D02*
D03*
X1350000Y854000D02*
D03*
X962000Y602300D02*
D03*
X1122302Y945858D02*
D03*
X956869Y902647D02*
D03*
X1341244Y652512D02*
D03*
X1285000Y635000D02*
D03*
X1244014Y683176D02*
D03*
X1315000Y970000D02*
D03*
X1347750Y958100D02*
D03*
X1240000Y695000D02*
D03*
X1400000Y945000D02*
D03*
X1397102Y958252D02*
D03*
X1265000Y725000D02*
D03*
X1239519Y708074D02*
D03*
X1236533Y732956D02*
D03*
X1105301Y682597D02*
D03*
X1142176Y733218D02*
D03*
X1065000Y690000D02*
D03*
X1130000Y695000D02*
D03*
X1070517Y920166D02*
D03*
X1213215Y908033D02*
D03*
X1122725Y919909D02*
D03*
X1212000Y945400D02*
D03*
X1000000Y715000D02*
D03*
X1491926Y700588D02*
D03*
X1240000Y495000D02*
D03*
X1450000Y665000D02*
D03*
X1325594Y637457D02*
D03*
X1248490Y842143D02*
D03*
X1200000Y930000D02*
D03*
X1170000Y620000D02*
D03*
X1115000D02*
D03*
X1090000D02*
D03*
X1065000D02*
D03*
X575000Y800000D02*
D03*
X1425000Y827500D02*
D03*
X1445000Y820000D02*
D03*
X1452500Y800000D02*
D03*
X1445000Y780000D02*
D03*
X1425000Y772500D02*
D03*
X1405000Y780000D02*
D03*
X1397500Y800000D02*
D03*
X1405000Y820000D02*
D03*
X905000D02*
D03*
X897500Y800000D02*
D03*
X905000Y780000D02*
D03*
X925000Y772500D02*
D03*
X945000Y780000D02*
D03*
X952500Y800000D02*
D03*
X945000Y820000D02*
D03*
X925000Y827500D02*
D03*
D83*
X842300Y732500D02*
D03*
X867700D02*
D03*
Y657500D02*
D03*
X842300D02*
D03*
D84*
X840500Y565000D02*
D03*
X859500D02*
D03*
X869000Y760000D02*
D03*
X850000D02*
D03*
X754500Y615503D02*
D03*
X735500D02*
D03*
X754500Y590000D02*
D03*
X735500D02*
D03*
X1320500Y810000D02*
D03*
X1339500D02*
D03*
Y795000D02*
D03*
X1320500D02*
D03*
D85*
X1027000Y722300D02*
D03*
Y709600D02*
D03*
X1122000Y958100D02*
D03*
Y907300D02*
D03*
X1068000Y945400D02*
D03*
Y907300D02*
D03*
X1337000Y635400D02*
D03*
Y648100D02*
D03*
Y622700D02*
D03*
Y610000D02*
D03*
Y597300D02*
D03*
Y584600D02*
D03*
Y571900D02*
D03*
X1283000Y648100D02*
D03*
Y635400D02*
D03*
Y622700D02*
D03*
Y610000D02*
D03*
Y597300D02*
D03*
Y584600D02*
D03*
Y571900D02*
D03*
X1088000Y656900D02*
D03*
Y669600D02*
D03*
Y682300D02*
D03*
Y695000D02*
D03*
Y707700D02*
D03*
Y720400D02*
D03*
Y733100D02*
D03*
X1142000Y656900D02*
D03*
Y669600D02*
D03*
Y682300D02*
D03*
Y695000D02*
D03*
Y707700D02*
D03*
Y720400D02*
D03*
Y733100D02*
D03*
X1239000Y720800D02*
D03*
Y733500D02*
D03*
Y708100D02*
D03*
Y695400D02*
D03*
Y682700D02*
D03*
Y670000D02*
D03*
Y657300D02*
D03*
X1185000Y733500D02*
D03*
Y720800D02*
D03*
Y708100D02*
D03*
Y695400D02*
D03*
Y682700D02*
D03*
Y670000D02*
D03*
Y657300D02*
D03*
X962000Y640400D02*
D03*
Y653100D02*
D03*
Y627700D02*
D03*
Y615000D02*
D03*
Y602300D02*
D03*
Y589600D02*
D03*
Y576900D02*
D03*
X908000Y653100D02*
D03*
Y640400D02*
D03*
Y627700D02*
D03*
Y615000D02*
D03*
Y602300D02*
D03*
Y589600D02*
D03*
Y576900D02*
D03*
X957000Y940400D02*
D03*
Y953100D02*
D03*
Y927700D02*
D03*
Y915000D02*
D03*
Y902300D02*
D03*
Y889600D02*
D03*
Y876900D02*
D03*
X903000Y953100D02*
D03*
Y940400D02*
D03*
Y927700D02*
D03*
Y915000D02*
D03*
Y902300D02*
D03*
Y889600D02*
D03*
Y876900D02*
D03*
X1418000Y651900D02*
D03*
Y664600D02*
D03*
Y677300D02*
D03*
Y690000D02*
D03*
Y702700D02*
D03*
Y715400D02*
D03*
Y728100D02*
D03*
X1472000Y651900D02*
D03*
Y664600D02*
D03*
Y677300D02*
D03*
Y690000D02*
D03*
Y702700D02*
D03*
Y728100D02*
D03*
Y715400D02*
D03*
X1302000Y893100D02*
D03*
Y880400D02*
D03*
Y867700D02*
D03*
Y855000D02*
D03*
Y842300D02*
D03*
Y829600D02*
D03*
Y816900D02*
D03*
X1248000Y893100D02*
D03*
Y880400D02*
D03*
Y867700D02*
D03*
Y855000D02*
D03*
Y842300D02*
D03*
Y829600D02*
D03*
Y816900D02*
D03*
X1212000Y945400D02*
D03*
Y958100D02*
D03*
Y932700D02*
D03*
Y920000D02*
D03*
Y907300D02*
D03*
Y894600D02*
D03*
Y881900D02*
D03*
X1158000Y958100D02*
D03*
Y945400D02*
D03*
Y932700D02*
D03*
Y920000D02*
D03*
Y907300D02*
D03*
Y894600D02*
D03*
Y881900D02*
D03*
X973000Y696900D02*
D03*
Y709600D02*
D03*
Y722300D02*
D03*
Y735000D02*
D03*
Y747700D02*
D03*
Y760400D02*
D03*
Y773100D02*
D03*
X1027000Y696900D02*
D03*
Y735000D02*
D03*
Y747700D02*
D03*
Y773100D02*
D03*
Y760400D02*
D03*
X1068000Y881900D02*
D03*
Y894600D02*
D03*
Y920000D02*
D03*
Y932700D02*
D03*
Y958100D02*
D03*
X1122000Y881900D02*
D03*
Y894600D02*
D03*
Y920000D02*
D03*
Y932700D02*
D03*
Y945400D02*
D03*
D86*
X1445000Y904000D02*
D03*
Y876000D02*
D03*
X1488520Y906055D02*
D03*
Y878055D02*
D03*
X1350000Y854000D02*
D03*
Y826000D02*
D03*
X1488520Y919570D02*
D03*
Y947570D02*
D03*
X1420000Y842000D02*
D03*
Y870000D02*
D03*
D87*
X1289000Y955000D02*
D03*
X1261000D02*
D03*
D88*
X601900Y892250D02*
D03*
X614600D02*
D03*
X627300D02*
D03*
X640000D02*
D03*
X652700D02*
D03*
X665400D02*
D03*
X678100D02*
D03*
X601900Y837750D02*
D03*
X614600D02*
D03*
X627300D02*
D03*
X640000D02*
D03*
X652700D02*
D03*
X665400D02*
D03*
X678100D02*
D03*
D89*
X705000Y839250D02*
D03*
Y820750D02*
D03*
D90*
X575000Y696000D02*
D03*
Y724000D02*
D03*
M02*
