G04*
G04 #@! TF.GenerationSoftware,Altium Limited,Altium Designer,22.11.1 (43)*
G04*
G04 Layer_Color=2752767*
%FSLAX44Y44*%
%MOMM*%
G71*
G04*
G04 #@! TF.SameCoordinates,71FBA96F-98A1-49F9-A78B-1FB66A7A07A6*
G04*
G04*
G04 #@! TF.FilePolarity,Positive*
G04*
G01*
G75*
%ADD96C,0.1693*%
%ADD97C,0.1016*%
%ADD98C,0.1270*%
D96*
X227180Y437900D02*
G03*
X227180Y437900I-5080J0D01*
G01*
Y412500D02*
G03*
X227180Y412500I-5080J0D01*
G01*
X277980Y437900D02*
G03*
X277980Y437900I-5080J0D01*
G01*
Y387100D02*
G03*
X277980Y387100I-5080J0D01*
G01*
X855080Y355000D02*
G03*
X855080Y355000I-5080J0D01*
G01*
X830080Y330000D02*
G03*
X830080Y330000I-5080J0D01*
G01*
X855080D02*
G03*
X855080Y330000I-5080J0D01*
G01*
X830080Y305000D02*
G03*
X830080Y305000I-5080J0D01*
G01*
X855080D02*
G03*
X855080Y305000I-5080J0D01*
G01*
X830080Y280000D02*
G03*
X830080Y280000I-5080J0D01*
G01*
X855080D02*
G03*
X855080Y280000I-5080J0D01*
G01*
X830080Y255000D02*
G03*
X830080Y255000I-5080J0D01*
G01*
X855080Y180000D02*
G03*
X855080Y180000I-5080J0D01*
G01*
Y205000D02*
G03*
X855080Y205000I-5080J0D01*
G01*
X830080D02*
G03*
X830080Y205000I-5080J0D01*
G01*
Y230000D02*
G03*
X830080Y230000I-5080J0D01*
G01*
Y355000D02*
G03*
X830080Y355000I-5080J0D01*
G01*
Y180000D02*
G03*
X830080Y180000I-5080J0D01*
G01*
X855080Y255000D02*
G03*
X855080Y255000I-5080J0D01*
G01*
Y230000D02*
G03*
X855080Y230000I-5080J0D01*
G01*
D97*
X225148Y437900D02*
G03*
X225148Y437900I-3048J0D01*
G01*
Y412500D02*
G03*
X225148Y412500I-3048J0D01*
G01*
X275948Y437900D02*
G03*
X275948Y437900I-3048J0D01*
G01*
Y387100D02*
G03*
X275948Y387100I-3048J0D01*
G01*
D98*
X811195Y262420D02*
X806115Y272580D01*
X816275D01*
X811195Y262420D01*
X844920Y44920D02*
Y55080D01*
X855080D01*
Y44920D01*
X844920D01*
X677360Y517960D02*
Y515420D01*
X682440D01*
Y517960D01*
X684980D01*
Y523040D01*
X682440D01*
Y525580D01*
X677360D01*
Y523040D01*
X674820D01*
Y517960D01*
X677360D01*
X626560D02*
Y515420D01*
X631640D01*
Y517960D01*
X634180D01*
Y523040D01*
X631640D01*
Y525580D01*
X626560D01*
Y523040D01*
X624020D01*
Y517960D01*
X626560D01*
X651960D02*
Y515420D01*
X657040D01*
Y517960D01*
X659580D01*
Y523040D01*
X657040D01*
Y525580D01*
X651960D01*
Y523040D01*
X649420D01*
Y517960D01*
X651960D01*
X753120Y520420D02*
X755660Y525500D01*
X753120Y530580D01*
X758200Y528040D01*
X763280Y530580D01*
X760740Y525500D01*
X763280Y520420D01*
X758200Y522960D01*
X753120Y520420D01*
X727720D02*
X730260Y525500D01*
X727720Y530580D01*
X732800Y528040D01*
X737880Y530580D01*
X735340Y525500D01*
X737880Y520420D01*
X732800Y522960D01*
X727720Y520420D01*
X694920Y347220D02*
X697460Y352300D01*
X694920Y357380D01*
X700000Y354840D01*
X705080Y357380D01*
X702540Y352300D01*
X705080Y347220D01*
X700000Y349760D01*
X694920Y347220D01*
Y372620D02*
X697460Y377700D01*
X694920Y382780D01*
X700000Y380240D01*
X705080Y382780D01*
X702540Y377700D01*
X705080Y372620D01*
X700000Y375160D01*
X694920Y372620D01*
X394920Y494920D02*
Y505080D01*
X405080D01*
Y494920D01*
X394920D01*
X40000Y144920D02*
X42540Y147460D01*
X45080D01*
X42540Y150000D01*
X45080Y152540D01*
X42540D01*
X40000Y155080D01*
X37460Y152540D01*
X34920D01*
X37460Y150000D01*
X34920Y147460D01*
X37460D01*
X40000Y144920D01*
Y174920D02*
X42540Y177460D01*
X45080D01*
X42540Y180000D01*
X45080Y182540D01*
X42540D01*
X40000Y185080D01*
X37460Y182540D01*
X34920D01*
X37460Y180000D01*
X34920Y177460D01*
X37460D01*
X40000Y174920D01*
X394920Y44920D02*
Y55080D01*
X405080D01*
Y44920D01*
X394920D01*
X844920Y494920D02*
Y505080D01*
X855080D01*
Y494920D01*
X844920D01*
X100000Y185720D02*
X94920Y195880D01*
X105080D01*
X100000Y185720D01*
Y187752D02*
X96952Y193848D01*
X103048D01*
X100000Y187752D01*
Y134920D02*
X94920Y145080D01*
X105080D01*
X100000Y134920D01*
Y136952D02*
X96952Y143048D01*
X103048D01*
X100000Y136952D01*
X125400Y160320D02*
X120320Y170480D01*
X130480D01*
X125400Y160320D01*
Y162352D02*
X122352Y168448D01*
X128448D01*
X125400Y162352D01*
X80000Y504920D02*
X82540Y507460D01*
X85080D01*
X82540Y510000D01*
X85080Y512540D01*
X82540D01*
X80000Y515080D01*
X77460Y512540D01*
X74920D01*
X77460Y510000D01*
X74920Y507460D01*
X77460D01*
X80000Y504920D01*
X50000D02*
X52540Y507460D01*
X55080D01*
X52540Y510000D01*
X55080Y512540D01*
X52540D01*
X50000Y515080D01*
X47460Y512540D01*
X44920D01*
X47460Y510000D01*
X44920Y507460D01*
X47460D01*
X50000Y504920D01*
X190000D02*
X192540Y507460D01*
X195080D01*
X192540Y510000D01*
X195080Y512540D01*
X192540D01*
X190000Y515080D01*
X187460Y512540D01*
X184920D01*
X187460Y510000D01*
X184920Y507460D01*
X187460D01*
X190000Y504920D01*
X160000D02*
X162540Y507460D01*
X165080D01*
X162540Y510000D01*
X165080Y512540D01*
X162540D01*
X160000Y515080D01*
X157460Y512540D01*
X154920D01*
X157460Y510000D01*
X154920Y507460D01*
X157460D01*
X160000Y504920D01*
X844920Y77500D02*
X850000Y82580D01*
X855080Y77500D01*
X850000Y72420D01*
X844920Y77500D01*
X864920Y70000D02*
X870000Y75080D01*
X875080Y70000D01*
X870000Y64920D01*
X864920Y70000D01*
X872420Y50000D02*
X877500Y55080D01*
X882580Y50000D01*
X877500Y44920D01*
X872420Y50000D01*
X864920Y30000D02*
X870000Y35080D01*
X875080Y30000D01*
X870000Y24920D01*
X864920Y30000D01*
X844920Y22500D02*
X850000Y27580D01*
X855080Y22500D01*
X850000Y17420D01*
X844920Y22500D01*
X824920Y30000D02*
X830000Y35080D01*
X835080Y30000D01*
X830000Y24920D01*
X824920Y30000D01*
X817420Y50000D02*
X822500Y55080D01*
X827580Y50000D01*
X822500Y44920D01*
X817420Y50000D01*
X824920Y70000D02*
X830000Y75080D01*
X835080Y70000D01*
X830000Y64920D01*
X824920Y70000D01*
X394920Y527500D02*
X400000Y532580D01*
X405080Y527500D01*
X400000Y522420D01*
X394920Y527500D01*
X414920Y520000D02*
X420000Y525080D01*
X425080Y520000D01*
X420000Y514920D01*
X414920Y520000D01*
X422420Y500000D02*
X427500Y505080D01*
X432580Y500000D01*
X427500Y494920D01*
X422420Y500000D01*
X414920Y480000D02*
X420000Y485080D01*
X425080Y480000D01*
X420000Y474920D01*
X414920Y480000D01*
X394920Y472500D02*
X400000Y477580D01*
X405080Y472500D01*
X400000Y467420D01*
X394920Y472500D01*
X374920Y480000D02*
X380000Y485080D01*
X385080Y480000D01*
X380000Y474920D01*
X374920Y480000D01*
X367420Y500000D02*
X372500Y505080D01*
X377580Y500000D01*
X372500Y494920D01*
X367420Y500000D01*
X374920Y520000D02*
X380000Y525080D01*
X385080Y520000D01*
X380000Y514920D01*
X374920Y520000D01*
X53920Y115420D02*
X56460D01*
X59000Y117960D01*
X61540Y115420D01*
X64080D01*
Y117960D01*
X61540Y120500D01*
X64080Y123040D01*
Y125580D01*
X61540D01*
X59000Y123040D01*
X56460Y125580D01*
X53920D01*
Y123040D01*
X56460Y120500D01*
X53920Y117960D01*
Y115420D01*
Y206420D02*
X56460D01*
X59000Y208960D01*
X61540Y206420D01*
X64080D01*
Y208960D01*
X61540Y211500D01*
X64080Y214040D01*
Y216580D01*
X61540D01*
X59000Y214040D01*
X56460Y216580D01*
X53920D01*
Y214040D01*
X56460Y211500D01*
X53920Y208960D01*
Y206420D01*
X374920Y70000D02*
X380000Y75080D01*
X385080Y70000D01*
X380000Y64920D01*
X374920Y70000D01*
X367420Y50000D02*
X372500Y55080D01*
X377580Y50000D01*
X372500Y44920D01*
X367420Y50000D01*
X374920Y30000D02*
X380000Y35080D01*
X385080Y30000D01*
X380000Y24920D01*
X374920Y30000D01*
X394920Y22500D02*
X400000Y27580D01*
X405080Y22500D01*
X400000Y17420D01*
X394920Y22500D01*
X414920Y30000D02*
X420000Y35080D01*
X425080Y30000D01*
X420000Y24920D01*
X414920Y30000D01*
X422420Y50000D02*
X427500Y55080D01*
X432580Y50000D01*
X427500Y44920D01*
X422420Y50000D01*
X414920Y70000D02*
X420000Y75080D01*
X425080Y70000D01*
X420000Y64920D01*
X414920Y70000D01*
X394920Y77500D02*
X400000Y82580D01*
X405080Y77500D01*
X400000Y72420D01*
X394920Y77500D01*
X824920Y520000D02*
X830000Y525080D01*
X835080Y520000D01*
X830000Y514920D01*
X824920Y520000D01*
X817420Y500000D02*
X822500Y505080D01*
X827580Y500000D01*
X822500Y494920D01*
X817420Y500000D01*
X824920Y480000D02*
X830000Y485080D01*
X835080Y480000D01*
X830000Y474920D01*
X824920Y480000D01*
X844920Y472500D02*
X850000Y477580D01*
X855080Y472500D01*
X850000Y467420D01*
X844920Y472500D01*
X864920Y480000D02*
X870000Y485080D01*
X875080Y480000D01*
X870000Y474920D01*
X864920Y480000D01*
X872420Y500000D02*
X877500Y505080D01*
X882580Y500000D01*
X877500Y494920D01*
X872420Y500000D01*
X864920Y520000D02*
X870000Y525080D01*
X875080Y520000D01*
X870000Y514920D01*
X864920Y520000D01*
X844920Y527500D02*
X850000Y532580D01*
X855080Y527500D01*
X850000Y522420D01*
X844920Y527500D01*
X106420Y485920D02*
X108960D01*
X111500Y488460D01*
X114040Y485920D01*
X116580D01*
Y488460D01*
X114040Y491000D01*
X116580Y493540D01*
Y496080D01*
X114040D01*
X111500Y493540D01*
X108960Y496080D01*
X106420D01*
Y493540D01*
X108960Y491000D01*
X106420Y488460D01*
Y485920D01*
X15420D02*
X17960D01*
X20500Y488460D01*
X23040Y485920D01*
X25580D01*
Y488460D01*
X23040Y491000D01*
X25580Y493540D01*
Y496080D01*
X23040D01*
X20500Y493540D01*
X17960Y496080D01*
X15420D01*
Y493540D01*
X17960Y491000D01*
X15420Y488460D01*
Y485920D01*
X216420D02*
X218960D01*
X221500Y488460D01*
X224040Y485920D01*
X226580D01*
Y488460D01*
X224040Y491000D01*
X226580Y493540D01*
Y496080D01*
X224040D01*
X221500Y493540D01*
X218960Y496080D01*
X216420D01*
Y493540D01*
X218960Y491000D01*
X216420Y488460D01*
Y485920D01*
X125420D02*
X127960D01*
X130500Y488460D01*
X133040Y485920D01*
X135580D01*
Y488460D01*
X133040Y491000D01*
X135580Y493540D01*
Y496080D01*
X133040D01*
X130500Y493540D01*
X127960Y496080D01*
X125420D01*
Y493540D01*
X127960Y491000D01*
X125420Y488460D01*
Y485920D01*
M02*
