G04*
G04 #@! TF.GenerationSoftware,Altium Limited,Altium Designer,22.11.1 (43)*
G04*
G04 Layer_Physical_Order=1*
G04 Layer_Color=255*
%FSLAX44Y44*%
%MOMM*%
G71*
G04*
G04 #@! TF.SameCoordinates,71FBA96F-98A1-49F9-A78B-1FB66A7A07A6*
G04*
G04*
G04 #@! TF.FilePolarity,Positive*
G04*
G01*
G75*
%ADD10C,0.2500*%
G04:AMPARAMS|DCode=16|XSize=1.5mm|YSize=3mm|CornerRadius=0.375mm|HoleSize=0mm|Usage=FLASHONLY|Rotation=90.000|XOffset=0mm|YOffset=0mm|HoleType=Round|Shape=RoundedRectangle|*
%AMROUNDEDRECTD16*
21,1,1.5000,2.2500,0,0,90.0*
21,1,0.7500,3.0000,0,0,90.0*
1,1,0.7500,1.1250,0.3750*
1,1,0.7500,1.1250,-0.3750*
1,1,0.7500,-1.1250,-0.3750*
1,1,0.7500,-1.1250,0.3750*
%
%ADD16ROUNDEDRECTD16*%
G04:AMPARAMS|DCode=17|XSize=6.5mm|YSize=6.5mm|CornerRadius=0.8125mm|HoleSize=0mm|Usage=FLASHONLY|Rotation=0.000|XOffset=0mm|YOffset=0mm|HoleType=Round|Shape=RoundedRectangle|*
%AMROUNDEDRECTD17*
21,1,6.5000,4.8750,0,0,0.0*
21,1,4.8750,6.5000,0,0,0.0*
1,1,1.6250,2.4375,-2.4375*
1,1,1.6250,-2.4375,-2.4375*
1,1,1.6250,-2.4375,2.4375*
1,1,1.6250,2.4375,2.4375*
%
%ADD17ROUNDEDRECTD17*%
%ADD18R,1.3500X1.1500*%
%ADD19C,1.0000*%
%ADD20R,3.5000X1.5000*%
%ADD21R,0.9000X1.3000*%
G04:AMPARAMS|DCode=22|XSize=0.6mm|YSize=1.45mm|CornerRadius=0.15mm|HoleSize=0mm|Usage=FLASHONLY|Rotation=0.000|XOffset=0mm|YOffset=0mm|HoleType=Round|Shape=RoundedRectangle|*
%AMROUNDEDRECTD22*
21,1,0.6000,1.1500,0,0,0.0*
21,1,0.3000,1.4500,0,0,0.0*
1,1,0.3000,0.1500,-0.5750*
1,1,0.3000,-0.1500,-0.5750*
1,1,0.3000,-0.1500,0.5750*
1,1,0.3000,0.1500,0.5750*
%
%ADD22ROUNDEDRECTD22*%
%ADD23R,1.3000X0.9000*%
G04:AMPARAMS|DCode=24|XSize=0.65mm|YSize=1.25mm|CornerRadius=0.1625mm|HoleSize=0mm|Usage=FLASHONLY|Rotation=90.000|XOffset=0mm|YOffset=0mm|HoleType=Round|Shape=RoundedRectangle|*
%AMROUNDEDRECTD24*
21,1,0.6500,0.9250,0,0,90.0*
21,1,0.3250,1.2500,0,0,90.0*
1,1,0.3250,0.4625,0.1625*
1,1,0.3250,0.4625,-0.1625*
1,1,0.3250,-0.4625,-0.1625*
1,1,0.3250,-0.4625,0.1625*
%
%ADD24ROUNDEDRECTD24*%
G04:AMPARAMS|DCode=25|XSize=0.6mm|YSize=1.55mm|CornerRadius=0.15mm|HoleSize=0mm|Usage=FLASHONLY|Rotation=0.000|XOffset=0mm|YOffset=0mm|HoleType=Round|Shape=RoundedRectangle|*
%AMROUNDEDRECTD25*
21,1,0.6000,1.2500,0,0,0.0*
21,1,0.3000,1.5500,0,0,0.0*
1,1,0.3000,0.1500,-0.6250*
1,1,0.3000,-0.1500,-0.6250*
1,1,0.3000,-0.1500,0.6250*
1,1,0.3000,0.1500,0.6250*
%
%ADD25ROUNDEDRECTD25*%
G04:AMPARAMS|DCode=26|XSize=1.5mm|YSize=2.1mm|CornerRadius=0.375mm|HoleSize=0mm|Usage=FLASHONLY|Rotation=90.000|XOffset=0mm|YOffset=0mm|HoleType=Round|Shape=RoundedRectangle|*
%AMROUNDEDRECTD26*
21,1,1.5000,1.3500,0,0,90.0*
21,1,0.7500,2.1000,0,0,90.0*
1,1,0.7500,0.6750,0.3750*
1,1,0.7500,0.6750,-0.3750*
1,1,0.7500,-0.6750,-0.3750*
1,1,0.7500,-0.6750,0.3750*
%
%ADD26ROUNDEDRECTD26*%
%ADD27R,2.0000X2.8000*%
G04:AMPARAMS|DCode=28|XSize=3.3mm|YSize=2.3mm|CornerRadius=0.575mm|HoleSize=0mm|Usage=FLASHONLY|Rotation=270.000|XOffset=0mm|YOffset=0mm|HoleType=Round|Shape=RoundedRectangle|*
%AMROUNDEDRECTD28*
21,1,3.3000,1.1500,0,0,270.0*
21,1,2.1500,2.3000,0,0,270.0*
1,1,1.1500,-0.5750,-1.0750*
1,1,1.1500,-0.5750,1.0750*
1,1,1.1500,0.5750,1.0750*
1,1,1.1500,0.5750,-1.0750*
%
%ADD28ROUNDEDRECTD28*%
G04:AMPARAMS|DCode=29|XSize=7mm|YSize=4mm|CornerRadius=1mm|HoleSize=0mm|Usage=FLASHONLY|Rotation=270.000|XOffset=0mm|YOffset=0mm|HoleType=Round|Shape=RoundedRectangle|*
%AMROUNDEDRECTD29*
21,1,7.0000,2.0000,0,0,270.0*
21,1,5.0000,4.0000,0,0,270.0*
1,1,2.0000,-1.0000,-2.5000*
1,1,2.0000,-1.0000,2.5000*
1,1,2.0000,1.0000,2.5000*
1,1,2.0000,1.0000,-2.5000*
%
%ADD29ROUNDEDRECTD29*%
G04:AMPARAMS|DCode=30|XSize=1.3mm|YSize=1.1mm|CornerRadius=0.275mm|HoleSize=0mm|Usage=FLASHONLY|Rotation=90.000|XOffset=0mm|YOffset=0mm|HoleType=Round|Shape=RoundedRectangle|*
%AMROUNDEDRECTD30*
21,1,1.3000,0.5500,0,0,90.0*
21,1,0.7500,1.1000,0,0,90.0*
1,1,0.5500,0.2750,0.3750*
1,1,0.5500,0.2750,-0.3750*
1,1,0.5500,-0.2750,-0.3750*
1,1,0.5500,-0.2750,0.3750*
%
%ADD30ROUNDEDRECTD30*%
G04:AMPARAMS|DCode=31|XSize=1.75mm|YSize=1.25mm|CornerRadius=0.3125mm|HoleSize=0mm|Usage=FLASHONLY|Rotation=270.000|XOffset=0mm|YOffset=0mm|HoleType=Round|Shape=RoundedRectangle|*
%AMROUNDEDRECTD31*
21,1,1.7500,0.6250,0,0,270.0*
21,1,1.1250,1.2500,0,0,270.0*
1,1,0.6250,-0.3125,-0.5625*
1,1,0.6250,-0.3125,0.5625*
1,1,0.6250,0.3125,0.5625*
1,1,0.6250,0.3125,-0.5625*
%
%ADD31ROUNDEDRECTD31*%
%ADD32R,2.2000X1.3000*%
%ADD33R,2.8000X2.0000*%
G04:AMPARAMS|DCode=34|XSize=1.2mm|YSize=1.1mm|CornerRadius=0.275mm|HoleSize=0mm|Usage=FLASHONLY|Rotation=0.000|XOffset=0mm|YOffset=0mm|HoleType=Round|Shape=RoundedRectangle|*
%AMROUNDEDRECTD34*
21,1,1.2000,0.5500,0,0,0.0*
21,1,0.6500,1.1000,0,0,0.0*
1,1,0.5500,0.3250,-0.2750*
1,1,0.5500,-0.3250,-0.2750*
1,1,0.5500,-0.3250,0.2750*
1,1,0.5500,0.3250,0.2750*
%
%ADD34ROUNDEDRECTD34*%
G04:AMPARAMS|DCode=35|XSize=0.6mm|YSize=1.55mm|CornerRadius=0.15mm|HoleSize=0mm|Usage=FLASHONLY|Rotation=90.000|XOffset=0mm|YOffset=0mm|HoleType=Round|Shape=RoundedRectangle|*
%AMROUNDEDRECTD35*
21,1,0.6000,1.2500,0,0,90.0*
21,1,0.3000,1.5500,0,0,90.0*
1,1,0.3000,0.6250,0.1500*
1,1,0.3000,0.6250,-0.1500*
1,1,0.3000,-0.6250,-0.1500*
1,1,0.3000,-0.6250,0.1500*
%
%ADD35ROUNDEDRECTD35*%
%ADD36R,1.1500X1.3500*%
G04:AMPARAMS|DCode=37|XSize=5.6mm|YSize=6.9mm|CornerRadius=1.4mm|HoleSize=0mm|Usage=FLASHONLY|Rotation=270.000|XOffset=0mm|YOffset=0mm|HoleType=Round|Shape=RoundedRectangle|*
%AMROUNDEDRECTD37*
21,1,5.6000,4.1000,0,0,270.0*
21,1,2.8000,6.9000,0,0,270.0*
1,1,2.8000,-2.0500,-1.4000*
1,1,2.8000,-2.0500,1.4000*
1,1,2.8000,2.0500,1.4000*
1,1,2.8000,2.0500,-1.4000*
%
%ADD37ROUNDEDRECTD37*%
G04:AMPARAMS|DCode=38|XSize=5.6mm|YSize=6.9mm|CornerRadius=1.4mm|HoleSize=0mm|Usage=FLASHONLY|Rotation=180.000|XOffset=0mm|YOffset=0mm|HoleType=Round|Shape=RoundedRectangle|*
%AMROUNDEDRECTD38*
21,1,5.6000,4.1000,0,0,180.0*
21,1,2.8000,6.9000,0,0,180.0*
1,1,2.8000,-1.4000,2.0500*
1,1,2.8000,1.4000,2.0500*
1,1,2.8000,1.4000,-2.0500*
1,1,2.8000,-1.4000,-2.0500*
%
%ADD38ROUNDEDRECTD38*%
%ADD71C,0.5000*%
%ADD72C,1.0000*%
%ADD73C,1.5000*%
%ADD74C,2.0000*%
%ADD75C,1.6000*%
%ADD76R,1.6000X1.6000*%
%ADD77C,2.0000*%
G04:AMPARAMS|DCode=78|XSize=2mm|YSize=2mm|CornerRadius=0.5mm|HoleSize=0mm|Usage=FLASHONLY|Rotation=180.000|XOffset=0mm|YOffset=0mm|HoleType=Round|Shape=RoundedRectangle|*
%AMROUNDEDRECTD78*
21,1,2.0000,1.0000,0,0,180.0*
21,1,1.0000,2.0000,0,0,180.0*
1,1,1.0000,-0.5000,0.5000*
1,1,1.0000,0.5000,0.5000*
1,1,1.0000,0.5000,-0.5000*
1,1,1.0000,-0.5000,-0.5000*
%
%ADD78ROUNDEDRECTD78*%
%ADD79C,7.0000*%
%ADD80C,1.5000*%
%ADD81R,1.2000X1.2000*%
%ADD82C,1.2000*%
%ADD83C,0.7000*%
G36*
X717707Y531577D02*
X718520Y530221D01*
X718377Y529875D01*
X717800Y526978D01*
Y524023D01*
X718377Y521125D01*
X719235Y519052D01*
Y504566D01*
X719085Y504415D01*
X717081Y501804D01*
X715822Y498763D01*
X715392Y495500D01*
Y491250D01*
X715822Y487987D01*
X717081Y484946D01*
X719085Y482335D01*
X725536Y475883D01*
X725228Y474651D01*
X724482Y474425D01*
X721876Y473032D01*
X719592Y471158D01*
X717718Y468874D01*
X716325Y466268D01*
X715467Y463441D01*
X715177Y460500D01*
Y454750D01*
X715331Y453191D01*
X714478Y452250D01*
X690072D01*
Y509356D01*
X690558Y509842D01*
X692432Y512126D01*
X693366Y513873D01*
X693674Y513961D01*
X694793Y513849D01*
X695698Y512281D01*
X697281Y510698D01*
X699219Y509579D01*
X701381Y509000D01*
X703619D01*
X705781Y509579D01*
X707719Y510698D01*
X709302Y512281D01*
X710421Y514219D01*
X711000Y516381D01*
Y518619D01*
X710421Y520781D01*
X710065Y521398D01*
Y524367D01*
X717314Y531616D01*
X717707Y531577D01*
D02*
G37*
G36*
X666846Y528762D02*
X664342Y526258D01*
X662467Y523974D01*
X661075Y521368D01*
X660217Y518540D01*
X659927Y515600D01*
Y451470D01*
X658754Y450984D01*
X649389Y460349D01*
X647823Y461551D01*
X645998Y462307D01*
X644040Y462565D01*
X486577D01*
X486140Y463002D01*
X483860Y464318D01*
X481317Y465000D01*
X478684D01*
X476140Y464318D01*
X473860Y463002D01*
X473423Y462565D01*
X463989D01*
X463989Y462565D01*
X462031Y462307D01*
X460206Y461551D01*
X458640Y460349D01*
X458640Y460349D01*
X458315Y460024D01*
X457089Y460353D01*
X456819Y461360D01*
X455502Y463640D01*
X453640Y465502D01*
X451807Y466561D01*
Y506109D01*
X464827Y519129D01*
X466000Y518643D01*
Y503500D01*
Y486000D01*
X500464D01*
X492732Y493732D01*
X496268Y497268D01*
X504000Y489536D01*
Y503500D01*
Y522965D01*
X496268Y515233D01*
X492732Y518768D01*
X500464Y526500D01*
X486000D01*
Y528619D01*
X485917Y528928D01*
X486690Y529935D01*
X529257D01*
X530030Y528928D01*
X530000Y528817D01*
Y526184D01*
X530681Y523640D01*
X531385Y522421D01*
X538232Y529268D01*
X541768Y525732D01*
X534921Y518885D01*
X536140Y518182D01*
X538250Y517616D01*
Y497690D01*
X528845D01*
X528777Y497777D01*
X527158Y499020D01*
X526451Y499313D01*
Y500687D01*
X526682Y500783D01*
X520000Y507464D01*
X513318Y500783D01*
X513549Y500687D01*
Y499313D01*
X512841Y499020D01*
X511223Y497777D01*
X509980Y496159D01*
X509199Y494273D01*
X508933Y492250D01*
Y486750D01*
X509199Y484727D01*
X509980Y482842D01*
X511223Y481223D01*
X512841Y479981D01*
X514727Y479200D01*
X516750Y478933D01*
X523250D01*
X525273Y479200D01*
X527158Y479981D01*
X528777Y481223D01*
X529804Y482560D01*
X538250D01*
Y480000D01*
X561750D01*
Y498500D01*
Y502060D01*
X573797D01*
X573860Y501998D01*
X576140Y500681D01*
X578683Y500000D01*
X581316D01*
X583860Y500681D01*
X586140Y501998D01*
X586577Y502435D01*
X618387D01*
X620345Y502693D01*
X622169Y503449D01*
X623736Y504651D01*
X627163Y508078D01*
X627454Y508000D01*
X630746D01*
X633925Y508852D01*
X636775Y510497D01*
X639103Y512825D01*
X640748Y515675D01*
X641600Y518854D01*
Y522146D01*
X640748Y525325D01*
X639103Y528175D01*
X638516Y528762D01*
X639002Y529935D01*
X666360D01*
X666846Y528762D01*
D02*
G37*
G36*
X865858Y550002D02*
X865858Y550002D01*
X868096D01*
X872533Y549418D01*
X876856Y548260D01*
X880991Y546547D01*
X884867Y544309D01*
X888417Y541584D01*
X891582Y538420D01*
X894307Y534869D01*
X896544Y530993D01*
X898257Y526858D01*
X899416Y522535D01*
X900000Y518098D01*
X900000Y515860D01*
X900000Y457020D01*
X898730Y456420D01*
X897374Y457533D01*
X894768Y458925D01*
X891941Y459783D01*
X889000Y460073D01*
X869000D01*
X866059Y459783D01*
X863232Y458925D01*
X860626Y457533D01*
X860284Y457252D01*
X880768Y436768D01*
X877232Y433232D01*
X856749Y453716D01*
X856468Y453374D01*
X855075Y450768D01*
X854217Y447941D01*
X853928Y445000D01*
Y425843D01*
X852657Y425027D01*
X851119Y425439D01*
X848881D01*
X847930Y426169D01*
Y449634D01*
X847673Y451592D01*
X846917Y453417D01*
X845715Y454983D01*
X815065Y485633D01*
Y502500D01*
X815065Y502500D01*
X814807Y504458D01*
X814051Y506282D01*
X812849Y507849D01*
X812849Y507849D01*
X775349Y545349D01*
X773782Y546551D01*
X771958Y547307D01*
X770000Y547565D01*
X715000D01*
X715000Y547565D01*
X713042Y547307D01*
X711217Y546551D01*
X709651Y545349D01*
X702500Y538198D01*
X697849Y542849D01*
X696282Y544051D01*
X694458Y544807D01*
X692500Y545065D01*
X472500D01*
X472500Y545065D01*
X471521Y544936D01*
X470542Y544807D01*
X468718Y544051D01*
X467151Y542849D01*
X438893Y514591D01*
X437691Y513024D01*
X436935Y511200D01*
X436677Y509242D01*
Y469503D01*
X435504Y469017D01*
X435219Y469302D01*
X433281Y470421D01*
X431119Y471000D01*
X428881D01*
X426719Y470421D01*
X424781Y469302D01*
X423199Y467719D01*
X422079Y465781D01*
X421500Y463619D01*
Y461381D01*
X422079Y459219D01*
X422433Y458607D01*
Y449000D01*
X418498D01*
Y447065D01*
X416498D01*
Y449000D01*
X393498D01*
Y447065D01*
X391498D01*
Y449000D01*
X368498D01*
Y447065D01*
X360000D01*
Y550002D01*
X865858Y550002D01*
X865858Y550002D01*
D02*
G37*
G36*
X470518Y410482D02*
X462785Y402750D01*
X476980D01*
X478250Y402750D01*
Y402750D01*
X478250D01*
Y402750D01*
X486552D01*
X492435Y396867D01*
Y392850D01*
X492444Y392783D01*
Y390850D01*
X492668Y389153D01*
X493322Y387572D01*
X494005Y386683D01*
X493766Y386102D01*
X492293Y385855D01*
X480449Y397699D01*
X478883Y398901D01*
X477058Y399657D01*
X475100Y399915D01*
X459844D01*
X459197Y400183D01*
X457500Y400406D01*
X452663D01*
X452177Y401580D01*
X457849Y407252D01*
X457849Y407252D01*
X457980Y407422D01*
X459250Y406991D01*
Y406286D01*
X466982Y414018D01*
X470518Y410482D01*
D02*
G37*
G36*
X650935Y437407D02*
X651119Y436719D01*
X652238Y434781D01*
X653821Y433198D01*
X655759Y432079D01*
X657921Y431500D01*
X659927D01*
Y379000D01*
X635458D01*
X634685Y380007D01*
X635000Y381184D01*
Y383817D01*
X634319Y386360D01*
X633002Y388640D01*
X632212Y389430D01*
X632738Y390700D01*
X633619D01*
X635781Y391279D01*
X637719Y392398D01*
X639302Y393981D01*
X640421Y395919D01*
X641000Y398081D01*
Y400319D01*
X640421Y402481D01*
X639302Y404419D01*
X637719Y406002D01*
X635781Y407121D01*
X635093Y407305D01*
X602049Y440349D01*
X602049Y440349D01*
X600482Y441551D01*
X598658Y442307D01*
X596700Y442565D01*
X553897D01*
X553281Y442921D01*
X551119Y443500D01*
X548881D01*
X546719Y442921D01*
X544781Y441802D01*
X543198Y440219D01*
X542079Y438281D01*
X541500Y436119D01*
Y433881D01*
X542079Y431719D01*
X543198Y429781D01*
X544781Y428198D01*
X546719Y427079D01*
X548881Y426500D01*
X551119D01*
X553281Y427079D01*
X553897Y427435D01*
X593567D01*
X624395Y396607D01*
X624579Y395919D01*
X625698Y393981D01*
X625909Y393770D01*
X625383Y392500D01*
X623684D01*
X621140Y391819D01*
X618860Y390502D01*
X617426Y389068D01*
X616156Y389594D01*
Y393250D01*
X615933Y394947D01*
X615278Y396528D01*
X614236Y397886D01*
X612878Y398928D01*
X611297Y399583D01*
X610915Y399633D01*
X595199Y415349D01*
X593632Y416551D01*
X591808Y417307D01*
X589850Y417565D01*
X571576D01*
X571140Y418002D01*
X568859Y419318D01*
X566316Y420000D01*
X563683D01*
X561140Y419318D01*
X558859Y418002D01*
X558423Y417565D01*
X530000D01*
X528042Y417307D01*
X526218Y416551D01*
X524651Y415349D01*
X514901Y405599D01*
X513699Y404033D01*
X512943Y402208D01*
X512685Y400250D01*
X511500Y400406D01*
X507511D01*
X507307Y401958D01*
X506551Y403783D01*
X505349Y405349D01*
X497250Y413448D01*
Y422750D01*
Y438058D01*
X497921Y439219D01*
X498500Y441381D01*
Y443619D01*
X497921Y445781D01*
X497601Y446335D01*
X498236Y447435D01*
X640907D01*
X650935Y437407D01*
D02*
G37*
G36*
X565222Y375072D02*
X566803Y374417D01*
X568500Y374194D01*
X571500D01*
X573197Y374417D01*
X573865Y374694D01*
X575135Y373846D01*
Y346155D01*
X573865Y345306D01*
X573197Y345583D01*
X571500Y345806D01*
X568500D01*
X566803Y345583D01*
X565222Y344928D01*
X563864Y343886D01*
X563436D01*
X562078Y344928D01*
X560497Y345583D01*
X558800Y345806D01*
X555800D01*
X554103Y345583D01*
X552522Y344928D01*
X551164Y343886D01*
X550736D01*
X549378Y344928D01*
X547797Y345583D01*
X546100Y345806D01*
X543100D01*
X541403Y345583D01*
X539822Y344928D01*
X538464Y343886D01*
X538036D01*
X536678Y344928D01*
X535097Y345583D01*
X534565Y345653D01*
Y360512D01*
X534565Y360512D01*
X534565Y360512D01*
X534425Y361573D01*
X534307Y362470D01*
X534307Y362470D01*
X534307Y362470D01*
X533896Y363463D01*
X533551Y364294D01*
X533551Y364294D01*
X533551Y364295D01*
X532956Y365071D01*
X532349Y365861D01*
X532349Y365861D01*
X532349Y365861D01*
X530065Y368145D01*
Y373900D01*
X530400Y374194D01*
X533400D01*
X535097Y374417D01*
X536678Y375072D01*
X538036Y376114D01*
X538464D01*
X539822Y375072D01*
X541403Y374417D01*
X543100Y374194D01*
X546100D01*
X547797Y374417D01*
X549378Y375072D01*
X550736Y376114D01*
X551164D01*
X552522Y375072D01*
X554103Y374417D01*
X555800Y374194D01*
X558800D01*
X560497Y374417D01*
X562078Y375072D01*
X563436Y376114D01*
X563864D01*
X565222Y375072D01*
D02*
G37*
G36*
X368498Y431037D02*
X368498Y430000D01*
X368498Y428730D01*
Y414535D01*
X376230Y422267D01*
X379766Y418732D01*
X372033Y411000D01*
X387962D01*
X380230Y418732D01*
X383765Y422267D01*
X391498Y414535D01*
Y428730D01*
X391498Y430000D01*
X391498Y431037D01*
X391642Y431181D01*
X393354D01*
X393498Y431037D01*
X393498Y430000D01*
X393498Y428730D01*
Y414535D01*
X401230Y422267D01*
X404766Y418732D01*
X397034Y411000D01*
X412962D01*
X405230Y418732D01*
X408766Y422267D01*
X416498Y414535D01*
Y428730D01*
X416498Y430000D01*
X416498Y431037D01*
X417228Y431767D01*
X417892Y431642D01*
X418498Y431037D01*
X418498Y430000D01*
X418498Y429999D01*
Y414535D01*
X426230Y422267D01*
X429765Y418732D01*
X422033Y411000D01*
X428642D01*
X429128Y409826D01*
X422151Y402849D01*
X420949Y401282D01*
X420193Y399458D01*
X419935Y397500D01*
Y375000D01*
X420193Y373042D01*
X420949Y371218D01*
X422151Y369651D01*
X426281Y365521D01*
X425853Y364153D01*
X423860Y363002D01*
X423581Y362723D01*
X421355D01*
X420465Y363236D01*
X418303Y363815D01*
X416065D01*
X413904Y363236D01*
X411965Y362117D01*
X410383Y360535D01*
X409264Y358596D01*
X408684Y356435D01*
Y354197D01*
X409264Y352035D01*
X410383Y350096D01*
X410442Y350038D01*
X410276Y348778D01*
X409482Y348320D01*
X408166Y347004D01*
X406316Y347500D01*
X403683D01*
X401140Y346819D01*
X398860Y345502D01*
X396998Y343640D01*
X395681Y341360D01*
X395000Y338816D01*
Y337991D01*
X394935Y337500D01*
X395000Y337009D01*
Y336183D01*
X395681Y333640D01*
X396998Y331360D01*
X397435Y330923D01*
Y327565D01*
X393650D01*
Y345500D01*
Y367000D01*
X370150D01*
Y356198D01*
X364651Y350699D01*
X364651Y350699D01*
X364016Y349871D01*
X363449Y349133D01*
X363448Y349132D01*
X362693Y347308D01*
X362693Y347308D01*
X362693Y347308D01*
X362435Y345350D01*
X362435Y345350D01*
X362435Y345350D01*
Y292036D01*
X362489Y291630D01*
X361998Y291140D01*
X361270Y289879D01*
X360000Y290219D01*
Y431935D01*
X367600D01*
X368498Y431037D01*
D02*
G37*
G36*
X438944Y332715D02*
X438667Y332047D01*
X438444Y330350D01*
Y327350D01*
X438667Y325653D01*
X439322Y324072D01*
X440364Y322714D01*
Y322286D01*
X439322Y320928D01*
X438667Y319347D01*
X438444Y317650D01*
Y314650D01*
X438667Y312953D01*
X439322Y311372D01*
X440364Y310014D01*
X440369Y309933D01*
X439998Y309562D01*
X438682Y307282D01*
X438000Y304738D01*
Y304357D01*
X436827Y303871D01*
X415349Y325349D01*
X412565Y328134D01*
Y330923D01*
X413002Y331360D01*
X413959Y333018D01*
X415820D01*
X417215Y333392D01*
X419965D01*
X421360Y331998D01*
X423640Y330681D01*
X426183Y330000D01*
X428816D01*
X431360Y330681D01*
X433640Y331998D01*
X435502Y333860D01*
X435574Y333985D01*
X438095D01*
X438944Y332715D01*
D02*
G37*
G36*
X842435Y388319D02*
Y381364D01*
X842693Y379406D01*
X843449Y377581D01*
X844651Y376015D01*
X844651Y376015D01*
X874240Y346425D01*
Y309205D01*
X872971Y308545D01*
X871119Y309041D01*
X868881D01*
X866719Y308462D01*
X865767Y307913D01*
X864610Y308437D01*
X864423Y309375D01*
X863293Y312105D01*
X861651Y314562D01*
X859562Y316651D01*
X859242Y316865D01*
Y318135D01*
X859562Y318349D01*
X861651Y320438D01*
X863293Y322895D01*
X864423Y325625D01*
X865000Y328523D01*
Y331478D01*
X864423Y334376D01*
X863293Y337105D01*
X861651Y339562D01*
X859562Y341652D01*
X857105Y343293D01*
X854375Y344424D01*
X851477Y345000D01*
X848522D01*
X845624Y344424D01*
X842895Y343293D01*
X840438Y341652D01*
X838349Y339562D01*
X838135Y339243D01*
X836865D01*
X836651Y339562D01*
X834562Y341652D01*
X834463Y341718D01*
X834334Y342021D01*
X834435Y343264D01*
X834562Y343349D01*
X835086Y343872D01*
X835658Y344342D01*
X836128Y344915D01*
X836651Y345438D01*
X837063Y346054D01*
X837533Y346626D01*
X837882Y347279D01*
X838293Y347895D01*
X838576Y348579D01*
X838925Y349232D01*
X839140Y349941D01*
X839424Y350625D01*
X839568Y351351D01*
X839783Y352060D01*
X839856Y352796D01*
X840000Y353523D01*
Y354263D01*
X840073Y355000D01*
Y389049D01*
X841485D01*
X842435Y388319D01*
D02*
G37*
G36*
X463510Y312175D02*
X463833Y312953D01*
X463867Y313214D01*
X465159Y313298D01*
X465362Y312540D01*
X466481Y310602D01*
X468064Y309019D01*
X470002Y307900D01*
X471592Y307474D01*
X475765Y303301D01*
X475765Y303301D01*
X477332Y302099D01*
X479157Y301343D01*
X481115Y301085D01*
X481115Y301085D01*
X492089D01*
X492615Y299815D01*
X492065Y299265D01*
X491297Y299583D01*
X489600Y299806D01*
X486600D01*
X484903Y299583D01*
X483322Y298928D01*
X481964Y297886D01*
X481536D01*
X480178Y298928D01*
X478597Y299583D01*
X476900Y299806D01*
X473900D01*
X472203Y299583D01*
X470622Y298928D01*
X469264Y297886D01*
X468836D01*
X467478Y298928D01*
X465897Y299583D01*
X464200Y299806D01*
X461200D01*
X459503Y299583D01*
X458492Y299164D01*
X457467Y300114D01*
X458000Y302105D01*
Y304738D01*
X457441Y306824D01*
X457447Y306949D01*
X457971Y307916D01*
X458258Y308194D01*
X459197Y308318D01*
X459975Y308640D01*
X454232Y314382D01*
X457768Y317918D01*
X463510Y312175D01*
D02*
G37*
G36*
X419299Y300003D02*
X419118Y298388D01*
X418464Y297886D01*
X418036D01*
X416678Y298928D01*
X415097Y299583D01*
X413400Y299806D01*
X410400D01*
X408703Y299583D01*
X407925Y299261D01*
X413668Y293518D01*
X410132Y289982D01*
X404390Y295725D01*
X404067Y294947D01*
X403844Y293250D01*
Y280750D01*
X403993Y279618D01*
X403267Y278456D01*
X403017Y278270D01*
X402476Y278223D01*
X395349Y285349D01*
X393783Y286551D01*
X393351Y286730D01*
X393400Y288000D01*
X393400D01*
Y305730D01*
X393400Y307000D01*
X393400D01*
Y307000D01*
X393400D01*
Y312435D01*
X406867D01*
X419299Y300003D01*
D02*
G37*
G36*
X562136Y311617D02*
X562157Y311565D01*
X563760Y309476D01*
X569618Y303618D01*
X571707Y302015D01*
X574140Y301007D01*
X576750Y300664D01*
X578250D01*
Y297065D01*
X567941D01*
X566316Y297500D01*
X563684D01*
X561140Y296819D01*
X558860Y295502D01*
X556998Y293640D01*
X555681Y291360D01*
X555000Y288817D01*
Y286183D01*
X555681Y283640D01*
X556998Y281360D01*
X558860Y279498D01*
X561140Y278181D01*
X563684Y277500D01*
X566316D01*
X568860Y278181D01*
X571140Y279498D01*
X573002Y281360D01*
X573334Y281935D01*
X576248D01*
X576810Y280796D01*
X576677Y280623D01*
X575795Y278494D01*
X575494Y276210D01*
Y268710D01*
X575795Y266426D01*
X576677Y264297D01*
X578079Y262470D01*
X579907Y261067D01*
X582036Y260185D01*
X584320Y259884D01*
X606820D01*
X609104Y260185D01*
X611233Y261067D01*
X612654Y262157D01*
X612789Y262079D01*
X614951Y261500D01*
X617189D01*
X619351Y262079D01*
X621289Y263198D01*
X622187Y264096D01*
X623457Y263570D01*
Y225225D01*
X623908Y221799D01*
X625230Y218606D01*
X627334Y215864D01*
X630076Y213760D01*
X633269Y212438D01*
X636695Y211987D01*
X681499D01*
X706618Y186868D01*
X708707Y185265D01*
X711140Y184258D01*
X713750Y183914D01*
X721822D01*
X727500Y178236D01*
Y167500D01*
Y162357D01*
X726327Y161871D01*
X702349Y185849D01*
X700782Y187051D01*
X698958Y187807D01*
X697000Y188065D01*
X626370D01*
X622843Y191591D01*
X622349Y192235D01*
X622349Y192235D01*
X604235Y210349D01*
X602669Y211551D01*
X600844Y212307D01*
X598886Y212565D01*
X533898D01*
X533281Y212921D01*
X531119Y213500D01*
X528881D01*
X526719Y212921D01*
X524781Y211801D01*
X523198Y210219D01*
X522079Y208281D01*
X521500Y206119D01*
Y203881D01*
X522079Y201719D01*
X522659Y200715D01*
X522190Y199348D01*
X521500Y199000D01*
X508693D01*
X508207Y200174D01*
X526199Y218166D01*
X528683Y217500D01*
X531316D01*
X533860Y218182D01*
X536140Y219498D01*
X538002Y221360D01*
X539319Y223640D01*
X540000Y226184D01*
Y228817D01*
X539334Y231301D01*
X540469Y232435D01*
X546102D01*
X546719Y232079D01*
X548881Y231500D01*
X551119D01*
X553281Y232079D01*
X555219Y233198D01*
X556802Y234781D01*
X557921Y236719D01*
X558500Y238881D01*
Y241119D01*
X557921Y243281D01*
X556802Y245219D01*
X555219Y246802D01*
X553281Y247921D01*
X551119Y248500D01*
X549713D01*
X548790Y248790D01*
X548500Y249713D01*
Y250287D01*
X548790Y251210D01*
X549713Y251500D01*
X551119D01*
X553281Y252079D01*
X555219Y253198D01*
X556802Y254781D01*
X557921Y256719D01*
X558500Y258881D01*
Y261119D01*
X557921Y263281D01*
X556802Y265219D01*
X555219Y266802D01*
X553281Y267921D01*
X551119Y268500D01*
X548881D01*
X546719Y267921D01*
X546102Y267565D01*
X541500D01*
Y275464D01*
X533768Y267732D01*
X530232Y271268D01*
X537964Y279000D01*
X532671D01*
X532185Y280173D01*
X535349Y283337D01*
X535349Y283337D01*
X536551Y284904D01*
X537307Y286728D01*
X537514Y286866D01*
X538881Y286500D01*
X541119D01*
X543281Y287079D01*
X545219Y288199D01*
X546802Y289781D01*
X547921Y291719D01*
X548500Y293881D01*
Y296119D01*
X547921Y298281D01*
X547565Y298898D01*
Y299566D01*
X556093Y308095D01*
X556781Y308279D01*
X558719Y309398D01*
X560302Y310981D01*
X560723Y311710D01*
X562136Y311617D01*
D02*
G37*
G36*
X445222Y195072D02*
X446803Y194417D01*
X447185Y194367D01*
X452814Y188738D01*
X452328Y187565D01*
X423134D01*
X416807Y193892D01*
X417099Y195395D01*
X418036Y196114D01*
X418464D01*
X419822Y195072D01*
X421403Y194417D01*
X423100Y194194D01*
X426100D01*
X427797Y194417D01*
X429378Y195072D01*
X430736Y196114D01*
X431164D01*
X432522Y195072D01*
X434103Y194417D01*
X435800Y194194D01*
X438800D01*
X440497Y194417D01*
X442078Y195072D01*
X443436Y196114D01*
X443864D01*
X445222Y195072D01*
D02*
G37*
G36*
X611157Y182031D02*
X611651Y181387D01*
X611800Y181238D01*
X611314Y180065D01*
X583988D01*
X579204Y184849D01*
X579204Y184849D01*
X578296Y185546D01*
X577637Y186051D01*
X577637Y186051D01*
X577637Y186052D01*
X576676Y186450D01*
X575813Y186807D01*
X575813Y186807D01*
X575812Y186807D01*
X574760Y186946D01*
X573855Y187065D01*
X573855Y187065D01*
X573855Y187065D01*
X541500D01*
Y197435D01*
X595753D01*
X611157Y182031D01*
D02*
G37*
G36*
X362831Y238181D02*
X365375Y237500D01*
X365655D01*
X368887Y234268D01*
X369609Y233714D01*
X370400Y233107D01*
Y219000D01*
X392435D01*
Y215000D01*
X373936D01*
X381668Y207268D01*
X379900Y205500D01*
X381668Y203732D01*
X373936Y196000D01*
X384018D01*
X384549Y194019D01*
X385668Y192081D01*
X387251Y190498D01*
X388658Y189686D01*
X388181Y188860D01*
X387500Y186316D01*
Y183683D01*
X388181Y181140D01*
X389498Y178860D01*
X391360Y176998D01*
X393640Y175681D01*
X396183Y175000D01*
X398816D01*
X401360Y175681D01*
X403640Y176998D01*
X405502Y178860D01*
X406653Y180853D01*
X408021Y181282D01*
X414651Y174651D01*
X414651Y174651D01*
X416218Y173449D01*
X418042Y172693D01*
X420000Y172435D01*
X420000Y172435D01*
X448310D01*
X449083Y171428D01*
X449000Y171119D01*
Y168881D01*
X449484Y167076D01*
X448801Y165806D01*
X448500D01*
X446803Y165583D01*
X445222Y164928D01*
X443864Y163886D01*
X443436D01*
X442078Y164928D01*
X440497Y165583D01*
X438800Y165806D01*
X435800D01*
X434103Y165583D01*
X432522Y164928D01*
X431164Y163886D01*
X430736D01*
X429378Y164928D01*
X427797Y165583D01*
X426100Y165806D01*
X423100D01*
X421403Y165583D01*
X419822Y164928D01*
X418464Y163886D01*
X418036D01*
X416678Y164928D01*
X415097Y165583D01*
X413400Y165806D01*
X410400D01*
X408703Y165583D01*
X407122Y164928D01*
X405764Y163886D01*
X404722Y162528D01*
X404067Y160947D01*
X403844Y159250D01*
Y146750D01*
X404067Y145053D01*
X404282Y144534D01*
X403206Y143815D01*
X402719Y144302D01*
X400781Y145421D01*
X399625Y145730D01*
X399534Y145801D01*
X399533Y145801D01*
X399533Y145801D01*
X398646Y146169D01*
X397709Y146557D01*
X397709Y146557D01*
X397708Y146557D01*
X396735Y146685D01*
X395751Y146815D01*
X395751Y146814D01*
X395750Y146815D01*
X391750D01*
Y150000D01*
X368250D01*
Y127065D01*
X360000D01*
Y238349D01*
X361270Y239083D01*
X362831Y238181D01*
D02*
G37*
G36*
X419822Y141072D02*
X420363Y140848D01*
X420906Y139249D01*
X420682Y138860D01*
X420000Y136316D01*
Y133684D01*
X420682Y131140D01*
X421873Y129077D01*
X421443Y127807D01*
X421125D01*
X419396Y127579D01*
X418153Y127065D01*
X391750D01*
Y129538D01*
X393020Y130271D01*
X394219Y129579D01*
X396381Y129000D01*
X398619D01*
X400781Y129579D01*
X402719Y130698D01*
X404301Y132281D01*
X405421Y134219D01*
X406000Y136381D01*
Y138619D01*
X405421Y140781D01*
X406398Y141628D01*
X407122Y141072D01*
X408703Y140417D01*
X410400Y140194D01*
X413400D01*
X415097Y140417D01*
X416678Y141072D01*
X418036Y142114D01*
X418464D01*
X419822Y141072D01*
D02*
G37*
G36*
X404000Y111119D02*
Y108881D01*
X404579Y106719D01*
X405698Y104781D01*
X407281Y103198D01*
X409219Y102079D01*
X411381Y101500D01*
X413619D01*
X414443Y100868D01*
Y98875D01*
X414671Y97146D01*
X415019Y96305D01*
X420983Y102268D01*
X424518Y98732D01*
X418555Y92769D01*
X419396Y92421D01*
X421125Y92193D01*
X430375D01*
X432105Y92421D01*
X433716Y93088D01*
X434730Y93866D01*
X435911Y93398D01*
X436000Y93315D01*
Y74536D01*
X443732Y82268D01*
X447268Y78733D01*
X439536Y71000D01*
X466008D01*
X466500Y70936D01*
X472532D01*
X473198Y69781D01*
X473385Y69594D01*
Y68344D01*
X473117Y67697D01*
X472894Y66000D01*
Y54500D01*
X473117Y52803D01*
X473338Y52270D01*
X472490Y51000D01*
X468500D01*
Y32000D01*
X480802D01*
X483629Y29173D01*
X483143Y28000D01*
X468500D01*
Y27317D01*
X467230Y26977D01*
X466802Y27719D01*
X465219Y29302D01*
X464478Y29730D01*
X464818Y31000D01*
X466500D01*
Y48730D01*
X466500Y50000D01*
X466500Y51270D01*
Y65465D01*
X458768Y57732D01*
X455232Y61268D01*
X462964Y69000D01*
X447035D01*
X454768Y61268D01*
X451232Y57732D01*
X443500Y65465D01*
Y51270D01*
X443500Y50000D01*
X443500Y48730D01*
Y31000D01*
X447435D01*
Y28041D01*
X447693Y26084D01*
X448449Y24259D01*
X449651Y22692D01*
X451697Y20646D01*
X452079Y19219D01*
X453198Y17281D01*
X454781Y15698D01*
X456719Y14579D01*
X458881Y14000D01*
X461119D01*
X463281Y14579D01*
X465219Y15698D01*
X466802Y17281D01*
X467230Y18023D01*
X468500Y17683D01*
Y12535D01*
X476232Y20268D01*
X479768Y16732D01*
X472036Y9000D01*
X487965D01*
X480232Y16732D01*
X483768Y20268D01*
X491500Y12535D01*
Y15647D01*
X492600Y16282D01*
X493640Y15682D01*
X496184Y15000D01*
X498816D01*
X498992Y15047D01*
X500000Y14274D01*
Y8250D01*
X530302D01*
X533651Y4901D01*
X535218Y3699D01*
X537042Y2943D01*
X539000Y2685D01*
X539000Y2685D01*
X545670D01*
X546719Y2079D01*
X548881Y1500D01*
X551119D01*
X553281Y2079D01*
X555219Y3198D01*
X556802Y4781D01*
X557921Y6719D01*
X558500Y8881D01*
Y11119D01*
X557921Y13281D01*
X556802Y15219D01*
X555219Y16802D01*
X553281Y17921D01*
X551119Y18500D01*
X548881D01*
X546719Y17921D01*
X546535Y17815D01*
X542134D01*
X540000Y19948D01*
Y28250D01*
Y47283D01*
X541174Y47769D01*
X587672Y1270D01*
X587146Y-0D01*
X360000Y-0D01*
Y111935D01*
X368250D01*
Y110000D01*
X391750D01*
Y111935D01*
X403374D01*
X404000Y111119D01*
D02*
G37*
G36*
X550750Y121000D02*
Y102500D01*
X574250D01*
Y105490D01*
X576098D01*
X576427Y104697D01*
X577829Y102870D01*
X579657Y101467D01*
X581786Y100585D01*
X584070Y100285D01*
X599511D01*
X599741Y98535D01*
X600497Y96711D01*
X601699Y95144D01*
X603697Y93146D01*
X604079Y91719D01*
X605198Y89781D01*
X606781Y88198D01*
X608719Y87079D01*
X610881Y86500D01*
X612435D01*
Y22929D01*
X612693Y20971D01*
X613449Y19146D01*
X614651Y17580D01*
X617580Y14651D01*
X619147Y13449D01*
X620971Y12693D01*
X621355Y12642D01*
X621272Y11372D01*
X595594D01*
X521960Y85006D01*
X519893Y86388D01*
X517454Y86873D01*
X511980D01*
X511494Y88046D01*
X511699Y88251D01*
X512901Y89818D01*
X513657Y91642D01*
X513915Y93600D01*
X513915Y93600D01*
Y102096D01*
X515185Y102944D01*
X515853Y102667D01*
X517550Y102444D01*
X520550D01*
X522247Y102667D01*
X523025Y102990D01*
X517282Y108732D01*
X520818Y112268D01*
X526560Y106525D01*
X526883Y107303D01*
X527106Y109000D01*
Y120500D01*
X526883Y122197D01*
X526453Y123235D01*
X528640Y124498D01*
X529077Y124935D01*
X550750D01*
Y121000D01*
D02*
G37*
G36*
X456140Y130682D02*
X458684Y130000D01*
X459781D01*
X460121Y128730D01*
X458860Y128002D01*
X456998Y126140D01*
X455681Y123860D01*
X455000Y121317D01*
Y118684D01*
X454711Y118307D01*
X449625D01*
X447896Y118079D01*
X446284Y117412D01*
X444900Y116350D01*
X443838Y114966D01*
X443171Y113354D01*
X442943Y111625D01*
Y108375D01*
X443171Y106645D01*
X443838Y105034D01*
X444900Y103650D01*
X446284Y102588D01*
X447896Y101920D01*
X449625Y101693D01*
X454859D01*
X456986Y99565D01*
X457079Y99219D01*
X458198Y97281D01*
X459781Y95698D01*
X460522Y95270D01*
X460182Y94000D01*
X436586D01*
X435941Y95246D01*
X436162Y95534D01*
X436830Y97146D01*
X437057Y98875D01*
Y102125D01*
X436830Y103855D01*
X436481Y104696D01*
X430518Y98732D01*
X426982Y102268D01*
X432946Y108231D01*
X432105Y108580D01*
X430375Y108807D01*
X424415D01*
X423929Y109981D01*
X425141Y111193D01*
X430375D01*
X432105Y111420D01*
X433716Y112088D01*
X435100Y113150D01*
X436162Y114534D01*
X436830Y116145D01*
X437057Y117875D01*
Y119000D01*
X438619D01*
X440781Y119579D01*
X442719Y120698D01*
X444301Y122281D01*
X445420Y124219D01*
X446000Y126381D01*
Y127787D01*
X446290Y128710D01*
X447212Y129000D01*
X448619D01*
X450781Y129579D01*
X452719Y130698D01*
X453961Y131940D01*
X456140Y130682D01*
D02*
G37*
G36*
X780311Y133863D02*
X782750Y133378D01*
X808250D01*
Y121270D01*
X808250Y120000D01*
X808250D01*
Y120000D01*
X808250D01*
Y98500D01*
Y83536D01*
X817232Y92518D01*
X820768Y88982D01*
X811785Y80000D01*
X851750D01*
Y80750D01*
X888214D01*
X879232Y89732D01*
X882767Y93268D01*
X891750Y84285D01*
Y94000D01*
X893619D01*
X895781Y94579D01*
X897719Y95698D01*
X898730Y96709D01*
X900000Y96183D01*
X900000Y34142D01*
X900000Y34142D01*
X900000Y31904D01*
X899416Y27467D01*
X898258Y23144D01*
X896545Y19009D01*
X894307Y15133D01*
X891582Y11582D01*
X888418Y8418D01*
X884867Y5693D01*
X880991Y3455D01*
X876856Y1743D01*
X872533Y584D01*
X868096Y0D01*
X865858D01*
X778308D01*
X777782Y1270D01*
X802006Y25494D01*
X803387Y27561D01*
X803873Y30000D01*
Y97046D01*
X803387Y99484D01*
X802006Y101552D01*
X777122Y126436D01*
Y134780D01*
X777329Y134865D01*
X778392Y135145D01*
X780311Y133863D01*
D02*
G37*
%LPC*%
G36*
X523250Y521067D02*
X516750D01*
X514727Y520800D01*
X513318Y520217D01*
X520000Y513535D01*
X526682Y520217D01*
X525273Y520800D01*
X523250Y521067D01*
D02*
G37*
G36*
X520000Y511000D02*
X519500Y510500D01*
X520000Y510000D01*
X520500Y510500D01*
X520000Y511000D01*
D02*
G37*
G36*
X530217Y516681D02*
X524035Y510500D01*
X530217Y504318D01*
X530801Y505727D01*
X531067Y507750D01*
Y513250D01*
X530801Y515273D01*
X530217Y516681D01*
D02*
G37*
G36*
X509783Y516682D02*
X509199Y515273D01*
X508933Y513250D01*
Y507750D01*
X509199Y505727D01*
X509783Y504318D01*
X515964Y510500D01*
X509783Y516682D01*
D02*
G37*
G36*
X370400Y211465D02*
Y199536D01*
X376365Y205500D01*
X370400Y211465D01*
D02*
G37*
%LPD*%
D10*
X772500Y5000D02*
X797500Y30000D01*
Y97046D01*
X592954Y5000D02*
X772500D01*
X485657Y82000D02*
Y82839D01*
X504564Y80500D02*
X517454D01*
X592954Y5000D01*
X850000Y139750D02*
X860000Y129750D01*
X797954Y180000D02*
X825000D01*
X770750Y152796D02*
X797954Y180000D01*
X892500Y102500D02*
Y153846D01*
X879847Y166499D02*
X892500Y153846D01*
X863501Y166499D02*
X879847D01*
X850000Y180000D02*
X863501Y166499D01*
X770750Y123796D02*
Y152796D01*
Y123796D02*
X797500Y97046D01*
X777500Y145000D02*
X782750Y139750D01*
X850000D01*
X787914Y160414D02*
X867836D01*
X879000Y149250D01*
X860000Y127500D02*
Y129750D01*
D16*
X595570Y272460D02*
D03*
Y226740D02*
D03*
X595320Y112860D02*
D03*
Y67140D02*
D03*
D17*
X661070Y249600D02*
D03*
X660820Y90000D02*
D03*
D18*
X562500Y113250D02*
D03*
Y131750D02*
D03*
X590000Y291500D02*
D03*
Y310000D02*
D03*
X380000Y139250D02*
D03*
Y120750D02*
D03*
X550000Y490750D02*
D03*
Y509250D02*
D03*
X381900Y247750D02*
D03*
Y266250D02*
D03*
Y356250D02*
D03*
Y337750D02*
D03*
X880000Y91500D02*
D03*
Y110000D02*
D03*
X860000Y91500D02*
D03*
Y110000D02*
D03*
X840000Y90750D02*
D03*
Y109250D02*
D03*
X820000Y90750D02*
D03*
Y109250D02*
D03*
X840000Y130750D02*
D03*
Y149250D02*
D03*
X820000Y130750D02*
D03*
Y149250D02*
D03*
X860000Y130750D02*
D03*
Y149250D02*
D03*
X880000Y130750D02*
D03*
Y149250D02*
D03*
D19*
X565000Y287500D02*
D03*
X775000Y302500D02*
D03*
X465000Y120000D02*
D03*
X497500Y25000D02*
D03*
X522500Y132500D02*
D03*
X530000Y227500D02*
D03*
X525000Y155000D02*
D03*
X460000Y140000D02*
D03*
X430000Y135000D02*
D03*
X448000Y303422D02*
D03*
X500000Y292500D02*
D03*
X517500Y302500D02*
D03*
Y350000D02*
D03*
X397500Y185000D02*
D03*
X366691Y247500D02*
D03*
X370000Y285000D02*
D03*
X405000Y337500D02*
D03*
X427500Y340000D02*
D03*
X430000Y355000D02*
D03*
X565000Y410000D02*
D03*
X629765Y322735D02*
D03*
X625000Y382500D02*
D03*
X795000Y317500D02*
D03*
X730000Y352500D02*
D03*
X725000Y412500D02*
D03*
X745000Y477500D02*
D03*
X580000Y510000D02*
D03*
X540000Y527500D02*
D03*
X447500Y457500D02*
D03*
X480000Y455000D02*
D03*
X507500Y232500D02*
D03*
X827500Y380000D02*
D03*
X811195Y267500D02*
D03*
D20*
X750000Y180000D02*
D03*
Y20000D02*
D03*
Y160000D02*
D03*
Y100000D02*
D03*
Y260000D02*
D03*
Y320000D02*
D03*
Y80000D02*
D03*
Y240000D02*
D03*
D21*
X475500Y515000D02*
D03*
X494500D02*
D03*
Y497500D02*
D03*
X475500D02*
D03*
X464500Y82500D02*
D03*
X445500D02*
D03*
X487750Y434250D02*
D03*
X468750D02*
D03*
Y414250D02*
D03*
X487750D02*
D03*
D22*
X480950Y60250D02*
D03*
X493650D02*
D03*
X506350D02*
D03*
X519050D02*
D03*
X480950Y114750D02*
D03*
X493650D02*
D03*
X506350D02*
D03*
X519050D02*
D03*
D23*
X455000Y59500D02*
D03*
Y40500D02*
D03*
X650000Y369500D02*
D03*
Y350500D02*
D03*
X630000D02*
D03*
Y369500D02*
D03*
X530000Y269500D02*
D03*
Y250500D02*
D03*
X510000D02*
D03*
Y269500D02*
D03*
X530000Y189500D02*
D03*
Y170500D02*
D03*
X510000D02*
D03*
Y189500D02*
D03*
X381900Y205500D02*
D03*
Y228500D02*
D03*
Y297500D02*
D03*
Y316500D02*
D03*
X480000Y41500D02*
D03*
Y18500D02*
D03*
X379998Y420499D02*
D03*
Y439500D02*
D03*
X404998Y420499D02*
D03*
Y439500D02*
D03*
X429998Y420499D02*
D03*
Y439500D02*
D03*
D24*
X454250Y110000D02*
D03*
X425750Y100500D02*
D03*
Y119500D02*
D03*
D25*
X475400Y287000D02*
D03*
X488100D02*
D03*
X462700D02*
D03*
X450000D02*
D03*
X437300D02*
D03*
X424600D02*
D03*
X411900D02*
D03*
X488100Y233000D02*
D03*
X475400D02*
D03*
X462700D02*
D03*
X450000D02*
D03*
X437300D02*
D03*
X424600D02*
D03*
X411900D02*
D03*
X488100Y207000D02*
D03*
X475400D02*
D03*
X462700D02*
D03*
X450000D02*
D03*
X437300D02*
D03*
X424600D02*
D03*
X411900D02*
D03*
X488100Y153000D02*
D03*
X475400D02*
D03*
X462700D02*
D03*
X450000D02*
D03*
X437300D02*
D03*
X424600D02*
D03*
X411900D02*
D03*
X595400Y387000D02*
D03*
X608100D02*
D03*
X582700D02*
D03*
X570000D02*
D03*
X557300D02*
D03*
X544600D02*
D03*
X531900D02*
D03*
X608100Y333000D02*
D03*
X595400D02*
D03*
X582700D02*
D03*
X570000D02*
D03*
X557300D02*
D03*
X544600D02*
D03*
X531900D02*
D03*
D26*
X285500Y104600D02*
D03*
Y130000D02*
D03*
Y155400D02*
D03*
X194500Y104600D02*
D03*
Y130000D02*
D03*
Y155400D02*
D03*
D27*
X757750Y350500D02*
D03*
X791250D02*
D03*
D28*
X811000Y420000D02*
D03*
D29*
X879000D02*
D03*
D30*
X763000Y495500D02*
D03*
X728000D02*
D03*
D31*
X730250Y460500D02*
D03*
X758750D02*
D03*
D32*
X790933Y382183D02*
D03*
X738000Y438750D02*
D03*
D33*
X704500Y403750D02*
D03*
Y437250D02*
D03*
D34*
X520000Y510500D02*
D03*
Y489500D02*
D03*
D35*
X505250Y316150D02*
D03*
Y328850D02*
D03*
Y341550D02*
D03*
Y354250D02*
D03*
Y366950D02*
D03*
Y379650D02*
D03*
Y392350D02*
D03*
X451250Y316150D02*
D03*
Y328850D02*
D03*
Y341550D02*
D03*
Y354250D02*
D03*
Y366950D02*
D03*
Y392350D02*
D03*
Y379650D02*
D03*
D36*
X510750Y40000D02*
D03*
X529250D02*
D03*
X510750Y20000D02*
D03*
X529250D02*
D03*
D37*
X60268Y50000D02*
D03*
X160268D02*
D03*
D38*
X150000Y420000D02*
D03*
Y320000D02*
D03*
X67300D02*
D03*
Y420000D02*
D03*
D71*
X175000Y162500D02*
G03*
X182100Y155400I7100J0D01*
G01*
X125400Y75400D02*
G03*
X150800Y50000I25400J0D01*
G01*
X17500Y345400D02*
G03*
X42900Y320000I25400J0D01*
G01*
X110000Y345400D02*
G03*
X135400Y320000I25400J0D01*
G01*
X110000Y345400D02*
G03*
X135400Y320000I25400J0D01*
G01*
X17500Y345400D02*
G03*
X42900Y320000I25400J0D01*
G01*
X125400Y75400D02*
G03*
X150800Y50000I25400J0D01*
G01*
X175000Y162500D02*
G03*
X182100Y155400I7100J0D01*
G01*
X615959Y291500D02*
X617623Y293164D01*
X618164D01*
X590000Y291500D02*
X615959D01*
X616070Y270000D02*
Y276070D01*
X629765Y289765D02*
Y322735D01*
X616070Y276070D02*
X629765Y289765D01*
X588000Y289500D02*
X590000Y291500D01*
X565000Y287500D02*
X567000Y289500D01*
X588000D01*
X594905Y272460D02*
X595570D01*
X590000Y277365D02*
Y291500D01*
Y277365D02*
X594905Y272460D01*
X612000Y95000D02*
Y95541D01*
X601948Y113055D02*
X607048Y107955D01*
Y100493D02*
Y107955D01*
Y100493D02*
X612000Y95541D01*
X562500Y131750D02*
X563867Y130383D01*
X561750Y132500D02*
X562500Y131750D01*
X508365Y132500D02*
X561750D01*
X589617Y130383D02*
X590000Y130000D01*
X563867Y130383D02*
X589617D01*
X562695Y113055D02*
X601948D01*
X562500Y113250D02*
X562695Y113055D01*
X558462Y62883D02*
X560179Y64600D01*
X567250D01*
X552500Y62500D02*
X552883Y62883D01*
X558462D01*
X567500Y224200D02*
X593030D01*
X595570Y225570D02*
Y226740D01*
X595000Y225000D02*
X595570Y225570D01*
X593030Y224200D02*
X595570Y226740D01*
X622929Y20000D02*
X715000D01*
X620000Y22929D02*
X622929Y20000D01*
X602500Y150000D02*
X620000Y132500D01*
Y22929D02*
Y132500D01*
X750000Y180000D02*
X752500Y182500D01*
Y205000D01*
X772500Y225000D01*
Y298646D01*
X775000Y301147D01*
Y302500D01*
X455000Y28041D02*
X460000Y23041D01*
Y22500D02*
Y23041D01*
X455000Y28041D02*
Y40500D01*
X457250Y110000D02*
X464750Y102500D01*
X457250Y110000D02*
Y110000D01*
X464750Y102500D02*
X465000D01*
X454250Y110000D02*
X457250D01*
X465000Y120000D02*
X465957Y119044D01*
X480450D01*
X480950Y118544D01*
Y114750D02*
Y118544D01*
Y87546D02*
X485657Y82839D01*
X480950Y87546D02*
Y114750D01*
X494750Y515250D02*
Y527250D01*
X494500Y515000D02*
X494750Y515250D01*
Y527250D02*
X495000Y527500D01*
X494500Y497500D02*
Y515000D01*
X477117Y516617D02*
Y527117D01*
X477500Y527500D01*
X475500Y515000D02*
X477117Y516617D01*
X475500Y497500D02*
Y515000D01*
X182100Y155400D02*
X194500D01*
X300500Y119500D02*
X422751D01*
X530000Y410000D02*
X589850D01*
X370000Y292036D02*
X382036Y280000D01*
X374235Y239618D02*
X381900D01*
X391618D01*
X366691Y247500D02*
X368044D01*
X366353D02*
X374235Y239618D01*
X367368Y247500D02*
X368044D01*
X492085Y194750D02*
X537336Y240000D01*
X501350Y308650D02*
X520000Y290000D01*
X820000Y120000D02*
X830000D01*
X125400Y75400D02*
Y165400D01*
X150800Y50000D02*
X160268D01*
X42900Y320000D02*
X67300D01*
X135400D02*
X150000D01*
X110000Y345400D02*
Y397500D01*
X820375Y91125D02*
X879625D01*
X510000Y189500D02*
X530000D01*
X444242Y414242D02*
Y457500D01*
Y509242D01*
X520733Y524376D02*
X523858Y527500D01*
X540000D01*
X520192Y524376D02*
X520733D01*
X444242Y509242D02*
X472500Y537500D01*
X692500D01*
X479459Y75000D02*
X480000D01*
X464500Y80500D02*
Y82500D01*
Y80500D02*
X466500Y78500D01*
X475959D01*
X479459Y75000D01*
X480000Y74459D02*
X480950Y73509D01*
Y60250D02*
Y73509D01*
X480000Y74459D02*
Y75000D01*
X482000Y41500D02*
X493150Y52650D01*
Y59750D02*
X493650Y60250D01*
X480000Y41500D02*
X482000D01*
X493150Y52650D02*
Y59750D01*
X493650Y80900D02*
X506350Y93600D01*
Y114750D01*
X493650Y60250D02*
Y80900D01*
X498850Y122985D02*
X508365Y132500D01*
X493650Y114750D02*
Y119000D01*
X494150Y119500D02*
X495921D01*
X498850Y122429D02*
Y122985D01*
X493650Y119000D02*
X494150Y119500D01*
X495921D02*
X498850Y122429D01*
X529250Y20000D02*
Y40000D01*
Y19000D02*
Y20000D01*
X805500Y280000D02*
X825000D01*
X793000Y267500D02*
X805500Y280000D01*
X623236Y180500D02*
X697000D01*
X725000Y140000D02*
Y152500D01*
X697000Y180500D02*
X725000Y152500D01*
X800382Y152118D02*
X817132D01*
X820000Y149250D01*
X800000Y152500D02*
X800382Y152118D01*
X780000Y65000D02*
Y105000D01*
X881805Y260044D02*
Y349559D01*
X850000Y381364D02*
X881805Y349559D01*
X742309Y122691D02*
X762309D01*
X780000Y105000D01*
X725000Y140000D02*
X742309Y122691D01*
X392470Y196759D02*
X396543Y192685D01*
Y185956D02*
X397500Y185000D01*
X396543Y185956D02*
Y192685D01*
X392470Y196759D02*
Y197300D01*
X880000Y377500D02*
X890000Y367500D01*
Y245000D02*
Y367500D01*
X850000Y205000D02*
X890000Y245000D01*
X877500Y255739D02*
X881805Y260044D01*
X851761Y230000D02*
X877500Y255739D01*
Y255739D01*
X529250Y19000D02*
X532500Y15750D01*
X539000Y10250D02*
X549750D01*
X532500Y15750D02*
X533500D01*
X549750Y10250D02*
X550000Y10000D01*
X533500Y15750D02*
X539000Y10250D01*
X488100Y205883D02*
Y207000D01*
X487600Y205383D02*
X488100Y205883D01*
X484283Y205383D02*
X487600D01*
X483900Y205000D02*
X484283Y205383D01*
X457500Y170000D02*
X462700Y164800D01*
Y153000D02*
Y164800D01*
X469450Y366950D02*
X470000Y367500D01*
X451250Y366950D02*
X469450D01*
X595400Y372741D02*
Y387000D01*
X590700Y368041D02*
X595400Y372741D01*
X590700Y367500D02*
Y368041D01*
X860000Y110000D02*
Y127500D01*
X430000Y355000D02*
X430375Y354625D01*
X429842Y355158D02*
X430000Y355000D01*
X417342Y355158D02*
X429842D01*
X417184Y355316D02*
X417342Y355158D01*
X426543Y340957D02*
X427500Y340000D01*
X415804Y340957D02*
X426543D01*
X415242Y341518D02*
X415804Y340957D01*
X414701Y341518D02*
X415242D01*
X430000Y135000D02*
X437500Y127500D01*
X177500Y130000D02*
X194500D01*
X596700Y435000D02*
X632500Y399200D01*
X550000Y435000D02*
X596700D01*
X891500Y80000D02*
X892500D01*
X880000Y91500D02*
X891500Y80000D01*
X879625Y91125D02*
X880000Y91500D01*
X820000Y90750D02*
X820375Y91125D01*
X370000Y265000D02*
X371250Y266250D01*
X381900D01*
X370250Y205250D02*
X381650D01*
X381900Y205500D01*
X370000Y205000D02*
X370250Y205250D01*
X399459Y297500D02*
X404459Y302500D01*
X405000D01*
X381900Y297500D02*
X399459D01*
X704500Y452000D02*
X705000Y452500D01*
X704500Y437250D02*
Y452000D01*
X395750Y139250D02*
X397500Y137500D01*
X380000Y139250D02*
X395750D01*
X467500Y7500D02*
X469000D01*
X480000Y18500D01*
X519050Y51200D02*
X529250Y41000D01*
X519050Y51200D02*
Y60250D01*
X529250Y40000D02*
Y41000D01*
X567650Y65000D02*
X592500D01*
X567250Y64600D02*
X567650Y65000D01*
X567250Y47750D02*
X567500Y47500D01*
X567250Y47750D02*
Y64600D01*
X565800Y222500D02*
X567500Y224200D01*
X542500Y222500D02*
X565800D01*
X414437Y135733D02*
X424600Y145896D01*
Y153000D01*
X437750Y194750D02*
X440000Y192500D01*
X429800Y194750D02*
X437750D01*
X437300Y202250D02*
Y207000D01*
X429800Y194750D02*
X437300Y202250D01*
X419400Y194750D02*
X429800D01*
X411900Y202250D02*
X419400Y194750D01*
X411900Y202250D02*
Y207000D01*
X547000Y170500D02*
X547500Y170000D01*
X530000Y170500D02*
X547000D01*
X530500Y190000D02*
X545000D01*
X530000Y189500D02*
X530500Y190000D01*
X530000Y189500D02*
Y189500D01*
X566585Y239076D02*
X567500Y238161D01*
Y224200D02*
Y238161D01*
X539500Y250500D02*
X540000Y250000D01*
X530000Y250500D02*
X539500D01*
X537000Y269500D02*
X542500Y275000D01*
X530000Y269500D02*
X537000D01*
X510000D02*
X530000D01*
X657117Y374617D02*
Y377117D01*
X650000Y369500D02*
X652000D01*
X657117Y374617D01*
Y377117D02*
X657500Y377500D01*
X630000Y369500D02*
X650000D01*
Y350500D02*
X651761Y348740D01*
X660719D02*
X661958Y347500D01*
X651761Y348740D02*
X660719D01*
X661958Y347500D02*
X662500D01*
X537118Y370383D02*
Y377033D01*
X531900Y382250D02*
Y387000D01*
Y382250D02*
X537118Y377033D01*
Y370383D02*
X537500Y370000D01*
X467500Y442500D02*
X467883Y442118D01*
Y435117D02*
X468750Y434250D01*
X467883Y435117D02*
Y442118D01*
X468750Y414250D02*
Y434250D01*
X487750Y440250D02*
X490000Y442500D01*
X487750Y434250D02*
Y440250D01*
X487500Y342500D02*
X488450Y341550D01*
X505250D01*
Y328850D02*
Y341550D01*
X435000Y320000D02*
X447400D01*
X451250Y316150D01*
X405000Y302500D02*
X411900Y295600D01*
Y287000D02*
Y295600D01*
X417500Y410000D02*
X419498D01*
X429998Y420499D01*
Y462497D02*
X430000Y462500D01*
X429998Y439500D02*
Y462497D01*
X520000Y524183D02*
X520192Y524376D01*
X520000Y510500D02*
Y524183D01*
X427500Y340000D02*
X428853D01*
X430404Y341550D02*
X451250D01*
X428853Y340000D02*
X430404Y341550D01*
X802000Y350500D02*
X802500Y350000D01*
X791250Y350500D02*
X802000D01*
X850000Y381364D02*
Y416940D01*
X819625Y130375D02*
X820000Y130750D01*
X480000Y455000D02*
X644040D01*
X659040Y440000D01*
X437400Y237850D02*
X444800Y245250D01*
X437400Y237850D02*
Y252400D01*
Y233100D02*
Y237850D01*
X437300Y233000D02*
X437400Y233100D01*
Y252400D02*
X437500Y252500D01*
X512397Y353750D02*
X516147Y350000D01*
X505250Y354250D02*
X505750Y353750D01*
X516147Y350000D02*
X517500D01*
X505250Y354250D02*
Y366950D01*
X463989Y455000D02*
X480000D01*
X452500Y412601D02*
Y443511D01*
X463989Y455000D01*
X439000Y399100D02*
X452500Y412601D01*
X439000Y387150D02*
Y399100D01*
X446500Y379650D02*
X451250D01*
X439000Y387150D02*
X446500Y379650D01*
X427500Y397500D02*
X444242Y414242D01*
X427500Y375000D02*
Y397500D01*
X424600Y228250D02*
Y233000D01*
X416733Y220383D02*
X424600Y228250D01*
X408929Y220383D02*
X416733D01*
X408546Y220000D02*
X408929Y220383D01*
X448000Y302069D02*
X449500Y300568D01*
X448000Y302069D02*
Y303422D01*
X449500Y287500D02*
X450000Y287000D01*
X449500Y287500D02*
Y300568D01*
X500000Y291147D02*
X504500Y286647D01*
Y282000D02*
Y286647D01*
X500000Y291147D02*
Y292500D01*
X405000Y325000D02*
Y337500D01*
Y325000D02*
X410000Y320000D01*
X387400D02*
X410000D01*
X383900Y316500D02*
X387400Y320000D01*
X402500Y337500D02*
X402801D01*
X381900Y316500D02*
X383900D01*
X430375Y354625D02*
X450875D01*
X451250Y354250D01*
X427500Y375000D02*
X435550Y366950D01*
X451250D01*
X563354Y155000D02*
X580854Y172500D01*
X525000Y155000D02*
X563354D01*
X472750Y179500D02*
X573855D01*
X583200Y333500D02*
Y340700D01*
X625000Y382500D01*
X582700Y333000D02*
X583200Y333500D01*
X460957Y146507D02*
X462700Y148250D01*
Y153000D01*
X460000Y140000D02*
X460957Y140957D01*
Y146507D01*
X436800Y143153D02*
Y152500D01*
X430000Y135000D02*
Y136353D01*
X436800Y143153D01*
Y152500D02*
X437300Y153000D01*
X474326Y315438D02*
X481115Y308650D01*
X473666Y315438D02*
X474326D01*
X473283Y315821D02*
X473666Y315438D01*
X481115Y308650D02*
X501350D01*
X520000Y317500D02*
Y337335D01*
X527000Y344336D01*
X522500Y365012D02*
X527000Y360512D01*
Y344336D02*
Y360512D01*
X451250Y392350D02*
X475100D01*
X487750Y412250D02*
Y414250D01*
Y434250D01*
X475100Y392350D02*
X500500Y366950D01*
X487750Y412250D02*
X500000Y400000D01*
Y392850D02*
Y400000D01*
Y392850D02*
X500500Y392350D01*
X505250D01*
Y379650D02*
X510000D01*
X520250Y389900D01*
Y400250D01*
X522500Y365012D02*
Y380000D01*
X500500Y366950D02*
X505250D01*
X437300Y148250D02*
Y153000D01*
X432100Y220750D02*
X442500D01*
X420000Y180000D02*
X460000D01*
X447500Y137500D02*
Y138041D01*
X449500Y140041D01*
Y152500D01*
X450000Y153000D01*
Y202250D02*
Y207000D01*
X400000Y200000D02*
Y270000D01*
X412350D01*
X411900Y233000D02*
Y251900D01*
X420000Y260000D01*
X412350Y270000D02*
X424600Y282250D01*
X523314Y282000D02*
X530000Y288686D01*
X502136Y260000D02*
X550000D01*
X540000Y295000D02*
Y302700D01*
X400000Y200000D02*
X420000Y180000D01*
X450000Y202250D02*
X472750Y179500D01*
X462700Y202250D02*
Y207000D01*
Y202250D02*
X470200Y194750D01*
X460000Y180000D02*
X475400Y164600D01*
Y153000D02*
Y164600D01*
X472500Y212800D02*
X480450Y220750D01*
X424600Y228250D02*
X432100Y220750D01*
X436800Y287500D02*
Y293200D01*
Y287500D02*
X437300Y287000D01*
X442500Y220750D02*
X450000Y228250D01*
Y233000D01*
X444800Y245250D02*
X455200D01*
X450000Y263150D02*
Y287000D01*
X455200Y245250D02*
X462700Y237750D01*
Y233000D02*
Y237750D01*
X450000Y263150D02*
X475400Y237750D01*
Y233000D02*
Y237750D01*
X488100Y153000D02*
Y157750D01*
X470200Y194750D02*
X492085D01*
X480450Y220750D02*
X495750D01*
X488100Y233000D02*
Y237750D01*
Y157750D02*
X488600Y158250D01*
X488100Y237750D02*
X488600Y238250D01*
Y158250D02*
X495750D01*
X488600Y238250D02*
X495750D01*
X495750Y220750D02*
X507500Y232500D01*
X495750Y158250D02*
X508000Y170500D01*
X495750Y238250D02*
X508000Y250500D01*
Y170500D02*
X510000D01*
X508000Y250500D02*
X510000D01*
Y170500D02*
X530000D01*
X537336Y240000D02*
X550000D01*
X530000Y205000D02*
X598886D01*
X573855Y179500D02*
X580854Y172500D01*
X598886Y205000D02*
X617000Y186886D01*
X497500Y264636D02*
Y275000D01*
Y264636D02*
X501636Y260500D01*
X497500Y275000D02*
X504500Y282000D01*
X501636Y260500D02*
X502136Y260000D01*
X504500Y282000D02*
X523314D01*
X617000Y186736D02*
Y186886D01*
Y186736D02*
X623236Y180500D01*
X580854Y172500D02*
X680000D01*
X510000Y250500D02*
X530000D01*
X410000Y320000D02*
X436800Y293200D01*
X520000Y317500D02*
X530000Y307500D01*
Y288686D02*
Y307500D01*
X540000Y302700D02*
X553500Y316200D01*
X692500Y537500D02*
X702500Y527500D01*
X506350Y45400D02*
X509633Y42117D01*
X510750Y41000D01*
X497883Y42117D02*
X509633D01*
X497500Y42500D02*
X497883Y42117D01*
X412500Y110000D02*
X412883Y110383D01*
X422751Y119500D02*
X425750D01*
X413633Y110383D02*
X422751Y119500D01*
X412883Y110383D02*
X413633D01*
X478000Y41500D02*
X480000D01*
X807500Y482500D02*
X840366Y449634D01*
X770000Y540000D02*
X807500Y502500D01*
Y482500D02*
Y502500D01*
X840366Y397549D02*
Y449634D01*
X847117Y119883D02*
X847500Y119500D01*
X840118Y119883D02*
X847117D01*
X840000Y120000D02*
X840118Y119883D01*
X197500Y320000D02*
X217500D01*
X17500Y345400D02*
Y410000D01*
X391618Y239618D02*
X392000Y240000D01*
X870000Y299459D02*
Y300541D01*
X879000Y149250D02*
X880000D01*
X702500Y517500D02*
Y527500D01*
X715000Y540000D01*
X770000D01*
X275400Y435400D02*
X278376D01*
X282476Y439500D01*
X379998D01*
X404998D01*
X429998D01*
X550000Y509250D02*
X550375Y509625D01*
X579625D01*
X580000Y510000D01*
X618387D01*
X628887Y520500D01*
X629100D01*
X608100Y333000D02*
Y337750D01*
X608600Y338250D01*
X615750D01*
X628000Y350500D01*
X630000D02*
X650000D01*
X870000Y299459D02*
X874805Y294654D01*
Y262944D02*
Y294654D01*
X867500Y255639D02*
X874805Y262944D01*
X850639Y255639D02*
X867500D01*
X850000Y255000D02*
X850639Y255639D01*
X850000Y230000D02*
X851761D01*
X275400Y384600D02*
X311300Y420499D01*
X379998D01*
X404998D01*
X429998D01*
X285500Y104600D02*
X289600Y100500D01*
X425750D01*
X582700Y333000D02*
Y387000D01*
Y333000D02*
X595400D01*
Y337750D01*
X820000Y120000D02*
Y130750D01*
Y109250D02*
Y120000D01*
X840000Y120000D02*
Y130750D01*
Y109250D02*
Y120000D01*
X381900Y228500D02*
Y239618D01*
Y320000D02*
Y337750D01*
X370000Y345350D02*
X378150Y353500D01*
X370000Y292036D02*
Y345350D01*
X382036Y280000D02*
X390000D01*
X400000Y270000D01*
X880000Y110000D02*
Y120000D01*
Y130750D01*
X520250Y400250D02*
X530000Y410000D01*
X589850D02*
X608100Y391750D01*
Y387000D02*
Y391750D01*
X482000Y41500D02*
X499250Y24250D01*
X507500D02*
X510750Y21000D01*
Y20000D02*
Y21000D01*
X499250Y24250D02*
X507500D01*
X285500Y130000D02*
X289177D01*
X294177Y125000D01*
X295000D01*
X300500Y119500D01*
X506350Y45400D02*
Y60250D01*
X520000Y489500D02*
X520625Y490125D01*
X549375D01*
X550000Y490750D01*
D72*
X40000Y70268D02*
G03*
X60268Y50000I20268J0D01*
G01*
X40000Y70268D02*
G03*
X60268Y50000I20268J0D01*
G01*
X47300Y430000D02*
G03*
X57300Y420000I10000J0D01*
G01*
X570892Y316608D02*
X576750Y310750D01*
X570000Y333000D02*
X570892Y332108D01*
Y316608D02*
Y332108D01*
X576750Y310750D02*
X589250D01*
X590000Y310000D01*
X617030D02*
X629765Y322735D01*
X590000Y310000D02*
X617030D01*
X737500Y22500D02*
X740000Y20000D01*
X695571Y64429D02*
X737500Y22500D01*
Y22500D02*
Y22500D01*
X670000Y82511D02*
X688082Y64429D01*
X740000Y20000D02*
X750000D01*
X688082Y64429D02*
X695571D01*
X670000Y82511D02*
Y90000D01*
Y237750D02*
Y250000D01*
Y237750D02*
X713750Y194000D01*
X726000D01*
X740000Y180000D01*
X750000D01*
X752500Y162500D02*
X767400D01*
X782500Y177600D02*
Y285000D01*
X767400Y162500D02*
X782500Y177600D01*
X750000Y160000D02*
X752500Y162500D01*
X782500Y285000D02*
X802500Y305000D01*
X40000Y70268D02*
Y150000D01*
X787500Y320000D02*
X810000D01*
X750000D02*
X787500D01*
X802500Y305000D02*
X825000D01*
X750000Y240000D02*
Y260000D01*
X810000Y320000D02*
X818087Y328087D01*
X823086D01*
X825000Y330000D01*
X160000Y510000D02*
X190000D01*
X160000Y430000D02*
Y510000D01*
X130000Y430000D02*
X140000Y420000D01*
X50000Y430000D02*
Y510000D01*
X80000D01*
X40000Y150000D02*
Y180000D01*
X750000Y80000D02*
Y100000D01*
D73*
X728000Y491250D02*
X758750Y460500D01*
X728000Y491250D02*
Y495500D01*
X731843Y499343D01*
Y524543D01*
X732800Y525500D01*
D74*
X704500Y347800D02*
X757750D01*
X700500Y378200D02*
Y403750D01*
X724693D02*
X737000Y416058D01*
X825000Y355000D02*
Y395510D01*
X811971Y422029D02*
X812500Y421500D01*
Y408010D02*
Y421500D01*
X675000Y370000D02*
Y515600D01*
X679900Y520500D01*
X675000Y370000D02*
X692700Y352300D01*
X737000Y439750D02*
Y448000D01*
Y439750D02*
X738000Y438750D01*
X812500Y408010D02*
X825000Y395510D01*
X811971Y422029D02*
Y453029D01*
X763000Y495500D02*
Y520700D01*
X758200Y525500D02*
X763000Y520700D01*
Y495500D02*
X769500D01*
X811971Y453029D01*
X700000Y377700D02*
X700500Y378200D01*
Y403750D02*
X704500D01*
X724693D01*
X737000Y416058D02*
Y437750D01*
X738000Y438750D01*
X730250Y454750D02*
X737000Y448000D01*
X730250Y454750D02*
Y460500D01*
X769466Y380500D02*
X789933D01*
X757750Y368784D02*
X769466Y380500D01*
X757750Y350500D02*
Y368784D01*
X700000Y352300D02*
X704500Y347800D01*
X757750D02*
Y350500D01*
X692700Y352300D02*
X700000D01*
D75*
X222100Y437900D02*
D03*
Y412500D02*
D03*
X272900Y437900D02*
D03*
D76*
Y387100D02*
D03*
D77*
X850000Y355000D02*
D03*
X825000Y330000D02*
D03*
X850000D02*
D03*
X825000Y305000D02*
D03*
X850000D02*
D03*
X825000Y280000D02*
D03*
X850000D02*
D03*
X825000Y255000D02*
D03*
X850000Y180000D02*
D03*
Y205000D02*
D03*
X825000D02*
D03*
Y230000D02*
D03*
Y355000D02*
D03*
X850000Y255000D02*
D03*
Y230000D02*
D03*
X758200Y525500D02*
D03*
X732800D02*
D03*
X700000Y352300D02*
D03*
Y377700D02*
D03*
X40000Y150000D02*
D03*
Y180000D02*
D03*
X80000Y510000D02*
D03*
X50000D02*
D03*
X190000D02*
D03*
X160000D02*
D03*
D78*
X825000Y180000D02*
D03*
D79*
X850000Y50000D02*
D03*
X400000Y500000D02*
D03*
Y50000D02*
D03*
X850000Y500000D02*
D03*
D80*
X679900Y520500D02*
D03*
X629100D02*
D03*
X654500D02*
D03*
X59000Y120500D02*
D03*
Y211500D02*
D03*
X111500Y491000D02*
D03*
X20500D02*
D03*
X221500D02*
D03*
X130500D02*
D03*
D81*
X100000Y190800D02*
D03*
D82*
Y140000D02*
D03*
X125400Y165400D02*
D03*
D83*
X618164Y293164D02*
D03*
X616070Y270000D02*
D03*
X612000Y95000D02*
D03*
X520000D02*
D03*
X600490Y36119D02*
D03*
X605000Y20000D02*
D03*
X552500Y62500D02*
D03*
X590000Y32500D02*
D03*
X600000Y90000D02*
D03*
X567500Y97500D02*
D03*
X537909Y111216D02*
D03*
X532500Y92500D02*
D03*
X552500D02*
D03*
X577500Y77500D02*
D03*
X597500Y50000D02*
D03*
X583601Y48635D02*
D03*
X565000Y75000D02*
D03*
X585000Y85000D02*
D03*
X559322Y84676D02*
D03*
X542500Y75000D02*
D03*
X615000Y245000D02*
D03*
X545000Y280000D02*
D03*
X557500Y227500D02*
D03*
X562500Y217500D02*
D03*
X720000Y177500D02*
D03*
X655000Y192500D02*
D03*
X672500Y207500D02*
D03*
X642500D02*
D03*
X627500Y210000D02*
D03*
X620000Y212500D02*
D03*
X595000Y225000D02*
D03*
X590000Y247500D02*
D03*
Y255000D02*
D03*
X582500Y240000D02*
D03*
Y247500D02*
D03*
Y255000D02*
D03*
X590000Y130000D02*
D03*
X460000Y22500D02*
D03*
X465000Y102500D02*
D03*
X485657Y82000D02*
D03*
X504564Y80500D02*
D03*
X495000Y527500D02*
D03*
X477500D02*
D03*
X480000Y75000D02*
D03*
X793000Y267500D02*
D03*
X800000Y152500D02*
D03*
X780000Y65000D02*
D03*
X892500Y102500D02*
D03*
X880000Y120000D02*
D03*
X715000Y20000D02*
D03*
X777500Y145000D02*
D03*
X787914Y160414D02*
D03*
X780000Y105000D02*
D03*
X880000Y377500D02*
D03*
X550000Y10000D02*
D03*
X483900Y205000D02*
D03*
X457500Y170000D02*
D03*
X470000Y367500D02*
D03*
X590700D02*
D03*
X417184Y355316D02*
D03*
X414701Y341518D02*
D03*
X437500Y127500D02*
D03*
X175000Y162500D02*
D03*
X177500Y130000D02*
D03*
X550000Y435000D02*
D03*
X632500Y399200D02*
D03*
X892500Y80000D02*
D03*
X370000Y265000D02*
D03*
Y205000D02*
D03*
X705000Y452500D02*
D03*
X397500Y137500D02*
D03*
X467500Y7500D02*
D03*
X592500Y65000D02*
D03*
X567500Y47500D02*
D03*
X542500Y222500D02*
D03*
X414437Y135733D02*
D03*
X440000Y192500D02*
D03*
X547500Y170000D02*
D03*
X545000Y190000D02*
D03*
X566585Y239076D02*
D03*
X540000Y250000D02*
D03*
X542500Y275000D02*
D03*
X657500Y377500D02*
D03*
X662500Y347500D02*
D03*
X537500Y370000D02*
D03*
X467500Y442500D02*
D03*
X490000D02*
D03*
X487500Y342500D02*
D03*
X435000Y320000D02*
D03*
X405000Y302500D02*
D03*
X417500Y410000D02*
D03*
X430000Y462500D02*
D03*
X520192Y524376D02*
D03*
X802500Y350000D02*
D03*
X850000Y416940D02*
D03*
X659040Y440000D02*
D03*
X437500Y252500D02*
D03*
X408546Y220000D02*
D03*
X392470Y197300D02*
D03*
X473283Y315821D02*
D03*
X522500Y380000D02*
D03*
X520000Y290000D02*
D03*
X447500Y137500D02*
D03*
X472500Y212800D02*
D03*
X530000Y205000D02*
D03*
X550000Y240000D02*
D03*
Y260000D02*
D03*
X420000D02*
D03*
X540000Y295000D02*
D03*
X602500Y150000D02*
D03*
X680000Y172500D02*
D03*
X553500Y316200D02*
D03*
X497500Y42500D02*
D03*
X412500Y110000D02*
D03*
X847500Y119500D02*
D03*
X830000D02*
D03*
X217500Y320000D02*
D03*
X197500D02*
D03*
X17500Y410000D02*
D03*
X110000Y397500D02*
D03*
X392000Y240000D02*
D03*
X870000Y300541D02*
D03*
X835000Y152000D02*
D03*
X855000D02*
D03*
X702500Y517500D02*
D03*
X840366Y397549D02*
D03*
X850000Y77500D02*
D03*
X870000Y70000D02*
D03*
X877500Y50000D02*
D03*
X870000Y30000D02*
D03*
X850000Y22500D02*
D03*
X830000Y30000D02*
D03*
X822500Y50000D02*
D03*
X830000Y70000D02*
D03*
X400000Y527500D02*
D03*
X420000Y520000D02*
D03*
X427500Y500000D02*
D03*
X420000Y480000D02*
D03*
X400000Y472500D02*
D03*
X380000Y480000D02*
D03*
X372500Y500000D02*
D03*
X380000Y520000D02*
D03*
Y70000D02*
D03*
X372500Y50000D02*
D03*
X380000Y30000D02*
D03*
X400000Y22500D02*
D03*
X420000Y30000D02*
D03*
X427500Y50000D02*
D03*
X420000Y70000D02*
D03*
X400000Y77500D02*
D03*
X830000Y520000D02*
D03*
X822500Y500000D02*
D03*
X830000Y480000D02*
D03*
X850000Y472500D02*
D03*
X870000Y480000D02*
D03*
X877500Y500000D02*
D03*
X870000Y520000D02*
D03*
X850000Y527500D02*
D03*
M02*
