G04*
G04 #@! TF.GenerationSoftware,Altium Limited,Altium Designer,23.9.2 (47)*
G04*
G04 Layer_Color=16711935*
%FSLAX44Y44*%
%MOMM*%
G71*
G04*
G04 #@! TF.SameCoordinates,1607B9EF-4730-45C7-A4D5-593DF947B7B5*
G04*
G04*
G04 #@! TF.FilePolarity,Negative*
G04*
G01*
G75*
%ADD37R,1.5032X1.1032*%
%ADD38R,1.5532X1.3532*%
%ADD39C,1.2032*%
G04:AMPARAMS|DCode=48|XSize=0.8532mm|YSize=1.4532mm|CornerRadius=0.2641mm|HoleSize=0mm|Usage=FLASHONLY|Rotation=90.000|XOffset=0mm|YOffset=0mm|HoleType=Round|Shape=RoundedRectangle|*
%AMROUNDEDRECTD48*
21,1,0.8532,0.9250,0,0,90.0*
21,1,0.3250,1.4532,0,0,90.0*
1,1,0.5282,0.4625,0.1625*
1,1,0.5282,0.4625,-0.1625*
1,1,0.5282,-0.4625,-0.1625*
1,1,0.5282,-0.4625,0.1625*
%
%ADD48ROUNDEDRECTD48*%
G04:AMPARAMS|DCode=53|XSize=3.7032mm|YSize=1.7032mm|CornerRadius=0.4766mm|HoleSize=0mm|Usage=FLASHONLY|Rotation=0.000|XOffset=0mm|YOffset=0mm|HoleType=Round|Shape=RoundedRectangle|*
%AMROUNDEDRECTD53*
21,1,3.7032,0.7500,0,0,0.0*
21,1,2.7500,1.7032,0,0,0.0*
1,1,0.9532,1.3750,-0.3750*
1,1,0.9532,-1.3750,-0.3750*
1,1,0.9532,-1.3750,0.3750*
1,1,0.9532,1.3750,0.3750*
%
%ADD53ROUNDEDRECTD53*%
G04:AMPARAMS|DCode=55|XSize=0.8032mm|YSize=1.6532mm|CornerRadius=0.2516mm|HoleSize=0mm|Usage=FLASHONLY|Rotation=90.000|XOffset=0mm|YOffset=0mm|HoleType=Round|Shape=RoundedRectangle|*
%AMROUNDEDRECTD55*
21,1,0.8032,1.1500,0,0,90.0*
21,1,0.3000,1.6532,0,0,90.0*
1,1,0.5032,0.5750,0.1500*
1,1,0.5032,0.5750,-0.1500*
1,1,0.5032,-0.5750,-0.1500*
1,1,0.5032,-0.5750,0.1500*
%
%ADD55ROUNDEDRECTD55*%
%ADD57C,2.0032*%
G04:AMPARAMS|DCode=58|XSize=1.7032mm|YSize=1.7032mm|CornerRadius=0.4766mm|HoleSize=0mm|Usage=FLASHONLY|Rotation=180.000|XOffset=0mm|YOffset=0mm|HoleType=Round|Shape=RoundedRectangle|*
%AMROUNDEDRECTD58*
21,1,1.7032,0.7500,0,0,180.0*
21,1,0.7500,1.7032,0,0,180.0*
1,1,0.9532,-0.3750,0.3750*
1,1,0.9532,0.3750,0.3750*
1,1,0.9532,0.3750,-0.3750*
1,1,0.9532,-0.3750,-0.3750*
%
%ADD58ROUNDEDRECTD58*%
%ADD59C,1.7032*%
%ADD60C,7.2032*%
%ADD61C,2.2032*%
%ADD62R,2.2032X2.2032*%
%ADD63C,1.5032*%
%ADD64C,1.8032*%
%ADD65R,1.8032X1.8032*%
%ADD66R,1.4032X1.4032*%
%ADD67C,1.4032*%
%ADD91R,1.4032X2.2032*%
%ADD92R,1.1032X1.5032*%
G04:AMPARAMS|DCode=93|XSize=0.8032mm|YSize=1.7532mm|CornerRadius=0.2516mm|HoleSize=0mm|Usage=FLASHONLY|Rotation=90.000|XOffset=0mm|YOffset=0mm|HoleType=Round|Shape=RoundedRectangle|*
%AMROUNDEDRECTD93*
21,1,0.8032,1.2500,0,0,90.0*
21,1,0.3000,1.7532,0,0,90.0*
1,1,0.5032,0.6250,0.1500*
1,1,0.5032,0.6250,-0.1500*
1,1,0.5032,-0.6250,-0.1500*
1,1,0.5032,-0.6250,0.1500*
%
%ADD93ROUNDEDRECTD93*%
%ADD94R,2.1532X1.6032*%
%ADD95R,1.6032X2.1532*%
G04:AMPARAMS|DCode=96|XSize=0.8032mm|YSize=1.6532mm|CornerRadius=0.2516mm|HoleSize=0mm|Usage=FLASHONLY|Rotation=0.000|XOffset=0mm|YOffset=0mm|HoleType=Round|Shape=RoundedRectangle|*
%AMROUNDEDRECTD96*
21,1,0.8032,1.1500,0,0,0.0*
21,1,0.3000,1.6532,0,0,0.0*
1,1,0.5032,0.1500,-0.5750*
1,1,0.5032,-0.1500,-0.5750*
1,1,0.5032,-0.1500,0.5750*
1,1,0.5032,0.1500,0.5750*
%
%ADD96ROUNDEDRECTD96*%
G04:AMPARAMS|DCode=97|XSize=1.5532mm|YSize=1.3532mm|CornerRadius=0.3891mm|HoleSize=0mm|Usage=FLASHONLY|Rotation=0.000|XOffset=0mm|YOffset=0mm|HoleType=Round|Shape=RoundedRectangle|*
%AMROUNDEDRECTD97*
21,1,1.5532,0.5750,0,0,0.0*
21,1,0.7750,1.3532,0,0,0.0*
1,1,0.7782,0.3875,-0.2875*
1,1,0.7782,-0.3875,-0.2875*
1,1,0.7782,-0.3875,0.2875*
1,1,0.7782,0.3875,0.2875*
%
%ADD97ROUNDEDRECTD97*%
G04:AMPARAMS|DCode=98|XSize=2.1532mm|YSize=1.6032mm|CornerRadius=0.4516mm|HoleSize=0mm|Usage=FLASHONLY|Rotation=0.000|XOffset=0mm|YOffset=0mm|HoleType=Round|Shape=RoundedRectangle|*
%AMROUNDEDRECTD98*
21,1,2.1532,0.7000,0,0,0.0*
21,1,1.2500,1.6032,0,0,0.0*
1,1,0.9032,0.6250,-0.3500*
1,1,0.9032,-0.6250,-0.3500*
1,1,0.9032,-0.6250,0.3500*
1,1,0.9032,0.6250,0.3500*
%
%ADD98ROUNDEDRECTD98*%
D37*
X1020000Y659500D02*
D03*
Y640500D02*
D03*
X979250Y788420D02*
D03*
Y807420D02*
D03*
X994146D02*
D03*
Y788420D02*
D03*
X1105000Y769500D02*
D03*
Y750500D02*
D03*
X1090000Y750500D02*
D03*
Y769500D02*
D03*
X1195000Y750500D02*
D03*
Y769500D02*
D03*
X1210000Y769500D02*
D03*
Y750500D02*
D03*
X905000Y665500D02*
D03*
Y684500D02*
D03*
X940000Y716500D02*
D03*
Y693500D02*
D03*
X1377850Y730677D02*
D03*
Y749677D02*
D03*
X1369519Y975500D02*
D03*
Y994500D02*
D03*
X1384533D02*
D03*
Y975500D02*
D03*
X1160000Y975500D02*
D03*
Y994500D02*
D03*
X1175000Y994500D02*
D03*
Y975500D02*
D03*
X1095287Y843125D02*
D03*
Y862125D02*
D03*
X1110287D02*
D03*
Y843125D02*
D03*
X905000Y970500D02*
D03*
Y989500D02*
D03*
X920000Y989500D02*
D03*
Y970500D02*
D03*
X1392610Y730677D02*
D03*
Y749677D02*
D03*
X1280000Y660500D02*
D03*
Y679500D02*
D03*
X1295000Y679500D02*
D03*
Y660500D02*
D03*
X920000Y665500D02*
D03*
Y684500D02*
D03*
D38*
X1035000Y660000D02*
D03*
Y678500D02*
D03*
X940000Y744250D02*
D03*
Y725750D02*
D03*
X1420000Y989250D02*
D03*
Y970750D02*
D03*
X1440000Y989250D02*
D03*
Y970750D02*
D03*
X1315000Y989250D02*
D03*
Y970750D02*
D03*
X1335000Y989250D02*
D03*
Y970750D02*
D03*
D39*
X1065000Y725000D02*
D03*
X1050000Y745000D02*
D03*
X1405000Y975000D02*
D03*
X1018248Y680000D02*
D03*
X1040000Y940000D02*
D03*
X1165000Y705000D02*
D03*
Y685000D02*
D03*
X1130000Y770000D02*
D03*
X1235000Y750000D02*
D03*
X1180000Y615000D02*
D03*
X1135000Y620000D02*
D03*
X1100000Y605000D02*
D03*
X960000Y685000D02*
D03*
X1390000Y695000D02*
D03*
X1490000Y685000D02*
D03*
X1425000Y910000D02*
D03*
X1445000Y850000D02*
D03*
X1325000Y890000D02*
D03*
X1435000Y950000D02*
D03*
X1350000Y975000D02*
D03*
X1330000Y950000D02*
D03*
X1165000Y865000D02*
D03*
X1230000Y965000D02*
D03*
X1045000Y900000D02*
D03*
X1050000Y885000D02*
D03*
X1040000Y915000D02*
D03*
X1255000Y500000D02*
D03*
X600000Y740000D02*
D03*
X1320000Y915000D02*
D03*
X980000Y660000D02*
D03*
X630000Y810000D02*
D03*
X1495000Y735000D02*
D03*
X1065000Y665000D02*
D03*
X955000Y760000D02*
D03*
X1160000Y740000D02*
D03*
X1470000Y920000D02*
D03*
X1215000Y810000D02*
D03*
X705000D02*
D03*
D48*
X665750Y800000D02*
D03*
X694250Y790500D02*
D03*
Y809500D02*
D03*
D53*
X575000Y740000D02*
D03*
Y800000D02*
D03*
D55*
X1347750Y881900D02*
D03*
Y894600D02*
D03*
Y907300D02*
D03*
Y920000D02*
D03*
Y932700D02*
D03*
Y945400D02*
D03*
Y958100D02*
D03*
X1402250Y881900D02*
D03*
Y894600D02*
D03*
Y907300D02*
D03*
Y920000D02*
D03*
Y932700D02*
D03*
Y945400D02*
D03*
Y958100D02*
D03*
D57*
X867700Y620000D02*
D03*
X842300D02*
D03*
X1277300Y775000D02*
D03*
X1302700D02*
D03*
X1390000Y632700D02*
D03*
Y607300D02*
D03*
D58*
X861200Y538750D02*
D03*
D59*
X708800D02*
D03*
X835800D02*
D03*
X759600D02*
D03*
X1144600Y810000D02*
D03*
X1119200D02*
D03*
X1170000D02*
D03*
D60*
X925000Y515000D02*
D03*
X1425000D02*
D03*
Y800000D02*
D03*
X925000D02*
D03*
D61*
X1235000Y525000D02*
D03*
X1210000Y550000D02*
D03*
Y525000D02*
D03*
X1185000Y550000D02*
D03*
Y525000D02*
D03*
X1160000Y550000D02*
D03*
Y525000D02*
D03*
X1135000Y550000D02*
D03*
X1060000Y525000D02*
D03*
X1085000D02*
D03*
Y550000D02*
D03*
X1110000D02*
D03*
X1235000D02*
D03*
X1135000Y525000D02*
D03*
X1110000D02*
D03*
X570000Y570000D02*
D03*
Y600000D02*
D03*
X579600Y971550D02*
D03*
X609600D02*
D03*
D62*
X1060000Y550000D02*
D03*
D63*
X1147500Y563805D02*
D03*
D64*
X1284000Y925000D02*
D03*
X1030000Y976000D02*
D03*
Y874000D02*
D03*
D65*
X776000Y925000D02*
D03*
D66*
X652740Y775000D02*
D03*
D67*
Y749600D02*
D03*
Y724200D02*
D03*
D91*
X842300Y732500D02*
D03*
X867700D02*
D03*
Y657500D02*
D03*
X842300D02*
D03*
D92*
X840500Y565000D02*
D03*
X859500D02*
D03*
X869000Y760000D02*
D03*
X850000D02*
D03*
X754500Y615503D02*
D03*
X735500D02*
D03*
X754500Y590000D02*
D03*
X735500D02*
D03*
X1320500Y810000D02*
D03*
X1339500D02*
D03*
Y795000D02*
D03*
X1320500D02*
D03*
D93*
X1027000Y722300D02*
D03*
Y709600D02*
D03*
X1122000Y958100D02*
D03*
Y907300D02*
D03*
X1068000Y945400D02*
D03*
Y907300D02*
D03*
X1337000Y635400D02*
D03*
Y648100D02*
D03*
Y622700D02*
D03*
Y610000D02*
D03*
Y597300D02*
D03*
Y584600D02*
D03*
Y571900D02*
D03*
X1283000Y648100D02*
D03*
Y635400D02*
D03*
Y622700D02*
D03*
Y610000D02*
D03*
Y597300D02*
D03*
Y584600D02*
D03*
Y571900D02*
D03*
X1088000Y656900D02*
D03*
Y669600D02*
D03*
Y682300D02*
D03*
Y695000D02*
D03*
Y707700D02*
D03*
Y720400D02*
D03*
Y733100D02*
D03*
X1142000Y656900D02*
D03*
Y669600D02*
D03*
Y682300D02*
D03*
Y695000D02*
D03*
Y707700D02*
D03*
Y720400D02*
D03*
Y733100D02*
D03*
X1239000Y720800D02*
D03*
Y733500D02*
D03*
Y708100D02*
D03*
Y695400D02*
D03*
Y682700D02*
D03*
Y670000D02*
D03*
Y657300D02*
D03*
X1185000Y733500D02*
D03*
Y720800D02*
D03*
Y708100D02*
D03*
Y695400D02*
D03*
Y682700D02*
D03*
Y670000D02*
D03*
Y657300D02*
D03*
X962000Y640400D02*
D03*
Y653100D02*
D03*
Y627700D02*
D03*
Y615000D02*
D03*
Y602300D02*
D03*
Y589600D02*
D03*
Y576900D02*
D03*
X908000Y653100D02*
D03*
Y640400D02*
D03*
Y627700D02*
D03*
Y615000D02*
D03*
Y602300D02*
D03*
Y589600D02*
D03*
Y576900D02*
D03*
X957000Y940400D02*
D03*
Y953100D02*
D03*
Y927700D02*
D03*
Y915000D02*
D03*
Y902300D02*
D03*
Y889600D02*
D03*
Y876900D02*
D03*
X903000Y953100D02*
D03*
Y940400D02*
D03*
Y927700D02*
D03*
Y915000D02*
D03*
Y902300D02*
D03*
Y889600D02*
D03*
Y876900D02*
D03*
X1418000Y651900D02*
D03*
Y664600D02*
D03*
Y677300D02*
D03*
Y690000D02*
D03*
Y702700D02*
D03*
Y715400D02*
D03*
Y728100D02*
D03*
X1472000Y651900D02*
D03*
Y664600D02*
D03*
Y677300D02*
D03*
Y690000D02*
D03*
Y702700D02*
D03*
Y728100D02*
D03*
Y715400D02*
D03*
X1302000Y893100D02*
D03*
Y880400D02*
D03*
Y867700D02*
D03*
Y855000D02*
D03*
Y842300D02*
D03*
Y829600D02*
D03*
Y816900D02*
D03*
X1248000Y893100D02*
D03*
Y880400D02*
D03*
Y867700D02*
D03*
Y855000D02*
D03*
Y842300D02*
D03*
Y829600D02*
D03*
Y816900D02*
D03*
X1212000Y945400D02*
D03*
Y958100D02*
D03*
Y932700D02*
D03*
Y920000D02*
D03*
Y907300D02*
D03*
Y894600D02*
D03*
Y881900D02*
D03*
X1158000Y958100D02*
D03*
Y945400D02*
D03*
Y932700D02*
D03*
Y920000D02*
D03*
Y907300D02*
D03*
Y894600D02*
D03*
Y881900D02*
D03*
X973000Y696900D02*
D03*
Y709600D02*
D03*
Y722300D02*
D03*
Y735000D02*
D03*
Y747700D02*
D03*
Y760400D02*
D03*
Y773100D02*
D03*
X1027000Y696900D02*
D03*
Y735000D02*
D03*
Y747700D02*
D03*
Y773100D02*
D03*
Y760400D02*
D03*
X1068000Y881900D02*
D03*
Y894600D02*
D03*
Y920000D02*
D03*
Y932700D02*
D03*
Y958100D02*
D03*
X1122000Y881900D02*
D03*
Y894600D02*
D03*
Y920000D02*
D03*
Y932700D02*
D03*
Y945400D02*
D03*
D94*
X1445000Y904000D02*
D03*
Y876000D02*
D03*
X1488520Y906055D02*
D03*
Y878055D02*
D03*
X1350000Y854000D02*
D03*
Y826000D02*
D03*
X1488520Y919570D02*
D03*
Y947570D02*
D03*
X1420000Y842000D02*
D03*
Y870000D02*
D03*
D95*
X1289000Y955000D02*
D03*
X1261000D02*
D03*
D96*
X601900Y892250D02*
D03*
X614600D02*
D03*
X627300D02*
D03*
X640000D02*
D03*
X652700D02*
D03*
X665400D02*
D03*
X678100D02*
D03*
X601900Y837750D02*
D03*
X614600D02*
D03*
X627300D02*
D03*
X640000D02*
D03*
X652700D02*
D03*
X665400D02*
D03*
X678100D02*
D03*
D97*
X705000Y839250D02*
D03*
Y820750D02*
D03*
D98*
X575000Y696000D02*
D03*
Y724000D02*
D03*
M02*
