G04*
G04 #@! TF.GenerationSoftware,Altium Limited,Altium Designer,23.0.1 (38)*
G04*
G04 Layer_Color=2752767*
%FSLAX44Y44*%
%MOMM*%
G71*
G04*
G04 #@! TF.SameCoordinates,A400D9DA-BE9D-43B9-9025-6262B0EBFE75*
G04*
G04*
G04 #@! TF.FilePolarity,Positive*
G04*
G01*
G75*
%ADD96C,0.1693*%
%ADD97C,0.1016*%
%ADD98C,0.1270*%
D96*
X227180Y437900D02*
G03*
X227180Y437900I-5080J0D01*
G01*
Y412500D02*
G03*
X227180Y412500I-5080J0D01*
G01*
X277980Y437900D02*
G03*
X277980Y437900I-5080J0D01*
G01*
Y387100D02*
G03*
X277980Y387100I-5080J0D01*
G01*
X855080Y355000D02*
G03*
X855080Y355000I-5080J0D01*
G01*
X830080Y330000D02*
G03*
X830080Y330000I-5080J0D01*
G01*
X855080D02*
G03*
X855080Y330000I-5080J0D01*
G01*
X830080Y305000D02*
G03*
X830080Y305000I-5080J0D01*
G01*
X855080D02*
G03*
X855080Y305000I-5080J0D01*
G01*
X830080Y280000D02*
G03*
X830080Y280000I-5080J0D01*
G01*
X855080D02*
G03*
X855080Y280000I-5080J0D01*
G01*
X830080Y255000D02*
G03*
X830080Y255000I-5080J0D01*
G01*
X855080Y180000D02*
G03*
X855080Y180000I-5080J0D01*
G01*
Y205000D02*
G03*
X855080Y205000I-5080J0D01*
G01*
X830080D02*
G03*
X830080Y205000I-5080J0D01*
G01*
Y230000D02*
G03*
X830080Y230000I-5080J0D01*
G01*
Y355000D02*
G03*
X830080Y355000I-5080J0D01*
G01*
Y180000D02*
G03*
X830080Y180000I-5080J0D01*
G01*
X855080Y255000D02*
G03*
X855080Y255000I-5080J0D01*
G01*
Y230000D02*
G03*
X855080Y230000I-5080J0D01*
G01*
D97*
X225148Y437900D02*
G03*
X225148Y437900I-3048J0D01*
G01*
Y412500D02*
G03*
X225148Y412500I-3048J0D01*
G01*
X275948Y437900D02*
G03*
X275948Y437900I-3048J0D01*
G01*
Y387100D02*
G03*
X275948Y387100I-3048J0D01*
G01*
D98*
X811195Y262420D02*
X806115Y272580D01*
X816275D01*
X811195Y262420D01*
X844920Y44920D02*
Y55080D01*
X855080D01*
Y44920D01*
X844920D01*
X677360Y517960D02*
Y515420D01*
X682440D01*
Y517960D01*
X684980D01*
Y523040D01*
X682440D01*
Y525580D01*
X677360D01*
Y523040D01*
X674820D01*
Y517960D01*
X677360D01*
X626560D02*
Y515420D01*
X631640D01*
Y517960D01*
X634180D01*
Y523040D01*
X631640D01*
Y525580D01*
X626560D01*
Y523040D01*
X624020D01*
Y517960D01*
X626560D01*
X651960D02*
Y515420D01*
X657040D01*
Y517960D01*
X659580D01*
Y523040D01*
X657040D01*
Y525580D01*
X651960D01*
Y523040D01*
X649420D01*
Y517960D01*
X651960D01*
X753120Y520420D02*
X755660Y525500D01*
X753120Y530580D01*
X758200Y528040D01*
X763280Y530580D01*
X760740Y525500D01*
X763280Y520420D01*
X758200Y522960D01*
X753120Y520420D01*
X727720D02*
X730260Y525500D01*
X727720Y530580D01*
X732800Y528040D01*
X737880Y530580D01*
X735340Y525500D01*
X737880Y520420D01*
X732800Y522960D01*
X727720Y520420D01*
X694920Y347220D02*
X697460Y352300D01*
X694920Y357380D01*
X700000Y354840D01*
X705080Y357380D01*
X702540Y352300D01*
X705080Y347220D01*
X700000Y349760D01*
X694920Y347220D01*
Y372620D02*
X697460Y377700D01*
X694920Y382780D01*
X700000Y380240D01*
X705080Y382780D01*
X702540Y377700D01*
X705080Y372620D01*
X700000Y375160D01*
X694920Y372620D01*
X394920Y494920D02*
Y505080D01*
X405080D01*
Y494920D01*
X394920D01*
X40000Y144920D02*
X42540Y147460D01*
X45080D01*
X42540Y150000D01*
X45080Y152540D01*
X42540D01*
X40000Y155080D01*
X37460Y152540D01*
X34920D01*
X37460Y150000D01*
X34920Y147460D01*
X37460D01*
X40000Y144920D01*
Y174920D02*
X42540Y177460D01*
X45080D01*
X42540Y180000D01*
X45080Y182540D01*
X42540D01*
X40000Y185080D01*
X37460Y182540D01*
X34920D01*
X37460Y180000D01*
X34920Y177460D01*
X37460D01*
X40000Y174920D01*
X394920Y44920D02*
Y55080D01*
X405080D01*
Y44920D01*
X394920D01*
X844920Y494920D02*
Y505080D01*
X855080D01*
Y494920D01*
X844920D01*
X100000Y185720D02*
X94920Y195880D01*
X105080D01*
X100000Y185720D01*
Y187752D02*
X96952Y193848D01*
X103048D01*
X100000Y187752D01*
Y134920D02*
X94920Y145080D01*
X105080D01*
X100000Y134920D01*
Y136952D02*
X96952Y143048D01*
X103048D01*
X100000Y136952D01*
X125400Y160320D02*
X120320Y170480D01*
X130480D01*
X125400Y160320D01*
Y162352D02*
X122352Y168448D01*
X128448D01*
X125400Y162352D01*
X80000Y504920D02*
X82540Y507460D01*
X85080D01*
X82540Y510000D01*
X85080Y512540D01*
X82540D01*
X80000Y515080D01*
X77460Y512540D01*
X74920D01*
X77460Y510000D01*
X74920Y507460D01*
X77460D01*
X80000Y504920D01*
X50000D02*
X52540Y507460D01*
X55080D01*
X52540Y510000D01*
X55080Y512540D01*
X52540D01*
X50000Y515080D01*
X47460Y512540D01*
X44920D01*
X47460Y510000D01*
X44920Y507460D01*
X47460D01*
X50000Y504920D01*
X190000D02*
X192540Y507460D01*
X195080D01*
X192540Y510000D01*
X195080Y512540D01*
X192540D01*
X190000Y515080D01*
X187460Y512540D01*
X184920D01*
X187460Y510000D01*
X184920Y507460D01*
X187460D01*
X190000Y504920D01*
X160000D02*
X162540Y507460D01*
X165080D01*
X162540Y510000D01*
X165080Y512540D01*
X162540D01*
X160000Y515080D01*
X157460Y512540D01*
X154920D01*
X157460Y510000D01*
X154920Y507460D01*
X157460D01*
X160000Y504920D01*
X459420Y350619D02*
Y360779D01*
X469580D01*
Y350619D01*
X459420D01*
X461452Y352651D02*
Y358747D01*
X467548D01*
Y352651D01*
X461452D01*
X459920Y327420D02*
Y337580D01*
X470080D01*
Y327420D01*
X459920D01*
X461952Y329452D02*
Y335548D01*
X468048D01*
Y329452D01*
X461952D01*
X430577Y373077D02*
Y383237D01*
X440737D01*
Y373077D01*
X430577D01*
X432609Y375109D02*
Y381205D01*
X438705D01*
Y375109D01*
X432609D01*
X612420Y242420D02*
Y252580D01*
X622580D01*
Y242420D01*
X612420D01*
X614452Y244452D02*
Y250548D01*
X620548D01*
Y244452D01*
X614452D01*
X667420Y344920D02*
Y355080D01*
X677580D01*
Y344920D01*
X667420D01*
X669452Y346952D02*
Y353048D01*
X675548D01*
Y346952D01*
X669452D01*
X577420Y395170D02*
Y405330D01*
X587580D01*
Y395170D01*
X577420D01*
X579452Y397202D02*
Y403298D01*
X585548D01*
Y397202D01*
X579452D01*
X605386Y119920D02*
Y130080D01*
X615546D01*
Y119920D01*
X605386D01*
X607418Y121952D02*
Y128048D01*
X613514D01*
Y121952D01*
X607418D01*
X471056Y428556D02*
Y438716D01*
X481216D01*
Y428556D01*
X471056D01*
X473088Y430588D02*
Y436684D01*
X479184D01*
Y430588D01*
X473088D01*
X457620Y147920D02*
Y158080D01*
X467780D01*
Y147920D01*
X457620D01*
X459652Y149952D02*
Y156048D01*
X465748D01*
Y149952D01*
X459652D01*
X547794Y344082D02*
Y354242D01*
X557954D01*
Y344082D01*
X547794D01*
X549826Y346114D02*
Y352210D01*
X555922D01*
Y346114D01*
X549826D01*
X685420Y471862D02*
Y482022D01*
X695580D01*
Y471862D01*
X685420D01*
X687452Y473894D02*
Y479990D01*
X693548D01*
Y473894D01*
X687452D01*
X652420Y434920D02*
Y445080D01*
X662580D01*
Y434920D01*
X652420D01*
X654452Y436952D02*
Y443048D01*
X660548D01*
Y436952D01*
X654452D01*
X721920Y147420D02*
Y157580D01*
X732080D01*
Y147420D01*
X721920D01*
X723952Y149452D02*
Y155548D01*
X730048D01*
Y149452D01*
X723952D01*
X717420Y167420D02*
Y177580D01*
X727580D01*
Y167420D01*
X717420D01*
X719452Y169452D02*
Y175548D01*
X725548D01*
Y169452D01*
X719452D01*
X459920Y314920D02*
Y325080D01*
X470080D01*
Y314920D01*
X459920D01*
X461952Y316952D02*
Y323048D01*
X468048D01*
Y316952D01*
X461952D01*
X774920Y455070D02*
Y465230D01*
X785080D01*
Y455070D01*
X774920D01*
X776952Y457102D02*
Y463198D01*
X783048D01*
Y457102D01*
X776952D01*
X494920Y339920D02*
Y350080D01*
X505080D01*
Y339920D01*
X494920D01*
X496952Y341952D02*
Y348048D01*
X503048D01*
Y341952D01*
X496952D01*
X472420Y462420D02*
Y472580D01*
X482580D01*
Y462420D01*
X472420D01*
X474452Y464452D02*
Y470548D01*
X480548D01*
Y464452D01*
X474452D01*
X454920Y267420D02*
Y277580D01*
X465080D01*
Y267420D01*
X454920D01*
X456952Y269452D02*
Y275548D01*
X463048D01*
Y269452D01*
X456952D01*
X454920Y297420D02*
Y307580D01*
X465080D01*
Y297420D01*
X454920D01*
X456952Y299452D02*
Y305548D01*
X463048D01*
Y299452D01*
X456952D01*
X492420Y477420D02*
Y487580D01*
X502580D01*
Y477420D01*
X492420D01*
X494452Y479452D02*
Y485548D01*
X500548D01*
Y479452D01*
X494452D01*
X519920Y439920D02*
Y450080D01*
X530080D01*
Y439920D01*
X519920D01*
X521952Y441952D02*
Y448048D01*
X528048D01*
Y441952D01*
X521952D01*
X692420Y439920D02*
Y450080D01*
X702580D01*
Y439920D01*
X692420D01*
X694452Y441952D02*
Y448048D01*
X700548D01*
Y441952D01*
X694452D01*
X629920Y369920D02*
Y380080D01*
X640080D01*
Y369920D01*
X629920D01*
X631952Y371952D02*
Y378048D01*
X638048D01*
Y371952D01*
X631952D01*
X877420Y82420D02*
Y92580D01*
X887580D01*
Y82420D01*
X877420D01*
X879452Y84452D02*
Y90548D01*
X885548D01*
Y84452D01*
X879452D01*
X544920Y52420D02*
Y62580D01*
X555080D01*
Y52420D01*
X544920D01*
X546952Y54452D02*
Y60548D01*
X553048D01*
Y54452D01*
X546952D01*
X544920Y-80D02*
Y10080D01*
X555080D01*
Y-80D01*
X544920D01*
X546952Y1952D02*
Y8048D01*
X553048D01*
Y1952D01*
X546952D01*
X404920Y347420D02*
Y357580D01*
X415080D01*
Y347420D01*
X404920D01*
X406952Y349452D02*
Y355548D01*
X413048D01*
Y349452D01*
X406952D01*
X404920Y359920D02*
Y370080D01*
X415080D01*
Y359920D01*
X404920D01*
X406952Y361952D02*
Y368048D01*
X413048D01*
Y361952D01*
X406952D01*
X429920Y327420D02*
Y337580D01*
X440080D01*
Y327420D01*
X429920D01*
X431952Y329452D02*
Y335548D01*
X438048D01*
Y329452D01*
X431952D01*
X497420Y437420D02*
Y447580D01*
X507580D01*
Y437420D01*
X497420D01*
X499452Y439452D02*
Y445548D01*
X505548D01*
Y439452D01*
X499452D01*
X477420Y434920D02*
Y445080D01*
X487580D01*
Y434920D01*
X477420D01*
X479452Y436952D02*
Y443048D01*
X485548D01*
Y436952D01*
X479452D01*
X494920Y522420D02*
Y532580D01*
X505080D01*
Y522420D01*
X494920D01*
X496952Y524452D02*
Y530548D01*
X503048D01*
Y524452D01*
X496952D01*
X487420Y514920D02*
Y525080D01*
X497580D01*
Y514920D01*
X487420D01*
X489452Y516952D02*
Y523048D01*
X495548D01*
Y516952D01*
X489452D01*
X409420Y391530D02*
Y401690D01*
X419580D01*
Y391530D01*
X409420D01*
X411452Y393562D02*
Y399658D01*
X417548D01*
Y393562D01*
X411452D01*
X502420Y232420D02*
Y242580D01*
X512580D01*
Y232420D01*
X502420D01*
X504452Y234452D02*
Y240548D01*
X510548D01*
Y234452D01*
X504452D01*
X502420Y217420D02*
Y227580D01*
X512580D01*
Y217420D01*
X502420D01*
X504452Y219452D02*
Y225548D01*
X510548D01*
Y219452D01*
X504452D01*
X414920Y254920D02*
Y265080D01*
X425080D01*
Y254920D01*
X414920D01*
X416952Y256952D02*
Y263048D01*
X423048D01*
Y256952D01*
X416952D01*
X399920Y297420D02*
Y307580D01*
X410080D01*
Y297420D01*
X399920D01*
X401952Y299452D02*
Y305548D01*
X408048D01*
Y299452D01*
X401952D01*
X699920Y267420D02*
Y277580D01*
X710080D01*
Y267420D01*
X699920D01*
X701952Y269452D02*
Y275548D01*
X708048D01*
Y269452D01*
X701952D01*
X744920Y269920D02*
Y280080D01*
X755080D01*
Y269920D01*
X744920D01*
X746952Y271952D02*
Y278048D01*
X753048D01*
Y271952D01*
X746952D01*
X674920Y294920D02*
Y305080D01*
X685080D01*
Y294920D01*
X674920D01*
X676952Y296952D02*
Y303048D01*
X683048D01*
Y296952D01*
X676952D01*
X534920Y289920D02*
Y300080D01*
X545080D01*
Y289920D01*
X534920D01*
X536952Y291952D02*
Y298048D01*
X543048D01*
Y291952D01*
X536952D01*
X514920Y284920D02*
Y295080D01*
X525080D01*
Y284920D01*
X514920D01*
X516952Y286952D02*
Y293048D01*
X523048D01*
Y286952D01*
X516952D01*
X544920Y254920D02*
Y265080D01*
X555080D01*
Y254920D01*
X544920D01*
X546952Y256952D02*
Y263048D01*
X553048D01*
Y256952D01*
X546952D01*
X592420Y252420D02*
Y262580D01*
X602580D01*
Y252420D01*
X592420D01*
X594452Y254452D02*
Y260548D01*
X600548D01*
Y254452D01*
X594452D01*
X613084Y288084D02*
Y298244D01*
X623244D01*
Y288084D01*
X613084D01*
X615116Y290116D02*
Y296212D01*
X621212D01*
Y290116D01*
X615116D01*
X569920Y274920D02*
Y285080D01*
X580080D01*
Y274920D01*
X569920D01*
X571952Y276952D02*
Y283048D01*
X578048D01*
Y276952D01*
X571952D01*
X610990Y264920D02*
Y275080D01*
X621150D01*
Y264920D01*
X610990D01*
X613022Y266952D02*
Y273048D01*
X619118D01*
Y266952D01*
X613022D01*
X634920Y284920D02*
Y295080D01*
X645080D01*
Y284920D01*
X634920D01*
X636952Y286952D02*
Y293048D01*
X643048D01*
Y286952D01*
X636952D01*
X432420Y122420D02*
Y132580D01*
X442580D01*
Y122420D01*
X432420D01*
X434452Y124452D02*
Y130548D01*
X440548D01*
Y124452D01*
X434452D01*
X403466Y214920D02*
Y225080D01*
X413626D01*
Y214920D01*
X403466D01*
X405498Y216952D02*
Y223048D01*
X411594D01*
Y216952D01*
X405498D01*
X392420Y132420D02*
Y142580D01*
X402580D01*
Y132420D01*
X392420D01*
X394452Y134452D02*
Y140548D01*
X400548D01*
Y134452D01*
X394452D01*
X432420Y247420D02*
Y257580D01*
X442580D01*
Y247420D01*
X432420D01*
X434452Y249452D02*
Y255548D01*
X440548D01*
Y249452D01*
X434452D01*
X487420Y162420D02*
Y172580D01*
X497580D01*
Y162420D01*
X487420D01*
X489452Y164452D02*
Y170548D01*
X495548D01*
Y164452D01*
X489452D01*
X442420Y132420D02*
Y142580D01*
X452580D01*
Y132420D01*
X442420D01*
X444452Y134452D02*
Y140548D01*
X450548D01*
Y134452D01*
X444452D01*
X524920Y199920D02*
Y210080D01*
X535080D01*
Y199920D01*
X524920D01*
X526952Y201952D02*
Y208048D01*
X533048D01*
Y201952D01*
X526952D01*
X467420Y209920D02*
Y220080D01*
X477580D01*
Y209920D01*
X467420D01*
X469452Y211952D02*
Y218048D01*
X475548D01*
Y211952D01*
X469452D01*
X584920Y124920D02*
Y135080D01*
X595080D01*
Y124920D01*
X584920D01*
X586952Y126952D02*
Y133048D01*
X593048D01*
Y126952D01*
X586952D01*
X584920Y242420D02*
Y252580D01*
X595080D01*
Y242420D01*
X584920D01*
X586952Y244452D02*
Y250548D01*
X593048D01*
Y244452D01*
X586952D01*
X539920Y184920D02*
Y195080D01*
X550080D01*
Y184920D01*
X539920D01*
X541952Y186952D02*
Y193048D01*
X548048D01*
Y186952D01*
X541952D01*
X542420Y164920D02*
Y175080D01*
X552580D01*
Y164920D01*
X542420D01*
X544452Y166952D02*
Y173048D01*
X550548D01*
Y166952D01*
X544452D01*
X544920Y234920D02*
Y245080D01*
X555080D01*
Y234920D01*
X544920D01*
X546952Y236952D02*
Y243048D01*
X553048D01*
Y236952D01*
X546952D01*
X597420Y144920D02*
Y155080D01*
X607580D01*
Y144920D01*
X597420D01*
X599452Y146952D02*
Y153048D01*
X605548D01*
Y146952D01*
X599452D01*
X589920Y219920D02*
Y230080D01*
X600080D01*
Y219920D01*
X589920D01*
X591952Y221952D02*
Y228048D01*
X598048D01*
Y221952D01*
X591952D01*
X577420Y234920D02*
Y245080D01*
X587580D01*
Y234920D01*
X577420D01*
X579452Y236952D02*
Y243048D01*
X585548D01*
Y236952D01*
X579452D01*
X409357Y130653D02*
Y140813D01*
X419517D01*
Y130653D01*
X409357D01*
X411389Y132685D02*
Y138781D01*
X417485D01*
Y132685D01*
X411389D01*
X674920Y167420D02*
Y177580D01*
X685080D01*
Y167420D01*
X674920D01*
X676952Y169452D02*
Y175548D01*
X683048D01*
Y169452D01*
X676952D01*
X619920Y149920D02*
Y160080D01*
X630080D01*
Y149920D01*
X619920D01*
X621952Y151952D02*
Y158048D01*
X628048D01*
Y151952D01*
X621952D01*
X714920Y199920D02*
Y210080D01*
X725080D01*
Y199920D01*
X714920D01*
X716952Y201952D02*
Y208048D01*
X723048D01*
Y201952D01*
X716952D01*
X562420Y247420D02*
Y257580D01*
X572580D01*
Y247420D01*
X562420D01*
X564452Y249452D02*
Y255548D01*
X570548D01*
Y249452D01*
X564452D01*
X677420Y199920D02*
Y210080D01*
X687580D01*
Y199920D01*
X677420D01*
X679452Y201952D02*
Y208048D01*
X685548D01*
Y201952D01*
X679452D01*
X667420Y202420D02*
Y212580D01*
X677580D01*
Y202420D01*
X667420D01*
X669452Y204452D02*
Y210548D01*
X675548D01*
Y204452D01*
X669452D01*
X674920Y194920D02*
Y205080D01*
X685080D01*
Y194920D01*
X674920D01*
X676952Y196952D02*
Y203048D01*
X683048D01*
Y196952D01*
X676952D01*
X543420Y245207D02*
Y255367D01*
X553580D01*
Y245207D01*
X543420D01*
X545452Y247239D02*
Y253335D01*
X551548D01*
Y247239D01*
X545452D01*
X554920Y87420D02*
Y97580D01*
X565080D01*
Y87420D01*
X554920D01*
X556952Y89452D02*
Y95548D01*
X563048D01*
Y89452D01*
X556952D01*
X606920Y89920D02*
Y100080D01*
X617080D01*
Y89920D01*
X606920D01*
X608952Y91952D02*
Y98048D01*
X615048D01*
Y91952D01*
X608952D01*
X514920Y99920D02*
Y110080D01*
X525080D01*
Y99920D01*
X514920D01*
X516952Y101952D02*
Y108048D01*
X523048D01*
Y101952D01*
X516952D01*
X595410Y31039D02*
Y41199D01*
X605570D01*
Y31039D01*
X595410D01*
X597443Y33071D02*
Y39167D01*
X603539D01*
Y33071D01*
X597443D01*
X602420Y17420D02*
Y27580D01*
X612580D01*
Y17420D01*
X602420D01*
X604452Y19452D02*
Y25548D01*
X610548D01*
Y19452D01*
X604452D01*
X562420Y92420D02*
Y102580D01*
X572580D01*
Y92420D01*
X562420D01*
X564452Y94452D02*
Y100548D01*
X570548D01*
Y94452D01*
X564452D01*
X532829Y106136D02*
Y116296D01*
X542989D01*
Y106136D01*
X532829D01*
X534861Y108168D02*
Y114264D01*
X540957D01*
Y108168D01*
X534861D01*
X547420Y87420D02*
Y97580D01*
X557580D01*
Y87420D01*
X547420D01*
X549452Y89452D02*
Y95548D01*
X555548D01*
Y89452D01*
X549452D01*
X592420Y44920D02*
Y55080D01*
X602580D01*
Y44920D01*
X592420D01*
X594452Y46952D02*
Y53048D01*
X600548D01*
Y46952D01*
X594452D01*
X559920Y69920D02*
Y80080D01*
X570080D01*
Y69920D01*
X559920D01*
X561952Y71952D02*
Y78048D01*
X568048D01*
Y71952D01*
X561952D01*
X537420Y69920D02*
Y80080D01*
X547580D01*
Y69920D01*
X537420D01*
X539452Y71952D02*
Y78048D01*
X545548D01*
Y71952D01*
X539452D01*
X454920Y17420D02*
Y27580D01*
X465080D01*
Y17420D01*
X454920D01*
X456952Y19452D02*
Y25548D01*
X463048D01*
Y19452D01*
X456952D01*
X480577Y76920D02*
Y87080D01*
X490737D01*
Y76920D01*
X480577D01*
X482609Y78952D02*
Y85048D01*
X488705D01*
Y78952D01*
X482609D01*
X499484Y75420D02*
Y85580D01*
X509644D01*
Y75420D01*
X499484D01*
X501516Y77452D02*
Y83548D01*
X507612D01*
Y77452D01*
X501516D01*
X469920Y472420D02*
Y482580D01*
X480080D01*
Y472420D01*
X469920D01*
X471952Y474452D02*
Y480548D01*
X478048D01*
Y474452D01*
X471952D01*
X549920Y364920D02*
Y375080D01*
X560080D01*
Y364920D01*
X549920D01*
X551952Y366952D02*
Y373048D01*
X558048D01*
Y366952D01*
X551952D01*
X472420Y522420D02*
Y532580D01*
X482580D01*
Y522420D01*
X472420D01*
X474452Y524452D02*
Y530548D01*
X480548D01*
Y524452D01*
X474452D01*
X474920Y69920D02*
Y80080D01*
X485080D01*
Y69920D01*
X474920D01*
X476952Y71952D02*
Y78048D01*
X483048D01*
Y71952D01*
X476952D01*
X459920Y97420D02*
Y107580D01*
X470080D01*
Y97420D01*
X459920D01*
X461952Y99452D02*
Y105548D01*
X468048D01*
Y99452D01*
X461952D01*
X787920Y262420D02*
Y272580D01*
X798080D01*
Y262420D01*
X787920D01*
X789952Y264452D02*
Y270548D01*
X796048D01*
Y264452D01*
X789952D01*
X794920Y147420D02*
Y157580D01*
X805080D01*
Y147420D01*
X794920D01*
X796952Y149452D02*
Y155548D01*
X803048D01*
Y149452D01*
X796952D01*
X672420Y334920D02*
Y345080D01*
X682580D01*
Y334920D01*
X672420D01*
X674452Y336952D02*
Y343048D01*
X680548D01*
Y336952D01*
X674452D01*
X774920Y59920D02*
Y70080D01*
X785080D01*
Y59920D01*
X774920D01*
X776952Y61952D02*
Y68048D01*
X783048D01*
Y61952D01*
X776952D01*
X887420Y97420D02*
Y107580D01*
X897580D01*
Y97420D01*
X887420D01*
X889452Y99452D02*
Y105548D01*
X895548D01*
Y99452D01*
X889452D01*
X874920Y114920D02*
Y125080D01*
X885080D01*
Y114920D01*
X874920D01*
X876952Y116952D02*
Y123048D01*
X883048D01*
Y116952D01*
X876952D01*
X709920Y14920D02*
Y25080D01*
X720080D01*
Y14920D01*
X709920D01*
X711952Y16952D02*
Y23048D01*
X718048D01*
Y16952D01*
X711952D01*
X772420Y139920D02*
Y150080D01*
X782580D01*
Y139920D01*
X772420D01*
X774452Y141952D02*
Y148048D01*
X780548D01*
Y141952D01*
X774452D01*
X782834Y155334D02*
Y165494D01*
X792994D01*
Y155334D01*
X782834D01*
X784866Y157366D02*
Y163462D01*
X790962D01*
Y157366D01*
X784866D01*
X774920Y99920D02*
Y110080D01*
X785080D01*
Y99920D01*
X774920D01*
X776952Y101952D02*
Y108048D01*
X783048D01*
Y101952D01*
X776952D01*
X874920Y372420D02*
Y382580D01*
X885080D01*
Y372420D01*
X874920D01*
X876952Y374452D02*
Y380548D01*
X883048D01*
Y374452D01*
X876952D01*
X717420Y359920D02*
Y370080D01*
X727580D01*
Y359920D01*
X717420D01*
X719452Y361952D02*
Y368048D01*
X725548D01*
Y361952D01*
X719452D01*
X169920Y157420D02*
Y167580D01*
X180080D01*
Y157420D01*
X169920D01*
X171952Y159452D02*
Y165548D01*
X178048D01*
Y159452D01*
X171952D01*
X172420Y124920D02*
Y135080D01*
X182580D01*
Y124920D01*
X172420D01*
X174452Y126952D02*
Y133048D01*
X180548D01*
Y126952D01*
X174452D01*
X544920Y429920D02*
Y440080D01*
X555080D01*
Y429920D01*
X544920D01*
X546952Y431952D02*
Y438048D01*
X553048D01*
Y431952D01*
X546952D01*
X627420Y394120D02*
Y404280D01*
X637580D01*
Y394120D01*
X627420D01*
X629452Y396152D02*
Y402248D01*
X635548D01*
Y396152D01*
X629452D01*
X364920Y259920D02*
Y270080D01*
X375080D01*
Y259920D01*
X364920D01*
X366952Y261952D02*
Y268048D01*
X373048D01*
Y261952D01*
X366952D01*
X364920Y199920D02*
Y210080D01*
X375080D01*
Y199920D01*
X364920D01*
X366952Y201952D02*
Y208048D01*
X373048D01*
Y201952D01*
X366952D01*
X462420Y2420D02*
Y12580D01*
X472580D01*
Y2420D01*
X462420D01*
X464452Y4452D02*
Y10548D01*
X470548D01*
Y4452D01*
X464452D01*
X562420Y42420D02*
Y52580D01*
X572580D01*
Y42420D01*
X562420D01*
X564452Y44452D02*
Y50548D01*
X570548D01*
Y44452D01*
X564452D01*
X429920Y314920D02*
Y325080D01*
X440080D01*
Y314920D01*
X429920D01*
X431952Y316952D02*
Y323048D01*
X438048D01*
Y316952D01*
X431952D01*
X424920Y457420D02*
Y467580D01*
X435080D01*
Y457420D01*
X424920D01*
X426952Y459452D02*
Y465548D01*
X433048D01*
Y459452D01*
X426952D01*
X654920Y309920D02*
Y320080D01*
X665080D01*
Y309920D01*
X654920D01*
X656952Y311952D02*
Y318048D01*
X663048D01*
Y311952D01*
X656952D01*
X527420Y107420D02*
Y117580D01*
X537580D01*
Y107420D01*
X527420D01*
X529452Y109452D02*
Y115548D01*
X535548D01*
Y109452D01*
X529452D01*
X527420Y87420D02*
Y97580D01*
X537580D01*
Y87420D01*
X527420D01*
X529452Y89452D02*
Y95548D01*
X535548D01*
Y89452D01*
X529452D01*
X407420Y439920D02*
Y450080D01*
X417580D01*
Y439920D01*
X407420D01*
X409452Y441952D02*
Y448048D01*
X415548D01*
Y441952D01*
X409452D01*
X624920Y439920D02*
Y450080D01*
X635080D01*
Y439920D01*
X624920D01*
X626952Y441952D02*
Y448048D01*
X633048D01*
Y441952D01*
X626952D01*
X607420Y439920D02*
Y450080D01*
X617580D01*
Y439920D01*
X607420D01*
X609452Y441952D02*
Y448048D01*
X615548D01*
Y441952D01*
X609452D01*
X797420Y344920D02*
Y355080D01*
X807580D01*
Y344920D01*
X797420D01*
X799452Y346952D02*
Y353048D01*
X805548D01*
Y346952D01*
X799452D01*
X772420Y327420D02*
Y337580D01*
X782580D01*
Y327420D01*
X772420D01*
X774452Y329452D02*
Y335548D01*
X780548D01*
Y329452D01*
X774452D01*
X822420Y439920D02*
Y450080D01*
X832580D01*
Y439920D01*
X822420D01*
X824452Y441952D02*
Y448048D01*
X830548D01*
Y441952D01*
X824452D01*
X742420Y379920D02*
Y390080D01*
X752580D01*
Y379920D01*
X742420D01*
X744452Y381952D02*
Y388048D01*
X750548D01*
Y381952D01*
X744452D01*
X722420Y382420D02*
Y392580D01*
X732580D01*
Y382420D01*
X722420D01*
X724452Y384452D02*
Y390548D01*
X730548D01*
Y384452D01*
X724452D01*
X844920Y411860D02*
Y422020D01*
X855080D01*
Y411860D01*
X844920D01*
X846952Y413891D02*
Y419987D01*
X853048D01*
Y413891D01*
X846952D01*
X387390Y192220D02*
Y202380D01*
X397550D01*
Y192220D01*
X387390D01*
X389422Y194252D02*
Y200348D01*
X395518D01*
Y194252D01*
X389422D01*
X517420Y374920D02*
Y385080D01*
X527580D01*
Y374920D01*
X517420D01*
X519452Y376952D02*
Y383048D01*
X525548D01*
Y376952D01*
X519452D01*
X468203Y310741D02*
Y320901D01*
X478363D01*
Y310741D01*
X468203D01*
X470235Y312773D02*
Y318869D01*
X476331D01*
Y312773D01*
X470235D01*
X492420Y37420D02*
Y47580D01*
X502580D01*
Y37420D01*
X492420D01*
X494452Y39452D02*
Y45548D01*
X500548D01*
Y39452D01*
X494452D01*
X407420Y104920D02*
Y115080D01*
X417580D01*
Y104920D01*
X407420D01*
X409452Y106952D02*
Y113048D01*
X415548D01*
Y106952D01*
X409452D01*
X548420Y311120D02*
Y321280D01*
X558580D01*
Y311120D01*
X548420D01*
X550452Y313152D02*
Y319248D01*
X556548D01*
Y313152D01*
X550452D01*
X842420Y114420D02*
Y124580D01*
X852580D01*
Y114420D01*
X842420D01*
X844452Y116452D02*
Y122548D01*
X850548D01*
Y116452D01*
X844452D01*
X824920Y114420D02*
Y124580D01*
X835080D01*
Y114420D01*
X824920D01*
X826952Y116452D02*
Y122548D01*
X833048D01*
Y116452D01*
X826952D01*
X212420Y314920D02*
Y325080D01*
X222580D01*
Y314920D01*
X212420D01*
X214452Y316952D02*
Y323048D01*
X220548D01*
Y316952D01*
X214452D01*
X192420Y314920D02*
Y325080D01*
X202580D01*
Y314920D01*
X192420D01*
X194452Y316952D02*
Y323048D01*
X200548D01*
Y316952D01*
X194452D01*
X12420Y404920D02*
Y415080D01*
X22580D01*
Y404920D01*
X12420D01*
X14452Y406952D02*
Y413048D01*
X20548D01*
Y406952D01*
X14452D01*
X104920Y392420D02*
Y402580D01*
X115080D01*
Y392420D01*
X104920D01*
X106952Y394452D02*
Y400548D01*
X113048D01*
Y394452D01*
X106952D01*
X386920Y234920D02*
Y245080D01*
X397080D01*
Y234920D01*
X386920D01*
X388952Y236952D02*
Y243048D01*
X395048D01*
Y236952D01*
X388952D01*
X864920Y295461D02*
Y305621D01*
X875080D01*
Y295461D01*
X864920D01*
X866952Y297493D02*
Y303589D01*
X873048D01*
Y297493D01*
X866952D01*
X829920Y146920D02*
Y157080D01*
X840080D01*
Y146920D01*
X829920D01*
X831952Y148952D02*
Y155048D01*
X838048D01*
Y148952D01*
X831952D01*
X849920Y146920D02*
Y157080D01*
X860080D01*
Y146920D01*
X849920D01*
X851952Y148952D02*
Y155048D01*
X858048D01*
Y148952D01*
X851952D01*
X697420Y512420D02*
Y522580D01*
X707580D01*
Y512420D01*
X697420D01*
X699452Y514452D02*
Y520548D01*
X705548D01*
Y514452D01*
X699452D01*
X835286Y392469D02*
Y402629D01*
X845446D01*
Y392469D01*
X835286D01*
X837318Y394501D02*
Y400597D01*
X843414D01*
Y394501D01*
X837318D01*
X844920Y77500D02*
X850000Y82580D01*
X855080Y77500D01*
X850000Y72420D01*
X844920Y77500D01*
X864920Y70000D02*
X870000Y75080D01*
X875080Y70000D01*
X870000Y64920D01*
X864920Y70000D01*
X872420Y50000D02*
X877500Y55080D01*
X882580Y50000D01*
X877500Y44920D01*
X872420Y50000D01*
X864920Y30000D02*
X870000Y35080D01*
X875080Y30000D01*
X870000Y24920D01*
X864920Y30000D01*
X844920Y22500D02*
X850000Y27580D01*
X855080Y22500D01*
X850000Y17420D01*
X844920Y22500D01*
X824920Y30000D02*
X830000Y35080D01*
X835080Y30000D01*
X830000Y24920D01*
X824920Y30000D01*
X817420Y50000D02*
X822500Y55080D01*
X827580Y50000D01*
X822500Y44920D01*
X817420Y50000D01*
X824920Y70000D02*
X830000Y75080D01*
X835080Y70000D01*
X830000Y64920D01*
X824920Y70000D01*
X394920Y527500D02*
X400000Y532580D01*
X405080Y527500D01*
X400000Y522420D01*
X394920Y527500D01*
X414920Y520000D02*
X420000Y525080D01*
X425080Y520000D01*
X420000Y514920D01*
X414920Y520000D01*
X422420Y500000D02*
X427500Y505080D01*
X432580Y500000D01*
X427500Y494920D01*
X422420Y500000D01*
X414920Y480000D02*
X420000Y485080D01*
X425080Y480000D01*
X420000Y474920D01*
X414920Y480000D01*
X394920Y472500D02*
X400000Y477580D01*
X405080Y472500D01*
X400000Y467420D01*
X394920Y472500D01*
X374920Y480000D02*
X380000Y485080D01*
X385080Y480000D01*
X380000Y474920D01*
X374920Y480000D01*
X367420Y500000D02*
X372500Y505080D01*
X377580Y500000D01*
X372500Y494920D01*
X367420Y500000D01*
X374920Y520000D02*
X380000Y525080D01*
X385080Y520000D01*
X380000Y514920D01*
X374920Y520000D01*
X53920Y115420D02*
X56460D01*
X59000Y117960D01*
X61540Y115420D01*
X64080D01*
Y117960D01*
X61540Y120500D01*
X64080Y123040D01*
Y125580D01*
X61540D01*
X59000Y123040D01*
X56460Y125580D01*
X53920D01*
Y123040D01*
X56460Y120500D01*
X53920Y117960D01*
Y115420D01*
Y206420D02*
X56460D01*
X59000Y208960D01*
X61540Y206420D01*
X64080D01*
Y208960D01*
X61540Y211500D01*
X64080Y214040D01*
Y216580D01*
X61540D01*
X59000Y214040D01*
X56460Y216580D01*
X53920D01*
Y214040D01*
X56460Y211500D01*
X53920Y208960D01*
Y206420D01*
X374920Y70000D02*
X380000Y75080D01*
X385080Y70000D01*
X380000Y64920D01*
X374920Y70000D01*
X367420Y50000D02*
X372500Y55080D01*
X377580Y50000D01*
X372500Y44920D01*
X367420Y50000D01*
X374920Y30000D02*
X380000Y35080D01*
X385080Y30000D01*
X380000Y24920D01*
X374920Y30000D01*
X394920Y22500D02*
X400000Y27580D01*
X405080Y22500D01*
X400000Y17420D01*
X394920Y22500D01*
X414920Y30000D02*
X420000Y35080D01*
X425080Y30000D01*
X420000Y24920D01*
X414920Y30000D01*
X422420Y50000D02*
X427500Y55080D01*
X432580Y50000D01*
X427500Y44920D01*
X422420Y50000D01*
X414920Y70000D02*
X420000Y75080D01*
X425080Y70000D01*
X420000Y64920D01*
X414920Y70000D01*
X394920Y77500D02*
X400000Y82580D01*
X405080Y77500D01*
X400000Y72420D01*
X394920Y77500D01*
X824920Y520000D02*
X830000Y525080D01*
X835080Y520000D01*
X830000Y514920D01*
X824920Y520000D01*
X817420Y500000D02*
X822500Y505080D01*
X827580Y500000D01*
X822500Y494920D01*
X817420Y500000D01*
X824920Y480000D02*
X830000Y485080D01*
X835080Y480000D01*
X830000Y474920D01*
X824920Y480000D01*
X844920Y472500D02*
X850000Y477580D01*
X855080Y472500D01*
X850000Y467420D01*
X844920Y472500D01*
X864920Y480000D02*
X870000Y485080D01*
X875080Y480000D01*
X870000Y474920D01*
X864920Y480000D01*
X872420Y500000D02*
X877500Y505080D01*
X882580Y500000D01*
X877500Y494920D01*
X872420Y500000D01*
X864920Y520000D02*
X870000Y525080D01*
X875080Y520000D01*
X870000Y514920D01*
X864920Y520000D01*
X844920Y527500D02*
X850000Y532580D01*
X855080Y527500D01*
X850000Y522420D01*
X844920Y527500D01*
X106420Y485920D02*
X108960D01*
X111500Y488460D01*
X114040Y485920D01*
X116580D01*
Y488460D01*
X114040Y491000D01*
X116580Y493540D01*
Y496080D01*
X114040D01*
X111500Y493540D01*
X108960Y496080D01*
X106420D01*
Y493540D01*
X108960Y491000D01*
X106420Y488460D01*
Y485920D01*
X15420D02*
X17960D01*
X20500Y488460D01*
X23040Y485920D01*
X25580D01*
Y488460D01*
X23040Y491000D01*
X25580Y493540D01*
Y496080D01*
X23040D01*
X20500Y493540D01*
X17960Y496080D01*
X15420D01*
Y493540D01*
X17960Y491000D01*
X15420Y488460D01*
Y485920D01*
X216420D02*
X218960D01*
X221500Y488460D01*
X224040Y485920D01*
X226580D01*
Y488460D01*
X224040Y491000D01*
X226580Y493540D01*
Y496080D01*
X224040D01*
X221500Y493540D01*
X218960Y496080D01*
X216420D01*
Y493540D01*
X218960Y491000D01*
X216420Y488460D01*
Y485920D01*
X125420D02*
X127960D01*
X130500Y488460D01*
X133040Y485920D01*
X135580D01*
Y488460D01*
X133040Y491000D01*
X135580Y493540D01*
Y496080D01*
X133040D01*
X130500Y493540D01*
X127960Y496080D01*
X125420D01*
Y493540D01*
X127960Y491000D01*
X125420Y488460D01*
Y485920D01*
M02*
