G04*
G04 #@! TF.GenerationSoftware,Altium Limited,Altium Designer,23.9.2 (47)*
G04*
G04 Layer_Physical_Order=1*
G04 Layer_Color=255*
%FSLAX44Y44*%
%MOMM*%
G71*
G04*
G04 #@! TF.SameCoordinates,1607B9EF-4730-45C7-A4D5-593DF947B7B5*
G04*
G04*
G04 #@! TF.FilePolarity,Positive*
G04*
G01*
G75*
G04:AMPARAMS|DCode=16|XSize=3.3mm|YSize=2.3mm|CornerRadius=0.575mm|HoleSize=0mm|Usage=FLASHONLY|Rotation=0.000|XOffset=0mm|YOffset=0mm|HoleType=Round|Shape=RoundedRectangle|*
%AMROUNDEDRECTD16*
21,1,3.3000,1.1500,0,0,0.0*
21,1,2.1500,2.3000,0,0,0.0*
1,1,1.1500,1.0750,-0.5750*
1,1,1.1500,-1.0750,-0.5750*
1,1,1.1500,-1.0750,0.5750*
1,1,1.1500,1.0750,0.5750*
%
%ADD16ROUNDEDRECTD16*%
%ADD17R,1.3000X0.9000*%
%ADD18R,1.3500X1.1500*%
%ADD19C,1.0000*%
G04:AMPARAMS|DCode=20|XSize=5.6mm|YSize=6.9mm|CornerRadius=1.4mm|HoleSize=0mm|Usage=FLASHONLY|Rotation=180.000|XOffset=0mm|YOffset=0mm|HoleType=Round|Shape=RoundedRectangle|*
%AMROUNDEDRECTD20*
21,1,5.6000,4.1000,0,0,180.0*
21,1,2.8000,6.9000,0,0,180.0*
1,1,2.8000,-1.4000,2.0500*
1,1,2.8000,1.4000,2.0500*
1,1,2.8000,1.4000,-2.0500*
1,1,2.8000,-1.4000,-2.0500*
%
%ADD20ROUNDEDRECTD20*%
G04:AMPARAMS|DCode=21|XSize=0.65mm|YSize=1mm|CornerRadius=0.1625mm|HoleSize=0mm|Usage=FLASHONLY|Rotation=0.000|XOffset=0mm|YOffset=0mm|HoleType=Round|Shape=RoundedRectangle|*
%AMROUNDEDRECTD21*
21,1,0.6500,0.6750,0,0,0.0*
21,1,0.3250,1.0000,0,0,0.0*
1,1,0.3250,0.1625,-0.3375*
1,1,0.3250,-0.1625,-0.3375*
1,1,0.3250,-0.1625,0.3375*
1,1,0.3250,0.1625,0.3375*
%
%ADD21ROUNDEDRECTD21*%
G04:AMPARAMS|DCode=22|XSize=1.3mm|YSize=1.1mm|CornerRadius=0.275mm|HoleSize=0mm|Usage=FLASHONLY|Rotation=0.000|XOffset=0mm|YOffset=0mm|HoleType=Round|Shape=RoundedRectangle|*
%AMROUNDEDRECTD22*
21,1,1.3000,0.5500,0,0,0.0*
21,1,0.7500,1.1000,0,0,0.0*
1,1,0.5500,0.3750,-0.2750*
1,1,0.5500,-0.3750,-0.2750*
1,1,0.5500,-0.3750,0.2750*
1,1,0.5500,0.3750,0.2750*
%
%ADD22ROUNDEDRECTD22*%
%ADD23R,2.2000X1.3000*%
%ADD24R,2.0000X2.8000*%
G04:AMPARAMS|DCode=25|XSize=1.75mm|YSize=1.25mm|CornerRadius=0.3125mm|HoleSize=0mm|Usage=FLASHONLY|Rotation=180.000|XOffset=0mm|YOffset=0mm|HoleType=Round|Shape=RoundedRectangle|*
%AMROUNDEDRECTD25*
21,1,1.7500,0.6250,0,0,180.0*
21,1,1.1250,1.2500,0,0,180.0*
1,1,0.6250,-0.5625,0.3125*
1,1,0.6250,0.5625,0.3125*
1,1,0.6250,0.5625,-0.3125*
1,1,0.6250,-0.5625,-0.3125*
%
%ADD25ROUNDEDRECTD25*%
%ADD26R,3.5000X1.5000*%
G04:AMPARAMS|DCode=27|XSize=1.5mm|YSize=2.1mm|CornerRadius=0.375mm|HoleSize=0mm|Usage=FLASHONLY|Rotation=90.000|XOffset=0mm|YOffset=0mm|HoleType=Round|Shape=RoundedRectangle|*
%AMROUNDEDRECTD27*
21,1,1.5000,1.3500,0,0,90.0*
21,1,0.7500,2.1000,0,0,90.0*
1,1,0.7500,0.6750,0.3750*
1,1,0.7500,0.6750,-0.3750*
1,1,0.7500,-0.6750,-0.3750*
1,1,0.7500,-0.6750,0.3750*
%
%ADD27ROUNDEDRECTD27*%
G04:AMPARAMS|DCode=28|XSize=0.65mm|YSize=1.25mm|CornerRadius=0.1625mm|HoleSize=0mm|Usage=FLASHONLY|Rotation=90.000|XOffset=0mm|YOffset=0mm|HoleType=Round|Shape=RoundedRectangle|*
%AMROUNDEDRECTD28*
21,1,0.6500,0.9250,0,0,90.0*
21,1,0.3250,1.2500,0,0,90.0*
1,1,0.3250,0.4625,0.1625*
1,1,0.3250,0.4625,-0.1625*
1,1,0.3250,-0.4625,-0.1625*
1,1,0.3250,-0.4625,0.1625*
%
%ADD28ROUNDEDRECTD28*%
G04:AMPARAMS|DCode=29|XSize=1.5mm|YSize=3mm|CornerRadius=0.375mm|HoleSize=0mm|Usage=FLASHONLY|Rotation=180.000|XOffset=0mm|YOffset=0mm|HoleType=Round|Shape=RoundedRectangle|*
%AMROUNDEDRECTD29*
21,1,1.5000,2.2500,0,0,180.0*
21,1,0.7500,3.0000,0,0,180.0*
1,1,0.7500,-0.3750,1.1250*
1,1,0.7500,0.3750,1.1250*
1,1,0.7500,0.3750,-1.1250*
1,1,0.7500,-0.3750,-1.1250*
%
%ADD29ROUNDEDRECTD29*%
G04:AMPARAMS|DCode=30|XSize=1.2mm|YSize=1.1mm|CornerRadius=0.275mm|HoleSize=0mm|Usage=FLASHONLY|Rotation=0.000|XOffset=0mm|YOffset=0mm|HoleType=Round|Shape=RoundedRectangle|*
%AMROUNDEDRECTD30*
21,1,1.2000,0.5500,0,0,0.0*
21,1,0.6500,1.1000,0,0,0.0*
1,1,0.5500,0.3250,-0.2750*
1,1,0.5500,-0.3250,-0.2750*
1,1,0.5500,-0.3250,0.2750*
1,1,0.5500,0.3250,0.2750*
%
%ADD30ROUNDEDRECTD30*%
G04:AMPARAMS|DCode=31|XSize=6.5mm|YSize=6.5mm|CornerRadius=0.8125mm|HoleSize=0mm|Usage=FLASHONLY|Rotation=90.000|XOffset=0mm|YOffset=0mm|HoleType=Round|Shape=RoundedRectangle|*
%AMROUNDEDRECTD31*
21,1,6.5000,4.8750,0,0,90.0*
21,1,4.8750,6.5000,0,0,90.0*
1,1,1.6250,2.4375,2.4375*
1,1,1.6250,2.4375,-2.4375*
1,1,1.6250,-2.4375,-2.4375*
1,1,1.6250,-2.4375,2.4375*
%
%ADD31ROUNDEDRECTD31*%
G04:AMPARAMS|DCode=32|XSize=3.5mm|YSize=1.5mm|CornerRadius=0.375mm|HoleSize=0mm|Usage=FLASHONLY|Rotation=0.000|XOffset=0mm|YOffset=0mm|HoleType=Round|Shape=RoundedRectangle|*
%AMROUNDEDRECTD32*
21,1,3.5000,0.7500,0,0,0.0*
21,1,2.7500,1.5000,0,0,0.0*
1,1,0.7500,1.3750,-0.3750*
1,1,0.7500,-1.3750,-0.3750*
1,1,0.7500,-1.3750,0.3750*
1,1,0.7500,1.3750,0.3750*
%
%ADD32ROUNDEDRECTD32*%
G04:AMPARAMS|DCode=33|XSize=1.35mm|YSize=1.15mm|CornerRadius=0.2875mm|HoleSize=0mm|Usage=FLASHONLY|Rotation=270.000|XOffset=0mm|YOffset=0mm|HoleType=Round|Shape=RoundedRectangle|*
%AMROUNDEDRECTD33*
21,1,1.3500,0.5750,0,0,270.0*
21,1,0.7750,1.1500,0,0,270.0*
1,1,0.5750,-0.2875,-0.3875*
1,1,0.5750,-0.2875,0.3875*
1,1,0.5750,0.2875,0.3875*
1,1,0.5750,0.2875,-0.3875*
%
%ADD33ROUNDEDRECTD33*%
G04:AMPARAMS|DCode=34|XSize=0.6mm|YSize=1.45mm|CornerRadius=0.15mm|HoleSize=0mm|Usage=FLASHONLY|Rotation=90.000|XOffset=0mm|YOffset=0mm|HoleType=Round|Shape=RoundedRectangle|*
%AMROUNDEDRECTD34*
21,1,0.6000,1.1500,0,0,90.0*
21,1,0.3000,1.4500,0,0,90.0*
1,1,0.3000,0.5750,0.1500*
1,1,0.3000,0.5750,-0.1500*
1,1,0.3000,-0.5750,-0.1500*
1,1,0.3000,-0.5750,0.1500*
%
%ADD34ROUNDEDRECTD34*%
%ADD35R,1.5000X3.5000*%
%ADD68C,0.5000*%
%ADD69C,1.0000*%
G04:AMPARAMS|DCode=70|XSize=6.5mm|YSize=6.5mm|CornerRadius=0.8125mm|HoleSize=0mm|Usage=FLASHONLY|Rotation=90.000|XOffset=0mm|YOffset=0mm|HoleType=Round|Shape=RoundedRectangle|*
%AMROUNDEDRECTD70*
21,1,6.5000,4.8750,0,0,90.0*
21,1,4.8750,6.5000,0,0,90.0*
1,1,1.6250,2.4375,2.4375*
1,1,1.6250,2.4375,-2.4375*
1,1,1.6250,-2.4375,-2.4375*
1,1,1.6250,-2.4375,2.4375*
%
%ADD70ROUNDEDRECTD70*%
%ADD71C,1.8000*%
G04:AMPARAMS|DCode=72|XSize=1.5mm|YSize=1.5mm|CornerRadius=0.375mm|HoleSize=0mm|Usage=FLASHONLY|Rotation=180.000|XOffset=0mm|YOffset=0mm|HoleType=Round|Shape=RoundedRectangle|*
%AMROUNDEDRECTD72*
21,1,1.5000,0.7500,0,0,180.0*
21,1,0.7500,1.5000,0,0,180.0*
1,1,0.7500,-0.3750,0.3750*
1,1,0.7500,0.3750,0.3750*
1,1,0.7500,0.3750,-0.3750*
1,1,0.7500,-0.3750,-0.3750*
%
%ADD72ROUNDEDRECTD72*%
%ADD73C,1.5000*%
%ADD74C,7.0000*%
%ADD75C,2.0000*%
%ADD76R,2.0000X2.0000*%
%ADD77C,1.3000*%
%ADD78C,1.6000*%
%ADD79R,1.6000X1.6000*%
%ADD80R,1.2000X1.2000*%
%ADD81C,1.2000*%
%ADD82C,0.7000*%
G36*
X548016Y784432D02*
X547880Y783685D01*
X547799Y782957D01*
X547773Y782248D01*
X547802Y781558D01*
X547886Y780887D01*
X548025Y780235D01*
X548219Y779602D01*
X548468Y778988D01*
X548772Y778393D01*
X549131Y777816D01*
X541218Y778271D01*
X541322Y778441D01*
X541445Y778733D01*
X541587Y779148D01*
X542131Y781129D01*
X543128Y785487D01*
X548016Y784432D01*
D02*
G37*
G36*
X548546Y796944D02*
X549205Y797829D01*
X550317Y799562D01*
X550768Y800409D01*
X551150Y801244D01*
X551462Y802065D01*
X551705Y802874D01*
X551879Y803670D01*
X551983Y804453D01*
X552018Y805223D01*
Y788970D01*
X551992Y789546D01*
X551916Y789992D01*
X551789Y790308D01*
X551611Y790496D01*
X551382Y790554D01*
X551102Y790482D01*
X550772Y790282D01*
X550391Y789952D01*
X549958Y789492D01*
X549475Y788904D01*
X548546Y796944D01*
D02*
G37*
G36*
X585000Y946150D02*
X585016Y944883D01*
X585262Y941883D01*
X585409Y941149D01*
X585589Y940549D01*
X585802Y940082D01*
X586048Y939749D01*
X586326Y939549D01*
X586637Y939482D01*
X573363D01*
X573674Y939549D01*
X573952Y939749D01*
X574198Y940082D01*
X574411Y940549D01*
X574591Y941149D01*
X574738Y941883D01*
X574853Y942749D01*
X574984Y944883D01*
X575000Y946150D01*
X585000D01*
D02*
G37*
G36*
X594260Y966550D02*
X593185Y966530D01*
X591249Y966370D01*
X590389Y966230D01*
X589601Y966050D01*
X588885Y965830D01*
X588242Y965570D01*
X587669Y965270D01*
X587169Y964930D01*
X586741Y964550D01*
Y978550D01*
X587169Y978170D01*
X587669Y977830D01*
X588242Y977530D01*
X588885Y977270D01*
X589601Y977050D01*
X590389Y976870D01*
X591249Y976730D01*
X592181Y976630D01*
X594260Y976550D01*
Y966550D01*
D02*
G37*
G36*
X602459Y967106D02*
X602641Y964368D01*
X602163Y964764D01*
X601640Y965067D01*
X601071Y965277D01*
X600457Y965395D01*
X599798Y965421D01*
X599093Y965354D01*
X598344Y965195D01*
X597549Y964943D01*
X596709Y964599D01*
X595823Y964163D01*
X595681Y966522D01*
X594940Y966550D01*
Y976550D01*
X596015Y976570D01*
X597951Y976730D01*
X598811Y976870D01*
X599599Y977050D01*
X600315Y977270D01*
X600959Y977530D01*
X601530Y977830D01*
X602030Y978170D01*
X602459Y978550D01*
Y967106D01*
D02*
G37*
G36*
X1520000Y975000D02*
Y849674D01*
X1518730Y849333D01*
X1518048Y850514D01*
X1516745Y851817D01*
X1515149Y852739D01*
X1513369Y853216D01*
X1511525D01*
X1509745Y852739D01*
X1508149Y851817D01*
X1506846Y850514D01*
X1505924Y848918D01*
X1505447Y847137D01*
Y845294D01*
X1505533Y844974D01*
X1504707Y844015D01*
X1498750D01*
Y857750D01*
X1501750D01*
Y875714D01*
X1492768Y866732D01*
X1490000Y869500D01*
X1487232Y866732D01*
X1478250Y875714D01*
Y857750D01*
X1481250D01*
Y844425D01*
X1477650D01*
X1431753Y890323D01*
Y910250D01*
X1431306Y912494D01*
X1430036Y914396D01*
X1428134Y915666D01*
X1425890Y916113D01*
X1418390D01*
X1416147Y915666D01*
X1414245Y914396D01*
X1412974Y912494D01*
X1412527Y910250D01*
Y887750D01*
X1412974Y885507D01*
X1414245Y883605D01*
X1416147Y882334D01*
X1418390Y881887D01*
X1425890D01*
X1426992Y882107D01*
X1472506Y836593D01*
X1473994Y835598D01*
X1475750Y835249D01*
X1481250D01*
Y831500D01*
X1498750D01*
Y834838D01*
X1506684D01*
X1508440Y835188D01*
X1509928Y836182D01*
X1512962Y839216D01*
X1513369D01*
X1515149Y839693D01*
X1516745Y840614D01*
X1518048Y841918D01*
X1518730Y843098D01*
X1520000Y842758D01*
Y493548D01*
X1491452Y465000D01*
X825000D01*
Y530076D01*
X826270Y530602D01*
X828125Y528747D01*
X830975Y527102D01*
X834154Y526250D01*
X837446D01*
X840625Y527102D01*
X842709Y528305D01*
X834032Y536982D01*
X835800Y538750D01*
X834032Y540518D01*
X842709Y549195D01*
X840625Y550398D01*
X837446Y551250D01*
X834154D01*
X830975Y550398D01*
X828125Y548752D01*
X826270Y546898D01*
X825000Y547424D01*
Y768132D01*
X825429Y768346D01*
X826270Y768472D01*
X827509Y766857D01*
X829337Y765454D01*
X831466Y764573D01*
X833750Y764272D01*
X847250D01*
X849534Y764573D01*
X851447Y765365D01*
X841732Y775080D01*
X843500Y776847D01*
X841732Y778615D01*
X851447Y788330D01*
X849534Y789122D01*
X847250Y789423D01*
X833750D01*
X831466Y789122D01*
X829337Y788241D01*
X827509Y786838D01*
X826270Y785223D01*
X825429Y785349D01*
X825000Y785563D01*
Y1010000D01*
X1485000D01*
X1520000Y975000D01*
D02*
G37*
%LPC*%
G36*
X1031712Y989000D02*
X1028288D01*
X1024982Y988114D01*
X1022725Y986811D01*
X1030000Y979536D01*
X1037275Y986811D01*
X1035018Y988114D01*
X1031712Y989000D01*
D02*
G37*
G36*
X1296094Y990500D02*
X1293906D01*
X1291884Y989663D01*
X1290337Y988115D01*
X1289500Y986094D01*
Y983906D01*
X1290337Y981885D01*
X1291884Y980337D01*
X1293906Y979500D01*
X1296094D01*
X1298116Y980337D01*
X1299663Y981885D01*
X1300500Y983906D01*
Y986094D01*
X1299663Y988115D01*
X1298116Y989663D01*
X1296094Y990500D01*
D02*
G37*
G36*
X941094D02*
X938906D01*
X936885Y989663D01*
X935337Y988115D01*
X934500Y986094D01*
Y983906D01*
X935337Y981885D01*
X936885Y980337D01*
X938906Y979500D01*
X941094D01*
X943115Y980337D01*
X944663Y981885D01*
X945500Y983906D01*
Y986094D01*
X944663Y988115D01*
X943115Y989663D01*
X941094Y990500D01*
D02*
G37*
G36*
X1040811Y983275D02*
X1033536Y976000D01*
X1040811Y968725D01*
X1042114Y970982D01*
X1043000Y974288D01*
Y977711D01*
X1042114Y981018D01*
X1040811Y983275D01*
D02*
G37*
G36*
X1019189Y983275D02*
X1017886Y981018D01*
X1017000Y977711D01*
Y974288D01*
X1017886Y970982D01*
X1019189Y968725D01*
X1026464Y976000D01*
X1019189Y983275D01*
D02*
G37*
G36*
X1316094Y975500D02*
X1313906D01*
X1311884Y974663D01*
X1310337Y973115D01*
X1309500Y971094D01*
Y968906D01*
X1310337Y966885D01*
X1311884Y965337D01*
X1313906Y964500D01*
X1316094D01*
X1318116Y965337D01*
X1319663Y966885D01*
X1320500Y968906D01*
Y971094D01*
X1319663Y973115D01*
X1318116Y974663D01*
X1316094Y975500D01*
D02*
G37*
G36*
X1030000Y972465D02*
X1022725Y965189D01*
X1024982Y963886D01*
X1028288Y963000D01*
X1031712D01*
X1035018Y963886D01*
X1037275Y965189D01*
X1030000Y972465D01*
D02*
G37*
G36*
X1398196Y963752D02*
X1396008D01*
X1393987Y962914D01*
X1392440Y961367D01*
X1391602Y959346D01*
Y957158D01*
X1392440Y955136D01*
X1393987Y953589D01*
X1396008Y952752D01*
X1398196D01*
X1400218Y953589D01*
X1401765Y955136D01*
X1402602Y957158D01*
Y959346D01*
X1401765Y961367D01*
X1400218Y962914D01*
X1398196Y963752D01*
D02*
G37*
G36*
X1348844Y963600D02*
X1346656D01*
X1344635Y962763D01*
X1343087Y961216D01*
X1342250Y959194D01*
Y957006D01*
X1343087Y954985D01*
X1344635Y953437D01*
X1346656Y952600D01*
X1348844D01*
X1350865Y953437D01*
X1352413Y954985D01*
X1353250Y957006D01*
Y959194D01*
X1352413Y961216D01*
X1350865Y962763D01*
X1348844Y963600D01*
D02*
G37*
G36*
X1501094Y960500D02*
X1498906D01*
X1496884Y959663D01*
X1495337Y958115D01*
X1494500Y956094D01*
Y953906D01*
X1495337Y951885D01*
X1496884Y950337D01*
X1498906Y949500D01*
X1501094D01*
X1503116Y950337D01*
X1504663Y951885D01*
X1505500Y953906D01*
Y956094D01*
X1504663Y958115D01*
X1503116Y959663D01*
X1501094Y960500D01*
D02*
G37*
G36*
X1123396Y951358D02*
X1121208D01*
X1119187Y950520D01*
X1117640Y948973D01*
X1116802Y946952D01*
Y944764D01*
X1117640Y942742D01*
X1119187Y941195D01*
X1121208Y940358D01*
X1123396D01*
X1125418Y941195D01*
X1126965Y942742D01*
X1127802Y944764D01*
Y946952D01*
X1126965Y948973D01*
X1125418Y950520D01*
X1123396Y951358D01*
D02*
G37*
G36*
X1213094Y950900D02*
X1210906D01*
X1208885Y950063D01*
X1208810Y949988D01*
X1148215D01*
X1146459Y949639D01*
X1144971Y948644D01*
X1121736Y925409D01*
X1121631D01*
X1119609Y924572D01*
X1118062Y923025D01*
X1117225Y921003D01*
Y918815D01*
X1118062Y916794D01*
X1119609Y915247D01*
X1121631Y914409D01*
X1123819D01*
X1125840Y915247D01*
X1127387Y916794D01*
X1128225Y918815D01*
Y918921D01*
X1150116Y940812D01*
X1208810D01*
X1208885Y940737D01*
X1210906Y939900D01*
X1213094D01*
X1215116Y940737D01*
X1216663Y942284D01*
X1217500Y944306D01*
Y946494D01*
X1216663Y948515D01*
X1215116Y950063D01*
X1213094Y950900D01*
D02*
G37*
G36*
X1398750Y999613D02*
X1371250D01*
X1369007Y999166D01*
X1367104Y997896D01*
X1365834Y995993D01*
X1365387Y993750D01*
Y986250D01*
X1365834Y984007D01*
X1367104Y982104D01*
X1369007Y980834D01*
X1371250Y980387D01*
X1398124D01*
X1404685Y973827D01*
X1406173Y972832D01*
X1407929Y972483D01*
X1410413D01*
Y940125D01*
X1410761Y937482D01*
X1411781Y935019D01*
X1413404Y932904D01*
X1415519Y931281D01*
X1417982Y930261D01*
X1420625Y929913D01*
X1469375D01*
X1472018Y930261D01*
X1474481Y931281D01*
X1476596Y932904D01*
X1478219Y935019D01*
X1479239Y937482D01*
X1479587Y940125D01*
Y960412D01*
X1480000D01*
X1481756Y960761D01*
X1483244Y961756D01*
X1489489Y968000D01*
X1490922D01*
X1492702Y968477D01*
X1494298Y969399D01*
X1495601Y970702D01*
X1496523Y972298D01*
X1497000Y974078D01*
Y975922D01*
X1496523Y977702D01*
X1495601Y979298D01*
X1494298Y980601D01*
X1492702Y981523D01*
X1490922Y982000D01*
X1489078D01*
X1487298Y981523D01*
X1485702Y980601D01*
X1484399Y979298D01*
X1483477Y977702D01*
X1483000Y975922D01*
Y974489D01*
X1480761Y972249D01*
X1479587Y972735D01*
Y988875D01*
X1479239Y991518D01*
X1478219Y993981D01*
X1476596Y996096D01*
X1474481Y997719D01*
X1472018Y998739D01*
X1469375Y999087D01*
X1420625D01*
X1417982Y998739D01*
X1415519Y997719D01*
X1413404Y996096D01*
X1411781Y993981D01*
X1410761Y991518D01*
X1410413Y988875D01*
Y982872D01*
X1409143Y982346D01*
X1404613Y986876D01*
Y993750D01*
X1404166Y995993D01*
X1402896Y997896D01*
X1400993Y999166D01*
X1398750Y999613D01*
D02*
G37*
G36*
X971094Y940500D02*
X968906D01*
X966885Y939663D01*
X965337Y938115D01*
X964500Y936094D01*
Y933906D01*
X965337Y931885D01*
X966885Y930337D01*
X968906Y929500D01*
X971094D01*
X973115Y930337D01*
X974663Y931885D01*
X975500Y933906D01*
Y936094D01*
X974663Y938115D01*
X973115Y939663D01*
X971094Y940500D01*
D02*
G37*
G36*
X1056985Y935847D02*
X1054797D01*
X1052775Y935009D01*
X1051228Y933462D01*
X1050391Y931441D01*
Y929253D01*
X1051228Y927231D01*
X1052775Y925684D01*
X1054797Y924847D01*
X1056985D01*
X1059006Y925684D01*
X1060553Y927231D01*
X1061391Y929253D01*
Y931441D01*
X1060553Y933462D01*
X1059006Y935009D01*
X1056985Y935847D01*
D02*
G37*
G36*
X1285316Y935000D02*
X1282684D01*
X1280140Y934318D01*
X1277860Y933002D01*
X1275998Y931140D01*
X1274681Y928860D01*
X1274000Y926317D01*
Y923683D01*
X1274681Y921140D01*
X1275998Y918860D01*
X1277860Y916998D01*
X1280140Y915682D01*
X1282684Y915000D01*
X1285316D01*
X1287860Y915682D01*
X1290140Y916998D01*
X1292002Y918860D01*
X1293318Y921140D01*
X1294000Y923683D01*
Y926317D01*
X1293318Y928860D01*
X1292002Y931140D01*
X1290140Y933002D01*
X1287860Y934318D01*
X1285316Y935000D01*
D02*
G37*
G36*
X1349029Y925665D02*
X1346841D01*
X1344819Y924828D01*
X1343272Y923281D01*
X1342435Y921259D01*
Y919071D01*
X1343272Y917050D01*
X1344819Y915502D01*
X1346841Y914665D01*
X1349029D01*
X1351050Y915502D01*
X1352597Y917050D01*
X1353435Y919071D01*
Y921259D01*
X1352597Y923281D01*
X1351050Y924828D01*
X1349029Y925665D01*
D02*
G37*
G36*
X1471610Y919075D02*
X1464110D01*
X1461826Y918775D01*
X1459913Y917982D01*
X1467860Y910035D01*
X1475807Y917982D01*
X1473894Y918775D01*
X1471610Y919075D01*
D02*
G37*
G36*
X1401094Y950500D02*
X1398906D01*
X1396884Y949663D01*
X1395337Y948115D01*
X1394500Y946094D01*
Y943906D01*
X1395337Y941885D01*
X1396339Y940883D01*
X1395813Y939613D01*
X1371250D01*
X1369007Y939166D01*
X1367104Y937896D01*
X1365834Y935993D01*
X1365387Y933750D01*
Y926250D01*
X1365834Y924007D01*
X1366840Y922500D01*
X1365834Y920993D01*
X1365387Y918750D01*
Y911250D01*
X1365834Y909007D01*
X1367104Y907104D01*
X1369007Y905834D01*
X1371250Y905387D01*
X1398750D01*
X1400993Y905834D01*
X1402896Y907104D01*
X1404166Y909007D01*
X1404613Y911250D01*
Y918750D01*
X1404166Y920993D01*
X1403160Y922500D01*
X1404166Y924007D01*
X1404613Y926250D01*
Y933750D01*
X1404166Y935993D01*
X1402896Y937896D01*
X1401994Y938498D01*
X1402135Y939931D01*
X1403116Y940337D01*
X1404663Y941885D01*
X1405500Y943906D01*
Y946094D01*
X1404663Y948115D01*
X1403116Y949663D01*
X1401094Y950500D01*
D02*
G37*
G36*
X1479342Y914447D02*
X1469628Y904732D01*
X1467860Y906500D01*
X1466092Y904732D01*
X1456378Y914447D01*
X1455585Y912534D01*
X1455284Y910250D01*
Y887750D01*
X1455585Y885466D01*
X1456378Y883553D01*
X1466092Y893268D01*
X1467860Y891500D01*
X1469628Y893268D01*
X1479342Y883553D01*
X1480135Y885466D01*
X1480435Y887750D01*
Y910250D01*
X1480135Y912534D01*
X1479342Y914447D01*
D02*
G37*
G36*
X1225000Y969588D02*
X1115351D01*
X1113595Y969239D01*
X1112106Y968244D01*
X1069528Y925666D01*
X1069423D01*
X1067401Y924829D01*
X1065854Y923281D01*
X1065016Y921260D01*
Y919072D01*
X1065854Y917050D01*
X1067401Y915503D01*
X1069423Y914666D01*
X1071610D01*
X1073632Y915503D01*
X1075179Y917050D01*
X1076016Y919072D01*
Y919177D01*
X1117251Y960412D01*
X1223100D01*
X1230412Y953100D01*
Y931718D01*
X1212226Y913533D01*
X1212121D01*
X1210099Y912695D01*
X1208552Y911148D01*
X1207715Y909127D01*
Y906939D01*
X1208552Y904917D01*
X1210099Y903370D01*
X1212121Y902533D01*
X1214309D01*
X1216330Y903370D01*
X1217878Y904917D01*
X1218715Y906939D01*
Y907044D01*
X1238244Y926573D01*
X1239239Y928062D01*
X1239588Y929818D01*
Y955000D01*
X1239239Y956756D01*
X1238244Y958244D01*
X1228244Y968244D01*
X1226756Y969239D01*
X1225000Y969588D01*
D02*
G37*
G36*
X957963Y908147D02*
X955775D01*
X953753Y907310D01*
X952206Y905763D01*
X951369Y903741D01*
Y901553D01*
X952206Y899532D01*
X953753Y897985D01*
X955775Y897147D01*
X957963D01*
X959984Y897985D01*
X961531Y899532D01*
X962369Y901553D01*
Y903741D01*
X961531Y905763D01*
X959984Y907310D01*
X957963Y908147D01*
D02*
G37*
G36*
X1121094Y900500D02*
X1118906D01*
X1116885Y899663D01*
X1115337Y898115D01*
X1114500Y896094D01*
Y893906D01*
X1115337Y891885D01*
X1116885Y890337D01*
X1118906Y889500D01*
X1121094D01*
X1123115Y890337D01*
X1124663Y891885D01*
X1125500Y893906D01*
Y896094D01*
X1124663Y898115D01*
X1123115Y899663D01*
X1121094Y900500D01*
D02*
G37*
G36*
X1467860Y887964D02*
X1459913Y880017D01*
X1461826Y879225D01*
X1464110Y878924D01*
X1471610D01*
X1473894Y879225D01*
X1475807Y880017D01*
X1467860Y887964D01*
D02*
G37*
G36*
X1498215Y879250D02*
X1481786D01*
X1490000Y871036D01*
X1498215Y879250D01*
D02*
G37*
G36*
X1031317Y884000D02*
X1028683D01*
X1026140Y883318D01*
X1023860Y882002D01*
X1021998Y880140D01*
X1020682Y877860D01*
X1020000Y875316D01*
Y872683D01*
X1020682Y870140D01*
X1021998Y867860D01*
X1023860Y865998D01*
X1026140Y864681D01*
X1028683Y864000D01*
X1031317D01*
X1033860Y864681D01*
X1036140Y865998D01*
X1038002Y867860D01*
X1039318Y870140D01*
X1040000Y872683D01*
Y875316D01*
X1039318Y877860D01*
X1038002Y880140D01*
X1036140Y882002D01*
X1033860Y883318D01*
X1031317Y884000D01*
D02*
G37*
G36*
X1351094Y859500D02*
X1348906D01*
X1346884Y858663D01*
X1345337Y857115D01*
X1344500Y855094D01*
Y852906D01*
X1345337Y850884D01*
X1346884Y849337D01*
X1348906Y848500D01*
X1351094D01*
X1353116Y849337D01*
X1354663Y850884D01*
X1355500Y852906D01*
Y855094D01*
X1354663Y857115D01*
X1353116Y858663D01*
X1351094Y859500D01*
D02*
G37*
G36*
X1201094Y935500D02*
X1198906D01*
X1196885Y934663D01*
X1195337Y933115D01*
X1194500Y931094D01*
Y930989D01*
X1186756Y923244D01*
X1185761Y921756D01*
X1185412Y920000D01*
Y880000D01*
X1185761Y878244D01*
X1186756Y876756D01*
X1224612Y838899D01*
X1226101Y837904D01*
X1227857Y837555D01*
X1245300D01*
X1245374Y837481D01*
X1247395Y836643D01*
X1249584D01*
X1251605Y837481D01*
X1253152Y839028D01*
X1253989Y841049D01*
Y843237D01*
X1253152Y845259D01*
X1251605Y846806D01*
X1249584Y847643D01*
X1247395D01*
X1245374Y846806D01*
X1245300Y846731D01*
X1229757D01*
X1194588Y881900D01*
Y918100D01*
X1200989Y924500D01*
X1201094D01*
X1203115Y925337D01*
X1204663Y926885D01*
X1205500Y928906D01*
Y931094D01*
X1204663Y933115D01*
X1203115Y934663D01*
X1201094Y935500D01*
D02*
G37*
G36*
X847250Y837260D02*
X833750D01*
X831507Y836814D01*
X829604Y835543D01*
X828334Y833641D01*
X827887Y831397D01*
Y823897D01*
X828334Y821654D01*
X829604Y819752D01*
X831507Y818481D01*
X833750Y818035D01*
X847250D01*
X849493Y818481D01*
X851395Y819752D01*
X852666Y821654D01*
X853113Y823897D01*
Y831397D01*
X852666Y833641D01*
X851395Y835543D01*
X849493Y836814D01*
X847250Y837260D01*
D02*
G37*
G36*
X1245217Y821682D02*
X1239035Y815500D01*
X1245217Y809318D01*
X1245800Y810727D01*
X1246067Y812750D01*
Y818250D01*
X1245800Y820273D01*
X1245217Y821682D01*
D02*
G37*
G36*
X1398750Y864613D02*
X1371250D01*
X1369007Y864166D01*
X1367104Y862896D01*
X1365834Y860993D01*
X1365387Y858750D01*
Y851250D01*
X1365396Y851208D01*
X1362712Y848524D01*
X1361718Y847036D01*
X1361369Y845280D01*
Y840986D01*
X1360702Y840601D01*
X1359399Y839298D01*
X1358477Y837702D01*
X1358000Y835922D01*
Y834078D01*
X1358477Y832298D01*
X1359399Y830702D01*
X1360702Y829399D01*
X1362298Y828477D01*
X1364078Y828000D01*
X1365922D01*
X1367702Y828477D01*
X1369298Y829399D01*
X1370601Y830702D01*
X1371523Y832298D01*
X1372000Y834078D01*
Y835922D01*
X1371523Y837702D01*
X1370601Y839298D01*
X1370545Y839355D01*
Y843380D01*
X1372552Y845387D01*
X1398750D01*
X1400993Y845834D01*
X1402896Y847104D01*
X1404166Y849007D01*
X1404446Y850412D01*
X1438100D01*
X1465412Y823100D01*
Y808666D01*
X1464142Y808566D01*
X1464015Y809367D01*
X1462070Y815355D01*
X1459211Y820965D01*
X1455510Y826058D01*
X1455052Y826516D01*
X1428535Y800000D01*
X1455052Y773484D01*
X1455510Y773942D01*
X1459211Y779035D01*
X1462070Y784645D01*
X1464015Y790633D01*
X1464142Y791434D01*
X1465412Y791334D01*
Y699506D01*
X1464142Y699166D01*
X1463615Y700079D01*
X1456768Y693232D01*
X1449921Y686385D01*
X1451140Y685682D01*
X1451285Y685643D01*
X1451614Y684416D01*
X1442923Y675726D01*
X1441750Y676212D01*
Y700464D01*
X1428518Y687232D01*
X1424982Y690768D01*
X1438215Y704000D01*
X1417793D01*
X1416956Y704955D01*
X1417060Y705750D01*
Y750000D01*
X1416820Y751827D01*
X1416115Y753530D01*
X1414992Y754992D01*
X1407233Y762752D01*
X1407979Y763779D01*
X1409645Y762931D01*
X1415633Y760985D01*
X1421852Y760000D01*
X1428148D01*
X1434367Y760985D01*
X1440355Y762931D01*
X1445965Y765789D01*
X1451058Y769490D01*
X1451517Y769948D01*
X1423232Y798232D01*
X1394948Y826516D01*
X1394490Y826058D01*
X1390789Y820965D01*
X1387930Y815355D01*
X1385985Y809367D01*
X1385000Y803148D01*
Y796852D01*
X1385985Y790633D01*
X1387930Y784645D01*
X1390789Y779035D01*
X1394490Y773942D01*
X1395172Y773259D01*
X1394575Y772060D01*
X1357924D01*
X1349992Y779993D01*
X1348530Y781115D01*
X1346827Y781820D01*
X1345000Y782060D01*
X1311196D01*
X1309454Y783802D01*
X1306946Y785250D01*
X1304148Y786000D01*
X1301252D01*
X1298454Y785250D01*
X1295946Y783802D01*
X1293898Y781754D01*
X1292450Y779246D01*
X1291700Y776448D01*
Y773552D01*
X1292450Y770754D01*
X1293898Y768246D01*
X1295946Y766198D01*
X1298454Y764750D01*
X1301252Y764000D01*
X1304148D01*
X1306946Y764750D01*
X1309454Y766198D01*
X1311196Y767940D01*
X1342076D01*
X1350008Y760007D01*
X1351470Y758885D01*
X1353173Y758180D01*
X1355000Y757940D01*
X1392076D01*
X1394842Y755173D01*
X1394356Y754000D01*
X1375285D01*
X1388518Y740768D01*
X1384982Y737232D01*
X1371750Y750464D01*
Y719536D01*
X1384982Y732768D01*
X1388518Y729232D01*
X1375286Y716000D01*
X1401750D01*
Y716000D01*
X1402940Y715806D01*
Y708674D01*
X1395265Y701000D01*
X1391235D01*
X1388010Y704225D01*
X1386547Y705347D01*
X1384845Y706053D01*
X1383017Y706293D01*
X1372483D01*
X1370656Y706053D01*
X1368953Y705347D01*
X1367490Y704225D01*
X1360865Y697600D01*
X1359135D01*
X1351742Y704992D01*
X1350280Y706115D01*
X1348577Y706820D01*
X1346750Y707060D01*
X1330000D01*
X1328173Y706820D01*
X1326470Y706115D01*
X1325008Y704992D01*
X1318515Y698500D01*
X1307000D01*
Y681500D01*
X1333000D01*
Y692940D01*
X1343826D01*
X1349150Y687616D01*
Y686125D01*
X1349547Y684125D01*
X1350680Y682430D01*
X1352375Y681297D01*
X1354375Y680900D01*
X1365625D01*
X1367625Y681297D01*
X1369320Y682430D01*
X1370453Y684125D01*
X1370850Y686125D01*
Y687616D01*
X1375407Y692172D01*
X1380093D01*
X1381250Y691015D01*
Y669000D01*
X1398761D01*
X1415049Y652712D01*
X1416537Y651718D01*
X1418293Y651368D01*
X1424014D01*
X1424399Y650702D01*
X1425702Y649399D01*
X1427298Y648477D01*
X1429078Y648000D01*
X1430922D01*
X1432702Y648477D01*
X1434298Y649399D01*
X1435601Y650702D01*
X1436142Y651638D01*
X1437412Y651298D01*
Y615465D01*
X1423220Y601274D01*
X1421804Y601654D01*
X1421523Y602702D01*
X1420601Y604298D01*
X1419298Y605601D01*
X1417702Y606523D01*
X1415922Y607000D01*
X1414078D01*
X1413335Y606801D01*
X1409744Y610391D01*
X1408256Y611386D01*
X1406500Y611735D01*
X1400141D01*
X1398802Y614054D01*
X1396754Y616102D01*
X1394246Y617550D01*
X1391448Y618300D01*
X1388552D01*
X1385754Y617550D01*
X1383246Y616102D01*
X1381198Y614054D01*
X1379750Y611546D01*
X1379218Y609560D01*
X1355849D01*
X1355603Y609724D01*
X1353750Y610093D01*
X1346250D01*
X1344397Y609724D01*
X1342825Y608675D01*
X1341776Y607103D01*
X1341407Y605250D01*
Y604892D01*
X1329576Y593060D01*
X1313394D01*
X1313300Y593773D01*
X1312520Y595658D01*
X1311277Y597277D01*
X1309658Y598520D01*
X1307773Y599301D01*
X1305750Y599567D01*
X1284250D01*
X1282227Y599301D01*
X1280342Y598520D01*
X1278723Y597277D01*
X1277480Y595658D01*
X1276700Y593773D01*
X1276484Y592138D01*
X1270078D01*
X1268250Y591897D01*
X1266547Y591192D01*
X1265085Y590070D01*
X1236923Y561908D01*
X1236580Y562000D01*
X1233420D01*
X1230368Y561182D01*
X1227632Y559602D01*
X1225398Y557368D01*
X1223818Y554632D01*
X1223157Y552167D01*
X1221843D01*
X1221182Y554632D01*
X1219602Y557368D01*
X1217368Y559602D01*
X1214632Y561182D01*
X1211580Y562000D01*
X1208420D01*
X1205368Y561182D01*
X1202632Y559602D01*
X1200398Y557368D01*
X1198818Y554632D01*
X1198157Y552167D01*
X1196843D01*
X1196182Y554632D01*
X1194602Y557368D01*
X1192368Y559602D01*
X1189632Y561182D01*
X1189588Y561194D01*
Y593100D01*
X1196989Y600500D01*
X1229500D01*
Y619500D01*
X1190500D01*
Y606989D01*
X1181756Y598244D01*
X1180761Y596756D01*
X1180412Y595000D01*
Y561194D01*
X1180368Y561182D01*
X1177632Y559602D01*
X1175398Y557368D01*
X1173818Y554632D01*
X1173157Y552167D01*
X1171843D01*
X1171182Y554632D01*
X1169602Y557368D01*
X1167368Y559602D01*
X1164632Y561182D01*
X1164588Y561194D01*
Y587500D01*
X1164239Y589256D01*
X1163750Y589987D01*
Y599250D01*
X1146250D01*
Y583750D01*
X1155412D01*
Y569410D01*
X1154142Y569184D01*
X1152719Y570607D01*
X1150781Y571726D01*
X1148619Y572305D01*
X1146381D01*
X1144219Y571726D01*
X1142281Y570607D01*
X1140858Y569184D01*
X1139588Y569410D01*
Y585833D01*
X1139239Y587589D01*
X1138244Y589078D01*
X1137083Y590239D01*
Y599250D01*
X1119583D01*
Y583750D01*
X1130412D01*
Y561194D01*
X1130368Y561182D01*
X1127632Y559602D01*
X1125398Y557368D01*
X1123818Y554632D01*
X1123157Y552167D01*
X1121843D01*
X1121182Y554632D01*
X1119602Y557368D01*
X1117368Y559602D01*
X1114632Y561182D01*
X1114588Y561194D01*
Y584167D01*
X1114239Y585923D01*
X1113244Y587411D01*
X1110417Y590239D01*
Y599250D01*
X1092917D01*
Y583750D01*
X1103928D01*
X1105412Y582266D01*
Y561194D01*
X1105368Y561182D01*
X1102632Y559602D01*
X1100398Y557368D01*
X1098818Y554632D01*
X1098157Y552167D01*
X1096843D01*
X1096182Y554632D01*
X1094602Y557368D01*
X1092368Y559602D01*
X1089632Y561182D01*
X1089588Y561194D01*
Y582500D01*
X1089239Y584256D01*
X1088244Y585744D01*
X1083750Y590239D01*
Y599250D01*
X1066250D01*
Y590239D01*
X1055600Y579588D01*
X1046000D01*
X1044244Y579239D01*
X1042756Y578244D01*
X1025582Y561071D01*
X1023375D01*
X1021961Y560790D01*
X1020761Y559989D01*
X1019960Y558789D01*
X1019679Y557375D01*
Y550625D01*
X1019960Y549211D01*
X1020761Y548012D01*
X1021961Y547210D01*
X1023375Y546929D01*
X1026625D01*
X1028039Y547210D01*
X1029239Y548012D01*
X1030040Y549211D01*
X1030097Y549500D01*
X1031094D01*
X1033115Y550337D01*
X1034663Y551884D01*
X1035500Y553906D01*
Y556094D01*
X1034938Y557450D01*
X1047900Y570412D01*
X1057500D01*
X1059256Y570761D01*
X1060744Y571756D01*
X1072739Y583750D01*
X1077261D01*
X1080412Y580600D01*
Y561194D01*
X1080368Y561182D01*
X1077632Y559602D01*
X1075398Y557368D01*
X1073818Y554632D01*
X1073270Y552588D01*
X1072000Y552755D01*
Y562000D01*
X1048000D01*
Y538000D01*
X1057245D01*
X1057412Y536730D01*
X1055368Y536182D01*
X1052632Y534602D01*
X1050398Y532368D01*
X1048818Y529632D01*
X1048000Y526580D01*
Y523420D01*
X1048818Y520368D01*
X1050398Y517632D01*
X1052632Y515398D01*
X1055368Y513818D01*
X1058420Y513000D01*
X1061580D01*
X1064632Y513818D01*
X1067368Y515398D01*
X1069602Y517632D01*
X1071182Y520368D01*
X1071843Y522833D01*
X1073157D01*
X1073818Y520368D01*
X1075398Y517632D01*
X1077632Y515398D01*
X1080368Y513818D01*
X1083420Y513000D01*
X1086580D01*
X1089632Y513818D01*
X1092368Y515398D01*
X1094602Y517632D01*
X1096182Y520368D01*
X1096843Y522833D01*
X1098157D01*
X1098818Y520368D01*
X1100398Y517632D01*
X1102632Y515398D01*
X1105368Y513818D01*
X1108420Y513000D01*
X1111580D01*
X1114632Y513818D01*
X1117368Y515398D01*
X1119602Y517632D01*
X1121182Y520368D01*
X1121843Y522833D01*
X1123157D01*
X1123818Y520368D01*
X1125398Y517632D01*
X1127632Y515398D01*
X1130368Y513818D01*
X1133420Y513000D01*
X1136580D01*
X1139632Y513818D01*
X1142368Y515398D01*
X1144602Y517632D01*
X1146182Y520368D01*
X1146843Y522833D01*
X1148157D01*
X1148818Y520368D01*
X1150398Y517632D01*
X1152632Y515398D01*
X1155368Y513818D01*
X1158420Y513000D01*
X1161580D01*
X1164632Y513818D01*
X1167368Y515398D01*
X1169602Y517632D01*
X1171182Y520368D01*
X1171843Y522833D01*
X1173157D01*
X1173818Y520368D01*
X1175398Y517632D01*
X1177632Y515398D01*
X1180368Y513818D01*
X1183420Y513000D01*
X1186580D01*
X1189632Y513818D01*
X1191764Y515049D01*
X1192544Y514033D01*
X1168100Y489588D01*
X1041900D01*
X989588Y541900D01*
Y590000D01*
Y610000D01*
X989239Y611756D01*
X988244Y613244D01*
X970094Y631394D01*
X968606Y632389D01*
X966850Y632738D01*
X965926D01*
X964866Y633447D01*
X963500Y633719D01*
X957348D01*
X957250Y633738D01*
X952750D01*
X951378Y635110D01*
X951996Y636274D01*
X952003Y636281D01*
X963500D01*
X964866Y636553D01*
X965178Y636762D01*
X986749D01*
X998106Y625406D01*
X999594Y624411D01*
X1001350Y624062D01*
X1004822D01*
X1005134Y623853D01*
X1006500Y623581D01*
X1018000D01*
X1019366Y623853D01*
X1019678Y624062D01*
X1024449D01*
X1028000Y620511D01*
Y619078D01*
X1028477Y617298D01*
X1029399Y615702D01*
X1030702Y614399D01*
X1032298Y613477D01*
X1034078Y613000D01*
X1035922D01*
X1037702Y613477D01*
X1039298Y614399D01*
X1040601Y615702D01*
X1041523Y617298D01*
X1042000Y619078D01*
Y620922D01*
X1041523Y622702D01*
X1040601Y624298D01*
X1039298Y625601D01*
X1037702Y626523D01*
X1035922Y627000D01*
X1034489D01*
X1030614Y630875D01*
X1042739Y643000D01*
X1053750D01*
Y648088D01*
X1056180D01*
X1057936Y648437D01*
X1059425Y649432D01*
X1062077Y652084D01*
X1063250Y651598D01*
Y634250D01*
X1066250D01*
Y625604D01*
X1066094Y625500D01*
X1063906D01*
X1061885Y624663D01*
X1060337Y623116D01*
X1059500Y621094D01*
Y618906D01*
X1060337Y616884D01*
X1061885Y615337D01*
X1063906Y614500D01*
X1064011D01*
X1066250Y612261D01*
Y610545D01*
X1064355D01*
X1064298Y610601D01*
X1062702Y611523D01*
X1060922Y612000D01*
X1059078D01*
X1057298Y611523D01*
X1055702Y610601D01*
X1054399Y609298D01*
X1053477Y607702D01*
X1053000Y605922D01*
Y604078D01*
X1053477Y602298D01*
X1054399Y600702D01*
X1055702Y599399D01*
X1057298Y598477D01*
X1059078Y598000D01*
X1060922D01*
X1062702Y598477D01*
X1064298Y599399D01*
X1065601Y600702D01*
X1065986Y601368D01*
X1069957D01*
X1071712Y601718D01*
X1072509Y602250D01*
X1083750D01*
Y617398D01*
X1085020Y617651D01*
X1085337Y616884D01*
X1086885Y615337D01*
X1088906Y614500D01*
X1089678D01*
X1092917Y611261D01*
Y602250D01*
X1110417D01*
Y615146D01*
X1111590Y615632D01*
X1111885Y615337D01*
X1113906Y614500D01*
X1116094D01*
X1116271Y614573D01*
X1119583Y611261D01*
Y602250D01*
X1137083D01*
Y617750D01*
X1137083D01*
Y618750D01*
X1137083D01*
Y634250D01*
X1140083D01*
Y652214D01*
X1131101Y643232D01*
X1128333Y646000D01*
X1125566Y643232D01*
X1116583Y652214D01*
Y634250D01*
X1119583D01*
Y625129D01*
X1119447Y624934D01*
X1118313Y624465D01*
X1118115Y624663D01*
X1116094Y625500D01*
X1113906D01*
X1111885Y624663D01*
X1111590Y624368D01*
X1110417Y624854D01*
Y634250D01*
X1113417D01*
Y652214D01*
X1104435Y643232D01*
X1101667Y646000D01*
X1098899Y643232D01*
X1089917Y652214D01*
Y634250D01*
X1092917D01*
Y625888D01*
X1091861Y625182D01*
X1091094Y625500D01*
X1088906D01*
X1086885Y624663D01*
X1085337Y623116D01*
X1085020Y622349D01*
X1083750Y622602D01*
Y634250D01*
X1086750D01*
Y652215D01*
X1077768Y643232D01*
X1074232Y646768D01*
X1083214Y655750D01*
X1067402D01*
X1066916Y656923D01*
X1081487Y671494D01*
X1081984Y672238D01*
X1090742D01*
Y685238D01*
X1073743D01*
Y677182D01*
X1073654Y676738D01*
Y676639D01*
X1055020Y658005D01*
X1053750Y658500D01*
Y658500D01*
X1041398D01*
X1040912Y659673D01*
X1042739Y661500D01*
X1053750D01*
Y673000D01*
Y682261D01*
X1058954Y687465D01*
X1060200Y687217D01*
X1060337Y686885D01*
X1061885Y685337D01*
X1063906Y684500D01*
X1066094D01*
X1068115Y685337D01*
X1069663Y686885D01*
X1070500Y688906D01*
Y691069D01*
X1070507Y691103D01*
X1071401Y692238D01*
X1090207D01*
X1082475Y699971D01*
X1084243Y701739D01*
X1082475Y703506D01*
X1090207Y711238D01*
X1070743D01*
Y710953D01*
X1069473Y710427D01*
X1069298Y710601D01*
X1067702Y711523D01*
X1065922Y712000D01*
X1064078D01*
X1062298Y711523D01*
X1060702Y710601D01*
X1060475Y710375D01*
X1059205Y710901D01*
Y714027D01*
X1059663Y714484D01*
X1060500Y716506D01*
Y718694D01*
X1059663Y720715D01*
X1058115Y722263D01*
X1056094Y723100D01*
X1055529D01*
X1054681Y724370D01*
X1055135Y725466D01*
X1055435Y727750D01*
Y750250D01*
X1055135Y752534D01*
X1054342Y754447D01*
X1044628Y744732D01*
X1042860Y746500D01*
X1041092Y744732D01*
X1031377Y754447D01*
X1030585Y752534D01*
X1030285Y750250D01*
Y727750D01*
X1030585Y725466D01*
X1031377Y723553D01*
X1041092Y733268D01*
X1044628Y729732D01*
X1034913Y720017D01*
X1036826Y719225D01*
X1039110Y718924D01*
X1046610D01*
X1048327Y719150D01*
X1048529Y719072D01*
X1049379Y718326D01*
X1049500Y718102D01*
Y716506D01*
X1050029Y715229D01*
Y711518D01*
X1046006Y707494D01*
X1045675Y707000D01*
X1036250D01*
Y697989D01*
X1027673Y689412D01*
X1026500Y689898D01*
Y700464D01*
X1018768Y692732D01*
X1015232Y696268D01*
X1022964Y704000D01*
X992036D01*
X999768Y696268D01*
X998000Y694500D01*
X999768Y692732D01*
X992036Y685000D01*
X1021020D01*
X1021209Y684768D01*
X1021215Y683244D01*
X1020058Y682088D01*
X1019000D01*
X1018557Y682000D01*
X991500D01*
Y669000D01*
X995412D01*
Y662050D01*
X995761Y660294D01*
X996756Y658806D01*
X1002931Y652630D01*
Y652550D01*
X1003203Y651184D01*
X1003977Y650027D01*
X1005134Y649253D01*
X1006500Y648981D01*
X1015583D01*
X1016069Y647808D01*
X1014680Y646419D01*
X1006500D01*
X1005134Y646147D01*
X1003977Y645373D01*
X1003203Y644216D01*
X1002931Y642850D01*
Y639850D01*
X1003203Y638484D01*
X1003977Y637327D01*
X1005134Y636553D01*
X1006500Y636281D01*
X1018000D01*
X1019366Y636553D01*
X1020523Y637327D01*
X1021297Y638484D01*
X1021569Y639850D01*
Y640330D01*
X1035077Y653838D01*
X1036250Y653352D01*
Y649489D01*
X1020499Y633738D01*
X1012750D01*
X1012652Y633719D01*
X1006500D01*
X1005134Y633447D01*
X1004822Y633238D01*
X1003251D01*
X991894Y644594D01*
X990406Y645589D01*
X988650Y645938D01*
X967647D01*
X967216Y647208D01*
X968136Y647914D01*
X969178Y649272D01*
X969833Y650853D01*
X970056Y652550D01*
Y655550D01*
X969833Y657247D01*
X969510Y658025D01*
X963768Y652282D01*
X960232Y655818D01*
X965975Y661560D01*
X965197Y661883D01*
X963500Y662106D01*
X952000D01*
X951675Y662063D01*
X950413Y663053D01*
X950339Y663850D01*
X958244Y671756D01*
X959239Y673244D01*
X959588Y675000D01*
Y699849D01*
X967739Y708000D01*
X978750D01*
Y723500D01*
X961250D01*
Y714489D01*
X951756Y704994D01*
X950761Y703506D01*
X950412Y701750D01*
Y676900D01*
X941756Y668244D01*
X940761Y666756D01*
X940412Y665000D01*
Y638370D01*
X939142Y637701D01*
X938838Y637909D01*
Y679679D01*
X938875D01*
X940289Y679960D01*
X941488Y680761D01*
X942290Y681961D01*
X942571Y683375D01*
Y686625D01*
X942290Y688039D01*
X941488Y689239D01*
X940289Y690040D01*
X938875Y690321D01*
X932418D01*
X929588Y693150D01*
Y703000D01*
X933750D01*
Y718500D01*
X921153D01*
X920768Y719770D01*
X921494Y720256D01*
X922739Y721500D01*
X933750D01*
Y737000D01*
X922739D01*
X920500Y739239D01*
Y741094D01*
X919663Y743115D01*
X918115Y744663D01*
X916094Y745500D01*
X913906D01*
X911885Y744663D01*
X910337Y743115D01*
X909500Y741094D01*
Y738906D01*
X910337Y736885D01*
X911211Y736011D01*
X912138Y734623D01*
X913774Y732987D01*
X913774Y732495D01*
X912531Y731250D01*
X896250D01*
Y718127D01*
X894980Y717454D01*
X894588Y717721D01*
Y734689D01*
X895601Y735702D01*
X896523Y737298D01*
X897000Y739078D01*
Y740922D01*
X896523Y742702D01*
X895601Y744298D01*
X894588Y745311D01*
Y770748D01*
X894499Y771196D01*
X895497Y772638D01*
X895750Y772681D01*
X898942Y769490D01*
X904035Y765789D01*
X909645Y762931D01*
X915633Y760985D01*
X921852Y760000D01*
X928148D01*
X934367Y760985D01*
X940355Y762931D01*
X945965Y765789D01*
X951058Y769490D01*
X951516Y769948D01*
X923232Y798232D01*
X894948Y826516D01*
X894490Y826058D01*
X890789Y820965D01*
X887931Y815355D01*
X885985Y809367D01*
X885000Y803148D01*
Y796852D01*
X885985Y790633D01*
X887931Y784645D01*
X890789Y779035D01*
X892894Y776138D01*
X891925Y775311D01*
X861744Y805492D01*
X860256Y806486D01*
X858500Y806836D01*
X852946D01*
X852666Y808241D01*
X851395Y810143D01*
X849493Y811414D01*
X847250Y811860D01*
X833750D01*
X831507Y811414D01*
X829604Y810143D01*
X828334Y808241D01*
X827887Y805997D01*
Y798497D01*
X828334Y796254D01*
X829604Y794352D01*
X831507Y793081D01*
X833750Y792635D01*
X847250D01*
X849493Y793081D01*
X851395Y794352D01*
X852666Y796254D01*
X852946Y797659D01*
X856600D01*
X885412Y768847D01*
Y745311D01*
X884399Y744298D01*
X883477Y742702D01*
X883000Y740922D01*
Y739078D01*
X883477Y737298D01*
X884399Y735702D01*
X885412Y734689D01*
Y715000D01*
X885761Y713244D01*
X886756Y711756D01*
X893506Y705006D01*
X894994Y704011D01*
X896250Y703761D01*
Y697250D01*
X896652D01*
X897458Y696268D01*
X897429Y696125D01*
Y693836D01*
X897412Y693750D01*
X897429Y693664D01*
Y692875D01*
X897710Y691461D01*
X898512Y690262D01*
X899711Y689460D01*
X901125Y689179D01*
X901914D01*
X902000Y689162D01*
X902086Y689179D01*
X910375D01*
X911789Y689460D01*
X912989Y690262D01*
X913790Y691461D01*
X914071Y692875D01*
Y696125D01*
X913790Y697539D01*
X913750Y697599D01*
Y712750D01*
X902193D01*
X901750Y712838D01*
X898651D01*
X897009Y714480D01*
X897535Y715750D01*
X913750D01*
Y718912D01*
X915151D01*
X916250Y718500D01*
X916250Y717642D01*
Y703000D01*
X920412D01*
Y691250D01*
X920761Y689494D01*
X921756Y688006D01*
X925929Y683832D01*
Y683375D01*
X926210Y681961D01*
X927011Y680761D01*
X928211Y679960D01*
X929625Y679679D01*
X929662D01*
Y649466D01*
X928488Y648980D01*
X928276Y649193D01*
X926254Y650030D01*
X924066D01*
X922045Y649193D01*
X920498Y647645D01*
X919660Y645624D01*
Y643436D01*
X920498Y641414D01*
X922045Y639867D01*
X924066Y639030D01*
X926254D01*
X928276Y639867D01*
X928488Y640080D01*
X929662Y639594D01*
Y635200D01*
X930011Y633444D01*
X931006Y631956D01*
X948431Y614530D01*
Y614450D01*
X948703Y613084D01*
X949477Y611927D01*
X950634Y611153D01*
X952000Y610881D01*
X963500D01*
X964866Y611153D01*
X966023Y611927D01*
X966797Y613084D01*
X967069Y614450D01*
Y617450D01*
X966797Y618816D01*
X966023Y619973D01*
X964866Y620747D01*
X963500Y621019D01*
X954920D01*
X953531Y622408D01*
X954017Y623581D01*
X958152D01*
X958250Y623562D01*
X964949D01*
X980412Y608100D01*
Y591900D01*
X975511Y587000D01*
X974078D01*
X972298Y586523D01*
X970702Y585601D01*
X969399Y584298D01*
X968477Y582702D01*
X968000Y580922D01*
Y579078D01*
X968477Y577298D01*
X969399Y575702D01*
X970702Y574399D01*
X972298Y573477D01*
X974078Y573000D01*
X975922D01*
X977702Y573477D01*
X979142Y574308D01*
X980412Y573923D01*
Y540000D01*
X980761Y538244D01*
X981756Y536756D01*
X1036756Y481756D01*
X1038244Y480761D01*
X1040000Y480412D01*
X1170000D01*
X1171756Y480761D01*
X1173244Y481756D01*
X1205329Y513840D01*
X1205368Y513818D01*
X1208420Y513000D01*
X1211580D01*
X1214632Y513818D01*
X1217368Y515398D01*
X1219602Y517632D01*
X1220173Y518621D01*
X1221441Y518538D01*
X1221707Y517895D01*
X1222769Y516305D01*
X1233232Y526768D01*
X1243695Y537230D01*
X1242105Y538293D01*
X1241462Y538559D01*
X1241379Y539827D01*
X1242368Y540398D01*
X1244602Y542632D01*
X1246182Y545368D01*
X1247000Y548420D01*
Y551580D01*
X1246908Y551923D01*
X1273002Y578017D01*
X1276786D01*
X1277480Y576342D01*
X1278723Y574723D01*
X1280342Y573480D01*
X1282227Y572700D01*
X1284250Y572433D01*
X1305750D01*
X1307773Y572700D01*
X1309658Y573480D01*
X1311277Y574723D01*
X1312520Y576342D01*
X1313300Y578227D01*
X1313394Y578940D01*
X1332500D01*
X1334327Y579180D01*
X1336030Y579886D01*
X1337493Y581008D01*
X1351392Y594907D01*
X1353750D01*
X1355603Y595276D01*
X1355849Y595440D01*
X1383035D01*
X1384863Y595680D01*
X1386565Y596385D01*
X1386997Y596717D01*
X1388552Y596300D01*
X1391448D01*
X1394246Y597050D01*
X1396754Y598498D01*
X1398802Y600546D01*
X1399964Y602559D01*
X1404599D01*
X1408000Y599158D01*
Y599078D01*
X1408477Y597298D01*
X1409399Y595702D01*
X1410702Y594399D01*
X1412298Y593477D01*
X1413346Y593196D01*
X1413726Y591780D01*
X1361534Y539588D01*
X1283013D01*
X1282197Y540405D01*
X1280175Y541242D01*
X1277987D01*
X1275965Y540405D01*
X1274418Y538858D01*
X1273581Y536836D01*
Y534648D01*
X1274418Y532627D01*
X1275965Y531080D01*
X1277987Y530242D01*
X1280175D01*
X1280584Y530412D01*
X1363435D01*
X1365191Y530761D01*
X1366679Y531756D01*
X1444142Y609218D01*
X1445412Y608692D01*
Y606900D01*
X1328100Y489588D01*
X1251900D01*
X1245500Y495989D01*
Y496094D01*
X1244663Y498116D01*
X1243115Y499663D01*
X1241094Y500500D01*
X1238906D01*
X1236885Y499663D01*
X1235337Y498116D01*
X1234500Y496094D01*
Y493906D01*
X1235337Y491884D01*
X1236885Y490337D01*
X1238906Y489500D01*
X1239011D01*
X1246756Y481756D01*
X1248244Y480761D01*
X1250000Y480412D01*
X1330000D01*
X1331756Y480761D01*
X1333244Y481756D01*
X1453244Y601756D01*
X1454239Y603244D01*
X1454588Y605000D01*
Y661810D01*
X1454663Y661885D01*
X1455500Y663906D01*
Y664011D01*
X1466900Y675412D01*
X1495000D01*
X1496756Y675761D01*
X1498244Y676756D01*
X1513244Y691756D01*
X1514239Y693244D01*
X1514588Y695000D01*
Y794689D01*
X1515601Y795702D01*
X1516523Y797298D01*
X1517000Y799078D01*
Y800922D01*
X1516523Y802702D01*
X1515601Y804298D01*
X1514298Y805601D01*
X1512702Y806523D01*
X1510922Y807000D01*
X1509489D01*
X1498801Y817688D01*
X1498750Y817943D01*
Y828500D01*
X1481250D01*
Y813000D01*
X1490675D01*
X1491006Y812506D01*
X1503000Y800511D01*
Y799078D01*
X1503477Y797298D01*
X1504399Y795702D01*
X1505412Y794689D01*
Y696900D01*
X1493100Y684588D01*
X1466559D01*
X1466033Y685858D01*
X1473244Y693069D01*
X1474239Y694558D01*
X1474588Y696314D01*
Y825000D01*
X1474239Y826756D01*
X1473244Y828244D01*
X1443244Y858244D01*
X1441756Y859239D01*
X1440000Y859588D01*
X1404446D01*
X1404166Y860993D01*
X1402896Y862896D01*
X1400993Y864166D01*
X1398750Y864613D01*
D02*
G37*
G36*
X1198250Y839588D02*
X1144200D01*
X1142444Y839239D01*
X1140956Y838244D01*
X1121839Y819128D01*
X1120451Y819500D01*
X1117949D01*
X1115533Y818853D01*
X1113367Y817602D01*
X1111598Y815833D01*
X1110347Y813667D01*
X1109700Y811251D01*
Y808749D01*
X1110072Y807361D01*
X1092299Y789588D01*
X1075311D01*
X1074298Y790601D01*
X1072702Y791523D01*
X1070922Y792000D01*
X1069078D01*
X1067298Y791523D01*
X1065702Y790601D01*
X1064399Y789298D01*
X1063477Y787702D01*
X1063000Y785922D01*
Y784078D01*
X1063477Y782298D01*
X1064399Y780702D01*
X1065702Y779399D01*
X1067298Y778477D01*
X1069078Y778000D01*
X1070922D01*
X1072702Y778477D01*
X1074298Y779399D01*
X1075311Y780412D01*
X1094200D01*
X1095956Y780761D01*
X1097444Y781756D01*
X1116561Y800872D01*
X1117949Y800500D01*
X1120451D01*
X1122867Y801147D01*
X1125033Y802398D01*
X1126802Y804167D01*
X1128053Y806333D01*
X1128700Y808749D01*
Y811251D01*
X1128328Y812639D01*
X1132813Y817124D01*
X1133829Y816345D01*
X1132952Y814825D01*
X1132100Y811646D01*
Y808354D01*
X1132952Y805175D01*
X1134155Y803091D01*
X1142832Y811768D01*
X1151509Y820445D01*
X1149425Y821648D01*
X1146246Y822500D01*
X1142954D01*
X1139775Y821648D01*
X1138255Y820771D01*
X1137476Y821787D01*
X1146100Y830412D01*
X1196349D01*
X1211250Y815511D01*
Y806500D01*
X1227164D01*
X1227842Y805980D01*
X1229727Y805200D01*
X1231750Y804933D01*
X1238250D01*
X1240273Y805200D01*
X1241682Y805783D01*
X1233732Y813732D01*
X1235500Y815500D01*
X1233732Y817268D01*
X1241682Y825217D01*
X1240273Y825800D01*
X1238250Y826067D01*
X1231750D01*
X1229727Y825800D01*
X1227842Y825020D01*
X1226223Y823777D01*
X1224980Y822158D01*
X1224915Y822000D01*
X1217739D01*
X1201494Y838244D01*
X1200006Y839239D01*
X1198250Y839588D01*
D02*
G37*
G36*
X1428148Y840000D02*
X1421852D01*
X1415633Y839015D01*
X1409645Y837069D01*
X1404035Y834211D01*
X1398942Y830510D01*
X1398483Y830052D01*
X1425000Y803536D01*
X1451517Y830052D01*
X1451058Y830510D01*
X1445965Y834211D01*
X1440355Y837069D01*
X1434367Y839015D01*
X1428148Y840000D01*
D02*
G37*
G36*
X928148D02*
X921852D01*
X915633Y839015D01*
X909645Y837069D01*
X904035Y834211D01*
X898942Y830510D01*
X898484Y830052D01*
X925000Y803536D01*
X951516Y830052D01*
X951058Y830510D01*
X945965Y834211D01*
X940355Y837069D01*
X934367Y839015D01*
X928148Y840000D01*
D02*
G37*
G36*
X1155045Y816909D02*
X1148136Y810000D01*
X1155045Y803091D01*
X1156248Y805175D01*
X1157100Y808354D01*
Y811646D01*
X1156248Y814825D01*
X1155045Y816909D01*
D02*
G37*
G36*
X1144600Y806464D02*
X1137691Y799555D01*
X1139775Y798352D01*
X1142954Y797500D01*
X1146246D01*
X1149425Y798352D01*
X1151509Y799555D01*
X1144600Y806464D01*
D02*
G37*
G36*
X1228750Y803500D02*
X1211250D01*
Y788000D01*
X1228750D01*
X1228750Y788000D01*
Y788000D01*
X1229745Y787377D01*
X1229897Y787276D01*
X1231750Y786907D01*
X1238250D01*
X1240103Y787276D01*
X1241675Y788325D01*
X1242724Y789897D01*
X1243093Y791750D01*
Y797250D01*
X1242724Y799103D01*
X1241675Y800675D01*
X1240103Y801724D01*
X1238250Y802093D01*
X1231750D01*
X1230020Y801749D01*
X1229677Y801810D01*
X1228750Y802305D01*
Y803500D01*
D02*
G37*
G36*
X1373094Y785500D02*
X1370906D01*
X1368884Y784663D01*
X1367337Y783115D01*
X1366500Y781094D01*
Y778906D01*
X1367337Y776885D01*
X1368884Y775337D01*
X1370906Y774500D01*
X1373094D01*
X1375116Y775337D01*
X1376663Y776885D01*
X1377500Y778906D01*
Y781094D01*
X1376663Y783115D01*
X1375116Y784663D01*
X1373094Y785500D01*
D02*
G37*
G36*
X854983Y784794D02*
X847036Y776847D01*
X854983Y768901D01*
X855775Y770813D01*
X856076Y773098D01*
Y780597D01*
X855775Y782882D01*
X854983Y784794D01*
D02*
G37*
G36*
X1046610Y759075D02*
X1039110D01*
X1036826Y758775D01*
X1034913Y757982D01*
X1042860Y750035D01*
X1050807Y757982D01*
X1048894Y758775D01*
X1046610Y759075D01*
D02*
G37*
G36*
X1203094Y745500D02*
X1200906D01*
X1198885Y744663D01*
X1197337Y743115D01*
X1196500Y741094D01*
Y738906D01*
X1197337Y736885D01*
X1198885Y735337D01*
X1200906Y734500D01*
X1203094D01*
X1205116Y735337D01*
X1206663Y736885D01*
X1207500Y738906D01*
Y741094D01*
X1206663Y743115D01*
X1205116Y744663D01*
X1203094Y745500D01*
D02*
G37*
G36*
X1143270Y738718D02*
X1141082D01*
X1139061Y737881D01*
X1137514Y736334D01*
X1136676Y734312D01*
Y732124D01*
X1137514Y730103D01*
X1139061Y728556D01*
X1141082Y727718D01*
X1143270D01*
X1145292Y728556D01*
X1146839Y730103D01*
X1147676Y732124D01*
Y734312D01*
X1146839Y736334D01*
X1145292Y737881D01*
X1143270Y738718D01*
D02*
G37*
G36*
X1237627Y738456D02*
X1235439D01*
X1233418Y737619D01*
X1231871Y736072D01*
X1231033Y734050D01*
Y731862D01*
X1231871Y729841D01*
X1233418Y728294D01*
X1235439Y727456D01*
X1237627D01*
X1239649Y728294D01*
X1241196Y729841D01*
X1242033Y731862D01*
Y734050D01*
X1241196Y736072D01*
X1239649Y737619D01*
X1237627Y738456D01*
D02*
G37*
G36*
X955052Y826516D02*
X928536Y800000D01*
X955052Y773484D01*
X955510Y773942D01*
X956980Y775965D01*
X958250Y775552D01*
Y755324D01*
X961250D01*
Y739824D01*
Y726500D01*
X978750D01*
Y739824D01*
Y747367D01*
X979069Y747580D01*
X981900Y750412D01*
X987394D01*
X987527Y750250D01*
Y727750D01*
X987974Y725507D01*
X989245Y723605D01*
X991146Y722334D01*
X993390Y721887D01*
X1000890D01*
X1003133Y722334D01*
X1005035Y723605D01*
X1006306Y725507D01*
X1006753Y727750D01*
Y750250D01*
X1006306Y752494D01*
X1005035Y754396D01*
X1003133Y755666D01*
X1000890Y756113D01*
X995376D01*
X993244Y758244D01*
X991756Y759239D01*
X990000Y759588D01*
X981750D01*
Y773289D01*
X972768Y764307D01*
X969232Y767842D01*
X978214Y776824D01*
X959174D01*
X958527Y778094D01*
X959211Y779035D01*
X962069Y784645D01*
X964015Y790633D01*
X965000Y796852D01*
Y803148D01*
X964015Y809367D01*
X962069Y815355D01*
X959211Y820965D01*
X955510Y826058D01*
X955052Y826516D01*
D02*
G37*
G36*
X1266094Y730500D02*
X1263906D01*
X1261885Y729663D01*
X1260337Y728115D01*
X1259500Y726094D01*
Y723906D01*
X1260337Y721885D01*
X1261885Y720337D01*
X1263906Y719500D01*
X1266094D01*
X1268115Y720337D01*
X1269663Y721885D01*
X1270500Y723906D01*
Y726094D01*
X1269663Y728115D01*
X1268115Y729663D01*
X1266094Y730500D01*
D02*
G37*
G36*
X1171251Y819500D02*
X1168749D01*
X1166333Y818853D01*
X1164167Y817602D01*
X1162398Y815833D01*
X1161147Y813667D01*
X1160500Y811251D01*
Y808749D01*
X1161147Y806333D01*
X1162398Y804167D01*
X1164167Y802398D01*
X1166333Y801147D01*
X1168749Y800500D01*
X1169515D01*
X1210008Y760007D01*
X1211470Y758885D01*
X1213173Y758180D01*
X1215000Y757940D01*
X1267300D01*
X1269127Y758180D01*
X1270830Y758885D01*
X1272292Y760007D01*
X1273375Y761090D01*
X1274594Y760614D01*
X1274695Y759680D01*
X1270082Y755067D01*
X1254067D01*
Y738067D01*
X1270082D01*
X1293141Y715008D01*
X1294603Y713885D01*
X1296306Y713180D01*
X1298133Y712940D01*
X1338250D01*
X1340077Y713180D01*
X1341780Y713885D01*
X1343242Y715008D01*
X1347175Y718940D01*
X1348250D01*
X1348709Y719000D01*
X1365250D01*
Y751000D01*
X1347739D01*
X1346493Y752246D01*
X1346523Y752298D01*
X1347000Y754078D01*
Y755922D01*
X1346523Y757702D01*
X1345601Y759298D01*
X1344298Y760601D01*
X1342702Y761523D01*
X1340922Y762000D01*
X1339078D01*
X1337298Y761523D01*
X1335702Y760601D01*
X1334399Y759298D01*
X1333477Y757702D01*
X1333000Y755922D01*
Y754078D01*
X1333477Y752298D01*
X1334399Y750702D01*
X1335702Y749399D01*
X1337298Y748477D01*
X1337454Y748435D01*
X1337712Y748049D01*
X1341250Y744511D01*
Y732334D01*
X1340720Y732114D01*
X1339258Y730993D01*
X1335325Y727060D01*
X1301058D01*
X1281552Y746567D01*
X1286850Y751865D01*
X1287972Y753328D01*
X1288678Y755031D01*
X1288918Y756858D01*
Y768277D01*
X1288678Y770105D01*
X1287972Y771807D01*
X1287869Y771943D01*
X1288300Y773552D01*
Y776448D01*
X1287550Y779246D01*
X1286102Y781754D01*
X1284054Y783802D01*
X1281546Y785250D01*
X1278748Y786000D01*
X1275852D01*
X1273054Y785250D01*
X1270546Y783802D01*
X1268498Y781754D01*
X1267050Y779246D01*
X1266300Y776448D01*
Y773985D01*
X1264376Y772060D01*
X1217924D01*
X1179500Y810485D01*
Y811251D01*
X1178853Y813667D01*
X1177602Y815833D01*
X1175833Y817602D01*
X1173667Y818853D01*
X1171251Y819500D01*
D02*
G37*
G36*
X1001094Y720500D02*
X998906D01*
X996885Y719663D01*
X995337Y718115D01*
X994500Y716094D01*
Y713906D01*
X995337Y711885D01*
X996885Y710337D01*
X998906Y709500D01*
X1001094D01*
X1003115Y710337D01*
X1004663Y711885D01*
X1005500Y713906D01*
Y716094D01*
X1004663Y718115D01*
X1003115Y719663D01*
X1001094Y720500D01*
D02*
G37*
G36*
X1240613Y713574D02*
X1238425D01*
X1236403Y712737D01*
X1234856Y711189D01*
X1234019Y709168D01*
Y706980D01*
X1234856Y704958D01*
X1236403Y703411D01*
X1238425Y702574D01*
X1240613D01*
X1242634Y703411D01*
X1244181Y704958D01*
X1245019Y706980D01*
Y709168D01*
X1244181Y711189D01*
X1242634Y712737D01*
X1240613Y713574D01*
D02*
G37*
G36*
X1456317Y705000D02*
X1453683D01*
X1451140Y704318D01*
X1449921Y703615D01*
X1455000Y698536D01*
X1460079Y703615D01*
X1458860Y704318D01*
X1456317Y705000D01*
D02*
G37*
G36*
X1093743Y707703D02*
X1087778Y701739D01*
X1093743Y695774D01*
Y707703D01*
D02*
G37*
G36*
X1493020Y706088D02*
X1490832D01*
X1488810Y705251D01*
X1487263Y703704D01*
X1486426Y701682D01*
Y699494D01*
X1487263Y697473D01*
X1488810Y695926D01*
X1490832Y695088D01*
X1493020D01*
X1495041Y695926D01*
X1496588Y697473D01*
X1497426Y699494D01*
Y701682D01*
X1496588Y703704D01*
X1495041Y705251D01*
X1493020Y706088D01*
D02*
G37*
G36*
X1292538Y697841D02*
X1290300D01*
X1288138Y697262D01*
X1287438Y696858D01*
X1291419Y692877D01*
X1295400Y696858D01*
X1294700Y697262D01*
X1292538Y697841D01*
D02*
G37*
G36*
X1446385Y700079D02*
X1445681Y698860D01*
X1445000Y696317D01*
Y693683D01*
X1445681Y691140D01*
X1446385Y689921D01*
X1451464Y695000D01*
X1446385Y700079D01*
D02*
G37*
G36*
X1219500Y724500D02*
X1200500D01*
Y685500D01*
X1219500D01*
Y697774D01*
X1220673Y698260D01*
X1225412Y693522D01*
Y681900D01*
X1223011Y679500D01*
X1190500D01*
Y660500D01*
X1229500D01*
Y673011D01*
X1233244Y676756D01*
X1234239Y678244D01*
X1234588Y680000D01*
Y690838D01*
X1235858Y691364D01*
X1236885Y690337D01*
X1238906Y689500D01*
X1241094D01*
X1243115Y690337D01*
X1244663Y691885D01*
X1245500Y693906D01*
Y696094D01*
X1244663Y698115D01*
X1243115Y699663D01*
X1241094Y700500D01*
X1238906D01*
X1236885Y699663D01*
X1235337Y698115D01*
X1235262Y697933D01*
X1233829Y697792D01*
X1233244Y698667D01*
X1223684Y708227D01*
X1222195Y709221D01*
X1220440Y709571D01*
X1219500D01*
Y724500D01*
D02*
G37*
G36*
X988500Y700464D02*
Y688536D01*
X994464Y694500D01*
X988500Y700464D01*
D02*
G37*
G36*
X1044375Y839087D02*
X995625D01*
X992982Y838739D01*
X990519Y837719D01*
X988404Y836096D01*
X986781Y833981D01*
X985761Y831518D01*
X985413Y828875D01*
Y780125D01*
X985761Y777482D01*
X986781Y775019D01*
X988404Y772904D01*
X990519Y771281D01*
X992982Y770261D01*
X995625Y769913D01*
X1044375D01*
X1047018Y770261D01*
X1047536Y770475D01*
X1116256Y701756D01*
X1117744Y700761D01*
X1119500Y700412D01*
X1125838D01*
X1126364Y699142D01*
X1125337Y698115D01*
X1124500Y696094D01*
Y695989D01*
X1121756Y693244D01*
X1120761Y691756D01*
X1120412Y690000D01*
Y680000D01*
X1120761Y678244D01*
X1121756Y676756D01*
X1131756Y666756D01*
X1133244Y665761D01*
X1135000Y665412D01*
X1153100D01*
X1161588Y656923D01*
X1161102Y655750D01*
X1146785D01*
X1155768Y646768D01*
X1152232Y643232D01*
X1143250Y652214D01*
Y634250D01*
X1146250D01*
Y618750D01*
X1146250D01*
Y617750D01*
X1146250D01*
Y602250D01*
X1163750D01*
Y608761D01*
X1165006Y609011D01*
X1166494Y610006D01*
X1168862Y612373D01*
X1168862Y612373D01*
X1170989Y614500D01*
X1171094D01*
X1173115Y615337D01*
X1174663Y616884D01*
X1175500Y618906D01*
Y621094D01*
X1174663Y623116D01*
X1173115Y624663D01*
X1171094Y625500D01*
X1168906D01*
X1166885Y624663D01*
X1165337Y623116D01*
X1165020Y622349D01*
X1163750Y622602D01*
Y634250D01*
X1166750D01*
Y650102D01*
X1167923Y650588D01*
X1186756Y631756D01*
X1188244Y630761D01*
X1190000Y630412D01*
X1238100D01*
X1259500Y609011D01*
Y608906D01*
X1260337Y606884D01*
X1261885Y605337D01*
X1263906Y604500D01*
X1266094D01*
X1268115Y605337D01*
X1269663Y606884D01*
X1270500Y608906D01*
Y611094D01*
X1269663Y613116D01*
X1268115Y614663D01*
X1266094Y615500D01*
X1265989D01*
X1243244Y638244D01*
X1241756Y639239D01*
X1240000Y639588D01*
X1191900D01*
X1164724Y666765D01*
X1165504Y667781D01*
X1166719Y667079D01*
X1168881Y666500D01*
X1171119D01*
X1173281Y667079D01*
X1173981Y667484D01*
X1168232Y673232D01*
X1162484Y678981D01*
X1162079Y678281D01*
X1161500Y676119D01*
Y673881D01*
X1162079Y671719D01*
X1162781Y670504D01*
X1161765Y669724D01*
X1158244Y673244D01*
X1156756Y674239D01*
X1155000Y674588D01*
X1136900D01*
X1129588Y681900D01*
Y688100D01*
X1130989Y689500D01*
X1131094D01*
X1133115Y690337D01*
X1134663Y691885D01*
X1135500Y693906D01*
Y696094D01*
X1134663Y698115D01*
X1133636Y699142D01*
X1134162Y700412D01*
X1140500D01*
Y685500D01*
X1159500D01*
Y724500D01*
X1140500D01*
Y709588D01*
X1121400D01*
X1054025Y776964D01*
X1054239Y777482D01*
X1054587Y780125D01*
Y828875D01*
X1054239Y831518D01*
X1053219Y833981D01*
X1051596Y836096D01*
X1049481Y837719D01*
X1047018Y838739D01*
X1044375Y839087D01*
D02*
G37*
G36*
X1298936Y693322D02*
X1294955Y689341D01*
X1298936Y685360D01*
X1299340Y686060D01*
X1299919Y688222D01*
Y690460D01*
X1299340Y692622D01*
X1298936Y693322D01*
D02*
G37*
G36*
X1283903D02*
X1283499Y692622D01*
X1282919Y690460D01*
Y688222D01*
X1283499Y686060D01*
X1283903Y685360D01*
X1287884Y689341D01*
X1283903Y693322D01*
D02*
G37*
G36*
X1291419Y685806D02*
X1287438Y681825D01*
X1288138Y681420D01*
X1290300Y680841D01*
X1292538D01*
X1294700Y681420D01*
X1295400Y681825D01*
X1291419Y685806D01*
D02*
G37*
G36*
X1171119Y683500D02*
X1168881D01*
X1166719Y682921D01*
X1166019Y682516D01*
X1170000Y678536D01*
X1173981Y682516D01*
X1173281Y682921D01*
X1171119Y683500D01*
D02*
G37*
G36*
X1245108Y688676D02*
X1242920D01*
X1240899Y687838D01*
X1239352Y686291D01*
X1238514Y684270D01*
Y682082D01*
X1239352Y680060D01*
X1240899Y678513D01*
X1242920Y677676D01*
X1245108D01*
X1247130Y678513D01*
X1248677Y680060D01*
X1249514Y682082D01*
Y684270D01*
X1248677Y686291D01*
X1247130Y687838D01*
X1245108Y688676D01*
D02*
G37*
G36*
X1106395Y688097D02*
X1104207D01*
X1102186Y687260D01*
X1100638Y685713D01*
X1099801Y683691D01*
Y681503D01*
X1100638Y679482D01*
X1102186Y677934D01*
X1104207Y677097D01*
X1106395D01*
X1108417Y677934D01*
X1109964Y679482D01*
X1110801Y681503D01*
Y683691D01*
X1109964Y685713D01*
X1108417Y687260D01*
X1106395Y688097D01*
D02*
G37*
G36*
X895019Y679696D02*
X894670Y678855D01*
X894443Y677125D01*
Y673875D01*
X894670Y672145D01*
X895019Y671304D01*
X899214Y675500D01*
X895019Y679696D01*
D02*
G37*
G36*
X916481Y679696D02*
X912286Y675500D01*
X916481Y671304D01*
X916830Y672145D01*
X917057Y673875D01*
Y677125D01*
X916830Y678855D01*
X916481Y679696D01*
D02*
G37*
G36*
X1177516Y678981D02*
X1173536Y675000D01*
X1177516Y671019D01*
X1177921Y671719D01*
X1178500Y673881D01*
Y676119D01*
X1177921Y678281D01*
X1177516Y678981D01*
D02*
G37*
G36*
X910375Y683807D02*
X901125D01*
X899396Y683579D01*
X898554Y683231D01*
X904518Y677268D01*
X902750Y675500D01*
X904518Y673732D01*
X898554Y667769D01*
X899396Y667421D01*
X901125Y667193D01*
X910375D01*
X912104Y667421D01*
X912945Y667769D01*
X906982Y673732D01*
X908750Y675500D01*
X906982Y677268D01*
X912945Y683231D01*
X912104Y683579D01*
X910375Y683807D01*
D02*
G37*
G36*
X1109881Y655750D02*
X1093452D01*
X1101667Y647535D01*
X1109881Y655750D01*
D02*
G37*
G36*
X1136548D02*
X1120119D01*
X1128333Y647535D01*
X1136548Y655750D01*
D02*
G37*
G36*
X1342338Y658012D02*
X1340150D01*
X1338128Y657175D01*
X1336581Y655627D01*
X1335744Y653606D01*
Y651418D01*
X1336581Y649396D01*
X1338128Y647849D01*
X1340150Y647012D01*
X1342338D01*
X1344359Y647849D01*
X1345906Y649396D01*
X1346744Y651418D01*
Y653606D01*
X1345906Y655627D01*
X1344359Y657175D01*
X1342338Y658012D01*
D02*
G37*
G36*
X1314952Y665416D02*
X1303535Y654000D01*
X1314952Y642583D01*
X1315140Y642829D01*
X1316223Y645444D01*
X1316593Y648250D01*
Y659750D01*
X1316223Y662556D01*
X1315140Y665171D01*
X1314952Y665416D01*
D02*
G37*
G36*
X1275048Y665416D02*
X1274860Y665171D01*
X1273777Y662556D01*
X1273407Y659750D01*
Y648250D01*
X1273777Y645444D01*
X1274860Y642829D01*
X1275048Y642583D01*
X1286465Y654000D01*
X1275048Y665416D01*
D02*
G37*
G36*
X1326688Y642957D02*
X1324500D01*
X1322478Y642120D01*
X1320931Y640573D01*
X1320094Y638551D01*
Y636363D01*
X1320931Y634342D01*
X1322478Y632794D01*
X1324500Y631957D01*
X1326688D01*
X1328709Y632794D01*
X1330256Y634342D01*
X1331094Y636363D01*
Y638551D01*
X1330256Y640573D01*
X1328709Y642120D01*
X1326688Y642957D01*
D02*
G37*
G36*
X1305750Y670593D02*
X1284250D01*
X1281444Y670223D01*
X1278829Y669140D01*
X1278584Y668952D01*
X1291768Y655768D01*
X1290000Y654000D01*
X1291768Y652232D01*
X1278584Y639048D01*
X1278829Y638860D01*
X1279249Y638686D01*
X1279894Y637044D01*
X1279500Y636094D01*
Y633906D01*
X1280337Y631884D01*
X1281884Y630337D01*
X1283906Y629500D01*
X1286094D01*
X1288116Y630337D01*
X1289663Y631884D01*
X1290500Y633906D01*
Y636094D01*
X1290393Y636351D01*
X1291099Y637407D01*
X1305750D01*
X1308556Y637777D01*
X1311171Y638860D01*
X1311416Y639048D01*
X1298232Y652232D01*
X1300000Y654000D01*
X1298232Y655768D01*
X1311416Y668952D01*
X1311171Y669140D01*
X1308556Y670223D01*
X1305750Y670593D01*
D02*
G37*
G36*
X1365625Y669100D02*
X1354375D01*
X1352375Y668703D01*
X1350680Y667570D01*
X1349547Y665875D01*
X1349150Y663875D01*
Y657625D01*
X1349190Y657424D01*
Y646674D01*
X1347608Y645093D01*
X1346250D01*
X1344397Y644724D01*
X1342825Y643674D01*
X1341776Y642103D01*
X1341407Y640250D01*
Y634750D01*
X1341776Y632897D01*
X1342825Y631325D01*
X1344397Y630276D01*
X1346250Y629907D01*
X1348608D01*
X1350807Y627708D01*
X1352270Y626586D01*
X1353973Y625880D01*
X1355800Y625640D01*
X1381504D01*
X1383246Y623898D01*
X1385754Y622450D01*
X1388552Y621700D01*
X1391448D01*
X1394246Y622450D01*
X1396754Y623898D01*
X1398802Y625946D01*
X1400053Y628112D01*
X1418259D01*
X1418477Y627298D01*
X1419399Y625702D01*
X1420702Y624399D01*
X1422298Y623477D01*
X1424078Y623000D01*
X1425922D01*
X1427702Y623477D01*
X1429298Y624399D01*
X1430601Y625702D01*
X1431523Y627298D01*
X1432000Y629078D01*
Y630922D01*
X1431523Y632702D01*
X1430601Y634298D01*
X1429298Y635601D01*
X1427702Y636523D01*
X1425922Y637000D01*
X1424078D01*
X1423031Y636719D01*
X1422703Y636939D01*
X1420947Y637288D01*
X1400053D01*
X1398802Y639454D01*
X1396754Y641502D01*
X1394246Y642950D01*
X1391448Y643700D01*
X1388552D01*
X1385754Y642950D01*
X1383246Y641502D01*
X1381504Y639760D01*
X1363549D01*
X1362700Y641030D01*
X1363070Y641923D01*
X1363310Y643750D01*
Y652400D01*
X1365625D01*
X1367625Y652797D01*
X1369320Y653930D01*
X1370453Y655625D01*
X1370850Y657625D01*
Y663875D01*
X1370453Y665875D01*
X1369320Y667570D01*
X1367625Y668703D01*
X1365625Y669100D01*
D02*
G37*
G36*
X869148Y631000D02*
X866252D01*
X863454Y630250D01*
X860946Y628802D01*
X858898Y626754D01*
X857450Y624246D01*
X856700Y621448D01*
Y618552D01*
X857450Y615754D01*
X858898Y613246D01*
X860946Y611198D01*
X863454Y609750D01*
X866252Y609000D01*
X869148D01*
X871946Y609750D01*
X874454Y611198D01*
X876502Y613246D01*
X877950Y615754D01*
X878700Y618552D01*
Y621448D01*
X877950Y624246D01*
X876502Y626754D01*
X874454Y628802D01*
X871946Y630250D01*
X869148Y631000D01*
D02*
G37*
G36*
X843748D02*
X840852D01*
X838054Y630250D01*
X835546Y628802D01*
X833498Y626754D01*
X832050Y624246D01*
X831300Y621448D01*
Y618552D01*
X832050Y615754D01*
X833498Y613246D01*
X835546Y611198D01*
X838054Y609750D01*
X840852Y609000D01*
X843748D01*
X846546Y609750D01*
X849054Y611198D01*
X851102Y613246D01*
X852550Y615754D01*
X853300Y618552D01*
Y621448D01*
X852550Y624246D01*
X851102Y626754D01*
X849054Y628802D01*
X846546Y630250D01*
X843748Y631000D01*
D02*
G37*
G36*
X1298094Y615500D02*
X1295906D01*
X1293884Y614663D01*
X1292337Y613116D01*
X1291500Y611094D01*
Y608906D01*
X1292337Y606884D01*
X1293884Y605337D01*
X1295906Y604500D01*
X1298094D01*
X1300116Y605337D01*
X1301663Y606884D01*
X1302500Y608906D01*
Y611094D01*
X1301663Y613116D01*
X1300116Y614663D01*
X1298094Y615500D01*
D02*
G37*
G36*
X963094Y607800D02*
X960906D01*
X958885Y606963D01*
X957337Y605415D01*
X956500Y603394D01*
Y601206D01*
X957337Y599184D01*
X958885Y597637D01*
X960906Y596800D01*
X963094D01*
X965116Y597637D01*
X966663Y599184D01*
X967500Y601206D01*
Y603394D01*
X966663Y605415D01*
X965116Y606963D01*
X963094Y607800D01*
D02*
G37*
G36*
X1018000Y621019D02*
X1006500D01*
X1005134Y620747D01*
X1003977Y619973D01*
X1003203Y618816D01*
X1002931Y617450D01*
Y614450D01*
X1003203Y613084D01*
X1003977Y611927D01*
X1005134Y611153D01*
X1006500Y610881D01*
X1015080D01*
X1019816Y606146D01*
Y603805D01*
X1017011Y601000D01*
X1006500D01*
Y588000D01*
X1023500D01*
Y589912D01*
X1027246D01*
X1028000Y589158D01*
Y589078D01*
X1028477Y587298D01*
X1029399Y585702D01*
X1030702Y584399D01*
X1032298Y583477D01*
X1034078Y583000D01*
X1035922D01*
X1037702Y583477D01*
X1039298Y584399D01*
X1040601Y585702D01*
X1041523Y587298D01*
X1042000Y589078D01*
Y590922D01*
X1041523Y592702D01*
X1040601Y594298D01*
X1039298Y595601D01*
X1037702Y596523D01*
X1035922Y597000D01*
X1034078D01*
X1033335Y596801D01*
X1032391Y597744D01*
X1030903Y598739D01*
X1029425Y599033D01*
X1028889Y599798D01*
X1028685Y600358D01*
X1028992Y601904D01*
Y608046D01*
X1028643Y609802D01*
X1027648Y611290D01*
X1021569Y617370D01*
Y617450D01*
X1021297Y618816D01*
X1020523Y619973D01*
X1019366Y620747D01*
X1018000Y621019D01*
D02*
G37*
G36*
X932589Y591572D02*
X930401D01*
X928380Y590734D01*
X928010Y590364D01*
X927740Y590311D01*
X926251Y589316D01*
X925257Y587828D01*
X924907Y586072D01*
X925257Y584316D01*
X926251Y582827D01*
X927740Y581833D01*
X928010Y581779D01*
X928380Y581409D01*
X930401Y580572D01*
X932589D01*
X934611Y581409D01*
X936158Y582956D01*
X936995Y584978D01*
Y587166D01*
X936158Y589187D01*
X934611Y590734D01*
X932589Y591572D01*
D02*
G37*
G36*
X1026500Y581464D02*
X1020536Y575500D01*
X1026500Y569535D01*
Y581464D01*
D02*
G37*
G36*
X1003500Y581464D02*
Y569535D01*
X1009464Y575500D01*
X1003500Y581464D01*
D02*
G37*
G36*
X1022964Y585000D02*
X1007036D01*
X1014768Y577268D01*
X1013000Y575500D01*
X1014768Y573732D01*
X1007036Y566000D01*
X1022964D01*
X1015232Y573732D01*
X1017000Y575500D01*
X1015232Y577268D01*
X1022964Y585000D01*
D02*
G37*
G36*
X1376094Y570500D02*
X1373906D01*
X1371884Y569663D01*
X1370337Y568116D01*
X1369500Y566094D01*
Y563906D01*
X1370337Y561884D01*
X1371884Y560337D01*
X1373906Y559500D01*
X1376094D01*
X1378116Y560337D01*
X1379663Y561884D01*
X1380500Y563906D01*
Y566094D01*
X1379663Y568116D01*
X1378116Y569663D01*
X1376094Y570500D01*
D02*
G37*
G36*
X1361094D02*
X1358906D01*
X1356884Y569663D01*
X1355337Y568116D01*
X1354500Y566094D01*
Y563906D01*
X1355337Y561884D01*
X1356884Y560337D01*
X1358906Y559500D01*
X1361094D01*
X1363116Y560337D01*
X1364663Y561884D01*
X1365500Y563906D01*
Y566094D01*
X1364663Y568116D01*
X1363116Y569663D01*
X1361094Y570500D01*
D02*
G37*
G36*
X846245Y545659D02*
X839335Y538750D01*
X846245Y531841D01*
X847448Y533925D01*
X848300Y537104D01*
Y540396D01*
X847448Y543575D01*
X846245Y545659D01*
D02*
G37*
G36*
X1026625Y536057D02*
X1023375D01*
X1021646Y535830D01*
X1020805Y535481D01*
X1025000Y531286D01*
X1029196Y535481D01*
X1028354Y535830D01*
X1026625Y536057D01*
D02*
G37*
G36*
X864950Y548363D02*
X857450D01*
X855207Y547916D01*
X853305Y546646D01*
X852034Y544743D01*
X851587Y542500D01*
Y535000D01*
X852034Y532757D01*
X853305Y530854D01*
X855207Y529584D01*
X857450Y529137D01*
X864950D01*
X867194Y529584D01*
X869096Y530854D01*
X870366Y532757D01*
X870813Y535000D01*
Y542500D01*
X870366Y544743D01*
X869096Y546646D01*
X867194Y547916D01*
X864950Y548363D01*
D02*
G37*
G36*
X1025000Y527750D02*
X1023250Y526000D01*
X1025000Y524250D01*
X1026750Y526000D01*
X1025000Y527750D01*
D02*
G37*
G36*
X1032731Y531946D02*
X1026786Y526000D01*
X1032731Y520055D01*
X1033080Y520896D01*
X1033307Y522625D01*
Y529375D01*
X1033080Y531105D01*
X1032731Y531946D01*
D02*
G37*
G36*
X1017269D02*
X1016920Y531105D01*
X1016693Y529375D01*
Y522625D01*
X1016920Y520896D01*
X1017269Y520055D01*
X1023214Y526000D01*
X1017269Y531946D01*
D02*
G37*
G36*
X1428148Y555000D02*
X1421852D01*
X1415633Y554015D01*
X1409645Y552070D01*
X1404035Y549211D01*
X1398942Y545510D01*
X1398483Y545052D01*
X1425000Y518535D01*
X1451517Y545052D01*
X1451058Y545510D01*
X1445965Y549211D01*
X1440355Y552070D01*
X1434367Y554015D01*
X1428148Y555000D01*
D02*
G37*
G36*
X928148D02*
X921852D01*
X915633Y554015D01*
X909645Y552070D01*
X904035Y549211D01*
X898942Y545510D01*
X898484Y545052D01*
X925000Y518535D01*
X951516Y545052D01*
X951058Y545510D01*
X945965Y549211D01*
X940355Y552070D01*
X934367Y554015D01*
X928148Y555000D01*
D02*
G37*
G36*
X1247231Y533695D02*
X1238536Y525000D01*
X1247231Y516305D01*
X1248293Y517895D01*
X1249424Y520625D01*
X1250000Y523523D01*
Y526477D01*
X1249424Y529375D01*
X1248293Y532105D01*
X1247231Y533695D01*
D02*
G37*
G36*
X1025000Y520714D02*
X1020804Y516519D01*
X1021646Y516171D01*
X1023375Y515943D01*
X1026625D01*
X1028354Y516171D01*
X1029196Y516519D01*
X1025000Y520714D01*
D02*
G37*
G36*
X1235000Y521465D02*
X1226305Y512770D01*
X1227895Y511707D01*
X1230625Y510576D01*
X1233523Y510000D01*
X1236477D01*
X1239375Y510576D01*
X1242105Y511707D01*
X1243695Y512770D01*
X1235000Y521465D01*
D02*
G37*
G36*
X1455052Y541516D02*
X1428535Y515000D01*
X1455052Y488484D01*
X1455510Y488942D01*
X1459211Y494035D01*
X1462070Y499645D01*
X1464015Y505633D01*
X1465000Y511852D01*
Y518148D01*
X1464015Y524367D01*
X1462070Y530355D01*
X1459211Y535965D01*
X1455510Y541058D01*
X1455052Y541516D01*
D02*
G37*
G36*
X955052D02*
X928536Y515000D01*
X955052Y488484D01*
X955510Y488942D01*
X959211Y494035D01*
X962069Y499645D01*
X964015Y505633D01*
X965000Y511852D01*
Y518148D01*
X964015Y524367D01*
X962069Y530355D01*
X959211Y535965D01*
X955510Y541058D01*
X955052Y541516D01*
D02*
G37*
G36*
X1394948Y541516D02*
X1394490Y541058D01*
X1390789Y535965D01*
X1387930Y530355D01*
X1385985Y524367D01*
X1385000Y518148D01*
Y511852D01*
X1385985Y505633D01*
X1387930Y499645D01*
X1390789Y494035D01*
X1394490Y488942D01*
X1394948Y488484D01*
X1421465Y515000D01*
X1394948Y541516D01*
D02*
G37*
G36*
X894948D02*
X894490Y541058D01*
X890789Y535965D01*
X887931Y530355D01*
X885985Y524367D01*
X885000Y518148D01*
Y511852D01*
X885985Y505633D01*
X887931Y499645D01*
X890789Y494035D01*
X894490Y488942D01*
X894948Y488484D01*
X921464Y515000D01*
X894948Y541516D01*
D02*
G37*
G36*
X1425000Y511465D02*
X1398483Y484948D01*
X1398942Y484490D01*
X1404035Y480789D01*
X1409645Y477930D01*
X1415633Y475985D01*
X1421852Y475000D01*
X1428148D01*
X1434367Y475985D01*
X1440355Y477930D01*
X1445965Y480789D01*
X1451058Y484490D01*
X1451517Y484948D01*
X1425000Y511465D01*
D02*
G37*
G36*
X925000D02*
X898484Y484948D01*
X898942Y484490D01*
X904035Y480789D01*
X909645Y477930D01*
X915633Y475985D01*
X921852Y475000D01*
X928148D01*
X934367Y475985D01*
X940355Y477930D01*
X945965Y480789D01*
X951058Y484490D01*
X951516Y484948D01*
X925000Y511465D01*
D02*
G37*
%LPD*%
G36*
X1036250Y683352D02*
Y673000D01*
Y667989D01*
X1022742Y654481D01*
X1021569Y654967D01*
Y655550D01*
X1021297Y656916D01*
X1020523Y658073D01*
X1019366Y658847D01*
X1018000Y659119D01*
X1009420D01*
X1004588Y663951D01*
Y669000D01*
X1023500D01*
Y673218D01*
X1023715Y673261D01*
X1025203Y674256D01*
X1026697Y675749D01*
X1026756Y675761D01*
X1028244Y676756D01*
X1028748Y677509D01*
X1035077Y683838D01*
X1036250Y683352D01*
D02*
G37*
D16*
X1295000Y586000D02*
D03*
Y654000D02*
D03*
D17*
X1015000Y575500D02*
D03*
Y594500D02*
D03*
X1082243Y701738D02*
D03*
Y678738D02*
D03*
X1000000Y694500D02*
D03*
Y675500D02*
D03*
X1015000D02*
D03*
Y694500D02*
D03*
D18*
X1045000Y669250D02*
D03*
Y650750D02*
D03*
Y680750D02*
D03*
Y699250D02*
D03*
X1155000Y610000D02*
D03*
Y591500D02*
D03*
X1128333Y610000D02*
D03*
Y591500D02*
D03*
X1101667Y610000D02*
D03*
Y591500D02*
D03*
X1075000Y610000D02*
D03*
Y591500D02*
D03*
Y645000D02*
D03*
Y626500D02*
D03*
X1101667Y645000D02*
D03*
Y626500D02*
D03*
X1128333Y645000D02*
D03*
Y626500D02*
D03*
X1155000Y645000D02*
D03*
Y626500D02*
D03*
X905000Y705000D02*
D03*
Y723500D02*
D03*
X925000Y710750D02*
D03*
Y729250D02*
D03*
X970000Y715750D02*
D03*
Y734250D02*
D03*
Y766074D02*
D03*
Y747574D02*
D03*
X1490000Y820750D02*
D03*
Y839250D02*
D03*
Y868500D02*
D03*
Y850000D02*
D03*
X1220000Y814250D02*
D03*
Y795750D02*
D03*
D19*
X1035000Y620000D02*
D03*
X1425000Y630000D02*
D03*
X1065000Y705000D02*
D03*
X1340000Y755000D02*
D03*
X1415000Y600000D02*
D03*
X1430000Y655000D02*
D03*
X1035000Y590000D02*
D03*
X890000Y740000D02*
D03*
X1070000Y785000D02*
D03*
X1510000Y800000D02*
D03*
X1512447Y846216D02*
D03*
X1365000Y835000D02*
D03*
X545000Y775000D02*
D03*
X755000Y505000D02*
D03*
X705000Y815000D02*
D03*
X1060000Y605000D02*
D03*
X690000Y780000D02*
D03*
X1455000Y695000D02*
D03*
X975000Y580000D02*
D03*
X1490000Y975000D02*
D03*
D20*
X640000Y630000D02*
D03*
Y530000D02*
D03*
X580000Y905000D02*
D03*
Y805000D02*
D03*
D21*
X1025000Y554000D02*
D03*
Y526000D02*
D03*
D22*
X1350000Y637500D02*
D03*
Y602500D02*
D03*
D23*
X1320000Y690000D02*
D03*
X1267067Y746567D02*
D03*
D24*
X1353250Y735000D02*
D03*
X1386750D02*
D03*
X1393250Y685000D02*
D03*
X1426750D02*
D03*
D25*
X1360000Y689250D02*
D03*
Y660750D02*
D03*
D26*
X1210000Y670000D02*
D03*
Y610000D02*
D03*
D27*
X749500Y827647D02*
D03*
Y802247D02*
D03*
Y776848D02*
D03*
X840500Y827647D02*
D03*
Y802247D02*
D03*
Y776848D02*
D03*
D28*
X905750Y694500D02*
D03*
Y675500D02*
D03*
X934250Y685000D02*
D03*
D29*
X1042860Y739000D02*
D03*
X997140D02*
D03*
X1467860Y899000D02*
D03*
X1422140D02*
D03*
D30*
X1235000Y794500D02*
D03*
Y815500D02*
D03*
D31*
X1445000Y964500D02*
D03*
D32*
X1385000Y990000D02*
D03*
Y930000D02*
D03*
Y915000D02*
D03*
Y855000D02*
D03*
D33*
X700750Y795000D02*
D03*
X719250D02*
D03*
D34*
X1012250Y615950D02*
D03*
Y628650D02*
D03*
Y641350D02*
D03*
Y654050D02*
D03*
X957750Y615950D02*
D03*
Y628650D02*
D03*
Y641350D02*
D03*
Y654050D02*
D03*
D35*
X1210000Y705000D02*
D03*
X1150000D02*
D03*
D68*
X759600Y648715D02*
G03*
X684115Y724200I-75485J0D01*
G01*
X725000Y490000D02*
G03*
X759600Y524600I0J34600D01*
G01*
X640000Y515400D02*
G03*
X665400Y490000I25400J0D01*
G01*
X747750Y829319D02*
G03*
X730051Y821076I2458J-28400D01*
G01*
D02*
G03*
X719454Y798875I26076J-26076D01*
G01*
X700750Y795000D02*
G03*
X690000Y784250I0J-10750D01*
G01*
X661900Y795000D02*
G03*
X652740Y785840I0J-9160D01*
G01*
X719250Y800750D02*
G03*
X705000Y815000I-14250J0D01*
G01*
X570400Y805000D02*
G03*
X545000Y779600I0J-25400D01*
G01*
X759600Y542450D02*
Y648715D01*
X652740Y724200D02*
X684115D01*
X665400Y490000D02*
X725000D01*
X640000Y515400D02*
Y530000D01*
X905000Y705000D02*
X905375Y704625D01*
X901750Y708250D02*
X905000Y705000D01*
X719250Y795000D02*
X719454Y798875D01*
X747750Y829319D02*
X754500Y827647D01*
X719250Y795000D02*
Y800750D01*
X759600Y524600D02*
Y542450D01*
X652740Y775000D02*
Y785840D01*
X690000Y780000D02*
Y784250D01*
X661900Y795000D02*
X700750D01*
X1024875Y680125D02*
X1044000Y699250D01*
X1017000Y675500D02*
X1019000Y677500D01*
X1021959D02*
X1024459Y680000D01*
X1025000D01*
X1000000Y675500D02*
X1015000D01*
X1019000Y677500D02*
X1021959D01*
X890000Y715000D02*
X896750Y708250D01*
X901750D01*
X890000Y715000D02*
Y740000D01*
X858500Y802247D02*
X890000Y770748D01*
X840500Y802247D02*
X858500D01*
X890000Y740000D02*
Y770748D01*
X1070000Y785000D02*
X1094200D01*
X1119200Y810000D01*
X1495000Y680000D02*
X1510000Y695000D01*
X1465000Y680000D02*
X1495000D01*
X1510000Y695000D02*
Y800000D01*
X1450000Y665000D02*
X1465000Y680000D01*
X905375Y694875D02*
Y704625D01*
Y694875D02*
X905750Y694500D01*
X902750D02*
X905750D01*
X902000Y693750D02*
X902750Y694500D01*
X1057500Y575000D02*
X1074000Y591500D01*
X1075000D01*
X1027500Y556500D02*
X1046000Y575000D01*
X1057500D01*
X1060000Y605000D02*
Y605000D01*
X973250Y750824D02*
X975824D01*
X980000Y755000D02*
X990000D01*
X970000Y747574D02*
X973250Y750824D01*
X975824D02*
X980000Y755000D01*
X990000D02*
X992929Y752071D01*
Y743211D02*
Y752071D01*
X1490000Y839250D02*
Y850000D01*
X1074686Y623750D02*
X1075000Y623436D01*
Y626500D01*
Y610000D02*
Y623436D01*
X1198250Y835000D02*
X1219000Y814250D01*
X1220000D01*
X1144200Y835000D02*
X1198250D01*
X1220625Y795125D02*
X1234375D01*
X1220000Y795750D02*
X1220625Y795125D01*
X1234375D02*
X1235000Y794500D01*
X915383Y737867D02*
Y739617D01*
Y737867D02*
X924000Y729250D01*
X915000Y740000D02*
X915383Y739617D01*
X924000Y729250D02*
X925000D01*
X1045000Y699250D02*
X1046000D01*
X1044000D02*
X1045000D01*
X1119200Y810000D02*
X1144200Y835000D01*
X1049250Y704250D02*
X1054617Y709617D01*
Y717217D01*
X1055000Y717600D01*
X1046000Y699250D02*
X1049250Y702500D01*
Y704250D01*
X918250Y723500D02*
X924000Y729250D01*
X905000Y723500D02*
X918250D01*
X929495Y586072D02*
X931495D01*
X1480000Y965000D02*
X1490000Y975000D01*
X1445500Y965000D02*
X1480000D01*
X1445000Y964500D02*
X1445500Y965000D01*
X1375677Y855000D02*
X1385000D01*
X1365000Y835000D02*
X1365957Y835957D01*
Y845280D01*
X1375677Y855000D01*
X1279081Y535742D02*
X1279258D01*
X1280000Y535000D01*
X1363435D01*
X1442000Y613565D01*
Y668314D01*
X1470000Y696314D01*
Y825000D01*
X1440000Y855000D02*
X1470000Y825000D01*
X1385000Y855000D02*
X1440000D01*
X1475750Y839837D02*
X1489324D01*
X1428315Y887272D02*
X1475750Y839837D01*
X1490000Y820750D02*
X1491000D01*
X1494250Y817500D01*
Y815750D02*
Y817500D01*
Y815750D02*
X1510000Y800000D01*
X1240000Y635000D02*
X1265000Y610000D01*
X1265000D01*
X1490176Y839426D02*
X1506684D01*
X1512447Y845190D01*
X1026350Y628650D02*
X1035000Y620000D01*
X1012250Y628650D02*
X1026350D01*
X1017000Y594500D02*
X1029147D01*
X1015000D02*
X1017000D01*
X1033647Y590000D02*
X1035000D01*
X1029147Y594500D02*
X1033647Y590000D01*
X1056972Y695619D02*
X1065000Y703647D01*
X1050000Y685000D02*
X1056972Y691972D01*
Y695619D01*
X1065000Y703647D02*
Y705000D01*
X1050000Y684750D02*
Y685000D01*
X1045000Y680750D02*
X1046000D01*
X1050000Y684750D01*
X985000Y540000D02*
Y590000D01*
X975000Y580000D02*
X985000Y590000D01*
Y610000D01*
X1069957Y605957D02*
X1074000Y610000D01*
X1075000D01*
X1060000Y605000D02*
X1060957Y605957D01*
X1069957D01*
X1445000Y685000D02*
X1455000Y695000D01*
X1426750Y685000D02*
X1445000D01*
X1406500Y607147D02*
X1413647Y600000D01*
X1415000D01*
X1390000Y607300D02*
X1390153Y607147D01*
X1406500D01*
X1418293Y655957D02*
X1429043D01*
X1430000Y655000D01*
X1393250Y681000D02*
Y685000D01*
Y681000D02*
X1418293Y655957D01*
X1420947Y632700D02*
X1423647Y630000D01*
X1425000D01*
X1390000Y632700D02*
X1420947D01*
X1340000Y755000D02*
X1340957Y754043D01*
X1353250Y735000D02*
Y739000D01*
X1340957Y751293D02*
X1353250Y739000D01*
X1340957Y751293D02*
Y754043D01*
X1165617Y615617D02*
X1165617D01*
X1158250Y613250D02*
X1163250D01*
X1165617Y615617D02*
X1170000Y620000D01*
X1163250Y613250D02*
X1165617Y615617D01*
X1155000Y610000D02*
X1158250Y613250D01*
X1125000Y690000D02*
X1130000Y695000D01*
Y695000D01*
X1125000Y680000D02*
Y690000D01*
Y680000D02*
X1135000Y670000D01*
X1155000D02*
X1190000Y635000D01*
X1135000Y670000D02*
X1155000D01*
X1190000Y635000D02*
X1240000D01*
X1070517Y920166D02*
X1115351Y965000D01*
X1225000D01*
X1235000Y955000D01*
Y929818D02*
Y955000D01*
X1213215Y908033D02*
X1235000Y929818D01*
X1122725Y919909D02*
X1148215Y945400D01*
X1212000D01*
X1240000Y495000D02*
X1250000Y485000D01*
X1330000D01*
X1450000Y605000D02*
Y665000D01*
X1330000Y485000D02*
X1450000Y605000D01*
X1227857Y842143D02*
X1248490D01*
X1190000Y880000D02*
X1227857Y842143D01*
X1190000Y880000D02*
Y920000D01*
X1200000Y930000D01*
X1155000Y610000D02*
Y626500D01*
X1128333Y610000D02*
Y626500D01*
X1117716Y619617D02*
X1127333Y610000D01*
X1115383Y619617D02*
X1117716D01*
X1115000Y620000D02*
X1115383Y619617D01*
X1127333Y610000D02*
X1128333D01*
X1100667D02*
X1101667D01*
X1091049Y619617D02*
X1100667Y610000D01*
X1090383Y619617D02*
X1091049D01*
X1090000Y620000D02*
X1090383Y619617D01*
X1101667Y610000D02*
Y626500D01*
X1065000Y620000D02*
Y620000D01*
Y620000D02*
X1075000Y610000D01*
X1071250Y623750D02*
X1074686D01*
X1385000Y915000D02*
Y930000D01*
X1422140Y892177D02*
X1427045Y887272D01*
X1422140Y892177D02*
Y899000D01*
X1427045Y887272D02*
X1428315D01*
X1395000Y990000D02*
X1407929Y977071D01*
X1432429D02*
X1445000Y964500D01*
X1407929Y977071D02*
X1432429D01*
X1385000Y990000D02*
X1395000D01*
X1160000Y550000D02*
Y587500D01*
X1156000Y591500D02*
X1160000Y587500D01*
X1155000Y591500D02*
X1156000D01*
X1129333D02*
X1135000Y585833D01*
X1128333Y591500D02*
X1129333D01*
X1135000Y550000D02*
Y585833D01*
X1110000Y550000D02*
Y584167D01*
X1102667Y591500D02*
X1110000Y584167D01*
X1101667Y591500D02*
X1102667D01*
X1076000D02*
X1085000Y582500D01*
X1075000Y591500D02*
X1076000D01*
X1085000Y550000D02*
Y582500D01*
X1185000Y550000D02*
Y595000D01*
X1200000Y610000D01*
X1210000D01*
X1230000Y680000D02*
Y695422D01*
X1210000Y705000D02*
X1210017Y704983D01*
X1220440D02*
X1230000Y695422D01*
X1210017Y704983D02*
X1220440D01*
X1220000Y670000D02*
X1230000Y680000D01*
X1210000Y670000D02*
X1220000D01*
X1210000Y695000D02*
Y705000D01*
X1020000Y804500D02*
X1119500Y705000D01*
X1150000D01*
X992929Y743211D02*
X997140Y739000D01*
X1046926Y652676D02*
X1056180D01*
X1080243Y678738D02*
X1082243D01*
X1045000Y650750D02*
X1046926Y652676D01*
X1078242Y674738D02*
Y676738D01*
X1056180Y652676D02*
X1078242Y674738D01*
Y676738D02*
X1080243Y678738D01*
X1044000Y650750D02*
X1046000D01*
X970000Y734250D02*
Y747574D01*
X934250Y635200D02*
X953500Y615950D01*
X934250Y635200D02*
Y685000D01*
X931250D02*
X934250D01*
X957250Y629150D02*
X957750Y628650D01*
X950850Y629150D02*
X957250D01*
X945000Y635000D02*
X950850Y629150D01*
X945000Y635000D02*
Y665000D01*
X955000Y675000D01*
Y701750D01*
X969000Y715750D02*
X970000D01*
X955000Y701750D02*
X969000Y715750D01*
X1001350Y628650D02*
X1012250D01*
X957750Y641350D02*
X988650D01*
X1001350Y628650D01*
X1017000Y594500D02*
X1024404Y601904D01*
X1016500Y615950D02*
X1024404Y608046D01*
Y601904D02*
Y608046D01*
X1012250Y615950D02*
X1016500D01*
X1022400Y629150D02*
X1044000Y650750D01*
X1012750Y629150D02*
X1022400D01*
X1012250Y628650D02*
X1012750Y629150D01*
X1017000Y641850D02*
Y642250D01*
X1044000Y669250D02*
X1045000D01*
X1017000Y642250D02*
X1044000Y669250D01*
X1016500Y641350D02*
X1017000Y641850D01*
X1012250Y641350D02*
X1016500D01*
X1045000Y669250D02*
Y680750D01*
X1000000Y662050D02*
Y675500D01*
X1000000Y675500D01*
X1000000Y662050D02*
X1008000Y654050D01*
X1012250D01*
X958250Y628150D02*
X966850D01*
X957750Y628650D02*
X958250Y628150D01*
X966850D02*
X985000Y610000D01*
X1040000Y485000D02*
X1170000D01*
X1210000Y525000D01*
X985000Y540000D02*
X1040000Y485000D01*
X953500Y615950D02*
X957750D01*
X925000Y691250D02*
X931250Y685000D01*
X925000Y691250D02*
Y710750D01*
X545000Y775000D02*
Y779600D01*
X570400Y805000D02*
X580000D01*
D69*
X640000Y644600D02*
G03*
X614600Y670000I-25400J0D01*
G01*
X590000D02*
G03*
X570000Y650000I0J-20000D01*
G01*
X605400Y971550D02*
G03*
X580000Y946150I0J-25400D01*
G01*
X640000Y630000D02*
Y644600D01*
X590000Y670000D02*
X614600D01*
X570000Y600000D02*
Y650000D01*
Y570000D02*
Y600000D01*
X1271567Y746567D02*
X1298133Y720000D01*
X1267067Y746567D02*
X1271567D01*
X1274067Y749067D02*
X1281858Y756858D01*
X1277300Y772835D02*
X1281858Y768277D01*
Y756858D02*
Y768277D01*
X1277300Y772835D02*
Y775000D01*
X1267300Y765000D02*
X1277300Y775000D01*
X1215000Y765000D02*
X1267300D01*
X1170000Y810000D02*
X1215000Y765000D01*
X1294077Y585078D02*
X1295000Y586000D01*
X1235000Y550000D02*
X1270078Y585078D01*
X1294077D01*
X1355800Y632700D02*
X1390000D01*
X1351000Y637500D02*
X1355800Y632700D01*
X1350000Y637500D02*
X1351000D01*
X1410000Y705750D02*
Y750000D01*
X1393250Y689000D02*
X1410000Y705750D01*
X1395000Y765000D02*
X1410000Y750000D01*
X1355000Y765000D02*
X1395000D01*
X1345000Y775000D02*
X1355000Y765000D01*
X1302700Y775000D02*
X1345000D01*
X1353250Y731000D02*
Y735000D01*
X1344250Y726000D02*
X1348250D01*
X1298133Y720000D02*
X1338250D01*
X1348250Y726000D02*
X1353250Y731000D01*
X1338250Y720000D02*
X1344250Y726000D01*
X1362500Y689250D02*
X1372483Y699233D01*
X1383017D02*
X1393250Y689000D01*
X1372483Y699233D02*
X1383017D01*
X1360000Y689250D02*
X1362500D01*
X1346750Y700000D02*
X1357500Y689250D01*
X1360000D01*
X1330000Y700000D02*
X1346750D01*
X1320000Y690000D02*
X1330000Y700000D01*
X1351500Y639000D02*
X1356250Y643750D01*
X1357500Y660750D02*
X1360000D01*
X1351000Y637500D02*
X1351500Y638000D01*
Y639000D01*
X1356250Y643750D02*
Y659500D01*
X1357500Y660750D01*
X1350000Y602500D02*
X1383035D01*
X1387835Y607300D01*
X1390000D01*
X1295000Y586000D02*
X1332500D01*
X1349000Y602500D01*
X1350000D01*
X605400Y971550D02*
X609600D01*
X579600D02*
X605400D01*
X580000Y905000D02*
Y946150D01*
D70*
X1020000Y804500D02*
D03*
D71*
X867700Y620000D02*
D03*
X842300D02*
D03*
X1277300Y775000D02*
D03*
X1302700D02*
D03*
X1390000Y632700D02*
D03*
Y607300D02*
D03*
D72*
X861200Y538750D02*
D03*
D73*
X708800D02*
D03*
X835800D02*
D03*
X759600D02*
D03*
X1144600Y810000D02*
D03*
X1119200D02*
D03*
X1170000D02*
D03*
X589000Y540500D02*
D03*
X589000Y631500D02*
D03*
X550100Y952550D02*
D03*
X641100Y952550D02*
D03*
D74*
X925000Y515000D02*
D03*
X1425000D02*
D03*
Y800000D02*
D03*
X925000D02*
D03*
D75*
X1235000Y525000D02*
D03*
X1210000Y550000D02*
D03*
Y525000D02*
D03*
X1185000Y550000D02*
D03*
Y525000D02*
D03*
X1160000Y550000D02*
D03*
Y525000D02*
D03*
X1135000Y550000D02*
D03*
X1060000Y525000D02*
D03*
X1085000D02*
D03*
Y550000D02*
D03*
X1110000D02*
D03*
X1235000D02*
D03*
X1135000Y525000D02*
D03*
X1110000D02*
D03*
X570000Y570000D02*
D03*
Y600000D02*
D03*
X579600Y971550D02*
D03*
X609600D02*
D03*
D76*
X1060000Y550000D02*
D03*
D77*
X1147500Y563805D02*
D03*
D78*
X1284000Y925000D02*
D03*
X1030000Y976000D02*
D03*
Y874000D02*
D03*
D79*
X776000Y925000D02*
D03*
D80*
X652740Y775000D02*
D03*
D81*
Y749600D02*
D03*
Y724200D02*
D03*
D82*
X750000Y800000D02*
D03*
X925000Y542500D02*
D03*
X945000Y535000D02*
D03*
X952500Y515000D02*
D03*
X945000Y495000D02*
D03*
X925000Y487500D02*
D03*
X905000Y495000D02*
D03*
X897500Y515000D02*
D03*
X905000Y535000D02*
D03*
X1170000Y675000D02*
D03*
X1030000Y555000D02*
D03*
X970000Y935000D02*
D03*
X1405000Y535000D02*
D03*
X1397500Y515000D02*
D03*
X1405000Y495000D02*
D03*
X1425000Y487500D02*
D03*
X1445000Y495000D02*
D03*
X1452500Y515000D02*
D03*
X1445000Y535000D02*
D03*
X1425000Y542500D02*
D03*
X1291419Y689341D02*
D03*
X915000Y740000D02*
D03*
X925160Y644530D02*
D03*
X940000Y985000D02*
D03*
X1295000D02*
D03*
X1500000Y955000D02*
D03*
X1375000Y565000D02*
D03*
X1372000Y780000D02*
D03*
X1297000Y610000D02*
D03*
X1202000Y740000D02*
D03*
X1055000Y717600D02*
D03*
X931495Y586072D02*
D03*
X1279081Y535742D02*
D03*
X1265000Y610000D02*
D03*
X1055891Y930347D02*
D03*
X1120000Y895000D02*
D03*
X1347935Y920165D02*
D03*
X1360000Y565000D02*
D03*
X1350000Y854000D02*
D03*
X962000Y602300D02*
D03*
X1122302Y945858D02*
D03*
X956869Y902647D02*
D03*
X1341244Y652512D02*
D03*
X1285000Y635000D02*
D03*
X1244014Y683176D02*
D03*
X1315000Y970000D02*
D03*
X1347750Y958100D02*
D03*
X1240000Y695000D02*
D03*
X1400000Y945000D02*
D03*
X1397102Y958252D02*
D03*
X1265000Y725000D02*
D03*
X1239519Y708074D02*
D03*
X1236533Y732956D02*
D03*
X1105301Y682597D02*
D03*
X1142176Y733218D02*
D03*
X1065000Y690000D02*
D03*
X1130000Y695000D02*
D03*
X1070517Y920166D02*
D03*
X1213215Y908033D02*
D03*
X1122725Y919909D02*
D03*
X1212000Y945400D02*
D03*
X1000000Y715000D02*
D03*
X1491926Y700588D02*
D03*
X1240000Y495000D02*
D03*
X1450000Y665000D02*
D03*
X1325594Y637457D02*
D03*
X1248490Y842143D02*
D03*
X1200000Y930000D02*
D03*
X1170000Y620000D02*
D03*
X1115000D02*
D03*
X1090000D02*
D03*
X1065000D02*
D03*
X575000Y800000D02*
D03*
X1425000Y827500D02*
D03*
X1445000Y820000D02*
D03*
X1452500Y800000D02*
D03*
X1445000Y780000D02*
D03*
X1425000Y772500D02*
D03*
X1405000Y780000D02*
D03*
X1397500Y800000D02*
D03*
X1405000Y820000D02*
D03*
X905000D02*
D03*
X897500Y800000D02*
D03*
X905000Y780000D02*
D03*
X925000Y772500D02*
D03*
X945000Y780000D02*
D03*
X952500Y800000D02*
D03*
X945000Y820000D02*
D03*
X925000Y827500D02*
D03*
M02*
