G04*
G04 #@! TF.GenerationSoftware,Altium Limited,Altium Designer,22.11.1 (43)*
G04*
G04 Layer_Physical_Order=2*
G04 Layer_Color=36540*
%FSLAX44Y44*%
%MOMM*%
G71*
G04*
G04 #@! TF.SameCoordinates,71FBA96F-98A1-49F9-A78B-1FB66A7A07A6*
G04*
G04*
G04 #@! TF.FilePolarity,Positive*
G04*
G01*
G75*
%ADD19C,1.0000*%
%ADD71C,0.5000*%
%ADD75C,1.6000*%
%ADD76R,1.6000X1.6000*%
%ADD77C,2.0000*%
G04:AMPARAMS|DCode=78|XSize=2mm|YSize=2mm|CornerRadius=0.5mm|HoleSize=0mm|Usage=FLASHONLY|Rotation=180.000|XOffset=0mm|YOffset=0mm|HoleType=Round|Shape=RoundedRectangle|*
%AMROUNDEDRECTD78*
21,1,2.0000,1.0000,0,0,180.0*
21,1,1.0000,2.0000,0,0,180.0*
1,1,1.0000,-0.5000,0.5000*
1,1,1.0000,0.5000,0.5000*
1,1,1.0000,0.5000,-0.5000*
1,1,1.0000,-0.5000,-0.5000*
%
%ADD78ROUNDEDRECTD78*%
%ADD79C,7.0000*%
%ADD80C,1.5000*%
%ADD81R,1.2000X1.2000*%
%ADD82C,1.2000*%
%ADD83C,0.7000*%
G36*
X865858Y550002D02*
X865858Y550002D01*
X868096D01*
X872533Y549418D01*
X876856Y548260D01*
X880991Y546547D01*
X884867Y544309D01*
X888417Y541584D01*
X891582Y538420D01*
X894307Y534869D01*
X896544Y530993D01*
X898257Y526858D01*
X899416Y522535D01*
X900000Y518098D01*
X900000Y515860D01*
X900000Y108817D01*
X898730Y108291D01*
X897719Y109302D01*
X895781Y110421D01*
X893619Y111000D01*
X891381D01*
X889219Y110421D01*
X887281Y109302D01*
X885698Y107719D01*
X884579Y105781D01*
X884000Y103619D01*
Y101381D01*
X884579Y99219D01*
X885698Y97281D01*
X887281Y95698D01*
X889219Y94579D01*
X891381Y94000D01*
X893619D01*
X895781Y94579D01*
X897719Y95698D01*
X898730Y96709D01*
X900000Y96183D01*
X900000Y34142D01*
X900000Y34142D01*
X900000Y31904D01*
X899416Y27467D01*
X898258Y23144D01*
X896545Y19009D01*
X894307Y15133D01*
X891582Y11582D01*
X888418Y8418D01*
X884867Y5693D01*
X880991Y3455D01*
X876856Y1743D01*
X872533Y584D01*
X868096Y0D01*
X865858D01*
X360000Y-0D01*
Y550002D01*
X865858Y550002D01*
X865858Y550002D01*
D02*
G37*
%LPC*%
G36*
X759678Y540500D02*
X756723D01*
X753825Y539924D01*
X751095Y538793D01*
X748638Y537151D01*
X746549Y535062D01*
X746135Y534443D01*
X744865D01*
X744451Y535062D01*
X742362Y537151D01*
X739905Y538793D01*
X737176Y539924D01*
X734277Y540500D01*
X731323D01*
X728425Y539924D01*
X725695Y538793D01*
X723238Y537151D01*
X721149Y535062D01*
X719507Y532605D01*
X718377Y529875D01*
X717800Y526978D01*
Y524023D01*
X718377Y521125D01*
X719507Y518395D01*
X721149Y515938D01*
X723238Y513849D01*
X725695Y512207D01*
X728425Y511077D01*
X731323Y510500D01*
X734277D01*
X737176Y511077D01*
X739905Y512207D01*
X742362Y513849D01*
X744451Y515938D01*
X744865Y516557D01*
X746135D01*
X746549Y515938D01*
X748638Y513849D01*
X751095Y512207D01*
X753825Y511077D01*
X756723Y510500D01*
X759678D01*
X762576Y511077D01*
X765305Y512207D01*
X767762Y513849D01*
X769851Y515938D01*
X771493Y518395D01*
X772624Y521125D01*
X773200Y524023D01*
Y526978D01*
X772624Y529875D01*
X771493Y532605D01*
X769851Y535062D01*
X767762Y537151D01*
X765305Y538793D01*
X762576Y539924D01*
X759678Y540500D01*
D02*
G37*
G36*
X478619Y536000D02*
X476381D01*
X474219Y535421D01*
X472281Y534302D01*
X470698Y532719D01*
X469579Y530781D01*
X469000Y528619D01*
Y526381D01*
X469579Y524219D01*
X470698Y522281D01*
X472281Y520698D01*
X474219Y519579D01*
X476381Y519000D01*
X478619D01*
X480781Y519579D01*
X482719Y520698D01*
X484302Y522281D01*
X485421Y524219D01*
X486000Y526381D01*
Y528619D01*
X485421Y530781D01*
X484302Y532719D01*
X482719Y534302D01*
X480781Y535421D01*
X478619Y536000D01*
D02*
G37*
G36*
X703619Y526000D02*
X701381D01*
X699219Y525421D01*
X697281Y524302D01*
X695698Y522719D01*
X694579Y520781D01*
X694000Y518619D01*
Y516381D01*
X694579Y514219D01*
X695698Y512281D01*
X697281Y510698D01*
X699219Y509579D01*
X701381Y509000D01*
X703619D01*
X705781Y509579D01*
X707719Y510698D01*
X709302Y512281D01*
X710421Y514219D01*
X711000Y516381D01*
Y518619D01*
X710421Y520781D01*
X709302Y522719D01*
X707719Y524302D01*
X705781Y525421D01*
X703619Y526000D01*
D02*
G37*
G36*
X681546Y533000D02*
X678254D01*
X675075Y532148D01*
X672225Y530502D01*
X669898Y528175D01*
X668252Y525325D01*
X667400Y522146D01*
Y518854D01*
X668252Y515675D01*
X669898Y512825D01*
X672225Y510497D01*
X675075Y508852D01*
X678254Y508000D01*
X681546D01*
X684725Y508852D01*
X687575Y510497D01*
X689903Y512825D01*
X691548Y515675D01*
X692400Y518854D01*
Y522146D01*
X691548Y525325D01*
X689903Y528175D01*
X687575Y530502D01*
X684725Y532148D01*
X681546Y533000D01*
D02*
G37*
G36*
X630746D02*
X627454D01*
X624275Y532148D01*
X621425Y530502D01*
X619098Y528175D01*
X617452Y525325D01*
X616600Y522146D01*
Y518854D01*
X617452Y515675D01*
X619098Y512825D01*
X621425Y510497D01*
X624275Y508852D01*
X627454Y508000D01*
X630746D01*
X633925Y508852D01*
X636775Y510497D01*
X639103Y512825D01*
X640748Y515675D01*
X641600Y518854D01*
Y522146D01*
X640748Y525325D01*
X639103Y528175D01*
X636775Y530502D01*
X633925Y532148D01*
X630746Y533000D01*
D02*
G37*
G36*
X431119Y471000D02*
X428881D01*
X426719Y470421D01*
X424781Y469302D01*
X423199Y467719D01*
X422079Y465781D01*
X421500Y463619D01*
Y461381D01*
X422079Y459219D01*
X423199Y457281D01*
X424781Y455698D01*
X426719Y454579D01*
X428881Y454000D01*
X431119D01*
X433281Y454579D01*
X435219Y455698D01*
X436802Y457281D01*
X437921Y459219D01*
X438500Y461381D01*
Y463619D01*
X437921Y465781D01*
X436802Y467719D01*
X435219Y469302D01*
X433281Y470421D01*
X431119Y471000D01*
D02*
G37*
G36*
X726573Y468065D02*
X691814D01*
X689856Y467807D01*
X688031Y467051D01*
X686465Y465849D01*
X681180Y460565D01*
X553000D01*
X551042Y460307D01*
X549217Y459551D01*
X547651Y458349D01*
X547651Y458349D01*
X498067Y408765D01*
X474383D01*
X474383Y408765D01*
X472425Y408508D01*
X470601Y407752D01*
X469034Y406550D01*
X469034Y406550D01*
X423503Y361018D01*
X422403Y362117D01*
X420465Y363236D01*
X418303Y363815D01*
X416065D01*
X413904Y363236D01*
X411965Y362117D01*
X410383Y360535D01*
X409264Y358596D01*
X409079Y357909D01*
X377151Y325980D01*
X375949Y324414D01*
X375193Y322589D01*
X374935Y320631D01*
Y273236D01*
X373835Y272601D01*
X373281Y272921D01*
X371119Y273500D01*
X368881D01*
X366719Y272921D01*
X364781Y271802D01*
X363198Y270219D01*
X362079Y268281D01*
X361500Y266119D01*
Y263881D01*
X362079Y261719D01*
X363198Y259781D01*
X364781Y258199D01*
X366719Y257080D01*
X368881Y256500D01*
X371119D01*
X373281Y257080D01*
X373835Y257400D01*
X374935Y256765D01*
Y227500D01*
X375193Y225542D01*
X375949Y223718D01*
X377151Y222151D01*
X377151Y222151D01*
X392329Y206973D01*
X391843Y205800D01*
X391351D01*
X389189Y205221D01*
X387251Y204102D01*
X385668Y202519D01*
X384549Y200581D01*
X383970Y198419D01*
Y196181D01*
X384549Y194019D01*
X385668Y192081D01*
X387251Y190498D01*
X389189Y189379D01*
X391351Y188800D01*
X393589D01*
X395751Y189379D01*
X397689Y190498D01*
X399271Y192081D01*
X400390Y194019D01*
X400970Y196181D01*
Y196673D01*
X402143Y197159D01*
X414872Y184430D01*
Y131249D01*
X415130Y129291D01*
X415885Y127467D01*
X417088Y125900D01*
X428837Y114151D01*
X430404Y112949D01*
X432228Y112193D01*
X433207Y112064D01*
X434186Y111935D01*
X434186Y111935D01*
X462465D01*
X462632Y110665D01*
X461719Y110421D01*
X459781Y109302D01*
X458198Y107719D01*
X457079Y105781D01*
X456500Y103619D01*
Y101381D01*
X457079Y99219D01*
X458198Y97281D01*
X459781Y95698D01*
X461719Y94579D01*
X463881Y94000D01*
X466119D01*
X468281Y94579D01*
X470219Y95698D01*
X471801Y97281D01*
X472921Y99219D01*
X473500Y101381D01*
Y103619D01*
X472921Y105781D01*
X471801Y107719D01*
X470219Y109302D01*
X468281Y110421D01*
X467368Y110665D01*
X467535Y111935D01*
X480323D01*
X482281Y112193D01*
X484105Y112949D01*
X485672Y114151D01*
X513134Y141613D01*
X537992D01*
X539950Y141871D01*
X541774Y142626D01*
X543341Y143829D01*
X543341Y143829D01*
X621947Y222435D01*
X633602D01*
X634219Y222079D01*
X634907Y221895D01*
X674651Y182151D01*
X674651Y182151D01*
X675735Y181319D01*
X675747Y179956D01*
X675684Y179823D01*
X674781Y179302D01*
X673198Y177719D01*
X672079Y175781D01*
X671500Y173619D01*
Y171381D01*
X672079Y169219D01*
X673198Y167281D01*
X674781Y165698D01*
X676719Y164579D01*
X678881Y164000D01*
X681119D01*
X683281Y164579D01*
X685219Y165698D01*
X686802Y167281D01*
X687921Y169219D01*
X688500Y171381D01*
Y173619D01*
X687921Y175781D01*
X686802Y177719D01*
X685855Y178666D01*
X686382Y179936D01*
X779366D01*
X789178Y170124D01*
X788592Y168914D01*
X786795D01*
X784633Y168334D01*
X782695Y167215D01*
X781112Y165633D01*
X779993Y163695D01*
X779414Y161533D01*
Y159295D01*
X779993Y157133D01*
X781112Y155195D01*
X782695Y153612D01*
X784633Y152493D01*
X786795Y151914D01*
X789033D01*
X790230Y152234D01*
X791500Y151381D01*
X791508Y151351D01*
X792079Y149219D01*
X793198Y147281D01*
X794781Y145698D01*
X796719Y144579D01*
X798881Y144000D01*
X801119D01*
X803281Y144579D01*
X805219Y145698D01*
X806802Y147281D01*
X807921Y149219D01*
X808500Y151381D01*
Y153619D01*
X807921Y155781D01*
X807410Y156666D01*
X808143Y157936D01*
X827205D01*
X827879Y156666D01*
X827079Y155281D01*
X826500Y153119D01*
Y150881D01*
X827079Y148719D01*
X828198Y146781D01*
X829781Y145198D01*
X831719Y144080D01*
X833881Y143500D01*
X836119D01*
X838281Y144080D01*
X840219Y145198D01*
X841802Y146781D01*
X842921Y148719D01*
X843500Y150881D01*
Y153119D01*
X842921Y155281D01*
X842122Y156666D01*
X842796Y157936D01*
X847204D01*
X847879Y156666D01*
X847079Y155281D01*
X846500Y153119D01*
Y150881D01*
X847079Y148719D01*
X848198Y146781D01*
X849781Y145198D01*
X851719Y144080D01*
X853881Y143500D01*
X856119D01*
X858281Y144080D01*
X860219Y145198D01*
X861802Y146781D01*
X862921Y148719D01*
X863500Y150881D01*
Y153119D01*
X862921Y155281D01*
X861802Y157219D01*
X860855Y158167D01*
X860890Y159794D01*
X861355Y160151D01*
X875349Y174145D01*
X876551Y175712D01*
X877307Y177536D01*
X877564Y179494D01*
X877564Y179494D01*
Y210000D01*
X877564Y210000D01*
X877307Y211958D01*
X876551Y213783D01*
X875349Y215349D01*
X875349Y215349D01*
X864531Y226167D01*
X865000Y228523D01*
Y231477D01*
X864423Y234375D01*
X863293Y237105D01*
X861651Y239562D01*
X859562Y241651D01*
X859242Y241865D01*
Y243135D01*
X859562Y243349D01*
X861651Y245438D01*
X863293Y247895D01*
X864423Y250625D01*
X865000Y253523D01*
Y256478D01*
X864423Y259376D01*
X863293Y262105D01*
X861651Y264562D01*
X859562Y266651D01*
X859242Y266865D01*
Y268135D01*
X859562Y268349D01*
X861651Y270438D01*
X863293Y272895D01*
X864423Y275625D01*
X865000Y278523D01*
Y281477D01*
X864423Y284375D01*
X863293Y287105D01*
X861651Y289562D01*
X859562Y291651D01*
X859242Y291865D01*
Y293135D01*
X859562Y293349D01*
X861651Y295438D01*
X861777Y295627D01*
X863046Y295585D01*
X863198Y295322D01*
X864781Y293740D01*
X866719Y292621D01*
X868881Y292041D01*
X871119D01*
X873281Y292621D01*
X875219Y293740D01*
X876802Y295322D01*
X877921Y297261D01*
X878500Y299422D01*
Y301660D01*
X877921Y303822D01*
X876802Y305761D01*
X875219Y307343D01*
X873281Y308462D01*
X871119Y309041D01*
X868881D01*
X866719Y308462D01*
X865767Y307913D01*
X864610Y308437D01*
X864423Y309375D01*
X863293Y312105D01*
X861651Y314562D01*
X859562Y316651D01*
X859242Y316865D01*
Y318135D01*
X859562Y318349D01*
X861651Y320438D01*
X863293Y322895D01*
X864423Y325625D01*
X865000Y328523D01*
Y331478D01*
X864423Y334376D01*
X863293Y337105D01*
X861651Y339562D01*
X859562Y341652D01*
X857105Y343293D01*
X854375Y344424D01*
X851477Y345000D01*
X848522D01*
X845624Y344424D01*
X842895Y343293D01*
X840438Y341652D01*
X838349Y339562D01*
X838135Y339243D01*
X836865D01*
X836651Y339562D01*
X834562Y341652D01*
X834242Y341865D01*
Y343135D01*
X834562Y343349D01*
X836651Y345438D01*
X838293Y347895D01*
X839424Y350625D01*
X840000Y353523D01*
Y356477D01*
X839424Y359375D01*
X838293Y362105D01*
X836651Y364562D01*
X834562Y366651D01*
X832105Y368293D01*
X829376Y369424D01*
X826478Y370000D01*
X823523D01*
X820625Y369424D01*
X817895Y368293D01*
X815438Y366651D01*
X813349Y364562D01*
X811707Y362105D01*
X810577Y359375D01*
X810000Y356477D01*
Y353523D01*
X810577Y350625D01*
X811707Y347895D01*
X813349Y345438D01*
X815438Y343349D01*
X815758Y343135D01*
Y341865D01*
X815438Y341652D01*
X813349Y339562D01*
X811707Y337105D01*
X810577Y334376D01*
X810000Y331478D01*
Y328523D01*
X810577Y325625D01*
X811707Y322895D01*
X813349Y320438D01*
X815438Y318349D01*
X815758Y318135D01*
Y316865D01*
X815438Y316651D01*
X813349Y314562D01*
X811707Y312105D01*
X810577Y309375D01*
X810000Y306478D01*
Y303523D01*
X810577Y300625D01*
X811707Y297895D01*
X813349Y295438D01*
X815438Y293349D01*
X815758Y293135D01*
Y291865D01*
X815438Y291651D01*
X813349Y289562D01*
X811707Y287105D01*
X810577Y284375D01*
X810000Y281477D01*
Y279000D01*
X809681D01*
X806756Y278216D01*
X804134Y276702D01*
X801992Y274561D01*
X801099Y273013D01*
X800541Y272887D01*
X799587Y272934D01*
X798219Y274302D01*
X796281Y275421D01*
X794910Y275788D01*
X738065Y332633D01*
Y368540D01*
X737807Y370498D01*
X737051Y372323D01*
X735849Y373889D01*
X667145Y442593D01*
X666961Y443281D01*
X666450Y444165D01*
X667184Y445435D01*
X684314D01*
X686272Y445693D01*
X688096Y446449D01*
X689663Y447651D01*
X694947Y452935D01*
X723439D01*
X729223Y447151D01*
X729223Y447151D01*
X730790Y445949D01*
X732615Y445193D01*
X734573Y444935D01*
X734573Y444935D01*
X756103D01*
X756719Y444579D01*
X758881Y444000D01*
X761119D01*
X763281Y444579D01*
X765219Y445698D01*
X766802Y447281D01*
X767921Y449219D01*
X768500Y451381D01*
Y453619D01*
X767921Y455781D01*
X766802Y457719D01*
X765219Y459302D01*
X763281Y460421D01*
X761119Y461000D01*
X758881D01*
X756719Y460421D01*
X756103Y460065D01*
X737706D01*
X731922Y465849D01*
X730355Y467051D01*
X728531Y467807D01*
X726573Y468065D01*
D02*
G37*
G36*
X491119Y451000D02*
X488881D01*
X486719Y450421D01*
X484781Y449302D01*
X483198Y447719D01*
X482079Y445781D01*
X481500Y443619D01*
Y441381D01*
X482079Y439219D01*
X483198Y437281D01*
X484781Y435698D01*
X486719Y434579D01*
X488881Y434000D01*
X491119D01*
X493281Y434579D01*
X495219Y435698D01*
X496802Y437281D01*
X497921Y439219D01*
X498500Y441381D01*
Y443619D01*
X497921Y445781D01*
X496802Y447719D01*
X495219Y449302D01*
X493281Y450421D01*
X491119Y451000D01*
D02*
G37*
G36*
X851119Y425439D02*
X848881D01*
X846719Y424860D01*
X844781Y423741D01*
X843198Y422159D01*
X842079Y420220D01*
X841500Y418059D01*
Y415820D01*
X842079Y413659D01*
X843198Y411720D01*
X844781Y410138D01*
X846719Y409019D01*
X848881Y408439D01*
X851119D01*
X853281Y409019D01*
X855219Y410138D01*
X856802Y411720D01*
X857921Y413659D01*
X858500Y415820D01*
Y418059D01*
X857921Y420220D01*
X856802Y422159D01*
X855219Y423741D01*
X853281Y424860D01*
X851119Y425439D01*
D02*
G37*
G36*
X841485Y406049D02*
X839247D01*
X837085Y405469D01*
X835146Y404350D01*
X833564Y402768D01*
X832445Y400830D01*
X831866Y398668D01*
Y396430D01*
X832445Y394268D01*
X833564Y392329D01*
X835146Y390747D01*
X837085Y389628D01*
X839247Y389049D01*
X841485D01*
X843646Y389628D01*
X845585Y390747D01*
X847167Y392329D01*
X848286Y394268D01*
X848866Y396430D01*
Y398668D01*
X848286Y400830D01*
X847167Y402768D01*
X845585Y404350D01*
X843646Y405469D01*
X841485Y406049D01*
D02*
G37*
G36*
X881119Y386000D02*
X878881D01*
X876719Y385421D01*
X874781Y384302D01*
X873198Y382719D01*
X872079Y380781D01*
X871500Y378619D01*
Y376381D01*
X872079Y374219D01*
X873198Y372281D01*
X874781Y370698D01*
X876719Y369579D01*
X878881Y369000D01*
X881119D01*
X883281Y369579D01*
X885219Y370698D01*
X886802Y372281D01*
X887921Y374219D01*
X888500Y376381D01*
Y378619D01*
X887921Y380781D01*
X886802Y382719D01*
X885219Y384302D01*
X883281Y385421D01*
X881119Y386000D01*
D02*
G37*
G36*
X603619Y158500D02*
X601381D01*
X599219Y157921D01*
X597281Y156802D01*
X595699Y155219D01*
X594580Y153281D01*
X594000Y151119D01*
Y148881D01*
X594580Y146719D01*
X595699Y144781D01*
X597281Y143198D01*
X599219Y142079D01*
X601381Y141500D01*
X603619D01*
X605781Y142079D01*
X607719Y143198D01*
X609302Y144781D01*
X610421Y146719D01*
X611000Y148881D01*
Y151119D01*
X610421Y153281D01*
X609302Y155219D01*
X607719Y156802D01*
X605781Y157921D01*
X603619Y158500D01*
D02*
G37*
G36*
X778619Y153500D02*
X776381D01*
X774219Y152921D01*
X772281Y151802D01*
X770698Y150219D01*
X769579Y148281D01*
X769000Y146119D01*
Y143881D01*
X769579Y141719D01*
X770698Y139781D01*
X772281Y138198D01*
X774219Y137079D01*
X776381Y136500D01*
X778619D01*
X780781Y137079D01*
X782719Y138198D01*
X784302Y139781D01*
X785421Y141719D01*
X786000Y143881D01*
Y146119D01*
X785421Y148281D01*
X784302Y150219D01*
X782719Y151802D01*
X780781Y152921D01*
X778619Y153500D01*
D02*
G37*
G36*
X398619Y146000D02*
X396381D01*
X394219Y145421D01*
X392281Y144302D01*
X390698Y142719D01*
X389579Y140781D01*
X389000Y138619D01*
Y136381D01*
X389579Y134219D01*
X390698Y132281D01*
X392281Y130698D01*
X394219Y129579D01*
X396381Y129000D01*
X398619D01*
X400781Y129579D01*
X402719Y130698D01*
X404301Y132281D01*
X405421Y134219D01*
X406000Y136381D01*
Y138619D01*
X405421Y140781D01*
X404301Y142719D01*
X402719Y144302D01*
X400781Y145421D01*
X398619Y146000D01*
D02*
G37*
G36*
X848619Y128000D02*
X846381D01*
X844219Y127421D01*
X842281Y126302D01*
X840698Y124719D01*
X839579Y122781D01*
X839407Y122139D01*
X838092D01*
X837921Y122781D01*
X836802Y124719D01*
X835219Y126302D01*
X833281Y127421D01*
X831119Y128000D01*
X828881D01*
X826719Y127421D01*
X824781Y126302D01*
X823198Y124719D01*
X822079Y122781D01*
X821500Y120619D01*
Y118381D01*
X822079Y116219D01*
X823198Y114281D01*
X824781Y112698D01*
X826719Y111579D01*
X828881Y111000D01*
X831119D01*
X833281Y111579D01*
X835219Y112698D01*
X836802Y114281D01*
X837921Y116219D01*
X838092Y116861D01*
X839407D01*
X839579Y116219D01*
X840698Y114281D01*
X842281Y112698D01*
X844219Y111579D01*
X846381Y111000D01*
X848619D01*
X850781Y111579D01*
X852719Y112698D01*
X854302Y114281D01*
X855421Y116219D01*
X856000Y118381D01*
Y120619D01*
X855421Y122781D01*
X854302Y124719D01*
X852719Y126302D01*
X850781Y127421D01*
X848619Y128000D01*
D02*
G37*
G36*
X591119Y138500D02*
X588881D01*
X586719Y137921D01*
X584781Y136802D01*
X583198Y135219D01*
X582079Y133281D01*
X581500Y131119D01*
Y128881D01*
X582079Y126719D01*
X583198Y124781D01*
X584781Y123198D01*
X586719Y122079D01*
X588881Y121500D01*
X591119D01*
X593281Y122079D01*
X595219Y123198D01*
X596802Y124781D01*
X597921Y126719D01*
X598500Y128881D01*
Y131119D01*
X597921Y133281D01*
X596802Y135219D01*
X595219Y136802D01*
X593281Y137921D01*
X591119Y138500D01*
D02*
G37*
G36*
X881119Y128500D02*
X878881D01*
X876719Y127921D01*
X874781Y126801D01*
X873198Y125219D01*
X872079Y123281D01*
X871500Y121119D01*
Y118881D01*
X872079Y116719D01*
X873198Y114781D01*
X874781Y113198D01*
X876719Y112079D01*
X878881Y111500D01*
X881119D01*
X883281Y112079D01*
X885219Y113198D01*
X886802Y114781D01*
X887921Y116719D01*
X888500Y118881D01*
Y121119D01*
X887921Y123281D01*
X886802Y125219D01*
X885219Y126801D01*
X883281Y127921D01*
X881119Y128500D01*
D02*
G37*
G36*
X413619Y118500D02*
X411381D01*
X409219Y117921D01*
X407281Y116802D01*
X405698Y115219D01*
X404579Y113281D01*
X404000Y111119D01*
Y108881D01*
X404579Y106719D01*
X405698Y104781D01*
X407281Y103198D01*
X409219Y102079D01*
X411381Y101500D01*
X413619D01*
X415781Y102079D01*
X417719Y103198D01*
X419302Y104781D01*
X420421Y106719D01*
X421000Y108881D01*
Y111119D01*
X420421Y113281D01*
X419302Y115219D01*
X417719Y116802D01*
X415781Y117921D01*
X413619Y118500D01*
D02*
G37*
G36*
X781119Y113500D02*
X778881D01*
X776719Y112921D01*
X774781Y111802D01*
X773198Y110219D01*
X772079Y108281D01*
X771500Y106119D01*
Y103881D01*
X772079Y101719D01*
X773198Y99781D01*
X774781Y98198D01*
X776719Y97079D01*
X778881Y96500D01*
X781119D01*
X783281Y97079D01*
X785219Y98198D01*
X786802Y99781D01*
X787921Y101719D01*
X788500Y103881D01*
Y106119D01*
X787921Y108281D01*
X786802Y110219D01*
X785219Y111802D01*
X783281Y112921D01*
X781119Y113500D01*
D02*
G37*
G36*
X613119Y103500D02*
X610881D01*
X608719Y102921D01*
X606781Y101802D01*
X605198Y100219D01*
X604079Y98281D01*
X603500Y96119D01*
Y93881D01*
X604079Y91719D01*
X605198Y89781D01*
X606781Y88198D01*
X608719Y87079D01*
X610881Y86500D01*
X613119D01*
X615281Y87079D01*
X617219Y88198D01*
X618802Y89781D01*
X619921Y91719D01*
X620500Y93881D01*
Y96119D01*
X619921Y98281D01*
X618802Y100219D01*
X617219Y101802D01*
X615281Y102921D01*
X613119Y103500D01*
D02*
G37*
G36*
X505683Y89000D02*
X503445D01*
X501283Y88421D01*
X499345Y87302D01*
X497762Y85719D01*
X496643Y83781D01*
X496064Y81619D01*
Y79381D01*
X496643Y77219D01*
X497762Y75281D01*
X499345Y73699D01*
X501283Y72579D01*
X503445Y72000D01*
X505683D01*
X507845Y72579D01*
X509783Y73699D01*
X511366Y75281D01*
X512485Y77219D01*
X513064Y79381D01*
Y81619D01*
X512485Y83781D01*
X511366Y85719D01*
X509783Y87302D01*
X507845Y88421D01*
X505683Y89000D01*
D02*
G37*
G36*
X486776Y90500D02*
X484538D01*
X482376Y89921D01*
X480438Y88802D01*
X478855Y87219D01*
X477736Y85281D01*
X477157Y83119D01*
Y83038D01*
X476719Y82921D01*
X474781Y81802D01*
X473198Y80219D01*
X472079Y78281D01*
X471500Y76119D01*
Y73881D01*
X472079Y71719D01*
X473198Y69781D01*
X474781Y68198D01*
X476719Y67079D01*
X478881Y66500D01*
X481119D01*
X483281Y67079D01*
X485219Y68198D01*
X486802Y69781D01*
X487921Y71719D01*
X488500Y73881D01*
Y73962D01*
X488938Y74079D01*
X490876Y75198D01*
X492459Y76781D01*
X493578Y78719D01*
X494157Y80881D01*
Y83119D01*
X493578Y85281D01*
X492459Y87219D01*
X490876Y88802D01*
X488938Y89921D01*
X486776Y90500D01*
D02*
G37*
G36*
X781119Y73500D02*
X778881D01*
X776719Y72921D01*
X774781Y71802D01*
X773198Y70219D01*
X772079Y68281D01*
X771500Y66119D01*
Y63881D01*
X772079Y61719D01*
X773198Y59781D01*
X774781Y58198D01*
X776719Y57079D01*
X778881Y56500D01*
X781119D01*
X783281Y57079D01*
X785219Y58198D01*
X786802Y59781D01*
X787921Y61719D01*
X788500Y63881D01*
Y66119D01*
X787921Y68281D01*
X786802Y70219D01*
X785219Y71802D01*
X783281Y72921D01*
X781119Y73500D01*
D02*
G37*
G36*
X498619Y51000D02*
X496381D01*
X494219Y50420D01*
X492281Y49302D01*
X490699Y47719D01*
X489579Y45781D01*
X489000Y43619D01*
Y41381D01*
X489579Y39219D01*
X490699Y37281D01*
X492281Y35698D01*
X494219Y34579D01*
X496381Y34000D01*
X498619D01*
X500781Y34579D01*
X502719Y35698D01*
X504302Y37281D01*
X505421Y39219D01*
X506000Y41381D01*
Y43619D01*
X505421Y45781D01*
X504302Y47719D01*
X502719Y49302D01*
X500781Y50420D01*
X498619Y51000D01*
D02*
G37*
G36*
X461119Y31000D02*
X458881D01*
X456719Y30421D01*
X454781Y29302D01*
X453198Y27719D01*
X452079Y25781D01*
X451500Y23619D01*
Y21381D01*
X452079Y19219D01*
X453198Y17281D01*
X454781Y15698D01*
X456719Y14579D01*
X458881Y14000D01*
X461119D01*
X463281Y14579D01*
X465219Y15698D01*
X466802Y17281D01*
X467921Y19219D01*
X468500Y21381D01*
Y23619D01*
X467921Y25781D01*
X466802Y27719D01*
X465219Y29302D01*
X463281Y30421D01*
X461119Y31000D01*
D02*
G37*
G36*
X716119Y28500D02*
X713881D01*
X711719Y27921D01*
X709781Y26802D01*
X708198Y25219D01*
X707079Y23281D01*
X706500Y21119D01*
Y18881D01*
X707079Y16719D01*
X708198Y14781D01*
X709781Y13198D01*
X711719Y12079D01*
X713881Y11500D01*
X716119D01*
X718281Y12079D01*
X720219Y13198D01*
X721802Y14781D01*
X722921Y16719D01*
X723500Y18881D01*
Y21119D01*
X722921Y23281D01*
X721802Y25219D01*
X720219Y26802D01*
X718281Y27921D01*
X716119Y28500D01*
D02*
G37*
G36*
X551119Y18500D02*
X548881D01*
X546719Y17921D01*
X544781Y16802D01*
X543198Y15219D01*
X542079Y13281D01*
X541500Y11119D01*
Y8881D01*
X542079Y6719D01*
X543198Y4781D01*
X544781Y3198D01*
X546719Y2079D01*
X548881Y1500D01*
X551119D01*
X553281Y2079D01*
X555219Y3198D01*
X556802Y4781D01*
X557921Y6719D01*
X558500Y8881D01*
Y11119D01*
X557921Y13281D01*
X556802Y15219D01*
X555219Y16802D01*
X553281Y17921D01*
X551119Y18500D01*
D02*
G37*
%LPD*%
G36*
X651630Y444165D02*
X651119Y443281D01*
X650540Y441119D01*
Y438881D01*
X651119Y436719D01*
X652238Y434781D01*
X653821Y433198D01*
X655759Y432079D01*
X656447Y431895D01*
X695073Y393270D01*
X694775Y391771D01*
X692895Y390993D01*
X690438Y389351D01*
X688349Y387262D01*
X686707Y384805D01*
X685577Y382075D01*
X685000Y379177D01*
Y376223D01*
X685577Y373325D01*
X686707Y370595D01*
X688349Y368138D01*
X690438Y366049D01*
X691057Y365635D01*
Y364365D01*
X690438Y363951D01*
X688349Y361862D01*
X686707Y359405D01*
X685577Y356675D01*
X685000Y353777D01*
Y350823D01*
X685577Y347925D01*
X686707Y345195D01*
X688349Y342738D01*
X690438Y340649D01*
X692895Y339007D01*
X694399Y338384D01*
X694647Y337139D01*
X635647Y278139D01*
X628720D01*
X626762Y277882D01*
X624937Y277126D01*
X623371Y275924D01*
X622158Y275933D01*
X621289Y276802D01*
X619351Y277921D01*
X617189Y278500D01*
X614951D01*
X612789Y277921D01*
X610851Y276802D01*
X609268Y275219D01*
X608149Y273281D01*
X607570Y271119D01*
Y268881D01*
X608149Y266719D01*
X609268Y264781D01*
X610748Y263301D01*
X580310Y232863D01*
X579108Y231296D01*
X578352Y229472D01*
X578094Y227514D01*
Y222479D01*
X541180Y185565D01*
X521814D01*
X519856Y185307D01*
X518031Y184551D01*
X516465Y183349D01*
X516464Y183349D01*
X468180Y135065D01*
X456691D01*
X455918Y136072D01*
X456000Y136381D01*
Y138619D01*
X455421Y140781D01*
X454302Y142719D01*
X452719Y144302D01*
X450781Y145421D01*
X448619Y146000D01*
X446381D01*
X444219Y145421D01*
X442281Y144302D01*
X440699Y142719D01*
X439580Y140781D01*
X439000Y138619D01*
Y137212D01*
X438710Y136290D01*
X437788Y136000D01*
X436381D01*
X434219Y135421D01*
X432281Y134302D01*
X431182Y133202D01*
X430001Y134383D01*
Y187563D01*
X429743Y189521D01*
X428988Y191346D01*
X427786Y192912D01*
X427785Y192912D01*
X410334Y210364D01*
X410713Y211781D01*
X411827Y212079D01*
X413765Y213198D01*
X415348Y214781D01*
X416466Y216719D01*
X417046Y218881D01*
Y221119D01*
X416466Y223281D01*
X416114Y223892D01*
X417130Y224672D01*
X417151Y224651D01*
X418718Y223449D01*
X420542Y222693D01*
X422500Y222435D01*
X422500Y222435D01*
X466102D01*
X466719Y222079D01*
X468299Y221656D01*
X468478Y220293D01*
X467281Y219602D01*
X465698Y218019D01*
X464579Y216081D01*
X464000Y213919D01*
Y211681D01*
X464579Y209519D01*
X465698Y207581D01*
X467281Y205998D01*
X469219Y204879D01*
X469571Y204785D01*
X469633Y203454D01*
X468198Y202019D01*
X467079Y200081D01*
X466500Y197919D01*
Y195681D01*
X467079Y193519D01*
X468198Y191581D01*
X469781Y189998D01*
X471719Y188880D01*
X473881Y188300D01*
X476119D01*
X478281Y188880D01*
X480219Y189998D01*
X481801Y191581D01*
X482920Y193519D01*
X482976Y193728D01*
X486015Y196767D01*
X487181Y197079D01*
X489119Y198198D01*
X490702Y199781D01*
X491821Y201719D01*
X492400Y203881D01*
Y206119D01*
X491821Y208281D01*
X490702Y210219D01*
X489119Y211801D01*
X487181Y212921D01*
X485019Y213500D01*
X482781D01*
X482104Y213319D01*
X480967Y214044D01*
X480421Y216081D01*
X479302Y218019D01*
X477719Y219602D01*
X475781Y220721D01*
X474201Y221144D01*
X474022Y222507D01*
X475219Y223198D01*
X476802Y224781D01*
X477921Y226719D01*
X478500Y228881D01*
Y231119D01*
X477921Y233281D01*
X476802Y235219D01*
X475219Y236802D01*
X473281Y237921D01*
X471119Y238500D01*
X468881D01*
X466719Y237921D01*
X466102Y237565D01*
X425634D01*
X417565Y245633D01*
Y250810D01*
X418573Y251583D01*
X418881Y251500D01*
X421119D01*
X423281Y252079D01*
X425219Y253198D01*
X426802Y254781D01*
X427921Y256719D01*
X428500Y258881D01*
Y261119D01*
X427921Y263281D01*
X426802Y265219D01*
X425219Y266802D01*
X423281Y267921D01*
X421119Y268500D01*
X418881D01*
X418573Y268417D01*
X417565Y269190D01*
Y271596D01*
X463673Y317704D01*
X464811Y317046D01*
X464783Y316940D01*
Y314702D01*
X465362Y312540D01*
X466481Y310602D01*
X468064Y309019D01*
X470002Y307900D01*
X472164Y307321D01*
X474402D01*
X476564Y307900D01*
X478502Y309019D01*
X480084Y310602D01*
X481203Y312540D01*
X481783Y314702D01*
Y316940D01*
X481203Y319102D01*
X480084Y321040D01*
X478502Y322623D01*
X476564Y323742D01*
X474402Y324321D01*
X472164D01*
X472057Y324293D01*
X471400Y325431D01*
X475349Y329380D01*
X475349Y329380D01*
X476551Y330947D01*
X477307Y332771D01*
X477565Y334729D01*
Y363602D01*
X477921Y364219D01*
X478500Y366381D01*
Y368619D01*
X477921Y370781D01*
X476802Y372719D01*
X475219Y374302D01*
X473281Y375421D01*
X471119Y376000D01*
X468881D01*
X466719Y375421D01*
X464781Y374302D01*
X463198Y372719D01*
X462079Y370781D01*
X461500Y368619D01*
Y366381D01*
X462079Y364219D01*
X462435Y363602D01*
Y337863D01*
X404651Y280079D01*
X403449Y278512D01*
X402693Y276687D01*
X402435Y274729D01*
Y242500D01*
X402693Y240542D01*
X403449Y238717D01*
X404651Y237151D01*
X413218Y228584D01*
X412438Y227568D01*
X411827Y227921D01*
X409665Y228500D01*
X407427D01*
X405265Y227921D01*
X403327Y226802D01*
X401744Y225219D01*
X400625Y223281D01*
X400327Y222168D01*
X398910Y221788D01*
X390378Y230320D01*
X390764Y231224D01*
X390994Y231500D01*
X393119D01*
X395281Y232079D01*
X397219Y233198D01*
X398802Y234781D01*
X399921Y236719D01*
X400500Y238881D01*
Y241119D01*
X399921Y243281D01*
X398802Y245219D01*
X397219Y246802D01*
X395281Y247921D01*
X393119Y248500D01*
X390881D01*
X390065Y249126D01*
Y317498D01*
X408382Y335816D01*
X409482Y334717D01*
X411420Y333597D01*
X413582Y333018D01*
X415820D01*
X417982Y333597D01*
X419920Y334717D01*
X421502Y336299D01*
X422621Y338237D01*
X422806Y338925D01*
X477517Y393636D01*
X501201D01*
X503159Y393894D01*
X504983Y394649D01*
X506550Y395852D01*
X541465Y430767D01*
X542724Y430601D01*
X543198Y429781D01*
X544781Y428198D01*
X546719Y427079D01*
X548881Y426500D01*
X551119D01*
X553281Y427079D01*
X555219Y428198D01*
X556802Y429781D01*
X557921Y431719D01*
X558500Y433881D01*
Y436119D01*
X557921Y438281D01*
X556802Y440219D01*
X555219Y441802D01*
X554398Y442275D01*
X554233Y443535D01*
X556133Y445435D01*
X650897D01*
X651630Y444165D01*
D02*
G37*
G36*
X722935Y343741D02*
Y329500D01*
X723193Y327542D01*
X723949Y325718D01*
X725151Y324151D01*
X785078Y264224D01*
X785079Y264219D01*
X786199Y262281D01*
X787781Y260698D01*
X789719Y259579D01*
X791881Y259000D01*
X794119D01*
X796281Y259579D01*
X798219Y260698D01*
X799587Y262066D01*
X800541Y262113D01*
X801099Y261987D01*
X801992Y260439D01*
X804134Y258298D01*
X806756Y256784D01*
X809681Y256000D01*
X810000D01*
Y253523D01*
X810577Y250625D01*
X811707Y247895D01*
X813349Y245438D01*
X815438Y243349D01*
X815758Y243135D01*
Y241865D01*
X815438Y241651D01*
X813349Y239562D01*
X811707Y237105D01*
X810577Y234375D01*
X810000Y231477D01*
Y228523D01*
X810577Y225625D01*
X811707Y222895D01*
X813349Y220438D01*
X815438Y218349D01*
X815758Y218135D01*
Y216865D01*
X815438Y216652D01*
X813349Y214562D01*
X811707Y212106D01*
X810577Y209376D01*
X810000Y206478D01*
Y203523D01*
X810577Y200625D01*
X811707Y197895D01*
X813349Y195438D01*
X814105Y194682D01*
X813995Y192997D01*
X812868Y192132D01*
X811265Y190043D01*
X810257Y187611D01*
X809914Y185000D01*
Y175000D01*
X810043Y174020D01*
X809205Y173065D01*
X807633D01*
X787849Y192849D01*
X786282Y194051D01*
X784458Y194807D01*
X782500Y195065D01*
X683134D01*
X645605Y232593D01*
X645421Y233281D01*
X644302Y235219D01*
X642719Y236802D01*
X640781Y237921D01*
X638619Y238500D01*
X636381D01*
X634219Y237921D01*
X633602Y237565D01*
X618814D01*
X616856Y237307D01*
X615031Y236551D01*
X613465Y235349D01*
X613465Y235349D01*
X593519Y215403D01*
X592442Y216122D01*
X592966Y217387D01*
X593224Y219345D01*
Y224380D01*
X631853Y263010D01*
X638781D01*
X640738Y263268D01*
X642563Y264023D01*
X644130Y265226D01*
X719849Y340945D01*
X719849Y340945D01*
X721051Y342512D01*
X721665Y343994D01*
X722935Y343741D01*
D02*
G37*
%LPC*%
G36*
X633619Y407700D02*
X631381D01*
X629219Y407121D01*
X627281Y406002D01*
X625698Y404419D01*
X624579Y402481D01*
X624000Y400319D01*
Y398081D01*
X624579Y395919D01*
X625698Y393981D01*
X627281Y392398D01*
X629219Y391279D01*
X631381Y390700D01*
X633619D01*
X635781Y391279D01*
X637719Y392398D01*
X639302Y393981D01*
X640421Y395919D01*
X641000Y398081D01*
Y400319D01*
X640421Y402481D01*
X639302Y404419D01*
X637719Y406002D01*
X635781Y407121D01*
X633619Y407700D01*
D02*
G37*
G36*
X523619Y388500D02*
X521381D01*
X519219Y387921D01*
X517281Y386802D01*
X515698Y385219D01*
X514579Y383281D01*
X514000Y381119D01*
Y378881D01*
X514579Y376719D01*
X515698Y374781D01*
X517281Y373199D01*
X519219Y372080D01*
X521381Y371500D01*
X523619D01*
X525781Y372080D01*
X527719Y373199D01*
X529301Y374781D01*
X530421Y376719D01*
X531000Y378881D01*
Y381119D01*
X530421Y383281D01*
X529301Y385219D01*
X527719Y386802D01*
X525781Y387921D01*
X523619Y388500D01*
D02*
G37*
G36*
X663619Y356000D02*
X661381D01*
X659219Y355421D01*
X657281Y354302D01*
X655698Y352719D01*
X654579Y350781D01*
X654000Y348619D01*
Y346381D01*
X654579Y344219D01*
X655698Y342281D01*
X657281Y340698D01*
X659219Y339579D01*
X661381Y339000D01*
X663619D01*
X665781Y339579D01*
X667719Y340698D01*
X669302Y342281D01*
X670421Y344219D01*
X671000Y346381D01*
Y348619D01*
X670421Y350781D01*
X669302Y352719D01*
X667719Y354302D01*
X665781Y355421D01*
X663619Y356000D01*
D02*
G37*
G36*
X488619Y351000D02*
X486381D01*
X484219Y350421D01*
X482281Y349302D01*
X480699Y347719D01*
X479579Y345781D01*
X479000Y343619D01*
Y341381D01*
X479579Y339219D01*
X480699Y337281D01*
X482281Y335699D01*
X484219Y334580D01*
X486381Y334000D01*
X488619D01*
X490781Y334580D01*
X492719Y335699D01*
X494302Y337281D01*
X495421Y339219D01*
X496000Y341381D01*
Y343619D01*
X495421Y345781D01*
X494302Y347719D01*
X492719Y349302D01*
X490781Y350421D01*
X488619Y351000D01*
D02*
G37*
G36*
X591819Y376000D02*
X589581D01*
X587419Y375421D01*
X585481Y374302D01*
X583898Y372719D01*
X582779Y370781D01*
X582595Y370093D01*
X518066Y305565D01*
X502100D01*
X500142Y305307D01*
X498318Y304551D01*
X496751Y303349D01*
X496751Y303349D01*
X453467Y260065D01*
X441397D01*
X440781Y260421D01*
X438619Y261000D01*
X436381D01*
X434219Y260421D01*
X432281Y259302D01*
X430698Y257719D01*
X429579Y255781D01*
X429000Y253619D01*
Y251381D01*
X429579Y249219D01*
X430698Y247281D01*
X432281Y245698D01*
X434219Y244579D01*
X436381Y244000D01*
X438619D01*
X440781Y244579D01*
X441397Y244935D01*
X456600D01*
X458558Y245193D01*
X460382Y245949D01*
X461949Y247151D01*
X505233Y290435D01*
X511500D01*
Y288881D01*
X512079Y286719D01*
X513198Y284781D01*
X514781Y283198D01*
X516719Y282079D01*
X518881Y281500D01*
X521119D01*
X523281Y282079D01*
X525219Y283198D01*
X526802Y284781D01*
X527921Y286719D01*
X528500Y288881D01*
Y291119D01*
X527921Y293281D01*
X527649Y293751D01*
X530380Y296482D01*
X531500Y295806D01*
Y293881D01*
X532079Y291719D01*
X533198Y289781D01*
X534781Y288199D01*
X536719Y287079D01*
X538881Y286500D01*
X541119D01*
X543281Y287079D01*
X545219Y288199D01*
X546802Y289781D01*
X547921Y291719D01*
X548500Y293881D01*
Y296119D01*
X547921Y298281D01*
X546802Y300219D01*
X545219Y301802D01*
X543281Y302921D01*
X541119Y303500D01*
X539194D01*
X538518Y304620D01*
X545295Y311397D01*
X546554Y311231D01*
X546698Y310981D01*
X548281Y309398D01*
X550219Y308279D01*
X552381Y307700D01*
X554619D01*
X556781Y308279D01*
X558719Y309398D01*
X560302Y310981D01*
X561421Y312919D01*
X562000Y315081D01*
Y317319D01*
X561421Y319481D01*
X560302Y321419D01*
X558719Y323002D01*
X558469Y323146D01*
X558303Y324405D01*
X593293Y359395D01*
X593981Y359579D01*
X595919Y360698D01*
X597501Y362281D01*
X598621Y364219D01*
X599200Y366381D01*
Y368619D01*
X598621Y370781D01*
X597501Y372719D01*
X595919Y374302D01*
X593981Y375421D01*
X591819Y376000D01*
D02*
G37*
G36*
X619283Y301664D02*
X617045D01*
X614883Y301085D01*
X612945Y299965D01*
X611362Y298383D01*
X610243Y296445D01*
X609664Y294283D01*
Y292045D01*
X610243Y289883D01*
X611362Y287945D01*
X612945Y286362D01*
X614883Y285243D01*
X617045Y284664D01*
X619283D01*
X621445Y285243D01*
X623383Y286362D01*
X624966Y287945D01*
X626085Y289883D01*
X626664Y292045D01*
Y294283D01*
X626085Y296445D01*
X624966Y298383D01*
X623383Y299965D01*
X621445Y301085D01*
X619283Y301664D01*
D02*
G37*
G36*
X551119Y268500D02*
X548881D01*
X546719Y267921D01*
X544781Y266802D01*
X543198Y265219D01*
X542079Y263281D01*
X541500Y261119D01*
Y259713D01*
X541210Y258790D01*
X540287Y258500D01*
X538881D01*
X536719Y257921D01*
X534781Y256802D01*
X533198Y255219D01*
X532079Y253281D01*
X531500Y251119D01*
Y248881D01*
X532079Y246719D01*
X533198Y244781D01*
X534781Y243198D01*
X536719Y242079D01*
X538881Y241500D01*
X540287D01*
X541210Y241210D01*
X541500Y240287D01*
Y238881D01*
X542079Y236719D01*
X543198Y234781D01*
X544781Y233198D01*
X546719Y232079D01*
X548881Y231500D01*
X551119D01*
X553281Y232079D01*
X555219Y233198D01*
X556802Y234781D01*
X557921Y236719D01*
X558500Y238881D01*
Y241119D01*
X557921Y243281D01*
X556802Y245219D01*
X555219Y246802D01*
X553281Y247921D01*
X551119Y248500D01*
X549713D01*
X548790Y248790D01*
X548500Y249713D01*
Y250287D01*
X548790Y251210D01*
X549713Y251500D01*
X551119D01*
X553281Y252079D01*
X555219Y253198D01*
X556802Y254781D01*
X557921Y256719D01*
X558500Y258881D01*
Y261119D01*
X557921Y263281D01*
X556802Y265219D01*
X555219Y266802D01*
X553281Y267921D01*
X551119Y268500D01*
D02*
G37*
G36*
X531119Y213500D02*
X528881D01*
X526719Y212921D01*
X524781Y211801D01*
X523198Y210219D01*
X522079Y208281D01*
X521500Y206119D01*
Y203881D01*
X522079Y201719D01*
X523198Y199781D01*
X524781Y198198D01*
X526719Y197079D01*
X528881Y196500D01*
X531119D01*
X533281Y197079D01*
X535219Y198198D01*
X536802Y199781D01*
X537921Y201719D01*
X538500Y203881D01*
Y206119D01*
X537921Y208281D01*
X536802Y210219D01*
X535219Y211801D01*
X533281Y212921D01*
X531119Y213500D01*
D02*
G37*
G36*
X458619Y178500D02*
X456381D01*
X454219Y177921D01*
X452281Y176802D01*
X450699Y175219D01*
X449580Y173281D01*
X449000Y171119D01*
Y168881D01*
X449580Y166719D01*
X450699Y164781D01*
X452281Y163199D01*
X454219Y162079D01*
X456381Y161500D01*
X458619D01*
X460781Y162079D01*
X462719Y163199D01*
X464302Y164781D01*
X465421Y166719D01*
X466000Y168881D01*
Y171119D01*
X465421Y173281D01*
X464302Y175219D01*
X462719Y176802D01*
X460781Y177921D01*
X458619Y178500D01*
D02*
G37*
%LPD*%
D19*
X811195Y267500D02*
D03*
D71*
X501201Y401201D02*
X553000Y453000D01*
X684314D01*
X474383Y401201D02*
X501201D01*
X414701Y341518D02*
X474383Y401201D01*
X730500Y329500D02*
X792750Y267250D01*
X868912Y478912D02*
X870000Y480000D01*
X730500Y329500D02*
Y368540D01*
X856006Y165500D02*
X870000Y179494D01*
X850000Y230000D02*
X870000Y210000D01*
Y179494D02*
Y210000D01*
X804500Y165500D02*
X856006D01*
X680000Y187500D02*
X782500D01*
X804500Y165500D01*
X422436Y131249D02*
Y187563D01*
X382500Y227500D02*
Y320631D01*
Y227500D02*
X422436Y187563D01*
X475000Y196800D02*
X475350D01*
X483550Y205000D01*
X483900D01*
X410000Y242500D02*
X422500Y230000D01*
X470000D01*
X410000Y242500D02*
Y274729D01*
X470000Y334729D01*
Y367500D01*
X437500Y252500D02*
X456600D01*
X521200Y298000D02*
X590700Y367500D01*
X502100Y298000D02*
X521200D01*
X456600Y252500D02*
X502100Y298000D01*
X637500Y230000D02*
X680000Y187500D01*
X868912Y476449D02*
Y478912D01*
Y476449D02*
X873280Y472079D01*
X537992Y149178D02*
X618814Y230000D01*
X510000Y149178D02*
X537992D01*
X618814Y230000D02*
X637500D01*
X480323Y119500D02*
X510000Y149178D01*
X422436Y131249D02*
X434186Y119500D01*
X382500Y320631D02*
X417184Y355316D01*
X434186Y119500D02*
X480323D01*
X659040Y440000D02*
X730500Y368540D01*
X684314Y453000D02*
X691814Y460500D01*
X726573D01*
X734573Y452500D01*
X760000D01*
X437500Y127500D02*
X471314D01*
X521814Y178000D01*
X544314D02*
X585659Y219345D01*
X521814Y178000D02*
X544314D01*
X585659Y219345D02*
Y227514D01*
X628720Y270574D02*
X638781D01*
X585659Y227514D02*
X628720Y270574D01*
X638781D02*
X714500Y346294D01*
Y357000D01*
X722500Y365000D01*
D75*
X222100Y437900D02*
D03*
Y412500D02*
D03*
X272900Y437900D02*
D03*
D76*
Y387100D02*
D03*
D77*
X850000Y355000D02*
D03*
X825000Y330000D02*
D03*
X850000D02*
D03*
X825000Y305000D02*
D03*
X850000D02*
D03*
X825000Y280000D02*
D03*
X850000D02*
D03*
X825000Y255000D02*
D03*
X850000Y180000D02*
D03*
Y205000D02*
D03*
X825000D02*
D03*
Y230000D02*
D03*
Y355000D02*
D03*
X850000Y255000D02*
D03*
Y230000D02*
D03*
X758200Y525500D02*
D03*
X732800D02*
D03*
X700000Y352300D02*
D03*
Y377700D02*
D03*
X40000Y150000D02*
D03*
Y180000D02*
D03*
X80000Y510000D02*
D03*
X50000D02*
D03*
X190000D02*
D03*
X160000D02*
D03*
D78*
X825000Y180000D02*
D03*
D79*
X850000Y50000D02*
D03*
X400000Y500000D02*
D03*
Y50000D02*
D03*
X850000Y500000D02*
D03*
D80*
X679900Y520500D02*
D03*
X629100D02*
D03*
X654500D02*
D03*
X59000Y120500D02*
D03*
Y211500D02*
D03*
X111500Y491000D02*
D03*
X20500D02*
D03*
X221500D02*
D03*
X130500D02*
D03*
D81*
X100000Y190800D02*
D03*
D82*
Y140000D02*
D03*
X125400Y165400D02*
D03*
D83*
X618164Y293164D02*
D03*
X616070Y270000D02*
D03*
X612500Y122500D02*
D03*
X612000Y95000D02*
D03*
X520000D02*
D03*
X600490Y36119D02*
D03*
X605000Y20000D02*
D03*
X552500Y62500D02*
D03*
X590000Y32500D02*
D03*
X600000Y90000D02*
D03*
X567500Y97500D02*
D03*
X537909Y111216D02*
D03*
X532500Y92500D02*
D03*
X552500D02*
D03*
X577500Y77500D02*
D03*
X597500Y50000D02*
D03*
X583601Y48635D02*
D03*
X565000Y75000D02*
D03*
X585000Y85000D02*
D03*
X559322Y84676D02*
D03*
X542500Y75000D02*
D03*
X615000Y245000D02*
D03*
X545000Y280000D02*
D03*
X557500Y227500D02*
D03*
X562500Y217500D02*
D03*
X720000Y177500D02*
D03*
X655000Y192500D02*
D03*
X672500Y207500D02*
D03*
X642500D02*
D03*
X627500Y210000D02*
D03*
X620000Y212500D02*
D03*
X595000Y225000D02*
D03*
X590000Y247500D02*
D03*
Y255000D02*
D03*
X582500Y240000D02*
D03*
Y247500D02*
D03*
Y255000D02*
D03*
X590000Y130000D02*
D03*
X567500Y47500D02*
D03*
X677500Y222500D02*
D03*
X632500Y290000D02*
D03*
X720000Y205000D02*
D03*
X780000Y215000D02*
D03*
X772500Y257500D02*
D03*
X537500Y47500D02*
D03*
X460000Y22500D02*
D03*
X465000Y102500D02*
D03*
X485657Y82000D02*
D03*
X504564Y80500D02*
D03*
X495000Y527500D02*
D03*
X477500D02*
D03*
X475000Y290000D02*
D03*
X480000Y75000D02*
D03*
X793000Y267500D02*
D03*
X800000Y152500D02*
D03*
X677500Y340000D02*
D03*
X780000Y65000D02*
D03*
X892500Y102500D02*
D03*
X880000Y120000D02*
D03*
X715000Y20000D02*
D03*
X777500Y145000D02*
D03*
X787914Y160414D02*
D03*
X780000Y105000D02*
D03*
X880000Y377500D02*
D03*
X550000Y10000D02*
D03*
X483900Y205000D02*
D03*
X475000Y196800D02*
D03*
X457500Y170000D02*
D03*
X470000Y230000D02*
D03*
Y367500D02*
D03*
X590700D02*
D03*
X417184Y355316D02*
D03*
X637500Y230000D02*
D03*
X414701Y341518D02*
D03*
X760000Y452500D02*
D03*
X437500Y127500D02*
D03*
X722500Y365000D02*
D03*
X175000Y162500D02*
D03*
X177500Y130000D02*
D03*
X550000Y435000D02*
D03*
X632500Y399200D02*
D03*
X892500Y80000D02*
D03*
X370000Y265000D02*
D03*
Y205000D02*
D03*
X705000Y452500D02*
D03*
X397500Y137500D02*
D03*
X467500Y7500D02*
D03*
X592500Y65000D02*
D03*
X567500Y47500D02*
D03*
X542500Y222500D02*
D03*
X414437Y135733D02*
D03*
X440000Y192500D02*
D03*
X547500Y170000D02*
D03*
X545000Y190000D02*
D03*
X566585Y239076D02*
D03*
X540000Y250000D02*
D03*
X542500Y275000D02*
D03*
X657500Y377500D02*
D03*
X662500Y347500D02*
D03*
X537500Y370000D02*
D03*
X467500Y442500D02*
D03*
X490000D02*
D03*
X487500Y342500D02*
D03*
X435000Y320000D02*
D03*
X405000Y302500D02*
D03*
X417500Y410000D02*
D03*
X430000Y462500D02*
D03*
X520192Y524376D02*
D03*
X660000Y315000D02*
D03*
X750000Y275000D02*
D03*
X767500Y150000D02*
D03*
X597500Y280000D02*
D03*
X625000Y155000D02*
D03*
X675000Y235000D02*
D03*
X532500Y112500D02*
D03*
X500000Y167500D02*
D03*
X430000Y445000D02*
D03*
X437500Y345000D02*
D03*
X519029Y328922D02*
D03*
X520000Y447500D02*
D03*
X630000Y445000D02*
D03*
X802500Y350000D02*
D03*
X777500Y332500D02*
D03*
X827500Y445000D02*
D03*
X682500Y462500D02*
D03*
Y500000D02*
D03*
X747500Y385000D02*
D03*
X850000Y416940D02*
D03*
X659040Y440000D02*
D03*
X437500Y252500D02*
D03*
X408546Y220000D02*
D03*
X392470Y197300D02*
D03*
X473283Y315821D02*
D03*
X522500Y380000D02*
D03*
X520000Y290000D02*
D03*
X447500Y137500D02*
D03*
X472500Y212800D02*
D03*
X530000Y205000D02*
D03*
X550000Y240000D02*
D03*
Y260000D02*
D03*
X420000D02*
D03*
X540000Y295000D02*
D03*
X602500Y150000D02*
D03*
X680000Y172500D02*
D03*
X553500Y316200D02*
D03*
X497500Y42500D02*
D03*
X412500Y110000D02*
D03*
X847500Y119500D02*
D03*
X830000D02*
D03*
X217500Y320000D02*
D03*
X197500D02*
D03*
X17500Y410000D02*
D03*
X110000Y397500D02*
D03*
X392000Y240000D02*
D03*
X870000Y300541D02*
D03*
X835000Y152000D02*
D03*
X855000D02*
D03*
X702500Y517500D02*
D03*
X840366Y397549D02*
D03*
X850000Y77500D02*
D03*
X870000Y70000D02*
D03*
X877500Y50000D02*
D03*
X870000Y30000D02*
D03*
X850000Y22500D02*
D03*
X830000Y30000D02*
D03*
X822500Y50000D02*
D03*
X830000Y70000D02*
D03*
X400000Y527500D02*
D03*
X420000Y520000D02*
D03*
X427500Y500000D02*
D03*
X420000Y480000D02*
D03*
X400000Y472500D02*
D03*
X380000Y480000D02*
D03*
X372500Y500000D02*
D03*
X380000Y520000D02*
D03*
Y70000D02*
D03*
X372500Y50000D02*
D03*
X380000Y30000D02*
D03*
X400000Y22500D02*
D03*
X420000Y30000D02*
D03*
X427500Y50000D02*
D03*
X420000Y70000D02*
D03*
X400000Y77500D02*
D03*
X830000Y520000D02*
D03*
X822500Y500000D02*
D03*
X830000Y480000D02*
D03*
X850000Y472500D02*
D03*
X870000Y480000D02*
D03*
X877500Y500000D02*
D03*
X870000Y520000D02*
D03*
X850000Y527500D02*
D03*
M02*
