G04*
G04 #@! TF.GenerationSoftware,Altium Limited,Altium Designer,22.11.1 (43)*
G04*
G04 Layer_Color=128*
%FSLAX44Y44*%
%MOMM*%
G71*
G04*
G04 #@! TF.SameCoordinates,71FBA96F-98A1-49F9-A78B-1FB66A7A07A6*
G04*
G04*
G04 #@! TF.FilePolarity,Positive*
G04*
G01*
G75*
%ADD98C,0.1270*%
D98*
X518500Y95000D02*
X521500D01*
X520000Y93500D02*
Y96500D01*
X598990Y36119D02*
X601990D01*
X600490Y34619D02*
Y37619D01*
X603500Y20000D02*
X606500D01*
X605000Y18500D02*
Y21500D01*
X551000Y62500D02*
X554000D01*
X552500Y61000D02*
Y64000D01*
X588500Y32500D02*
X591500D01*
X590000Y31000D02*
Y34000D01*
X598500Y90000D02*
X601500D01*
X600000Y88500D02*
Y91500D01*
X566000Y97500D02*
X569000D01*
X567500Y96000D02*
Y99000D01*
X536409Y111216D02*
X539409D01*
X537909Y109716D02*
Y112716D01*
X531000Y92500D02*
X534000D01*
X532500Y91000D02*
Y94000D01*
X551000Y92500D02*
X554000D01*
X552500Y91000D02*
Y94000D01*
X576000Y77500D02*
X579000D01*
X577500Y76000D02*
Y79000D01*
X596000Y50000D02*
X599000D01*
X597500Y48500D02*
Y51500D01*
X582101Y48635D02*
X585101D01*
X583601Y47135D02*
Y50135D01*
X563500Y75000D02*
X566500D01*
X565000Y73500D02*
Y76500D01*
X583500Y85000D02*
X586500D01*
X585000Y83500D02*
Y86500D01*
X557822Y84676D02*
X560822D01*
X559322Y83176D02*
Y86176D01*
X541000Y75000D02*
X544000D01*
X542500Y73500D02*
Y76500D01*
X613500Y245000D02*
X616500D01*
X615000Y243500D02*
Y246500D01*
X543500Y280000D02*
X546500D01*
X545000Y278500D02*
Y281500D01*
X556000Y227500D02*
X559000D01*
X557500Y226000D02*
Y229000D01*
X561000Y217500D02*
X564000D01*
X562500Y216000D02*
Y219000D01*
X718500Y177500D02*
X721500D01*
X720000Y176000D02*
Y179000D01*
X653500Y192500D02*
X656500D01*
X655000Y191000D02*
Y194000D01*
X671000Y207500D02*
X674000D01*
X672500Y206000D02*
Y209000D01*
X641000Y207500D02*
X644000D01*
X642500Y206000D02*
Y209000D01*
X626000Y210000D02*
X629000D01*
X627500Y208500D02*
Y211500D01*
X618500Y212500D02*
X621500D01*
X620000Y211000D02*
Y214000D01*
X593500Y225000D02*
X596500D01*
X595000Y223500D02*
Y226500D01*
X588500Y247500D02*
X591500D01*
X590000Y246000D02*
Y249000D01*
X588500Y255000D02*
X591500D01*
X590000Y253500D02*
Y256500D01*
X581000Y240000D02*
X584000D01*
X582500Y238500D02*
Y241500D01*
X581000Y247500D02*
X584000D01*
X582500Y246000D02*
Y249000D01*
X581000Y255000D02*
X584000D01*
X582500Y253500D02*
Y256500D01*
X493500Y527500D02*
X496500D01*
X495000Y526000D02*
Y529000D01*
X482400Y205000D02*
X485400D01*
X483900Y203500D02*
Y206500D01*
X468500Y367500D02*
X471500D01*
X470000Y366000D02*
Y369000D01*
X589200Y367500D02*
X592200D01*
X590700Y366000D02*
Y369000D01*
X415684Y355316D02*
X418684D01*
X417184Y353815D02*
Y356815D01*
X413201Y341518D02*
X416201D01*
X414701Y340018D02*
Y343018D01*
X436000Y127500D02*
X439000D01*
X437500Y126000D02*
Y129000D01*
X891000Y80000D02*
X894000D01*
X892500Y78500D02*
Y81500D01*
X368500Y205000D02*
X371500D01*
X370000Y203500D02*
Y206500D01*
X703500Y452500D02*
X706500D01*
X705000Y451000D02*
Y454000D01*
X466000Y7500D02*
X469000D01*
X467500Y6000D02*
Y9000D01*
X591000Y65000D02*
X594000D01*
X592500Y63500D02*
Y66500D01*
X566000Y47500D02*
X569000D01*
X567500Y46000D02*
Y49000D01*
X541000Y222500D02*
X544000D01*
X542500Y221000D02*
Y224000D01*
X412937Y135733D02*
X415937D01*
X414437Y134233D02*
Y137233D01*
X438500Y192500D02*
X441500D01*
X440000Y191000D02*
Y194000D01*
X543500Y190000D02*
X546500D01*
X545000Y188500D02*
Y191500D01*
X565085Y239076D02*
X568085D01*
X566585Y237577D02*
Y240576D01*
X541000Y275000D02*
X544000D01*
X542500Y273500D02*
Y276500D01*
X656000Y377500D02*
X659000D01*
X657500Y376000D02*
Y379000D01*
X536000Y370000D02*
X539000D01*
X537500Y368500D02*
Y371500D01*
X466000Y442500D02*
X469000D01*
X467500Y441000D02*
Y444000D01*
X433500Y320000D02*
X436500D01*
X435000Y318500D02*
Y321500D01*
X416000Y410000D02*
X419000D01*
X417500Y408500D02*
Y411500D01*
X518693Y524376D02*
X521693D01*
X520192Y522876D02*
Y525876D01*
X801000Y350000D02*
X804000D01*
X802500Y348500D02*
Y351500D01*
M02*
