G04*
G04 #@! TF.GenerationSoftware,Altium Limited,Altium Designer,23.9.2 (47)*
G04*
G04 Layer_Physical_Order=4*
G04 Layer_Color=16711680*
%FSLAX44Y44*%
%MOMM*%
G71*
G04*
G04 #@! TF.SameCoordinates,BF23419C-D5C0-4E1A-95B4-56374A78EA95*
G04*
G04*
G04 #@! TF.FilePolarity,Positive*
G04*
G01*
G75*
%ADD11C,0.2000*%
%ADD44C,1.8500*%
%ADD45C,1.3000*%
%ADD48C,1.7000*%
%ADD57C,1.5000*%
%ADD58C,1.0000*%
%ADD59C,2.0000*%
%ADD60C,2.0000*%
%ADD64R,1.1500X1.3500*%
%ADD65R,1.3500X1.1500*%
%ADD66R,1.3000X0.9000*%
G04:AMPARAMS|DCode=70|XSize=1.3mm|YSize=1.1mm|CornerRadius=0.275mm|HoleSize=0mm|Usage=FLASHONLY|Rotation=270.000|XOffset=0mm|YOffset=0mm|HoleType=Round|Shape=RoundedRectangle|*
%AMROUNDEDRECTD70*
21,1,1.3000,0.5500,0,0,270.0*
21,1,0.7500,1.1000,0,0,270.0*
1,1,0.5500,-0.2750,-0.3750*
1,1,0.5500,-0.2750,0.3750*
1,1,0.5500,0.2750,0.3750*
1,1,0.5500,0.2750,-0.3750*
%
%ADD70ROUNDEDRECTD70*%
%ADD71R,1.2500X1.5500*%
G04:AMPARAMS|DCode=74|XSize=0.6mm|YSize=1.45mm|CornerRadius=0.051mm|HoleSize=0mm|Usage=FLASHONLY|Rotation=90.000|XOffset=0mm|YOffset=0mm|HoleType=Round|Shape=RoundedRectangle|*
%AMROUNDEDRECTD74*
21,1,0.6000,1.3480,0,0,90.0*
21,1,0.4980,1.4500,0,0,90.0*
1,1,0.1020,0.6740,0.2490*
1,1,0.1020,0.6740,-0.2490*
1,1,0.1020,-0.6740,-0.2490*
1,1,0.1020,-0.6740,0.2490*
%
%ADD74ROUNDEDRECTD74*%
%ADD75C,0.5000*%
%ADD77C,7.0000*%
G04:AMPARAMS|DCode=78|XSize=1.5mm|YSize=1.5mm|CornerRadius=0.375mm|HoleSize=0mm|Usage=FLASHONLY|Rotation=180.000|XOffset=0mm|YOffset=0mm|HoleType=Round|Shape=RoundedRectangle|*
%AMROUNDEDRECTD78*
21,1,1.5000,0.7500,0,0,180.0*
21,1,0.7500,1.5000,0,0,180.0*
1,1,0.7500,-0.3750,0.3750*
1,1,0.7500,0.3750,0.3750*
1,1,0.7500,0.3750,-0.3750*
1,1,0.7500,-0.3750,-0.3750*
%
%ADD78ROUNDEDRECTD78*%
%ADD79R,1.7000X1.7000*%
G04:AMPARAMS|DCode=80|XSize=1.6mm|YSize=1.6mm|CornerRadius=0.4mm|HoleSize=0mm|Usage=FLASHONLY|Rotation=0.000|XOffset=0mm|YOffset=0mm|HoleType=Round|Shape=RoundedRectangle|*
%AMROUNDEDRECTD80*
21,1,1.6000,0.8000,0,0,0.0*
21,1,0.8000,1.6000,0,0,0.0*
1,1,0.8000,0.4000,-0.4000*
1,1,0.8000,-0.4000,-0.4000*
1,1,0.8000,-0.4000,0.4000*
1,1,0.8000,0.4000,0.4000*
%
%ADD80ROUNDEDRECTD80*%
%ADD81C,1.6000*%
G04:AMPARAMS|DCode=82|XSize=1.5mm|YSize=1.5mm|CornerRadius=0.375mm|HoleSize=0mm|Usage=FLASHONLY|Rotation=90.000|XOffset=0mm|YOffset=0mm|HoleType=Round|Shape=RoundedRectangle|*
%AMROUNDEDRECTD82*
21,1,1.5000,0.7500,0,0,90.0*
21,1,0.7500,1.5000,0,0,90.0*
1,1,0.7500,0.3750,0.3750*
1,1,0.7500,0.3750,-0.3750*
1,1,0.7500,-0.3750,-0.3750*
1,1,0.7500,-0.3750,0.3750*
%
%ADD82ROUNDEDRECTD82*%
%ADD83C,1.2000*%
%ADD84R,1.2000X1.2000*%
%ADD85R,2.0000X2.0000*%
%ADD86C,0.7000*%
%ADD87C,1.0000*%
G04:AMPARAMS|DCode=88|XSize=0.6mm|YSize=1.45mm|CornerRadius=0.15mm|HoleSize=0mm|Usage=FLASHONLY|Rotation=90.000|XOffset=0mm|YOffset=0mm|HoleType=Round|Shape=RoundedRectangle|*
%AMROUNDEDRECTD88*
21,1,0.6000,1.1500,0,0,90.0*
21,1,0.3000,1.4500,0,0,90.0*
1,1,0.3000,0.5750,0.1500*
1,1,0.3000,0.5750,-0.1500*
1,1,0.3000,-0.5750,-0.1500*
1,1,0.3000,-0.5750,0.1500*
%
%ADD88ROUNDEDRECTD88*%
G04:AMPARAMS|DCode=89|XSize=0.65mm|YSize=1.25mm|CornerRadius=0.1625mm|HoleSize=0mm|Usage=FLASHONLY|Rotation=270.000|XOffset=0mm|YOffset=0mm|HoleType=Round|Shape=RoundedRectangle|*
%AMROUNDEDRECTD89*
21,1,0.6500,0.9250,0,0,270.0*
21,1,0.3250,1.2500,0,0,270.0*
1,1,0.3250,-0.4625,-0.1625*
1,1,0.3250,-0.4625,0.1625*
1,1,0.3250,0.4625,0.1625*
1,1,0.3250,0.4625,-0.1625*
%
%ADD89ROUNDEDRECTD89*%
%ADD90R,0.9000X1.3000*%
G04:AMPARAMS|DCode=91|XSize=0.65mm|YSize=1.25mm|CornerRadius=0.1625mm|HoleSize=0mm|Usage=FLASHONLY|Rotation=180.000|XOffset=0mm|YOffset=0mm|HoleType=Round|Shape=RoundedRectangle|*
%AMROUNDEDRECTD91*
21,1,0.6500,0.9250,0,0,180.0*
21,1,0.3250,1.2500,0,0,180.0*
1,1,0.3250,-0.1625,0.4625*
1,1,0.3250,0.1625,0.4625*
1,1,0.3250,0.1625,-0.4625*
1,1,0.3250,-0.1625,-0.4625*
%
%ADD91ROUNDEDRECTD91*%
%ADD92R,1.5500X1.2500*%
%ADD93R,4.5000X5.6000*%
G04:AMPARAMS|DCode=94|XSize=1.1mm|YSize=0.9mm|CornerRadius=0.225mm|HoleSize=0mm|Usage=FLASHONLY|Rotation=270.000|XOffset=0mm|YOffset=0mm|HoleType=Round|Shape=RoundedRectangle|*
%AMROUNDEDRECTD94*
21,1,1.1000,0.4500,0,0,270.0*
21,1,0.6500,0.9000,0,0,270.0*
1,1,0.4500,-0.2250,-0.3250*
1,1,0.4500,-0.2250,0.3250*
1,1,0.4500,0.2250,0.3250*
1,1,0.4500,0.2250,-0.3250*
%
%ADD94ROUNDEDRECTD94*%
%ADD95R,1.5000X3.5000*%
G36*
X962500Y535000D02*
X1017961D01*
X1018373Y533730D01*
X1013942Y530510D01*
X1012423Y528991D01*
X1040000Y501414D01*
X1067577Y528991D01*
X1066058Y530510D01*
X1061627Y533730D01*
X1062039Y535000D01*
X1100000D01*
X1100000Y234140D01*
X1100000Y231902D01*
X1099416Y227465D01*
X1098258Y223142D01*
X1096545Y219007D01*
X1094308Y215131D01*
X1091583Y211581D01*
X1088419Y208416D01*
X1084868Y205691D01*
X1080993Y203454D01*
X1076858Y201741D01*
X1072535Y200582D01*
X1068098Y199998D01*
X1065860Y199998D01*
X1065000Y200000D01*
X34140Y200000D01*
X31902D01*
X27465Y200584D01*
X23142Y201742D01*
X19008Y203455D01*
X15132Y205693D01*
X11582Y208417D01*
X8417Y211582D01*
X5693Y215132D01*
X3455Y219008D01*
X1742Y223143D01*
X584Y227465D01*
X0Y231902D01*
Y234140D01*
Y535000D01*
X37961D01*
X38373Y533730D01*
X33942Y530510D01*
X32423Y528991D01*
X60000Y501414D01*
X87577Y528991D01*
X86058Y530510D01*
X81627Y533730D01*
X82039Y535000D01*
X280000D01*
X355000Y610000D01*
X887500D01*
X962500Y535000D01*
D02*
G37*
%LPC*%
G36*
X759086Y608500D02*
X734914D01*
X747000Y596414D01*
X759086Y608500D01*
D02*
G37*
G36*
X560250Y601567D02*
X554750D01*
X552727Y601301D01*
X550842Y600520D01*
X550023Y599891D01*
X557500Y592414D01*
X564977Y599891D01*
X564158Y600520D01*
X562273Y601301D01*
X560250Y601567D01*
D02*
G37*
G36*
X733500Y607086D02*
Y583059D01*
X568460D01*
X567861Y583954D01*
X567814Y584329D01*
X568067Y586250D01*
Y593750D01*
X567800Y595773D01*
X567020Y597658D01*
X566391Y598477D01*
X558207Y590293D01*
X557500Y591000D01*
X556793Y590293D01*
X548609Y598477D01*
X547980Y597658D01*
X547200Y595773D01*
X546933Y593750D01*
Y586250D01*
X547186Y584329D01*
X547139Y583954D01*
X546540Y583059D01*
X530178D01*
X529579Y584179D01*
X529724Y584397D01*
X530093Y586250D01*
Y593750D01*
X529724Y595603D01*
X528675Y597174D01*
X527103Y598224D01*
X525250Y598593D01*
X519750D01*
X517897Y598224D01*
X516325Y597174D01*
X515276Y595603D01*
X515074Y594588D01*
X504901D01*
X503500Y595989D01*
Y596382D01*
X502784Y599053D01*
X501402Y601447D01*
X499447Y603402D01*
X497053Y604784D01*
X494382Y605500D01*
X491618D01*
X488947Y604784D01*
X486553Y603402D01*
X484598Y601447D01*
X483216Y599053D01*
X482500Y596382D01*
Y593618D01*
X483216Y590947D01*
X484598Y588553D01*
X486553Y586598D01*
X488947Y585216D01*
X491618Y584500D01*
X494382D01*
X497053Y585216D01*
X499447Y586598D01*
X499680Y586831D01*
X499756Y586756D01*
X501244Y585761D01*
X503000Y585412D01*
X515074D01*
X515276Y584397D01*
X515421Y584179D01*
X514823Y583059D01*
X385000D01*
X385000Y583059D01*
X383829Y582826D01*
X382837Y582163D01*
X296233Y495559D01*
X273767D01*
X270413Y498913D01*
X270250Y499022D01*
Y506954D01*
X270309Y507250D01*
Y508225D01*
X270326Y508251D01*
X270559Y509422D01*
X270559Y509422D01*
Y517578D01*
X271408Y517747D01*
X272814Y518686D01*
X273753Y520092D01*
X274083Y521750D01*
Y528250D01*
X273753Y529908D01*
X272814Y531314D01*
X271408Y532253D01*
X269750Y532583D01*
X265250D01*
X263592Y532253D01*
X262186Y531314D01*
X261247Y529908D01*
X260917Y528250D01*
Y521750D01*
X261247Y520092D01*
X262186Y518686D01*
X263592Y517747D01*
X264441Y517578D01*
Y511250D01*
X254750D01*
Y493750D01*
X266924D01*
X270337Y490337D01*
X270337Y490337D01*
X271329Y489674D01*
X272500Y489441D01*
X297500D01*
X297500Y489441D01*
X298671Y489674D01*
X299663Y490337D01*
X386267Y576941D01*
X851233D01*
X896541Y531633D01*
Y520117D01*
X895600D01*
X893259Y519652D01*
X891274Y518326D01*
X889948Y516341D01*
X889482Y514000D01*
Y506000D01*
X889948Y503659D01*
X891274Y501674D01*
X893259Y500348D01*
X895600Y499883D01*
X903600D01*
X905941Y500348D01*
X907926Y501674D01*
X909252Y503659D01*
X909717Y506000D01*
Y514000D01*
X909252Y516341D01*
X907926Y518326D01*
X905941Y519652D01*
X903600Y520117D01*
X902659D01*
Y532900D01*
X902426Y534071D01*
X901763Y535063D01*
X854663Y582163D01*
X853671Y582826D01*
X852500Y583059D01*
X852500Y583059D01*
X760500D01*
Y607086D01*
X747707Y594293D01*
X747000Y595000D01*
X746293Y594293D01*
X733500Y607086D01*
D02*
G37*
G36*
X625000Y565559D02*
X625000Y565559D01*
X452500D01*
X452500Y565559D01*
X451329Y565326D01*
X450337Y564663D01*
X422837Y537163D01*
X422174Y536171D01*
X421941Y535000D01*
X421941Y535000D01*
Y463767D01*
X418533Y460359D01*
X416936D01*
X416854Y460769D01*
X416300Y461600D01*
X415469Y462154D01*
X414490Y462349D01*
X401010D01*
X400031Y462154D01*
X399200Y461600D01*
X398646Y460769D01*
X398451Y459790D01*
Y454810D01*
X398646Y453831D01*
X399200Y453000D01*
X400031Y452446D01*
X401010Y452251D01*
X414490D01*
X415469Y452446D01*
X416300Y453000D01*
X416854Y453831D01*
X416936Y454241D01*
X419800D01*
X419800Y454241D01*
X420970Y454474D01*
X421963Y455137D01*
X427163Y460337D01*
X427163Y460337D01*
X427826Y461329D01*
X428059Y462500D01*
Y533733D01*
X453767Y559441D01*
X623733D01*
X643000Y540174D01*
Y528750D01*
X654424D01*
X659441Y523733D01*
Y501402D01*
X658171Y500723D01*
X658059Y500798D01*
Y502500D01*
X658059Y502500D01*
X657826Y503671D01*
X657163Y504663D01*
X651563Y510263D01*
X650571Y510926D01*
X649400Y511159D01*
X649400Y511159D01*
X641936D01*
X641854Y511569D01*
X641300Y512400D01*
X640469Y512954D01*
X639490Y513149D01*
X626010D01*
X625031Y512954D01*
X624200Y512400D01*
X623646Y511569D01*
X623451Y510590D01*
Y505610D01*
X623646Y504631D01*
X624200Y503800D01*
X625031Y503246D01*
X626010Y503051D01*
X639490D01*
X640469Y503246D01*
X641300Y503800D01*
X641854Y504631D01*
X641936Y505041D01*
X648133D01*
X651941Y501233D01*
Y499686D01*
X651885Y499663D01*
X650337Y498116D01*
X649500Y496094D01*
Y493906D01*
X650337Y491884D01*
X651885Y490337D01*
X653906Y489500D01*
X656094D01*
X658115Y490337D01*
X658268Y490490D01*
X659441Y490004D01*
Y455000D01*
X659441Y455000D01*
X659674Y453829D01*
X660337Y452837D01*
X670737Y442437D01*
X670737Y442437D01*
X671729Y441774D01*
X672900Y441541D01*
X678064D01*
X678146Y441131D01*
X678322Y440868D01*
X678352Y439839D01*
X677952Y439308D01*
X677385Y438929D01*
X683707Y432607D01*
X683000Y431900D01*
X683707Y431193D01*
X677385Y424871D01*
X678360Y424220D01*
X680510Y423792D01*
X693990D01*
X696140Y424220D01*
X697115Y424871D01*
X690793Y431193D01*
X691500Y431900D01*
X690793Y432607D01*
X697115Y438929D01*
X696548Y439308D01*
X696148Y439839D01*
X696179Y440868D01*
X696354Y441131D01*
X696436Y441541D01*
X721633D01*
X744632Y418542D01*
X743818Y417132D01*
X743000Y414080D01*
Y410920D01*
X743818Y407868D01*
X745398Y405132D01*
X747632Y402898D01*
X750368Y401318D01*
X753420Y400500D01*
X756580D01*
X759632Y401318D01*
X762368Y402898D01*
X764602Y405132D01*
X766182Y407868D01*
X767000Y410920D01*
Y414080D01*
X766182Y417132D01*
X764602Y419868D01*
X762368Y422102D01*
X759632Y423682D01*
X756580Y424500D01*
X753420D01*
X750368Y423682D01*
X748958Y422868D01*
X725063Y446763D01*
X724071Y447426D01*
X722900Y447659D01*
X722900Y447659D01*
X696436D01*
X696354Y448069D01*
X695800Y448900D01*
X694969Y449454D01*
X693990Y449649D01*
X680510D01*
X679531Y449454D01*
X678700Y448900D01*
X678146Y448069D01*
X678064Y447659D01*
X674167D01*
X665910Y455915D01*
X666008Y456639D01*
X666967Y457100D01*
X667351Y457168D01*
X669243Y456385D01*
X671431D01*
X673453Y457222D01*
X675000Y458769D01*
X675837Y460790D01*
Y461225D01*
X679721Y465108D01*
X680510Y464951D01*
X693990D01*
X694969Y465146D01*
X695800Y465700D01*
X696354Y466531D01*
X696549Y467510D01*
Y468163D01*
X698722D01*
X698722Y468163D01*
X699893Y468396D01*
X700885Y469059D01*
X704663Y472837D01*
X705326Y473829D01*
X705559Y475000D01*
X705559Y475000D01*
Y492500D01*
X705559Y492500D01*
X705326Y493671D01*
X704663Y494663D01*
X701763Y497563D01*
X700770Y498226D01*
X699600Y498459D01*
X699600Y498459D01*
X696436D01*
X696354Y498869D01*
X695800Y499700D01*
X694969Y500254D01*
X693990Y500449D01*
X680510D01*
X679531Y500254D01*
X678700Y499700D01*
X678146Y498869D01*
X677951Y497890D01*
Y492910D01*
X678146Y491931D01*
X678700Y491100D01*
X679531Y490546D01*
X680510Y490351D01*
X693990D01*
X694969Y490546D01*
X695800Y491100D01*
X696354Y491931D01*
X696436Y492341D01*
X698333D01*
X699441Y491233D01*
Y476267D01*
X697455Y474281D01*
X695812D01*
X695800Y474300D01*
X694969Y474854D01*
X693990Y475049D01*
X680510D01*
X679531Y474854D01*
X678700Y474300D01*
X678146Y473469D01*
X677951Y472490D01*
Y471300D01*
X677501Y471211D01*
X676509Y470547D01*
X676509Y470547D01*
X672785Y466824D01*
X671431Y467384D01*
X669243D01*
X667222Y466547D01*
X666829Y466154D01*
X665559Y466680D01*
Y477985D01*
X666829Y478511D01*
X667692Y477648D01*
X669713Y476811D01*
X671901D01*
X673923Y477648D01*
X675470Y479195D01*
X675655Y479641D01*
X678064D01*
X678146Y479231D01*
X678700Y478400D01*
X679531Y477846D01*
X680510Y477651D01*
X693990D01*
X694969Y477846D01*
X695800Y478400D01*
X696354Y479231D01*
X696549Y480210D01*
Y485190D01*
X696354Y486169D01*
X695800Y487000D01*
X694969Y487554D01*
X693990Y487749D01*
X680510D01*
X679531Y487554D01*
X678700Y487000D01*
X678146Y486169D01*
X678064Y485759D01*
X675137D01*
X673923Y486973D01*
X671901Y487811D01*
X669713D01*
X667692Y486973D01*
X666829Y486110D01*
X665559Y486637D01*
Y525000D01*
X666174Y525750D01*
X678586D01*
X668543Y535793D01*
X669957Y537207D01*
X680000Y527164D01*
Y547836D01*
X669957Y537793D01*
X669250Y538500D01*
X668543Y537793D01*
X658500Y547836D01*
Y546250D01*
X645576D01*
X627163Y564663D01*
X626171Y565326D01*
X625000Y565559D01*
D02*
G37*
G36*
X791000Y561250D02*
X775500D01*
Y558309D01*
X762750D01*
X762750Y558309D01*
X761580Y558076D01*
X760587Y557413D01*
X760587Y557413D01*
X747837Y544663D01*
X747174Y543671D01*
X746941Y542500D01*
X746941Y542500D01*
Y537000D01*
X741250D01*
Y521500D01*
X758750D01*
Y526191D01*
X764483D01*
X784980Y505694D01*
X784980Y505694D01*
X785973Y505031D01*
X787143Y504798D01*
X793442D01*
X793703Y503484D01*
X794477Y502327D01*
X795634Y501553D01*
X797000Y501281D01*
X808500D01*
X809866Y501553D01*
X811023Y502327D01*
X811797Y503484D01*
X812069Y504850D01*
Y507850D01*
X811797Y509216D01*
X811023Y510373D01*
X809866Y511147D01*
X808500Y511419D01*
X797000D01*
X795634Y511147D01*
X795288Y510916D01*
X788410D01*
X767913Y531413D01*
X766920Y532076D01*
X765750Y532309D01*
X765750Y532309D01*
X758750D01*
Y537000D01*
X753059D01*
Y541233D01*
X764017Y552191D01*
X775500D01*
Y543750D01*
X791000D01*
Y561250D01*
D02*
G37*
G36*
X678586Y549250D02*
X659914D01*
X669250Y539914D01*
X678586Y549250D01*
D02*
G37*
G36*
X295150Y535563D02*
X290650D01*
X288757Y535313D01*
X286994Y534583D01*
X286279Y534035D01*
X292900Y527414D01*
X299520Y534035D01*
X298806Y534583D01*
X297043Y535313D01*
X295150Y535563D01*
D02*
G37*
G36*
X300935Y532621D02*
X293607Y525293D01*
X292900Y526000D01*
X292193Y525293D01*
X284865Y532621D01*
X284317Y531906D01*
X283587Y530143D01*
X283337Y528250D01*
Y521750D01*
X283587Y519857D01*
X284317Y518094D01*
X284865Y517379D01*
X292193Y524707D01*
X292900Y524000D01*
X293607Y524707D01*
X300935Y517379D01*
X301483Y518094D01*
X302213Y519857D01*
X302463Y521750D01*
Y528250D01*
X302213Y530143D01*
X301483Y531906D01*
X300935Y532621D01*
D02*
G37*
G36*
X192896Y526700D02*
X189604D01*
X186425Y525848D01*
X183575Y524202D01*
X183118Y523746D01*
X191250Y515614D01*
X199382Y523746D01*
X198925Y524202D01*
X196075Y525848D01*
X192896Y526700D01*
D02*
G37*
G36*
X292900Y522586D02*
X286279Y515965D01*
X286994Y515417D01*
X288757Y514687D01*
X290650Y514437D01*
X295150D01*
X297043Y514687D01*
X298806Y515417D01*
X299521Y515965D01*
X292900Y522586D01*
D02*
G37*
G36*
X803594Y575500D02*
X801406D01*
X799385Y574663D01*
X797837Y573116D01*
X797000Y571094D01*
Y568906D01*
X797837Y566884D01*
X799385Y565337D01*
X799691Y565210D01*
Y561250D01*
X794000D01*
Y543750D01*
X799691D01*
Y524119D01*
X797000D01*
X795634Y523847D01*
X794477Y523073D01*
X793703Y521916D01*
X793431Y520550D01*
Y517550D01*
X793703Y516184D01*
X794477Y515027D01*
X795634Y514253D01*
X797000Y513981D01*
X808500D01*
X809866Y514253D01*
X811023Y515027D01*
X811797Y516184D01*
X812069Y517550D01*
Y520550D01*
X811797Y521916D01*
X811023Y523073D01*
X809866Y523847D01*
X808500Y524119D01*
X805809D01*
Y543750D01*
X809500D01*
Y561250D01*
X805809D01*
Y565531D01*
X807163Y566884D01*
X808000Y568906D01*
Y571094D01*
X807163Y573116D01*
X805615Y574663D01*
X803594Y575500D01*
D02*
G37*
G36*
X846250Y524386D02*
X845822Y523828D01*
X845167Y522247D01*
X844944Y520550D01*
Y517550D01*
X845167Y515853D01*
X845822Y514272D01*
X846250Y513714D01*
X851586Y519050D01*
X846250Y524386D01*
D02*
G37*
G36*
X868250Y524386D02*
X862914Y519050D01*
X868250Y513714D01*
X868678Y514272D01*
X869333Y515853D01*
X869556Y517550D01*
Y520550D01*
X869333Y522247D01*
X868678Y523828D01*
X868250Y524386D01*
D02*
G37*
G36*
X705494Y513600D02*
X703306D01*
X701284Y512763D01*
X699737Y511216D01*
X699714Y511159D01*
X696436D01*
X696354Y511569D01*
X695800Y512400D01*
X694969Y512954D01*
X693990Y513149D01*
X680510D01*
X679531Y512954D01*
X678700Y512400D01*
X678146Y511569D01*
X677951Y510590D01*
Y505610D01*
X678146Y504631D01*
X678700Y503800D01*
X679531Y503246D01*
X680510Y503051D01*
X693990D01*
X694969Y503246D01*
X695800Y503800D01*
X696354Y504631D01*
X696436Y505041D01*
X699714D01*
X699737Y504985D01*
X701284Y503437D01*
X703306Y502600D01*
X705494D01*
X707515Y503437D01*
X709063Y504985D01*
X709900Y507006D01*
Y509194D01*
X709063Y511216D01*
X707515Y512763D01*
X705494Y513600D01*
D02*
G37*
G36*
X863000Y527106D02*
X851500D01*
X849803Y526883D01*
X848222Y526228D01*
X847664Y525800D01*
X853707Y519757D01*
X853000Y519050D01*
X853707Y518343D01*
X847664Y512300D01*
X848222Y511872D01*
X848661Y511690D01*
X848897Y510708D01*
X848878Y510226D01*
X848332Y509409D01*
X828850D01*
X828850Y509409D01*
X827680Y509176D01*
X826687Y508513D01*
X826687Y508513D01*
X814883Y496709D01*
X811668D01*
X811023Y497673D01*
X809866Y498447D01*
X808500Y498719D01*
X797000D01*
X795634Y498447D01*
X794477Y497673D01*
X793832Y496709D01*
X787889D01*
X787889Y496709D01*
X786719Y496476D01*
X785726Y495813D01*
X785726Y495813D01*
X782472Y492559D01*
X758500D01*
Y496000D01*
X753059D01*
Y503000D01*
X758750D01*
Y518500D01*
X741250D01*
Y503000D01*
X746941D01*
Y496000D01*
X741500D01*
Y483000D01*
X758500D01*
Y486441D01*
X783739D01*
X783739Y486441D01*
X784910Y486674D01*
X785902Y487337D01*
X789156Y490591D01*
X793832D01*
X794477Y489627D01*
X795634Y488853D01*
X797000Y488581D01*
X808500D01*
X809866Y488853D01*
X811023Y489627D01*
X811668Y490591D01*
X816150D01*
X816150Y490591D01*
X817320Y490824D01*
X818313Y491487D01*
X830117Y503291D01*
X848332D01*
X848977Y502327D01*
X850134Y501553D01*
X851500Y501281D01*
X863000D01*
X864366Y501553D01*
X865523Y502327D01*
X866297Y503484D01*
X866569Y504850D01*
Y507850D01*
X866297Y509216D01*
X865622Y510226D01*
X865603Y510708D01*
X865838Y511690D01*
X866278Y511872D01*
X866836Y512300D01*
X860793Y518343D01*
X861500Y519050D01*
X860793Y519757D01*
X866836Y525800D01*
X866278Y526228D01*
X864697Y526883D01*
X863000Y527106D01*
D02*
G37*
G36*
X181704Y522332D02*
X181248Y521875D01*
X179602Y519025D01*
X178750Y515846D01*
Y512554D01*
X179602Y509375D01*
X181248Y506525D01*
X181704Y506068D01*
X189836Y514200D01*
X181704Y522332D01*
D02*
G37*
G36*
X200796D02*
X192664Y514200D01*
X200796Y506068D01*
X201252Y506525D01*
X202898Y509375D01*
X203750Y512554D01*
Y515846D01*
X202898Y519025D01*
X201252Y521875D01*
X200796Y522332D01*
D02*
G37*
G36*
X468990Y513149D02*
X455510D01*
X454531Y512954D01*
X453700Y512400D01*
X453146Y511569D01*
X452951Y510590D01*
Y505610D01*
X453146Y504631D01*
X453700Y503800D01*
X454531Y503246D01*
X455510Y503051D01*
X468990D01*
X469969Y503246D01*
X470800Y503800D01*
X471354Y504631D01*
X471549Y505610D01*
Y510590D01*
X471354Y511569D01*
X470800Y512400D01*
X469969Y512954D01*
X468990Y513149D01*
D02*
G37*
G36*
X419029Y513715D02*
X413414Y508100D01*
X419029Y502485D01*
X419680Y503460D01*
X420108Y505610D01*
Y510590D01*
X419680Y512740D01*
X419029Y513715D01*
D02*
G37*
G36*
X396471Y513715D02*
X395820Y512740D01*
X395392Y510590D01*
Y505610D01*
X395820Y503460D01*
X396471Y502485D01*
X402086Y508100D01*
X396471Y513715D01*
D02*
G37*
G36*
X191250Y512786D02*
X183118Y504654D01*
X183575Y504198D01*
X186425Y502552D01*
X189604Y501700D01*
X192896D01*
X196075Y502552D01*
X198925Y504198D01*
X199382Y504654D01*
X191250Y512786D01*
D02*
G37*
G36*
X639490Y500449D02*
X626010D01*
X625031Y500254D01*
X624200Y499700D01*
X623646Y498869D01*
X623451Y497890D01*
Y492910D01*
X623646Y491931D01*
X624200Y491100D01*
X625031Y490546D01*
X626010Y490351D01*
X639490D01*
X640469Y490546D01*
X641300Y491100D01*
X641854Y491931D01*
X642049Y492910D01*
Y497890D01*
X641854Y498869D01*
X641300Y499700D01*
X640469Y500254D01*
X639490Y500449D01*
D02*
G37*
G36*
X526990D02*
X513510D01*
X512531Y500254D01*
X511700Y499700D01*
X511146Y498869D01*
X510951Y497890D01*
Y492910D01*
X511146Y491931D01*
X511700Y491100D01*
X512531Y490546D01*
X513510Y490351D01*
X526990D01*
X527969Y490546D01*
X528800Y491100D01*
X529354Y491931D01*
X529549Y492910D01*
Y497890D01*
X529354Y498869D01*
X528800Y499700D01*
X527969Y500254D01*
X526990Y500449D01*
D02*
G37*
G36*
X838594Y500500D02*
X836406D01*
X834385Y499663D01*
X832837Y498116D01*
X832000Y496094D01*
Y493906D01*
X832837Y491884D01*
X834385Y490337D01*
X836406Y489500D01*
X837502D01*
X837635Y489411D01*
X839391Y489062D01*
X849822D01*
X850134Y488853D01*
X851500Y488581D01*
X863000D01*
X864366Y488853D01*
X865523Y489627D01*
X866297Y490784D01*
X866569Y492150D01*
Y495150D01*
X866297Y496516D01*
X865523Y497673D01*
X864366Y498447D01*
X863000Y498719D01*
X851500D01*
X850134Y498447D01*
X849822Y498238D01*
X842040D01*
X840615Y499663D01*
X838594Y500500D01*
D02*
G37*
G36*
X926317Y520000D02*
X923683D01*
X921140Y519319D01*
X918860Y518002D01*
X916998Y516140D01*
X915682Y513860D01*
X915000Y511316D01*
Y508684D01*
X915682Y506140D01*
X916998Y503860D01*
X918860Y501998D01*
X920138Y501260D01*
X920347Y499673D01*
X903733Y483059D01*
X866448D01*
X866297Y483816D01*
X865523Y484973D01*
X864366Y485747D01*
X863000Y486019D01*
X851500D01*
X850134Y485747D01*
X848977Y484973D01*
X848203Y483816D01*
X847931Y482450D01*
Y479450D01*
X848203Y478084D01*
X848977Y476927D01*
X850134Y476153D01*
X851500Y475881D01*
X863000D01*
X864366Y476153D01*
X865523Y476927D01*
X865533Y476941D01*
X905000D01*
X905000Y476941D01*
X906171Y477174D01*
X907163Y477837D01*
X927163Y497837D01*
X927163Y497837D01*
X927826Y498829D01*
X928059Y500000D01*
X928059Y500000D01*
Y500467D01*
X928860Y500681D01*
X931140Y501998D01*
X933002Y503860D01*
X934318Y506140D01*
X935000Y508684D01*
Y511316D01*
X934318Y513860D01*
X933002Y516140D01*
X931140Y518002D01*
X928860Y519319D01*
X926317Y520000D01*
D02*
G37*
G36*
X251750Y511250D02*
X236250D01*
Y493750D01*
X240941D01*
Y490308D01*
X239384Y489663D01*
X237837Y488116D01*
X237000Y486094D01*
Y483906D01*
X237837Y481884D01*
X239384Y480337D01*
X241406Y479500D01*
X243594D01*
X245616Y480337D01*
X247163Y481884D01*
X248000Y483906D01*
Y486094D01*
X247163Y488116D01*
X247059Y488219D01*
Y493750D01*
X251750D01*
Y511250D01*
D02*
G37*
G36*
X195000Y498413D02*
X187500D01*
X185257Y497966D01*
X183354Y496696D01*
X182084Y494794D01*
X181637Y492550D01*
Y485050D01*
X182084Y482807D01*
X183354Y480905D01*
X185257Y479634D01*
X187500Y479187D01*
X195000D01*
X197243Y479634D01*
X199146Y480905D01*
X200416Y482807D01*
X200863Y485050D01*
Y492550D01*
X200416Y494794D01*
X199146Y496696D01*
X197243Y497966D01*
X195000Y498413D01*
D02*
G37*
G36*
X639490Y487749D02*
X626010D01*
X625031Y487554D01*
X624200Y487000D01*
X623646Y486169D01*
X623451Y485190D01*
Y480210D01*
X623646Y479231D01*
X624200Y478400D01*
X625031Y477846D01*
X626010Y477651D01*
X639490D01*
X640469Y477846D01*
X641300Y478400D01*
X641854Y479231D01*
X642049Y480210D01*
Y485190D01*
X641854Y486169D01*
X641300Y487000D01*
X640469Y487554D01*
X639490Y487749D01*
D02*
G37*
G36*
X526990D02*
X513510D01*
X512531Y487554D01*
X511700Y487000D01*
X511146Y486169D01*
X510951Y485190D01*
Y480210D01*
X511146Y479231D01*
X511700Y478400D01*
X512531Y477846D01*
X513510Y477651D01*
X526990D01*
X527969Y477846D01*
X528800Y478400D01*
X529354Y479231D01*
X529549Y480210D01*
Y485190D01*
X529354Y486169D01*
X528800Y487000D01*
X527969Y487554D01*
X526990Y487749D01*
D02*
G37*
G36*
X419029Y488315D02*
X413414Y482700D01*
X419029Y477085D01*
X419680Y478060D01*
X420108Y480210D01*
Y485190D01*
X419680Y487340D01*
X419029Y488315D01*
D02*
G37*
G36*
X396471Y488315D02*
X395820Y487340D01*
X395392Y485190D01*
Y480210D01*
X395820Y478060D01*
X396471Y477085D01*
X402086Y482700D01*
X396471Y488315D01*
D02*
G37*
G36*
X345086Y484250D02*
X326414D01*
X335750Y474914D01*
X345086Y484250D01*
D02*
G37*
G36*
X414490Y516208D02*
X401010D01*
X398860Y515780D01*
X397885Y515129D01*
X404207Y508807D01*
X403500Y508100D01*
X404207Y507393D01*
X397885Y501071D01*
X398452Y500692D01*
X398852Y500161D01*
X398821Y499132D01*
X398646Y498869D01*
X398451Y497890D01*
Y492910D01*
X398646Y491931D01*
X398821Y491668D01*
X398852Y490639D01*
X398452Y490108D01*
X397885Y489729D01*
X404207Y483407D01*
X403500Y482700D01*
X404207Y481993D01*
X397885Y475671D01*
X398452Y475292D01*
X398852Y474761D01*
X398821Y473732D01*
X398646Y473469D01*
X398564Y473059D01*
X393767D01*
X360476Y506349D01*
X360500Y506406D01*
Y508594D01*
X359663Y510616D01*
X358116Y512163D01*
X356094Y513000D01*
X353906D01*
X351884Y512163D01*
X350337Y510616D01*
X349500Y508594D01*
Y506406D01*
X350337Y504384D01*
X351884Y502837D01*
X353906Y502000D01*
X356094D01*
X356151Y502024D01*
X390337Y467837D01*
X390337Y467837D01*
X391329Y467174D01*
X392500Y466941D01*
X392500Y466941D01*
X398564D01*
X398646Y466531D01*
X399200Y465700D01*
X400031Y465146D01*
X401010Y464951D01*
X414490D01*
X415469Y465146D01*
X416300Y465700D01*
X416854Y466531D01*
X417049Y467510D01*
Y472490D01*
X416854Y473469D01*
X416679Y473732D01*
X416648Y474761D01*
X417048Y475292D01*
X417615Y475671D01*
X411293Y481993D01*
X412000Y482700D01*
X411293Y483407D01*
X417615Y489729D01*
X417048Y490108D01*
X416648Y490639D01*
X416679Y491668D01*
X416854Y491931D01*
X417049Y492910D01*
Y497890D01*
X416854Y498869D01*
X416679Y499132D01*
X416648Y500161D01*
X417048Y500692D01*
X417615Y501071D01*
X411293Y507393D01*
X412000Y508100D01*
X411293Y508807D01*
X417615Y515129D01*
X416640Y515780D01*
X414490Y516208D01*
D02*
G37*
G36*
X1068991Y527577D02*
X1041414Y500000D01*
X1068991Y472423D01*
X1070510Y473942D01*
X1074211Y479035D01*
X1077069Y484645D01*
X1079015Y490633D01*
X1080000Y496852D01*
Y503148D01*
X1079015Y509367D01*
X1077069Y515355D01*
X1074211Y520965D01*
X1070510Y526058D01*
X1068991Y527577D01*
D02*
G37*
G36*
X88991D02*
X61414Y500000D01*
X88991Y472423D01*
X90510Y473942D01*
X94211Y479035D01*
X97070Y484645D01*
X99015Y490633D01*
X100000Y496852D01*
Y503148D01*
X99015Y509367D01*
X97070Y515355D01*
X94211Y520965D01*
X90510Y526058D01*
X88991Y527577D01*
D02*
G37*
G36*
X1011009Y527577D02*
X1009490Y526058D01*
X1005789Y520965D01*
X1002931Y515355D01*
X1000985Y509367D01*
X1000000Y503148D01*
Y496852D01*
X1000985Y490633D01*
X1002931Y484645D01*
X1005789Y479035D01*
X1009490Y473942D01*
X1011009Y472423D01*
X1038586Y500000D01*
X1011009Y527577D01*
D02*
G37*
G36*
X31009D02*
X29490Y526058D01*
X25789Y520965D01*
X22931Y515355D01*
X20985Y509367D01*
X20000Y503148D01*
Y496852D01*
X20985Y490633D01*
X22931Y484645D01*
X25789Y479035D01*
X29490Y473942D01*
X31009Y472423D01*
X58586Y500000D01*
X31009Y527577D01*
D02*
G37*
G36*
X298586Y474000D02*
X282414D01*
X290500Y465914D01*
X298586Y474000D01*
D02*
G37*
G36*
X639490Y475049D02*
X626010D01*
X625031Y474854D01*
X624200Y474300D01*
X623646Y473469D01*
X623451Y472490D01*
Y467510D01*
X623646Y466531D01*
X624200Y465700D01*
X625031Y465146D01*
X626010Y464951D01*
X639490D01*
X640469Y465146D01*
X641300Y465700D01*
X641854Y466531D01*
X642049Y467510D01*
Y472490D01*
X641854Y473469D01*
X641300Y474300D01*
X640469Y474854D01*
X639490Y475049D01*
D02*
G37*
G36*
X526990D02*
X513510D01*
X512531Y474854D01*
X511700Y474300D01*
X511146Y473469D01*
X510951Y472490D01*
Y467510D01*
X511146Y466531D01*
X511700Y465700D01*
X512531Y465146D01*
X513510Y464951D01*
X526990D01*
X527969Y465146D01*
X528800Y465700D01*
X529354Y466531D01*
X529549Y467510D01*
Y472490D01*
X529354Y473469D01*
X528800Y474300D01*
X527969Y474854D01*
X526990Y475049D01*
D02*
G37*
G36*
X761500Y478586D02*
X753414Y470500D01*
X761500Y462414D01*
Y478586D01*
D02*
G37*
G36*
X1040000Y498586D02*
X1012423Y471009D01*
X1013942Y469490D01*
X1019035Y465789D01*
X1024645Y462930D01*
X1030633Y460985D01*
X1036852Y460000D01*
X1043148D01*
X1049367Y460985D01*
X1055355Y462930D01*
X1060965Y465789D01*
X1066058Y469490D01*
X1067577Y471009D01*
X1040000Y498586D01*
D02*
G37*
G36*
X60000D02*
X32423Y471009D01*
X33942Y469490D01*
X39035Y465789D01*
X44645Y462930D01*
X50633Y460985D01*
X56852Y460000D01*
X63148D01*
X69367Y460985D01*
X75355Y462930D01*
X80965Y465789D01*
X86058Y469490D01*
X87577Y471009D01*
X60000Y498586D01*
D02*
G37*
G36*
X639490Y462349D02*
X626010D01*
X625031Y462154D01*
X624200Y461600D01*
X623646Y460769D01*
X623451Y459790D01*
Y454810D01*
X623646Y453831D01*
X624200Y453000D01*
X625031Y452446D01*
X626010Y452251D01*
X639490D01*
X640469Y452446D01*
X641300Y453000D01*
X641854Y453831D01*
X642049Y454810D01*
Y459790D01*
X641854Y460769D01*
X641300Y461600D01*
X640469Y462154D01*
X639490Y462349D01*
D02*
G37*
G36*
X556094Y463000D02*
X553906D01*
X551884Y462163D01*
X550337Y460616D01*
X549500Y458594D01*
Y456406D01*
X550337Y454384D01*
X551884Y452837D01*
X553906Y452000D01*
X556094D01*
X558116Y452837D01*
X559519Y454241D01*
X565564D01*
X565646Y453831D01*
X566200Y453000D01*
X567031Y452446D01*
X568010Y452251D01*
X581490D01*
X582469Y452446D01*
X583300Y453000D01*
X583854Y453831D01*
X584049Y454810D01*
Y459790D01*
X583854Y460769D01*
X583300Y461600D01*
X582469Y462154D01*
X581490Y462349D01*
X568010D01*
X567031Y462154D01*
X566200Y461600D01*
X565646Y460769D01*
X565564Y460359D01*
X559769D01*
X559663Y460616D01*
X558116Y462163D01*
X556094Y463000D01*
D02*
G37*
G36*
X473529Y462915D02*
X467914Y457300D01*
X473529Y451685D01*
X474180Y452660D01*
X474608Y454810D01*
Y459790D01*
X474180Y461940D01*
X473529Y462915D01*
D02*
G37*
G36*
X450971Y462915D02*
X450320Y461940D01*
X449892Y459790D01*
Y454810D01*
X450320Y452660D01*
X450971Y451685D01*
X456586Y457300D01*
X450971Y462915D01*
D02*
G37*
G36*
X543594Y458000D02*
X541406D01*
X539384Y457163D01*
X537837Y455616D01*
X537000Y453594D01*
Y451406D01*
X537024Y451349D01*
X533333Y447659D01*
X529436D01*
X529354Y448069D01*
X528800Y448900D01*
X527969Y449454D01*
X526990Y449649D01*
X513510D01*
X512531Y449454D01*
X511700Y448900D01*
X511146Y448069D01*
X510951Y447090D01*
Y442110D01*
X511146Y441131D01*
X511700Y440300D01*
X512531Y439746D01*
X513510Y439551D01*
X526990D01*
X527969Y439746D01*
X528800Y440300D01*
X529354Y441131D01*
X529436Y441541D01*
X534600D01*
X534600Y441541D01*
X535770Y441774D01*
X536763Y442437D01*
X541349Y447024D01*
X541406Y447000D01*
X543594D01*
X545616Y447837D01*
X547163Y449384D01*
X548000Y451406D01*
Y453594D01*
X547163Y455616D01*
X545616Y457163D01*
X543594Y458000D01*
D02*
G37*
G36*
X808500Y486019D02*
X797000D01*
X795634Y485747D01*
X794477Y484973D01*
X793703Y483816D01*
X793431Y482450D01*
Y479450D01*
X793703Y478084D01*
X794477Y476927D01*
X795634Y476153D01*
X797000Y475881D01*
X799691D01*
Y467065D01*
X799674Y467040D01*
X799441Y465869D01*
X799441Y465869D01*
Y456000D01*
X794000D01*
Y443000D01*
X811000D01*
Y456000D01*
X805559D01*
Y464923D01*
X805576Y464949D01*
X805809Y466119D01*
Y475881D01*
X808500D01*
X809866Y476153D01*
X811023Y476927D01*
X811797Y478084D01*
X812069Y479450D01*
Y482450D01*
X811797Y483816D01*
X811023Y484973D01*
X809866Y485747D01*
X808500Y486019D01*
D02*
G37*
G36*
X186094Y450500D02*
X183906D01*
X181884Y449663D01*
X180337Y448116D01*
X179500Y446094D01*
Y443906D01*
X180337Y441884D01*
X181884Y440337D01*
X183906Y439500D01*
X186094D01*
X188116Y440337D01*
X189663Y441884D01*
X190500Y443906D01*
Y446094D01*
X189663Y448116D01*
X188116Y449663D01*
X186094Y450500D01*
D02*
G37*
G36*
X468990Y436949D02*
X455510D01*
X454531Y436754D01*
X453700Y436200D01*
X453146Y435369D01*
X453064Y434959D01*
X429578D01*
X429578Y434959D01*
X428407Y434726D01*
X427415Y434063D01*
X427415Y434063D01*
X418776Y425424D01*
X418594Y425500D01*
X416406D01*
X414384Y424663D01*
X412837Y423116D01*
X412000Y421094D01*
Y418906D01*
X412837Y416884D01*
X414384Y415337D01*
X416406Y414500D01*
X418594D01*
X420616Y415337D01*
X422163Y416884D01*
X423000Y418906D01*
Y420997D01*
X430845Y428841D01*
X453064D01*
X453146Y428431D01*
X453700Y427600D01*
X454531Y427046D01*
X455510Y426851D01*
X468990D01*
X469969Y427046D01*
X470800Y427600D01*
X471354Y428431D01*
X471549Y429410D01*
Y434390D01*
X471354Y435369D01*
X470800Y436200D01*
X469969Y436754D01*
X468990Y436949D01*
D02*
G37*
G36*
X881646Y439500D02*
X878354D01*
X875175Y438648D01*
X872325Y437002D01*
X871868Y436546D01*
X880000Y428414D01*
X888132Y436546D01*
X887675Y437002D01*
X884825Y438648D01*
X881646Y439500D01*
D02*
G37*
G36*
X563471Y437515D02*
X562820Y436540D01*
X562392Y434390D01*
Y429410D01*
X562820Y427260D01*
X563471Y426285D01*
X569086Y431900D01*
X563471Y437515D01*
D02*
G37*
G36*
X675971D02*
X675320Y436540D01*
X674892Y434390D01*
Y429410D01*
X675320Y427260D01*
X675971Y426285D01*
X681586Y431900D01*
X675971Y437515D01*
D02*
G37*
G36*
X586029Y437515D02*
X580414Y431900D01*
X586029Y426285D01*
X586680Y427260D01*
X587108Y429410D01*
Y434390D01*
X586680Y436540D01*
X586029Y437515D01*
D02*
G37*
G36*
X698529Y437515D02*
X692914Y431900D01*
X698529Y426285D01*
X699180Y427260D01*
X699608Y429410D01*
Y434390D01*
X699180Y436540D01*
X698529Y437515D01*
D02*
G37*
G36*
X121094Y490500D02*
X118906D01*
X116884Y489663D01*
X115337Y488116D01*
X114500Y486094D01*
Y483906D01*
X115337Y481884D01*
X116884Y480337D01*
X116941Y480314D01*
Y466750D01*
X116941Y466750D01*
X117174Y465579D01*
X117837Y464587D01*
X136250Y446174D01*
Y440059D01*
X136189D01*
X135019Y439826D01*
X134026Y439163D01*
X129422Y434559D01*
X120527D01*
X119739Y435738D01*
X118539Y436540D01*
X117125Y436821D01*
X107875D01*
X106461Y436540D01*
X105261Y435738D01*
X104460Y434539D01*
X104179Y433125D01*
Y429875D01*
X104460Y428461D01*
X105261Y427262D01*
X106461Y426460D01*
X107875Y426179D01*
X117125D01*
X118539Y426460D01*
X119739Y427262D01*
X120527Y428441D01*
X130689D01*
X130689Y428441D01*
X131860Y428674D01*
X132852Y429337D01*
X135309Y431794D01*
X136250Y430939D01*
X136250Y429755D01*
Y415500D01*
X141941D01*
Y401000D01*
X136500D01*
Y397559D01*
X131767D01*
X120269Y409056D01*
X120540Y409461D01*
X120821Y410875D01*
Y414125D01*
X120540Y415539D01*
X119739Y416739D01*
X118539Y417540D01*
X117125Y417821D01*
X107875D01*
X106461Y417540D01*
X105261Y416739D01*
X104460Y415539D01*
X104179Y414125D01*
Y410875D01*
X104460Y409461D01*
X105261Y408261D01*
X106461Y407460D01*
X107875Y407179D01*
X114021D01*
X114069Y406934D01*
X114733Y405942D01*
X126941Y393733D01*
Y373767D01*
X118020Y364846D01*
X116750Y365372D01*
X116750Y365788D01*
Y388836D01*
X106207Y378293D01*
X105500Y379000D01*
X104793Y378293D01*
X94250Y388836D01*
Y366164D01*
X104793Y376707D01*
X106207Y375293D01*
X95664Y364750D01*
X104678D01*
X105018Y363480D01*
X102632Y362102D01*
X100398Y359868D01*
X98818Y357132D01*
X98000Y354080D01*
Y350920D01*
X98818Y347868D01*
X100398Y345132D01*
X102632Y342898D01*
X105368Y341318D01*
X108420Y340500D01*
X111580D01*
X114632Y341318D01*
X117368Y342898D01*
X119602Y345132D01*
X121182Y347868D01*
X122000Y350920D01*
Y354080D01*
X121182Y357132D01*
X120368Y358542D01*
X132163Y370337D01*
X132230Y370438D01*
X133500Y370052D01*
Y367414D01*
X142293Y376207D01*
X143707Y374793D01*
X134914Y366000D01*
X155086D01*
X146293Y374793D01*
X147000Y375500D01*
X146293Y376207D01*
X155086Y385000D01*
X134329D01*
X133500Y385000D01*
X133059Y386087D01*
Y391441D01*
X136500D01*
Y388000D01*
X153500D01*
Y391015D01*
X157902D01*
X157902Y391015D01*
X159073Y391248D01*
X160065Y391911D01*
X180495Y412341D01*
X185814D01*
X185896Y411931D01*
X186450Y411100D01*
X187281Y410546D01*
X188260Y410351D01*
X201740D01*
X202719Y410546D01*
X203550Y411100D01*
X204104Y411931D01*
X204299Y412910D01*
Y417890D01*
X204104Y418869D01*
X203550Y419700D01*
X202719Y420254D01*
X201740Y420449D01*
X188260D01*
X187281Y420254D01*
X186450Y419700D01*
X185896Y418869D01*
X185814Y418459D01*
X179228D01*
X179228Y418459D01*
X178058Y418226D01*
X177066Y417563D01*
X156635Y397133D01*
X153500D01*
Y401000D01*
X148059D01*
Y415500D01*
X153750D01*
Y431000D01*
X137519D01*
X136311Y431000D01*
X135456Y431941D01*
X137456Y433941D01*
X140250D01*
X140250Y433941D01*
X140546Y434000D01*
X153750D01*
Y438691D01*
X166983D01*
X177737Y427937D01*
X178729Y427274D01*
X179900Y427041D01*
X179900Y427041D01*
X185701D01*
Y425610D01*
X185896Y424631D01*
X186450Y423800D01*
X187281Y423246D01*
X188260Y423051D01*
X201740D01*
X202719Y423246D01*
X203550Y423800D01*
X204104Y424631D01*
X204299Y425610D01*
Y430590D01*
X204104Y431569D01*
X203550Y432400D01*
X202719Y432954D01*
X201740Y433149D01*
X193048D01*
X193000Y433159D01*
X193000Y433159D01*
X181167D01*
X170413Y443913D01*
X169421Y444576D01*
X168250Y444809D01*
X168250Y444809D01*
X153750D01*
Y449500D01*
X141522D01*
X141413Y449663D01*
X141413Y449663D01*
X123059Y468017D01*
Y480314D01*
X123116Y480337D01*
X124663Y481884D01*
X125500Y483906D01*
Y486094D01*
X124663Y488116D01*
X123116Y489663D01*
X121094Y490500D01*
D02*
G37*
G36*
X814000Y438586D02*
X805914Y430500D01*
X814000Y422414D01*
Y438586D01*
D02*
G37*
G36*
X791000Y438586D02*
Y422414D01*
X799086Y430500D01*
X791000Y438586D01*
D02*
G37*
G36*
X812586Y440000D02*
X792414D01*
X801207Y431207D01*
X800500Y430500D01*
X801207Y429793D01*
X792414Y421000D01*
X812586D01*
X803793Y429793D01*
X804500Y430500D01*
X803793Y431207D01*
X812586Y440000D01*
D02*
G37*
G36*
X870454Y435132D02*
X869997Y434675D01*
X868352Y431825D01*
X867500Y428646D01*
Y425354D01*
X868352Y422175D01*
X869997Y419325D01*
X870454Y418868D01*
X878586Y427000D01*
X870454Y435132D01*
D02*
G37*
G36*
X889546Y435132D02*
X881414Y427000D01*
X889546Y418868D01*
X890003Y419325D01*
X891648Y422175D01*
X892500Y425354D01*
Y428646D01*
X891648Y431825D01*
X890003Y434675D01*
X889546Y435132D01*
D02*
G37*
G36*
X855851Y436500D02*
X853349D01*
X850933Y435853D01*
X848767Y434602D01*
X846998Y432833D01*
X845747Y430667D01*
X845100Y428251D01*
Y425749D01*
X845747Y423333D01*
X846998Y421167D01*
X848767Y419398D01*
X850933Y418147D01*
X853349Y417500D01*
X855851D01*
X858267Y418147D01*
X860433Y419398D01*
X862202Y421167D01*
X863453Y423333D01*
X864100Y425749D01*
Y428251D01*
X863453Y430667D01*
X862202Y432833D01*
X860433Y434602D01*
X858267Y435853D01*
X855851Y436500D01*
D02*
G37*
G36*
X909150Y436613D02*
X901650D01*
X899407Y436166D01*
X897505Y434896D01*
X896234Y432994D01*
X895787Y430750D01*
Y423250D01*
X896234Y421007D01*
X897505Y419104D01*
X899407Y417834D01*
X901650Y417387D01*
X909150D01*
X911394Y417834D01*
X913296Y419104D01*
X914566Y421007D01*
X915013Y423250D01*
Y430750D01*
X914566Y432994D01*
X913296Y434896D01*
X911394Y436166D01*
X909150Y436613D01*
D02*
G37*
G36*
X880000Y425586D02*
X871868Y417454D01*
X872325Y416997D01*
X875175Y415352D01*
X878354Y414500D01*
X881646D01*
X884825Y415352D01*
X887675Y416997D01*
X888132Y417454D01*
X880000Y425586D01*
D02*
G37*
G36*
X296094Y423000D02*
X293906D01*
X291884Y422163D01*
X290337Y420616D01*
X289500Y418594D01*
Y416406D01*
X290337Y414384D01*
X291884Y412837D01*
X293906Y412000D01*
X296094D01*
X298116Y412837D01*
X299663Y414384D01*
X300500Y416406D01*
Y418594D01*
X299663Y420616D01*
X298116Y422163D01*
X296094Y423000D01*
D02*
G37*
G36*
X698422Y422000D02*
X696578D01*
X694798Y421523D01*
X693202Y420601D01*
X691899Y419298D01*
X690977Y417702D01*
X690500Y415922D01*
Y414078D01*
X690977Y412298D01*
X691899Y410702D01*
X693202Y409399D01*
X694798Y408477D01*
X696578Y408000D01*
X698422D01*
X700202Y408477D01*
X701798Y409399D01*
X703101Y410702D01*
X704023Y412298D01*
X704500Y414078D01*
Y415922D01*
X704023Y417702D01*
X703101Y419298D01*
X701798Y420601D01*
X700202Y421523D01*
X698422Y422000D01*
D02*
G37*
G36*
X256240Y407749D02*
X242760D01*
X241781Y407554D01*
X240950Y407000D01*
X240396Y406169D01*
X240314Y405759D01*
X235200D01*
X234029Y405526D01*
X233037Y404863D01*
X233037Y404863D01*
X225337Y397163D01*
X224674Y396171D01*
X224441Y395000D01*
X224441Y395000D01*
Y373767D01*
X205633Y354959D01*
X204186D01*
X204104Y355369D01*
X203550Y356200D01*
X202719Y356754D01*
X201740Y356949D01*
X188260D01*
X187281Y356754D01*
X186450Y356200D01*
X185896Y355369D01*
X185701Y354390D01*
Y349410D01*
X185896Y348431D01*
X186450Y347600D01*
X187281Y347046D01*
X188260Y346851D01*
X201740D01*
X202719Y347046D01*
X203550Y347600D01*
X204104Y348431D01*
X204186Y348841D01*
X206900D01*
X206900Y348841D01*
X208071Y349074D01*
X209063Y349737D01*
X229663Y370337D01*
X230326Y371329D01*
X230559Y372500D01*
Y393733D01*
X236467Y399641D01*
X240314D01*
X240396Y399231D01*
X240950Y398400D01*
X241781Y397846D01*
X242760Y397651D01*
X256240D01*
X257219Y397846D01*
X258050Y398400D01*
X258604Y399231D01*
X258799Y400210D01*
Y405190D01*
X258604Y406169D01*
X258050Y407000D01*
X257219Y407554D01*
X256240Y407749D01*
D02*
G37*
G36*
X597500Y558059D02*
X597500Y558059D01*
X460000D01*
X458829Y557826D01*
X457837Y557163D01*
X457837Y557163D01*
X430337Y529663D01*
X429674Y528671D01*
X429441Y527500D01*
X429441Y527500D01*
Y453767D01*
X423333Y447659D01*
X416936D01*
X416854Y448069D01*
X416300Y448900D01*
X415469Y449454D01*
X414490Y449649D01*
X401010D01*
X400031Y449454D01*
X399200Y448900D01*
X398646Y448069D01*
X398564Y447659D01*
X383417D01*
X362163Y468913D01*
X362000Y469022D01*
Y481250D01*
X346500D01*
Y482836D01*
X336457Y472793D01*
X335750Y473500D01*
X335043Y472793D01*
X325000Y482836D01*
Y465559D01*
X316000D01*
Y471000D01*
X303000D01*
Y458326D01*
X302504Y457830D01*
X302504Y457830D01*
X302504Y457830D01*
X301173Y456499D01*
X300000Y456985D01*
Y472586D01*
X291207Y463793D01*
X290500Y464500D01*
X289793Y463793D01*
X281000Y472586D01*
Y451000D01*
X279913Y450559D01*
X262500D01*
X261329Y450326D01*
X260337Y449663D01*
X260337Y449663D01*
X247337Y436663D01*
X246674Y435671D01*
X246441Y434500D01*
X246441Y434500D01*
Y433149D01*
X242760D01*
X241781Y432954D01*
X240950Y432400D01*
X240396Y431569D01*
X240201Y430590D01*
Y425610D01*
X240396Y424631D01*
X240950Y423800D01*
X241781Y423246D01*
X242760Y423051D01*
X256240D01*
X257219Y423246D01*
X258050Y423800D01*
X258604Y424631D01*
X258799Y425610D01*
Y430590D01*
X258604Y431569D01*
X258050Y432400D01*
X257219Y432954D01*
X256240Y433149D01*
X254271D01*
X253745Y434419D01*
X263767Y444441D01*
X296500D01*
X296500Y444441D01*
X297670Y444674D01*
X298663Y445337D01*
X306829Y453504D01*
X306830Y453504D01*
X307326Y454000D01*
X316000D01*
Y459441D01*
X330483D01*
X340001Y449923D01*
X339515Y448750D01*
X328000D01*
Y443059D01*
X302500D01*
X302500Y443059D01*
X301329Y442826D01*
X300337Y442163D01*
X300337Y442163D01*
X276233Y418059D01*
X258766D01*
X258604Y418869D01*
X258050Y419700D01*
X257219Y420254D01*
X256240Y420449D01*
X242760D01*
X241781Y420254D01*
X240950Y419700D01*
X240396Y418869D01*
X240234Y418059D01*
X236267D01*
X225559Y428767D01*
Y448396D01*
X227132Y448818D01*
X229868Y450398D01*
X232102Y452632D01*
X233682Y455368D01*
X234500Y458420D01*
Y461580D01*
X233682Y464632D01*
X232102Y467368D01*
X229868Y469602D01*
X227132Y471182D01*
X224080Y472000D01*
X220920D01*
X217868Y471182D01*
X215132Y469602D01*
X212898Y467368D01*
X211318Y464632D01*
X210500Y461580D01*
Y458420D01*
X211318Y455368D01*
X212898Y452632D01*
X215132Y450398D01*
X217868Y448818D01*
X219441Y448396D01*
Y427500D01*
X219441Y427500D01*
X219674Y426329D01*
X220337Y425337D01*
X232837Y412837D01*
X232837Y412837D01*
X233829Y412174D01*
X235000Y411941D01*
X240394D01*
X240396Y411931D01*
X240950Y411100D01*
X241781Y410546D01*
X242760Y410351D01*
X256240D01*
X257219Y410546D01*
X258050Y411100D01*
X258604Y411931D01*
X258606Y411941D01*
X277500D01*
X277500Y411941D01*
X278671Y412174D01*
X279663Y412837D01*
X303767Y436941D01*
X328000D01*
Y431250D01*
X332441D01*
Y424777D01*
X331261Y423988D01*
X330460Y422789D01*
X330179Y421375D01*
Y412125D01*
X330460Y410711D01*
X331261Y409511D01*
X332461Y408710D01*
X333875Y408429D01*
X334897D01*
X335201Y407973D01*
X342837Y400337D01*
X342837Y400337D01*
X343829Y399674D01*
X345000Y399441D01*
X345000Y399441D01*
X380000D01*
X380000Y399441D01*
X381171Y399674D01*
X382163Y400337D01*
X406735Y424909D01*
X407397Y425901D01*
X407587Y426851D01*
X414490D01*
X415469Y427046D01*
X416300Y427600D01*
X416854Y428431D01*
X417049Y429410D01*
Y434390D01*
X416854Y435369D01*
X416300Y436200D01*
X415469Y436754D01*
X414490Y436949D01*
X401010D01*
X400031Y436754D01*
X399200Y436200D01*
X398646Y435369D01*
X398451Y434390D01*
Y429410D01*
X398646Y428431D01*
X399200Y427600D01*
X399229Y426054D01*
X388928Y415754D01*
X387912Y416534D01*
X388682Y417868D01*
X389500Y420920D01*
Y424080D01*
X388682Y427132D01*
X387102Y429868D01*
X384868Y432102D01*
X382132Y433682D01*
X379080Y434500D01*
X375920D01*
X372868Y433682D01*
X370132Y432102D01*
X368303Y430273D01*
X362163Y436413D01*
X362000Y436522D01*
Y448750D01*
X349826D01*
X338999Y459577D01*
X339485Y460750D01*
X345086D01*
X335043Y470793D01*
X336457Y472207D01*
X346500Y462164D01*
Y463750D01*
X358674D01*
X379987Y442437D01*
X379987Y442437D01*
X380979Y441774D01*
X382150Y441541D01*
X398564D01*
X398646Y441131D01*
X399200Y440300D01*
X400031Y439746D01*
X401010Y439551D01*
X414490D01*
X415469Y439746D01*
X416300Y440300D01*
X416854Y441131D01*
X416936Y441541D01*
X424600D01*
X424600Y441541D01*
X425770Y441774D01*
X426763Y442437D01*
X434663Y450337D01*
X434663Y450337D01*
X435326Y451329D01*
X435559Y452500D01*
Y526233D01*
X461267Y551941D01*
X595339D01*
X595662Y551531D01*
X595008Y550562D01*
X595000Y550559D01*
X595000Y550559D01*
X465674D01*
X464504Y550326D01*
X463511Y549663D01*
X463511Y549663D01*
X437837Y523989D01*
X437174Y522996D01*
X436941Y521826D01*
X436941Y521826D01*
Y455000D01*
X436941Y455000D01*
X437174Y453829D01*
X437837Y452837D01*
X448237Y442437D01*
X448237Y442437D01*
X449230Y441774D01*
X450400Y441541D01*
X453064D01*
X453146Y441131D01*
X453700Y440300D01*
X454531Y439746D01*
X455510Y439551D01*
X468990D01*
X469969Y439746D01*
X470800Y440300D01*
X471354Y441131D01*
X471549Y442110D01*
Y447090D01*
X471354Y448069D01*
X471179Y448332D01*
X471148Y449361D01*
X471548Y449892D01*
X472115Y450271D01*
X465793Y456593D01*
X466500Y457300D01*
X465793Y458007D01*
X472115Y464329D01*
X471548Y464708D01*
X471148Y465239D01*
X471179Y466268D01*
X471354Y466531D01*
X471436Y466941D01*
X482918D01*
X483356Y466451D01*
X483109Y464878D01*
X482632Y464602D01*
X480398Y462368D01*
X478818Y459632D01*
X478000Y456580D01*
Y453420D01*
X478818Y450368D01*
X480398Y447632D01*
X482632Y445398D01*
X485368Y443818D01*
X488420Y443000D01*
X491580D01*
X494632Y443818D01*
X497368Y445398D01*
X499602Y447632D01*
X501182Y450368D01*
X502000Y453420D01*
Y454241D01*
X511064D01*
X511146Y453831D01*
X511700Y453000D01*
X512531Y452446D01*
X513510Y452251D01*
X526990D01*
X527969Y452446D01*
X528800Y453000D01*
X529354Y453831D01*
X529549Y454810D01*
Y459790D01*
X529354Y460769D01*
X528800Y461600D01*
X527969Y462154D01*
X526990Y462349D01*
X513510D01*
X512531Y462154D01*
X511700Y461600D01*
X511146Y460769D01*
X511064Y460359D01*
X500762D01*
X499602Y462368D01*
X497368Y464602D01*
X494632Y466182D01*
X492599Y466727D01*
X487163Y472163D01*
X486171Y472826D01*
X485000Y473059D01*
X485000Y473059D01*
X471436D01*
X471354Y473469D01*
X470800Y474300D01*
X469969Y474854D01*
X468990Y475049D01*
X455510D01*
X454531Y474854D01*
X453700Y474300D01*
X453146Y473469D01*
X452951Y472490D01*
Y467510D01*
X453146Y466531D01*
X453321Y466268D01*
X453352Y465239D01*
X452952Y464708D01*
X452385Y464329D01*
X458707Y458007D01*
X458000Y457300D01*
X458707Y456593D01*
X452385Y450271D01*
X452952Y449892D01*
X453352Y449361D01*
X453321Y448332D01*
X453146Y448069D01*
X453064Y447659D01*
X451667D01*
X443059Y456267D01*
Y520559D01*
X466941Y544441D01*
X501643D01*
X501983Y543171D01*
X500132Y542102D01*
X497898Y539868D01*
X496318Y537132D01*
X495500Y534080D01*
Y530920D01*
X496318Y527868D01*
X497898Y525132D01*
X499352Y523678D01*
X473733Y498059D01*
X471516D01*
X471354Y498869D01*
X470800Y499700D01*
X469969Y500254D01*
X468990Y500449D01*
X455510D01*
X454531Y500254D01*
X453700Y499700D01*
X453146Y498869D01*
X452951Y497890D01*
Y492910D01*
X453146Y491931D01*
X453700Y491100D01*
X454531Y490546D01*
X455510Y490351D01*
X468990D01*
X469969Y490546D01*
X470800Y491100D01*
X471354Y491931D01*
X471356Y491941D01*
X475000D01*
X475000Y491941D01*
X476264Y490898D01*
X476304Y490629D01*
X472433Y486759D01*
X470831Y486953D01*
X470800Y487000D01*
X469969Y487554D01*
X468990Y487749D01*
X455510D01*
X454531Y487554D01*
X453700Y487000D01*
X453146Y486169D01*
X452951Y485190D01*
Y480210D01*
X453146Y479231D01*
X453700Y478400D01*
X454531Y477846D01*
X455510Y477651D01*
X468990D01*
X469969Y477846D01*
X470800Y478400D01*
X471354Y479231D01*
X471436Y479641D01*
X472700D01*
X472700Y479641D01*
X473871Y479874D01*
X474863Y480537D01*
X480901Y486575D01*
X482160Y486409D01*
X482898Y485132D01*
X485132Y482898D01*
X487868Y481318D01*
X490920Y480500D01*
X494080D01*
X497132Y481318D01*
X499868Y482898D01*
X502102Y485132D01*
X503682Y487868D01*
X504500Y490920D01*
Y494080D01*
X503682Y497132D01*
X502102Y499868D01*
X499868Y502102D01*
X498591Y502840D01*
X498425Y504099D01*
X508767Y514441D01*
X536233D01*
X541941Y508733D01*
Y506544D01*
X540768Y506058D01*
X537163Y509663D01*
X536171Y510326D01*
X535000Y510559D01*
X535000Y510559D01*
X529549D01*
Y510590D01*
X529354Y511569D01*
X528800Y512400D01*
X527969Y512954D01*
X526990Y513149D01*
X513510D01*
X512531Y512954D01*
X511700Y512400D01*
X511146Y511569D01*
X510951Y510590D01*
Y505610D01*
X511146Y504631D01*
X511700Y503800D01*
X512531Y503246D01*
X513510Y503051D01*
X526990D01*
X527969Y503246D01*
X528800Y503800D01*
X529228Y504441D01*
X533733D01*
X536941Y501233D01*
Y472186D01*
X536884Y472163D01*
X535337Y470616D01*
X534500Y468594D01*
Y466406D01*
X535337Y464384D01*
X536884Y462837D01*
X538906Y462000D01*
X541094D01*
X543116Y462837D01*
X544663Y464384D01*
X545500Y466406D01*
Y468594D01*
X544663Y470616D01*
X543116Y472163D01*
X543059Y472186D01*
Y480956D01*
X544232Y481442D01*
X557837Y467837D01*
X557837Y467837D01*
X558829Y467174D01*
X560000Y466941D01*
X565564D01*
X565646Y466531D01*
X566200Y465700D01*
X567031Y465146D01*
X568010Y464951D01*
X581490D01*
X582469Y465146D01*
X583300Y465700D01*
X583854Y466531D01*
X584049Y467510D01*
Y472490D01*
X583854Y473469D01*
X583300Y474300D01*
X582469Y474854D01*
X581490Y475049D01*
X568010D01*
X567031Y474854D01*
X566200Y474300D01*
X565646Y473469D01*
X565564Y473059D01*
X561267D01*
X548059Y486267D01*
Y510000D01*
X548062Y510008D01*
X549031Y510662D01*
X549441Y510339D01*
Y490000D01*
X549441Y490000D01*
X549674Y488829D01*
X550337Y487837D01*
X557637Y480537D01*
X557637Y480537D01*
X558629Y479874D01*
X559800Y479641D01*
X559800Y479641D01*
X565564D01*
X565646Y479231D01*
X566200Y478400D01*
X567031Y477846D01*
X568010Y477651D01*
X581490D01*
X582469Y477846D01*
X583300Y478400D01*
X583854Y479231D01*
X584049Y480210D01*
Y485190D01*
X583854Y486169D01*
X583300Y487000D01*
X582469Y487554D01*
X581490Y487749D01*
X568010D01*
X567031Y487554D01*
X566200Y487000D01*
X565646Y486169D01*
X565564Y485759D01*
X561067D01*
X555559Y491267D01*
Y512500D01*
X555326Y513671D01*
X554663Y514663D01*
X554663Y514663D01*
X542163Y527163D01*
X541171Y527826D01*
X540000Y528059D01*
X540000Y528059D01*
X519776D01*
X519003Y529066D01*
X519500Y530920D01*
Y534080D01*
X518682Y537132D01*
X517102Y539868D01*
X514868Y542102D01*
X513017Y543171D01*
X513357Y544441D01*
X593733D01*
X606941Y531233D01*
Y442500D01*
X606941Y442500D01*
X607174Y441329D01*
X607837Y440337D01*
X618437Y429737D01*
X619430Y429074D01*
X620600Y428841D01*
X620600Y428841D01*
X623564D01*
X623646Y428431D01*
X624200Y427600D01*
X625031Y427046D01*
X626010Y426851D01*
X629441D01*
Y419104D01*
X627868Y418682D01*
X625132Y417102D01*
X622898Y414868D01*
X621318Y412132D01*
X620500Y409080D01*
Y405920D01*
X621318Y402868D01*
X622898Y400132D01*
X625132Y397898D01*
X627868Y396318D01*
X630920Y395500D01*
X634080D01*
X637132Y396318D01*
X639868Y397898D01*
X642102Y400132D01*
X643682Y402868D01*
X644500Y405920D01*
Y409080D01*
X643682Y412132D01*
X642102Y414868D01*
X639868Y417102D01*
X637132Y418682D01*
X635559Y419104D01*
Y426851D01*
X639490D01*
X640469Y427046D01*
X641300Y427600D01*
X641854Y428431D01*
X642049Y429410D01*
Y434390D01*
X641854Y435369D01*
X641300Y436200D01*
X640469Y436754D01*
X639490Y436949D01*
X626010D01*
X625031Y436754D01*
X624200Y436200D01*
X623646Y435369D01*
X623564Y434959D01*
X621867D01*
X613059Y443767D01*
Y532500D01*
X613062Y532508D01*
X614031Y533162D01*
X614441Y532839D01*
Y452500D01*
X614441Y452500D01*
X614674Y451329D01*
X615337Y450337D01*
X621815Y443859D01*
X621815Y443859D01*
X622808Y443196D01*
X623451Y443068D01*
Y442110D01*
X623646Y441131D01*
X624200Y440300D01*
X625031Y439746D01*
X626010Y439551D01*
X639490D01*
X640469Y439746D01*
X641300Y440300D01*
X641854Y441131D01*
X641936Y441541D01*
X644133D01*
X664441Y421233D01*
Y419104D01*
X662868Y418682D01*
X660132Y417102D01*
X657898Y414868D01*
X656318Y412132D01*
X655500Y409080D01*
Y405920D01*
X656318Y402868D01*
X657898Y400132D01*
X660132Y397898D01*
X662868Y396318D01*
X665920Y395500D01*
X669080D01*
X672132Y396318D01*
X674868Y397898D01*
X677102Y400132D01*
X678682Y402868D01*
X679500Y405920D01*
Y409080D01*
X678682Y412132D01*
X677102Y414868D01*
X674868Y417102D01*
X672132Y418682D01*
X670559Y419104D01*
Y422500D01*
X670559Y422500D01*
X670326Y423671D01*
X669663Y424663D01*
X669663Y424663D01*
X647563Y446763D01*
X646571Y447426D01*
X645400Y447659D01*
X645400Y447659D01*
X641936D01*
X641854Y448069D01*
X641300Y448900D01*
X640469Y449454D01*
X639490Y449649D01*
X626010D01*
X625031Y449454D01*
X624935Y449391D01*
X620559Y453767D01*
Y535000D01*
X620559Y535000D01*
X620326Y536171D01*
X619663Y537163D01*
X619663Y537163D01*
X599663Y557163D01*
X598671Y557826D01*
X597500Y558059D01*
D02*
G37*
G36*
X201740Y395049D02*
X188260D01*
X187281Y394854D01*
X186450Y394300D01*
X185896Y393469D01*
X185814Y393059D01*
X182500D01*
X182500Y393059D01*
X181329Y392826D01*
X180337Y392163D01*
X177837Y389663D01*
X177174Y388671D01*
X176941Y387500D01*
X176941Y387500D01*
Y367500D01*
X176941Y367500D01*
X177174Y366329D01*
X177837Y365337D01*
X177939Y365235D01*
Y363965D01*
X177837Y363863D01*
X177174Y362870D01*
X176941Y361700D01*
X176941Y361700D01*
Y337500D01*
X176941Y337500D01*
X177075Y336829D01*
X176278Y335559D01*
X162371D01*
X162371Y335559D01*
X161571Y335400D01*
X159868Y337102D01*
X157132Y338682D01*
X154080Y339500D01*
X150920D01*
X147868Y338682D01*
X145132Y337102D01*
X142898Y334868D01*
X141318Y332132D01*
X140500Y329080D01*
Y325920D01*
X141318Y322868D01*
X142898Y320132D01*
X145132Y317898D01*
X147868Y316318D01*
X150920Y315500D01*
X154080D01*
X157132Y316318D01*
X159868Y317898D01*
X162102Y320132D01*
X163682Y322868D01*
X164500Y325920D01*
Y329080D01*
X164777Y329441D01*
X186250D01*
Y324000D01*
X203750D01*
Y329441D01*
X308733D01*
X316941Y321233D01*
Y308498D01*
X315671Y307819D01*
X315469Y307954D01*
X314490Y308149D01*
X301010D01*
X300031Y307954D01*
X299200Y307400D01*
X298646Y306569D01*
X298564Y306159D01*
X291449D01*
X291353Y306391D01*
X289806Y307938D01*
X287785Y308776D01*
X285597D01*
X283575Y307938D01*
X282028Y306391D01*
X281190Y304370D01*
Y302181D01*
X282028Y300160D01*
X283575Y298613D01*
X285597Y297775D01*
X287785D01*
X289806Y298613D01*
X291234Y300041D01*
X298564D01*
X298646Y299631D01*
X299200Y298800D01*
X300031Y298246D01*
X301010Y298051D01*
X314490D01*
X315469Y298246D01*
X315671Y298381D01*
X316941Y297702D01*
Y295798D01*
X315671Y295119D01*
X315469Y295254D01*
X314490Y295449D01*
X301010D01*
X300031Y295254D01*
X299200Y294700D01*
X298646Y293869D01*
X298451Y292890D01*
Y287910D01*
X298646Y286931D01*
X299200Y286100D01*
X300031Y285546D01*
X301010Y285351D01*
X314490D01*
X315469Y285546D01*
X315671Y285681D01*
X316941Y285002D01*
Y283098D01*
X315671Y282419D01*
X315469Y282554D01*
X314490Y282749D01*
X301010D01*
X300031Y282554D01*
X299200Y282000D01*
X298646Y281169D01*
X298451Y280190D01*
Y275210D01*
X298646Y274231D01*
X299200Y273400D01*
X300031Y272846D01*
X301010Y272651D01*
X314490D01*
X315469Y272846D01*
X315671Y272980D01*
X316485Y272673D01*
X316976Y272325D01*
X317174Y271329D01*
X317837Y270337D01*
X338037Y250137D01*
X338037Y250137D01*
X339029Y249474D01*
X340200Y249241D01*
X340200Y249241D01*
X353064D01*
X353146Y248831D01*
X353700Y248000D01*
X354531Y247446D01*
X355510Y247251D01*
X368990D01*
X369969Y247446D01*
X370800Y248000D01*
X371354Y248831D01*
X371549Y249810D01*
Y254790D01*
X371354Y255769D01*
X370800Y256600D01*
X369969Y257154D01*
X368990Y257349D01*
X355510D01*
X354531Y257154D01*
X353700Y256600D01*
X353146Y255769D01*
X353064Y255359D01*
X341467D01*
X323059Y273767D01*
Y322500D01*
X322826Y323671D01*
X322163Y324663D01*
X322163Y324663D01*
X312163Y334663D01*
X311171Y335326D01*
X310000Y335559D01*
X310000Y335559D01*
X289996D01*
X289200Y336829D01*
X289750Y338156D01*
Y340344D01*
X288913Y342365D01*
X287365Y343913D01*
X285344Y344750D01*
X283156D01*
X281134Y343913D01*
X279587Y342365D01*
X278750Y340344D01*
Y338156D01*
X279300Y336829D01*
X278504Y335559D01*
X203750D01*
Y339500D01*
X186250D01*
Y337235D01*
X185077Y336749D01*
X183059Y338767D01*
Y360433D01*
X184167Y361541D01*
X185814D01*
X185896Y361131D01*
X186450Y360300D01*
X187281Y359746D01*
X188260Y359551D01*
X201740D01*
X202719Y359746D01*
X203550Y360300D01*
X204104Y361131D01*
X204299Y362110D01*
Y367090D01*
X204104Y368069D01*
X203550Y368900D01*
X202719Y369454D01*
X201740Y369649D01*
X188260D01*
X187281Y369454D01*
X186450Y368900D01*
X185896Y368069D01*
X185814Y367659D01*
X184167D01*
X183059Y368767D01*
Y386233D01*
X183767Y386941D01*
X185814D01*
X185896Y386531D01*
X186450Y385700D01*
X187281Y385146D01*
X188260Y384951D01*
X201740D01*
X202719Y385146D01*
X203550Y385700D01*
X204104Y386531D01*
X204299Y387510D01*
Y392490D01*
X204104Y393469D01*
X203550Y394300D01*
X202719Y394854D01*
X201740Y395049D01*
D02*
G37*
G36*
X299543Y401043D02*
X279871D01*
X289707Y391207D01*
X299543Y401043D01*
D02*
G37*
G36*
X300957Y399629D02*
X290414Y389086D01*
X289707Y389793D01*
X289000Y389086D01*
X278457Y399629D01*
Y376957D01*
X289000Y387500D01*
X289707Y386793D01*
X290414Y387500D01*
X300957Y376957D01*
Y399629D01*
D02*
G37*
G36*
X581490Y513149D02*
X568010D01*
X567031Y512954D01*
X566200Y512400D01*
X565646Y511569D01*
X565451Y510590D01*
Y505610D01*
X565646Y504631D01*
X566200Y503800D01*
X567031Y503246D01*
X568010Y503051D01*
X581490D01*
X582469Y503246D01*
X583300Y503800D01*
X583854Y504631D01*
X583936Y505041D01*
X590633D01*
X599441Y496233D01*
Y408767D01*
X582837Y392163D01*
X582837Y392163D01*
X576233Y385559D01*
X571544D01*
X571058Y386732D01*
X597163Y412837D01*
X597163Y412837D01*
X597826Y413829D01*
X598059Y415000D01*
Y487500D01*
X598059Y487500D01*
X597826Y488671D01*
X597163Y489663D01*
X589263Y497563D01*
X588271Y498226D01*
X587100Y498459D01*
X587100Y498459D01*
X583936D01*
X583854Y498869D01*
X583300Y499700D01*
X582469Y500254D01*
X581490Y500449D01*
X568010D01*
X567031Y500254D01*
X566200Y499700D01*
X565646Y498869D01*
X565451Y497890D01*
Y492910D01*
X565646Y491931D01*
X566200Y491100D01*
X567031Y490546D01*
X568010Y490351D01*
X581490D01*
X582469Y490546D01*
X583300Y491100D01*
X583854Y491931D01*
X583936Y492341D01*
X585833D01*
X591941Y486233D01*
Y416267D01*
X566233Y390559D01*
X407500D01*
X406329Y390326D01*
X405337Y389663D01*
X405337Y389663D01*
X342837Y327163D01*
X342174Y326171D01*
X341941Y325000D01*
X341941Y325000D01*
Y312500D01*
X341941Y312500D01*
X342174Y311329D01*
X342837Y310337D01*
X351065Y302109D01*
X351065Y302109D01*
X352057Y301446D01*
X352951Y301268D01*
Y300610D01*
X353146Y299631D01*
X353700Y298800D01*
X354531Y298246D01*
X355510Y298051D01*
X368990D01*
X369969Y298246D01*
X370800Y298800D01*
X371354Y299631D01*
X371436Y300041D01*
X393133D01*
X444032Y249142D01*
X445024Y248479D01*
X446195Y248246D01*
X450896D01*
X451318Y246673D01*
X452898Y243937D01*
X455132Y241703D01*
X457868Y240123D01*
X460920Y239305D01*
X460863Y238059D01*
X443767D01*
X389263Y292563D01*
X388270Y293226D01*
X387100Y293459D01*
X387100Y293459D01*
X371436D01*
X371354Y293869D01*
X370800Y294700D01*
X369969Y295254D01*
X368990Y295449D01*
X355510D01*
X354531Y295254D01*
X353700Y294700D01*
X353146Y293869D01*
X353064Y293459D01*
X348367D01*
X338059Y303767D01*
Y326233D01*
X406267Y394441D01*
X507500D01*
X507500Y394441D01*
X508671Y394674D01*
X509663Y395337D01*
X555867Y441541D01*
X565564D01*
X565646Y441131D01*
X565821Y440868D01*
X565852Y439839D01*
X565452Y439308D01*
X564885Y438929D01*
X571207Y432607D01*
X570500Y431900D01*
X571207Y431193D01*
X564885Y424871D01*
X565860Y424220D01*
X568010Y423792D01*
X581490D01*
X583640Y424220D01*
X584615Y424871D01*
X578293Y431193D01*
X579000Y431900D01*
X578293Y432607D01*
X584615Y438929D01*
X584048Y439308D01*
X583648Y439839D01*
X583679Y440868D01*
X583854Y441131D01*
X584049Y442110D01*
Y447090D01*
X583854Y448069D01*
X583300Y448900D01*
X582469Y449454D01*
X581490Y449649D01*
X568010D01*
X567031Y449454D01*
X566200Y448900D01*
X565646Y448069D01*
X565564Y447659D01*
X554600D01*
X553429Y447426D01*
X552437Y446763D01*
X506233Y400559D01*
X405000D01*
X403829Y400326D01*
X402837Y399663D01*
X402837Y399663D01*
X332837Y329663D01*
X332174Y328671D01*
X331941Y327500D01*
X331941Y327500D01*
Y302500D01*
X331941Y302500D01*
X332174Y301329D01*
X332837Y300337D01*
X344937Y288237D01*
X344937Y288237D01*
X345929Y287574D01*
X347100Y287341D01*
X353064D01*
X353146Y286931D01*
X353700Y286100D01*
X354531Y285546D01*
X355510Y285351D01*
X368990D01*
X369969Y285546D01*
X370800Y286100D01*
X371354Y286931D01*
X371436Y287341D01*
X385833D01*
X440337Y232837D01*
X441329Y232174D01*
X442500Y231941D01*
X442500Y231941D01*
X471195D01*
X471195Y231941D01*
X472365Y232174D01*
X473358Y232837D01*
X481458Y240937D01*
X482868Y240123D01*
X485920Y239305D01*
X489080D01*
X492132Y240123D01*
X494868Y241703D01*
X497102Y243937D01*
X498682Y246673D01*
X499343Y249138D01*
X500657D01*
X501318Y246673D01*
X502898Y243937D01*
X505132Y241703D01*
X505652Y241402D01*
X505817Y240143D01*
X496233Y230559D01*
X436267D01*
X386963Y279863D01*
X385971Y280526D01*
X384800Y280759D01*
X384800Y280759D01*
X371436D01*
X371354Y281169D01*
X370800Y282000D01*
X369969Y282554D01*
X368990Y282749D01*
X355510D01*
X354531Y282554D01*
X353700Y282000D01*
X353146Y281169D01*
X353064Y280759D01*
X346067D01*
X330559Y296267D01*
Y333733D01*
X401267Y404441D01*
X487500D01*
X487500Y404441D01*
X488671Y404674D01*
X489663Y405337D01*
X511836Y427510D01*
X512531Y427046D01*
X513510Y426851D01*
X526990D01*
X527969Y427046D01*
X528800Y427600D01*
X529354Y428431D01*
X529549Y429410D01*
Y434390D01*
X529354Y435369D01*
X528800Y436200D01*
X527969Y436754D01*
X526990Y436949D01*
X513510D01*
X512531Y436754D01*
X511700Y436200D01*
X511146Y435369D01*
X510951Y434390D01*
Y434187D01*
X510001Y433997D01*
X509009Y433335D01*
X509009Y433334D01*
X486233Y410559D01*
X400000D01*
X400000Y410559D01*
X398829Y410326D01*
X397837Y409663D01*
X397837Y409663D01*
X325337Y337163D01*
X324674Y336171D01*
X324441Y335000D01*
X324441Y335000D01*
Y295000D01*
X324441Y295000D01*
X324674Y293829D01*
X325337Y292837D01*
X342637Y275537D01*
X342637Y275537D01*
X343629Y274874D01*
X344800Y274641D01*
X344800Y274641D01*
X353064D01*
X353146Y274231D01*
X353700Y273400D01*
X354531Y272846D01*
X355510Y272651D01*
X368990D01*
X369969Y272846D01*
X370800Y273400D01*
X371354Y274231D01*
X371436Y274641D01*
X383533D01*
X388804Y269370D01*
X388764Y269102D01*
X387500Y268059D01*
X387500Y268059D01*
X371436D01*
X371354Y268469D01*
X370800Y269300D01*
X369969Y269854D01*
X368990Y270049D01*
X355510D01*
X354531Y269854D01*
X353700Y269300D01*
X353146Y268469D01*
X352951Y267490D01*
Y262510D01*
X353146Y261531D01*
X353700Y260700D01*
X354531Y260146D01*
X355510Y259951D01*
X368990D01*
X369969Y260146D01*
X370800Y260700D01*
X371354Y261531D01*
X371436Y261941D01*
X386233D01*
X396941Y251233D01*
Y226267D01*
X391233Y220559D01*
X374391D01*
X373792Y221679D01*
X374180Y222260D01*
X374608Y224410D01*
Y229390D01*
X374180Y231540D01*
X373529Y232515D01*
X367207Y226193D01*
X365793Y227607D01*
X372115Y233929D01*
X371548Y234308D01*
X371148Y234839D01*
X371179Y235868D01*
X371354Y236131D01*
X371436Y236541D01*
X382100D01*
X382100Y236541D01*
X383271Y236774D01*
X384263Y237437D01*
X388849Y242024D01*
X388906Y242000D01*
X391094D01*
X393116Y242837D01*
X394663Y244384D01*
X395500Y246406D01*
Y248594D01*
X394663Y250616D01*
X393116Y252163D01*
X391094Y253000D01*
X388906D01*
X386884Y252163D01*
X385337Y250616D01*
X384500Y248594D01*
Y246406D01*
X384524Y246349D01*
X380833Y242659D01*
X371436D01*
X371354Y243069D01*
X370800Y243900D01*
X369969Y244454D01*
X368990Y244649D01*
X355510D01*
X354531Y244454D01*
X353700Y243900D01*
X353146Y243069D01*
X352951Y242090D01*
Y237110D01*
X353146Y236131D01*
X353321Y235868D01*
X353352Y234839D01*
X352952Y234308D01*
X352385Y233929D01*
X358707Y227607D01*
X357293Y226193D01*
X350971Y232515D01*
X350320Y231540D01*
X349892Y229390D01*
Y224410D01*
X350320Y222260D01*
X350708Y221679D01*
X350109Y220559D01*
X341267D01*
X320063Y241763D01*
X319070Y242426D01*
X317900Y242659D01*
X316854Y243069D01*
X316300Y243900D01*
X315469Y244454D01*
X314490Y244649D01*
X301010D01*
X300031Y244454D01*
X299200Y243900D01*
X298646Y243069D01*
X298451Y242090D01*
Y237110D01*
X298646Y236131D01*
X299200Y235300D01*
X300031Y234746D01*
X301010Y234551D01*
X314490D01*
X315469Y234746D01*
X316300Y235300D01*
X317846Y235329D01*
X337837Y215337D01*
X337837Y215337D01*
X338829Y214674D01*
X340000Y214441D01*
X340000Y214441D01*
X392500D01*
X392500Y214441D01*
X393671Y214674D01*
X394663Y215337D01*
X402163Y222837D01*
X402163Y222837D01*
X402826Y223829D01*
X403059Y225000D01*
Y252500D01*
X404102Y253764D01*
X404370Y253804D01*
X432837Y225337D01*
X432837Y225337D01*
X433829Y224674D01*
X435000Y224441D01*
X435000Y224441D01*
X497500D01*
X497500Y224441D01*
X498671Y224674D01*
X499663Y225337D01*
X511873Y237547D01*
X512536Y238540D01*
X512688Y239305D01*
X514080D01*
X517132Y240123D01*
X519868Y241703D01*
X522102Y243937D01*
X523682Y246673D01*
X524343Y249138D01*
X525657D01*
X526318Y246673D01*
X527132Y245263D01*
X494928Y213059D01*
X331267D01*
X317263Y227063D01*
X317049Y227206D01*
Y229390D01*
X316854Y230369D01*
X316300Y231200D01*
X315469Y231754D01*
X314490Y231949D01*
X301010D01*
X300031Y231754D01*
X299200Y231200D01*
X298646Y230369D01*
X298564Y229959D01*
X281867D01*
X232244Y279582D01*
X233000Y281406D01*
Y283594D01*
X232163Y285616D01*
X230616Y287163D01*
X228594Y288000D01*
X226406D01*
X224384Y287163D01*
X222837Y285616D01*
X222000Y283594D01*
Y281406D01*
X222837Y279384D01*
X224384Y277837D01*
X226140Y277110D01*
X226294Y276880D01*
X278437Y224737D01*
X278437Y224737D01*
X279429Y224074D01*
X280600Y223841D01*
X298564D01*
X298646Y223431D01*
X299200Y222600D01*
X300031Y222046D01*
X301010Y221851D01*
X309702D01*
X309750Y221841D01*
X313833D01*
X327837Y207837D01*
X327837Y207837D01*
X328829Y207174D01*
X330000Y206941D01*
X496195D01*
X496195Y206941D01*
X497365Y207174D01*
X498358Y207837D01*
X531458Y240937D01*
X532868Y240123D01*
X535920Y239305D01*
X539080D01*
X540658Y239728D01*
X541557Y238830D01*
X541500Y238619D01*
Y236381D01*
X542079Y234219D01*
X543198Y232281D01*
X544781Y230698D01*
X546719Y229579D01*
X548881Y229000D01*
X551119D01*
X553281Y229579D01*
X555219Y230698D01*
X556802Y232281D01*
X557921Y234219D01*
X558500Y236381D01*
Y238619D01*
X558443Y238830D01*
X559342Y239728D01*
X560920Y239305D01*
X564080D01*
X567132Y240123D01*
X569868Y241703D01*
X572102Y243937D01*
X573682Y246673D01*
X574343Y249138D01*
X575657D01*
X576318Y246673D01*
X577898Y243937D01*
X580132Y241703D01*
X582868Y240123D01*
X585920Y239305D01*
X589080D01*
X592132Y240123D01*
X593542Y240937D01*
X621642Y212837D01*
X621642Y212837D01*
X622635Y212174D01*
X623805Y211941D01*
X864250D01*
X864250Y211941D01*
X865421Y212174D01*
X866413Y212837D01*
X883913Y230337D01*
X883913Y230337D01*
X884022Y230500D01*
X896250D01*
Y234941D01*
X905223D01*
X906012Y233762D01*
X907211Y232960D01*
X908625Y232679D01*
X917875D01*
X919289Y232960D01*
X920489Y233762D01*
X921290Y234961D01*
X921571Y236375D01*
Y239625D01*
X921290Y241039D01*
X920489Y242239D01*
X919289Y243040D01*
X917875Y243321D01*
X908625D01*
X907211Y243040D01*
X906012Y242239D01*
X905223Y241059D01*
X896250D01*
Y246000D01*
X897836D01*
X887793Y256043D01*
X888500Y256750D01*
X887793Y257457D01*
X897836Y267500D01*
X877164D01*
X887207Y257457D01*
X886500Y256750D01*
X887207Y256043D01*
X877164Y246000D01*
X878750D01*
Y233826D01*
X862983Y218059D01*
X625072D01*
X597868Y245263D01*
X598682Y246673D01*
X599343Y249138D01*
X600657D01*
X601318Y246673D01*
X602898Y243937D01*
X605132Y241703D01*
X607868Y240123D01*
X610920Y239305D01*
X614080D01*
X617132Y240123D01*
X619868Y241703D01*
X621230Y243064D01*
X622500Y242538D01*
Y237719D01*
X636793Y252012D01*
X651086Y266305D01*
X646267D01*
X645741Y267575D01*
X647102Y268937D01*
X648682Y271673D01*
X649500Y274725D01*
Y277885D01*
X648682Y280937D01*
X647102Y283673D01*
X644868Y285907D01*
X642132Y287487D01*
X639080Y288305D01*
X635920D01*
X632868Y287487D01*
X630132Y285907D01*
X627898Y283673D01*
X626318Y280937D01*
X625657Y278472D01*
X624343D01*
X623682Y280937D01*
X622102Y283673D01*
X619868Y285907D01*
X617132Y287487D01*
X614080Y288305D01*
X610920D01*
X607868Y287487D01*
X605132Y285907D01*
X602898Y283673D01*
X601318Y280937D01*
X600657Y278472D01*
X599343D01*
X598682Y280937D01*
X597102Y283673D01*
X594868Y285907D01*
X592132Y287487D01*
X589080Y288305D01*
X585920D01*
X582868Y287487D01*
X580132Y285907D01*
X577898Y283673D01*
X576318Y280937D01*
X575657Y278472D01*
X574343D01*
X573682Y280937D01*
X572102Y283673D01*
X571132Y284643D01*
X581900Y295412D01*
X653100D01*
X660412Y288099D01*
Y245000D01*
X660761Y243244D01*
X661756Y241756D01*
X681756Y221756D01*
X683244Y220761D01*
X685000Y220412D01*
X847071D01*
X848827Y220761D01*
X850315Y221756D01*
X853244Y224685D01*
X854239Y226173D01*
X854588Y227929D01*
Y237500D01*
X854239Y239256D01*
X853244Y240744D01*
X850299Y243689D01*
X851502Y244892D01*
X852983Y247458D01*
X853750Y250319D01*
Y253281D01*
X852983Y256142D01*
X851502Y258708D01*
X849408Y260802D01*
X846842Y262283D01*
X843981Y263050D01*
X841019D01*
X838158Y262283D01*
X835592Y260802D01*
X833498Y258708D01*
X832281Y256600D01*
X830918Y256780D01*
X830779Y257300D01*
X828903Y260550D01*
X828283Y261169D01*
X818207Y251093D01*
X808131Y241017D01*
X808750Y240397D01*
X812000Y238521D01*
X815624Y237550D01*
X819376D01*
X820388Y237821D01*
X821619Y236836D01*
X822079Y235119D01*
X823198Y233181D01*
X824781Y231598D01*
X826063Y230858D01*
X825723Y229588D01*
X775710D01*
X775184Y230858D01*
X792163Y247837D01*
X792163Y247837D01*
X792826Y248829D01*
X793059Y250000D01*
X793059Y250000D01*
Y353733D01*
X806458Y367132D01*
X807868Y366318D01*
X810920Y365500D01*
X814080D01*
X817132Y366318D01*
X819868Y367898D01*
X822102Y370132D01*
X823682Y372868D01*
X824500Y375920D01*
Y379080D01*
X823682Y382132D01*
X822102Y384868D01*
X819868Y387102D01*
X817132Y388682D01*
X814080Y389500D01*
X810920D01*
X810559Y389777D01*
Y395000D01*
X810326Y396171D01*
X809663Y397163D01*
X809663Y397163D01*
X747163Y459663D01*
X747062Y459730D01*
X747448Y461000D01*
X760086D01*
X751293Y469793D01*
X752000Y470500D01*
X751293Y471207D01*
X760086Y480000D01*
X739914D01*
X748707Y471207D01*
X747293Y469793D01*
X738500Y478586D01*
Y461829D01*
X738500Y461000D01*
X737413Y460559D01*
X696396D01*
X696354Y460769D01*
X695800Y461600D01*
X694969Y462154D01*
X693990Y462349D01*
X680510D01*
X679531Y462154D01*
X678700Y461600D01*
X678146Y460769D01*
X677951Y459790D01*
Y454810D01*
X678146Y453831D01*
X678700Y453000D01*
X679531Y452446D01*
X680510Y452251D01*
X693990D01*
X694969Y452446D01*
X695800Y453000D01*
X696354Y453831D01*
X696476Y454441D01*
X743733D01*
X804441Y393733D01*
Y386412D01*
X802898Y384868D01*
X801318Y382132D01*
X800500Y379080D01*
Y375920D01*
X801318Y372868D01*
X802132Y371458D01*
X787837Y357163D01*
X787174Y356171D01*
X786941Y355000D01*
X786941Y355000D01*
Y251267D01*
X771233Y235559D01*
X706267D01*
X685559Y256267D01*
Y266233D01*
X693367Y274041D01*
X696064D01*
X696146Y273631D01*
X696700Y272800D01*
X697531Y272246D01*
X698510Y272051D01*
X711990D01*
X712969Y272246D01*
X713800Y272800D01*
X714354Y273631D01*
X714549Y274610D01*
Y279590D01*
X714354Y280569D01*
X713800Y281400D01*
X712969Y281954D01*
X711990Y282149D01*
X698510D01*
X697531Y281954D01*
X696700Y281400D01*
X696146Y280569D01*
X696064Y280159D01*
X692100D01*
X690929Y279926D01*
X689937Y279263D01*
X689937Y279263D01*
X680337Y269663D01*
X679674Y268671D01*
X679441Y267500D01*
X679441Y267500D01*
Y255000D01*
X679441Y255000D01*
X679674Y253829D01*
X680337Y252837D01*
X702316Y230858D01*
X701790Y229588D01*
X686900D01*
X669588Y246901D01*
Y290000D01*
X669239Y291756D01*
X668244Y293244D01*
X658244Y303244D01*
X656756Y304239D01*
X655000Y304588D01*
X615573D01*
X615087Y305762D01*
X618584Y309259D01*
X618585Y309259D01*
X619248Y310251D01*
X619446Y311250D01*
X632250D01*
Y327750D01*
X612750D01*
Y312076D01*
X609016Y308342D01*
X607747Y308868D01*
X607746Y309258D01*
Y329332D01*
X597203Y318789D01*
X595789Y320203D01*
X606332Y330746D01*
X583661D01*
X594203Y320203D01*
X593496Y319496D01*
X594203Y318789D01*
X583661Y308246D01*
X606709D01*
X607124Y308246D01*
X607650Y306976D01*
X605262Y304588D01*
X580000D01*
X578244Y304239D01*
X576756Y303244D01*
X562126Y288614D01*
X561919Y288305D01*
X560920D01*
X557868Y287487D01*
X555132Y285907D01*
X552898Y283673D01*
X551318Y280937D01*
X550657Y278472D01*
X549343D01*
X548682Y280937D01*
X547102Y283673D01*
X544868Y285907D01*
X543150Y286899D01*
X542984Y288158D01*
X565413Y310587D01*
X565856Y311250D01*
X579750D01*
Y327750D01*
X560250D01*
Y314546D01*
X560191Y314250D01*
X560191Y314250D01*
Y314017D01*
X536470Y290296D01*
X535807Y289304D01*
X535591Y288217D01*
X532868Y287487D01*
X530132Y285907D01*
X527898Y283673D01*
X526318Y280937D01*
X525657Y278472D01*
X524343D01*
X523682Y280937D01*
X522102Y283673D01*
X519868Y285907D01*
X517132Y287487D01*
X514080Y288305D01*
X513055D01*
Y311246D01*
X519746D01*
Y327746D01*
X500246D01*
Y311246D01*
X506937D01*
Y286950D01*
X505132Y285907D01*
X502898Y283673D01*
X501318Y280937D01*
X500657Y278472D01*
X499343D01*
X498682Y280937D01*
X497102Y283673D01*
X494868Y285907D01*
X492132Y287487D01*
X489080Y288305D01*
X485920D01*
X482868Y287487D01*
X481458Y286673D01*
X458054Y310077D01*
X458540Y311250D01*
X459750D01*
Y327750D01*
X440250D01*
Y311250D01*
X449359D01*
X449557Y310251D01*
X450220Y309259D01*
X477132Y282347D01*
X476318Y280937D01*
X475657Y278472D01*
X474343D01*
X473682Y280937D01*
X472102Y283673D01*
X469868Y285907D01*
X467132Y287487D01*
X464080Y288305D01*
X460920D01*
X457868Y287487D01*
X455132Y285907D01*
X452898Y283673D01*
X451318Y280937D01*
X450500Y277885D01*
Y274725D01*
X451318Y271673D01*
X452898Y268937D01*
X455132Y266703D01*
X457868Y265123D01*
X460333Y264462D01*
Y263148D01*
X457868Y262487D01*
X455132Y260907D01*
X452898Y258673D01*
X451318Y255937D01*
X450896Y254364D01*
X447462D01*
X396563Y305263D01*
X395570Y305926D01*
X394400Y306159D01*
X394400Y306159D01*
X371436D01*
X371354Y306569D01*
X370800Y307400D01*
X369969Y307954D01*
X368990Y308149D01*
X355510D01*
X354531Y307954D01*
X354136Y307690D01*
X348059Y313767D01*
Y323733D01*
X408767Y384441D01*
X495956D01*
X496442Y383268D01*
X472837Y359663D01*
X472174Y358671D01*
X471941Y357500D01*
X471941Y357500D01*
Y348750D01*
X465250D01*
Y343559D01*
X459750D01*
Y348750D01*
X440250D01*
Y343059D01*
X431604D01*
X431182Y344632D01*
X429602Y347368D01*
X427368Y349602D01*
X424632Y351182D01*
X421580Y352000D01*
X418420D01*
X415368Y351182D01*
X412632Y349602D01*
X410398Y347368D01*
X408818Y344632D01*
X408000Y341580D01*
Y338420D01*
X408818Y335368D01*
X410398Y332632D01*
X412632Y330398D01*
X415368Y328818D01*
X418420Y328000D01*
X421580D01*
X424632Y328818D01*
X427368Y330398D01*
X429602Y332632D01*
X431182Y335368D01*
X431604Y336941D01*
X440250D01*
Y332250D01*
X459750D01*
Y337441D01*
X465250D01*
Y332250D01*
X484750D01*
Y348750D01*
X478059D01*
Y356233D01*
X501267Y379441D01*
X553456D01*
X553942Y378268D01*
X539587Y363913D01*
X538924Y362920D01*
X538691Y361750D01*
X538691Y361750D01*
Y348750D01*
X525250D01*
Y343555D01*
X519746D01*
Y348746D01*
X513055D01*
Y351229D01*
X513958Y352132D01*
X515368Y351318D01*
X518420Y350500D01*
X521580D01*
X524632Y351318D01*
X527368Y352898D01*
X529602Y355132D01*
X531182Y357868D01*
X532000Y360920D01*
Y364080D01*
X531182Y367132D01*
X529602Y369868D01*
X527368Y372102D01*
X524632Y373682D01*
X521580Y374500D01*
X518420D01*
X515368Y373682D01*
X512632Y372102D01*
X510398Y369868D01*
X508818Y367132D01*
X508000Y364080D01*
Y360920D01*
X508818Y357868D01*
X509632Y356458D01*
X507833Y354659D01*
X507170Y353666D01*
X506937Y352496D01*
X506937Y352496D01*
Y348746D01*
X500246D01*
Y332246D01*
X519746D01*
Y337437D01*
X525250D01*
Y332250D01*
X544750D01*
Y345454D01*
X544809Y345750D01*
Y360483D01*
X558767Y374441D01*
X567228D01*
X567395Y373171D01*
X565868Y372762D01*
X563132Y371182D01*
X560898Y368948D01*
X559318Y366212D01*
X558500Y363160D01*
Y360000D01*
X559318Y356948D01*
X560898Y354212D01*
X563132Y351977D01*
X565868Y350398D01*
X567277Y350020D01*
X567110Y348750D01*
X560250D01*
Y332250D01*
X579750D01*
Y337441D01*
X585246D01*
Y332246D01*
X604746D01*
Y347921D01*
X606349Y349524D01*
X606406Y349500D01*
X608594D01*
X610616Y350337D01*
X612163Y351884D01*
X612186Y351941D01*
X716233D01*
X742437Y325737D01*
X742437Y325737D01*
X743429Y325074D01*
X744600Y324841D01*
X750564D01*
X750646Y324431D01*
X751200Y323600D01*
X752031Y323046D01*
X753010Y322851D01*
X766490D01*
X767469Y323046D01*
X768300Y323600D01*
X768854Y324431D01*
X769049Y325410D01*
Y330390D01*
X768854Y331369D01*
X768300Y332200D01*
X767469Y332754D01*
X766490Y332949D01*
X753010D01*
X752031Y332754D01*
X751200Y332200D01*
X750646Y331369D01*
X750564Y330959D01*
X745867D01*
X719663Y357163D01*
X718671Y357826D01*
X717500Y358059D01*
X717500Y358059D01*
X612186D01*
X612163Y358116D01*
X610616Y359663D01*
X608594Y360500D01*
X606406D01*
X604384Y359663D01*
X602837Y358116D01*
X602000Y356094D01*
Y353906D01*
X602024Y353849D01*
X598912Y350737D01*
X598248Y349745D01*
X598050Y348746D01*
X585246D01*
Y343559D01*
X579750D01*
Y348750D01*
X573890D01*
X573723Y350020D01*
X575132Y350398D01*
X577868Y351977D01*
X580102Y354212D01*
X581682Y356948D01*
X582500Y360000D01*
Y363160D01*
X581682Y366212D01*
X580102Y368948D01*
X577868Y371182D01*
X575132Y372762D01*
X573605Y373171D01*
X573772Y374441D01*
X675314D01*
X675337Y374384D01*
X676885Y372837D01*
X678906Y372000D01*
X681094D01*
X683115Y372837D01*
X684663Y374384D01*
X684686Y374441D01*
X706233D01*
X742237Y338437D01*
X742237Y338437D01*
X743230Y337774D01*
X744400Y337541D01*
X750564D01*
X750646Y337131D01*
X751200Y336300D01*
X752031Y335746D01*
X753010Y335551D01*
X766490D01*
X767469Y335746D01*
X768300Y336300D01*
X768854Y337131D01*
X769049Y338110D01*
Y343090D01*
X768854Y344069D01*
X768300Y344900D01*
X767469Y345454D01*
X766490Y345649D01*
X753010D01*
X752031Y345454D01*
X751200Y344900D01*
X750646Y344069D01*
X750564Y343659D01*
X745667D01*
X709663Y379663D01*
X708671Y380326D01*
X707500Y380559D01*
X707500Y380559D01*
X684686D01*
X684663Y380616D01*
X683115Y382163D01*
X681094Y383000D01*
X678906D01*
X676885Y382163D01*
X675337Y380616D01*
X675314Y380559D01*
X581544D01*
X581058Y381732D01*
X586267Y386941D01*
X738733D01*
X776941Y348733D01*
Y256267D01*
X766233Y245559D01*
X741267D01*
X720263Y266563D01*
X719270Y267226D01*
X718100Y267459D01*
X718100Y267459D01*
X714436D01*
X714354Y267869D01*
X713800Y268700D01*
X712969Y269254D01*
X711990Y269449D01*
X698510D01*
X697531Y269254D01*
X696700Y268700D01*
X696146Y267869D01*
X695951Y266890D01*
Y261910D01*
X696146Y260931D01*
X696700Y260100D01*
X697531Y259546D01*
X698510Y259351D01*
X711990D01*
X712969Y259546D01*
X713800Y260100D01*
X714354Y260931D01*
X714436Y261341D01*
X716833D01*
X737837Y240337D01*
X738829Y239674D01*
X740000Y239441D01*
X740000Y239441D01*
X767500D01*
X767500Y239441D01*
X768671Y239674D01*
X769663Y240337D01*
X782163Y252837D01*
X782163Y252837D01*
X782826Y253829D01*
X783059Y255000D01*
Y350000D01*
X783059Y350000D01*
X782826Y351171D01*
X782163Y352163D01*
X782163Y352163D01*
X742163Y392163D01*
X741171Y392826D01*
X740000Y393059D01*
X740000Y393059D01*
X594044D01*
X593558Y394232D01*
X604663Y405337D01*
X604663Y405337D01*
X605326Y406329D01*
X605559Y407500D01*
Y497500D01*
X605559Y497500D01*
X605326Y498671D01*
X604663Y499663D01*
X594063Y510263D01*
X593070Y510926D01*
X591900Y511159D01*
X591900Y511159D01*
X583936D01*
X583854Y511569D01*
X583300Y512400D01*
X582469Y512954D01*
X581490Y513149D01*
D02*
G37*
G36*
X63000Y401300D02*
X47000D01*
Y385300D01*
X63000D01*
Y401300D01*
D02*
G37*
G36*
X256240Y395049D02*
X242760D01*
X241781Y394854D01*
X240950Y394300D01*
X240396Y393469D01*
X240201Y392490D01*
Y387510D01*
X240396Y386531D01*
X240950Y385700D01*
X241781Y385146D01*
X242760Y384951D01*
X256240D01*
X257219Y385146D01*
X258050Y385700D01*
X258604Y386531D01*
X258799Y387510D01*
Y392490D01*
X258604Y393469D01*
X258050Y394300D01*
X257219Y394854D01*
X256240Y395049D01*
D02*
G37*
G36*
X201740Y407749D02*
X188260D01*
X187281Y407554D01*
X186450Y407000D01*
X185896Y406169D01*
X185701Y405190D01*
Y400210D01*
X185896Y399231D01*
X186450Y398400D01*
X187281Y397846D01*
X188260Y397651D01*
X201740D01*
X202719Y397846D01*
X203550Y398400D01*
X204664Y398510D01*
X206941Y396233D01*
Y383767D01*
X204664Y381490D01*
X203550Y381600D01*
X202719Y382154D01*
X201740Y382349D01*
X188260D01*
X187281Y382154D01*
X186450Y381600D01*
X185896Y380769D01*
X185701Y379790D01*
Y374810D01*
X185896Y373831D01*
X186450Y373000D01*
X187281Y372446D01*
X188260Y372251D01*
X201740D01*
X202719Y372446D01*
X203550Y373000D01*
X204104Y373831D01*
X204800Y374241D01*
X205970Y374474D01*
X206963Y375137D01*
X212163Y380337D01*
X212826Y381329D01*
X213059Y382500D01*
X213059Y382500D01*
Y397500D01*
X212826Y398671D01*
X212163Y399663D01*
X212163Y399663D01*
X206963Y404863D01*
X205971Y405526D01*
X204800Y405759D01*
X204104Y406169D01*
X203550Y407000D01*
X202719Y407554D01*
X201740Y407749D01*
D02*
G37*
G36*
X115336Y390250D02*
X95664D01*
X105500Y380414D01*
X115336Y390250D01*
D02*
G37*
G36*
X318957Y398043D02*
X302457D01*
Y378543D01*
X318957D01*
Y385191D01*
X339679D01*
Y383625D01*
X339960Y382211D01*
X340761Y381012D01*
X341961Y380210D01*
X343375Y379929D01*
X346625D01*
X348039Y380210D01*
X349239Y381012D01*
X350040Y382211D01*
X350321Y383625D01*
Y392875D01*
X350040Y394289D01*
X349239Y395489D01*
X348039Y396290D01*
X346625Y396571D01*
X343375D01*
X341961Y396290D01*
X340761Y395489D01*
X339960Y394289D01*
X339679Y392875D01*
Y391309D01*
X318957D01*
Y398043D01*
D02*
G37*
G36*
X289707Y385379D02*
X279871Y375543D01*
X299543D01*
X289707Y385379D01*
D02*
G37*
G36*
X256240Y382349D02*
X242760D01*
X241781Y382154D01*
X240950Y381600D01*
X240396Y380769D01*
X240201Y379790D01*
Y374810D01*
X240396Y373831D01*
X240950Y373000D01*
X241781Y372446D01*
X242760Y372251D01*
X256240D01*
X257219Y372446D01*
X258050Y373000D01*
X258604Y373831D01*
X258799Y374810D01*
Y379790D01*
X258604Y380769D01*
X258050Y381600D01*
X257219Y382154D01*
X256240Y382349D01*
D02*
G37*
G36*
X88625Y427321D02*
X79375D01*
X77961Y427040D01*
X76761Y426239D01*
X75960Y425039D01*
X75679Y423625D01*
Y420375D01*
X75960Y418961D01*
X76761Y417761D01*
X77961Y416960D01*
X79375Y416679D01*
X80941D01*
Y387250D01*
X76250D01*
Y367750D01*
X92750D01*
Y387250D01*
X87059D01*
Y416679D01*
X88625D01*
X90039Y416960D01*
X91238Y417761D01*
X92040Y418961D01*
X92321Y420375D01*
Y423625D01*
X92040Y425039D01*
X91238Y426239D01*
X90039Y427040D01*
X88625Y427321D01*
D02*
G37*
G36*
X156500Y383586D02*
X148414Y375500D01*
X156500Y367414D01*
Y383586D01*
D02*
G37*
G36*
X56053Y375900D02*
X53947D01*
X51912Y375355D01*
X50088Y374302D01*
X48598Y372812D01*
X47545Y370988D01*
X47000Y368953D01*
Y366847D01*
X47545Y364812D01*
X48598Y362988D01*
X50088Y361498D01*
X51912Y360445D01*
X53947Y359900D01*
X56053D01*
X58088Y360445D01*
X59912Y361498D01*
X61402Y362988D01*
X62455Y364812D01*
X63000Y366847D01*
Y368953D01*
X62455Y370988D01*
X61402Y372812D01*
X59912Y374302D01*
X58088Y375355D01*
X56053Y375900D01*
D02*
G37*
G36*
X238221Y357515D02*
X237570Y356540D01*
X237142Y354390D01*
Y349410D01*
X237570Y347260D01*
X238221Y346285D01*
X243836Y351900D01*
X238221Y357515D01*
D02*
G37*
G36*
X260779D02*
X255164Y351900D01*
X260779Y346285D01*
X261430Y347260D01*
X261858Y349410D01*
Y354390D01*
X261430Y356540D01*
X260779Y357515D01*
D02*
G37*
G36*
X56448Y353500D02*
X53552D01*
X50754Y352750D01*
X48246Y351302D01*
X47929Y350985D01*
X55000Y343914D01*
X62071Y350985D01*
X61754Y351302D01*
X59246Y352750D01*
X56448Y353500D01*
D02*
G37*
G36*
X256240Y369649D02*
X242760D01*
X241781Y369454D01*
X240950Y368900D01*
X240396Y368069D01*
X240201Y367090D01*
Y362110D01*
X240396Y361131D01*
X240571Y360868D01*
X240602Y359838D01*
X240202Y359308D01*
X239635Y358929D01*
X245957Y352607D01*
X245250Y351900D01*
X245957Y351193D01*
X239635Y344871D01*
X240610Y344220D01*
X242760Y343792D01*
X256240D01*
X258390Y344220D01*
X259365Y344871D01*
X253043Y351193D01*
X253750Y351900D01*
X253043Y352607D01*
X259365Y358929D01*
X258798Y359308D01*
X258398Y359838D01*
X258429Y360868D01*
X258604Y361131D01*
X258799Y362110D01*
Y367090D01*
X258604Y368069D01*
X258050Y368900D01*
X257219Y369454D01*
X256240Y369649D01*
D02*
G37*
G36*
X666094Y350500D02*
X663906D01*
X661885Y349663D01*
X660337Y348116D01*
X659500Y346094D01*
Y343906D01*
X659268Y343559D01*
X657250D01*
Y348750D01*
X637750D01*
Y343559D01*
X632250D01*
Y348750D01*
X612750D01*
Y332250D01*
X632250D01*
Y337441D01*
X637750D01*
Y332250D01*
X657250D01*
Y337441D01*
X661964D01*
X661964Y337441D01*
X663135Y337674D01*
X664127Y338337D01*
X665290Y339500D01*
X666094D01*
X666151Y339524D01*
X671941Y333733D01*
Y329500D01*
X670920D01*
X667868Y328682D01*
X665132Y327102D01*
X662898Y324868D01*
X661520Y322482D01*
X660250Y322822D01*
Y329336D01*
X650414Y319500D01*
X660250Y309664D01*
Y312178D01*
X661520Y312518D01*
X662898Y310132D01*
X665132Y307898D01*
X667868Y306318D01*
X670920Y305500D01*
X674080D01*
X677132Y306318D01*
X679868Y307898D01*
X682102Y310132D01*
X683171Y311983D01*
X684441Y311643D01*
Y297186D01*
X684385Y297163D01*
X682837Y295616D01*
X682000Y293594D01*
Y291406D01*
X682837Y289384D01*
X684385Y287837D01*
X686406Y287000D01*
X688594D01*
X690615Y287837D01*
X692163Y289384D01*
X693000Y291406D01*
Y293594D01*
X692163Y295616D01*
X690615Y297163D01*
X690559Y297186D01*
Y336233D01*
X691267Y336941D01*
X696272D01*
X696700Y336300D01*
X697531Y335746D01*
X698510Y335551D01*
X711990D01*
X712969Y335746D01*
X713800Y336300D01*
X714354Y337131D01*
X714549Y338110D01*
Y343090D01*
X714354Y344069D01*
X713800Y344900D01*
X712969Y345454D01*
X711990Y345649D01*
X698510D01*
X697531Y345454D01*
X696700Y344900D01*
X696146Y344069D01*
X695951Y343090D01*
Y343059D01*
X690000D01*
X688829Y342826D01*
X687837Y342163D01*
X687837Y342163D01*
X685337Y339663D01*
X684674Y338671D01*
X684441Y337500D01*
X684441Y337500D01*
Y323357D01*
X683171Y323017D01*
X682102Y324868D01*
X679868Y327102D01*
X678059Y328147D01*
Y335000D01*
X677826Y336171D01*
X677163Y337163D01*
X677163Y337163D01*
X670477Y343849D01*
X670500Y343906D01*
Y346094D01*
X669663Y348116D01*
X668115Y349663D01*
X666094Y350500D01*
D02*
G37*
G36*
X63485Y349571D02*
X56414Y342500D01*
X63485Y335429D01*
X63802Y335746D01*
X65250Y338254D01*
X66000Y341052D01*
Y343948D01*
X65250Y346746D01*
X63802Y349254D01*
X63485Y349571D01*
D02*
G37*
G36*
X46515D02*
X46198Y349254D01*
X44750Y346746D01*
X44000Y343948D01*
Y341052D01*
X44750Y338254D01*
X46198Y335746D01*
X46515Y335429D01*
X53586Y342500D01*
X46515Y349571D01*
D02*
G37*
G36*
X55000Y341086D02*
X47929Y334015D01*
X48246Y333698D01*
X50754Y332250D01*
X53552Y331500D01*
X56448D01*
X59246Y332250D01*
X61754Y333698D01*
X62071Y334015D01*
X55000Y341086D01*
D02*
G37*
G36*
X711990Y332949D02*
X698510D01*
X697531Y332754D01*
X696700Y332200D01*
X696146Y331369D01*
X695951Y330390D01*
Y325410D01*
X696146Y324431D01*
X696700Y323600D01*
X697531Y323046D01*
X698510Y322851D01*
X711990D01*
X712969Y323046D01*
X713800Y323600D01*
X714354Y324431D01*
X714549Y325410D01*
Y330390D01*
X714354Y331369D01*
X713800Y332200D01*
X712969Y332754D01*
X711990Y332949D01*
D02*
G37*
G36*
X766490Y320249D02*
X753010D01*
X752031Y320054D01*
X751200Y319500D01*
X750646Y318669D01*
X750451Y317690D01*
Y312710D01*
X750646Y311731D01*
X751200Y310900D01*
X752031Y310346D01*
X753010Y310151D01*
X766490D01*
X767469Y310346D01*
X768300Y310900D01*
X768854Y311731D01*
X769049Y312710D01*
Y317690D01*
X768854Y318669D01*
X768300Y319500D01*
X767469Y320054D01*
X766490Y320249D01*
D02*
G37*
G36*
X711990D02*
X698510D01*
X697531Y320054D01*
X696700Y319500D01*
X696146Y318669D01*
X695951Y317690D01*
Y312710D01*
X696146Y311731D01*
X696700Y310900D01*
X697531Y310346D01*
X698510Y310151D01*
X711990D01*
X712969Y310346D01*
X713800Y310900D01*
X714354Y311731D01*
X714549Y312710D01*
Y317690D01*
X714354Y318669D01*
X713800Y319500D01*
X712969Y320054D01*
X711990Y320249D01*
D02*
G37*
G36*
X487750Y329336D02*
X477914Y319500D01*
X487750Y309664D01*
Y329336D01*
D02*
G37*
G36*
X547750Y329336D02*
X537914Y319500D01*
X547750Y309664D01*
Y329336D01*
D02*
G37*
G36*
X634750Y329336D02*
Y309664D01*
X644586Y319500D01*
X634750Y329336D01*
D02*
G37*
G36*
X462250Y329336D02*
Y309664D01*
X472086Y319500D01*
X462250Y329336D01*
D02*
G37*
G36*
X522250Y329336D02*
Y309664D01*
X532086Y319500D01*
X522250Y329336D01*
D02*
G37*
G36*
X582246Y329332D02*
Y309660D01*
X592082Y319496D01*
X582246Y329332D01*
D02*
G37*
G36*
X658836Y330750D02*
X636164D01*
X646707Y320207D01*
X646000Y319500D01*
X646707Y318793D01*
X636164Y308250D01*
X658836D01*
X648293Y318793D01*
X649000Y319500D01*
X648293Y320207D01*
X658836Y330750D01*
D02*
G37*
G36*
X486336D02*
X463664D01*
X474207Y320207D01*
X473500Y319500D01*
X474207Y318793D01*
X463664Y308250D01*
X486336D01*
X475793Y318793D01*
X476500Y319500D01*
X475793Y320207D01*
X486336Y330750D01*
D02*
G37*
G36*
X546336Y330750D02*
X523664D01*
X534207Y320207D01*
X533500Y319500D01*
X534207Y318793D01*
X523664Y308250D01*
X546336D01*
X535793Y318793D01*
X536500Y319500D01*
X535793Y320207D01*
X546336Y330750D01*
D02*
G37*
G36*
X176094Y323000D02*
X173906D01*
X171884Y322163D01*
X170337Y320616D01*
X169500Y318594D01*
Y316406D01*
X170337Y314384D01*
X171884Y312837D01*
X173906Y312000D01*
X176094D01*
X178116Y312837D01*
X179663Y314384D01*
X179686Y314441D01*
X186250D01*
Y305500D01*
X203750D01*
Y321000D01*
X186250D01*
Y320559D01*
X179686D01*
X179663Y320616D01*
X178116Y322163D01*
X176094Y323000D01*
D02*
G37*
G36*
X766490Y307549D02*
X753010D01*
X752031Y307354D01*
X751200Y306800D01*
X750646Y305969D01*
X750451Y304990D01*
Y300010D01*
X750646Y299031D01*
X751200Y298200D01*
X752031Y297646D01*
X753010Y297451D01*
X766490D01*
X767469Y297646D01*
X768300Y298200D01*
X768854Y299031D01*
X769049Y300010D01*
Y304990D01*
X768854Y305969D01*
X768300Y306800D01*
X767469Y307354D01*
X766490Y307549D01*
D02*
G37*
G36*
X711990D02*
X698510D01*
X697531Y307354D01*
X696700Y306800D01*
X696146Y305969D01*
X695951Y304990D01*
Y300010D01*
X696146Y299031D01*
X696700Y298200D01*
X697531Y297646D01*
X698510Y297451D01*
X711990D01*
X712969Y297646D01*
X713800Y298200D01*
X714354Y299031D01*
X714549Y300010D01*
Y304990D01*
X714354Y305969D01*
X713800Y306800D01*
X712969Y307354D01*
X711990Y307549D01*
D02*
G37*
G36*
X951717Y520000D02*
X949083D01*
X946540Y519319D01*
X944260Y518002D01*
X942398Y516140D01*
X941081Y513860D01*
X940400Y511316D01*
Y508684D01*
X941081Y506140D01*
X942398Y503860D01*
X944260Y501998D01*
X946540Y500681D01*
X946941Y500574D01*
Y360383D01*
X929416Y342857D01*
X928753Y341865D01*
X928520Y340694D01*
X928520Y340694D01*
Y279422D01*
X928520Y279422D01*
X928753Y278251D01*
X929416Y277259D01*
X930587Y276087D01*
X930587Y276087D01*
X931580Y275424D01*
X932750Y275191D01*
X933750Y274448D01*
Y270500D01*
X938691D01*
Y252821D01*
X937125D01*
X935711Y252540D01*
X934511Y251738D01*
X933710Y250539D01*
X933429Y249125D01*
Y245875D01*
X933710Y244461D01*
X934511Y243262D01*
X935711Y242460D01*
X937125Y242179D01*
X946375D01*
X947789Y242460D01*
X948988Y243262D01*
X949790Y244461D01*
X950071Y245875D01*
Y249125D01*
X949790Y250539D01*
X948988Y251738D01*
X947789Y252540D01*
X946375Y252821D01*
X944809D01*
Y270500D01*
X951250D01*
Y286000D01*
X934637D01*
Y289000D01*
X951250D01*
Y291941D01*
X952814D01*
X952837Y291884D01*
X954385Y290337D01*
X956406Y289500D01*
X958594D01*
X960615Y290337D01*
X962163Y291884D01*
X963000Y293906D01*
Y296094D01*
X962163Y298116D01*
X960615Y299663D01*
X958594Y300500D01*
X956406D01*
X954385Y299663D01*
X952837Y298116D01*
X952814Y298059D01*
X951250D01*
Y304500D01*
X934637D01*
Y339427D01*
X952163Y356953D01*
X952826Y357946D01*
X953059Y359116D01*
Y500360D01*
X954260Y500681D01*
X956540Y501998D01*
X958402Y503860D01*
X959718Y506140D01*
X960400Y508684D01*
Y511316D01*
X959718Y513860D01*
X958402Y516140D01*
X956540Y518002D01*
X954260Y519319D01*
X951717Y520000D01*
D02*
G37*
G36*
X766490Y294849D02*
X753010D01*
X752031Y294654D01*
X751200Y294100D01*
X750646Y293269D01*
X750451Y292290D01*
Y287310D01*
X750646Y286331D01*
X751200Y285500D01*
X752031Y284946D01*
X753010Y284751D01*
X766490D01*
X767469Y284946D01*
X768300Y285500D01*
X768854Y286331D01*
X769049Y287310D01*
Y292290D01*
X768854Y293269D01*
X768300Y294100D01*
X767469Y294654D01*
X766490Y294849D01*
D02*
G37*
G36*
X711990D02*
X698510D01*
X697531Y294654D01*
X696700Y294100D01*
X696146Y293269D01*
X695951Y292290D01*
Y287310D01*
X696146Y286331D01*
X696700Y285500D01*
X697531Y284946D01*
X698510Y284751D01*
X711990D01*
X712969Y284946D01*
X713800Y285500D01*
X714354Y286331D01*
X714549Y287310D01*
Y292290D01*
X714354Y293269D01*
X713800Y294100D01*
X712969Y294654D01*
X711990Y294849D01*
D02*
G37*
G36*
X1043148Y300000D02*
X1036852D01*
X1030633Y299015D01*
X1024645Y297069D01*
X1019035Y294211D01*
X1013942Y290510D01*
X1012423Y288991D01*
X1040000Y261414D01*
X1067577Y288991D01*
X1066058Y290510D01*
X1060965Y294211D01*
X1055355Y297069D01*
X1049367Y299015D01*
X1043148Y300000D01*
D02*
G37*
G36*
X63148D02*
X56852D01*
X50633Y299015D01*
X44645Y297069D01*
X39035Y294211D01*
X33942Y290510D01*
X32423Y288991D01*
X60000Y261414D01*
X87577Y288991D01*
X86058Y290510D01*
X80965Y294211D01*
X75355Y297069D01*
X69367Y299015D01*
X63148Y300000D01*
D02*
G37*
G36*
X314490Y270049D02*
X301010D01*
X300031Y269854D01*
X299200Y269300D01*
X298646Y268469D01*
X298451Y267490D01*
Y262510D01*
X298646Y261531D01*
X299200Y260700D01*
X300031Y260146D01*
X301010Y259951D01*
X314490D01*
X315469Y260146D01*
X316300Y260700D01*
X316854Y261531D01*
X317049Y262510D01*
Y267490D01*
X316854Y268469D01*
X316300Y269300D01*
X315469Y269854D01*
X314490Y270049D01*
D02*
G37*
G36*
X748471Y270015D02*
X747820Y269040D01*
X747392Y266890D01*
Y261910D01*
X747820Y259760D01*
X748471Y258785D01*
X754086Y264400D01*
X748471Y270015D01*
D02*
G37*
G36*
X771029D02*
X765414Y264400D01*
X771029Y258785D01*
X771680Y259760D01*
X772108Y261910D01*
Y266890D01*
X771680Y269040D01*
X771029Y270015D01*
D02*
G37*
G36*
X766490Y282149D02*
X753010D01*
X752031Y281954D01*
X751200Y281400D01*
X750646Y280569D01*
X750451Y279590D01*
Y274610D01*
X750646Y273631D01*
X750822Y273368D01*
X750852Y272339D01*
X750452Y271808D01*
X749885Y271429D01*
X756207Y265107D01*
X755500Y264400D01*
X756207Y263693D01*
X749885Y257371D01*
X750860Y256720D01*
X753010Y256292D01*
X766490D01*
X768640Y256720D01*
X769615Y257371D01*
X763293Y263693D01*
X764000Y264400D01*
X763293Y265107D01*
X769615Y271429D01*
X769048Y271808D01*
X768648Y272339D01*
X768679Y273368D01*
X768854Y273631D01*
X769049Y274610D01*
Y279590D01*
X768854Y280569D01*
X768300Y281400D01*
X767469Y281954D01*
X766490Y282149D01*
D02*
G37*
G36*
X819376Y266050D02*
X815624D01*
X812000Y265079D01*
X808750Y263203D01*
X808131Y262583D01*
X817500Y253214D01*
X826869Y262583D01*
X826250Y263203D01*
X823000Y265079D01*
X819376Y266050D01*
D02*
G37*
G36*
X923214Y262550D02*
X917664Y257000D01*
X923214Y251450D01*
X923662Y252034D01*
X924330Y253645D01*
X924557Y255375D01*
Y258625D01*
X924330Y260354D01*
X923662Y261966D01*
X923214Y262550D01*
D02*
G37*
G36*
X903286Y262550D02*
X902838Y261966D01*
X902170Y260354D01*
X901943Y258625D01*
Y255375D01*
X902170Y253645D01*
X902838Y252034D01*
X903286Y251450D01*
X908836Y257000D01*
X903286Y262550D01*
D02*
G37*
G36*
X917875Y265307D02*
X908625D01*
X906896Y265079D01*
X905284Y264412D01*
X904700Y263964D01*
X910957Y257707D01*
X910250Y257000D01*
X910957Y256293D01*
X904700Y250036D01*
X905284Y249588D01*
X906896Y248920D01*
X908625Y248693D01*
X917875D01*
X919604Y248920D01*
X921216Y249588D01*
X921800Y250036D01*
X915543Y256293D01*
X916250Y257000D01*
X915543Y257707D01*
X921800Y263964D01*
X921216Y264412D01*
X919604Y265079D01*
X917875Y265307D01*
D02*
G37*
G36*
X899250Y266086D02*
X889914Y256750D01*
X899250Y247414D01*
Y266086D01*
D02*
G37*
G36*
X875750Y266086D02*
Y247414D01*
X885086Y256750D01*
X875750Y266086D01*
D02*
G37*
G36*
X314490Y257349D02*
X301010D01*
X300031Y257154D01*
X299200Y256600D01*
X298646Y255769D01*
X298451Y254790D01*
Y249810D01*
X298646Y248831D01*
X299200Y248000D01*
X300031Y247446D01*
X301010Y247251D01*
X314490D01*
X315469Y247446D01*
X316300Y248000D01*
X316854Y248831D01*
X317049Y249810D01*
Y254790D01*
X316854Y255769D01*
X316300Y256600D01*
X315469Y257154D01*
X314490Y257349D01*
D02*
G37*
G36*
X806717Y261169D02*
X806097Y260550D01*
X804221Y257300D01*
X803250Y253676D01*
Y249924D01*
X804221Y246300D01*
X806097Y243050D01*
X806717Y242431D01*
X816086Y251800D01*
X806717Y261169D01*
D02*
G37*
G36*
X652500Y264891D02*
X638914Y251305D01*
X652500Y237719D01*
Y264891D01*
D02*
G37*
G36*
X637500Y249891D02*
X623914Y236305D01*
X651086D01*
X637500Y249891D01*
D02*
G37*
G36*
X1068991Y287577D02*
X1041414Y260000D01*
X1068991Y232423D01*
X1070510Y233942D01*
X1074211Y239035D01*
X1077069Y244645D01*
X1079015Y250633D01*
X1080000Y256852D01*
Y263148D01*
X1079015Y269367D01*
X1077069Y275355D01*
X1074211Y280965D01*
X1070510Y286058D01*
X1068991Y287577D01*
D02*
G37*
G36*
X88991D02*
X61414Y260000D01*
X88991Y232423D01*
X90510Y233942D01*
X94211Y239035D01*
X97070Y244645D01*
X99015Y250633D01*
X100000Y256852D01*
Y263148D01*
X99015Y269367D01*
X97070Y275355D01*
X94211Y280965D01*
X90510Y286058D01*
X88991Y287577D01*
D02*
G37*
G36*
X1011009D02*
X1009490Y286058D01*
X1005789Y280965D01*
X1002931Y275355D01*
X1000985Y269367D01*
X1000000Y263148D01*
Y256852D01*
X1000985Y250633D01*
X1002931Y244645D01*
X1005789Y239035D01*
X1009490Y233942D01*
X1011009Y232423D01*
X1038586Y260000D01*
X1011009Y287577D01*
D02*
G37*
G36*
X31009D02*
X29490Y286058D01*
X25789Y280965D01*
X22931Y275355D01*
X20985Y269367D01*
X20000Y263148D01*
Y256852D01*
X20985Y250633D01*
X22931Y244645D01*
X25789Y239035D01*
X29490Y233942D01*
X31009Y232423D01*
X58586Y260000D01*
X31009Y287577D01*
D02*
G37*
G36*
X1040000Y258586D02*
X1012423Y231009D01*
X1013942Y229490D01*
X1019035Y225789D01*
X1024645Y222931D01*
X1030633Y220985D01*
X1036852Y220000D01*
X1043148D01*
X1049367Y220985D01*
X1055355Y222931D01*
X1060965Y225789D01*
X1066058Y229490D01*
X1067577Y231009D01*
X1040000Y258586D01*
D02*
G37*
G36*
X60000D02*
X32423Y231009D01*
X33942Y229490D01*
X39035Y225789D01*
X44645Y222931D01*
X50633Y220985D01*
X56852Y220000D01*
X63148D01*
X69367Y220985D01*
X75355Y222931D01*
X80965Y225789D01*
X86058Y229490D01*
X87577Y231009D01*
X60000Y258586D01*
D02*
G37*
%LPD*%
G36*
X346337Y443587D02*
X346337Y443587D01*
X346500Y443478D01*
Y431250D01*
X351441D01*
Y424777D01*
X350261Y423988D01*
X349460Y422789D01*
X349179Y421375D01*
Y412125D01*
X349460Y410711D01*
X350261Y409511D01*
X351461Y408710D01*
X352875Y408429D01*
X356125D01*
X357539Y408710D01*
X358739Y409511D01*
X359540Y410711D01*
X359821Y412125D01*
Y421375D01*
X359540Y422789D01*
X358739Y423988D01*
X357559Y424777D01*
Y430877D01*
X358829Y431096D01*
X365573Y424351D01*
X365500Y424080D01*
Y420920D01*
X366318Y417868D01*
X367898Y415132D01*
X370132Y412898D01*
X372868Y411318D01*
X375920Y410500D01*
X379080D01*
X382132Y411318D01*
X383466Y412088D01*
X384246Y411072D01*
X378733Y405559D01*
X346267D01*
X340635Y411191D01*
X340821Y412125D01*
Y421375D01*
X340540Y422789D01*
X339739Y423988D01*
X338559Y424777D01*
Y431250D01*
X343500D01*
Y444765D01*
X344673Y445251D01*
X346337Y443587D01*
D02*
G37*
D11*
X924800Y674600D02*
G03*
X899400Y700000I-25400J0D01*
G01*
X140000Y601700D02*
G03*
X155500Y586200I15500J0D01*
G01*
X267500Y649250D02*
G03*
X266750Y650000I-750J0D01*
G01*
X274250Y649250D02*
G03*
X285000Y660000I0J10750D01*
G01*
X266750Y658250D02*
G03*
X260000Y665000I-6750J0D01*
G01*
X147100Y627100D02*
G03*
X162500Y642500I0J15400D01*
G01*
X187900Y674600D02*
G03*
X162500Y649200I0J-25400D01*
G01*
X572000Y699500D02*
G03*
X572500Y700000I0J500D01*
G01*
X494600Y655000D02*
G03*
X520000Y680400I0J25400D01*
G01*
X355000Y661900D02*
G03*
X361900Y655000I6900J0D01*
G01*
X397500Y747500D02*
G03*
X375000Y725000I0J-22500D01*
G01*
X365200Y712700D02*
G03*
X375000Y722500I0J9800D01*
G01*
X520000Y722100D02*
G03*
X494600Y747500I-25400J0D01*
G01*
X195200Y712700D02*
G03*
X172500Y690000I0J-22700D01*
G01*
X155000Y672500D02*
G03*
X172500Y690000I0J17500D01*
G01*
X135000Y672500D02*
G03*
X122500Y660000I0J-12500D01*
G01*
Y610000D02*
G03*
X130800Y601700I8300J0D01*
G01*
X230000Y665000D02*
G03*
X217500Y652500I0J-12500D01*
G01*
X675000Y320000D02*
Y335000D01*
X672500Y317500D02*
X675000Y320000D01*
X665000Y345000D02*
X675000Y335000D01*
X881750Y233500D02*
X886500Y238250D01*
X864250Y215000D02*
X881750Y232500D01*
Y233500D01*
X623805Y215000D02*
X864250D01*
X886500Y238250D02*
X887500D01*
X587500Y251305D02*
X623805Y215000D01*
X941750Y277500D02*
X942500Y278250D01*
X941750Y247500D02*
Y277500D01*
X944250Y295000D02*
X957500D01*
X942500Y296750D02*
X944250Y295000D01*
X887750Y238000D02*
X913250D01*
X887500Y238250D02*
X887750Y238000D01*
X931578Y340694D02*
X950000Y359116D01*
X931578Y279422D02*
Y340694D01*
Y279422D02*
X932750Y278250D01*
X942500D01*
X950000Y359116D02*
Y509600D01*
X950400Y510000D01*
X705000Y232500D02*
X772500D01*
X790000Y250000D01*
X682500Y255000D02*
X705000Y232500D01*
X790000Y250000D02*
Y355000D01*
X807500Y377500D02*
Y395000D01*
X790000Y355000D02*
X812500Y377500D01*
X780000Y255000D02*
Y350000D01*
X740000Y242500D02*
X767500D01*
X780000Y255000D01*
X718100Y264400D02*
X740000Y242500D01*
Y390000D02*
X780000Y350000D01*
X924800Y650800D02*
Y674600D01*
X835000Y700000D02*
X899400D01*
X179750Y586200D02*
X181462Y587913D01*
X188763D01*
X191250Y590400D01*
X155500Y586200D02*
X179750D01*
X237500Y712700D02*
X355000D01*
X195200D02*
X237500D01*
X577500Y382500D02*
X585000Y390000D01*
X740000D01*
X585000D02*
X602500Y407500D01*
X667500D02*
Y422500D01*
X645400Y444600D02*
X667500Y422500D01*
X632750Y444600D02*
X645400D01*
X632500Y431650D02*
X632750Y431900D01*
X632500Y407500D02*
Y431650D01*
X390200Y712700D02*
X409500D01*
X390000Y712500D02*
X390200Y712700D01*
X671294Y462841D02*
X673128D01*
X678672Y468385D01*
X670337Y461884D02*
X671294Y462841D01*
X687250Y508100D02*
X704400D01*
X570500Y341000D02*
Y361580D01*
X570000Y340500D02*
X570500Y341000D01*
X707500Y377500D02*
X744400Y340600D01*
X557500Y377500D02*
X707500D01*
X541750Y361750D02*
X557500Y377500D01*
X500000Y382500D02*
X577500D01*
X475000Y357500D02*
X500000Y382500D01*
X541750Y345750D02*
Y361750D01*
X266750Y650000D02*
X271078Y654328D01*
X266750Y650000D02*
Y658250D01*
X267500Y620000D02*
Y649250D01*
X274250D01*
X802750Y553500D02*
Y569750D01*
X801750Y552500D02*
X802750Y553500D01*
X801750Y552500D02*
X802750Y551500D01*
X802500Y570000D02*
X802750Y569750D01*
Y519050D02*
Y551500D01*
X762750Y555250D02*
X780500D01*
X783250Y552500D01*
X750000Y542500D02*
X762750Y555250D01*
X750000Y529250D02*
Y542500D01*
X616422Y311422D02*
Y314250D01*
X621672Y319500D02*
X622500D01*
X616422Y314250D02*
X621672Y319500D01*
X605000Y300000D02*
X616422Y311422D01*
X622500Y340500D02*
X647500D01*
X661964D01*
X664043Y344043D02*
X665000Y345000D01*
X664043Y342579D02*
Y344043D01*
X661964Y340500D02*
X664043Y342579D01*
X297500Y492500D02*
X385000Y580000D01*
X852500D02*
X899600Y532900D01*
X385000Y580000D02*
X852500D01*
X765750Y529250D02*
X787143Y507857D01*
X750000Y529250D02*
X765750D01*
X787143Y507857D02*
X801243D01*
X802750Y506350D01*
X750000Y489500D02*
Y510750D01*
Y489500D02*
X783739D01*
X787889Y493650D01*
X802750D01*
X802500Y449500D02*
Y465869D01*
X802750Y466119D01*
Y480950D01*
X195000Y332500D02*
X310000D01*
X185000D02*
X195000D01*
X288100Y303100D02*
X307750D01*
X287500Y302500D02*
X288100Y303100D01*
X286724Y303276D02*
X287500Y302500D01*
X286691Y303276D02*
X286724D01*
X330000Y210000D02*
X496195D01*
X315100Y224900D02*
X330000Y210000D01*
X307750Y226900D02*
X309750Y224900D01*
X315100D01*
X280600Y226900D02*
X307750D01*
X335000Y327500D02*
X405000Y397500D01*
X507500D01*
X362250Y239600D02*
X382100D01*
X390000Y247500D01*
X362250Y290400D02*
X387100D01*
X442500Y235000D02*
X471195D01*
X487500Y251305D01*
X387100Y290400D02*
X442500Y235000D01*
X327500Y335000D02*
X400000Y407500D01*
X519522Y431172D02*
X520250Y431900D01*
X511172Y431172D02*
X519522D01*
X487500Y407500D02*
X511172Y431172D01*
X400000Y407500D02*
X487500D01*
X362250Y277700D02*
X384800D01*
X407500Y387500D02*
X567500D01*
X446195Y251305D02*
X462500D01*
X307750Y239600D02*
X317900D01*
X362250Y265000D02*
X387500D01*
X340000Y217500D02*
X392500D01*
X400000Y225000D02*
Y252500D01*
X387500Y265000D02*
X400000Y252500D01*
X317900Y239600D02*
X340000Y217500D01*
X384800Y277700D02*
X435000Y227500D01*
X310000Y332500D02*
X320000Y322500D01*
Y272500D02*
Y322500D01*
Y272500D02*
X340200Y252300D01*
X362250D01*
X361078Y304272D02*
X362250Y303100D01*
X353228Y304272D02*
X361078D01*
X345000Y312500D02*
X353228Y304272D01*
X345000Y312500D02*
Y325000D01*
X407500Y387500D01*
X347100Y290400D02*
X362250D01*
X335000Y302500D02*
X347100Y290400D01*
X335000Y302500D02*
Y327500D01*
X344800Y277700D02*
X362250D01*
X327500Y295000D02*
X344800Y277700D01*
X327500Y295000D02*
Y335000D01*
X362250Y303100D02*
X394400D01*
X446195Y251305D01*
X574750Y495400D02*
X587100D01*
X595000Y487500D01*
Y415000D02*
Y487500D01*
X567500Y387500D02*
X595000Y415000D01*
X509710Y248515D02*
X512500Y251305D01*
X509710Y239710D02*
Y248515D01*
X497500Y227500D02*
X509710Y239710D01*
X435000Y227500D02*
X497500D01*
X392500Y217500D02*
X400000Y225000D01*
X452383Y311422D02*
Y317117D01*
Y311422D02*
X487500Y276305D01*
X475000Y340500D02*
Y357500D01*
X554600Y444600D02*
X574750D01*
X507500Y397500D02*
X554600Y444600D01*
X228457Y279043D02*
X280600Y226900D01*
X228457Y279043D02*
Y281543D01*
X227500Y282500D02*
X228457Y281543D01*
X496195Y210000D02*
X537500Y251305D01*
X310707Y388293D02*
X311414D01*
X312164Y388250D02*
X345000D01*
X311414Y389000D02*
X312164Y388250D01*
X84000Y378000D02*
X84500Y377500D01*
X84000Y378000D02*
Y422000D01*
X180000Y337500D02*
Y361700D01*
Y337500D02*
X185000Y332500D01*
X180000Y361700D02*
X182900Y364600D01*
X180000Y367500D02*
X182900Y364600D01*
X180000Y387500D02*
X182500Y390000D01*
X180000Y367500D02*
Y387500D01*
X145426Y394074D02*
X157902D01*
X179228Y415400D01*
X145000Y394500D02*
X145426Y394074D01*
X179228Y415400D02*
X195000D01*
X145000Y394500D02*
Y423250D01*
X130500Y394500D02*
X145000D01*
X130000Y395000D02*
X130006Y394994D01*
X116895Y408105D02*
X130000Y395000D01*
X130000D01*
X112500Y412500D02*
X114693D01*
X116895Y410298D01*
Y408105D02*
Y410298D01*
X130000Y372500D02*
Y395000D01*
X130500Y394500D01*
X110000Y352500D02*
X130000Y372500D01*
X145000Y441750D02*
X168250D01*
X179900Y430100D02*
X193000D01*
X168250Y441750D02*
X179900Y430100D01*
X120000Y466750D02*
X139250Y447500D01*
X120000Y466750D02*
Y485000D01*
X144000Y441750D02*
X145000D01*
X139250Y446500D02*
X144000Y441750D01*
X139250Y446500D02*
Y447500D01*
X193000Y430100D02*
X195000Y428100D01*
X130689Y431500D02*
X136189Y437000D01*
X140250D01*
X145000Y441750D01*
X112500Y431500D02*
X130689D01*
X152500Y327500D02*
X157371D01*
X162371Y332500D01*
X185000D01*
X175000Y317500D02*
X190750D01*
X195000Y313250D01*
X140000Y627100D02*
X147100D01*
X162500Y642500D02*
Y649200D01*
X520000Y699500D02*
X572000D01*
X572500Y737500D02*
X572500D01*
Y700000D02*
Y737500D01*
X361900Y655000D02*
X494600D01*
X520000Y680400D02*
Y699500D01*
X375000Y722500D02*
Y725000D01*
X397500Y747500D02*
X494600D01*
X355000Y712700D02*
X365200D01*
X520000Y720500D02*
Y722100D01*
X135000Y672500D02*
X155000D01*
X122500Y610000D02*
Y660000D01*
X130800Y601700D02*
X140000D01*
X230000Y665000D02*
X260000D01*
X187900Y674600D02*
X355000D01*
X429578Y431900D02*
X462250D01*
X417678Y420000D02*
X429578Y431900D01*
X355000Y507500D02*
X392500Y470000D01*
X407750D01*
X354500Y416750D02*
Y438750D01*
X359000Y434250D01*
X354250Y439000D02*
X354500Y438750D01*
X359000Y434250D02*
X360000D01*
X368306Y425944D01*
X354250Y439000D02*
Y440000D01*
X368306Y425944D02*
X374056D01*
X377500Y422500D01*
X420000Y340000D02*
X449500D01*
X450000Y340500D01*
X570000Y340500D02*
X595829D01*
X509996Y340496D02*
Y352496D01*
X520000Y362500D01*
X222500Y427500D02*
X235000Y415000D01*
X222500Y427500D02*
Y460000D01*
X406572Y431900D02*
X407750D01*
X404572Y429900D02*
X406572Y431900D01*
X380000Y402500D02*
X404572Y427072D01*
Y429900D01*
X345000Y402500D02*
X380000D01*
X687250Y444600D02*
X722900D01*
X755000Y412500D01*
X440000Y455000D02*
Y521826D01*
X465674Y547500D02*
X595000D01*
X440000Y521826D02*
X465674Y547500D01*
X595000D02*
X610000Y532500D01*
Y442500D02*
Y532500D01*
X432500Y452500D02*
Y527500D01*
X460000Y555000D02*
X597500D01*
X432500Y527500D02*
X460000Y555000D01*
X617500Y452500D02*
Y535000D01*
X597500Y555000D02*
X617500Y535000D01*
X425000Y462500D02*
Y535000D01*
X452500Y562500D01*
X625000D01*
X662500Y525000D01*
X540000Y467500D02*
Y502500D01*
X535000Y507500D02*
X540000Y502500D01*
X520850Y507500D02*
X535000D01*
X520250Y508100D02*
X520850Y507500D01*
X545000Y485000D02*
Y510000D01*
Y485000D02*
X560000Y470000D01*
X337364Y410136D02*
X345000Y402500D01*
X687500Y292500D02*
Y337500D01*
X690000Y340000D01*
X242500Y485000D02*
X244000Y486500D01*
Y502500D01*
X690000Y340000D02*
X704650D01*
X705250Y340600D01*
X649400Y508100D02*
X655000Y502500D01*
Y495000D02*
Y502500D01*
X632750Y508100D02*
X649400D01*
X662500Y455000D02*
Y525000D01*
Y455000D02*
X672900Y444600D01*
X802750Y493650D02*
X816150D01*
X828850Y506350D01*
X857250D01*
X858200Y480000D02*
X905000D01*
X857250Y480950D02*
X858200Y480000D01*
X925000Y500000D02*
Y510000D01*
X905000Y480000D02*
X925000Y500000D01*
X899600Y510000D02*
Y532900D01*
X272500Y492500D02*
X297500D01*
X262500Y501500D02*
Y502500D01*
Y501500D02*
X267250Y496750D01*
X268250D01*
X272500Y492500D01*
X267500Y509422D02*
Y525000D01*
X262500Y502500D02*
X267250Y507250D01*
Y509172D01*
X267500Y509422D01*
X698722Y471222D02*
X702500Y475000D01*
Y492500D01*
X688472Y471222D02*
X698722D01*
X699600Y495400D02*
X702500Y492500D01*
X687250Y495400D02*
X699600D01*
X687250Y470000D02*
X688472Y471222D01*
X670807Y482311D02*
X672311D01*
X672700Y482700D02*
X687250D01*
X672311Y482311D02*
X672700Y482700D01*
X182900Y364600D02*
X195000D01*
X235200Y402700D02*
X249500D01*
X227500Y395000D02*
X235200Y402700D01*
X227500Y372500D02*
Y395000D01*
X206900Y351900D02*
X227500Y372500D01*
X195000Y351900D02*
X206900D01*
X182500Y390000D02*
X195000D01*
X195000Y390000D01*
Y402700D02*
X204800D01*
X210000Y397500D01*
Y382500D02*
Y397500D01*
X195000Y377300D02*
X204800D01*
X210000Y382500D01*
X302500Y440000D02*
X335750D01*
X235000Y415000D02*
X277500D01*
X302500Y440000D01*
X304667Y455667D02*
X309500Y460500D01*
X296500Y447500D02*
X304667Y455667D01*
X304667D01*
X262500Y447500D02*
X296500D01*
X249500Y428100D02*
Y434500D01*
X262500Y447500D01*
X309500Y460500D02*
Y462500D01*
X349500Y445750D02*
X354250Y441000D01*
Y440000D02*
Y441000D01*
X348500Y445750D02*
X349500D01*
X331750Y462500D02*
X348500Y445750D01*
X309500Y462500D02*
X331750D01*
X335500Y416750D02*
Y439750D01*
X335750Y440000D01*
X337364Y410136D02*
Y414886D01*
X335500Y416750D02*
X337364Y414886D01*
X360000Y466750D02*
X382150Y444600D01*
X354250Y471500D02*
X359000Y466750D01*
X382150Y444600D02*
X407750D01*
X359000Y466750D02*
X360000D01*
X354250Y471500D02*
Y472500D01*
X407750Y457300D02*
X419800D01*
X425000Y462500D01*
X407750Y444600D02*
X424600D01*
X432500Y452500D01*
X672900Y444600D02*
X687250D01*
X440000Y455000D02*
X450400Y444600D01*
X462250D01*
X620600Y431900D02*
X632750D01*
X610000Y442500D02*
X620600Y431900D01*
X617500Y452500D02*
X623978Y446022D01*
X631328D02*
X632750Y444600D01*
X623978Y446022D02*
X631328D01*
X555200Y457300D02*
X574750D01*
X555000Y457500D02*
X555200Y457300D01*
X534600Y444600D02*
X542500Y452500D01*
X520250Y444600D02*
X534600D01*
X574750Y508100D02*
X591900D01*
X602500Y407500D02*
Y497500D01*
X591900Y508100D02*
X602500Y497500D01*
X574750Y508100D02*
X575350Y507500D01*
X552500Y490000D02*
Y512500D01*
X540000Y525000D02*
X552500Y512500D01*
X505000Y525000D02*
X540000D01*
X475000Y495000D02*
X505000Y525000D01*
X462250Y482700D02*
X472700D01*
X507500Y517500D01*
X462650Y495000D02*
X475000D01*
X507500Y517500D02*
X537500D01*
X545000Y510000D01*
X560000Y470000D02*
X574750D01*
X462250Y495400D02*
X462650Y495000D01*
X552500Y490000D02*
X559800Y482700D01*
X574750D01*
X687450Y457500D02*
X745000D01*
X687250Y457300D02*
X687450Y457500D01*
X745000D02*
X807500Y395000D01*
X682500Y255000D02*
Y267500D01*
X692100Y277100D01*
X705250D01*
X685635Y468385D02*
X687250Y470000D01*
X678672Y468385D02*
X685635D01*
X705250Y264400D02*
X718100D01*
X536500Y340500D02*
X541750Y345750D01*
X535000Y340500D02*
X536500D01*
X744400Y340600D02*
X759750D01*
X601074Y345746D02*
Y348574D01*
X607500Y355000D01*
X595829Y340500D02*
X601074Y345746D01*
X717500Y355000D02*
X744600Y327900D01*
X607500Y355000D02*
X717500D01*
X744600Y327900D02*
X759750D01*
X462250Y470000D02*
X485000D01*
X497700Y457300D02*
X520250D01*
X485000Y470000D02*
X497700Y457300D01*
X538633Y277438D02*
Y288133D01*
X563250Y312750D01*
Y314250D02*
X568500Y319500D01*
X537500Y276305D02*
X538633Y277438D01*
X563250Y312750D02*
Y314250D01*
X568500Y319500D02*
X570000D01*
X534996Y340496D02*
X535000Y340500D01*
X509996Y340496D02*
X534996D01*
X509996Y278809D02*
Y319496D01*
Y278809D02*
X512500Y276305D01*
X450000Y340500D02*
X475000D01*
X450000Y319500D02*
X452383Y317117D01*
X518500Y720500D02*
X520000D01*
X513250Y725750D02*
X518500Y720500D01*
X513250Y725750D02*
Y727250D01*
X337500Y737500D02*
X338100Y738100D01*
X355000D01*
X632500Y700000D02*
X735000D01*
D44*
X817500Y251800D02*
D03*
X842500D02*
D03*
X69300Y620000D02*
D03*
Y595000D02*
D03*
X1020700D02*
D03*
Y620000D02*
D03*
D45*
X830000Y238400D02*
D03*
X550000Y237500D02*
D03*
X55900Y607500D02*
D03*
X1034100D02*
D03*
D48*
X315200Y645800D02*
D03*
X493000Y595000D02*
D03*
X924800Y645800D02*
D03*
D57*
X880000Y427000D02*
D03*
X854600D02*
D03*
X191250Y641200D02*
D03*
Y514200D02*
D03*
Y590400D02*
D03*
X1011000Y742000D02*
D03*
X1011000Y651000D02*
D03*
X79000Y744000D02*
D03*
X79000Y653000D02*
D03*
D58*
X60000Y629300D02*
G03*
X69300Y620000I9300J0D01*
G01*
X60000Y629300D02*
Y682500D01*
D59*
Y712500D01*
D60*
X217500Y652500D02*
D03*
X572500Y737500D02*
D03*
X755000Y412500D02*
D03*
X812500Y377500D02*
D03*
X492500Y492500D02*
D03*
X490000Y455000D02*
D03*
X507500Y532500D02*
D03*
X667500Y407500D02*
D03*
X632500D02*
D03*
X377500Y422500D02*
D03*
X222500Y460000D02*
D03*
X152500Y327500D02*
D03*
X110000Y352500D02*
D03*
X570500Y361580D02*
D03*
X420000Y340000D02*
D03*
X520000Y362500D02*
D03*
X672500Y317500D02*
D03*
X1030000Y712500D02*
D03*
Y682500D02*
D03*
X60000Y712500D02*
D03*
Y682500D02*
D03*
X462500Y276305D02*
D03*
X487500Y251305D02*
D03*
Y276305D02*
D03*
X512500Y251305D02*
D03*
Y276305D02*
D03*
X537500Y251305D02*
D03*
Y276305D02*
D03*
X562500Y251305D02*
D03*
X637500Y276305D02*
D03*
X612500D02*
D03*
Y251305D02*
D03*
X587500D02*
D03*
X462500D02*
D03*
X562500Y276305D02*
D03*
X587500D02*
D03*
D64*
X354250Y472500D02*
D03*
X335750D02*
D03*
X650750Y537500D02*
D03*
X669250D02*
D03*
X244000Y502500D02*
D03*
X262500D02*
D03*
X801750Y552500D02*
D03*
X783250D02*
D03*
X354250Y440000D02*
D03*
X335750D02*
D03*
X248250Y650000D02*
D03*
X266750D02*
D03*
D65*
X195000Y313250D02*
D03*
Y331750D02*
D03*
X942500Y296750D02*
D03*
Y278250D02*
D03*
X887500Y238250D02*
D03*
Y256750D02*
D03*
X750000Y529250D02*
D03*
Y510750D02*
D03*
X145000Y441750D02*
D03*
Y423250D02*
D03*
D66*
X750000Y489500D02*
D03*
Y470500D02*
D03*
X802500Y449500D02*
D03*
Y430500D02*
D03*
X207500Y624500D02*
D03*
Y605500D02*
D03*
X229206Y624505D02*
D03*
Y605505D02*
D03*
X145000Y394500D02*
D03*
Y375500D02*
D03*
D70*
X522500Y590000D02*
D03*
X557500D02*
D03*
D71*
X310707Y388293D02*
D03*
X289707D02*
D03*
X105500Y377500D02*
D03*
X84500D02*
D03*
D74*
X362250Y303100D02*
D03*
Y290400D02*
D03*
Y277700D02*
D03*
Y265000D02*
D03*
Y252300D02*
D03*
Y239600D02*
D03*
Y226900D02*
D03*
X307750Y303100D02*
D03*
Y290400D02*
D03*
Y277700D02*
D03*
Y265000D02*
D03*
Y252300D02*
D03*
Y239600D02*
D03*
Y226900D02*
D03*
X407750Y431900D02*
D03*
Y444600D02*
D03*
Y457300D02*
D03*
Y470000D02*
D03*
Y482700D02*
D03*
Y495400D02*
D03*
Y508100D02*
D03*
X462250Y431900D02*
D03*
Y444600D02*
D03*
Y457300D02*
D03*
Y470000D02*
D03*
Y482700D02*
D03*
Y495400D02*
D03*
Y508100D02*
D03*
X409500Y738100D02*
D03*
Y725400D02*
D03*
Y712700D02*
D03*
Y700000D02*
D03*
Y687300D02*
D03*
Y674600D02*
D03*
Y661900D02*
D03*
X355000Y738100D02*
D03*
Y725400D02*
D03*
Y712700D02*
D03*
Y700000D02*
D03*
Y687300D02*
D03*
Y674600D02*
D03*
Y661900D02*
D03*
X520250Y431900D02*
D03*
Y444600D02*
D03*
Y457300D02*
D03*
Y470000D02*
D03*
Y482700D02*
D03*
Y495400D02*
D03*
Y508100D02*
D03*
X574750Y431900D02*
D03*
Y444600D02*
D03*
Y457300D02*
D03*
Y470000D02*
D03*
Y482700D02*
D03*
Y495400D02*
D03*
Y508100D02*
D03*
X632750Y431900D02*
D03*
Y444600D02*
D03*
Y457300D02*
D03*
Y470000D02*
D03*
Y482700D02*
D03*
Y495400D02*
D03*
Y508100D02*
D03*
X687250Y431900D02*
D03*
Y444600D02*
D03*
Y457300D02*
D03*
Y470000D02*
D03*
Y482700D02*
D03*
Y495400D02*
D03*
Y508100D02*
D03*
X705250Y264400D02*
D03*
Y277100D02*
D03*
Y289800D02*
D03*
Y302500D02*
D03*
Y315200D02*
D03*
Y327900D02*
D03*
Y340600D02*
D03*
X759750Y264400D02*
D03*
Y277100D02*
D03*
Y289800D02*
D03*
Y302500D02*
D03*
Y315200D02*
D03*
Y327900D02*
D03*
Y340600D02*
D03*
X195000Y351900D02*
D03*
Y364600D02*
D03*
Y377300D02*
D03*
Y390000D02*
D03*
Y402700D02*
D03*
Y415400D02*
D03*
Y428100D02*
D03*
X249500Y351900D02*
D03*
Y364600D02*
D03*
Y377300D02*
D03*
Y390000D02*
D03*
Y402700D02*
D03*
Y415400D02*
D03*
Y428100D02*
D03*
D75*
X240255Y624505D02*
G03*
X248250Y632500I0J7995D01*
G01*
X278728Y605505D02*
G03*
X292900Y619677I0J14172D01*
G01*
X580000Y300000D02*
X605000D01*
X562500Y276305D02*
X565370Y279175D01*
Y285370D02*
X580000Y300000D01*
X565370Y279175D02*
Y285370D01*
X605000Y300000D02*
X655000D01*
X665000Y290000D01*
Y245000D02*
Y290000D01*
X847071Y225000D02*
X850000Y227929D01*
X685000Y225000D02*
X847071D01*
X665000Y245000D02*
X685000Y225000D01*
X850000Y227929D02*
Y237500D01*
X845083Y242417D02*
X850000Y237500D01*
X842500Y251800D02*
X845083Y249217D01*
Y242417D02*
Y249217D01*
X191250Y641200D02*
X193163Y639287D01*
Y633837D02*
Y639287D01*
Y633837D02*
X202500Y624500D01*
X205500Y605500D02*
X229202D01*
X191250Y590400D02*
Y591250D01*
X205500Y605500D01*
X229202D02*
X229206Y605505D01*
X202500Y624500D02*
X229202D01*
X229206Y624505D01*
X240255D01*
X229206Y605505D02*
X278728D01*
X248250Y632500D02*
Y650000D01*
X60000Y712500D02*
X137500D01*
X69300Y595000D02*
Y620000D01*
X839391Y493650D02*
X857250D01*
X837500Y495000D02*
X838041D01*
X839391Y493650D01*
X503000Y590000D02*
X522500D01*
X493000Y600000D02*
X503000Y590000D01*
D77*
X1040000Y260000D02*
D03*
X60000D02*
D03*
Y500000D02*
D03*
X1040000D02*
D03*
D78*
X905400Y427000D02*
D03*
D79*
X747000Y595000D02*
D03*
D80*
X899600Y510000D02*
D03*
D81*
X925000D02*
D03*
X950400D02*
D03*
D82*
X191250Y488800D02*
D03*
D83*
X140000Y601700D02*
D03*
Y627100D02*
D03*
X55000Y342500D02*
D03*
Y367900D02*
D03*
D84*
X140000Y652500D02*
D03*
X55000Y393300D02*
D03*
D85*
X637500Y251305D02*
D03*
D86*
X957500Y295000D02*
D03*
X295000Y417500D02*
D03*
X390000Y712500D02*
D03*
X670337Y461884D02*
D03*
X704400Y508100D02*
D03*
X680000Y377500D02*
D03*
X285000Y660000D02*
D03*
X802500Y570000D02*
D03*
X284250Y339250D02*
D03*
X175000Y317500D02*
D03*
X227500Y282500D02*
D03*
X417500Y420000D02*
D03*
X355000Y507500D02*
D03*
X665000Y345000D02*
D03*
X540000Y467500D02*
D03*
X687500Y292500D02*
D03*
X390000Y247500D02*
D03*
X185000Y445000D02*
D03*
X242500Y485000D02*
D03*
X286691Y303276D02*
D03*
X655000Y495000D02*
D03*
X120000Y485000D02*
D03*
X837500Y495000D02*
D03*
X670807Y482311D02*
D03*
X555000Y457500D02*
D03*
X542500Y452500D02*
D03*
X607500Y355000D02*
D03*
X337500Y737500D02*
D03*
X248250Y632500D02*
D03*
X60000Y287500D02*
D03*
X80000Y280000D02*
D03*
X87500Y260000D02*
D03*
X80000Y240000D02*
D03*
X60000Y232500D02*
D03*
X40000Y240000D02*
D03*
X32500Y260000D02*
D03*
X40000Y280000D02*
D03*
X1040000Y287500D02*
D03*
X1060000Y280000D02*
D03*
X1067500Y260000D02*
D03*
X1060000Y240000D02*
D03*
X1040000Y232500D02*
D03*
X1020000Y240000D02*
D03*
X1012500Y260000D02*
D03*
X1020000Y280000D02*
D03*
X60000Y527500D02*
D03*
X80000Y520000D02*
D03*
X87500Y500000D02*
D03*
X80000Y480000D02*
D03*
X60000Y472500D02*
D03*
X40000Y480000D02*
D03*
X32500Y500000D02*
D03*
X40000Y520000D02*
D03*
X1040000Y527500D02*
D03*
X1060000Y520000D02*
D03*
X1067500Y500000D02*
D03*
X1060000Y480000D02*
D03*
X1040000Y472500D02*
D03*
X1020000Y480000D02*
D03*
X1012500Y500000D02*
D03*
X1020000Y520000D02*
D03*
D87*
X697500Y415000D02*
D03*
D88*
X802750Y480950D02*
D03*
Y493650D02*
D03*
Y506350D02*
D03*
Y519050D02*
D03*
X857250Y480950D02*
D03*
Y493650D02*
D03*
Y506350D02*
D03*
Y519050D02*
D03*
D89*
X941750Y247500D02*
D03*
X913250Y257000D02*
D03*
Y238000D02*
D03*
X112500Y431500D02*
D03*
Y412500D02*
D03*
X84000Y422000D02*
D03*
D90*
X290500Y462500D02*
D03*
X309500D02*
D03*
D91*
X345000Y388250D02*
D03*
X354500Y416750D02*
D03*
X335500D02*
D03*
D92*
X535000Y319500D02*
D03*
Y340500D02*
D03*
X475000Y319500D02*
D03*
Y340500D02*
D03*
X509996Y340496D02*
D03*
Y319496D02*
D03*
X450000Y340500D02*
D03*
Y319500D02*
D03*
X622500Y340500D02*
D03*
Y319500D02*
D03*
X570000Y340500D02*
D03*
Y319500D02*
D03*
X594996Y319496D02*
D03*
Y340496D02*
D03*
X647500Y319500D02*
D03*
Y340500D02*
D03*
X520000Y720500D02*
D03*
Y699500D02*
D03*
D93*
X237500Y712500D02*
D03*
X137500D02*
D03*
X735000Y700000D02*
D03*
X835000D02*
D03*
D94*
X267500Y620000D02*
D03*
X292900D02*
D03*
Y525000D02*
D03*
X267500D02*
D03*
D95*
X632500Y700000D02*
D03*
X572500D02*
D03*
M02*
