G04*
G04 #@! TF.GenerationSoftware,Altium Limited,Altium Designer,23.9.2 (47)*
G04*
G04 Layer_Color=8421504*
%FSLAX44Y44*%
%MOMM*%
G71*
G04*
G04 #@! TF.SameCoordinates,BF23419C-D5C0-4E1A-95B4-56374A78EA95*
G04*
G04*
G04 #@! TF.FilePolarity,Positive*
G04*
G01*
G75*
%ADD14C,2.3000*%
%ADD15R,3.3000X1.8000*%
G04:AMPARAMS|DCode=16|XSize=1.8mm|YSize=3.3mm|CornerRadius=0.525mm|HoleSize=0mm|Usage=FLASHONLY|Rotation=180.000|XOffset=0mm|YOffset=0mm|HoleType=Round|Shape=RoundedRectangle|*
%AMROUNDEDRECTD16*
21,1,1.8000,2.2500,0,0,180.0*
21,1,0.7500,3.3000,0,0,180.0*
1,1,1.0500,-0.3750,1.1250*
1,1,1.0500,0.3750,1.1250*
1,1,1.0500,0.3750,-1.1250*
1,1,1.0500,-0.3750,-1.1250*
%
%ADD16ROUNDEDRECTD16*%
G04:AMPARAMS|DCode=17|XSize=6.8mm|YSize=6.8mm|CornerRadius=0.9625mm|HoleSize=0mm|Usage=FLASHONLY|Rotation=90.000|XOffset=0mm|YOffset=0mm|HoleType=Round|Shape=RoundedRectangle|*
%AMROUNDEDRECTD17*
21,1,6.8000,4.8750,0,0,90.0*
21,1,4.8750,6.8000,0,0,90.0*
1,1,1.9250,2.4375,2.4375*
1,1,1.9250,2.4375,-2.4375*
1,1,1.9250,-2.4375,-2.4375*
1,1,1.9250,-2.4375,2.4375*
%
%ADD17ROUNDEDRECTD17*%
%ADD18R,1.4500X1.6500*%
%ADD19R,1.6500X1.4500*%
%ADD20R,1.6000X1.2000*%
%ADD21R,2.9000X1.9000*%
%ADD22R,1.9000X2.9000*%
%ADD23R,2.0500X4.8000*%
G04:AMPARAMS|DCode=24|XSize=1.6mm|YSize=1.4mm|CornerRadius=0.425mm|HoleSize=0mm|Usage=FLASHONLY|Rotation=270.000|XOffset=0mm|YOffset=0mm|HoleType=Round|Shape=RoundedRectangle|*
%AMROUNDEDRECTD24*
21,1,1.6000,0.5500,0,0,270.0*
21,1,0.7500,1.4000,0,0,270.0*
1,1,0.8500,-0.2750,-0.3750*
1,1,0.8500,-0.2750,0.3750*
1,1,0.8500,0.2750,0.3750*
1,1,0.8500,0.2750,-0.3750*
%
%ADD24ROUNDEDRECTD24*%
%ADD25R,1.5500X1.8500*%
%ADD26R,2.0000X2.6000*%
G04:AMPARAMS|DCode=27|XSize=1.6mm|YSize=1.4mm|CornerRadius=0.425mm|HoleSize=0mm|Usage=FLASHONLY|Rotation=0.000|XOffset=0mm|YOffset=0mm|HoleType=Round|Shape=RoundedRectangle|*
%AMROUNDEDRECTD27*
21,1,1.6000,0.5500,0,0,0.0*
21,1,0.7500,1.4000,0,0,0.0*
1,1,0.8500,0.3750,-0.2750*
1,1,0.8500,-0.3750,-0.2750*
1,1,0.8500,-0.3750,0.2750*
1,1,0.8500,0.3750,0.2750*
%
%ADD27ROUNDEDRECTD27*%
G04:AMPARAMS|DCode=28|XSize=0.9mm|YSize=1.75mm|CornerRadius=0.201mm|HoleSize=0mm|Usage=FLASHONLY|Rotation=90.000|XOffset=0mm|YOffset=0mm|HoleType=Round|Shape=RoundedRectangle|*
%AMROUNDEDRECTD28*
21,1,0.9000,1.3480,0,0,90.0*
21,1,0.4980,1.7500,0,0,90.0*
1,1,0.4020,0.6740,0.2490*
1,1,0.4020,0.6740,-0.2490*
1,1,0.4020,-0.6740,-0.2490*
1,1,0.4020,-0.6740,0.2490*
%
%ADD28ROUNDEDRECTD28*%
D14*
X262500Y362500D02*
D03*
X282500Y390000D02*
D03*
X855000Y472500D02*
D03*
X140000Y717500D02*
D03*
X925000Y477500D02*
D03*
X707500Y245000D02*
D03*
X240000Y222500D02*
D03*
X422500Y255000D02*
D03*
X747500Y230000D02*
D03*
X210000Y240000D02*
D03*
X325000Y475000D02*
D03*
X282500Y455000D02*
D03*
X107985Y367900D02*
D03*
X262500Y427500D02*
D03*
X577500Y312500D02*
D03*
X447500Y317500D02*
D03*
D15*
X485000Y342500D02*
D03*
Y407500D02*
D03*
Y435000D02*
D03*
Y500000D02*
D03*
X550000Y407500D02*
D03*
Y342500D02*
D03*
Y500000D02*
D03*
Y435000D02*
D03*
D16*
X440360Y426500D02*
D03*
X394640D02*
D03*
X640000Y465000D02*
D03*
X594280D02*
D03*
D17*
X417500Y492000D02*
D03*
X617140Y399500D02*
D03*
D18*
X398250Y372500D02*
D03*
X416750D02*
D03*
X640750Y525000D02*
D03*
X659250D02*
D03*
X620750Y500000D02*
D03*
X639250D02*
D03*
D19*
X397500Y323250D02*
D03*
Y341750D02*
D03*
X262500Y339250D02*
D03*
Y320750D02*
D03*
X210000Y383250D02*
D03*
Y401750D02*
D03*
X140000Y383250D02*
D03*
Y401750D02*
D03*
X172500Y383250D02*
D03*
Y401750D02*
D03*
X242500Y383250D02*
D03*
Y401750D02*
D03*
D20*
X162500Y485500D02*
D03*
Y504500D02*
D03*
X140000Y504500D02*
D03*
Y485500D02*
D03*
D21*
X1040500Y395001D02*
D03*
X1004501D02*
D03*
D22*
X780000Y390000D02*
D03*
Y426000D02*
D03*
X717501Y389500D02*
D03*
Y425500D02*
D03*
X912500Y280000D02*
D03*
Y316000D02*
D03*
D23*
X966250Y335000D02*
D03*
X998750D02*
D03*
D24*
X825000Y325000D02*
D03*
X860000D02*
D03*
D25*
X762000D02*
D03*
X783000D02*
D03*
D26*
X717500Y321000D02*
D03*
Y279000D02*
D03*
D27*
X102500Y392500D02*
D03*
Y427500D02*
D03*
D28*
X155250Y345600D02*
D03*
Y332900D02*
D03*
Y320200D02*
D03*
Y307500D02*
D03*
Y294800D02*
D03*
Y282100D02*
D03*
Y269400D02*
D03*
X209750Y345600D02*
D03*
Y332900D02*
D03*
Y320200D02*
D03*
Y307500D02*
D03*
Y294800D02*
D03*
Y282100D02*
D03*
Y269400D02*
D03*
X305000Y345600D02*
D03*
Y332900D02*
D03*
Y320200D02*
D03*
Y307500D02*
D03*
Y294800D02*
D03*
Y282100D02*
D03*
Y269400D02*
D03*
X359500Y345600D02*
D03*
Y332900D02*
D03*
Y320200D02*
D03*
Y307500D02*
D03*
Y294800D02*
D03*
Y282100D02*
D03*
Y269400D02*
D03*
M02*
