G04*
G04 #@! TF.GenerationSoftware,Altium Limited,Altium Designer,23.9.2 (47)*
G04*
G04 Layer_Color=8388736*
%FSLAX44Y44*%
%MOMM*%
G71*
G04*
G04 #@! TF.SameCoordinates,BF23419C-D5C0-4E1A-95B4-56374A78EA95*
G04*
G04*
G04 #@! TF.FilePolarity,Negative*
G04*
G01*
G75*
%ADD29C,2.2000*%
%ADD30R,3.2000X1.7000*%
G04:AMPARAMS|DCode=31|XSize=1.7mm|YSize=3.2mm|CornerRadius=0.475mm|HoleSize=0mm|Usage=FLASHONLY|Rotation=180.000|XOffset=0mm|YOffset=0mm|HoleType=Round|Shape=RoundedRectangle|*
%AMROUNDEDRECTD31*
21,1,1.7000,2.2500,0,0,180.0*
21,1,0.7500,3.2000,0,0,180.0*
1,1,0.9500,-0.3750,1.1250*
1,1,0.9500,0.3750,1.1250*
1,1,0.9500,0.3750,-1.1250*
1,1,0.9500,-0.3750,-1.1250*
%
%ADD31ROUNDEDRECTD31*%
G04:AMPARAMS|DCode=32|XSize=6.7mm|YSize=6.7mm|CornerRadius=0.9125mm|HoleSize=0mm|Usage=FLASHONLY|Rotation=90.000|XOffset=0mm|YOffset=0mm|HoleType=Round|Shape=RoundedRectangle|*
%AMROUNDEDRECTD32*
21,1,6.7000,4.8750,0,0,90.0*
21,1,4.8750,6.7000,0,0,90.0*
1,1,1.8250,2.4375,2.4375*
1,1,1.8250,2.4375,-2.4375*
1,1,1.8250,-2.4375,-2.4375*
1,1,1.8250,-2.4375,2.4375*
%
%ADD32ROUNDEDRECTD32*%
%ADD33R,1.3500X1.5500*%
%ADD34R,1.5500X1.3500*%
%ADD35R,1.5000X1.1000*%
%ADD36R,2.8000X1.8000*%
%ADD37R,1.8000X2.8000*%
%ADD38R,1.9500X4.7000*%
G04:AMPARAMS|DCode=39|XSize=1.5mm|YSize=1.3mm|CornerRadius=0.375mm|HoleSize=0mm|Usage=FLASHONLY|Rotation=270.000|XOffset=0mm|YOffset=0mm|HoleType=Round|Shape=RoundedRectangle|*
%AMROUNDEDRECTD39*
21,1,1.5000,0.5500,0,0,270.0*
21,1,0.7500,1.3000,0,0,270.0*
1,1,0.7500,-0.2750,-0.3750*
1,1,0.7500,-0.2750,0.3750*
1,1,0.7500,0.2750,0.3750*
1,1,0.7500,0.2750,-0.3750*
%
%ADD39ROUNDEDRECTD39*%
%ADD40R,1.4500X1.7500*%
%ADD41R,1.9000X2.5000*%
G04:AMPARAMS|DCode=42|XSize=1.5mm|YSize=1.3mm|CornerRadius=0.375mm|HoleSize=0mm|Usage=FLASHONLY|Rotation=0.000|XOffset=0mm|YOffset=0mm|HoleType=Round|Shape=RoundedRectangle|*
%AMROUNDEDRECTD42*
21,1,1.5000,0.5500,0,0,0.0*
21,1,0.7500,1.3000,0,0,0.0*
1,1,0.7500,0.3750,-0.2750*
1,1,0.7500,-0.3750,-0.2750*
1,1,0.7500,-0.3750,0.2750*
1,1,0.7500,0.3750,0.2750*
%
%ADD42ROUNDEDRECTD42*%
G04:AMPARAMS|DCode=43|XSize=0.8mm|YSize=1.65mm|CornerRadius=0.151mm|HoleSize=0mm|Usage=FLASHONLY|Rotation=90.000|XOffset=0mm|YOffset=0mm|HoleType=Round|Shape=RoundedRectangle|*
%AMROUNDEDRECTD43*
21,1,0.8000,1.3480,0,0,90.0*
21,1,0.4980,1.6500,0,0,90.0*
1,1,0.3020,0.6740,0.2490*
1,1,0.3020,0.6740,-0.2490*
1,1,0.3020,-0.6740,-0.2490*
1,1,0.3020,-0.6740,0.2490*
%
%ADD43ROUNDEDRECTD43*%
%ADD44C,1.8500*%
%ADD45C,1.3000*%
%ADD46C,7.2000*%
G04:AMPARAMS|DCode=47|XSize=1.7mm|YSize=1.7mm|CornerRadius=0.475mm|HoleSize=0mm|Usage=FLASHONLY|Rotation=180.000|XOffset=0mm|YOffset=0mm|HoleType=Round|Shape=RoundedRectangle|*
%AMROUNDEDRECTD47*
21,1,1.7000,0.7500,0,0,180.0*
21,1,0.7500,1.7000,0,0,180.0*
1,1,0.9500,-0.3750,0.3750*
1,1,0.9500,0.3750,0.3750*
1,1,0.9500,0.3750,-0.3750*
1,1,0.9500,-0.3750,-0.3750*
%
%ADD47ROUNDEDRECTD47*%
%ADD48C,1.7000*%
%ADD49C,1.9000*%
%ADD50R,1.9000X1.9000*%
G04:AMPARAMS|DCode=51|XSize=1.8mm|YSize=1.8mm|CornerRadius=0.5mm|HoleSize=0mm|Usage=FLASHONLY|Rotation=0.000|XOffset=0mm|YOffset=0mm|HoleType=Round|Shape=RoundedRectangle|*
%AMROUNDEDRECTD51*
21,1,1.8000,0.8000,0,0,0.0*
21,1,0.8000,1.8000,0,0,0.0*
1,1,1.0000,0.4000,-0.4000*
1,1,1.0000,-0.4000,-0.4000*
1,1,1.0000,-0.4000,0.4000*
1,1,1.0000,0.4000,0.4000*
%
%ADD51ROUNDEDRECTD51*%
%ADD52C,1.8000*%
G04:AMPARAMS|DCode=53|XSize=1.7mm|YSize=1.7mm|CornerRadius=0.475mm|HoleSize=0mm|Usage=FLASHONLY|Rotation=90.000|XOffset=0mm|YOffset=0mm|HoleType=Round|Shape=RoundedRectangle|*
%AMROUNDEDRECTD53*
21,1,1.7000,0.7500,0,0,90.0*
21,1,0.7500,1.7000,0,0,90.0*
1,1,0.9500,0.3750,0.3750*
1,1,0.9500,0.3750,-0.3750*
1,1,0.9500,-0.3750,-0.3750*
1,1,0.9500,-0.3750,0.3750*
%
%ADD53ROUNDEDRECTD53*%
%ADD54C,1.4000*%
%ADD55R,1.4000X1.4000*%
%ADD56R,2.2000X2.2000*%
%ADD57C,1.5000*%
D29*
X262500Y362500D02*
D03*
X282500Y390000D02*
D03*
X855000Y472500D02*
D03*
X140000Y717500D02*
D03*
X925000Y477500D02*
D03*
X707500Y245000D02*
D03*
X240000Y222500D02*
D03*
X422500Y255000D02*
D03*
X747500Y230000D02*
D03*
X210000Y240000D02*
D03*
X325000Y475000D02*
D03*
X282500Y455000D02*
D03*
X107985Y367900D02*
D03*
X262500Y427500D02*
D03*
X577500Y312500D02*
D03*
X447500Y317500D02*
D03*
X1030000Y712500D02*
D03*
Y682500D02*
D03*
X60000Y712500D02*
D03*
Y682500D02*
D03*
X462500Y276305D02*
D03*
X487500Y251305D02*
D03*
Y276305D02*
D03*
X512500Y251305D02*
D03*
Y276305D02*
D03*
X537500Y251305D02*
D03*
Y276305D02*
D03*
X562500Y251305D02*
D03*
X637500Y276305D02*
D03*
X612500D02*
D03*
Y251305D02*
D03*
X587500D02*
D03*
X462500D02*
D03*
X562500Y276305D02*
D03*
X587500D02*
D03*
D30*
X485000Y342500D02*
D03*
Y407500D02*
D03*
Y435000D02*
D03*
Y500000D02*
D03*
X550000Y407500D02*
D03*
Y342500D02*
D03*
Y500000D02*
D03*
Y435000D02*
D03*
D31*
X440360Y426500D02*
D03*
X394640D02*
D03*
X640000Y465000D02*
D03*
X594280D02*
D03*
D32*
X417500Y492000D02*
D03*
X617140Y399500D02*
D03*
D33*
X398250Y372500D02*
D03*
X416750D02*
D03*
X640750Y525000D02*
D03*
X659250D02*
D03*
X620750Y500000D02*
D03*
X639250D02*
D03*
D34*
X397500Y323250D02*
D03*
Y341750D02*
D03*
X262500Y339250D02*
D03*
Y320750D02*
D03*
X210000Y383250D02*
D03*
Y401750D02*
D03*
X140000Y383250D02*
D03*
Y401750D02*
D03*
X172500Y383250D02*
D03*
Y401750D02*
D03*
X242500Y383250D02*
D03*
Y401750D02*
D03*
D35*
X162500Y485500D02*
D03*
Y504500D02*
D03*
X140000Y504500D02*
D03*
Y485500D02*
D03*
D36*
X1040500Y395001D02*
D03*
X1004501D02*
D03*
D37*
X780000Y390000D02*
D03*
Y426000D02*
D03*
X717501Y389500D02*
D03*
Y425500D02*
D03*
X912500Y280000D02*
D03*
Y316000D02*
D03*
D38*
X966250Y335000D02*
D03*
X998750D02*
D03*
D39*
X825000Y325000D02*
D03*
X860000D02*
D03*
D40*
X762000D02*
D03*
X783000D02*
D03*
D41*
X717500Y321000D02*
D03*
Y279000D02*
D03*
D42*
X102500Y392500D02*
D03*
Y427500D02*
D03*
D43*
X155250Y345600D02*
D03*
Y332900D02*
D03*
Y320200D02*
D03*
Y307500D02*
D03*
Y294800D02*
D03*
Y282100D02*
D03*
Y269400D02*
D03*
X209750Y345600D02*
D03*
Y332900D02*
D03*
Y320200D02*
D03*
Y307500D02*
D03*
Y294800D02*
D03*
Y282100D02*
D03*
Y269400D02*
D03*
X305000Y345600D02*
D03*
Y332900D02*
D03*
Y320200D02*
D03*
Y307500D02*
D03*
Y294800D02*
D03*
Y282100D02*
D03*
Y269400D02*
D03*
X359500Y345600D02*
D03*
Y332900D02*
D03*
Y320200D02*
D03*
Y307500D02*
D03*
Y294800D02*
D03*
Y282100D02*
D03*
Y269400D02*
D03*
D44*
X817500Y251800D02*
D03*
X842500D02*
D03*
X69300Y620000D02*
D03*
Y595000D02*
D03*
X1020700D02*
D03*
Y620000D02*
D03*
D45*
X830000Y238400D02*
D03*
X55900Y607500D02*
D03*
X1034100D02*
D03*
D46*
X1040000Y260000D02*
D03*
X60000D02*
D03*
Y500000D02*
D03*
X1040000D02*
D03*
D47*
X905400Y427000D02*
D03*
D48*
X880000D02*
D03*
X854600D02*
D03*
X191250Y641200D02*
D03*
Y514200D02*
D03*
Y590400D02*
D03*
D49*
X315200Y645800D02*
D03*
X493000Y595000D02*
D03*
X924800Y645800D02*
D03*
D50*
X747000Y595000D02*
D03*
D51*
X899600Y510000D02*
D03*
D52*
X925000D02*
D03*
X950400D02*
D03*
D53*
X191250Y488800D02*
D03*
D54*
X140000Y601700D02*
D03*
Y627100D02*
D03*
X55000Y342500D02*
D03*
Y367900D02*
D03*
D55*
X140000Y652500D02*
D03*
X55000Y393300D02*
D03*
D56*
X637500Y251305D02*
D03*
D57*
X550000Y237500D02*
D03*
M02*
