G04*
G04 #@! TF.GenerationSoftware,Altium Limited,Altium Designer,23.9.2 (47)*
G04*
G04 Layer_Physical_Order=3*
G04 Layer_Color=16440176*
%FSLAX44Y44*%
%MOMM*%
G71*
G04*
G04 #@! TF.SameCoordinates,BF23419C-D5C0-4E1A-95B4-56374A78EA95*
G04*
G04*
G04 #@! TF.FilePolarity,Positive*
G04*
G01*
G75*
%ADD44C,1.8500*%
%ADD45C,1.3000*%
%ADD48C,1.7000*%
%ADD57C,1.5000*%
%ADD60C,2.0000*%
%ADD75C,0.5000*%
%ADD77C,7.0000*%
G04:AMPARAMS|DCode=78|XSize=1.5mm|YSize=1.5mm|CornerRadius=0.375mm|HoleSize=0mm|Usage=FLASHONLY|Rotation=180.000|XOffset=0mm|YOffset=0mm|HoleType=Round|Shape=RoundedRectangle|*
%AMROUNDEDRECTD78*
21,1,1.5000,0.7500,0,0,180.0*
21,1,0.7500,1.5000,0,0,180.0*
1,1,0.7500,-0.3750,0.3750*
1,1,0.7500,0.3750,0.3750*
1,1,0.7500,0.3750,-0.3750*
1,1,0.7500,-0.3750,-0.3750*
%
%ADD78ROUNDEDRECTD78*%
%ADD79R,1.7000X1.7000*%
G04:AMPARAMS|DCode=80|XSize=1.6mm|YSize=1.6mm|CornerRadius=0.4mm|HoleSize=0mm|Usage=FLASHONLY|Rotation=0.000|XOffset=0mm|YOffset=0mm|HoleType=Round|Shape=RoundedRectangle|*
%AMROUNDEDRECTD80*
21,1,1.6000,0.8000,0,0,0.0*
21,1,0.8000,1.6000,0,0,0.0*
1,1,0.8000,0.4000,-0.4000*
1,1,0.8000,-0.4000,-0.4000*
1,1,0.8000,-0.4000,0.4000*
1,1,0.8000,0.4000,0.4000*
%
%ADD80ROUNDEDRECTD80*%
%ADD81C,1.6000*%
G04:AMPARAMS|DCode=82|XSize=1.5mm|YSize=1.5mm|CornerRadius=0.375mm|HoleSize=0mm|Usage=FLASHONLY|Rotation=90.000|XOffset=0mm|YOffset=0mm|HoleType=Round|Shape=RoundedRectangle|*
%AMROUNDEDRECTD82*
21,1,1.5000,0.7500,0,0,90.0*
21,1,0.7500,1.5000,0,0,90.0*
1,1,0.7500,0.3750,0.3750*
1,1,0.7500,0.3750,-0.3750*
1,1,0.7500,-0.3750,-0.3750*
1,1,0.7500,-0.3750,0.3750*
%
%ADD82ROUNDEDRECTD82*%
%ADD83C,1.2000*%
%ADD84R,1.2000X1.2000*%
%ADD85R,2.0000X2.0000*%
%ADD86C,0.7000*%
%ADD87C,1.0000*%
G36*
X960000Y537500D02*
X1032126D01*
X1032226Y536230D01*
X1031336Y536089D01*
X1025797Y534289D01*
X1020608Y531645D01*
X1015896Y528222D01*
X1011778Y524104D01*
X1008355Y519392D01*
X1005711Y514203D01*
X1003911Y508664D01*
X1003000Y502912D01*
Y497088D01*
X1003911Y491336D01*
X1005711Y485797D01*
X1008355Y480608D01*
X1011778Y475896D01*
X1015896Y471778D01*
X1020608Y468355D01*
X1025797Y465711D01*
X1031336Y463911D01*
X1037088Y463000D01*
X1042912D01*
X1048664Y463911D01*
X1054203Y465711D01*
X1059392Y468355D01*
X1064104Y471778D01*
X1068222Y475896D01*
X1071645Y480608D01*
X1074289Y485797D01*
X1076089Y491336D01*
X1077000Y497088D01*
Y502912D01*
X1076089Y508664D01*
X1074289Y514203D01*
X1071645Y519392D01*
X1068222Y524104D01*
X1064104Y528222D01*
X1059392Y531645D01*
X1054203Y534289D01*
X1048664Y536089D01*
X1047774Y536230D01*
X1047874Y537500D01*
X1100000D01*
X1100000Y234140D01*
X1100000Y231902D01*
X1099416Y227465D01*
X1098258Y223142D01*
X1096545Y219007D01*
X1094308Y215131D01*
X1091583Y211581D01*
X1088419Y208416D01*
X1084868Y205691D01*
X1080993Y203454D01*
X1076858Y201741D01*
X1072535Y200582D01*
X1068098Y199998D01*
X1065860Y199998D01*
X1065000Y200000D01*
X34140Y200000D01*
X31902D01*
X27465Y200584D01*
X23142Y201742D01*
X19008Y203455D01*
X15132Y205693D01*
X11582Y208417D01*
X8417Y211582D01*
X5693Y215132D01*
X3455Y219008D01*
X1742Y223143D01*
X584Y227465D01*
X0Y231902D01*
Y234140D01*
Y537500D01*
X52126D01*
X52227Y536230D01*
X51336Y536089D01*
X45797Y534289D01*
X40608Y531645D01*
X35896Y528222D01*
X31778Y524104D01*
X28355Y519392D01*
X25711Y514203D01*
X23911Y508664D01*
X23000Y502912D01*
Y497088D01*
X23911Y491336D01*
X25711Y485797D01*
X28355Y480608D01*
X31778Y475896D01*
X35896Y471778D01*
X40608Y468355D01*
X45797Y465711D01*
X51336Y463911D01*
X57088Y463000D01*
X62912D01*
X68664Y463911D01*
X74203Y465711D01*
X79392Y468355D01*
X84104Y471778D01*
X88222Y475896D01*
X91645Y480608D01*
X94289Y485797D01*
X96089Y491336D01*
X97000Y497088D01*
Y502912D01*
X96089Y508664D01*
X94289Y514203D01*
X91645Y519392D01*
X88222Y524104D01*
X84104Y528222D01*
X79392Y531645D01*
X74203Y534289D01*
X68664Y536089D01*
X67773Y536230D01*
X67874Y537500D01*
X282500D01*
X355000Y610000D01*
X887500D01*
X960000Y537500D01*
D02*
G37*
%LPC*%
G36*
X757500Y605500D02*
X736500D01*
Y584500D01*
X757500D01*
Y605500D01*
D02*
G37*
G36*
X494382D02*
X491618D01*
X488947Y604784D01*
X486553Y603402D01*
X484598Y601447D01*
X483216Y599053D01*
X482500Y596382D01*
Y593618D01*
X483216Y590947D01*
X484598Y588553D01*
X486553Y586598D01*
X488947Y585216D01*
X491618Y584500D01*
X494382D01*
X497053Y585216D01*
X499447Y586598D01*
X501402Y588553D01*
X502784Y590947D01*
X503500Y593618D01*
Y596382D01*
X502784Y599053D01*
X501402Y601447D01*
X499447Y603402D01*
X497053Y604784D01*
X494382Y605500D01*
D02*
G37*
G36*
X803619Y578500D02*
X801381D01*
X799219Y577921D01*
X797281Y576802D01*
X797197Y576717D01*
X802500Y571414D01*
X807803Y576717D01*
X807719Y576802D01*
X805781Y577921D01*
X803619Y578500D01*
D02*
G37*
G36*
X809218Y575303D02*
X803914Y570000D01*
X809218Y564697D01*
X809302Y564781D01*
X810421Y566719D01*
X811000Y568881D01*
Y571119D01*
X810421Y573281D01*
X809302Y575219D01*
X809218Y575303D01*
D02*
G37*
G36*
X795782D02*
X795698Y575219D01*
X794579Y573281D01*
X794000Y571119D01*
Y568881D01*
X794579Y566719D01*
X795698Y564781D01*
X795782Y564697D01*
X801086Y570000D01*
X795782Y575303D01*
D02*
G37*
G36*
X802500Y568586D02*
X797197Y563283D01*
X797281Y563198D01*
X799219Y562079D01*
X801381Y561500D01*
X803619D01*
X805781Y562079D01*
X807719Y563198D01*
X807803Y563283D01*
X802500Y568586D01*
D02*
G37*
G36*
X705519Y516600D02*
X703281D01*
X701119Y516021D01*
X699181Y514902D01*
X699097Y514818D01*
X704400Y509514D01*
X709703Y514818D01*
X709619Y514902D01*
X707681Y516021D01*
X705519Y516600D01*
D02*
G37*
G36*
X192501Y523700D02*
X189999D01*
X187583Y523052D01*
X185417Y521802D01*
X183648Y520033D01*
X182397Y517867D01*
X181750Y515451D01*
Y512949D01*
X182397Y510533D01*
X183648Y508367D01*
X185417Y506598D01*
X187583Y505347D01*
X189999Y504700D01*
X192501D01*
X194917Y505347D01*
X197083Y506598D01*
X198852Y508367D01*
X200103Y510533D01*
X200750Y512949D01*
Y515451D01*
X200103Y517867D01*
X198852Y520033D01*
X197083Y521802D01*
X194917Y523052D01*
X192501Y523700D01*
D02*
G37*
G36*
X711117Y513403D02*
X705814Y508100D01*
X711117Y502797D01*
X711202Y502881D01*
X712321Y504819D01*
X712900Y506981D01*
Y509219D01*
X712321Y511381D01*
X711202Y513319D01*
X711117Y513403D01*
D02*
G37*
G36*
X697682D02*
X697598Y513319D01*
X696479Y511381D01*
X695900Y509219D01*
Y506981D01*
X696479Y504819D01*
X697598Y502881D01*
X697682Y502797D01*
X702986Y508100D01*
X697682Y513403D01*
D02*
G37*
G36*
X356094Y513000D02*
X353906D01*
X351884Y512163D01*
X350337Y510616D01*
X349500Y508594D01*
Y506406D01*
X350337Y504384D01*
X351884Y502837D01*
X353906Y502000D01*
X356094D01*
X358116Y502837D01*
X359663Y504384D01*
X360500Y506406D01*
Y508594D01*
X359663Y510616D01*
X358116Y512163D01*
X356094Y513000D01*
D02*
G37*
G36*
X951717Y520000D02*
X949083D01*
X946540Y519319D01*
X944260Y518002D01*
X942398Y516140D01*
X941081Y513860D01*
X940400Y511316D01*
Y508684D01*
X941081Y506140D01*
X942398Y503860D01*
X944260Y501998D01*
X946540Y500681D01*
X949083Y500000D01*
X951717D01*
X954260Y500681D01*
X956540Y501998D01*
X958402Y503860D01*
X959718Y506140D01*
X960400Y508684D01*
Y511316D01*
X959718Y513860D01*
X958402Y516140D01*
X956540Y518002D01*
X954260Y519319D01*
X951717Y520000D01*
D02*
G37*
G36*
X926317D02*
X923683D01*
X921140Y519319D01*
X918860Y518002D01*
X916998Y516140D01*
X915682Y513860D01*
X915000Y511316D01*
Y508684D01*
X915682Y506140D01*
X916998Y503860D01*
X918860Y501998D01*
X921140Y500681D01*
X923683Y500000D01*
X926317D01*
X928860Y500681D01*
X931140Y501998D01*
X933002Y503860D01*
X934318Y506140D01*
X935000Y508684D01*
Y511316D01*
X934318Y513860D01*
X933002Y516140D01*
X931140Y518002D01*
X928860Y519319D01*
X926317Y520000D01*
D02*
G37*
G36*
X903600Y520117D02*
X895600D01*
X893259Y519652D01*
X891274Y518326D01*
X889948Y516341D01*
X889482Y514000D01*
Y506000D01*
X889948Y503659D01*
X891274Y501674D01*
X893259Y500348D01*
X895600Y499883D01*
X903600D01*
X905941Y500348D01*
X907926Y501674D01*
X909252Y503659D01*
X909717Y506000D01*
Y514000D01*
X909252Y516341D01*
X907926Y518326D01*
X905941Y519652D01*
X903600Y520117D01*
D02*
G37*
G36*
X704400Y506686D02*
X699097Y501382D01*
X699181Y501298D01*
X701119Y500179D01*
X703281Y499600D01*
X705519D01*
X707681Y500179D01*
X709619Y501298D01*
X709703Y501382D01*
X704400Y506686D01*
D02*
G37*
G36*
X656119Y503500D02*
X653881D01*
X651719Y502921D01*
X649781Y501802D01*
X649697Y501717D01*
X655000Y496414D01*
X660303Y501717D01*
X660219Y501802D01*
X658281Y502921D01*
X656119Y503500D01*
D02*
G37*
G36*
X661718Y500303D02*
X656414Y495000D01*
X661718Y489697D01*
X661802Y489781D01*
X662921Y491719D01*
X663500Y493881D01*
Y496119D01*
X662921Y498281D01*
X661802Y500219D01*
X661718Y500303D01*
D02*
G37*
G36*
X648282D02*
X648198Y500219D01*
X647079Y498281D01*
X646500Y496119D01*
Y493881D01*
X647079Y491719D01*
X648198Y489781D01*
X648282Y489697D01*
X653586Y495000D01*
X648282Y500303D01*
D02*
G37*
G36*
X838594Y500500D02*
X836406D01*
X834385Y499663D01*
X832837Y498116D01*
X832000Y496094D01*
Y493906D01*
X832837Y491884D01*
X834385Y490337D01*
X836406Y489500D01*
X838594D01*
X840615Y490337D01*
X842163Y491884D01*
X843000Y493906D01*
Y496094D01*
X842163Y498116D01*
X840615Y499663D01*
X838594Y500500D01*
D02*
G37*
G36*
X655000Y493586D02*
X649697Y488283D01*
X649781Y488198D01*
X651719Y487079D01*
X653881Y486500D01*
X656119D01*
X658281Y487079D01*
X660219Y488198D01*
X660303Y488283D01*
X655000Y493586D01*
D02*
G37*
G36*
X243619Y493500D02*
X241381D01*
X239219Y492921D01*
X237281Y491802D01*
X237197Y491717D01*
X242500Y486414D01*
X247803Y491717D01*
X247719Y491802D01*
X245781Y492921D01*
X243619Y493500D01*
D02*
G37*
G36*
X121119D02*
X118881D01*
X116719Y492921D01*
X114781Y491802D01*
X114697Y491717D01*
X120000Y486414D01*
X125303Y491717D01*
X125219Y491802D01*
X123281Y492921D01*
X121119Y493500D01*
D02*
G37*
G36*
X249217Y490303D02*
X243914Y485000D01*
X249217Y479697D01*
X249302Y479781D01*
X250421Y481719D01*
X251000Y483881D01*
Y486119D01*
X250421Y488281D01*
X249302Y490219D01*
X249217Y490303D01*
D02*
G37*
G36*
X126718D02*
X121414Y485000D01*
X126718Y479697D01*
X126802Y479781D01*
X127921Y481719D01*
X128500Y483881D01*
Y486119D01*
X127921Y488281D01*
X126802Y490219D01*
X126718Y490303D01*
D02*
G37*
G36*
X235783D02*
X235698Y490219D01*
X234579Y488281D01*
X234000Y486119D01*
Y483881D01*
X234579Y481719D01*
X235698Y479781D01*
X235783Y479697D01*
X241086Y485000D01*
X235783Y490303D01*
D02*
G37*
G36*
X113282D02*
X113198Y490219D01*
X112079Y488281D01*
X111500Y486119D01*
Y483881D01*
X112079Y481719D01*
X113198Y479781D01*
X113282Y479697D01*
X118586Y485000D01*
X113282Y490303D01*
D02*
G37*
G36*
X671901Y487811D02*
X669713D01*
X667692Y486973D01*
X666144Y485426D01*
X665307Y483405D01*
Y481217D01*
X666144Y479195D01*
X667692Y477648D01*
X669713Y476811D01*
X671901D01*
X673923Y477648D01*
X675470Y479195D01*
X676307Y481217D01*
Y483405D01*
X675470Y485426D01*
X673923Y486973D01*
X671901Y487811D01*
D02*
G37*
G36*
X242500Y483586D02*
X237197Y478283D01*
X237281Y478198D01*
X239219Y477079D01*
X241381Y476500D01*
X243619D01*
X245781Y477079D01*
X247719Y478198D01*
X247803Y478283D01*
X242500Y483586D01*
D02*
G37*
G36*
X120000D02*
X114697Y478283D01*
X114781Y478198D01*
X116719Y477079D01*
X118881Y476500D01*
X121119D01*
X123281Y477079D01*
X125219Y478198D01*
X125303Y478283D01*
X120000Y483586D01*
D02*
G37*
G36*
X195000Y501376D02*
X187500D01*
X185216Y501075D01*
X183087Y500193D01*
X181259Y498791D01*
X179857Y496963D01*
X178975Y494834D01*
X178753Y493148D01*
X177725Y492120D01*
Y477319D01*
X182719Y472325D01*
X197281D01*
X202575Y477620D01*
Y480549D01*
X202643Y480637D01*
X203525Y482766D01*
X203825Y485050D01*
Y492550D01*
X203525Y494834D01*
X202643Y496963D01*
X201241Y498791D01*
X199413Y500193D01*
X197284Y501075D01*
X195000Y501376D01*
D02*
G37*
G36*
X541119Y476000D02*
X538881D01*
X536719Y475421D01*
X534781Y474302D01*
X534697Y474217D01*
X540000Y468914D01*
X545303Y474217D01*
X545219Y474302D01*
X543281Y475421D01*
X541119Y476000D01*
D02*
G37*
G36*
X546717Y472803D02*
X541414Y467500D01*
X546717Y462197D01*
X546802Y462281D01*
X547921Y464219D01*
X548500Y466381D01*
Y468619D01*
X547921Y470781D01*
X546802Y472719D01*
X546717Y472803D01*
D02*
G37*
G36*
X533283D02*
X533198Y472719D01*
X532079Y470781D01*
X531500Y468619D01*
Y466381D01*
X532079Y464219D01*
X533198Y462281D01*
X533283Y462197D01*
X538586Y467500D01*
X533283Y472803D01*
D02*
G37*
G36*
X671431Y467384D02*
X669243D01*
X667222Y466547D01*
X665675Y465000D01*
X664837Y462979D01*
Y460790D01*
X665675Y458769D01*
X667222Y457222D01*
X669243Y456385D01*
X671431D01*
X673453Y457222D01*
X675000Y458769D01*
X675837Y460790D01*
Y462979D01*
X675000Y465000D01*
X673453Y466547D01*
X671431Y467384D01*
D02*
G37*
G36*
X556094Y463000D02*
X553906D01*
X551884Y462163D01*
X550337Y460616D01*
X549500Y458594D01*
Y456406D01*
X550337Y454384D01*
X551884Y452837D01*
X553906Y452000D01*
X556094D01*
X558116Y452837D01*
X559663Y454384D01*
X560500Y456406D01*
Y458594D01*
X559663Y460616D01*
X558116Y462163D01*
X556094Y463000D01*
D02*
G37*
G36*
X540000Y466086D02*
X534697Y460783D01*
X534781Y460698D01*
X536719Y459579D01*
X538881Y459000D01*
X540502D01*
X540754Y457730D01*
X539384Y457163D01*
X537837Y455616D01*
X537000Y453594D01*
Y451406D01*
X537837Y449384D01*
X539384Y447837D01*
X541406Y447000D01*
X543594D01*
X545616Y447837D01*
X547163Y449384D01*
X548000Y451406D01*
Y453594D01*
X547163Y455616D01*
X545616Y457163D01*
X543594Y458000D01*
X542294D01*
X542127Y459270D01*
X543281Y459579D01*
X545219Y460698D01*
X545303Y460783D01*
X540000Y466086D01*
D02*
G37*
G36*
X186119Y453500D02*
X183881D01*
X181719Y452921D01*
X179781Y451802D01*
X179697Y451717D01*
X185000Y446414D01*
X190303Y451717D01*
X190219Y451802D01*
X188281Y452921D01*
X186119Y453500D01*
D02*
G37*
G36*
X191717Y450303D02*
X186414Y445000D01*
X191717Y439697D01*
X191802Y439781D01*
X192921Y441719D01*
X193500Y443881D01*
Y446119D01*
X192921Y448281D01*
X191802Y450219D01*
X191717Y450303D01*
D02*
G37*
G36*
X178283D02*
X178198Y450219D01*
X177079Y448281D01*
X176500Y446119D01*
Y443881D01*
X177079Y441719D01*
X178198Y439781D01*
X178283Y439697D01*
X183586Y445000D01*
X178283Y450303D01*
D02*
G37*
G36*
X185000Y443586D02*
X179697Y438283D01*
X179781Y438198D01*
X181719Y437079D01*
X183881Y436500D01*
X186119D01*
X188281Y437079D01*
X190219Y438198D01*
X190303Y438283D01*
X185000Y443586D01*
D02*
G37*
G36*
X418619Y428500D02*
X416381D01*
X414219Y427921D01*
X412281Y426802D01*
X412197Y426717D01*
X417500Y421414D01*
X422803Y426717D01*
X422719Y426802D01*
X420781Y427921D01*
X418619Y428500D01*
D02*
G37*
G36*
X296119Y426000D02*
X293881D01*
X291719Y425421D01*
X289781Y424302D01*
X289697Y424217D01*
X295000Y418914D01*
X300303Y424217D01*
X300219Y424302D01*
X298281Y425421D01*
X296119Y426000D01*
D02*
G37*
G36*
X881251Y436500D02*
X878749D01*
X876333Y435853D01*
X874167Y434602D01*
X872398Y432833D01*
X871147Y430667D01*
X870500Y428251D01*
Y425749D01*
X871147Y423333D01*
X872398Y421167D01*
X874167Y419398D01*
X876333Y418147D01*
X878749Y417500D01*
X881251D01*
X883667Y418147D01*
X885833Y419398D01*
X887602Y421167D01*
X888853Y423333D01*
X889500Y425749D01*
Y428251D01*
X888853Y430667D01*
X887602Y432833D01*
X885833Y434602D01*
X883667Y435853D01*
X881251Y436500D01*
D02*
G37*
G36*
X909150Y436613D02*
X901650D01*
X899407Y436166D01*
X897505Y434896D01*
X896234Y432994D01*
X895787Y430750D01*
Y423250D01*
X896234Y421007D01*
X897505Y419104D01*
X899407Y417834D01*
X901650Y417387D01*
X909150D01*
X911394Y417834D01*
X913296Y419104D01*
X914566Y421007D01*
X915013Y423250D01*
Y430750D01*
X914566Y432994D01*
X913296Y434896D01*
X911394Y436166D01*
X909150Y436613D01*
D02*
G37*
G36*
X698817Y425000D02*
X696183D01*
X693640Y424319D01*
X691360Y423002D01*
X691136Y422778D01*
X697500Y416414D01*
X703864Y422778D01*
X703640Y423002D01*
X701360Y424319D01*
X698817Y425000D01*
D02*
G37*
G36*
X424217Y425303D02*
X418914Y420000D01*
X424217Y414697D01*
X424302Y414781D01*
X425421Y416719D01*
X426000Y418881D01*
Y421119D01*
X425421Y423281D01*
X424302Y425219D01*
X424217Y425303D01*
D02*
G37*
G36*
X410783D02*
X410698Y425219D01*
X409579Y423281D01*
X409000Y421119D01*
Y418881D01*
X409579Y416719D01*
X410698Y414781D01*
X410783Y414697D01*
X416086Y420000D01*
X410783Y425303D01*
D02*
G37*
G36*
X859778Y439500D02*
X849422D01*
X842100Y432178D01*
Y421822D01*
X848570Y415352D01*
X849775D01*
X852954Y414500D01*
X856246D01*
X859425Y415352D01*
X860630D01*
X866248Y420970D01*
Y422175D01*
X867100Y425354D01*
Y428646D01*
X866248Y431825D01*
Y433030D01*
X859778Y439500D01*
D02*
G37*
G36*
X301717Y422803D02*
X296414Y417500D01*
X301717Y412197D01*
X301802Y412281D01*
X302921Y414219D01*
X303500Y416381D01*
Y418619D01*
X302921Y420781D01*
X301802Y422719D01*
X301717Y422803D01*
D02*
G37*
G36*
X288283D02*
X288198Y422719D01*
X287079Y420781D01*
X286500Y418619D01*
Y416381D01*
X287079Y414219D01*
X288198Y412281D01*
X288283Y412197D01*
X293586Y417500D01*
X288283Y422803D01*
D02*
G37*
G36*
X417500Y418586D02*
X412197Y413283D01*
X412281Y413198D01*
X414219Y412079D01*
X416381Y411500D01*
X418619D01*
X420781Y412079D01*
X422719Y413198D01*
X422803Y413283D01*
X417500Y418586D01*
D02*
G37*
G36*
X295000Y416086D02*
X289697Y410783D01*
X289781Y410698D01*
X291719Y409579D01*
X293881Y409000D01*
X296119D01*
X298281Y409579D01*
X300219Y410698D01*
X300303Y410783D01*
X295000Y416086D01*
D02*
G37*
G36*
X705278Y421364D02*
X698914Y415000D01*
X705278Y408636D01*
X705502Y408860D01*
X706818Y411140D01*
X707500Y413684D01*
Y416316D01*
X706818Y418860D01*
X705502Y421140D01*
X705278Y421364D01*
D02*
G37*
G36*
X689722D02*
X689498Y421140D01*
X688182Y418860D01*
X687500Y416316D01*
Y413684D01*
X688182Y411140D01*
X689498Y408860D01*
X689722Y408636D01*
X696086Y415000D01*
X689722Y421364D01*
D02*
G37*
G36*
X697500Y413586D02*
X691136Y407222D01*
X691360Y406998D01*
X693640Y405681D01*
X696183Y405000D01*
X698817D01*
X701360Y405681D01*
X703640Y406998D01*
X703864Y407222D01*
X697500Y413586D01*
D02*
G37*
G36*
X63000Y401300D02*
X47000D01*
Y385300D01*
X63000D01*
Y401300D01*
D02*
G37*
G36*
X681094Y383000D02*
X678906D01*
X676885Y382163D01*
X675337Y380616D01*
X674500Y378594D01*
Y376406D01*
X675337Y374384D01*
X676885Y372837D01*
X678906Y372000D01*
X681094D01*
X683115Y372837D01*
X684663Y374384D01*
X685500Y376406D01*
Y378594D01*
X684663Y380616D01*
X683115Y382163D01*
X681094Y383000D01*
D02*
G37*
G36*
X56053Y375900D02*
X53947D01*
X51912Y375355D01*
X50088Y374302D01*
X48598Y372812D01*
X47545Y370988D01*
X47000Y368953D01*
Y366847D01*
X47545Y364812D01*
X48598Y362988D01*
X50088Y361498D01*
X51912Y360445D01*
X53947Y359900D01*
X56053D01*
X58088Y360445D01*
X59912Y361498D01*
X61402Y362988D01*
X62455Y364812D01*
X63000Y366847D01*
Y368953D01*
X62455Y370988D01*
X61402Y372812D01*
X59912Y374302D01*
X58088Y375355D01*
X56053Y375900D01*
D02*
G37*
G36*
X608594Y360500D02*
X606406D01*
X604384Y359663D01*
X602837Y358116D01*
X602000Y356094D01*
Y353906D01*
X602837Y351884D01*
X604384Y350337D01*
X606406Y349500D01*
X608594D01*
X610616Y350337D01*
X612163Y351884D01*
X613000Y353906D01*
Y356094D01*
X612163Y358116D01*
X610616Y359663D01*
X608594Y360500D01*
D02*
G37*
G36*
X666094Y350500D02*
X663906D01*
X661885Y349663D01*
X660337Y348116D01*
X659500Y346094D01*
Y343906D01*
X660337Y341884D01*
X661885Y340337D01*
X663906Y339500D01*
X666094D01*
X668115Y340337D01*
X669663Y341884D01*
X670500Y343906D01*
Y346094D01*
X669663Y348116D01*
X668115Y349663D01*
X666094Y350500D01*
D02*
G37*
G36*
X56053D02*
X53947D01*
X51912Y349955D01*
X50088Y348902D01*
X48598Y347412D01*
X47545Y345588D01*
X47000Y343553D01*
Y341447D01*
X47545Y339412D01*
X48598Y337588D01*
X50088Y336098D01*
X51912Y335045D01*
X53947Y334500D01*
X56053D01*
X58088Y335045D01*
X59912Y336098D01*
X61402Y337588D01*
X62455Y339412D01*
X63000Y341447D01*
Y343553D01*
X62455Y345588D01*
X61402Y347412D01*
X59912Y348902D01*
X58088Y349955D01*
X56053Y350500D01*
D02*
G37*
G36*
X285344Y344750D02*
X283156D01*
X281134Y343913D01*
X279587Y342365D01*
X278750Y340344D01*
Y338156D01*
X279587Y336134D01*
X281134Y334587D01*
X283156Y333750D01*
X285344D01*
X287365Y334587D01*
X288913Y336134D01*
X289750Y338156D01*
Y340344D01*
X288913Y342365D01*
X287365Y343913D01*
X285344Y344750D01*
D02*
G37*
G36*
X176119Y326000D02*
X173881D01*
X171719Y325421D01*
X169781Y324302D01*
X169697Y324217D01*
X175000Y318914D01*
X180303Y324217D01*
X180219Y324302D01*
X178281Y325421D01*
X176119Y326000D01*
D02*
G37*
G36*
X181717Y322803D02*
X176414Y317500D01*
X181717Y312197D01*
X181802Y312281D01*
X182921Y314219D01*
X183500Y316381D01*
Y318619D01*
X182921Y320781D01*
X181802Y322719D01*
X181717Y322803D01*
D02*
G37*
G36*
X168283D02*
X168198Y322719D01*
X167079Y320781D01*
X166500Y318619D01*
Y316381D01*
X167079Y314219D01*
X168198Y312281D01*
X168283Y312197D01*
X173586Y317500D01*
X168283Y322803D01*
D02*
G37*
G36*
X175000Y316086D02*
X169697Y310783D01*
X169781Y310698D01*
X171719Y309579D01*
X173881Y309000D01*
X176119D01*
X178281Y309579D01*
X180219Y310698D01*
X180303Y310783D01*
X175000Y316086D01*
D02*
G37*
G36*
X287810Y311775D02*
X285571D01*
X283410Y311196D01*
X281471Y310077D01*
X281387Y309993D01*
X286691Y304690D01*
X291994Y309993D01*
X291910Y310077D01*
X289971Y311196D01*
X287810Y311775D01*
D02*
G37*
G36*
X293408Y308579D02*
X288105Y303276D01*
X293408Y297972D01*
X293492Y298056D01*
X294611Y299995D01*
X295191Y302157D01*
Y304395D01*
X294611Y306556D01*
X293492Y308495D01*
X293408Y308579D01*
D02*
G37*
G36*
X279973D02*
X279889Y308495D01*
X278770Y306556D01*
X278190Y304395D01*
Y302157D01*
X278770Y299995D01*
X279889Y298056D01*
X279973Y297972D01*
X285276Y303276D01*
X279973Y308579D01*
D02*
G37*
G36*
X958619Y303500D02*
X956381D01*
X954219Y302921D01*
X952281Y301802D01*
X952197Y301717D01*
X957500Y296414D01*
X962803Y301717D01*
X962719Y301802D01*
X960781Y302921D01*
X958619Y303500D01*
D02*
G37*
G36*
X286691Y301861D02*
X281387Y296558D01*
X281471Y296474D01*
X283410Y295355D01*
X285571Y294776D01*
X287810D01*
X289971Y295355D01*
X291910Y296474D01*
X291994Y296558D01*
X286691Y301861D01*
D02*
G37*
G36*
X688619Y301000D02*
X686381D01*
X684219Y300421D01*
X682281Y299302D01*
X682197Y299217D01*
X687500Y293914D01*
X692803Y299217D01*
X692719Y299302D01*
X690781Y300421D01*
X688619Y301000D01*
D02*
G37*
G36*
X964218Y300303D02*
X958914Y295000D01*
X964218Y289697D01*
X964302Y289781D01*
X965421Y291719D01*
X966000Y293881D01*
Y296119D01*
X965421Y298281D01*
X964302Y300219D01*
X964218Y300303D01*
D02*
G37*
G36*
X950782D02*
X950698Y300219D01*
X949579Y298281D01*
X949000Y296119D01*
Y293881D01*
X949579Y291719D01*
X950698Y289781D01*
X950782Y289697D01*
X956086Y295000D01*
X950782Y300303D01*
D02*
G37*
G36*
X694218Y297803D02*
X688914Y292500D01*
X694218Y287197D01*
X694302Y287281D01*
X695421Y289219D01*
X696000Y291381D01*
Y293619D01*
X695421Y295781D01*
X694302Y297719D01*
X694218Y297803D01*
D02*
G37*
G36*
X680782D02*
X680698Y297719D01*
X679579Y295781D01*
X679000Y293619D01*
Y291381D01*
X679579Y289219D01*
X680698Y287281D01*
X680782Y287197D01*
X686086Y292500D01*
X680782Y297803D01*
D02*
G37*
G36*
X957500Y293586D02*
X952197Y288283D01*
X952281Y288198D01*
X954219Y287079D01*
X956381Y286500D01*
X958619D01*
X960781Y287079D01*
X962719Y288198D01*
X962803Y288283D01*
X957500Y293586D01*
D02*
G37*
G36*
X687500Y291086D02*
X682197Y285783D01*
X682281Y285698D01*
X684219Y284579D01*
X686381Y284000D01*
X688619D01*
X690781Y284579D01*
X692719Y285698D01*
X692803Y285783D01*
X687500Y291086D01*
D02*
G37*
G36*
X639080Y288305D02*
X635920D01*
X632868Y287487D01*
X630132Y285907D01*
X627898Y283673D01*
X626318Y280937D01*
X625657Y278472D01*
X624343D01*
X623682Y280937D01*
X622102Y283673D01*
X619868Y285907D01*
X617132Y287487D01*
X614080Y288305D01*
X610920D01*
X607868Y287487D01*
X605132Y285907D01*
X602898Y283673D01*
X601318Y280937D01*
X600657Y278472D01*
X599343D01*
X598682Y280937D01*
X597102Y283673D01*
X594868Y285907D01*
X592132Y287487D01*
X589080Y288305D01*
X585920D01*
X582868Y287487D01*
X580132Y285907D01*
X577898Y283673D01*
X576318Y280937D01*
X575657Y278472D01*
X574343D01*
X573682Y280937D01*
X572102Y283673D01*
X569868Y285907D01*
X567132Y287487D01*
X564080Y288305D01*
X560920D01*
X557868Y287487D01*
X555132Y285907D01*
X552898Y283673D01*
X551318Y280937D01*
X550657Y278472D01*
X549343D01*
X548682Y280937D01*
X547102Y283673D01*
X544868Y285907D01*
X542132Y287487D01*
X539080Y288305D01*
X535920D01*
X532868Y287487D01*
X530132Y285907D01*
X527898Y283673D01*
X526318Y280937D01*
X525657Y278472D01*
X524343D01*
X523682Y280937D01*
X522102Y283673D01*
X519868Y285907D01*
X517132Y287487D01*
X514080Y288305D01*
X510920D01*
X507868Y287487D01*
X505132Y285907D01*
X502898Y283673D01*
X501318Y280937D01*
X500657Y278472D01*
X499343D01*
X498682Y280937D01*
X497102Y283673D01*
X494868Y285907D01*
X492132Y287487D01*
X489080Y288305D01*
X485920D01*
X482868Y287487D01*
X480132Y285907D01*
X477898Y283673D01*
X476318Y280937D01*
X475657Y278472D01*
X474343D01*
X473682Y280937D01*
X472102Y283673D01*
X469868Y285907D01*
X467132Y287487D01*
X464080Y288305D01*
X460920D01*
X457868Y287487D01*
X455132Y285907D01*
X452898Y283673D01*
X451318Y280937D01*
X450500Y277885D01*
Y274725D01*
X451318Y271673D01*
X452898Y268937D01*
X455132Y266703D01*
X457868Y265123D01*
X460333Y264462D01*
Y263148D01*
X457868Y262487D01*
X455132Y260907D01*
X452898Y258673D01*
X451318Y255937D01*
X450500Y252885D01*
Y249725D01*
X451318Y246673D01*
X452898Y243937D01*
X455132Y241703D01*
X457868Y240123D01*
X460920Y239305D01*
X464080D01*
X467132Y240123D01*
X469868Y241703D01*
X472102Y243937D01*
X473682Y246673D01*
X474343Y249138D01*
X475657D01*
X476318Y246673D01*
X477898Y243937D01*
X480132Y241703D01*
X482868Y240123D01*
X485920Y239305D01*
X489080D01*
X492132Y240123D01*
X494868Y241703D01*
X497102Y243937D01*
X498682Y246673D01*
X499343Y249138D01*
X500657D01*
X501318Y246673D01*
X502898Y243937D01*
X505132Y241703D01*
X507868Y240123D01*
X510920Y239305D01*
X514080D01*
X517132Y240123D01*
X519868Y241703D01*
X522102Y243937D01*
X523682Y246673D01*
X524343Y249138D01*
X525657D01*
X526318Y246673D01*
X527898Y243937D01*
X530132Y241703D01*
X532868Y240123D01*
X535920Y239305D01*
X539080D01*
X540658Y239728D01*
X541557Y238830D01*
X541500Y238619D01*
Y236381D01*
X542079Y234219D01*
X543198Y232281D01*
X544781Y230698D01*
X546719Y229579D01*
X548881Y229000D01*
X551119D01*
X553281Y229579D01*
X555219Y230698D01*
X556802Y232281D01*
X557921Y234219D01*
X558500Y236381D01*
Y238619D01*
X558443Y238830D01*
X559342Y239728D01*
X560920Y239305D01*
X564080D01*
X567132Y240123D01*
X569868Y241703D01*
X572102Y243937D01*
X573682Y246673D01*
X574343Y249138D01*
X575657D01*
X576318Y246673D01*
X577898Y243937D01*
X580132Y241703D01*
X582868Y240123D01*
X585920Y239305D01*
X589080D01*
X592132Y240123D01*
X594868Y241703D01*
X597102Y243937D01*
X597673Y244926D01*
X598941Y244843D01*
X599207Y244200D01*
X600849Y241743D01*
X601186Y241406D01*
X611793Y252012D01*
X612500Y251305D01*
X613207Y252012D01*
X623814Y241406D01*
X624151Y241743D01*
X624285Y241943D01*
X625500Y241574D01*
Y239305D01*
X649500D01*
Y263305D01*
X640255D01*
X640088Y264575D01*
X642132Y265123D01*
X644868Y266703D01*
X647102Y268937D01*
X648682Y271673D01*
X649500Y274725D01*
Y277885D01*
X648682Y280937D01*
X647102Y283673D01*
X644868Y285907D01*
X642132Y287487D01*
X639080Y288305D01*
D02*
G37*
G36*
X228594Y288000D02*
X226406D01*
X224384Y287163D01*
X222837Y285616D01*
X222000Y283594D01*
Y281406D01*
X222837Y279384D01*
X224384Y277837D01*
X226406Y277000D01*
X228594D01*
X230616Y277837D01*
X232163Y279384D01*
X233000Y281406D01*
Y283594D01*
X232163Y285616D01*
X230616Y287163D01*
X228594Y288000D01*
D02*
G37*
G36*
X843981Y263050D02*
X841019D01*
X838158Y262283D01*
X835592Y260802D01*
X833498Y258708D01*
X832017Y256142D01*
X831250Y253281D01*
Y250319D01*
X831868Y248014D01*
X831425Y247356D01*
X831026Y246960D01*
X830907Y246900D01*
X829093D01*
X828974Y246960D01*
X828575Y247356D01*
X828132Y248014D01*
X828750Y250319D01*
Y253281D01*
X827983Y256142D01*
X826502Y258708D01*
X824408Y260802D01*
X821842Y262283D01*
X818981Y263050D01*
X816019D01*
X813158Y262283D01*
X810592Y260802D01*
X808498Y258708D01*
X807017Y256142D01*
X806250Y253281D01*
Y250319D01*
X807017Y247458D01*
X808498Y244892D01*
X810592Y242798D01*
X813158Y241317D01*
X816019Y240550D01*
X818981D01*
X820576Y240977D01*
X821613Y239940D01*
X821500Y239519D01*
Y237281D01*
X822079Y235119D01*
X823198Y233181D01*
X824781Y231598D01*
X826719Y230479D01*
X828881Y229900D01*
X831119D01*
X833281Y230479D01*
X835219Y231598D01*
X836802Y233181D01*
X837921Y235119D01*
X838500Y237281D01*
Y239519D01*
X838387Y239940D01*
X839424Y240977D01*
X841019Y240550D01*
X843981D01*
X846842Y241317D01*
X849408Y242798D01*
X851502Y244892D01*
X852983Y247458D01*
X853750Y250319D01*
Y253281D01*
X852983Y256142D01*
X851502Y258708D01*
X849408Y260802D01*
X846842Y262283D01*
X843981Y263050D01*
D02*
G37*
G36*
X391094Y253000D02*
X388906D01*
X386884Y252163D01*
X385337Y250616D01*
X384500Y248594D01*
Y246406D01*
X385337Y244384D01*
X386884Y242837D01*
X388906Y242000D01*
X391094D01*
X393116Y242837D01*
X394663Y244384D01*
X395500Y246406D01*
Y248594D01*
X394663Y250616D01*
X393116Y252163D01*
X391094Y253000D01*
D02*
G37*
G36*
X612500Y249891D02*
X602601Y239991D01*
X602938Y239654D01*
X605395Y238012D01*
X608125Y236882D01*
X611023Y236305D01*
X613977D01*
X616875Y236882D01*
X619605Y238012D01*
X622062Y239654D01*
X622399Y239991D01*
X612500Y249891D01*
D02*
G37*
G36*
X1042912Y297000D02*
X1037088D01*
X1031336Y296089D01*
X1025797Y294289D01*
X1020608Y291645D01*
X1015896Y288222D01*
X1011778Y284104D01*
X1008355Y279392D01*
X1005711Y274203D01*
X1003911Y268664D01*
X1003000Y262912D01*
Y257088D01*
X1003911Y251336D01*
X1005711Y245797D01*
X1008355Y240608D01*
X1011778Y235896D01*
X1015896Y231778D01*
X1020608Y228355D01*
X1025797Y225711D01*
X1031336Y223911D01*
X1037088Y223000D01*
X1042912D01*
X1048664Y223911D01*
X1054203Y225711D01*
X1059392Y228355D01*
X1064104Y231778D01*
X1068222Y235896D01*
X1071645Y240608D01*
X1074289Y245797D01*
X1076089Y251336D01*
X1077000Y257088D01*
Y262912D01*
X1076089Y268664D01*
X1074289Y274203D01*
X1071645Y279392D01*
X1068222Y284104D01*
X1064104Y288222D01*
X1059392Y291645D01*
X1054203Y294289D01*
X1048664Y296089D01*
X1042912Y297000D01*
D02*
G37*
G36*
X62912D02*
X57088D01*
X51336Y296089D01*
X45797Y294289D01*
X40608Y291645D01*
X35896Y288222D01*
X31778Y284104D01*
X28355Y279392D01*
X25711Y274203D01*
X23911Y268664D01*
X23000Y262912D01*
Y257088D01*
X23911Y251336D01*
X25711Y245797D01*
X28355Y240608D01*
X31778Y235896D01*
X35896Y231778D01*
X40608Y228355D01*
X45797Y225711D01*
X51336Y223911D01*
X57088Y223000D01*
X62912D01*
X68664Y223911D01*
X74203Y225711D01*
X79392Y228355D01*
X84104Y231778D01*
X88222Y235896D01*
X91645Y240608D01*
X94289Y245797D01*
X96089Y251336D01*
X97000Y257088D01*
Y262912D01*
X96089Y268664D01*
X94289Y274203D01*
X91645Y279392D01*
X88222Y284104D01*
X84104Y288222D01*
X79392Y291645D01*
X74203Y294289D01*
X68664Y296089D01*
X62912Y297000D01*
D02*
G37*
%LPD*%
D44*
X817500Y251800D02*
D03*
X842500D02*
D03*
X69300Y620000D02*
D03*
Y595000D02*
D03*
X1020700D02*
D03*
Y620000D02*
D03*
D45*
X830000Y238400D02*
D03*
X550000Y237500D02*
D03*
X55900Y607500D02*
D03*
X1034100D02*
D03*
D48*
X315200Y645800D02*
D03*
X493000Y595000D02*
D03*
X924800Y645800D02*
D03*
D57*
X880000Y427000D02*
D03*
X854600D02*
D03*
X191250Y641200D02*
D03*
Y514200D02*
D03*
Y590400D02*
D03*
X1011000Y742000D02*
D03*
X1011000Y651000D02*
D03*
X79000Y744000D02*
D03*
X79000Y653000D02*
D03*
D60*
X1030000Y712500D02*
D03*
Y682500D02*
D03*
X60000Y712500D02*
D03*
Y682500D02*
D03*
X462500Y276305D02*
D03*
X487500Y251305D02*
D03*
Y276305D02*
D03*
X512500Y251305D02*
D03*
Y276305D02*
D03*
X537500Y251305D02*
D03*
Y276305D02*
D03*
X562500Y251305D02*
D03*
X637500Y276305D02*
D03*
X612500D02*
D03*
Y251305D02*
D03*
X587500D02*
D03*
X462500D02*
D03*
X562500Y276305D02*
D03*
X587500D02*
D03*
D75*
X273650Y712500D02*
G03*
X248250Y687100I0J-25400D01*
G01*
Y632500D02*
G03*
X228250Y652500I-20000J0D01*
G01*
X273650Y712500D02*
X390000D01*
X248250Y632500D02*
Y687100D01*
X140000Y652500D02*
X228250D01*
D77*
X1040000Y260000D02*
D03*
X60000D02*
D03*
Y500000D02*
D03*
X1040000D02*
D03*
D78*
X905400Y427000D02*
D03*
D79*
X747000Y595000D02*
D03*
D80*
X899600Y510000D02*
D03*
D81*
X925000D02*
D03*
X950400D02*
D03*
D82*
X191250Y488800D02*
D03*
D83*
X140000Y601700D02*
D03*
Y627100D02*
D03*
X55000Y342500D02*
D03*
Y367900D02*
D03*
D84*
X140000Y652500D02*
D03*
X55000Y393300D02*
D03*
D85*
X637500Y251305D02*
D03*
D86*
X957500Y295000D02*
D03*
X295000Y417500D02*
D03*
X390000Y712500D02*
D03*
X670337Y461884D02*
D03*
X704400Y508100D02*
D03*
X680000Y377500D02*
D03*
X285000Y660000D02*
D03*
X802500Y570000D02*
D03*
X284250Y339250D02*
D03*
X175000Y317500D02*
D03*
X227500Y282500D02*
D03*
X417500Y420000D02*
D03*
X355000Y507500D02*
D03*
X665000Y345000D02*
D03*
X540000Y467500D02*
D03*
X687500Y292500D02*
D03*
X390000Y247500D02*
D03*
X185000Y445000D02*
D03*
X242500Y485000D02*
D03*
X286691Y303276D02*
D03*
X655000Y495000D02*
D03*
X120000Y485000D02*
D03*
X837500Y495000D02*
D03*
X670807Y482311D02*
D03*
X555000Y457500D02*
D03*
X542500Y452500D02*
D03*
X607500Y355000D02*
D03*
X337500Y737500D02*
D03*
X248250Y632500D02*
D03*
X60000Y287500D02*
D03*
X80000Y280000D02*
D03*
X87500Y260000D02*
D03*
X80000Y240000D02*
D03*
X60000Y232500D02*
D03*
X40000Y240000D02*
D03*
X32500Y260000D02*
D03*
X40000Y280000D02*
D03*
X1040000Y287500D02*
D03*
X1060000Y280000D02*
D03*
X1067500Y260000D02*
D03*
X1060000Y240000D02*
D03*
X1040000Y232500D02*
D03*
X1020000Y240000D02*
D03*
X1012500Y260000D02*
D03*
X1020000Y280000D02*
D03*
X60000Y527500D02*
D03*
X80000Y520000D02*
D03*
X87500Y500000D02*
D03*
X80000Y480000D02*
D03*
X60000Y472500D02*
D03*
X40000Y480000D02*
D03*
X32500Y500000D02*
D03*
X40000Y520000D02*
D03*
X1040000Y527500D02*
D03*
X1060000Y520000D02*
D03*
X1067500Y500000D02*
D03*
X1060000Y480000D02*
D03*
X1040000Y472500D02*
D03*
X1020000Y480000D02*
D03*
X1012500Y500000D02*
D03*
X1020000Y520000D02*
D03*
D87*
X697500Y415000D02*
D03*
M02*
