G04*
G04 #@! TF.GenerationSoftware,Altium Limited,Altium Designer,22.11.1 (43)*
G04*
G04 Layer_Color=32896*
%FSLAX44Y44*%
%MOMM*%
G71*
G04*
G04 #@! TF.SameCoordinates,022B600F-6A39-489C-B13A-5D3FAA6F7639*
G04*
G04*
G04 #@! TF.FilePolarity,Positive*
G04*
G01*
G75*
%ADD10C,0.1000*%
%ADD22C,0.0500*%
D10*
X661030Y395000D02*
Y405000D01*
X656030Y400000D02*
X666030D01*
X540000Y395000D02*
Y405000D01*
X535000Y400000D02*
X545000D01*
X425000Y395000D02*
Y405000D01*
X420000Y400000D02*
X430000D01*
X788970Y445000D02*
Y455000D01*
X783970Y450000D02*
X793970D01*
X310000Y460000D02*
X320000D01*
X315000Y455000D02*
Y465000D01*
X675000Y495000D02*
Y505000D01*
X670000Y500000D02*
X680000D01*
X411030Y495000D02*
Y505000D01*
X406030Y500000D02*
X416030D01*
X642280Y409252D02*
Y416250D01*
X645779D01*
X646945Y415084D01*
Y410419D01*
X645779Y409252D01*
X642280D01*
X653943Y416250D02*
X649278D01*
X653943Y411585D01*
Y410419D01*
X652777Y409252D01*
X650444D01*
X649278Y410419D01*
X521250Y409252D02*
Y416250D01*
X524749D01*
X525915Y415084D01*
Y410419D01*
X524749Y409252D01*
X521250D01*
X531747Y416250D02*
Y409252D01*
X528248Y412751D01*
X532913D01*
X406250Y409252D02*
Y416250D01*
X409749D01*
X410915Y415084D01*
Y410419D01*
X409749Y409252D01*
X406250D01*
X417913D02*
X415580Y410419D01*
X413248Y412751D01*
Y415084D01*
X414414Y416250D01*
X416747D01*
X417913Y415084D01*
Y413917D01*
X416747Y412751D01*
X413248D01*
X770220Y459252D02*
Y466250D01*
X773719D01*
X774885Y465084D01*
Y460419D01*
X773719Y459252D01*
X770220D01*
X777218Y460419D02*
X778384Y459252D01*
X780717D01*
X781883Y460419D01*
Y461585D01*
X780717Y462751D01*
X781883Y463917D01*
Y465084D01*
X780717Y466250D01*
X778384D01*
X777218Y465084D01*
Y463917D01*
X778384Y462751D01*
X777218Y461585D01*
Y460419D01*
X778384Y462751D02*
X780717D01*
X296250Y469252D02*
Y476250D01*
X299749D01*
X300915Y475084D01*
Y470419D01*
X299749Y469252D01*
X296250D01*
X303248Y476250D02*
X305580D01*
X304414D01*
Y469252D01*
X303248Y470419D01*
X312578Y476250D02*
Y469252D01*
X309079Y472751D01*
X313744D01*
X656250Y509252D02*
Y516250D01*
X659749D01*
X660915Y515084D01*
Y510419D01*
X659749Y509252D01*
X656250D01*
X663248Y516250D02*
X665580D01*
X664414D01*
Y509252D01*
X663248Y510419D01*
X669079D02*
X670246Y509252D01*
X672578D01*
X673744Y510419D01*
Y515084D01*
X672578Y516250D01*
X670246D01*
X669079Y515084D01*
Y510419D01*
X392280Y509252D02*
Y516250D01*
X395779D01*
X396945Y515084D01*
Y510419D01*
X395779Y509252D01*
X392280D01*
X399278Y516250D02*
X401610D01*
X400444D01*
Y509252D01*
X399278Y510419D01*
X409774Y516250D02*
X405109D01*
X409774Y511585D01*
Y510419D01*
X408608Y509252D01*
X406275D01*
X405109Y510419D01*
X186335Y262748D02*
X188667D01*
X187501D01*
Y256916D01*
X188667Y255750D01*
X189834D01*
X191000Y256916D01*
X184002Y255750D02*
X181670D01*
X182836D01*
Y262748D01*
X184002Y261581D01*
D22*
X641530Y419500D02*
X680530D01*
X641530Y380500D02*
X680530D01*
Y419500D01*
X641530Y380500D02*
Y419500D01*
X644780Y382749D02*
Y417250D01*
X677531Y382749D02*
Y417250D01*
X644780Y382749D02*
X677531D01*
X644780Y417250D02*
X677531D01*
X520500Y419500D02*
X559500D01*
X520500Y380500D02*
X559500D01*
Y419500D01*
X520500Y380500D02*
Y419500D01*
X523750Y382749D02*
Y417250D01*
X556501Y382749D02*
Y417250D01*
X523750Y382749D02*
X556501D01*
X523750Y417250D02*
X556501D01*
X405500Y419500D02*
X444500D01*
X405500Y380500D02*
X444500D01*
Y419500D01*
X405500Y380500D02*
Y419500D01*
X408750Y382749D02*
Y417250D01*
X441501Y382749D02*
Y417250D01*
X408750Y382749D02*
X441501D01*
X408750Y417250D02*
X441501D01*
X769470Y469500D02*
X808470D01*
X769470Y430500D02*
X808470D01*
Y469500D01*
X769470Y430500D02*
Y469500D01*
X772720Y432749D02*
Y467250D01*
X805471Y432749D02*
Y467250D01*
X772720Y432749D02*
X805471D01*
X772720Y467250D02*
X805471D01*
X298750Y477250D02*
X331501D01*
X298750Y442749D02*
X331501D01*
Y477250D01*
X298750Y442749D02*
Y477250D01*
X295500Y440500D02*
Y479500D01*
X334500Y440500D02*
Y479500D01*
X295500Y440500D02*
X334500D01*
X295500Y479500D02*
X334500D01*
X655500Y519500D02*
X694500D01*
X655500Y480500D02*
X694500D01*
Y519500D01*
X655500Y480500D02*
Y519500D01*
X658750Y482749D02*
Y517250D01*
X691501Y482749D02*
Y517250D01*
X658750Y482749D02*
X691501D01*
X658750Y517250D02*
X691501D01*
X391530Y519500D02*
X430530D01*
X391530Y480500D02*
X430530D01*
Y519500D01*
X391530Y480500D02*
Y519500D01*
X394780Y482749D02*
Y517250D01*
X427531Y482749D02*
Y517250D01*
X394780Y482749D02*
X427531D01*
X394780Y517250D02*
X427531D01*
X154500Y300175D02*
Y315175D01*
X147000Y307675D02*
X162000D01*
X209750Y246175D02*
Y367925D01*
X100250Y246175D02*
Y367925D01*
X209750D01*
X100250Y246175D02*
X209750D01*
Y381675D01*
X100250Y246175D02*
Y381675D01*
X209750D01*
X100250Y246175D02*
X209750D01*
M02*
