G04*
G04 #@! TF.GenerationSoftware,Altium Limited,Altium Designer,23.6.0 (18)*
G04*
G04 Layer_Color=65535*
%FSLAX44Y44*%
%MOMM*%
G71*
G04*
G04 #@! TF.SameCoordinates,8711EDFB-AC5A-492D-8E97-C1405DB26330*
G04*
G04*
G04 #@! TF.FilePolarity,Positive*
G04*
G01*
G75*
%ADD10C,0.1000*%
%ADD11C,0.2000*%
G36*
X815504Y207801D02*
X815532Y207774D01*
X815573Y207746D01*
X815587Y207691D01*
X815601Y207621D01*
Y201630D01*
Y201616D01*
Y201602D01*
X815573Y201533D01*
X815546Y201491D01*
X815518Y201450D01*
X815462Y201436D01*
X815393Y201422D01*
X814519D01*
X814450Y201450D01*
X814408Y201478D01*
X814367Y201505D01*
X814353Y201561D01*
X814339Y201630D01*
Y203960D01*
Y203974D01*
X814325Y204015D01*
X814297Y204057D01*
X814228Y204071D01*
X812522D01*
X812481Y204057D01*
X812439Y204029D01*
X812425Y203960D01*
Y201630D01*
Y201616D01*
Y201602D01*
X812398Y201533D01*
X812370Y201491D01*
X812342Y201450D01*
X812287Y201436D01*
X812217Y201422D01*
X811330D01*
X811260Y201450D01*
X811219Y201478D01*
X811177Y201505D01*
X811163Y201561D01*
X811149Y201630D01*
Y207621D01*
Y207635D01*
Y207649D01*
X811177Y207732D01*
X811205Y207760D01*
X811233Y207801D01*
X811288Y207815D01*
X811357Y207829D01*
X812245D01*
X812328Y207801D01*
X812356Y207774D01*
X812398Y207746D01*
X812411Y207691D01*
X812425Y207621D01*
Y205277D01*
Y205264D01*
X812439Y205222D01*
X812467Y205180D01*
X812536Y205166D01*
X814242D01*
X814284Y205180D01*
X814325Y205208D01*
X814339Y205277D01*
Y207621D01*
Y207635D01*
Y207649D01*
X814367Y207732D01*
X814395Y207760D01*
X814422Y207801D01*
X814478Y207815D01*
X814547Y207829D01*
X815421D01*
X815504Y207801D01*
D02*
G37*
G36*
X809749D02*
X809776Y207774D01*
X809818Y207746D01*
X809832Y207691D01*
X809846Y207621D01*
Y201630D01*
Y201616D01*
Y201602D01*
X809818Y201533D01*
X809790Y201491D01*
X809762Y201450D01*
X809707Y201436D01*
X809638Y201422D01*
X808792D01*
X808722Y201450D01*
X808681Y201478D01*
X808639Y201505D01*
X808625Y201561D01*
X808611Y201630D01*
Y206359D01*
X808570D01*
X807557Y203017D01*
Y203003D01*
X807543Y202989D01*
X807502Y202920D01*
X807433Y202837D01*
X807377Y202823D01*
X807308Y202809D01*
X806434D01*
X806365Y202837D01*
X806323Y202864D01*
X806282Y202892D01*
X806240Y202948D01*
X806212Y203017D01*
X805172Y206373D01*
X805144D01*
Y201630D01*
Y201616D01*
Y201561D01*
X805130Y201505D01*
X805103Y201464D01*
X805089D01*
X805061Y201450D01*
X805006Y201436D01*
X804922Y201422D01*
X804076D01*
X804007Y201450D01*
X803966Y201478D01*
X803924Y201505D01*
X803910Y201561D01*
X803896Y201630D01*
Y207621D01*
Y207635D01*
Y207649D01*
X803924Y207732D01*
X803952Y207760D01*
X803979Y207801D01*
X804035Y207815D01*
X804104Y207829D01*
X805630D01*
X805671Y207815D01*
X805741Y207774D01*
X805782Y207691D01*
X806850Y204168D01*
X806906D01*
X807973Y207691D01*
X807987Y207718D01*
X808015Y207760D01*
X808071Y207801D01*
X808168Y207829D01*
X809665D01*
X809749Y207801D01*
D02*
G37*
G36*
X819373D02*
X819540Y207774D01*
X819748Y207732D01*
X819942Y207649D01*
X820136Y207552D01*
X820316Y207413D01*
X820330Y207399D01*
X820386Y207330D01*
X820455Y207247D01*
X820538Y207108D01*
X820608Y206942D01*
X820677Y206734D01*
X820732Y206498D01*
X820746Y206220D01*
Y205818D01*
Y205804D01*
Y205791D01*
Y205749D01*
X820732Y205693D01*
X820719Y205541D01*
X820677Y205361D01*
X820608Y205166D01*
X820497Y204945D01*
X820344Y204736D01*
X820261Y204626D01*
X820150Y204529D01*
X818264Y202934D01*
X818250Y202920D01*
X818208Y202864D01*
X818167Y202781D01*
X818153Y202698D01*
Y202532D01*
X820566D01*
X820649Y202504D01*
X820677Y202476D01*
X820719Y202448D01*
X820732Y202393D01*
X820746Y202323D01*
Y201630D01*
Y201616D01*
Y201602D01*
X820719Y201533D01*
X820691Y201491D01*
X820663Y201450D01*
X820608Y201436D01*
X820538Y201422D01*
X816905D01*
X816835Y201450D01*
X816794Y201478D01*
X816752Y201505D01*
X816738Y201561D01*
X816724Y201630D01*
Y202573D01*
Y202601D01*
X816738Y202670D01*
X816752Y202781D01*
X816794Y202906D01*
X816849Y203058D01*
X816932Y203225D01*
X817057Y203391D01*
X817224Y203544D01*
X819054Y205097D01*
X819068Y205111D01*
X819124Y205166D01*
X819193Y205236D01*
X819290Y205333D01*
X819373Y205458D01*
X819443Y205596D01*
X819498Y205749D01*
X819512Y205902D01*
Y206193D01*
Y206207D01*
Y206248D01*
X819498Y206304D01*
Y206373D01*
X819443Y206512D01*
X819415Y206581D01*
X819359Y206637D01*
X819332Y206664D01*
X819304Y206678D01*
X819249Y206706D01*
X819179Y206734D01*
X819096Y206747D01*
X818999Y206775D01*
X818430D01*
X818361Y206761D01*
X818208Y206720D01*
X818139Y206678D01*
X818083Y206637D01*
X818070Y206609D01*
X818042Y206581D01*
X818028Y206539D01*
X818000Y206470D01*
X817973Y206401D01*
X817959Y206304D01*
Y206193D01*
Y205874D01*
Y205860D01*
Y205846D01*
X817931Y205777D01*
X817903Y205735D01*
X817876Y205693D01*
X817820Y205680D01*
X817751Y205666D01*
X816877D01*
X816794Y205693D01*
X816752Y205721D01*
X816724Y205749D01*
X816697Y205804D01*
X816683Y205874D01*
Y206220D01*
Y206234D01*
Y206248D01*
Y206290D01*
X816697Y206345D01*
X816711Y206484D01*
X816738Y206664D01*
X816794Y206858D01*
X816863Y207053D01*
X816974Y207247D01*
X817113Y207413D01*
X817127Y207427D01*
X817196Y207482D01*
X817293Y207552D01*
X817432Y207621D01*
X817598Y207704D01*
X817806Y207760D01*
X818056Y207815D01*
X818333Y207829D01*
X819221D01*
X819373Y207801D01*
D02*
G37*
G36*
X149084Y208176D02*
X149112Y208148D01*
X149154Y208120D01*
X149167Y208065D01*
X149181Y207996D01*
Y202004D01*
Y201991D01*
Y201977D01*
X149154Y201907D01*
X149126Y201866D01*
X149098Y201824D01*
X149043Y201810D01*
X148973Y201796D01*
X148100D01*
X148030Y201824D01*
X147989Y201852D01*
X147947Y201880D01*
X147933Y201935D01*
X147919Y202004D01*
Y204334D01*
Y204348D01*
X147905Y204390D01*
X147878Y204431D01*
X147808Y204445D01*
X146103D01*
X146061Y204431D01*
X146019Y204404D01*
X146005Y204334D01*
Y202004D01*
Y201991D01*
Y201977D01*
X145978Y201907D01*
X145950Y201866D01*
X145922Y201824D01*
X145867Y201810D01*
X145797Y201796D01*
X144910D01*
X144840Y201824D01*
X144799Y201852D01*
X144757Y201880D01*
X144743Y201935D01*
X144730Y202004D01*
Y207996D01*
Y208009D01*
Y208023D01*
X144757Y208106D01*
X144785Y208134D01*
X144813Y208176D01*
X144868Y208190D01*
X144938Y208204D01*
X145825D01*
X145908Y208176D01*
X145936Y208148D01*
X145978Y208120D01*
X145992Y208065D01*
X146005Y207996D01*
Y205652D01*
Y205638D01*
X146019Y205596D01*
X146047Y205555D01*
X146116Y205541D01*
X147822D01*
X147864Y205555D01*
X147905Y205583D01*
X147919Y205652D01*
Y207996D01*
Y208009D01*
Y208023D01*
X147947Y208106D01*
X147975Y208134D01*
X148003Y208176D01*
X148058Y208190D01*
X148127Y208204D01*
X149001D01*
X149084Y208176D01*
D02*
G37*
G36*
X143329D02*
X143357Y208148D01*
X143398Y208120D01*
X143412Y208065D01*
X143426Y207996D01*
Y202004D01*
Y201991D01*
Y201977D01*
X143398Y201907D01*
X143371Y201866D01*
X143343Y201824D01*
X143287Y201810D01*
X143218Y201796D01*
X142372D01*
X142303Y201824D01*
X142261Y201852D01*
X142219Y201880D01*
X142205Y201935D01*
X142192Y202004D01*
Y206733D01*
X142150D01*
X141138Y203391D01*
Y203377D01*
X141124Y203363D01*
X141082Y203294D01*
X141013Y203211D01*
X140957Y203197D01*
X140888Y203183D01*
X140014D01*
X139945Y203211D01*
X139903Y203239D01*
X139862Y203266D01*
X139820Y203322D01*
X139792Y203391D01*
X138752Y206747D01*
X138724D01*
Y202004D01*
Y201991D01*
Y201935D01*
X138711Y201880D01*
X138683Y201838D01*
X138669D01*
X138641Y201824D01*
X138586Y201810D01*
X138503Y201796D01*
X137657D01*
X137587Y201824D01*
X137546Y201852D01*
X137504Y201880D01*
X137490Y201935D01*
X137476Y202004D01*
Y207996D01*
Y208009D01*
Y208023D01*
X137504Y208106D01*
X137532Y208134D01*
X137560Y208176D01*
X137615Y208190D01*
X137684Y208204D01*
X139210D01*
X139251Y208190D01*
X139321Y208148D01*
X139362Y208065D01*
X140430Y204542D01*
X140486D01*
X141554Y208065D01*
X141568Y208093D01*
X141595Y208134D01*
X141651Y208176D01*
X141748Y208204D01*
X143246D01*
X143329Y208176D01*
D02*
G37*
G36*
X152427D02*
X152454Y208148D01*
X152496Y208120D01*
X152510Y208065D01*
X152524Y207996D01*
Y202004D01*
Y201991D01*
Y201935D01*
X152510Y201880D01*
X152482Y201838D01*
X152468D01*
X152454Y201824D01*
X152399Y201810D01*
X152329Y201796D01*
X151442D01*
X151372Y201824D01*
X151331Y201852D01*
X151289Y201880D01*
X151275Y201935D01*
X151262Y202004D01*
Y206858D01*
X150277Y206304D01*
X150263D01*
X150249Y206290D01*
X150138D01*
X150097Y206318D01*
X150083Y206359D01*
X150069Y206428D01*
Y207247D01*
Y207260D01*
Y207274D01*
X150083Y207344D01*
X150138Y207427D01*
X150166Y207469D01*
X150221Y207496D01*
X151123Y208065D01*
X151137D01*
X151165Y208093D01*
X151206Y208106D01*
X151262Y208134D01*
X151386Y208176D01*
X151511Y208204D01*
X152343D01*
X152427Y208176D01*
D02*
G37*
G36*
X707045Y143176D02*
X707211Y143148D01*
X707419Y143106D01*
X707613Y143023D01*
X707807Y142926D01*
X707988Y142788D01*
X708001Y142774D01*
X708057Y142704D01*
X708126Y142621D01*
X708209Y142482D01*
X708279Y142316D01*
X708348Y142108D01*
X708404Y141872D01*
X708418Y141595D01*
Y141193D01*
Y141179D01*
Y141165D01*
Y141123D01*
X708404Y141068D01*
X708390Y140915D01*
X708348Y140735D01*
X708279Y140541D01*
X708168Y140319D01*
X708015Y140111D01*
X707932Y140000D01*
X707821Y139903D01*
X705935Y138308D01*
X705921Y138294D01*
X705880Y138239D01*
X705838Y138155D01*
X705824Y138072D01*
Y137906D01*
X708237D01*
X708320Y137878D01*
X708348Y137850D01*
X708390Y137823D01*
X708404Y137767D01*
X708418Y137698D01*
Y137004D01*
Y136990D01*
Y136977D01*
X708390Y136907D01*
X708362Y136866D01*
X708334Y136824D01*
X708279Y136810D01*
X708209Y136796D01*
X704576D01*
X704507Y136824D01*
X704465Y136852D01*
X704423Y136880D01*
X704409Y136935D01*
X704396Y137004D01*
Y137948D01*
Y137975D01*
X704409Y138045D01*
X704423Y138155D01*
X704465Y138280D01*
X704520Y138433D01*
X704604Y138599D01*
X704728Y138766D01*
X704895Y138918D01*
X706725Y140471D01*
X706739Y140485D01*
X706795Y140541D01*
X706864Y140610D01*
X706961Y140707D01*
X707045Y140832D01*
X707114Y140971D01*
X707169Y141123D01*
X707183Y141276D01*
Y141567D01*
Y141581D01*
Y141623D01*
X707169Y141678D01*
Y141747D01*
X707114Y141886D01*
X707086Y141955D01*
X707031Y142011D01*
X707003Y142039D01*
X706975Y142052D01*
X706920Y142080D01*
X706850Y142108D01*
X706767Y142122D01*
X706670Y142150D01*
X706101D01*
X706032Y142136D01*
X705880Y142094D01*
X705810Y142052D01*
X705755Y142011D01*
X705741Y141983D01*
X705713Y141955D01*
X705699Y141914D01*
X705671Y141845D01*
X705644Y141775D01*
X705630Y141678D01*
Y141567D01*
Y141248D01*
Y141234D01*
Y141220D01*
X705602Y141151D01*
X705574Y141109D01*
X705547Y141068D01*
X705491Y141054D01*
X705422Y141040D01*
X704548D01*
X704465Y141068D01*
X704423Y141096D01*
X704396Y141123D01*
X704368Y141179D01*
X704354Y141248D01*
Y141595D01*
Y141609D01*
Y141623D01*
Y141664D01*
X704368Y141720D01*
X704382Y141858D01*
X704409Y142039D01*
X704465Y142233D01*
X704534Y142427D01*
X704645Y142621D01*
X704784Y142788D01*
X704798Y142801D01*
X704867Y142857D01*
X704964Y142926D01*
X705103Y142996D01*
X705269Y143079D01*
X705477Y143134D01*
X705727Y143190D01*
X706004Y143204D01*
X706892D01*
X707045Y143176D01*
D02*
G37*
G36*
X703591D02*
X703619Y143148D01*
X703661Y143120D01*
X703674Y143065D01*
X703688Y142996D01*
Y142316D01*
Y142302D01*
Y142288D01*
X703661Y142219D01*
X703633Y142177D01*
X703605Y142136D01*
X703550Y142122D01*
X703480Y142108D01*
X701456D01*
X701414Y142094D01*
X701372Y142066D01*
X701358Y141997D01*
Y140458D01*
Y140444D01*
X701372Y140402D01*
X701400Y140347D01*
X701469Y140333D01*
X703217D01*
X703300Y140305D01*
X703328Y140277D01*
X703369Y140250D01*
X703383Y140194D01*
X703397Y140125D01*
Y139459D01*
Y139445D01*
Y139431D01*
X703369Y139348D01*
X703342Y139307D01*
X703314Y139279D01*
X703258Y139251D01*
X703189Y139237D01*
X701456D01*
X701414Y139223D01*
X701372Y139196D01*
X701358Y139126D01*
Y137004D01*
Y136990D01*
Y136977D01*
X701331Y136907D01*
X701303Y136866D01*
X701275Y136824D01*
X701220Y136810D01*
X701150Y136796D01*
X700263D01*
X700193Y136824D01*
X700152Y136852D01*
X700110Y136880D01*
X700096Y136935D01*
X700082Y137004D01*
Y142996D01*
Y143009D01*
Y143023D01*
X700110Y143106D01*
X700138Y143134D01*
X700166Y143176D01*
X700221Y143190D01*
X700291Y143204D01*
X703508D01*
X703591Y143176D01*
D02*
G37*
G36*
X686825Y216379D02*
X686853Y216351D01*
X686894Y216323D01*
X686908Y216268D01*
X686922Y216199D01*
Y210207D01*
Y210194D01*
Y210138D01*
X686908Y210083D01*
X686880Y210041D01*
X686867D01*
X686853Y210027D01*
X686797Y210013D01*
X686728Y209999D01*
X685840D01*
X685771Y210027D01*
X685729Y210055D01*
X685688Y210083D01*
X685674Y210138D01*
X685660Y210207D01*
Y215061D01*
X684675Y214507D01*
X684662D01*
X684648Y214493D01*
X684537D01*
X684495Y214520D01*
X684481Y214562D01*
X684467Y214631D01*
Y215450D01*
Y215464D01*
Y215477D01*
X684481Y215547D01*
X684537Y215630D01*
X684565Y215672D01*
X684620Y215699D01*
X685521Y216268D01*
X685535D01*
X685563Y216296D01*
X685605Y216310D01*
X685660Y216337D01*
X685785Y216379D01*
X685910Y216407D01*
X686742D01*
X686825Y216379D01*
D02*
G37*
G36*
X683899D02*
X683926Y216351D01*
X683968Y216323D01*
X683982Y216268D01*
X683996Y216199D01*
Y215519D01*
Y215505D01*
Y215491D01*
X683968Y215422D01*
X683940Y215380D01*
X683913Y215339D01*
X683857Y215325D01*
X683788Y215311D01*
X681763D01*
X681721Y215297D01*
X681680Y215269D01*
X681666Y215200D01*
Y213661D01*
Y213647D01*
X681680Y213605D01*
X681708Y213550D01*
X681777Y213536D01*
X683524D01*
X683608Y213508D01*
X683635Y213480D01*
X683677Y213453D01*
X683691Y213397D01*
X683705Y213328D01*
Y212662D01*
Y212648D01*
Y212634D01*
X683677Y212551D01*
X683649Y212510D01*
X683621Y212482D01*
X683566Y212454D01*
X683497Y212440D01*
X681763D01*
X681721Y212426D01*
X681680Y212399D01*
X681666Y212329D01*
Y210207D01*
Y210194D01*
Y210180D01*
X681638Y210110D01*
X681610Y210069D01*
X681583Y210027D01*
X681527Y210013D01*
X681458Y209999D01*
X680570D01*
X680501Y210027D01*
X680459Y210055D01*
X680418Y210083D01*
X680404Y210138D01*
X680390Y210207D01*
Y216199D01*
Y216212D01*
Y216226D01*
X680418Y216310D01*
X680446Y216337D01*
X680473Y216379D01*
X680529Y216393D01*
X680598Y216407D01*
X683816D01*
X683899Y216379D01*
D02*
G37*
G36*
X600006Y163176D02*
X600173Y163148D01*
X600381Y163106D01*
X600575Y163023D01*
X600769Y162926D01*
X600950Y162788D01*
X600963Y162774D01*
X601019Y162704D01*
X601088Y162621D01*
X601171Y162482D01*
X601241Y162316D01*
X601310Y162108D01*
X601366Y161872D01*
X601380Y161595D01*
Y161096D01*
Y161082D01*
Y161054D01*
Y161012D01*
X601366Y160957D01*
X601338Y160818D01*
X601282Y160638D01*
X601185Y160458D01*
X601130Y160361D01*
X601047Y160277D01*
X600950Y160194D01*
X600853Y160125D01*
X600728Y160056D01*
X600589Y160000D01*
X600603D01*
X600617Y159986D01*
X600658Y159972D01*
X600714Y159958D01*
X600839Y159903D01*
X600991Y159806D01*
X601130Y159667D01*
X601199Y159570D01*
X601255Y159473D01*
X601310Y159362D01*
X601352Y159223D01*
X601366Y159085D01*
X601380Y158918D01*
Y158405D01*
Y158391D01*
Y158377D01*
Y158336D01*
Y158280D01*
X601352Y158142D01*
X601324Y157961D01*
X601269Y157767D01*
X601199Y157573D01*
X601088Y157379D01*
X600950Y157212D01*
X600936Y157199D01*
X600866Y157143D01*
X600769Y157088D01*
X600631Y157004D01*
X600464Y156935D01*
X600256Y156866D01*
X600006Y156810D01*
X599729Y156796D01*
X598772D01*
X598717Y156810D01*
X598564Y156824D01*
X598398Y156852D01*
X598190Y156894D01*
X597996Y156977D01*
X597801Y157074D01*
X597621Y157212D01*
X597607Y157226D01*
X597552Y157296D01*
X597482Y157379D01*
X597413Y157518D01*
X597330Y157684D01*
X597261Y157892D01*
X597205Y158128D01*
X597191Y158405D01*
Y158682D01*
Y158696D01*
Y158724D01*
X597219Y158793D01*
X597247Y158835D01*
X597274Y158877D01*
X597330Y158890D01*
X597399Y158904D01*
X598287D01*
X598356Y158877D01*
X598398Y158849D01*
X598439Y158807D01*
X598453Y158752D01*
X598467Y158682D01*
Y158433D01*
Y158419D01*
Y158377D01*
X598481Y158322D01*
Y158253D01*
X598523Y158100D01*
X598550Y158031D01*
X598592Y157975D01*
X598620Y157961D01*
X598647Y157934D01*
X598689Y157920D01*
X598758Y157892D01*
X598828Y157864D01*
X598925Y157850D01*
X599577D01*
X599632Y157864D01*
X599701D01*
X599868Y157906D01*
X599937Y157934D01*
X599993Y157975D01*
X600006Y157989D01*
X600020Y158003D01*
X600048Y158031D01*
X600076Y158086D01*
X600104Y158142D01*
X600117Y158225D01*
X600145Y158322D01*
Y158433D01*
Y158918D01*
Y158932D01*
Y158974D01*
X600131Y159029D01*
Y159085D01*
X600076Y159237D01*
X600048Y159307D01*
X599993Y159362D01*
X599965Y159390D01*
X599937Y159404D01*
X599882Y159431D01*
X599812Y159459D01*
X599729Y159473D01*
X599632Y159501D01*
X598980D01*
X598911Y159529D01*
X598869Y159556D01*
X598828Y159584D01*
X598814Y159639D01*
X598800Y159709D01*
Y160305D01*
Y160319D01*
Y160347D01*
X598828Y160416D01*
X598855Y160458D01*
X598883Y160499D01*
X598939Y160513D01*
X599008Y160527D01*
X599577D01*
X599632Y160541D01*
X599701D01*
X599868Y160583D01*
X599937Y160610D01*
X599993Y160652D01*
X600006Y160666D01*
X600020Y160680D01*
X600048Y160707D01*
X600076Y160763D01*
X600104Y160818D01*
X600117Y160902D01*
X600145Y160998D01*
Y161110D01*
Y161567D01*
Y161581D01*
Y161623D01*
X600131Y161678D01*
Y161747D01*
X600076Y161886D01*
X600048Y161956D01*
X599993Y162011D01*
X599965Y162039D01*
X599937Y162052D01*
X599882Y162080D01*
X599812Y162108D01*
X599729Y162122D01*
X599632Y162150D01*
X598925D01*
X598855Y162136D01*
X598717Y162094D01*
X598647Y162052D01*
X598592Y162011D01*
X598578Y161983D01*
X598550Y161956D01*
X598536Y161914D01*
X598509Y161845D01*
X598481Y161775D01*
X598467Y161678D01*
Y161567D01*
Y161318D01*
Y161304D01*
Y161290D01*
X598439Y161220D01*
X598412Y161179D01*
X598370Y161137D01*
X598315Y161123D01*
X598245Y161110D01*
X597371D01*
X597302Y161137D01*
X597261Y161165D01*
X597219Y161193D01*
X597205Y161248D01*
X597191Y161318D01*
Y161595D01*
Y161609D01*
Y161623D01*
Y161664D01*
X597205Y161720D01*
X597219Y161858D01*
X597247Y162039D01*
X597302Y162233D01*
X597371Y162427D01*
X597482Y162621D01*
X597621Y162788D01*
X597635Y162801D01*
X597704Y162857D01*
X597801Y162926D01*
X597940Y162996D01*
X598106Y163079D01*
X598315Y163134D01*
X598564Y163190D01*
X598842Y163204D01*
X599854D01*
X600006Y163176D01*
D02*
G37*
G36*
X596082D02*
X596110Y163148D01*
X596151Y163120D01*
X596165Y163065D01*
X596179Y162996D01*
Y157004D01*
Y156991D01*
Y156935D01*
X596165Y156880D01*
X596137Y156838D01*
X596123D01*
X596110Y156824D01*
X596054Y156810D01*
X595985Y156796D01*
X595097D01*
X595028Y156824D01*
X594986Y156852D01*
X594944Y156880D01*
X594931Y156935D01*
X594917Y157004D01*
Y161858D01*
X593932Y161304D01*
X593918D01*
X593904Y161290D01*
X593793D01*
X593752Y161318D01*
X593738Y161359D01*
X593724Y161429D01*
Y162247D01*
Y162261D01*
Y162274D01*
X593738Y162344D01*
X593793Y162427D01*
X593821Y162469D01*
X593877Y162496D01*
X594778Y163065D01*
X594792D01*
X594820Y163093D01*
X594861Y163106D01*
X594917Y163134D01*
X595042Y163176D01*
X595166Y163204D01*
X595998D01*
X596082Y163176D01*
D02*
G37*
G36*
X591561D02*
X591741Y163148D01*
X591935Y163093D01*
X592129Y163023D01*
X592323Y162912D01*
X592504Y162774D01*
X592518Y162760D01*
X592573Y162691D01*
X592642Y162607D01*
X592726Y162469D01*
X592809Y162302D01*
X592878Y162094D01*
X592934Y161858D01*
X592948Y161581D01*
Y158419D01*
Y158405D01*
Y158391D01*
Y158350D01*
Y158294D01*
X592920Y158155D01*
X592892Y157975D01*
X592836Y157781D01*
X592767Y157587D01*
X592656Y157393D01*
X592504Y157212D01*
X592490Y157199D01*
X592421Y157143D01*
X592323Y157088D01*
X592199Y157004D01*
X592018Y156935D01*
X591810Y156866D01*
X591575Y156810D01*
X591297Y156796D01*
X588801D01*
X588731Y156824D01*
X588690Y156852D01*
X588648Y156880D01*
X588634Y156935D01*
X588620Y157004D01*
Y162996D01*
Y163009D01*
Y163023D01*
X588648Y163106D01*
X588676Y163134D01*
X588704Y163176D01*
X588759Y163190D01*
X588829Y163204D01*
X591422D01*
X591561Y163176D01*
D02*
G37*
G36*
X531439Y162841D02*
X531466Y162814D01*
X531508Y162786D01*
X531522Y162730D01*
X531536Y162661D01*
Y156670D01*
Y156656D01*
Y156601D01*
X531522Y156545D01*
X531494Y156503D01*
X531480D01*
X531466Y156490D01*
X531411Y156476D01*
X531342Y156462D01*
X530454D01*
X530385Y156490D01*
X530343Y156517D01*
X530302Y156545D01*
X530288Y156601D01*
X530274Y156670D01*
Y161524D01*
X529289Y160969D01*
X529275D01*
X529261Y160955D01*
X529150D01*
X529109Y160983D01*
X529095Y161025D01*
X529081Y161094D01*
Y161912D01*
Y161926D01*
Y161940D01*
X529095Y162009D01*
X529150Y162092D01*
X529178Y162134D01*
X529234Y162162D01*
X530135Y162730D01*
X530149D01*
X530177Y162758D01*
X530218Y162772D01*
X530274Y162800D01*
X530398Y162841D01*
X530523Y162869D01*
X531356D01*
X531439Y162841D01*
D02*
G37*
G36*
X528110D02*
X528138Y162814D01*
X528180Y162786D01*
X528194Y162730D01*
X528207Y162661D01*
Y156670D01*
Y156656D01*
Y156601D01*
X528194Y156545D01*
X528166Y156503D01*
X528152D01*
X528138Y156490D01*
X528083Y156476D01*
X528013Y156462D01*
X527126D01*
X527056Y156490D01*
X527015Y156517D01*
X526973Y156545D01*
X526959Y156601D01*
X526945Y156670D01*
Y161524D01*
X525961Y160969D01*
X525947D01*
X525933Y160955D01*
X525822D01*
X525780Y160983D01*
X525766Y161025D01*
X525753Y161094D01*
Y161912D01*
Y161926D01*
Y161940D01*
X525766Y162009D01*
X525822Y162092D01*
X525850Y162134D01*
X525905Y162162D01*
X526807Y162730D01*
X526820D01*
X526848Y162758D01*
X526890Y162772D01*
X526945Y162800D01*
X527070Y162841D01*
X527195Y162869D01*
X528027D01*
X528110Y162841D01*
D02*
G37*
G36*
X523589D02*
X523769Y162814D01*
X523964Y162758D01*
X524158Y162689D01*
X524352Y162578D01*
X524532Y162439D01*
X524546Y162425D01*
X524602Y162356D01*
X524671Y162273D01*
X524754Y162134D01*
X524837Y161968D01*
X524907Y161760D01*
X524962Y161524D01*
X524976Y161246D01*
Y158084D01*
Y158071D01*
Y158057D01*
Y158015D01*
Y157960D01*
X524948Y157821D01*
X524921Y157641D01*
X524865Y157446D01*
X524796Y157252D01*
X524685Y157058D01*
X524532Y156878D01*
X524518Y156864D01*
X524449Y156809D01*
X524352Y156753D01*
X524227Y156670D01*
X524047Y156601D01*
X523839Y156531D01*
X523603Y156476D01*
X523326Y156462D01*
X520829D01*
X520760Y156490D01*
X520718Y156517D01*
X520677Y156545D01*
X520663Y156601D01*
X520649Y156670D01*
Y162661D01*
Y162675D01*
Y162689D01*
X520677Y162772D01*
X520704Y162800D01*
X520732Y162841D01*
X520788Y162855D01*
X520857Y162869D01*
X523451D01*
X523589Y162841D01*
D02*
G37*
G36*
X463419Y163176D02*
X463585Y163148D01*
X463793Y163106D01*
X463987Y163023D01*
X464181Y162926D01*
X464362Y162788D01*
X464375Y162774D01*
X464431Y162704D01*
X464500Y162621D01*
X464584Y162482D01*
X464653Y162316D01*
X464722Y162108D01*
X464778Y161858D01*
X464791Y161581D01*
Y158419D01*
Y158405D01*
Y158391D01*
Y158350D01*
Y158294D01*
X464764Y158142D01*
X464736Y157975D01*
X464681Y157781D01*
X464611Y157573D01*
X464500Y157379D01*
X464362Y157212D01*
X464348Y157199D01*
X464278Y157143D01*
X464181Y157088D01*
X464043Y157004D01*
X463876Y156935D01*
X463668Y156866D01*
X463419Y156810D01*
X463141Y156796D01*
X461006D01*
X460922Y156824D01*
X460881Y156852D01*
X460853Y156880D01*
X460825Y156935D01*
X460811Y157004D01*
Y157684D01*
Y157698D01*
Y157712D01*
X460839Y157795D01*
X460867Y157823D01*
X460908Y157864D01*
X460964Y157878D01*
X461033Y157892D01*
X462989D01*
X463044Y157906D01*
X463114D01*
X463252Y157948D01*
X463321Y157975D01*
X463377Y158017D01*
Y158031D01*
X463405Y158045D01*
X463419Y158072D01*
X463446Y158128D01*
X463474Y158183D01*
X463488Y158266D01*
X463516Y158364D01*
Y158475D01*
Y159071D01*
X462087D01*
X462032Y159085D01*
X461879Y159099D01*
X461713Y159126D01*
X461505Y159168D01*
X461311Y159251D01*
X461116Y159348D01*
X460936Y159487D01*
X460922Y159501D01*
X460867Y159570D01*
X460797Y159667D01*
X460728Y159806D01*
X460645Y159972D01*
X460575Y160180D01*
X460520Y160416D01*
X460506Y160693D01*
Y161581D01*
Y161595D01*
Y161623D01*
Y161650D01*
X460520Y161706D01*
X460534Y161858D01*
X460562Y162025D01*
X460617Y162219D01*
X460686Y162427D01*
X460797Y162621D01*
X460936Y162788D01*
X460950Y162801D01*
X461019Y162857D01*
X461116Y162926D01*
X461255Y162996D01*
X461422Y163079D01*
X461629Y163134D01*
X461879Y163190D01*
X462156Y163204D01*
X463266D01*
X463419Y163176D01*
D02*
G37*
G36*
X458149D02*
X458329Y163148D01*
X458523Y163093D01*
X458717Y163023D01*
X458911Y162912D01*
X459092Y162774D01*
X459105Y162760D01*
X459161Y162691D01*
X459230Y162607D01*
X459314Y162469D01*
X459397Y162302D01*
X459466Y162094D01*
X459521Y161858D01*
X459535Y161581D01*
Y158419D01*
Y158405D01*
Y158391D01*
Y158350D01*
Y158294D01*
X459508Y158155D01*
X459480Y157975D01*
X459425Y157781D01*
X459355Y157587D01*
X459244Y157393D01*
X459092Y157212D01*
X459078Y157199D01*
X459008Y157143D01*
X458911Y157088D01*
X458787Y157004D01*
X458606Y156935D01*
X458398Y156866D01*
X458162Y156810D01*
X457885Y156796D01*
X455389D01*
X455319Y156824D01*
X455278Y156852D01*
X455236Y156880D01*
X455222Y156935D01*
X455209Y157004D01*
Y162996D01*
Y163009D01*
Y163023D01*
X455236Y163106D01*
X455264Y163134D01*
X455292Y163176D01*
X455347Y163190D01*
X455416Y163204D01*
X458010D01*
X458149Y163176D01*
D02*
G37*
G36*
X394389D02*
X394417Y163148D01*
X394459Y163120D01*
X394473Y163065D01*
X394486Y162996D01*
Y162164D01*
Y162150D01*
Y162122D01*
Y162080D01*
X394473Y162025D01*
X394459Y161942D01*
X394431Y161845D01*
X394348Y161623D01*
X392420Y156977D01*
Y156963D01*
X392406Y156949D01*
X392351Y156894D01*
X392295Y156852D01*
X392240Y156824D01*
X392170Y156810D01*
X392073Y156796D01*
X391089D01*
X391047Y156810D01*
X391006Y156838D01*
Y156852D01*
Y156880D01*
Y156935D01*
X391033Y157004D01*
X393141Y162052D01*
X390756D01*
X390686Y162080D01*
X390645Y162108D01*
X390603Y162136D01*
X390589Y162191D01*
X390575Y162261D01*
Y162996D01*
Y163009D01*
Y163023D01*
X390603Y163106D01*
X390631Y163134D01*
X390659Y163176D01*
X390714Y163190D01*
X390784Y163204D01*
X394306D01*
X394389Y163176D01*
D02*
G37*
G36*
X388454D02*
X388634Y163148D01*
X388828Y163093D01*
X389022Y163023D01*
X389216Y162912D01*
X389397Y162774D01*
X389411Y162760D01*
X389466Y162691D01*
X389535Y162607D01*
X389619Y162469D01*
X389702Y162302D01*
X389771Y162094D01*
X389827Y161858D01*
X389841Y161581D01*
Y158419D01*
Y158405D01*
Y158391D01*
Y158350D01*
Y158294D01*
X389813Y158155D01*
X389785Y157975D01*
X389730Y157781D01*
X389660Y157587D01*
X389549Y157393D01*
X389397Y157212D01*
X389383Y157199D01*
X389314Y157143D01*
X389216Y157088D01*
X389092Y157004D01*
X388911Y156935D01*
X388703Y156866D01*
X388467Y156810D01*
X388190Y156796D01*
X385694D01*
X385625Y156824D01*
X385583Y156852D01*
X385541Y156880D01*
X385527Y156935D01*
X385514Y157004D01*
Y162996D01*
Y163009D01*
Y163023D01*
X385541Y163106D01*
X385569Y163134D01*
X385597Y163176D01*
X385652Y163190D01*
X385722Y163204D01*
X388315D01*
X388454Y163176D01*
D02*
G37*
G36*
X603555Y281208D02*
X603582Y281180D01*
X603624Y281152D01*
X603638Y281096D01*
X603652Y281027D01*
Y280278D01*
Y280264D01*
Y280250D01*
X603624Y280181D01*
X603596Y280140D01*
X603569Y280098D01*
X603513Y280084D01*
X603444Y280070D01*
X601031D01*
Y278600D01*
X601045Y278628D01*
X601072Y278683D01*
X601114Y278753D01*
X601197Y278850D01*
X601308Y278947D01*
X601447Y279016D01*
X601641Y279072D01*
X601863Y279100D01*
X602362D01*
X602431Y279086D01*
X602528Y279072D01*
X602653Y279058D01*
X602778Y279016D01*
X602917Y278975D01*
X603069Y278905D01*
X603208Y278822D01*
X603347Y278725D01*
X603471Y278600D01*
X603596Y278448D01*
X603693Y278267D01*
X603763Y278059D01*
X603818Y277824D01*
X603832Y277546D01*
Y276451D01*
Y276437D01*
Y276423D01*
Y276381D01*
Y276326D01*
X603804Y276187D01*
X603777Y276007D01*
X603721Y275813D01*
X603652Y275618D01*
X603541Y275424D01*
X603402Y275244D01*
X603388Y275230D01*
X603319Y275175D01*
X603222Y275119D01*
X603097Y275036D01*
X602917Y274967D01*
X602709Y274897D01*
X602473Y274842D01*
X602196Y274828D01*
X601253D01*
X601197Y274842D01*
X601045Y274856D01*
X600878Y274883D01*
X600670Y274925D01*
X600476Y275008D01*
X600282Y275105D01*
X600102Y275244D01*
X600088Y275258D01*
X600032Y275327D01*
X599963Y275424D01*
X599893Y275549D01*
X599810Y275716D01*
X599741Y275924D01*
X599686Y276173D01*
X599672Y276451D01*
Y276645D01*
Y276659D01*
Y276686D01*
X599699Y276756D01*
X599727Y276797D01*
X599755Y276839D01*
X599810Y276853D01*
X599880Y276867D01*
X600753D01*
X600836Y276839D01*
X600864Y276811D01*
X600906Y276770D01*
X600920Y276714D01*
X600934Y276645D01*
Y276465D01*
Y276451D01*
Y276409D01*
X600947Y276353D01*
Y276284D01*
X600989Y276132D01*
X601031Y276062D01*
X601072Y276007D01*
X601100Y275993D01*
X601128Y275965D01*
X601183Y275951D01*
X601239Y275924D01*
X601322Y275896D01*
X601405Y275882D01*
X602043D01*
X602099Y275896D01*
X602168D01*
X602321Y275938D01*
X602390Y275965D01*
X602459Y276007D01*
X602473Y276021D01*
X602487Y276035D01*
X602515Y276062D01*
X602542Y276118D01*
X602570Y276173D01*
X602584Y276256D01*
X602612Y276353D01*
Y276465D01*
Y277352D01*
Y277366D01*
Y277421D01*
X602598Y277491D01*
Y277588D01*
X602542Y277782D01*
X602515Y277865D01*
X602459Y277934D01*
Y277948D01*
X602431Y277962D01*
X602390Y277990D01*
X602348Y278018D01*
X602279Y278046D01*
X602182Y278059D01*
X602071Y278087D01*
X601433D01*
X601391Y278073D01*
X601336Y278059D01*
X601267Y278032D01*
X601211Y278004D01*
X601142Y277948D01*
X601086Y277879D01*
Y277865D01*
X601058Y277851D01*
X601003Y277782D01*
X600906Y277699D01*
X600850Y277685D01*
X600795Y277671D01*
X599949D01*
X599866Y277699D01*
X599796Y277754D01*
X599769Y277796D01*
X599755Y277865D01*
Y281027D01*
Y281041D01*
Y281055D01*
X599782Y281138D01*
X599810Y281166D01*
X599852Y281208D01*
X599907Y281221D01*
X599977Y281235D01*
X603471D01*
X603555Y281208D01*
D02*
G37*
G36*
X597286D02*
X597467Y281180D01*
X597661Y281124D01*
X597855Y281055D01*
X598049Y280944D01*
X598229Y280805D01*
X598243Y280791D01*
X598299Y280722D01*
X598368Y280639D01*
X598451Y280500D01*
X598534Y280334D01*
X598604Y280126D01*
X598659Y279890D01*
X598673Y279613D01*
Y276451D01*
Y276437D01*
Y276423D01*
Y276381D01*
Y276326D01*
X598645Y276187D01*
X598618Y276007D01*
X598562Y275813D01*
X598493Y275618D01*
X598382Y275424D01*
X598229Y275244D01*
X598215Y275230D01*
X598146Y275175D01*
X598049Y275119D01*
X597924Y275036D01*
X597744Y274967D01*
X597536Y274897D01*
X597300Y274842D01*
X597023Y274828D01*
X594526D01*
X594457Y274856D01*
X594416Y274883D01*
X594374Y274911D01*
X594360Y274967D01*
X594346Y275036D01*
Y281027D01*
Y281041D01*
Y281055D01*
X594374Y281138D01*
X594402Y281166D01*
X594429Y281208D01*
X594485Y281221D01*
X594554Y281235D01*
X597147D01*
X597286Y281208D01*
D02*
G37*
G36*
X499788D02*
X499954Y281180D01*
X500162Y281138D01*
X500356Y281055D01*
X500550Y280958D01*
X500731Y280819D01*
X500745Y280805D01*
X500800Y280736D01*
X500869Y280653D01*
X500953Y280514D01*
X501022Y280348D01*
X501091Y280140D01*
X501147Y279904D01*
X501161Y279627D01*
Y279127D01*
Y279113D01*
Y279086D01*
Y279044D01*
X501147Y278988D01*
X501119Y278850D01*
X501064Y278669D01*
X500966Y278489D01*
X500911Y278392D01*
X500828Y278309D01*
X500731Y278226D01*
X500634Y278156D01*
X500509Y278087D01*
X500370Y278032D01*
X500384D01*
X500398Y278018D01*
X500439Y278004D01*
X500495Y277990D01*
X500620Y277934D01*
X500772Y277837D01*
X500911Y277699D01*
X500980Y277602D01*
X501036Y277505D01*
X501091Y277394D01*
X501133Y277255D01*
X501147Y277116D01*
X501161Y276950D01*
Y276437D01*
Y276423D01*
Y276409D01*
Y276367D01*
Y276312D01*
X501133Y276173D01*
X501105Y275993D01*
X501050Y275799D01*
X500980Y275605D01*
X500869Y275410D01*
X500731Y275244D01*
X500717Y275230D01*
X500648Y275175D01*
X500550Y275119D01*
X500412Y275036D01*
X500245Y274967D01*
X500037Y274897D01*
X499788Y274842D01*
X499510Y274828D01*
X498553D01*
X498498Y274842D01*
X498345Y274856D01*
X498179Y274883D01*
X497971Y274925D01*
X497777Y275008D01*
X497583Y275105D01*
X497402Y275244D01*
X497388Y275258D01*
X497333Y275327D01*
X497264Y275410D01*
X497194Y275549D01*
X497111Y275716D01*
X497042Y275924D01*
X496986Y276159D01*
X496972Y276437D01*
Y276714D01*
Y276728D01*
Y276756D01*
X497000Y276825D01*
X497028Y276867D01*
X497056Y276908D01*
X497111Y276922D01*
X497180Y276936D01*
X498068D01*
X498137Y276908D01*
X498179Y276880D01*
X498220Y276839D01*
X498234Y276783D01*
X498248Y276714D01*
Y276465D01*
Y276451D01*
Y276409D01*
X498262Y276353D01*
Y276284D01*
X498304Y276132D01*
X498331Y276062D01*
X498373Y276007D01*
X498401Y275993D01*
X498429Y275965D01*
X498470Y275951D01*
X498540Y275924D01*
X498609Y275896D01*
X498706Y275882D01*
X499358D01*
X499413Y275896D01*
X499483D01*
X499649Y275938D01*
X499718Y275965D01*
X499774Y276007D01*
X499788Y276021D01*
X499801Y276035D01*
X499829Y276062D01*
X499857Y276118D01*
X499885Y276173D01*
X499899Y276256D01*
X499926Y276353D01*
Y276465D01*
Y276950D01*
Y276964D01*
Y277005D01*
X499912Y277061D01*
Y277116D01*
X499857Y277269D01*
X499829Y277338D01*
X499774Y277394D01*
X499746Y277421D01*
X499718Y277435D01*
X499663Y277463D01*
X499594Y277491D01*
X499510Y277505D01*
X499413Y277532D01*
X498761D01*
X498692Y277560D01*
X498651Y277588D01*
X498609Y277616D01*
X498595Y277671D01*
X498581Y277740D01*
Y278337D01*
Y278351D01*
Y278378D01*
X498609Y278448D01*
X498637Y278489D01*
X498664Y278531D01*
X498720Y278545D01*
X498789Y278559D01*
X499358D01*
X499413Y278573D01*
X499483D01*
X499649Y278614D01*
X499718Y278642D01*
X499774Y278683D01*
X499788Y278697D01*
X499801Y278711D01*
X499829Y278739D01*
X499857Y278794D01*
X499885Y278850D01*
X499899Y278933D01*
X499926Y279030D01*
Y279141D01*
Y279599D01*
Y279613D01*
Y279654D01*
X499912Y279710D01*
Y279779D01*
X499857Y279918D01*
X499829Y279987D01*
X499774Y280042D01*
X499746Y280070D01*
X499718Y280084D01*
X499663Y280112D01*
X499594Y280140D01*
X499510Y280154D01*
X499413Y280181D01*
X498706D01*
X498637Y280167D01*
X498498Y280126D01*
X498429Y280084D01*
X498373Y280042D01*
X498359Y280015D01*
X498331Y279987D01*
X498318Y279945D01*
X498290Y279876D01*
X498262Y279807D01*
X498248Y279710D01*
Y279599D01*
Y279349D01*
Y279335D01*
Y279321D01*
X498220Y279252D01*
X498193Y279210D01*
X498151Y279169D01*
X498096Y279155D01*
X498026Y279141D01*
X497153D01*
X497083Y279169D01*
X497042Y279196D01*
X497000Y279224D01*
X496986Y279280D01*
X496972Y279349D01*
Y279627D01*
Y279640D01*
Y279654D01*
Y279696D01*
X496986Y279751D01*
X497000Y279890D01*
X497028Y280070D01*
X497083Y280264D01*
X497153Y280459D01*
X497264Y280653D01*
X497402Y280819D01*
X497416Y280833D01*
X497486Y280889D01*
X497583Y280958D01*
X497721Y281027D01*
X497888Y281110D01*
X498096Y281166D01*
X498345Y281221D01*
X498623Y281235D01*
X499635D01*
X499788Y281208D01*
D02*
G37*
G36*
X494670D02*
X494851Y281180D01*
X495045Y281124D01*
X495239Y281055D01*
X495433Y280944D01*
X495613Y280805D01*
X495627Y280791D01*
X495683Y280722D01*
X495752Y280639D01*
X495835Y280500D01*
X495918Y280334D01*
X495988Y280126D01*
X496043Y279890D01*
X496057Y279613D01*
Y276451D01*
Y276437D01*
Y276423D01*
Y276381D01*
Y276326D01*
X496029Y276187D01*
X496002Y276007D01*
X495946Y275813D01*
X495877Y275618D01*
X495766Y275424D01*
X495613Y275244D01*
X495599Y275230D01*
X495530Y275175D01*
X495433Y275119D01*
X495308Y275036D01*
X495128Y274967D01*
X494920Y274897D01*
X494684Y274842D01*
X494407Y274828D01*
X491910D01*
X491841Y274856D01*
X491800Y274883D01*
X491758Y274911D01*
X491744Y274967D01*
X491730Y275036D01*
Y281027D01*
Y281041D01*
Y281055D01*
X491758Y281138D01*
X491786Y281166D01*
X491813Y281208D01*
X491869Y281221D01*
X491938Y281235D01*
X494532D01*
X494670Y281208D01*
D02*
G37*
G36*
X396321D02*
X396349Y281180D01*
X396391Y281152D01*
X396404Y281096D01*
X396418Y281027D01*
Y275036D01*
Y275022D01*
Y274967D01*
X396404Y274911D01*
X396377Y274870D01*
X396363D01*
X396349Y274856D01*
X396294Y274842D01*
X396224Y274828D01*
X395337D01*
X395267Y274856D01*
X395226Y274883D01*
X395184Y274911D01*
X395170Y274967D01*
X395156Y275036D01*
Y279890D01*
X394172Y279335D01*
X394158D01*
X394144Y279321D01*
X394033D01*
X393991Y279349D01*
X393978Y279391D01*
X393964Y279460D01*
Y280278D01*
Y280292D01*
Y280306D01*
X393978Y280375D01*
X394033Y280459D01*
X394061Y280500D01*
X394116Y280528D01*
X395018Y281096D01*
X395032D01*
X395059Y281124D01*
X395101Y281138D01*
X395156Y281166D01*
X395281Y281208D01*
X395406Y281235D01*
X396238D01*
X396321Y281208D01*
D02*
G37*
G36*
X391800D02*
X391981Y281180D01*
X392175Y281124D01*
X392369Y281055D01*
X392563Y280944D01*
X392743Y280805D01*
X392757Y280791D01*
X392813Y280722D01*
X392882Y280639D01*
X392965Y280500D01*
X393048Y280334D01*
X393118Y280126D01*
X393173Y279890D01*
X393187Y279613D01*
Y276451D01*
Y276437D01*
Y276423D01*
Y276381D01*
Y276326D01*
X393159Y276187D01*
X393132Y276007D01*
X393076Y275813D01*
X393007Y275618D01*
X392896Y275424D01*
X392743Y275244D01*
X392729Y275230D01*
X392660Y275175D01*
X392563Y275119D01*
X392438Y275036D01*
X392258Y274967D01*
X392050Y274897D01*
X391814Y274842D01*
X391537Y274828D01*
X389040D01*
X388971Y274856D01*
X388929Y274883D01*
X388888Y274911D01*
X388874Y274967D01*
X388860Y275036D01*
Y281027D01*
Y281041D01*
Y281055D01*
X388888Y281138D01*
X388916Y281166D01*
X388943Y281208D01*
X388999Y281221D01*
X389068Y281235D01*
X391661D01*
X391800Y281208D01*
D02*
G37*
%LPC*%
G36*
X591200Y162108D02*
X589994D01*
X589952Y162094D01*
X589910Y162066D01*
X589896Y161997D01*
Y158003D01*
Y157989D01*
X589910Y157948D01*
X589938Y157906D01*
X590007Y157892D01*
X591145D01*
X591200Y157906D01*
X591269D01*
X591422Y157948D01*
X591491Y157975D01*
X591547Y158017D01*
Y158031D01*
X591575Y158045D01*
X591588Y158072D01*
X591616Y158128D01*
X591644Y158183D01*
X591658Y158266D01*
X591685Y158364D01*
Y158475D01*
Y161525D01*
Y161539D01*
Y161581D01*
Y161637D01*
X591672Y161706D01*
X591630Y161845D01*
X591588Y161914D01*
X591547Y161969D01*
X591519Y161997D01*
X591491Y162011D01*
X591436Y162039D01*
X591380Y162066D01*
X591297Y162080D01*
X591200Y162108D01*
D02*
G37*
G36*
X523229Y161773D02*
X522022D01*
X521980Y161760D01*
X521939Y161732D01*
X521925Y161663D01*
Y157668D01*
Y157654D01*
X521939Y157613D01*
X521967Y157571D01*
X522036Y157557D01*
X523173D01*
X523229Y157571D01*
X523298D01*
X523451Y157613D01*
X523520Y157641D01*
X523575Y157682D01*
Y157696D01*
X523603Y157710D01*
X523617Y157738D01*
X523645Y157793D01*
X523672Y157849D01*
X523686Y157932D01*
X523714Y158029D01*
Y158140D01*
Y161191D01*
Y161205D01*
Y161246D01*
Y161302D01*
X523700Y161371D01*
X523658Y161510D01*
X523617Y161579D01*
X523575Y161635D01*
X523548Y161663D01*
X523520Y161676D01*
X523464Y161704D01*
X523409Y161732D01*
X523326Y161746D01*
X523229Y161773D01*
D02*
G37*
G36*
X463044Y162108D02*
X462254D01*
X462184Y162094D01*
X462046Y162052D01*
X461976Y162011D01*
X461921Y161969D01*
X461907Y161942D01*
X461879Y161914D01*
X461865Y161872D01*
X461838Y161803D01*
X461810Y161734D01*
X461796Y161637D01*
Y161525D01*
Y160749D01*
Y160735D01*
Y160693D01*
X461810Y160652D01*
Y160583D01*
X461851Y160430D01*
X461879Y160361D01*
X461921Y160305D01*
X461949Y160291D01*
X461976Y160264D01*
X462018Y160250D01*
X462087Y160222D01*
X462156Y160194D01*
X462254Y160180D01*
X463530D01*
Y161525D01*
Y161539D01*
Y161581D01*
Y161637D01*
X463516Y161706D01*
X463474Y161845D01*
X463432Y161914D01*
X463391Y161969D01*
X463363Y161997D01*
X463335Y162011D01*
X463280Y162039D01*
X463224Y162066D01*
X463141Y162080D01*
X463044Y162108D01*
D02*
G37*
G36*
X457788D02*
X456581D01*
X456540Y162094D01*
X456498Y162066D01*
X456484Y161997D01*
Y158003D01*
Y157989D01*
X456498Y157948D01*
X456526Y157906D01*
X456595Y157892D01*
X457733D01*
X457788Y157906D01*
X457857D01*
X458010Y157948D01*
X458079Y157975D01*
X458135Y158017D01*
Y158031D01*
X458162Y158045D01*
X458176Y158072D01*
X458204Y158128D01*
X458232Y158183D01*
X458246Y158266D01*
X458273Y158364D01*
Y158475D01*
Y161525D01*
Y161539D01*
Y161581D01*
Y161637D01*
X458260Y161706D01*
X458218Y161845D01*
X458176Y161914D01*
X458135Y161969D01*
X458107Y161997D01*
X458079Y162011D01*
X458024Y162039D01*
X457968Y162066D01*
X457885Y162080D01*
X457788Y162108D01*
D02*
G37*
G36*
X388093D02*
X386887D01*
X386845Y162094D01*
X386803Y162066D01*
X386790Y161997D01*
Y158003D01*
Y157989D01*
X386803Y157948D01*
X386831Y157906D01*
X386900Y157892D01*
X388038D01*
X388093Y157906D01*
X388162D01*
X388315Y157948D01*
X388384Y157975D01*
X388440Y158017D01*
Y158031D01*
X388467Y158045D01*
X388481Y158072D01*
X388509Y158128D01*
X388537Y158183D01*
X388551Y158266D01*
X388578Y158364D01*
Y158475D01*
Y161525D01*
Y161539D01*
Y161581D01*
Y161637D01*
X388565Y161706D01*
X388523Y161845D01*
X388481Y161914D01*
X388440Y161969D01*
X388412Y161997D01*
X388384Y162011D01*
X388329Y162039D01*
X388273Y162066D01*
X388190Y162080D01*
X388093Y162108D01*
D02*
G37*
G36*
X596926Y280140D02*
X595719D01*
X595677Y280126D01*
X595636Y280098D01*
X595622Y280029D01*
Y276035D01*
Y276021D01*
X595636Y275979D01*
X595664Y275938D01*
X595733Y275924D01*
X596870D01*
X596926Y275938D01*
X596995D01*
X597147Y275979D01*
X597217Y276007D01*
X597272Y276048D01*
Y276062D01*
X597300Y276076D01*
X597314Y276104D01*
X597342Y276159D01*
X597369Y276215D01*
X597383Y276298D01*
X597411Y276395D01*
Y276506D01*
Y279557D01*
Y279571D01*
Y279613D01*
Y279668D01*
X597397Y279737D01*
X597356Y279876D01*
X597314Y279945D01*
X597272Y280001D01*
X597245Y280029D01*
X597217Y280042D01*
X597161Y280070D01*
X597106Y280098D01*
X597023Y280112D01*
X596926Y280140D01*
D02*
G37*
G36*
X494310D02*
X493103D01*
X493061Y280126D01*
X493020Y280098D01*
X493006Y280029D01*
Y276035D01*
Y276021D01*
X493020Y275979D01*
X493048Y275938D01*
X493117Y275924D01*
X494254D01*
X494310Y275938D01*
X494379D01*
X494532Y275979D01*
X494601Y276007D01*
X494656Y276048D01*
Y276062D01*
X494684Y276076D01*
X494698Y276104D01*
X494726Y276159D01*
X494753Y276215D01*
X494767Y276298D01*
X494795Y276395D01*
Y276506D01*
Y279557D01*
Y279571D01*
Y279613D01*
Y279668D01*
X494781Y279737D01*
X494740Y279876D01*
X494698Y279945D01*
X494656Y280001D01*
X494629Y280029D01*
X494601Y280042D01*
X494545Y280070D01*
X494490Y280098D01*
X494407Y280112D01*
X494310Y280140D01*
D02*
G37*
G36*
X391440D02*
X390233D01*
X390191Y280126D01*
X390150Y280098D01*
X390136Y280029D01*
Y276035D01*
Y276021D01*
X390150Y275979D01*
X390178Y275938D01*
X390247Y275924D01*
X391384D01*
X391440Y275938D01*
X391509D01*
X391661Y275979D01*
X391731Y276007D01*
X391786Y276048D01*
Y276062D01*
X391814Y276076D01*
X391828Y276104D01*
X391856Y276159D01*
X391883Y276215D01*
X391897Y276298D01*
X391925Y276395D01*
Y276506D01*
Y279557D01*
Y279571D01*
Y279613D01*
Y279668D01*
X391911Y279737D01*
X391870Y279876D01*
X391828Y279945D01*
X391786Y280001D01*
X391759Y280029D01*
X391731Y280042D01*
X391675Y280070D01*
X391620Y280098D01*
X391537Y280112D01*
X391440Y280140D01*
D02*
G37*
%LPD*%
D10*
X631656Y110128D02*
G03*
X631656Y110128I-500J0D01*
G01*
X563156Y110128D02*
G03*
X563156Y110128I-500J0D01*
G01*
X494656D02*
G03*
X494656Y110128I-500J0D01*
G01*
X426156Y110128D02*
G03*
X426156Y110128I-500J0D01*
G01*
X528906Y227203D02*
G03*
X528906Y227203I-500J0D01*
G01*
X426156Y227203D02*
G03*
X426156Y227203I-500J0D01*
G01*
X631656D02*
G03*
X631656Y227203I-500J0D01*
G01*
D11*
X694656Y225453D02*
X702656D01*
X694656Y240953D02*
X702656D01*
X711000Y112250D02*
X719000D01*
X711000Y127750D02*
X719000D01*
M02*
