G04*
G04 #@! TF.GenerationSoftware,Altium Limited,Altium Designer,22.11.1 (43)*
G04*
G04 Layer_Color=8388736*
%FSLAX44Y44*%
%MOMM*%
G71*
G04*
G04 #@! TF.SameCoordinates,022B600F-6A39-489C-B13A-5D3FAA6F7639*
G04*
G04*
G04 #@! TF.FilePolarity,Negative*
G04*
G01*
G75*
G04:AMPARAMS|DCode=12|XSize=0.8532mm|YSize=3.6532mm|CornerRadius=0.2641mm|HoleSize=0mm|Usage=FLASHONLY|Rotation=0.000|XOffset=0mm|YOffset=0mm|HoleType=Round|Shape=RoundedRectangle|*
%AMROUNDEDRECTD12*
21,1,0.8532,3.1250,0,0,0.0*
21,1,0.3250,3.6532,0,0,0.0*
1,1,0.5282,0.1625,-1.5625*
1,1,0.5282,-0.1625,-1.5625*
1,1,0.5282,-0.1625,1.5625*
1,1,0.5282,0.1625,1.5625*
%
%ADD12ROUNDEDRECTD12*%
%ADD13C,2.2032*%
G04:AMPARAMS|DCode=14|XSize=2.2032mm|YSize=2.2032mm|CornerRadius=0.6016mm|HoleSize=0mm|Usage=FLASHONLY|Rotation=180.000|XOffset=0mm|YOffset=0mm|HoleType=Round|Shape=RoundedRectangle|*
%AMROUNDEDRECTD14*
21,1,2.2032,1.0000,0,0,180.0*
21,1,1.0000,2.2032,0,0,180.0*
1,1,1.2032,-0.5000,0.5000*
1,1,1.2032,0.5000,0.5000*
1,1,1.2032,0.5000,-0.5000*
1,1,1.2032,-0.5000,-0.5000*
%
%ADD14ROUNDEDRECTD14*%
%ADD15C,2.0032*%
D12*
X675000Y400000D02*
D03*
X647060D02*
D03*
X802940Y450000D02*
D03*
X775000D02*
D03*
X688970Y500000D02*
D03*
X661030D02*
D03*
X553970Y400000D02*
D03*
X526030D02*
D03*
X425000Y500000D02*
D03*
X397060D02*
D03*
X438970Y400000D02*
D03*
X411030D02*
D03*
X328970Y460000D02*
D03*
X301030D02*
D03*
D13*
X167500Y364925D02*
D03*
X142500D02*
D03*
X192500D02*
D03*
D14*
X117500D02*
D03*
D15*
X117570Y295075D02*
D03*
X192500D02*
D03*
M02*
