G04*
G04 #@! TF.GenerationSoftware,Altium Limited,Altium Designer,23.6.0 (18)*
G04*
G04 Layer_Physical_Order=1*
G04 Layer_Color=255*
%FSLAX44Y44*%
%MOMM*%
G71*
G04*
G04 #@! TF.SameCoordinates,8711EDFB-AC5A-492D-8E97-C1405DB26330*
G04*
G04*
G04 #@! TF.FilePolarity,Positive*
G04*
G01*
G75*
G04:AMPARAMS|DCode=12|XSize=1.3mm|YSize=4.3mm|CornerRadius=0.325mm|HoleSize=0mm|Usage=FLASHONLY|Rotation=180.000|XOffset=0mm|YOffset=0mm|HoleType=Round|Shape=RoundedRectangle|*
%AMROUNDEDRECTD12*
21,1,1.3000,3.6500,0,0,180.0*
21,1,0.6500,4.3000,0,0,180.0*
1,1,0.6500,-0.3250,1.8250*
1,1,0.6500,0.3250,1.8250*
1,1,0.6500,0.3250,-1.8250*
1,1,0.6500,-0.3250,-1.8250*
%
%ADD12ROUNDEDRECTD12*%
G04:AMPARAMS|DCode=13|XSize=0.8mm|YSize=3.45mm|CornerRadius=0.2mm|HoleSize=0mm|Usage=FLASHONLY|Rotation=180.000|XOffset=0mm|YOffset=0mm|HoleType=Round|Shape=RoundedRectangle|*
%AMROUNDEDRECTD13*
21,1,0.8000,3.0500,0,0,180.0*
21,1,0.4000,3.4500,0,0,180.0*
1,1,0.4000,-0.2000,1.5250*
1,1,0.4000,0.2000,1.5250*
1,1,0.4000,0.2000,-1.5250*
1,1,0.4000,-0.2000,-1.5250*
%
%ADD13ROUNDEDRECTD13*%
G04:AMPARAMS|DCode=14|XSize=1.75mm|YSize=1.25mm|CornerRadius=0.3125mm|HoleSize=0mm|Usage=FLASHONLY|Rotation=270.000|XOffset=0mm|YOffset=0mm|HoleType=Round|Shape=RoundedRectangle|*
%AMROUNDEDRECTD14*
21,1,1.7500,0.6250,0,0,270.0*
21,1,1.1250,1.2500,0,0,270.0*
1,1,0.6250,-0.3125,-0.5625*
1,1,0.6250,-0.3125,0.5625*
1,1,0.6250,0.3125,0.5625*
1,1,0.6250,0.3125,-0.5625*
%
%ADD14ROUNDEDRECTD14*%
%ADD15C,1.0000*%
%ADD16C,7.0000*%
%ADD17C,2.0000*%
G04:AMPARAMS|DCode=18|XSize=2mm|YSize=2mm|CornerRadius=0.5mm|HoleSize=0mm|Usage=FLASHONLY|Rotation=180.000|XOffset=0mm|YOffset=0mm|HoleType=Round|Shape=RoundedRectangle|*
%AMROUNDEDRECTD18*
21,1,2.0000,1.0000,0,0,180.0*
21,1,1.0000,2.0000,0,0,180.0*
1,1,1.0000,-0.5000,0.5000*
1,1,1.0000,0.5000,0.5000*
1,1,1.0000,0.5000,-0.5000*
1,1,1.0000,-0.5000,-0.5000*
%
%ADD18ROUNDEDRECTD18*%
%ADD19C,1.8000*%
%ADD20C,0.7000*%
G36*
X649869Y246383D02*
X686949D01*
X690259Y243072D01*
Y240026D01*
X690104Y230731D01*
X689187Y229853D01*
X687519Y229896D01*
X687694Y229465D01*
X673228Y215000D01*
X652623D01*
X649765Y220096D01*
Y225235D01*
X650459Y225928D01*
X666629D01*
X670662Y229961D01*
X638613D01*
X638480Y229829D01*
X626694Y241615D01*
Y253666D01*
Y261479D01*
X634508D01*
X634640Y261612D01*
X649869Y246383D01*
D02*
G37*
G36*
X603391Y269108D02*
Y227044D01*
X599855Y223508D01*
Y223386D01*
X525237D01*
X522311Y226313D01*
Y267601D01*
X522266Y267646D01*
X525499Y273443D01*
X599056D01*
X603391Y269108D01*
D02*
G37*
G36*
X501548Y268868D02*
Y226804D01*
X498012Y223268D01*
Y223146D01*
X423394D01*
X420468Y226073D01*
Y267361D01*
X420423Y267406D01*
X423656Y273203D01*
X497213D01*
X501548Y268868D01*
D02*
G37*
G36*
X633656Y213203D02*
Y203203D01*
D01*
Y175496D01*
X633667D01*
Y165496D01*
X618667Y142440D01*
X611240Y141505D01*
X606021Y157165D01*
X556884D01*
X550859Y146735D01*
X545990Y142531D01*
X544739Y142748D01*
X541830Y147893D01*
X535967Y157165D01*
X486212Y157164D01*
X482699Y148923D01*
X480750Y144352D01*
X474660Y144651D01*
X471313Y147169D01*
X466463Y157164D01*
X417267D01*
X411512Y140417D01*
X410367Y139868D01*
X403339Y142399D01*
X388339Y165623D01*
Y175623D01*
X388656D01*
Y203203D01*
X388707Y203254D01*
Y211657D01*
X404998Y235558D01*
X413037D01*
X417183Y218203D01*
X499679D01*
X506898Y230634D01*
X512071Y234371D01*
X516026Y232656D01*
X523527Y218203D01*
X604899D01*
X612164Y240000D01*
X613558D01*
X633656Y213203D01*
D02*
G37*
G36*
X695212Y129788D02*
X708804D01*
X709807Y128785D01*
Y111232D01*
X707467Y108892D01*
X631573D01*
Y110229D01*
X626057Y115746D01*
Y129788D01*
X630904Y134635D01*
Y136474D01*
X643609D01*
X656481Y123603D01*
X672367D01*
X665000Y135000D01*
X665000Y140000D01*
X670000Y145000D01*
X680000D01*
X695212Y129788D01*
D02*
G37*
G36*
X603432Y150796D02*
Y108335D01*
X599687Y104590D01*
X561375D01*
X555975Y109991D01*
Y151514D01*
X556544Y152499D01*
X559638Y154590D01*
X599638D01*
X603432Y150796D01*
D02*
G37*
G36*
X535822Y150514D02*
Y108053D01*
X532077Y104308D01*
X493765D01*
X488364Y109709D01*
Y151832D01*
X492028Y154308D01*
X532028D01*
X535822Y150514D01*
D02*
G37*
G36*
X467450Y149409D02*
Y106948D01*
X463705Y103203D01*
X425393D01*
X419993Y108603D01*
Y150727D01*
X423656Y153203D01*
X463656D01*
X467450Y149409D01*
D02*
G37*
D12*
X614156Y131128D02*
D03*
X545656Y131128D02*
D03*
X477156D02*
D03*
X408656Y131128D02*
D03*
X511406Y248203D02*
D03*
X408656Y248203D02*
D03*
X614156D02*
D03*
D13*
X598656Y131128D02*
D03*
X629656D02*
D03*
X530156Y131128D02*
D03*
X561156D02*
D03*
X461656D02*
D03*
X492656D02*
D03*
X393156Y131128D02*
D03*
X424156D02*
D03*
X495906Y248203D02*
D03*
X526906D02*
D03*
X393156Y248203D02*
D03*
X424156D02*
D03*
X598656D02*
D03*
X629656D02*
D03*
D14*
X712906Y233203D02*
D03*
X684406D02*
D03*
X729250Y120000D02*
D03*
X700750D02*
D03*
D15*
X252811Y95000D02*
X717929D01*
X205000Y142811D02*
Y230000D01*
Y142811D02*
X252811Y95000D01*
X730885Y107956D02*
Y116694D01*
X717929Y95000D02*
X730885Y107956D01*
X345000Y125000D02*
X360000Y140000D01*
X375832Y115000D02*
X391508Y130676D01*
X355000Y115000D02*
X375832D01*
X345000Y125000D02*
X355000Y115000D01*
X290000Y125000D02*
X345000D01*
X326203Y170000D02*
X366203Y210000D01*
X393156Y236953D01*
X358656Y215858D02*
X364514Y210000D01*
X358656Y215858D02*
Y233203D01*
X364514Y210000D02*
X366203D01*
X311495Y212556D02*
X312556Y213616D01*
Y237556D01*
X368203Y293203D01*
X245000Y170000D02*
X326203D01*
X205000Y230000D02*
X215000Y240000D01*
X259051D02*
X286495Y212556D01*
X215000Y240000D02*
X259051D01*
X368203Y293203D02*
X655406D01*
X245000Y170000D02*
X290000Y125000D01*
X236495Y178505D02*
X245000Y170000D01*
X236495Y178505D02*
Y212556D01*
X655406Y293203D02*
X712906Y235703D01*
Y233203D02*
Y235703D01*
X393156Y236953D02*
Y248203D01*
D16*
X158656Y158203D02*
D03*
X838904Y161350D02*
D03*
D17*
X286495Y212556D02*
D03*
X261495D02*
D03*
X311495D02*
D03*
D18*
X236495D02*
D03*
D19*
X236565Y142706D02*
D03*
X311495D02*
D03*
D20*
X138656Y178203D02*
D03*
X131156Y158203D02*
D03*
X138656Y138203D02*
D03*
X158656Y130703D02*
D03*
X178656Y138203D02*
D03*
X186156Y158203D02*
D03*
X178656Y178203D02*
D03*
X158656Y185703D02*
D03*
X675000Y140000D02*
D03*
X655000Y220000D02*
D03*
X601353Y168203D02*
D03*
X619050D02*
D03*
X406687D02*
D03*
X442081D02*
D03*
X424384D02*
D03*
X477475D02*
D03*
X512868D02*
D03*
X495171D02*
D03*
X459777D02*
D03*
X548262D02*
D03*
X583656D02*
D03*
X565959D02*
D03*
X530565D02*
D03*
X619050Y188203D02*
D03*
X601353D02*
D03*
Y208203D02*
D03*
X619050D02*
D03*
X406687D02*
D03*
X442081D02*
D03*
X424384D02*
D03*
Y188203D02*
D03*
X442081D02*
D03*
X406687D02*
D03*
X477475Y208203D02*
D03*
X512868D02*
D03*
X495171D02*
D03*
X459777D02*
D03*
Y188203D02*
D03*
X495171D02*
D03*
X512868D02*
D03*
X477475D02*
D03*
X548262Y208203D02*
D03*
X583656D02*
D03*
X565959D02*
D03*
X530565D02*
D03*
Y188203D02*
D03*
X565959D02*
D03*
X583656D02*
D03*
X548262D02*
D03*
X360000Y140000D02*
D03*
X358656Y233203D02*
D03*
X838904Y188850D02*
D03*
X858904Y181350D02*
D03*
X866404Y161350D02*
D03*
X858904Y141350D02*
D03*
X838904Y133850D02*
D03*
X818904Y141350D02*
D03*
X811404Y161350D02*
D03*
X818904Y181350D02*
D03*
M02*
