G04*
G04 #@! TF.GenerationSoftware,Altium Limited,Altium Designer,22.11.1 (43)*
G04*
G04 Layer_Color=5220458*
%FSLAX44Y44*%
%MOMM*%
G71*
G04*
G04 #@! TF.SameCoordinates,022B600F-6A39-489C-B13A-5D3FAA6F7639*
G04*
G04*
G04 #@! TF.FilePolarity,Positive*
G04*
G01*
G75*
%ADD10C,0.1000*%
%ADD20C,0.2000*%
G36*
X212358Y268176D02*
X212483Y268134D01*
X212538Y268106D01*
X212580Y268093D01*
X212608Y268065D01*
X212622D01*
X213523Y267496D01*
X213578Y267469D01*
X213606Y267427D01*
X213662Y267344D01*
X213676Y267274D01*
Y267261D01*
Y267247D01*
Y266428D01*
X213662Y266359D01*
X213648Y266318D01*
X213606Y266290D01*
X213495D01*
X213481Y266304D01*
X213468D01*
X212483Y266858D01*
Y262004D01*
X212469Y261935D01*
X212455Y261880D01*
X212414Y261852D01*
X212372Y261824D01*
X212303Y261796D01*
X211415D01*
X211346Y261810D01*
X211290Y261824D01*
X211276Y261838D01*
X211262D01*
X211235Y261880D01*
X211221Y261935D01*
Y261991D01*
Y262004D01*
Y267996D01*
X211235Y268065D01*
X211249Y268120D01*
X211290Y268148D01*
X211318Y268176D01*
X211401Y268204D01*
X212233D01*
X212358Y268176D01*
D02*
G37*
G36*
X215617Y268190D02*
X215673Y268176D01*
X215714Y268134D01*
X215742Y268106D01*
X215770Y268023D01*
Y268009D01*
Y267996D01*
Y263475D01*
Y263363D01*
X215797Y263267D01*
X215811Y263183D01*
X215839Y263128D01*
X215867Y263072D01*
X215881Y263045D01*
X215908Y263031D01*
Y263017D01*
X215964Y262975D01*
X216033Y262948D01*
X216172Y262906D01*
X216241D01*
X216297Y262892D01*
X217046D01*
X217143Y262906D01*
X217226Y262934D01*
X217281Y262961D01*
X217337Y262975D01*
X217365Y263003D01*
X217378Y263017D01*
X217392D01*
X217434Y263072D01*
X217462Y263142D01*
X217503Y263294D01*
Y263363D01*
X217517Y263419D01*
Y263461D01*
Y263475D01*
Y264362D01*
X217531Y264431D01*
X217545Y264487D01*
X217586Y264515D01*
X217614Y264542D01*
X217697Y264570D01*
X218571D01*
X218640Y264556D01*
X218696Y264542D01*
X218724Y264501D01*
X218751Y264473D01*
X218779Y264390D01*
Y264376D01*
Y264362D01*
Y263419D01*
X218765Y263142D01*
X218710Y262892D01*
X218640Y262684D01*
X218571Y262518D01*
X218488Y262393D01*
X218432Y262296D01*
X218377Y262226D01*
X218363Y262213D01*
X218183Y262074D01*
X217989Y261977D01*
X217794Y261894D01*
X217586Y261852D01*
X217420Y261824D01*
X217267Y261810D01*
X217212Y261796D01*
X216144D01*
X215867Y261810D01*
X215617Y261866D01*
X215409Y261935D01*
X215243Y262004D01*
X215104Y262088D01*
X215021Y262143D01*
X214951Y262199D01*
X214938Y262213D01*
X214799Y262393D01*
X214688Y262587D01*
X214619Y262781D01*
X214563Y262975D01*
X214535Y263155D01*
X214508Y263294D01*
Y263350D01*
Y263391D01*
Y263405D01*
Y263419D01*
Y268009D01*
X214522Y268079D01*
X214535Y268120D01*
X214605Y268176D01*
X214688Y268204D01*
X215548D01*
X215617Y268190D01*
D02*
G37*
G36*
X328365Y491265D02*
X328490Y491224D01*
X328545Y491196D01*
X328587Y491182D01*
X328614Y491155D01*
X328628D01*
X329530Y490586D01*
X329585Y490558D01*
X329613Y490517D01*
X329668Y490433D01*
X329682Y490364D01*
Y490350D01*
Y490336D01*
Y489518D01*
X329668Y489449D01*
X329655Y489407D01*
X329613Y489379D01*
X329502D01*
X329488Y489393D01*
X329474D01*
X328490Y489948D01*
Y485094D01*
X328476Y485025D01*
X328462Y484969D01*
X328420Y484941D01*
X328379Y484914D01*
X328309Y484886D01*
X327422D01*
X327352Y484900D01*
X327297Y484914D01*
X327283Y484928D01*
X327269D01*
X327242Y484969D01*
X327228Y485025D01*
Y485080D01*
Y485094D01*
Y491085D01*
X327242Y491155D01*
X327255Y491210D01*
X327297Y491238D01*
X327325Y491265D01*
X327408Y491293D01*
X328240D01*
X328365Y491265D01*
D02*
G37*
G36*
X334647Y491279D02*
X334703Y491265D01*
X334730Y491224D01*
X334758Y491196D01*
X334786Y491113D01*
Y491099D01*
Y491085D01*
Y485094D01*
X334772Y485025D01*
X334758Y484969D01*
X334716Y484941D01*
X334675Y484914D01*
X334606Y484886D01*
X332109D01*
X331832Y484900D01*
X331596Y484955D01*
X331388Y485025D01*
X331208Y485094D01*
X331083Y485177D01*
X330986Y485233D01*
X330917Y485288D01*
X330903Y485302D01*
X330750Y485482D01*
X330639Y485676D01*
X330570Y485871D01*
X330514Y486065D01*
X330487Y486245D01*
X330459Y486384D01*
Y486439D01*
Y486481D01*
Y486495D01*
Y486509D01*
Y489671D01*
X330473Y489948D01*
X330528Y490184D01*
X330598Y490392D01*
X330681Y490558D01*
X330764Y490697D01*
X330833Y490780D01*
X330889Y490849D01*
X330903Y490863D01*
X331083Y491002D01*
X331277Y491113D01*
X331471Y491182D01*
X331665Y491238D01*
X331846Y491265D01*
X331984Y491293D01*
X334578D01*
X334647Y491279D01*
D02*
G37*
G36*
X323844D02*
X323913Y491265D01*
X323969Y491238D01*
X323982Y491224D01*
X324052Y491168D01*
X324107Y491085D01*
X324149Y491016D01*
X324163Y491002D01*
Y490988D01*
X326160Y487299D01*
X326215Y487146D01*
X326243Y486980D01*
X326257Y486911D01*
Y486855D01*
Y486814D01*
Y486800D01*
Y486412D01*
X326243Y486301D01*
X326201Y486217D01*
X326174Y486162D01*
X326160Y486148D01*
X326063Y486093D01*
X325979Y486065D01*
X325910Y486051D01*
X323414D01*
Y485094D01*
X323400Y485025D01*
X323372Y484969D01*
X323344Y484941D01*
X323303Y484914D01*
X323220Y484886D01*
X322415D01*
X322346Y484900D01*
X322290Y484914D01*
X322277Y484928D01*
X322263D01*
X322235Y484969D01*
X322221Y485025D01*
Y485080D01*
Y485094D01*
Y486051D01*
X321500D01*
X321431Y486065D01*
X321389Y486093D01*
X321334Y486162D01*
X321306Y486245D01*
Y486259D01*
Y486273D01*
Y486952D01*
X321320Y487022D01*
X321334Y487063D01*
X321403Y487119D01*
X321472Y487146D01*
X322221D01*
Y490933D01*
X322235Y491044D01*
X322277Y491127D01*
X322318Y491182D01*
X322332Y491196D01*
X322415Y491252D01*
X322499Y491279D01*
X322568Y491293D01*
X323733D01*
X323844Y491279D01*
D02*
G37*
G36*
X424377Y531143D02*
X424502Y531102D01*
X424557Y531074D01*
X424599Y531060D01*
X424626Y531032D01*
X424640D01*
X425542Y530464D01*
X425597Y530436D01*
X425625Y530395D01*
X425680Y530311D01*
X425694Y530242D01*
Y530228D01*
Y530214D01*
Y529396D01*
X425680Y529327D01*
X425667Y529285D01*
X425625Y529257D01*
X425514D01*
X425500Y529271D01*
X425486D01*
X424502Y529826D01*
Y524972D01*
X424488Y524903D01*
X424474Y524847D01*
X424432Y524819D01*
X424391Y524792D01*
X424321Y524764D01*
X423434D01*
X423364Y524778D01*
X423309Y524792D01*
X423295Y524806D01*
X423281D01*
X423254Y524847D01*
X423240Y524903D01*
Y524958D01*
Y524972D01*
Y530963D01*
X423254Y531032D01*
X423267Y531088D01*
X423309Y531116D01*
X423337Y531143D01*
X423420Y531171D01*
X424252D01*
X424377Y531143D01*
D02*
G37*
G36*
X420799Y531157D02*
X421048Y531102D01*
X421256Y531046D01*
X421423Y530963D01*
X421562Y530894D01*
X421659Y530825D01*
X421728Y530769D01*
X421742Y530755D01*
X421880Y530589D01*
X421991Y530395D01*
X422061Y530200D01*
X422116Y530006D01*
X422144Y529826D01*
X422158Y529687D01*
X422172Y529632D01*
Y529590D01*
Y529576D01*
Y529562D01*
Y529216D01*
X422158Y529146D01*
X422130Y529091D01*
X422102Y529063D01*
X422061Y529035D01*
X421978Y529008D01*
X421104D01*
X421035Y529022D01*
X420979Y529035D01*
X420951Y529077D01*
X420924Y529119D01*
X420896Y529188D01*
Y529202D01*
Y529216D01*
Y529535D01*
Y529646D01*
X420882Y529743D01*
X420854Y529812D01*
X420826Y529881D01*
X420813Y529923D01*
X420785Y529951D01*
X420771Y529978D01*
X420715Y530020D01*
X420646Y530062D01*
X420494Y530103D01*
X420424Y530117D01*
X419856D01*
X419759Y530089D01*
X419675Y530076D01*
X419606Y530048D01*
X419551Y530020D01*
X419523Y530006D01*
X419495Y529978D01*
X419440Y529923D01*
X419412Y529854D01*
X419356Y529715D01*
Y529646D01*
X419343Y529590D01*
Y529549D01*
Y529535D01*
Y529244D01*
X419356Y529091D01*
X419412Y528938D01*
X419481Y528800D01*
X419565Y528675D01*
X419661Y528578D01*
X419731Y528508D01*
X419786Y528453D01*
X419800Y528439D01*
X421631Y526886D01*
X421797Y526733D01*
X421922Y526567D01*
X422005Y526400D01*
X422061Y526248D01*
X422102Y526123D01*
X422116Y526012D01*
X422130Y525943D01*
Y525915D01*
Y524972D01*
X422116Y524903D01*
X422102Y524847D01*
X422061Y524819D01*
X422019Y524792D01*
X421950Y524764D01*
X418316D01*
X418247Y524778D01*
X418191Y524792D01*
X418164Y524833D01*
X418136Y524875D01*
X418108Y524944D01*
Y524958D01*
Y524972D01*
Y525665D01*
X418122Y525735D01*
X418136Y525790D01*
X418178Y525818D01*
X418205Y525846D01*
X418289Y525873D01*
X420702D01*
Y526040D01*
X420688Y526123D01*
X420646Y526206D01*
X420605Y526262D01*
X420591Y526276D01*
X418705Y527870D01*
X418594Y527968D01*
X418511Y528078D01*
X418358Y528287D01*
X418247Y528508D01*
X418178Y528703D01*
X418136Y528883D01*
X418122Y529035D01*
X418108Y529091D01*
Y529132D01*
Y529146D01*
Y529160D01*
Y529562D01*
X418122Y529840D01*
X418178Y530076D01*
X418247Y530284D01*
X418316Y530450D01*
X418400Y530589D01*
X418469Y530672D01*
X418524Y530741D01*
X418538Y530755D01*
X418718Y530894D01*
X418913Y530991D01*
X419107Y531074D01*
X419315Y531116D01*
X419481Y531143D01*
X419634Y531171D01*
X420521D01*
X420799Y531157D01*
D02*
G37*
G36*
X430659D02*
X430715Y531143D01*
X430742Y531102D01*
X430770Y531074D01*
X430798Y530991D01*
Y530977D01*
Y530963D01*
Y524972D01*
X430784Y524903D01*
X430770Y524847D01*
X430728Y524819D01*
X430687Y524792D01*
X430618Y524764D01*
X428121D01*
X427844Y524778D01*
X427608Y524833D01*
X427400Y524903D01*
X427220Y524972D01*
X427095Y525055D01*
X426998Y525111D01*
X426929Y525166D01*
X426915Y525180D01*
X426762Y525360D01*
X426651Y525555D01*
X426582Y525749D01*
X426526Y525943D01*
X426499Y526123D01*
X426471Y526262D01*
Y526317D01*
Y526359D01*
Y526373D01*
Y526387D01*
Y529549D01*
X426485Y529826D01*
X426540Y530062D01*
X426610Y530270D01*
X426693Y530436D01*
X426776Y530575D01*
X426845Y530658D01*
X426901Y530727D01*
X426915Y530741D01*
X427095Y530880D01*
X427289Y530991D01*
X427483Y531060D01*
X427677Y531116D01*
X427858Y531143D01*
X427996Y531171D01*
X430590D01*
X430659Y531157D01*
D02*
G37*
G36*
X688283Y531143D02*
X688408Y531102D01*
X688463Y531074D01*
X688505Y531060D01*
X688532Y531032D01*
X688546D01*
X689448Y530464D01*
X689503Y530436D01*
X689531Y530395D01*
X689586Y530311D01*
X689600Y530242D01*
Y530228D01*
Y530214D01*
Y529396D01*
X689586Y529327D01*
X689573Y529285D01*
X689531Y529257D01*
X689420D01*
X689406Y529271D01*
X689392D01*
X688408Y529826D01*
Y524972D01*
X688394Y524903D01*
X688380Y524847D01*
X688338Y524819D01*
X688297Y524792D01*
X688227Y524764D01*
X687340D01*
X687270Y524778D01*
X687215Y524792D01*
X687201Y524806D01*
X687187D01*
X687160Y524847D01*
X687146Y524903D01*
Y524958D01*
Y524972D01*
Y530963D01*
X687160Y531032D01*
X687173Y531088D01*
X687215Y531116D01*
X687243Y531143D01*
X687326Y531171D01*
X688158D01*
X688283Y531143D01*
D02*
G37*
G36*
X694565Y531157D02*
X694621Y531143D01*
X694648Y531102D01*
X694676Y531074D01*
X694704Y530991D01*
Y530977D01*
Y530963D01*
Y524972D01*
X694690Y524903D01*
X694676Y524847D01*
X694634Y524819D01*
X694593Y524792D01*
X694524Y524764D01*
X692027D01*
X691750Y524778D01*
X691514Y524833D01*
X691306Y524903D01*
X691126Y524972D01*
X691001Y525055D01*
X690904Y525111D01*
X690835Y525166D01*
X690821Y525180D01*
X690668Y525360D01*
X690557Y525555D01*
X690488Y525749D01*
X690432Y525943D01*
X690405Y526123D01*
X690377Y526262D01*
Y526317D01*
Y526359D01*
Y526373D01*
Y526387D01*
Y529549D01*
X690391Y529826D01*
X690446Y530062D01*
X690516Y530270D01*
X690599Y530436D01*
X690682Y530575D01*
X690751Y530658D01*
X690807Y530727D01*
X690821Y530741D01*
X691001Y530880D01*
X691195Y530991D01*
X691389Y531060D01*
X691583Y531116D01*
X691764Y531143D01*
X691902Y531171D01*
X694496D01*
X694565Y531157D01*
D02*
G37*
G36*
X684608D02*
X684843Y531102D01*
X685051Y531046D01*
X685218Y530963D01*
X685357Y530894D01*
X685454Y530825D01*
X685523Y530769D01*
X685537Y530755D01*
X685676Y530589D01*
X685787Y530395D01*
X685856Y530187D01*
X685911Y529992D01*
X685939Y529826D01*
X685953Y529673D01*
X685967Y529618D01*
Y529590D01*
Y529562D01*
Y529549D01*
Y526387D01*
X685953Y526109D01*
X685897Y525860D01*
X685828Y525652D01*
X685745Y525485D01*
X685676Y525360D01*
X685606Y525263D01*
X685551Y525194D01*
X685537Y525180D01*
X685357Y525041D01*
X685162Y524944D01*
X684968Y524861D01*
X684774Y524819D01*
X684594Y524792D01*
X684455Y524778D01*
X684400Y524764D01*
X683332D01*
X683054Y524778D01*
X682805Y524833D01*
X682597Y524903D01*
X682430Y524972D01*
X682292Y525055D01*
X682195Y525111D01*
X682125Y525166D01*
X682111Y525180D01*
X681973Y525360D01*
X681862Y525555D01*
X681792Y525749D01*
X681737Y525943D01*
X681709Y526123D01*
X681681Y526262D01*
Y526317D01*
Y526359D01*
Y526373D01*
Y526387D01*
Y529549D01*
X681695Y529826D01*
X681751Y530062D01*
X681820Y530270D01*
X681889Y530436D01*
X681973Y530575D01*
X682042Y530658D01*
X682097Y530727D01*
X682111Y530741D01*
X682292Y530880D01*
X682486Y530991D01*
X682680Y531060D01*
X682888Y531116D01*
X683054Y531143D01*
X683207Y531171D01*
X684330D01*
X684608Y531157D01*
D02*
G37*
G36*
X808611Y481119D02*
X808667Y481105D01*
X808694Y481064D01*
X808722Y481036D01*
X808750Y480953D01*
Y480939D01*
Y480925D01*
Y474934D01*
X808736Y474865D01*
X808722Y474809D01*
X808680Y474781D01*
X808639Y474754D01*
X808570Y474726D01*
X806073D01*
X805796Y474740D01*
X805560Y474795D01*
X805352Y474865D01*
X805172Y474934D01*
X805047Y475017D01*
X804950Y475073D01*
X804881Y475128D01*
X804867Y475142D01*
X804714Y475322D01*
X804603Y475517D01*
X804534Y475711D01*
X804478Y475905D01*
X804451Y476085D01*
X804423Y476224D01*
Y476279D01*
Y476321D01*
Y476335D01*
Y476349D01*
Y479511D01*
X804437Y479788D01*
X804492Y480024D01*
X804562Y480232D01*
X804645Y480398D01*
X804728Y480537D01*
X804797Y480620D01*
X804853Y480689D01*
X804867Y480703D01*
X805047Y480842D01*
X805241Y480953D01*
X805435Y481022D01*
X805630Y481078D01*
X805810Y481105D01*
X805948Y481133D01*
X808542D01*
X808611Y481119D01*
D02*
G37*
G36*
X801982D02*
X802232Y481078D01*
X802440Y481008D01*
X802606Y480939D01*
X802745Y480870D01*
X802842Y480800D01*
X802911Y480759D01*
X802925Y480745D01*
X803064Y480578D01*
X803161Y480398D01*
X803244Y480204D01*
X803286Y480024D01*
X803314Y479857D01*
X803327Y479719D01*
X803341Y479663D01*
Y479622D01*
Y479608D01*
Y479594D01*
Y479164D01*
X803327Y478997D01*
X803314Y478845D01*
X803286Y478706D01*
X803244Y478581D01*
X803133Y478359D01*
X803008Y478207D01*
X802897Y478082D01*
X802786Y477999D01*
X802717Y477957D01*
X802689Y477943D01*
X802800Y477888D01*
X802897Y477805D01*
X803064Y477638D01*
X803175Y477430D01*
X803258Y477236D01*
X803300Y477042D01*
X803327Y476889D01*
X803341Y476820D01*
Y476778D01*
Y476751D01*
Y476737D01*
Y476279D01*
X803327Y476002D01*
X803272Y475766D01*
X803203Y475572D01*
X803133Y475406D01*
X803050Y475281D01*
X802995Y475184D01*
X802939Y475128D01*
X802925Y475114D01*
X802745Y474990D01*
X802551Y474892D01*
X802356Y474823D01*
X802149Y474781D01*
X801982Y474754D01*
X801830Y474726D01*
X800637D01*
X800359Y474740D01*
X800110Y474781D01*
X799902Y474851D01*
X799735Y474920D01*
X799597Y474990D01*
X799513Y475059D01*
X799444Y475100D01*
X799430Y475114D01*
X799292Y475281D01*
X799181Y475461D01*
X799111Y475655D01*
X799056Y475849D01*
X799028Y476016D01*
X799000Y476154D01*
Y476210D01*
Y476251D01*
Y476265D01*
Y476279D01*
Y476723D01*
Y476889D01*
X799028Y477056D01*
X799056Y477195D01*
X799098Y477319D01*
X799208Y477527D01*
X799319Y477694D01*
X799444Y477805D01*
X799555Y477888D01*
X799624Y477930D01*
X799638Y477943D01*
X799652D01*
X799541Y477985D01*
X799458Y478054D01*
X799305Y478193D01*
X799250Y478249D01*
X799208Y478304D01*
X799194Y478346D01*
X799181Y478359D01*
X799125Y478484D01*
X799070Y478623D01*
X799042Y478762D01*
X799028Y478886D01*
X799014Y478997D01*
X799000Y479081D01*
Y479150D01*
Y479164D01*
Y479594D01*
X799014Y479857D01*
X799070Y480093D01*
X799139Y480287D01*
X799208Y480454D01*
X799292Y480578D01*
X799361Y480676D01*
X799416Y480731D01*
X799430Y480745D01*
X799597Y480870D01*
X799791Y480967D01*
X799999Y481036D01*
X800193Y481092D01*
X800359Y481119D01*
X800512Y481133D01*
X801705D01*
X801982Y481119D01*
D02*
G37*
G36*
X414657Y431335D02*
X414713Y431321D01*
X414740Y431280D01*
X414768Y431252D01*
X414796Y431169D01*
Y431155D01*
Y431141D01*
Y425150D01*
X414782Y425081D01*
X414768Y425025D01*
X414726Y424997D01*
X414685Y424970D01*
X414616Y424942D01*
X412119D01*
X411842Y424956D01*
X411606Y425011D01*
X411398Y425081D01*
X411218Y425150D01*
X411093Y425233D01*
X410996Y425289D01*
X410927Y425344D01*
X410913Y425358D01*
X410760Y425538D01*
X410649Y425732D01*
X410580Y425927D01*
X410524Y426121D01*
X410497Y426301D01*
X410469Y426440D01*
Y426495D01*
Y426537D01*
Y426551D01*
Y426565D01*
Y429727D01*
X410483Y430004D01*
X410538Y430240D01*
X410608Y430448D01*
X410691Y430614D01*
X410774Y430753D01*
X410843Y430836D01*
X410899Y430905D01*
X410913Y430919D01*
X411093Y431058D01*
X411287Y431169D01*
X411481Y431238D01*
X411675Y431294D01*
X411856Y431321D01*
X411995Y431349D01*
X414588D01*
X414657Y431335D01*
D02*
G37*
G36*
X408028D02*
X408278Y431280D01*
X408486Y431224D01*
X408652Y431141D01*
X408791Y431072D01*
X408888Y431003D01*
X408957Y430947D01*
X408971Y430933D01*
X409110Y430767D01*
X409221Y430573D01*
X409290Y430364D01*
X409346Y430170D01*
X409373Y430004D01*
X409387Y429851D01*
X409401Y429796D01*
Y429768D01*
Y429740D01*
Y429727D01*
Y426565D01*
X409387Y426287D01*
X409332Y426038D01*
X409262Y425830D01*
X409179Y425663D01*
X409110Y425538D01*
X409040Y425441D01*
X408985Y425372D01*
X408971Y425358D01*
X408791Y425219D01*
X408597Y425122D01*
X408402Y425039D01*
X408195Y424997D01*
X408028Y424970D01*
X407876Y424956D01*
X407820Y424942D01*
X406780D01*
X406503Y424956D01*
X406253Y425011D01*
X406045Y425081D01*
X405878Y425150D01*
X405740Y425233D01*
X405643Y425289D01*
X405573Y425344D01*
X405560Y425358D01*
X405421Y425524D01*
X405310Y425719D01*
X405241Y425927D01*
X405185Y426121D01*
X405157Y426287D01*
X405130Y426440D01*
Y426495D01*
Y426537D01*
Y426551D01*
Y426565D01*
Y427369D01*
X405144Y427646D01*
X405199Y427896D01*
X405268Y428104D01*
X405338Y428270D01*
X405421Y428409D01*
X405490Y428492D01*
X405546Y428562D01*
X405560Y428576D01*
X405740Y428714D01*
X405934Y428825D01*
X406128Y428895D01*
X406336Y428950D01*
X406503Y428978D01*
X406655Y429005D01*
X408139D01*
Y429671D01*
Y429782D01*
X408111Y429879D01*
X408097Y429949D01*
X408070Y430018D01*
X408042Y430059D01*
X408028Y430087D01*
X408000Y430115D01*
X407945Y430157D01*
X407876Y430198D01*
X407723Y430240D01*
X407654Y430254D01*
X405712D01*
X405643Y430267D01*
X405587Y430281D01*
X405560Y430323D01*
X405532Y430364D01*
X405504Y430434D01*
Y430448D01*
Y430462D01*
Y431141D01*
X405518Y431211D01*
X405532Y431266D01*
X405573Y431294D01*
X405601Y431321D01*
X405684Y431349D01*
X407751D01*
X408028Y431335D01*
D02*
G37*
G36*
X559691D02*
X559747Y431321D01*
X559774Y431280D01*
X559802Y431252D01*
X559830Y431169D01*
Y431155D01*
Y431141D01*
Y425150D01*
X559816Y425081D01*
X559802Y425025D01*
X559761Y424997D01*
X559719Y424970D01*
X559650Y424942D01*
X557153D01*
X556876Y424956D01*
X556640Y425011D01*
X556432Y425081D01*
X556252Y425150D01*
X556127Y425233D01*
X556030Y425289D01*
X555961Y425344D01*
X555947Y425358D01*
X555794Y425538D01*
X555683Y425732D01*
X555614Y425927D01*
X555558Y426121D01*
X555531Y426301D01*
X555503Y426440D01*
Y426495D01*
Y426537D01*
Y426551D01*
Y426565D01*
Y429727D01*
X555517Y430004D01*
X555572Y430240D01*
X555642Y430448D01*
X555725Y430614D01*
X555808Y430753D01*
X555877Y430836D01*
X555933Y430905D01*
X555947Y430919D01*
X556127Y431058D01*
X556321Y431169D01*
X556515Y431238D01*
X556710Y431294D01*
X556890Y431321D01*
X557029Y431349D01*
X559622D01*
X559691Y431335D01*
D02*
G37*
G36*
X552216D02*
X552285Y431321D01*
X552341Y431294D01*
X552355Y431280D01*
X552424Y431224D01*
X552480Y431141D01*
X552521Y431072D01*
X552535Y431058D01*
Y431044D01*
X554532Y427355D01*
X554588Y427202D01*
X554615Y427036D01*
X554629Y426967D01*
Y426911D01*
Y426870D01*
Y426856D01*
Y426468D01*
X554615Y426357D01*
X554574Y426273D01*
X554546Y426218D01*
X554532Y426204D01*
X554435Y426149D01*
X554352Y426121D01*
X554282Y426107D01*
X551786D01*
Y425150D01*
X551772Y425081D01*
X551745Y425025D01*
X551717Y424997D01*
X551675Y424970D01*
X551592Y424942D01*
X550788D01*
X550718Y424956D01*
X550663Y424970D01*
X550649Y424984D01*
X550635D01*
X550607Y425025D01*
X550593Y425081D01*
Y425136D01*
Y425150D01*
Y426107D01*
X549872D01*
X549803Y426121D01*
X549761Y426149D01*
X549706Y426218D01*
X549678Y426301D01*
Y426315D01*
Y426329D01*
Y427008D01*
X549692Y427078D01*
X549706Y427119D01*
X549775Y427175D01*
X549845Y427202D01*
X550593D01*
Y430989D01*
X550607Y431100D01*
X550649Y431183D01*
X550691Y431238D01*
X550704Y431252D01*
X550788Y431308D01*
X550871Y431335D01*
X550940Y431349D01*
X552105D01*
X552216Y431335D01*
D02*
G37*
G36*
X644091D02*
X644341Y431280D01*
X644549Y431224D01*
X644715Y431141D01*
X644854Y431072D01*
X644951Y431003D01*
X645020Y430947D01*
X645034Y430933D01*
X645173Y430767D01*
X645284Y430573D01*
X645353Y430378D01*
X645409Y430184D01*
X645436Y430004D01*
X645450Y429865D01*
X645464Y429810D01*
Y429768D01*
Y429754D01*
Y429740D01*
Y429394D01*
X645450Y429324D01*
X645423Y429269D01*
X645395Y429241D01*
X645353Y429213D01*
X645270Y429186D01*
X644396D01*
X644327Y429200D01*
X644271Y429213D01*
X644244Y429255D01*
X644216Y429297D01*
X644188Y429366D01*
Y429380D01*
Y429394D01*
Y429713D01*
Y429824D01*
X644174Y429921D01*
X644147Y429990D01*
X644119Y430059D01*
X644105Y430101D01*
X644077Y430129D01*
X644063Y430157D01*
X644008Y430198D01*
X643939Y430240D01*
X643786Y430281D01*
X643717Y430295D01*
X643148D01*
X643051Y430267D01*
X642968Y430254D01*
X642898Y430226D01*
X642843Y430198D01*
X642815Y430184D01*
X642787Y430157D01*
X642732Y430101D01*
X642704Y430032D01*
X642649Y429893D01*
Y429824D01*
X642635Y429768D01*
Y429727D01*
Y429713D01*
Y429422D01*
X642649Y429269D01*
X642704Y429116D01*
X642774Y428978D01*
X642857Y428853D01*
X642954Y428756D01*
X643023Y428686D01*
X643079Y428631D01*
X643093Y428617D01*
X644923Y427064D01*
X645090Y426911D01*
X645214Y426745D01*
X645298Y426578D01*
X645353Y426426D01*
X645395Y426301D01*
X645409Y426190D01*
X645423Y426121D01*
Y426093D01*
Y425150D01*
X645409Y425081D01*
X645395Y425025D01*
X645353Y424997D01*
X645312Y424970D01*
X645242Y424942D01*
X641609D01*
X641539Y424956D01*
X641484Y424970D01*
X641456Y425011D01*
X641428Y425053D01*
X641401Y425122D01*
Y425136D01*
Y425150D01*
Y425843D01*
X641415Y425913D01*
X641428Y425968D01*
X641470Y425996D01*
X641498Y426024D01*
X641581Y426051D01*
X643994D01*
Y426218D01*
X643980Y426301D01*
X643939Y426384D01*
X643897Y426440D01*
X643883Y426454D01*
X641997Y428049D01*
X641886Y428146D01*
X641803Y428256D01*
X641650Y428465D01*
X641539Y428686D01*
X641470Y428881D01*
X641428Y429061D01*
X641415Y429213D01*
X641401Y429269D01*
Y429310D01*
Y429324D01*
Y429338D01*
Y429740D01*
X641415Y430018D01*
X641470Y430254D01*
X641539Y430462D01*
X641609Y430628D01*
X641692Y430767D01*
X641761Y430850D01*
X641817Y430919D01*
X641831Y430933D01*
X642011Y431072D01*
X642205Y431169D01*
X642399Y431252D01*
X642607Y431294D01*
X642774Y431321D01*
X642926Y431349D01*
X643814D01*
X644091Y431335D01*
D02*
G37*
G36*
X650623D02*
X650679Y431321D01*
X650706Y431280D01*
X650734Y431252D01*
X650762Y431169D01*
Y431155D01*
Y431141D01*
Y425150D01*
X650748Y425081D01*
X650734Y425025D01*
X650693Y424997D01*
X650651Y424970D01*
X650582Y424942D01*
X648085D01*
X647808Y424956D01*
X647572Y425011D01*
X647364Y425081D01*
X647184Y425150D01*
X647059Y425233D01*
X646962Y425289D01*
X646893Y425344D01*
X646879Y425358D01*
X646726Y425538D01*
X646615Y425732D01*
X646546Y425927D01*
X646490Y426121D01*
X646463Y426301D01*
X646435Y426440D01*
Y426495D01*
Y426537D01*
Y426551D01*
Y426565D01*
Y429727D01*
X646449Y430004D01*
X646504Y430240D01*
X646574Y430448D01*
X646657Y430614D01*
X646740Y430753D01*
X646809Y430836D01*
X646865Y430905D01*
X646879Y430919D01*
X647059Y431058D01*
X647253Y431169D01*
X647447Y431238D01*
X647642Y431294D01*
X647822Y431321D01*
X647961Y431349D01*
X650554D01*
X650623Y431335D01*
D02*
G37*
%LPC*%
G36*
X333413Y490198D02*
X332206D01*
X332109Y490170D01*
X332026Y490156D01*
X331971Y490128D01*
X331915Y490101D01*
X331887Y490087D01*
X331860Y490059D01*
X331818Y490003D01*
X331776Y489934D01*
X331735Y489795D01*
X331721Y489726D01*
Y489671D01*
Y489629D01*
Y489615D01*
Y486564D01*
Y486453D01*
X331749Y486356D01*
X331763Y486273D01*
X331790Y486217D01*
X331818Y486162D01*
X331832Y486134D01*
X331860Y486120D01*
Y486106D01*
X331915Y486065D01*
X331984Y486037D01*
X332137Y485995D01*
X332206D01*
X332262Y485982D01*
X333399D01*
X333468Y485995D01*
X333496Y486037D01*
X333510Y486079D01*
Y486093D01*
Y490087D01*
X333496Y490156D01*
X333455Y490184D01*
X333413Y490198D01*
D02*
G37*
G36*
X323414Y490225D02*
Y487146D01*
X325023D01*
X323414Y490225D01*
D02*
G37*
G36*
X429425Y530076D02*
X428218D01*
X428121Y530048D01*
X428038Y530034D01*
X427983Y530006D01*
X427927Y529978D01*
X427899Y529965D01*
X427872Y529937D01*
X427830Y529881D01*
X427788Y529812D01*
X427747Y529673D01*
X427733Y529604D01*
Y529549D01*
Y529507D01*
Y529493D01*
Y526442D01*
Y526331D01*
X427761Y526234D01*
X427775Y526151D01*
X427802Y526095D01*
X427830Y526040D01*
X427844Y526012D01*
X427872Y525998D01*
Y525984D01*
X427927Y525943D01*
X427996Y525915D01*
X428149Y525873D01*
X428218D01*
X428274Y525860D01*
X429411D01*
X429480Y525873D01*
X429508Y525915D01*
X429522Y525957D01*
Y525971D01*
Y529965D01*
X429508Y530034D01*
X429467Y530062D01*
X429425Y530076D01*
D02*
G37*
G36*
X693331D02*
X692124D01*
X692027Y530048D01*
X691944Y530034D01*
X691889Y530006D01*
X691833Y529978D01*
X691805Y529965D01*
X691778Y529937D01*
X691736Y529881D01*
X691694Y529812D01*
X691653Y529673D01*
X691639Y529604D01*
Y529549D01*
Y529507D01*
Y529493D01*
Y526442D01*
Y526331D01*
X691667Y526234D01*
X691681Y526151D01*
X691708Y526095D01*
X691736Y526040D01*
X691750Y526012D01*
X691778Y525998D01*
Y525984D01*
X691833Y525943D01*
X691902Y525915D01*
X692055Y525873D01*
X692124D01*
X692180Y525860D01*
X693317D01*
X693386Y525873D01*
X693414Y525915D01*
X693428Y525957D01*
Y525971D01*
Y529965D01*
X693414Y530034D01*
X693372Y530062D01*
X693331Y530076D01*
D02*
G37*
G36*
X684219D02*
X683415D01*
X683318Y530048D01*
X683249Y530034D01*
X683179Y530006D01*
X683138Y529978D01*
X683110Y529965D01*
X683082Y529937D01*
X683040Y529881D01*
X682999Y529812D01*
X682957Y529673D01*
X682943Y529604D01*
Y529549D01*
Y529507D01*
Y529493D01*
Y526442D01*
Y526331D01*
X682971Y526234D01*
X682985Y526151D01*
X683013Y526095D01*
X683040Y526040D01*
X683054Y526012D01*
X683082Y525998D01*
Y525984D01*
X683138Y525943D01*
X683207Y525915D01*
X683346Y525873D01*
X683415D01*
X683471Y525860D01*
X684219D01*
X684316Y525873D01*
X684400Y525901D01*
X684455Y525929D01*
X684511Y525943D01*
X684538Y525971D01*
X684552Y525984D01*
X684566D01*
X684608Y526040D01*
X684635Y526109D01*
X684677Y526262D01*
Y526331D01*
X684691Y526387D01*
Y526428D01*
Y526442D01*
Y529493D01*
Y529604D01*
X684677Y529701D01*
X684649Y529771D01*
X684622Y529840D01*
X684608Y529881D01*
X684580Y529909D01*
X684566Y529937D01*
X684511Y529978D01*
X684441Y530020D01*
X684289Y530062D01*
X684219Y530076D01*
D02*
G37*
G36*
X807377Y480038D02*
X806170D01*
X806073Y480010D01*
X805990Y479996D01*
X805935Y479968D01*
X805879Y479940D01*
X805851Y479927D01*
X805824Y479899D01*
X805782Y479843D01*
X805740Y479774D01*
X805699Y479635D01*
X805685Y479566D01*
Y479511D01*
Y479469D01*
Y479455D01*
Y476404D01*
Y476293D01*
X805713Y476196D01*
X805727Y476113D01*
X805754Y476057D01*
X805782Y476002D01*
X805796Y475974D01*
X805824Y475960D01*
Y475946D01*
X805879Y475905D01*
X805948Y475877D01*
X806101Y475835D01*
X806170D01*
X806226Y475822D01*
X807363D01*
X807432Y475835D01*
X807460Y475877D01*
X807474Y475919D01*
Y475933D01*
Y479927D01*
X807460Y479996D01*
X807419Y480024D01*
X807377Y480038D01*
D02*
G37*
G36*
X801621Y480051D02*
X800720D01*
X800623Y480024D01*
X800554Y480010D01*
X800484Y479982D01*
X800443Y479954D01*
X800415Y479940D01*
X800387Y479913D01*
X800346Y479857D01*
X800304Y479788D01*
X800262Y479649D01*
X800248Y479580D01*
Y479538D01*
Y479497D01*
Y479483D01*
Y479067D01*
Y478956D01*
X800276Y478859D01*
X800290Y478776D01*
X800318Y478706D01*
X800346Y478665D01*
X800359Y478623D01*
X800387Y478609D01*
Y478595D01*
X800443Y478540D01*
X800512Y478512D01*
X800651Y478457D01*
X800720D01*
X800776Y478443D01*
X801511D01*
X801621Y478457D01*
X801719Y478470D01*
X801802Y478498D01*
X801857Y478526D01*
X801913Y478554D01*
X801941Y478568D01*
X801954Y478595D01*
X801968D01*
X802010Y478665D01*
X802038Y478734D01*
X802079Y478886D01*
Y478956D01*
X802093Y479011D01*
Y479053D01*
Y479067D01*
Y479483D01*
Y479594D01*
X802079Y479677D01*
X802051Y479760D01*
X802024Y479816D01*
X802010Y479857D01*
X801982Y479885D01*
X801968Y479913D01*
X801913Y479954D01*
X801843Y479996D01*
X801691Y480038D01*
X801621Y480051D01*
D02*
G37*
G36*
X801566Y477458D02*
X800720D01*
X800623Y477430D01*
X800554Y477416D01*
X800484Y477389D01*
X800443Y477361D01*
X800415Y477333D01*
X800387Y477319D01*
Y477305D01*
X800346Y477236D01*
X800304Y477167D01*
X800262Y477014D01*
X800248Y476945D01*
Y476889D01*
Y476848D01*
Y476834D01*
Y476376D01*
Y476265D01*
X800276Y476182D01*
X800290Y476099D01*
X800318Y476044D01*
X800346Y475988D01*
X800359Y475960D01*
X800387Y475933D01*
X800443Y475891D01*
X800512Y475863D01*
X800651Y475822D01*
X800720D01*
X800776Y475808D01*
X801621D01*
X801719Y475822D01*
X801802Y475849D01*
X801857Y475877D01*
X801913Y475891D01*
X801941Y475919D01*
X801954Y475933D01*
X801968D01*
X802010Y475988D01*
X802038Y476057D01*
X802079Y476210D01*
Y476279D01*
X802093Y476321D01*
Y476362D01*
Y476376D01*
Y476834D01*
Y476945D01*
X802079Y477042D01*
X802051Y477125D01*
X802024Y477195D01*
X802010Y477236D01*
X801982Y477278D01*
X801968Y477305D01*
X801913Y477361D01*
X801843Y477389D01*
X801691Y477444D01*
X801621D01*
X801566Y477458D01*
D02*
G37*
G36*
X413423Y430254D02*
X412216D01*
X412119Y430226D01*
X412036Y430212D01*
X411981Y430184D01*
X411925Y430157D01*
X411897Y430143D01*
X411870Y430115D01*
X411828Y430059D01*
X411786Y429990D01*
X411745Y429851D01*
X411731Y429782D01*
Y429727D01*
Y429685D01*
Y429671D01*
Y426620D01*
Y426509D01*
X411759Y426412D01*
X411773Y426329D01*
X411800Y426273D01*
X411828Y426218D01*
X411842Y426190D01*
X411870Y426176D01*
Y426162D01*
X411925Y426121D01*
X411995Y426093D01*
X412147Y426051D01*
X412216D01*
X412272Y426038D01*
X413409D01*
X413478Y426051D01*
X413506Y426093D01*
X413520Y426135D01*
Y426149D01*
Y430143D01*
X413506Y430212D01*
X413465Y430240D01*
X413423Y430254D01*
D02*
G37*
G36*
X408139Y427896D02*
X406877D01*
X406780Y427868D01*
X406697Y427854D01*
X406641Y427827D01*
X406586Y427799D01*
X406558Y427785D01*
X406530Y427757D01*
X406489Y427702D01*
X406447Y427632D01*
X406405Y427494D01*
X406392Y427424D01*
Y427369D01*
Y427327D01*
Y427313D01*
Y426620D01*
Y426509D01*
X406419Y426412D01*
X406433Y426329D01*
X406461Y426273D01*
X406489Y426218D01*
X406503Y426190D01*
X406530Y426176D01*
Y426162D01*
X406586Y426121D01*
X406655Y426093D01*
X406808Y426051D01*
X406877D01*
X406932Y426038D01*
X407668D01*
X407765Y426051D01*
X407848Y426079D01*
X407903Y426107D01*
X407959Y426121D01*
X407986Y426149D01*
X408000Y426162D01*
X408014D01*
X408056Y426218D01*
X408084Y426287D01*
X408125Y426440D01*
Y426509D01*
X408139Y426565D01*
Y426606D01*
Y426620D01*
Y427896D01*
D02*
G37*
G36*
X558457Y430254D02*
X557250D01*
X557153Y430226D01*
X557070Y430212D01*
X557015Y430184D01*
X556959Y430157D01*
X556931Y430143D01*
X556904Y430115D01*
X556862Y430059D01*
X556820Y429990D01*
X556779Y429851D01*
X556765Y429782D01*
Y429727D01*
Y429685D01*
Y429671D01*
Y426620D01*
Y426509D01*
X556793Y426412D01*
X556807Y426329D01*
X556834Y426273D01*
X556862Y426218D01*
X556876Y426190D01*
X556904Y426176D01*
Y426162D01*
X556959Y426121D01*
X557029Y426093D01*
X557181Y426051D01*
X557250D01*
X557306Y426038D01*
X558443D01*
X558512Y426051D01*
X558540Y426093D01*
X558554Y426135D01*
Y426149D01*
Y430143D01*
X558540Y430212D01*
X558498Y430240D01*
X558457Y430254D01*
D02*
G37*
G36*
X551786Y430281D02*
Y427202D01*
X553395D01*
X551786Y430281D01*
D02*
G37*
G36*
X649389Y430254D02*
X648182D01*
X648085Y430226D01*
X648002Y430212D01*
X647947Y430184D01*
X647891Y430157D01*
X647863Y430143D01*
X647836Y430115D01*
X647794Y430059D01*
X647752Y429990D01*
X647711Y429851D01*
X647697Y429782D01*
Y429727D01*
Y429685D01*
Y429671D01*
Y426620D01*
Y426509D01*
X647725Y426412D01*
X647739Y426329D01*
X647766Y426273D01*
X647794Y426218D01*
X647808Y426190D01*
X647836Y426176D01*
Y426162D01*
X647891Y426121D01*
X647961Y426093D01*
X648113Y426051D01*
X648182D01*
X648238Y426038D01*
X649375D01*
X649444Y426051D01*
X649472Y426093D01*
X649486Y426135D01*
Y426149D01*
Y430143D01*
X649472Y430212D01*
X649430Y430240D01*
X649389Y430254D01*
D02*
G37*
%LPD*%
D10*
X644530Y379000D02*
G03*
X644530Y379000I-500J0D01*
G01*
X523500D02*
G03*
X523500Y379000I-500J0D01*
G01*
X408500D02*
G03*
X408500Y379000I-500J0D01*
G01*
X772470Y429000D02*
G03*
X772470Y429000I-500J0D01*
G01*
X298500Y439000D02*
G03*
X298500Y439000I-500J0D01*
G01*
X658500Y479000D02*
G03*
X658500Y479000I-500J0D01*
G01*
X394530D02*
G03*
X394530Y479000I-500J0D01*
G01*
D20*
X101060Y381435D02*
X197950D01*
X162050D02*
X209010D01*
Y277295D02*
Y381435D01*
X101060Y277295D02*
X209010D01*
X101060D02*
Y381435D01*
M02*
