G04*
G04 #@! TF.GenerationSoftware,Altium Limited,Altium Designer,22.11.1 (43)*
G04*
G04 Layer_Color=32768*
%FSLAX44Y44*%
%MOMM*%
G71*
G04*
G04 #@! TF.SameCoordinates,022B600F-6A39-489C-B13A-5D3FAA6F7639*
G04*
G04*
G04 #@! TF.FilePolarity,Positive*
G04*
G01*
G75*
%ADD10C,0.1000*%
%ADD22C,0.0500*%
D10*
X656030Y400000D02*
X666030D01*
X661030Y395000D02*
Y405000D01*
X783970Y450000D02*
X793970D01*
X788970Y445000D02*
Y455000D01*
X670000Y500000D02*
X680000D01*
X675000Y495000D02*
Y505000D01*
X535000Y400000D02*
X545000D01*
X540000Y395000D02*
Y405000D01*
X406030Y500000D02*
X416030D01*
X411030Y495000D02*
Y505000D01*
X420000Y400000D02*
X430000D01*
X425000Y395000D02*
Y405000D01*
X310000Y460000D02*
X320000D01*
X315000Y455000D02*
Y465000D01*
X642280Y390748D02*
Y383750D01*
X645779D01*
X646945Y384916D01*
Y389581D01*
X645779Y390748D01*
X642280D01*
X649278Y383750D02*
X651610D01*
X650444D01*
Y390748D01*
X649278Y389581D01*
X770220Y440748D02*
Y433750D01*
X773719D01*
X774885Y434916D01*
Y439581D01*
X773719Y440748D01*
X770220D01*
X777218D02*
X781883D01*
Y439581D01*
X777218Y434916D01*
Y433750D01*
X656250Y490748D02*
Y483750D01*
X659749D01*
X660915Y484916D01*
Y489581D01*
X659749Y490748D01*
X656250D01*
X663248Y484916D02*
X664414Y483750D01*
X666747D01*
X667913Y484916D01*
Y489581D01*
X666747Y490748D01*
X664414D01*
X663248Y489581D01*
Y488415D01*
X664414Y487249D01*
X667913D01*
X521250Y390748D02*
Y383750D01*
X524749D01*
X525915Y384916D01*
Y389581D01*
X524749Y390748D01*
X521250D01*
X528248Y389581D02*
X529414Y390748D01*
X531747D01*
X532913Y389581D01*
Y388415D01*
X531747Y387249D01*
X530580D01*
X531747D01*
X532913Y386083D01*
Y384916D01*
X531747Y383750D01*
X529414D01*
X528248Y384916D01*
X392280Y490748D02*
Y483750D01*
X395779D01*
X396945Y484916D01*
Y489581D01*
X395779Y490748D01*
X392280D01*
X399278Y483750D02*
X401610D01*
X400444D01*
Y490748D01*
X399278Y489581D01*
X405109Y483750D02*
X407442D01*
X406275D01*
Y490748D01*
X405109Y489581D01*
X406250Y390748D02*
Y383750D01*
X409749D01*
X410915Y384916D01*
Y389581D01*
X409749Y390748D01*
X406250D01*
X417913D02*
X413248D01*
Y387249D01*
X415580Y388415D01*
X416747D01*
X417913Y387249D01*
Y384916D01*
X416747Y383750D01*
X414414D01*
X413248Y384916D01*
X296250Y450748D02*
Y443750D01*
X299749D01*
X300915Y444916D01*
Y449581D01*
X299749Y450748D01*
X296250D01*
X303248Y443750D02*
X305580D01*
X304414D01*
Y450748D01*
X303248Y449581D01*
X309079D02*
X310245Y450748D01*
X312578D01*
X313744Y449581D01*
Y448415D01*
X312578Y447249D01*
X311412D01*
X312578D01*
X313744Y446083D01*
Y444916D01*
X312578Y443750D01*
X310245D01*
X309079Y444916D01*
D22*
X644780Y382750D02*
X677531D01*
X644780Y417251D02*
X677531D01*
Y382750D02*
Y417251D01*
X644780Y382750D02*
Y417251D01*
X641530Y380500D02*
Y419500D01*
X680530Y380500D02*
Y419500D01*
X641530D02*
X680530D01*
X641530Y380500D02*
X680530D01*
X772720Y432750D02*
X805471D01*
X772720Y467251D02*
X805471D01*
Y432750D02*
Y467251D01*
X772720Y432750D02*
Y467251D01*
X769470Y430500D02*
Y469500D01*
X808470Y430500D02*
Y469500D01*
X769470D02*
X808470D01*
X769470Y430500D02*
X808470D01*
X658750Y482750D02*
X691501D01*
X658750Y517251D02*
X691501D01*
Y482750D02*
Y517251D01*
X658750Y482750D02*
Y517251D01*
X655500Y480500D02*
Y519500D01*
X694500Y480500D02*
Y519500D01*
X655500D02*
X694500D01*
X655500Y480500D02*
X694500D01*
X523750Y382750D02*
X556501D01*
X523750Y417251D02*
X556501D01*
Y382750D02*
Y417251D01*
X523750Y382750D02*
Y417251D01*
X520500Y380500D02*
Y419500D01*
X559500Y380500D02*
Y419500D01*
X520500D02*
X559500D01*
X520500Y380500D02*
X559500D01*
X394780Y482750D02*
X427531D01*
X394780Y517251D02*
X427531D01*
Y482750D02*
Y517251D01*
X394780Y482750D02*
Y517251D01*
X391530Y480500D02*
Y519500D01*
X430530Y480500D02*
Y519500D01*
X391530D02*
X430530D01*
X391530Y480500D02*
X430530D01*
X408750Y382750D02*
X441501D01*
X408750Y417251D02*
X441501D01*
Y382750D02*
Y417251D01*
X408750Y382750D02*
Y417251D01*
X405500Y380500D02*
Y419500D01*
X444500Y380500D02*
Y419500D01*
X405500D02*
X444500D01*
X405500Y380500D02*
X444500D01*
X298750Y442750D02*
X331501D01*
X298750Y477251D02*
X331501D01*
Y442750D02*
Y477251D01*
X298750Y442750D02*
Y477251D01*
X295500Y440500D02*
Y479500D01*
X334500Y440500D02*
Y479500D01*
X295500D02*
X334500D01*
X295500Y440500D02*
X334500D01*
M02*
