G04*
G04 #@! TF.GenerationSoftware,Altium Limited,Altium Designer,23.6.0 (18)*
G04*
G04 Layer_Color=32896*
%FSLAX44Y44*%
%MOMM*%
G71*
G04*
G04 #@! TF.SameCoordinates,8711EDFB-AC5A-492D-8E97-C1405DB26330*
G04*
G04*
G04 #@! TF.FilePolarity,Positive*
G04*
G01*
G75*
%ADD10C,0.1000*%
%ADD11C,0.2000*%
G36*
X220147Y241583D02*
X220272Y241542D01*
X220327Y241514D01*
X220369Y241500D01*
X220397Y241472D01*
X220410D01*
X221312Y240904D01*
X221367Y240876D01*
X221395Y240835D01*
X221451Y240751D01*
X221464Y240682D01*
Y240668D01*
Y240654D01*
Y239836D01*
X221451Y239767D01*
X221437Y239725D01*
X221395Y239697D01*
X221284D01*
X221270Y239711D01*
X221256D01*
X220272Y240266D01*
Y235412D01*
X220258Y235343D01*
X220244Y235287D01*
X220202Y235259D01*
X220161Y235232D01*
X220091Y235204D01*
X219204D01*
X219135Y235218D01*
X219079Y235232D01*
X219065Y235246D01*
X219051D01*
X219024Y235287D01*
X219010Y235343D01*
Y235398D01*
Y235412D01*
Y241403D01*
X219024Y241472D01*
X219037Y241528D01*
X219079Y241556D01*
X219107Y241583D01*
X219190Y241611D01*
X220022D01*
X220147Y241583D01*
D02*
G37*
G36*
X223406Y241597D02*
X223461Y241583D01*
X223503Y241542D01*
X223531Y241514D01*
X223559Y241431D01*
Y241417D01*
Y241403D01*
Y236882D01*
Y236771D01*
X223586Y236674D01*
X223600Y236591D01*
X223628Y236535D01*
X223656Y236480D01*
X223669Y236452D01*
X223697Y236438D01*
Y236424D01*
X223753Y236383D01*
X223822Y236355D01*
X223961Y236313D01*
X224030D01*
X224086Y236300D01*
X224834D01*
X224932Y236313D01*
X225015Y236341D01*
X225070Y236369D01*
X225126Y236383D01*
X225153Y236411D01*
X225167Y236424D01*
X225181D01*
X225223Y236480D01*
X225250Y236549D01*
X225292Y236702D01*
Y236771D01*
X225306Y236827D01*
Y236868D01*
Y236882D01*
Y237770D01*
X225320Y237839D01*
X225334Y237894D01*
X225375Y237922D01*
X225403Y237950D01*
X225486Y237978D01*
X226360D01*
X226429Y237964D01*
X226485Y237950D01*
X226513Y237908D01*
X226540Y237881D01*
X226568Y237797D01*
Y237784D01*
Y237770D01*
Y236827D01*
X226554Y236549D01*
X226499Y236300D01*
X226429Y236092D01*
X226360Y235925D01*
X226277Y235800D01*
X226221Y235703D01*
X226166Y235634D01*
X226152Y235620D01*
X225972Y235481D01*
X225777Y235384D01*
X225583Y235301D01*
X225375Y235259D01*
X225209Y235232D01*
X225056Y235218D01*
X225001Y235204D01*
X223933D01*
X223656Y235218D01*
X223406Y235273D01*
X223198Y235343D01*
X223032Y235412D01*
X222893Y235495D01*
X222810Y235551D01*
X222740Y235606D01*
X222726Y235620D01*
X222588Y235800D01*
X222477Y235994D01*
X222407Y236189D01*
X222352Y236383D01*
X222324Y236563D01*
X222297Y236702D01*
Y236757D01*
Y236799D01*
Y236813D01*
Y236827D01*
Y241417D01*
X222310Y241486D01*
X222324Y241528D01*
X222394Y241583D01*
X222477Y241611D01*
X223337D01*
X223406Y241597D01*
D02*
G37*
G36*
X626421Y163469D02*
X626545Y163428D01*
X626601Y163400D01*
X626643Y163386D01*
X626670Y163358D01*
X626684D01*
X627586Y162790D01*
X627641Y162762D01*
X627669Y162720D01*
X627724Y162637D01*
X627738Y162568D01*
Y162554D01*
Y162540D01*
Y161722D01*
X627724Y161653D01*
X627710Y161611D01*
X627669Y161583D01*
X627558D01*
X627544Y161597D01*
X627530D01*
X626545Y162152D01*
Y157298D01*
X626532Y157228D01*
X626518Y157173D01*
X626476Y157145D01*
X626435Y157118D01*
X626365Y157090D01*
X625478D01*
X625408Y157104D01*
X625353Y157118D01*
X625339Y157131D01*
X625325D01*
X625297Y157173D01*
X625284Y157228D01*
Y157284D01*
Y157298D01*
Y163289D01*
X625297Y163358D01*
X625311Y163414D01*
X625353Y163442D01*
X625381Y163469D01*
X625464Y163497D01*
X626296D01*
X626421Y163469D01*
D02*
G37*
G36*
X632703Y163483D02*
X632758Y163469D01*
X632786Y163428D01*
X632814Y163400D01*
X632842Y163317D01*
Y163303D01*
Y163289D01*
Y157298D01*
X632828Y157228D01*
X632814Y157173D01*
X632772Y157145D01*
X632731Y157118D01*
X632661Y157090D01*
X630165D01*
X629888Y157104D01*
X629652Y157159D01*
X629444Y157228D01*
X629264Y157298D01*
X629139Y157381D01*
X629042Y157437D01*
X628973Y157492D01*
X628959Y157506D01*
X628806Y157686D01*
X628695Y157880D01*
X628626Y158075D01*
X628570Y158269D01*
X628543Y158449D01*
X628515Y158588D01*
Y158643D01*
Y158685D01*
Y158699D01*
Y158712D01*
Y161874D01*
X628529Y162152D01*
X628584Y162388D01*
X628653Y162596D01*
X628737Y162762D01*
X628820Y162901D01*
X628889Y162984D01*
X628945Y163053D01*
X628959Y163067D01*
X629139Y163206D01*
X629333Y163317D01*
X629527Y163386D01*
X629721Y163442D01*
X629902Y163469D01*
X630040Y163497D01*
X632634D01*
X632703Y163483D01*
D02*
G37*
G36*
X621900D02*
X621969Y163469D01*
X622024Y163442D01*
X622038Y163428D01*
X622108Y163372D01*
X622163Y163289D01*
X622205Y163220D01*
X622219Y163206D01*
Y163192D01*
X624216Y159503D01*
X624271Y159350D01*
X624299Y159184D01*
X624313Y159115D01*
Y159059D01*
Y159017D01*
Y159004D01*
Y158615D01*
X624299Y158504D01*
X624257Y158421D01*
X624230Y158366D01*
X624216Y158352D01*
X624118Y158296D01*
X624035Y158269D01*
X623966Y158255D01*
X621470D01*
Y157298D01*
X621456Y157228D01*
X621428Y157173D01*
X621400Y157145D01*
X621359Y157118D01*
X621275Y157090D01*
X620471D01*
X620402Y157104D01*
X620346Y157118D01*
X620332Y157131D01*
X620319D01*
X620291Y157173D01*
X620277Y157228D01*
Y157284D01*
Y157298D01*
Y158255D01*
X619556D01*
X619487Y158269D01*
X619445Y158296D01*
X619389Y158366D01*
X619362Y158449D01*
Y158463D01*
Y158477D01*
Y159156D01*
X619375Y159226D01*
X619389Y159267D01*
X619459Y159323D01*
X619528Y159350D01*
X620277D01*
Y163136D01*
X620291Y163247D01*
X620332Y163331D01*
X620374Y163386D01*
X620388Y163400D01*
X620471Y163455D01*
X620554Y163483D01*
X620624Y163497D01*
X621789D01*
X621900Y163483D01*
D02*
G37*
G36*
X564924Y163176D02*
X565048Y163134D01*
X565104Y163106D01*
X565146Y163093D01*
X565173Y163065D01*
X565187D01*
X566089Y162496D01*
X566144Y162469D01*
X566172Y162427D01*
X566227Y162344D01*
X566241Y162274D01*
Y162261D01*
Y162247D01*
Y161429D01*
X566227Y161359D01*
X566213Y161318D01*
X566172Y161290D01*
X566061D01*
X566047Y161304D01*
X566033D01*
X565048Y161858D01*
Y157004D01*
X565035Y156935D01*
X565021Y156880D01*
X564979Y156852D01*
X564938Y156824D01*
X564868Y156796D01*
X563981D01*
X563911Y156810D01*
X563856Y156824D01*
X563842Y156838D01*
X563828D01*
X563800Y156880D01*
X563787Y156935D01*
Y156991D01*
Y157004D01*
Y162996D01*
X563800Y163065D01*
X563814Y163120D01*
X563856Y163148D01*
X563884Y163176D01*
X563967Y163204D01*
X564799D01*
X564924Y163176D01*
D02*
G37*
G36*
X561346Y163190D02*
X561595Y163134D01*
X561803Y163079D01*
X561970Y162996D01*
X562108Y162926D01*
X562206Y162857D01*
X562275Y162801D01*
X562289Y162788D01*
X562427Y162621D01*
X562538Y162427D01*
X562608Y162233D01*
X562663Y162039D01*
X562691Y161858D01*
X562705Y161720D01*
X562719Y161664D01*
Y161623D01*
Y161609D01*
Y161595D01*
Y161248D01*
X562705Y161179D01*
X562677Y161123D01*
X562649Y161096D01*
X562608Y161068D01*
X562524Y161040D01*
X561651D01*
X561581Y161054D01*
X561526Y161068D01*
X561498Y161110D01*
X561470Y161151D01*
X561443Y161220D01*
Y161234D01*
Y161248D01*
Y161567D01*
Y161678D01*
X561429Y161775D01*
X561401Y161845D01*
X561373Y161914D01*
X561359Y161956D01*
X561332Y161983D01*
X561318Y162011D01*
X561263Y162052D01*
X561193Y162094D01*
X561041Y162136D01*
X560971Y162150D01*
X560403D01*
X560305Y162122D01*
X560222Y162108D01*
X560153Y162080D01*
X560098Y162052D01*
X560070Y162039D01*
X560042Y162011D01*
X559987Y161956D01*
X559959Y161886D01*
X559903Y161747D01*
Y161678D01*
X559889Y161623D01*
Y161581D01*
Y161567D01*
Y161276D01*
X559903Y161123D01*
X559959Y160971D01*
X560028Y160832D01*
X560111Y160707D01*
X560209Y160610D01*
X560278Y160541D01*
X560333Y160485D01*
X560347Y160471D01*
X562178Y158918D01*
X562344Y158766D01*
X562469Y158599D01*
X562552Y158433D01*
X562608Y158280D01*
X562649Y158155D01*
X562663Y158045D01*
X562677Y157975D01*
Y157948D01*
Y157004D01*
X562663Y156935D01*
X562649Y156880D01*
X562608Y156852D01*
X562566Y156824D01*
X562497Y156796D01*
X558863D01*
X558794Y156810D01*
X558738Y156824D01*
X558711Y156866D01*
X558683Y156907D01*
X558655Y156977D01*
Y156991D01*
Y157004D01*
Y157698D01*
X558669Y157767D01*
X558683Y157823D01*
X558725Y157850D01*
X558752Y157878D01*
X558835Y157906D01*
X561249D01*
Y158072D01*
X561235Y158155D01*
X561193Y158239D01*
X561152Y158294D01*
X561138Y158308D01*
X559252Y159903D01*
X559141Y160000D01*
X559057Y160111D01*
X558905Y160319D01*
X558794Y160541D01*
X558725Y160735D01*
X558683Y160915D01*
X558669Y161068D01*
X558655Y161123D01*
Y161165D01*
Y161179D01*
Y161193D01*
Y161595D01*
X558669Y161872D01*
X558725Y162108D01*
X558794Y162316D01*
X558863Y162482D01*
X558946Y162621D01*
X559016Y162704D01*
X559071Y162774D01*
X559085Y162788D01*
X559265Y162926D01*
X559460Y163023D01*
X559654Y163106D01*
X559862Y163148D01*
X560028Y163176D01*
X560181Y163204D01*
X561068D01*
X561346Y163190D01*
D02*
G37*
G36*
X571206D02*
X571262Y163176D01*
X571289Y163134D01*
X571317Y163106D01*
X571345Y163023D01*
Y163009D01*
Y162996D01*
Y157004D01*
X571331Y156935D01*
X571317Y156880D01*
X571275Y156852D01*
X571234Y156824D01*
X571165Y156796D01*
X568668D01*
X568391Y156810D01*
X568155Y156866D01*
X567947Y156935D01*
X567767Y157004D01*
X567642Y157088D01*
X567545Y157143D01*
X567476Y157199D01*
X567462Y157212D01*
X567309Y157393D01*
X567198Y157587D01*
X567129Y157781D01*
X567073Y157975D01*
X567046Y158155D01*
X567018Y158294D01*
Y158350D01*
Y158391D01*
Y158405D01*
Y158419D01*
Y161581D01*
X567032Y161858D01*
X567087Y162094D01*
X567156Y162302D01*
X567240Y162469D01*
X567323Y162607D01*
X567392Y162691D01*
X567448Y162760D01*
X567462Y162774D01*
X567642Y162912D01*
X567836Y163023D01*
X568030Y163093D01*
X568224Y163148D01*
X568405Y163176D01*
X568543Y163204D01*
X571137D01*
X571206Y163190D01*
D02*
G37*
G36*
X495090Y163176D02*
X495215Y163134D01*
X495270Y163106D01*
X495312Y163093D01*
X495340Y163065D01*
X495354D01*
X496255Y162496D01*
X496311Y162469D01*
X496338Y162427D01*
X496394Y162344D01*
X496408Y162274D01*
Y162261D01*
Y162247D01*
Y161429D01*
X496394Y161359D01*
X496380Y161318D01*
X496338Y161290D01*
X496227D01*
X496213Y161304D01*
X496200D01*
X495215Y161858D01*
Y157004D01*
X495201Y156935D01*
X495187Y156880D01*
X495146Y156852D01*
X495104Y156824D01*
X495035Y156796D01*
X494147D01*
X494078Y156810D01*
X494022Y156824D01*
X494008Y156838D01*
X493994D01*
X493967Y156880D01*
X493953Y156935D01*
Y156991D01*
Y157004D01*
Y162996D01*
X493967Y163065D01*
X493981Y163120D01*
X494022Y163148D01*
X494050Y163176D01*
X494133Y163204D01*
X494965D01*
X495090Y163176D01*
D02*
G37*
G36*
X501372Y163190D02*
X501428Y163176D01*
X501456Y163134D01*
X501483Y163106D01*
X501511Y163023D01*
Y163009D01*
Y162996D01*
Y157004D01*
X501497Y156935D01*
X501483Y156880D01*
X501442Y156852D01*
X501400Y156824D01*
X501331Y156796D01*
X498835D01*
X498557Y156810D01*
X498321Y156866D01*
X498114Y156935D01*
X497933Y157004D01*
X497808Y157088D01*
X497711Y157143D01*
X497642Y157199D01*
X497628Y157212D01*
X497476Y157393D01*
X497365Y157587D01*
X497295Y157781D01*
X497240Y157975D01*
X497212Y158155D01*
X497184Y158294D01*
Y158350D01*
Y158391D01*
Y158405D01*
Y158419D01*
Y161581D01*
X497198Y161858D01*
X497254Y162094D01*
X497323Y162302D01*
X497406Y162469D01*
X497489Y162607D01*
X497559Y162691D01*
X497614Y162760D01*
X497628Y162774D01*
X497808Y162912D01*
X498003Y163023D01*
X498197Y163093D01*
X498391Y163148D01*
X498571Y163176D01*
X498710Y163204D01*
X501303D01*
X501372Y163190D01*
D02*
G37*
G36*
X491415D02*
X491651Y163134D01*
X491859Y163079D01*
X492025Y162996D01*
X492164Y162926D01*
X492261Y162857D01*
X492330Y162801D01*
X492344Y162788D01*
X492483Y162621D01*
X492594Y162427D01*
X492663Y162219D01*
X492719Y162025D01*
X492746Y161858D01*
X492760Y161706D01*
X492774Y161650D01*
Y161623D01*
Y161595D01*
Y161581D01*
Y158419D01*
X492760Y158142D01*
X492705Y157892D01*
X492635Y157684D01*
X492552Y157518D01*
X492483Y157393D01*
X492413Y157296D01*
X492358Y157226D01*
X492344Y157212D01*
X492164Y157074D01*
X491970Y156977D01*
X491776Y156894D01*
X491581Y156852D01*
X491401Y156824D01*
X491263Y156810D01*
X491207Y156796D01*
X490139D01*
X489862Y156810D01*
X489612Y156866D01*
X489404Y156935D01*
X489238Y157004D01*
X489099Y157088D01*
X489002Y157143D01*
X488933Y157199D01*
X488919Y157212D01*
X488780Y157393D01*
X488669Y157587D01*
X488600Y157781D01*
X488544Y157975D01*
X488517Y158155D01*
X488489Y158294D01*
Y158350D01*
Y158391D01*
Y158405D01*
Y158419D01*
Y161581D01*
X488503Y161858D01*
X488558Y162094D01*
X488628Y162302D01*
X488697Y162469D01*
X488780Y162607D01*
X488849Y162691D01*
X488905Y162760D01*
X488919Y162774D01*
X489099Y162912D01*
X489293Y163023D01*
X489487Y163093D01*
X489695Y163148D01*
X489862Y163176D01*
X490014Y163204D01*
X491138D01*
X491415Y163190D01*
D02*
G37*
G36*
X424736D02*
X424791Y163176D01*
X424819Y163134D01*
X424847Y163106D01*
X424875Y163023D01*
Y163009D01*
Y162996D01*
Y157004D01*
X424861Y156935D01*
X424847Y156880D01*
X424805Y156852D01*
X424764Y156824D01*
X424695Y156796D01*
X422198D01*
X421921Y156810D01*
X421685Y156866D01*
X421477Y156935D01*
X421297Y157004D01*
X421172Y157088D01*
X421075Y157143D01*
X421006Y157199D01*
X420992Y157212D01*
X420839Y157393D01*
X420728Y157587D01*
X420659Y157781D01*
X420603Y157975D01*
X420575Y158155D01*
X420548Y158294D01*
Y158350D01*
Y158391D01*
Y158405D01*
Y158419D01*
Y161581D01*
X420562Y161858D01*
X420617Y162094D01*
X420686Y162302D01*
X420770Y162469D01*
X420853Y162607D01*
X420922Y162691D01*
X420978Y162760D01*
X420992Y162774D01*
X421172Y162912D01*
X421366Y163023D01*
X421560Y163093D01*
X421754Y163148D01*
X421935Y163176D01*
X422073Y163204D01*
X424667D01*
X424736Y163190D01*
D02*
G37*
G36*
X418107D02*
X418357Y163148D01*
X418565Y163079D01*
X418731Y163009D01*
X418870Y162940D01*
X418967Y162871D01*
X419036Y162829D01*
X419050Y162815D01*
X419189Y162649D01*
X419286Y162469D01*
X419369Y162274D01*
X419411Y162094D01*
X419438Y161928D01*
X419452Y161789D01*
X419466Y161734D01*
Y161692D01*
Y161678D01*
Y161664D01*
Y161234D01*
X419452Y161068D01*
X419438Y160915D01*
X419411Y160777D01*
X419369Y160652D01*
X419258Y160430D01*
X419133Y160277D01*
X419022Y160153D01*
X418911Y160069D01*
X418842Y160028D01*
X418814Y160014D01*
X418925Y159958D01*
X419022Y159875D01*
X419189Y159709D01*
X419300Y159501D01*
X419383Y159307D01*
X419425Y159112D01*
X419452Y158960D01*
X419466Y158890D01*
Y158849D01*
Y158821D01*
Y158807D01*
Y158350D01*
X419452Y158072D01*
X419397Y157837D01*
X419327Y157642D01*
X419258Y157476D01*
X419175Y157351D01*
X419119Y157254D01*
X419064Y157199D01*
X419050Y157185D01*
X418870Y157060D01*
X418676Y156963D01*
X418481Y156894D01*
X418273Y156852D01*
X418107Y156824D01*
X417954Y156796D01*
X416762D01*
X416484Y156810D01*
X416235Y156852D01*
X416027Y156921D01*
X415860Y156991D01*
X415722Y157060D01*
X415638Y157129D01*
X415569Y157171D01*
X415555Y157185D01*
X415416Y157351D01*
X415305Y157531D01*
X415236Y157726D01*
X415181Y157920D01*
X415153Y158086D01*
X415125Y158225D01*
Y158280D01*
Y158322D01*
Y158336D01*
Y158350D01*
Y158793D01*
Y158960D01*
X415153Y159126D01*
X415181Y159265D01*
X415222Y159390D01*
X415333Y159598D01*
X415444Y159764D01*
X415569Y159875D01*
X415680Y159958D01*
X415749Y160000D01*
X415763Y160014D01*
X415777D01*
X415666Y160056D01*
X415583Y160125D01*
X415430Y160264D01*
X415375Y160319D01*
X415333Y160375D01*
X415319Y160416D01*
X415305Y160430D01*
X415250Y160555D01*
X415195Y160693D01*
X415167Y160832D01*
X415153Y160957D01*
X415139Y161068D01*
X415125Y161151D01*
Y161220D01*
Y161234D01*
Y161664D01*
X415139Y161928D01*
X415195Y162164D01*
X415264Y162358D01*
X415333Y162524D01*
X415416Y162649D01*
X415486Y162746D01*
X415541Y162801D01*
X415555Y162815D01*
X415722Y162940D01*
X415916Y163037D01*
X416124Y163106D01*
X416318Y163162D01*
X416484Y163190D01*
X416637Y163204D01*
X417830D01*
X418107Y163190D01*
D02*
G37*
G36*
X632393Y281866D02*
X632448Y281852D01*
X632476Y281811D01*
X632504Y281783D01*
X632531Y281700D01*
Y281686D01*
Y281672D01*
Y275681D01*
X632517Y275612D01*
X632504Y275556D01*
X632462Y275529D01*
X632420Y275501D01*
X632351Y275473D01*
X629855D01*
X629577Y275487D01*
X629342Y275542D01*
X629133Y275612D01*
X628953Y275681D01*
X628828Y275764D01*
X628731Y275820D01*
X628662Y275875D01*
X628648Y275889D01*
X628496Y276069D01*
X628385Y276264D01*
X628315Y276458D01*
X628260Y276652D01*
X628232Y276832D01*
X628204Y276971D01*
Y277026D01*
Y277068D01*
Y277082D01*
Y277096D01*
Y280258D01*
X628218Y280535D01*
X628274Y280771D01*
X628343Y280979D01*
X628426Y281145D01*
X628509Y281284D01*
X628579Y281367D01*
X628634Y281436D01*
X628648Y281450D01*
X628828Y281589D01*
X629023Y281700D01*
X629217Y281769D01*
X629411Y281825D01*
X629591Y281852D01*
X629730Y281880D01*
X632323D01*
X632393Y281866D01*
D02*
G37*
G36*
X625764D02*
X626013Y281811D01*
X626221Y281755D01*
X626388Y281672D01*
X626526Y281603D01*
X626623Y281534D01*
X626693Y281478D01*
X626707Y281464D01*
X626845Y281298D01*
X626956Y281104D01*
X627025Y280896D01*
X627081Y280701D01*
X627109Y280535D01*
X627123Y280382D01*
X627136Y280327D01*
Y280299D01*
Y280271D01*
Y280258D01*
Y277096D01*
X627123Y276818D01*
X627067Y276569D01*
X626998Y276361D01*
X626915Y276194D01*
X626845Y276069D01*
X626776Y275972D01*
X626720Y275903D01*
X626707Y275889D01*
X626526Y275750D01*
X626332Y275653D01*
X626138Y275570D01*
X625930Y275529D01*
X625764Y275501D01*
X625611Y275487D01*
X625555Y275473D01*
X624515D01*
X624238Y275487D01*
X623988Y275542D01*
X623780Y275612D01*
X623614Y275681D01*
X623475Y275764D01*
X623378Y275820D01*
X623309Y275875D01*
X623295Y275889D01*
X623156Y276056D01*
X623045Y276250D01*
X622976Y276458D01*
X622920Y276652D01*
X622893Y276818D01*
X622865Y276971D01*
Y277026D01*
Y277068D01*
Y277082D01*
Y277096D01*
Y277900D01*
X622879Y278177D01*
X622934Y278427D01*
X623004Y278635D01*
X623073Y278801D01*
X623156Y278940D01*
X623226Y279023D01*
X623281Y279093D01*
X623295Y279107D01*
X623475Y279245D01*
X623669Y279356D01*
X623863Y279426D01*
X624072Y279481D01*
X624238Y279509D01*
X624390Y279536D01*
X625874D01*
Y280202D01*
Y280313D01*
X625847Y280410D01*
X625833Y280480D01*
X625805Y280549D01*
X625777Y280590D01*
X625764Y280618D01*
X625736Y280646D01*
X625680Y280688D01*
X625611Y280729D01*
X625458Y280771D01*
X625389Y280785D01*
X623447D01*
X623378Y280798D01*
X623323Y280812D01*
X623295Y280854D01*
X623267Y280896D01*
X623240Y280965D01*
Y280979D01*
Y280993D01*
Y281672D01*
X623253Y281742D01*
X623267Y281797D01*
X623309Y281825D01*
X623336Y281852D01*
X623420Y281880D01*
X625486D01*
X625764Y281866D01*
D02*
G37*
G36*
X529898Y281065D02*
X529953Y281051D01*
X529981Y281009D01*
X530009Y280982D01*
X530036Y280898D01*
Y280884D01*
Y280871D01*
Y274879D01*
X530023Y274810D01*
X530009Y274755D01*
X529967Y274727D01*
X529925Y274699D01*
X529856Y274671D01*
X527360D01*
X527082Y274685D01*
X526847Y274741D01*
X526639Y274810D01*
X526458Y274879D01*
X526334Y274963D01*
X526236Y275018D01*
X526167Y275074D01*
X526153Y275088D01*
X526001Y275268D01*
X525890Y275462D01*
X525820Y275656D01*
X525765Y275850D01*
X525737Y276031D01*
X525709Y276169D01*
Y276225D01*
Y276266D01*
Y276280D01*
Y276294D01*
Y279456D01*
X525723Y279733D01*
X525779Y279969D01*
X525848Y280177D01*
X525931Y280344D01*
X526015Y280482D01*
X526084Y280565D01*
X526139Y280635D01*
X526153Y280649D01*
X526334Y280787D01*
X526528Y280898D01*
X526722Y280968D01*
X526916Y281023D01*
X527096Y281051D01*
X527235Y281079D01*
X529828D01*
X529898Y281065D01*
D02*
G37*
G36*
X522423D02*
X522492Y281051D01*
X522547Y281023D01*
X522561Y281009D01*
X522631Y280954D01*
X522686Y280871D01*
X522728Y280801D01*
X522742Y280787D01*
Y280774D01*
X524739Y277085D01*
X524794Y276932D01*
X524822Y276766D01*
X524836Y276696D01*
Y276641D01*
Y276599D01*
Y276585D01*
Y276197D01*
X524822Y276086D01*
X524780Y276003D01*
X524753Y275947D01*
X524739Y275933D01*
X524641Y275878D01*
X524558Y275850D01*
X524489Y275836D01*
X521993D01*
Y274879D01*
X521979Y274810D01*
X521951Y274755D01*
X521923Y274727D01*
X521882Y274699D01*
X521799Y274671D01*
X520994D01*
X520925Y274685D01*
X520869Y274699D01*
X520855Y274713D01*
X520842D01*
X520814Y274755D01*
X520800Y274810D01*
Y274866D01*
Y274879D01*
Y275836D01*
X520079D01*
X520009Y275850D01*
X519968Y275878D01*
X519912Y275947D01*
X519885Y276031D01*
Y276044D01*
Y276058D01*
Y276738D01*
X519898Y276807D01*
X519912Y276849D01*
X519982Y276904D01*
X520051Y276932D01*
X520800D01*
Y280718D01*
X520814Y280829D01*
X520855Y280912D01*
X520897Y280968D01*
X520911Y280982D01*
X520994Y281037D01*
X521077Y281065D01*
X521147Y281079D01*
X522312D01*
X522423Y281065D01*
D02*
G37*
G36*
X418625Y281781D02*
X418875Y281725D01*
X419083Y281670D01*
X419249Y281587D01*
X419388Y281517D01*
X419485Y281448D01*
X419554Y281392D01*
X419568Y281378D01*
X419707Y281212D01*
X419818Y281018D01*
X419887Y280824D01*
X419943Y280630D01*
X419970Y280449D01*
X419984Y280311D01*
X419998Y280255D01*
Y280214D01*
Y280200D01*
Y280186D01*
Y279839D01*
X419984Y279770D01*
X419956Y279714D01*
X419929Y279687D01*
X419887Y279659D01*
X419804Y279631D01*
X418930D01*
X418861Y279645D01*
X418805Y279659D01*
X418778Y279701D01*
X418750Y279742D01*
X418722Y279811D01*
Y279825D01*
Y279839D01*
Y280158D01*
Y280269D01*
X418708Y280366D01*
X418680Y280436D01*
X418653Y280505D01*
X418639Y280546D01*
X418611Y280574D01*
X418597Y280602D01*
X418542Y280644D01*
X418473Y280685D01*
X418320Y280727D01*
X418251Y280741D01*
X417682D01*
X417585Y280713D01*
X417502Y280699D01*
X417432Y280671D01*
X417377Y280644D01*
X417349Y280630D01*
X417321Y280602D01*
X417266Y280546D01*
X417238Y280477D01*
X417183Y280338D01*
Y280269D01*
X417169Y280214D01*
Y280172D01*
Y280158D01*
Y279867D01*
X417183Y279714D01*
X417238Y279562D01*
X417308Y279423D01*
X417391Y279298D01*
X417488Y279201D01*
X417557Y279132D01*
X417613Y279076D01*
X417626Y279062D01*
X419457Y277509D01*
X419624Y277357D01*
X419748Y277190D01*
X419832Y277024D01*
X419887Y276871D01*
X419929Y276747D01*
X419943Y276635D01*
X419956Y276566D01*
Y276539D01*
Y275595D01*
X419943Y275526D01*
X419929Y275471D01*
X419887Y275443D01*
X419846Y275415D01*
X419776Y275387D01*
X416143D01*
X416073Y275401D01*
X416018Y275415D01*
X415990Y275457D01*
X415962Y275498D01*
X415935Y275568D01*
Y275581D01*
Y275595D01*
Y276289D01*
X415948Y276358D01*
X415962Y276414D01*
X416004Y276441D01*
X416032Y276469D01*
X416115Y276497D01*
X418528D01*
Y276663D01*
X418514Y276747D01*
X418473Y276830D01*
X418431Y276885D01*
X418417Y276899D01*
X416531Y278494D01*
X416420Y278591D01*
X416337Y278702D01*
X416184Y278910D01*
X416073Y279132D01*
X416004Y279326D01*
X415962Y279506D01*
X415948Y279659D01*
X415935Y279714D01*
Y279756D01*
Y279770D01*
Y279784D01*
Y280186D01*
X415948Y280463D01*
X416004Y280699D01*
X416073Y280907D01*
X416143Y281073D01*
X416226Y281212D01*
X416295Y281295D01*
X416351Y281365D01*
X416365Y281378D01*
X416545Y281517D01*
X416739Y281614D01*
X416933Y281698D01*
X417141Y281739D01*
X417308Y281767D01*
X417460Y281795D01*
X418348D01*
X418625Y281781D01*
D02*
G37*
G36*
X425157D02*
X425213Y281767D01*
X425240Y281725D01*
X425268Y281698D01*
X425296Y281614D01*
Y281600D01*
Y281587D01*
Y275595D01*
X425282Y275526D01*
X425268Y275471D01*
X425226Y275443D01*
X425185Y275415D01*
X425116Y275387D01*
X422619D01*
X422342Y275401D01*
X422106Y275457D01*
X421898Y275526D01*
X421718Y275595D01*
X421593Y275679D01*
X421496Y275734D01*
X421427Y275790D01*
X421413Y275803D01*
X421260Y275984D01*
X421149Y276178D01*
X421080Y276372D01*
X421024Y276566D01*
X420997Y276747D01*
X420969Y276885D01*
Y276941D01*
Y276982D01*
Y276996D01*
Y277010D01*
Y280172D01*
X420983Y280449D01*
X421038Y280685D01*
X421107Y280893D01*
X421191Y281060D01*
X421274Y281198D01*
X421343Y281282D01*
X421399Y281351D01*
X421413Y281365D01*
X421593Y281503D01*
X421787Y281614D01*
X421981Y281684D01*
X422175Y281739D01*
X422356Y281767D01*
X422494Y281795D01*
X425088D01*
X425157Y281781D01*
D02*
G37*
%LPC*%
G36*
X631469Y162401D02*
X630262D01*
X630165Y162374D01*
X630082Y162360D01*
X630027Y162332D01*
X629971Y162304D01*
X629943Y162290D01*
X629916Y162263D01*
X629874Y162207D01*
X629832Y162138D01*
X629791Y161999D01*
X629777Y161930D01*
Y161874D01*
Y161833D01*
Y161819D01*
Y158768D01*
Y158657D01*
X629805Y158560D01*
X629818Y158477D01*
X629846Y158421D01*
X629874Y158366D01*
X629888Y158338D01*
X629916Y158324D01*
Y158310D01*
X629971Y158269D01*
X630040Y158241D01*
X630193Y158199D01*
X630262D01*
X630318Y158185D01*
X631455D01*
X631524Y158199D01*
X631552Y158241D01*
X631566Y158282D01*
Y158296D01*
Y162290D01*
X631552Y162360D01*
X631510Y162388D01*
X631469Y162401D01*
D02*
G37*
G36*
X621470Y162429D02*
Y159350D01*
X623078D01*
X621470Y162429D01*
D02*
G37*
G36*
X569972Y162108D02*
X568765D01*
X568668Y162080D01*
X568585Y162066D01*
X568530Y162039D01*
X568474Y162011D01*
X568446Y161997D01*
X568419Y161969D01*
X568377Y161914D01*
X568335Y161845D01*
X568294Y161706D01*
X568280Y161637D01*
Y161581D01*
Y161539D01*
Y161525D01*
Y158475D01*
Y158364D01*
X568308Y158266D01*
X568321Y158183D01*
X568349Y158128D01*
X568377Y158072D01*
X568391Y158045D01*
X568419Y158031D01*
Y158017D01*
X568474Y157975D01*
X568543Y157948D01*
X568696Y157906D01*
X568765D01*
X568821Y157892D01*
X569958D01*
X570027Y157906D01*
X570055Y157948D01*
X570069Y157989D01*
Y158003D01*
Y161997D01*
X570055Y162066D01*
X570013Y162094D01*
X569972Y162108D01*
D02*
G37*
G36*
X500138D02*
X498932D01*
X498835Y162080D01*
X498751Y162066D01*
X498696Y162039D01*
X498641Y162011D01*
X498613Y161997D01*
X498585Y161969D01*
X498543Y161914D01*
X498502Y161845D01*
X498460Y161706D01*
X498446Y161637D01*
Y161581D01*
Y161539D01*
Y161525D01*
Y158475D01*
Y158364D01*
X498474Y158266D01*
X498488Y158183D01*
X498516Y158128D01*
X498543Y158072D01*
X498557Y158045D01*
X498585Y158031D01*
Y158017D01*
X498641Y157975D01*
X498710Y157948D01*
X498862Y157906D01*
X498932D01*
X498987Y157892D01*
X500124D01*
X500194Y157906D01*
X500221Y157948D01*
X500235Y157989D01*
Y158003D01*
Y161997D01*
X500221Y162066D01*
X500180Y162094D01*
X500138Y162108D01*
D02*
G37*
G36*
X491027D02*
X490222D01*
X490125Y162080D01*
X490056Y162066D01*
X489987Y162039D01*
X489945Y162011D01*
X489917Y161997D01*
X489889Y161969D01*
X489848Y161914D01*
X489806Y161845D01*
X489765Y161706D01*
X489751Y161637D01*
Y161581D01*
Y161539D01*
Y161525D01*
Y158475D01*
Y158364D01*
X489779Y158266D01*
X489792Y158183D01*
X489820Y158128D01*
X489848Y158072D01*
X489862Y158045D01*
X489889Y158031D01*
Y158017D01*
X489945Y157975D01*
X490014Y157948D01*
X490153Y157906D01*
X490222D01*
X490278Y157892D01*
X491027D01*
X491124Y157906D01*
X491207Y157934D01*
X491263Y157961D01*
X491318Y157975D01*
X491346Y158003D01*
X491359Y158017D01*
X491373D01*
X491415Y158072D01*
X491443Y158142D01*
X491484Y158294D01*
Y158364D01*
X491498Y158419D01*
Y158461D01*
Y158475D01*
Y161525D01*
Y161637D01*
X491484Y161734D01*
X491457Y161803D01*
X491429Y161872D01*
X491415Y161914D01*
X491387Y161942D01*
X491373Y161969D01*
X491318Y162011D01*
X491249Y162052D01*
X491096Y162094D01*
X491027Y162108D01*
D02*
G37*
G36*
X423502D02*
X422295D01*
X422198Y162080D01*
X422115Y162066D01*
X422060Y162039D01*
X422004Y162011D01*
X421976Y161997D01*
X421949Y161969D01*
X421907Y161914D01*
X421865Y161845D01*
X421824Y161706D01*
X421810Y161637D01*
Y161581D01*
Y161539D01*
Y161525D01*
Y158475D01*
Y158364D01*
X421838Y158266D01*
X421851Y158183D01*
X421879Y158128D01*
X421907Y158072D01*
X421921Y158045D01*
X421949Y158031D01*
Y158017D01*
X422004Y157975D01*
X422073Y157948D01*
X422226Y157906D01*
X422295D01*
X422351Y157892D01*
X423488D01*
X423557Y157906D01*
X423585Y157948D01*
X423599Y157989D01*
Y158003D01*
Y161997D01*
X423585Y162066D01*
X423543Y162094D01*
X423502Y162108D01*
D02*
G37*
G36*
X417746Y162122D02*
X416845D01*
X416748Y162094D01*
X416679Y162080D01*
X416609Y162052D01*
X416568Y162025D01*
X416540Y162011D01*
X416512Y161983D01*
X416470Y161928D01*
X416429Y161858D01*
X416387Y161720D01*
X416373Y161650D01*
Y161609D01*
Y161567D01*
Y161553D01*
Y161137D01*
Y161026D01*
X416401Y160929D01*
X416415Y160846D01*
X416443Y160777D01*
X416470Y160735D01*
X416484Y160693D01*
X416512Y160680D01*
Y160666D01*
X416568Y160610D01*
X416637Y160583D01*
X416776Y160527D01*
X416845D01*
X416900Y160513D01*
X417635D01*
X417746Y160527D01*
X417844Y160541D01*
X417927Y160569D01*
X417982Y160596D01*
X418038Y160624D01*
X418065Y160638D01*
X418079Y160666D01*
X418093D01*
X418135Y160735D01*
X418162Y160804D01*
X418204Y160957D01*
Y161026D01*
X418218Y161082D01*
Y161123D01*
Y161137D01*
Y161553D01*
Y161664D01*
X418204Y161747D01*
X418176Y161831D01*
X418149Y161886D01*
X418135Y161928D01*
X418107Y161956D01*
X418093Y161983D01*
X418038Y162025D01*
X417968Y162066D01*
X417816Y162108D01*
X417746Y162122D01*
D02*
G37*
G36*
X417691Y159529D02*
X416845D01*
X416748Y159501D01*
X416679Y159487D01*
X416609Y159459D01*
X416568Y159431D01*
X416540Y159404D01*
X416512Y159390D01*
Y159376D01*
X416470Y159307D01*
X416429Y159237D01*
X416387Y159085D01*
X416373Y159015D01*
Y158960D01*
Y158918D01*
Y158904D01*
Y158447D01*
Y158336D01*
X416401Y158253D01*
X416415Y158169D01*
X416443Y158114D01*
X416470Y158058D01*
X416484Y158031D01*
X416512Y158003D01*
X416568Y157961D01*
X416637Y157934D01*
X416776Y157892D01*
X416845D01*
X416900Y157878D01*
X417746D01*
X417844Y157892D01*
X417927Y157920D01*
X417982Y157948D01*
X418038Y157961D01*
X418065Y157989D01*
X418079Y158003D01*
X418093D01*
X418135Y158058D01*
X418162Y158128D01*
X418204Y158280D01*
Y158350D01*
X418218Y158391D01*
Y158433D01*
Y158447D01*
Y158904D01*
Y159015D01*
X418204Y159112D01*
X418176Y159196D01*
X418149Y159265D01*
X418135Y159307D01*
X418107Y159348D01*
X418093Y159376D01*
X418038Y159431D01*
X417968Y159459D01*
X417816Y159515D01*
X417746D01*
X417691Y159529D01*
D02*
G37*
G36*
X631158Y280785D02*
X629952D01*
X629855Y280757D01*
X629771Y280743D01*
X629716Y280715D01*
X629660Y280688D01*
X629633Y280674D01*
X629605Y280646D01*
X629563Y280590D01*
X629522Y280521D01*
X629480Y280382D01*
X629466Y280313D01*
Y280258D01*
Y280216D01*
Y280202D01*
Y277151D01*
Y277040D01*
X629494Y276943D01*
X629508Y276860D01*
X629536Y276804D01*
X629563Y276749D01*
X629577Y276721D01*
X629605Y276707D01*
Y276693D01*
X629660Y276652D01*
X629730Y276624D01*
X629882Y276583D01*
X629952D01*
X630007Y276569D01*
X631144D01*
X631214Y276583D01*
X631241Y276624D01*
X631255Y276666D01*
Y276680D01*
Y280674D01*
X631241Y280743D01*
X631200Y280771D01*
X631158Y280785D01*
D02*
G37*
G36*
X625874Y278427D02*
X624612D01*
X624515Y278399D01*
X624432Y278385D01*
X624377Y278358D01*
X624321Y278330D01*
X624294Y278316D01*
X624266Y278288D01*
X624224Y278233D01*
X624183Y278164D01*
X624141Y278025D01*
X624127Y277955D01*
Y277900D01*
Y277858D01*
Y277845D01*
Y277151D01*
Y277040D01*
X624155Y276943D01*
X624169Y276860D01*
X624196Y276804D01*
X624224Y276749D01*
X624238Y276721D01*
X624266Y276707D01*
Y276693D01*
X624321Y276652D01*
X624390Y276624D01*
X624543Y276583D01*
X624612D01*
X624668Y276569D01*
X625403D01*
X625500Y276583D01*
X625583Y276610D01*
X625639Y276638D01*
X625694Y276652D01*
X625722Y276680D01*
X625736Y276693D01*
X625750D01*
X625791Y276749D01*
X625819Y276818D01*
X625861Y276971D01*
Y277040D01*
X625874Y277096D01*
Y277137D01*
Y277151D01*
Y278427D01*
D02*
G37*
G36*
X528663Y279983D02*
X527457D01*
X527360Y279955D01*
X527276Y279942D01*
X527221Y279914D01*
X527166Y279886D01*
X527138Y279872D01*
X527110Y279844D01*
X527068Y279789D01*
X527027Y279720D01*
X526985Y279581D01*
X526971Y279512D01*
Y279456D01*
Y279415D01*
Y279401D01*
Y276350D01*
Y276239D01*
X526999Y276141D01*
X527013Y276058D01*
X527041Y276003D01*
X527068Y275947D01*
X527082Y275920D01*
X527110Y275906D01*
Y275892D01*
X527166Y275850D01*
X527235Y275823D01*
X527388Y275781D01*
X527457D01*
X527512Y275767D01*
X528649D01*
X528719Y275781D01*
X528747Y275823D01*
X528760Y275864D01*
Y275878D01*
Y279872D01*
X528747Y279942D01*
X528705Y279969D01*
X528663Y279983D01*
D02*
G37*
G36*
X521993Y280011D02*
Y276932D01*
X523601D01*
X521993Y280011D01*
D02*
G37*
G36*
X423923Y280699D02*
X422716D01*
X422619Y280671D01*
X422536Y280657D01*
X422481Y280630D01*
X422425Y280602D01*
X422397Y280588D01*
X422369Y280560D01*
X422328Y280505D01*
X422286Y280436D01*
X422245Y280297D01*
X422231Y280228D01*
Y280172D01*
Y280130D01*
Y280117D01*
Y277066D01*
Y276954D01*
X422259Y276857D01*
X422272Y276774D01*
X422300Y276719D01*
X422328Y276663D01*
X422342Y276635D01*
X422369Y276622D01*
Y276608D01*
X422425Y276566D01*
X422494Y276539D01*
X422647Y276497D01*
X422716D01*
X422772Y276483D01*
X423909D01*
X423978Y276497D01*
X424006Y276539D01*
X424020Y276580D01*
Y276594D01*
Y280588D01*
X424006Y280657D01*
X423964Y280685D01*
X423923Y280699D01*
D02*
G37*
%LPD*%
D10*
X494656Y151628D02*
G03*
X494656Y151628I-500J0D01*
G01*
X426156D02*
G03*
X426156Y151628I-500J0D01*
G01*
X631656Y269203D02*
G03*
X631656Y269203I-500J0D01*
G01*
X528906D02*
G03*
X528906Y269203I-500J0D01*
G01*
X426156Y269203D02*
G03*
X426156Y269203I-500J0D01*
G01*
X631656Y151628D02*
G03*
X631656Y151628I-500J0D01*
G01*
X563156Y151628D02*
G03*
X563156Y151628I-500J0D01*
G01*
D11*
X220055Y229066D02*
X316945D01*
X281045D02*
X328005D01*
Y124926D02*
Y229066D01*
X220055Y124926D02*
X328005D01*
X220055D02*
Y229066D01*
M02*
